<?xml version="1.0" standalone="no"?>
<!DOCTYPE svg PUBLIC "-//W3C//DTD SVG 1.1//EN" "http://www.w3.org/Graphics/SVG/1.1/DTD/svg11.dtd" >
<svg xmlns="http://www.w3.org/2000/svg">
<metadata></metadata>
<defs>
<font id="altusregular" horiz-adv-x="729" >
<font-face units-per-em="2048" ascent="1638" descent="-410" />
<missing-glyph horiz-adv-x="696" />
<glyph unicode="&#xfb03;" horiz-adv-x="1187" d="M106 1022q0 -4 111 -4v33q0 140 12 189q22 93 112 134q54 24 140 35q4 5 7 -6q9 -34 0 -67q-2 -11 -7 -15q-48 -10 -76 -21.5t-49 -27.5t-30 -44t-13 -62.5t-4 -92.5q0 -37 2 -55q4 0 96.5 -1t145.5 -1v35q0 13 -1 36.5t-1 34.5q0 71 16.5 123.5t59.5 97.5t126.5 68.5 t207.5 22.5l2 2q8 0 8 -43q0 -39 -10 -47q-177 -6 -246.5 -64t-69.5 -170q0 -78 2 -94q17 0 54.5 -1t56.5 -1q44 0 126 3t115 3q40 0 52 -27l-9 -243l13 -736q-20 -16 -56 -16q-33 0 -51 23l4 321l-8 576l-256 4q-17 0 -37 -2v-33q0 -28 -3.5 -84t-2.5 -88l4 -160 q-2 -14 -2 -49q0 -18 1 -57.5t1 -59.5v-115q0 -35 7.5 -122t7.5 -127q-19 -19 -66 -19q-31 0 -41 10q-6 114 -6 234l2 672q-222 0 -238 -2v-33q0 -32 -3 -87.5t-3 -84.5l4 -160q-2 -19 -2 -46.5t1 -64t1 -55.5v-115q0 -33 8 -120t7 -129q-15 -15 -54 -18.5t-53 9.5 q-8 89 -5 360.5t1 366.5q-2 57 -2 173l-82 -3l-24 25q-12 1 -3 82z" />
<glyph unicode="&#xfb04;" horiz-adv-x="1153" d="M106 1022q0 -4 111 -4v33q0 140 12 189q22 93 112 134q54 24 140 35q4 5 7 -6q9 -34 0 -67q-2 -11 -7 -15q-48 -10 -76 -21.5t-49 -27.5t-30 -44t-13 -62.5t-4 -92.5q0 -37 2 -55q139 0 217 2v31q-1 75 8 130t40 107.5t85 83t146 44.5t219 3q7 -127 -4 -342 q-1 -36 0.5 -102t1.5 -86q0 -32 -3 -87.5t-3 -84.5l4 -160q-2 -19 -2 -46.5t1 -64t1 -55.5v-115q0 -29 3.5 -123t2.5 -137q-15 -15 -54.5 -18t-53.5 10q-8 129 0.5 380.5t5.5 356.5q-2 44 -2 95t1 114t1 97q0 29 -3 150t1 136q-94 -6 -153.5 -24t-90.5 -53.5t-43 -77 t-16 -109.5q-2 -19 2 -55q71 0 112 2q15 4 20 -38q5 -49 -7 -62q-2 -2 -3 -2q-79 6 -81 6q-17 0 -37 -2v-33q0 -32 -3 -87.5t-3 -84.5l4 -160q-2 -19 -2 -46.5t1 -64t1 -55.5v-115q0 -32 7.5 -119.5t6.5 -129.5q-15 -15 -54 -18.5t-53 9.5q-8 89 -5 360.5t1 366.5v177h-213 v-33q0 -32 -3 -87.5t-3 -84.5l4 -160q-2 -19 -2 -46.5t1 -64t1 -55.5v-115q0 -33 8 -120t7 -129q-15 -15 -54 -18.5t-53 9.5q-8 89 -5 360.5t1 366.5q-2 57 -2 173l-82 -3l-24 25q-12 1 -3 82z" />
<glyph horiz-adv-x="0" />
<glyph horiz-adv-x="682" />
<glyph horiz-adv-x="0" />
<glyph horiz-adv-x="0" />
<glyph unicode="&#xd;" horiz-adv-x="696" />
<glyph unicode=" "  horiz-adv-x="696" />
<glyph unicode="&#x09;" horiz-adv-x="696" />
<glyph unicode="&#xa0;" horiz-adv-x="696" />
<glyph unicode="!" horiz-adv-x="327" d="M102 1382q0 2 6 18.5t7 16.5l37 9q67 11 73 -9l-16 -309q-6 -87 -8.5 -218.5t-3.5 -148.5q-3 -33 -4.5 -149.5t-3 -217t-5.5 -110.5q-5 -13 -33 -18t-34 8l-2 178l-6 701q-7 247 -7 249zM108.5 51q0.5 35 5 75t7.5 40l41 6q26 1 33 -4q8 -6 12 -70t-4 -82 q-3 -5 -34.5 -8.5t-53.5 0.5q-7 8 -6.5 43z" />
<glyph unicode="&#x22;" horiz-adv-x="442" d="M102 1352l7 75q13 8 43.5 4t31.5 -16q3 -31 -1 -113.5t-9 -149.5l-6 -67q-3 -2 -9 -5.5t-21 -7.5t-27 -1q-3 33 -4.5 90.5t-2.5 116t-2 74.5zM256 1352l6 75q13 8 44 4t32 -16q3 -31 -1 -113.5t-9 -149.5l-6 -67q-3 -2 -9 -5.5t-21.5 -7.5t-27.5 -1q-4 44 -6 160.5 t-2 120.5z" />
<glyph unicode="#" horiz-adv-x="843" d="M104.5 472.5q-0.5 15.5 2.5 27t8 12.5q92 -6 94 -6h22q24 149 29 184q0 42 6 109l-94 -2l-29 24q-12 1 -6 78q0 -3 135 -6q30 376 58 430q11 7 42 7t46 -5q5 -42 -5 -103t-10 -67l-28 -262h151q24 248 37 430q70 14 101 0q1 -19 -0.5 -38.5t-5.5 -44.5t-5 -34 q0 -57 -10 -119q-9 -50 -22 -192q49 2 92 2q8 2 14.5 -7.5t9 -23.5t3 -29t-2.5 -26t-8 -12q-92 6 -94 6h-25q-5 -33 -11 -94t-7 -68q-4 -41 -8 -131l86 2l30 -25q14 -2 5 -81q-52 4 -130 4v-6q-3 -31 -8 -96t-9 -105t-11.5 -95.5t-16.5 -99.5q-13 -7 -45 -7t-47 5 q-4 44 -2 63.5t8 54t7 52.5l24 236h-47q-54 0 -113 -2q-22 -212 -28 -402q-72 -14 -103 0q-1 19 0.5 38.5t5.5 44.5t5 34q0 73 10 119q5 31 9.5 88.5t6.5 75.5h-90q-8 -2 -14.5 7.5t-9 24.5t-3 30.5zM326 508q104 0 159 2l31 293q-47 -2 -154 -2q-4 -33 -12 -92.5 t-14 -108.5t-10 -92z" />
<glyph unicode="$" horiz-adv-x="724" d="M102 1153q0 87 9.5 131.5t42.5 93.5q7 2 60.5 20t86.5 25q0 31 4 105q19 12 43.5 17t36.5 -3q4 -37 4 -110q54 0 141 -19q19 -55 32 -172t7.5 -236.5t-34.5 -160.5q-4 0 -20 -1.5t-27 -1t-15 4.5q0 11 4 96.5t6 150.5t-2 137t-16 97q-31 28 -78 25q-6 -159 -6 -172v-418 q-2 -20 -2 -68l203 -159q16 -60 27.5 -129t12 -148.5t-19.5 -122.5q-6 -18 -56.5 -66.5t-68.5 -54.5q-57 -12 -94 -14q0 -17 -1 -48t-1 -46q-12 -15 -42 -23t-42 6q-3 48 4 111q-73 7 -117 31q-32 21 -49.5 75t-19.5 123q-2 59 -2 217v9.5v8.5v7.5t1 6.5t2.5 4t4 2.5 t6.5 0.5l61 -20q12 -13 14 -50.5t-1 -47.5q-3 -46 -2.5 -62.5t5 -64.5t5.5 -64q3 -60 98 -67q2 14 2 38v117q0 119 -4 205l2 149q-43 31 -74 62q-47 44 -75 95.5t-47 125.5q-9 33 -9 252zM212 1018.5q10 -139.5 42 -221.5l57 -47v155q0 114 -6 303q-4 90 -4 125 q-58 -23 -80 -55q-19 -120 -9 -259.5zM379 571q4 -304 4 -460q42 3 74 10q43 63 56 161.5t-17 190.5q-47 50 -117 98z" />
<glyph unicode="%" horiz-adv-x="1212" d="M109 989q-19 246 22 385q38 30 119 44t158.5 11t115.5 -20q19 -106 15 -213.5t-27 -196.5q-45 -41 -119.5 -55t-151 -1.5t-132.5 46.5zM201 1030q55 -17 131 -11t108 38q45 146 0 293q-61 19 -131.5 13t-107.5 -42q-60 -139 0 -291zM348 -10q-2 34 5 65t21.5 67t18.5 52 q7 28 26.5 86t26.5 88q21 61 48 184q6 21 24.5 83.5t26.5 95.5q5 17 11.5 48.5t10.5 43.5q4 14 14.5 41.5t14.5 42.5q5 15 13.5 44.5t13.5 43.5q5 15 16 45t14 39q20 62 43 185t41 181h13q50 16 90 0q-1 -16 -4.5 -35t-7 -31t-10 -33t-9.5 -30q-19 -81 -33 -127 q-15 -43 -36.5 -125t-34.5 -120q-34 -97 -76 -242q-12 -43 -32.5 -129t-31.5 -129q-4 -15 -17 -50.5t-18 -56.5q-11 -36 -29 -108t-35 -124.5t-40 -92.5q-38 -15 -78 -2zM678 45q-19 246 22 385q38 30 119 44t159 11t116 -20q19 -106 14.5 -213t-27.5 -197 q-45 -41 -119.5 -55t-151 -1.5t-132.5 46.5zM770 86q55 -17 131.5 -11t108.5 38q45 146 0 293q-61 19 -132 13t-108 -42q-60 -139 0 -291z" />
<glyph unicode="&#x26;" horiz-adv-x="995" d="M104.5 1067.5q-12.5 158.5 61.5 278.5q26 49 121 72t195 7.5t136 -65.5q8 -42 1 -112t-17 -97q-62 -9 -78 16q7 70 -8 131q-50 54 -137.5 46t-140.5 -70q-27 -53 -37 -81.5t-10 -62.5t14 -83q1 -4 6.5 -27t11 -40t14.5 -39t23 -38.5t31 -25.5q16 -1 71 19.5t60 18.5 q12 -5 13 -36.5t-11 -40.5q-89 -65 -115 -90q-22 -21 -49 -99.5t-45.5 -172.5t-15.5 -189t37 -140q40 -24 107 -34.5t152 5.5t148 64q17 71 13.5 155t-14.5 149t-26 110q-46 5 -80.5 -8.5t-51.5 -38.5t-23.5 -54t-1.5 -57q-6 -15 -44 -6t-44 31q0 74 21.5 121.5t66.5 70.5 t93.5 30.5t123.5 8.5q60 1 90 14t35.5 36t5.5 54v68q9 10 36.5 12t47.5 -4q2 -41 0.5 -77.5t-7 -66.5t-18.5 -54t-34.5 -40.5t-56.5 -26.5t-83 -11q27 -88 44.5 -171.5t18 -176.5t-27.5 -146q-68 -62 -170.5 -88t-192 -17t-158.5 40t-81 72q-38 156 -10 362t94 324 q-92 112 -104.5 270.5z" />
<glyph unicode="'" horiz-adv-x="305" d="M102 1352l7 75q13 8 52 4t40 -16q3 -31 -1.5 -113.5t-9.5 -149.5l-6 -67q-5 -2 -13.5 -5.5t-28 -7.5t-31.5 -1q-3 33 -4.5 90.5t-2.5 116t-2 74.5z" />
<glyph unicode="(" horiz-adv-x="720" d="M108.5 738.5q20.5 233.5 122.5 404.5q110 166 185 235q19 22 81 56.5t109 38.5q26 -38 -8 -72q-62 -38 -111.5 -83t-87 -98.5t-61 -95t-53.5 -104.5q-44 -84 -56.5 -189.5t-5.5 -248.5q5 -102 37 -230q74 -271 342 -469q14 -20 13.5 -45t-13.5 -41q-54 12 -111.5 50 t-105 86.5t-84.5 95.5t-61 88q-12 30 -41 89.5t-41 88.5q-70 210 -49.5 443.5z" />
<glyph unicode=")" horiz-adv-x="716" d="M105.5 -162q-0.5 25 13.5 45q266 200 340 469q32 128 37 230q7 143 -5.5 248.5t-56.5 189.5q-30 63 -53.5 104.5t-61 95t-86 98.5t-110.5 83q-34 34 -8 72q47 -4 107.5 -38t80.5 -57q34 -32 70.5 -77t56.5 -73.5t57 -84.5q100 -171 121 -404.5t-47 -443.5 q-12 -29 -41 -88.5t-41 -89.5q-24 -41 -61 -88t-84 -95.5t-104.5 -86.5t-110.5 -50q-13 16 -13.5 41z" />
<glyph unicode="*" horiz-adv-x="565" d="M106 1217q-5 10 1 28.5t15 31.5l9 13l111 -69l16 196q1 6 14.5 10t27.5 5h13l9 -213l129 59q1 -2 2.5 -5.5t4.5 -13t4 -17.5t0 -16.5t-5 -11.5q-6 -11 -32 -32t-49 -36l-22 -16l80 -169q0 -1 -1 -2t-3.5 -5t-5 -7.5t-6 -8.5t-7 -8.5t-8 -7t-8 -5t-7.5 -1t-7 3.5l-98 149 l-107 -149q-6 1 -15.5 3t-25 13t-14.5 27l96 167z" />
<glyph unicode="+" d="M105 697l1 6v-1q0 -6 218 -6q-5 205 -5 238q-2 7 7 13.5t23 10.5t28 6t25 0.5t12 -6.5q-4 -94 -4 -96q0 -74 2 -166q152 4 192 4q10 2 16 -16q11 -33 1 -65q-3 -10 -7 -11q-80 6 -82 6h-6q-7 0 -18 -0.5t-24.5 -1t-32.5 -0.5h-37l6 -264q-11 -5 -25 -5.5t-20.5 0.5t-27 7 t-21.5 6q1 13 0.5 37t-1.5 94t-1 123l-191 -4l-24 25q-11 0 -4 66z" />
<glyph unicode="," horiz-adv-x="325" d="M109 0q-17 94 6 119l61 10q35 3 39 -6q9 -24 7 -63t-13 -74q-18 -86 -76 -162q-3 1 -7.5 3t-11.5 9t-5 14q45 117 38 134q-10 3 -19.5 7t-13.5 7z" />
<glyph unicode="-" d="M106 713q0 -6 240 -6q1 0 129 2t129 2q16 4 20 -39q4 -49 -7 -62q-2 -2 -3 -2q-80 6 -82 6l-399 -8l-24 25q-12 1 -3 82z" />
<glyph unicode="." horiz-adv-x="325" d="M109 0q-17 94 6 119l61 10q35 3 39 -6q20 -50 -10 -121q-21 -8 -45 -8.5t-38 2.5z" />
<glyph unicode="/" horiz-adv-x="724" d="M104 -193q-2 38 6 74t22.5 76.5t19.5 62.5q8 33 28.5 98.5t28.5 98.5q7 26 49 213q8 35 26.5 103.5t26.5 103.5q6 22 14.5 60t10.5 46q5 19 16.5 53t14.5 44q5 17 13 50.5t13 49.5q3 10 15 44t18 54q21 69 45 211.5t43 208.5h14q53 19 95 0q-1 -24 -6 -47.5t-15 -57.5 t-12 -44q-20 -97 -35 -146q-14 -47 -37.5 -140.5t-38.5 -141.5q-35 -114 -80 -279q-12 -49 -33.5 -148.5t-33.5 -148.5q-5 -19 -17.5 -59t-17.5 -62q-12 -40 -31.5 -123.5t-37.5 -144t-42 -106.5q-42 -19 -82 -3z" />
<glyph unicode="0" horiz-adv-x="727" d="M102 1145l21 155q45 63 129 98.5t170 35.5q38 0 66 -6.5t46.5 -21t30 -27t27 -35.5t26.5 -35l7 -357v-221q0 -71 -4.5 -206.5t-4.5 -209.5q0 -21 4.5 -63t4.5 -62q0 -104 -81 -152t-214 -48q-38 0 -67.5 7t-47.5 16t-34 27t-23.5 30.5t-20.5 37.5t-20 37q-11 409 -11 871 q0 43 -4 129zM201 721q0 -56 8 -156t8 -149q0 -27 -1 -67.5t-1 -57.5q0 -99 27 -153t69 -54q75 0 139.5 33t77.5 90q-4 308 -4 438q0 312 17 617q-12 32 -54 50.5t-96 18.5q-66 0 -118.5 -26.5t-63.5 -77.5q-8 -47 -8 -70q0 -9 4 -85.5t4 -117.5q0 -39 -4 -116.5t-4 -116.5z " />
<glyph unicode="1" horiz-adv-x="448" d="M102 1266q24 17 46.5 40t48.5 52.5t41 44.5q0 1 1 4t1 4q15 10 42.5 13.5t51.5 -5.5v-4l2 -49q2 -91 -6 -289q-1 -36 0.5 -102t1.5 -86q0 -32 -3 -87.5t-3 -84.5l4 -160q-2 -19 -2 -46.5t1 -64t1 -55.5v-115q0 -32 7.5 -119.5t6.5 -129.5q-15 -15 -53.5 -18.5t-52.5 9.5 q-8 88 -5.5 360.5t0.5 366.5q-2 44 -2 95t1 114t1 97q0 39 -2 104t-2 94q-23 -24 -42.5 -32t-41 3t-43.5 46z" />
<glyph unicode="2" horiz-adv-x="727" d="M105.5 1144.5q4.5 154.5 29.5 192.5q57 50 121 76t116.5 27.5t97.5 -8.5t72 -26.5t31 -31.5q33 -49 42.5 -93.5t9.5 -131.5q0 -57 -5 -218.5t-10 -180.5q-19 -74 -47.5 -126t-75.5 -96q-45 -43 -94.5 -103t-92 -128t-54.5 -121.5t18 -81.5q13 -3 39 -6.5t116.5 1 t194.5 26.5q7 -8 6 -33.5t-6 -53.5l-4 -28q-11 0 -98 -0.5t-134 0t-111.5 2.5t-96.5 6q-47 46 -48.5 108t44.5 145.5t117 172.5t184 211q32 81 45 300.5t-6 338.5q-23 49 -89.5 57.5t-128 -18t-73.5 -66.5q-7 -22 -11 -53t-5.5 -75t-2 -68.5t0 -74.5t0.5 -52 q-6 -16 -24.5 -19.5t-36 2.5t-25.5 15q-10 58 -5.5 212.5z" />
<glyph unicode="3" horiz-adv-x="727" d="M108 1418q2 5 5 5l452 2l29 -43q-10 -13 -25 -46.5t-24 -47.5q-18 -30 -114.5 -175t-121.5 -191q97 3 164 -39t104 -116t43 -152t-3 -156t-26 -134t-34 -81q-51 -76 -169.5 -148t-225.5 -92q-28 0 -41.5 40t16.5 60q12 4 45 13.5t47.5 14.5t38.5 14.5t43 21.5t37 27 q3 3 24 19.5t27 22t25 23t26 29t21.5 32t21 40t14.5 45.5t11.5 56.5t3.5 65.5q2 84 -40 164.5t-107 110.5q-24 9 -52 13t-64.5 5.5t-51.5 3.5l-19 82q25 51 140.5 210.5t138.5 213.5q-36 0 -153.5 -2t-178.5 -2q-16 -17 -26 25q-10 45 -1 66z" />
<glyph unicode="4" horiz-adv-x="716" d="M102 496l17 88q24 104 156.5 458t136.5 377q8 20 37 22.5t67 -14.5q7 -131 -4 -350q-1 -36 0.5 -102t1.5 -86q0 -32 -3 -87.5t-3 -84.5l4 -160q-2 -8 -2 -25l86 7q12 -3 15.5 -28t0.5 -49l-2 -24q-21 0 -53 -1t-45 -1v-160q0 -32 7.5 -125t6.5 -135q-15 -15 -53.5 -18 t-52.5 10q-8 137 -4 426q-141 0 -264 4zM213 553l12 -29q89 0 191 4q3 110 0 217q-2 44 -2 95t1 114t1 97q0 19 -1 55t-1 53q-138 -365 -201 -606z" />
<glyph unicode="5" horiz-adv-x="735" d="M104 924q-1 96 25.5 288t42.5 222h430q9 0 11 -15t-1.5 -33.5t-9.5 -33.5q-3 -10 -92.5 -11t-176.5 -2.5t-87 -11.5q-2 -42 -22 -183.5t-21 -195.5q10 -3 94 -27t115 -38q83 -35 138 -124.5t71 -187.5t6.5 -189.5t-43.5 -137.5q-56 -74 -181 -147t-231 -93 q-28 0 -41.5 40t16.5 60q18 5 59 16.5t63.5 19t53 22t52.5 33.5q19 15 29 24t28.5 27t29.5 33t25 37t21 45.5t13 52t5 62.5t-8 71q-30 167 -221 256l-162 76z" />
<glyph unicode="6" d="M127 948q4 30 10.5 104t12 120t18 93.5t29.5 63.5q76 57 117 75q97 43 251 28q7 -8 7 -48t-9 -43q-100 3 -161.5 -16t-112.5 -65q-19 -26 -32 -56t-19 -70t-8 -60t-3.5 -69.5t-1.5 -56.5q38 37 78.5 56t74.5 19t66.5 -8t57 -24t43.5 -30.5t29 -25.5l10 -11 q33 -42 39.5 -230t-3 -357.5t-18.5 -219.5q-11 -51 -79 -81.5t-146 -35t-144.5 14.5t-74.5 57q-90 181 -31 876zM213 793q-42 -328 18 -658q15 -33 75.5 -44.5t120.5 4.5t73 50q8 23 14.5 51t11.5 53t7.5 60t4.5 58t2.5 63.5t0.5 60t-1.5 63.5t-2 58t-3 59.5t-2.5 53.5 q-4 67 -10 88q-11 41 -54 67.5t-93 29.5t-97.5 -26.5t-64.5 -90.5z" />
<glyph unicode="7" horiz-adv-x="724" d="M102 1397q41 22 260.5 30.5t243.5 -20.5q16 -97 14 -172t-26.5 -154t-55 -140.5t-73 -132t-80.5 -128t-77 -128.5t-62 -134q-15 -42 -10.5 -223.5t-6.5 -190.5q-6 -10 -49 -7.5t-43 11.5q-8 237 -3 341.5t32 156.5q15 29 41.5 74.5t53 89.5t59 99.5t60 105t55.5 106 t46 103t31.5 95t12 82t-12.5 64.5q-186 23 -309 2l4 -80q-21 -8 -52.5 -0.5t-41.5 19.5q-2 11 -6.5 67.5t-4.5 63.5z" />
<glyph unicode="8" horiz-adv-x="743" d="M102 362q0 136 20 266t56 201q-63 157 -63 306q0 118 41 225q24 34 90 54t143 20q68 0 123 -16.5t76 -47.5q49 -119 49 -254q0 -178 -78 -299q37 -76 59.5 -212t22.5 -273q0 -111 -14 -185q-13 -48 -41 -80t-67 -46.5t-74.5 -19.5t-82.5 -5q-200 0 -243 151 q-17 104 -17 215zM197 360q0 -171 47 -231q48 -33 125 -33q99 0 141 27q39 58 39 213q0 135 -24.5 268.5t-53.5 159.5q-54 16 -131 16q-45 0 -57 -6q-32 -25 -59 -153t-27 -261zM209 1104q0 -38 0.5 -56t5 -44.5t13.5 -42.5t26 -36.5t43 -39.5q4 -2 61.5 -7.5t83.5 -5.5 q79 14 100 135q5 27 5 40q0 75 -17 241q-21 64 -149 64q-63 0 -127 -45l-35 -43q-10 -72 -10 -160z" />
<glyph unicode="9" d="M105.5 742q-6.5 188 3 357.5t18.5 219.5q11 51 79 81.5t146 35t144.5 -14.5t74.5 -57q90 -181 31 -877q-4 -30 -10.5 -104t-12 -120t-18 -93.5t-29.5 -63.5q-26 -19 -32 -23.5t-30 -21t-36 -21t-37 -16t-46 -14t-51 -7t-63.5 -4t-72.5 4.5q-6 7 -4.5 47t10.5 43 q100 -3 166 17t117 65q24 32 35.5 76.5t13 77t0.5 85t0 72.5q-52 -51 -108 -67t-98.5 -3t-78 34t-53.5 41l-19 20q-33 42 -39.5 230zM188 944.5q0 -19.5 1.5 -63l2 -58t3 -59.5t2.5 -53q4 -67 10 -88q11 -41 54 -67.5t93 -29.5t97.5 26.5t64.5 90.5q42 328 -18 657 q-15 33 -75.5 44.5t-120.5 -4.5t-73 -50q-8 -23 -14.5 -51t-11.5 -53t-7.5 -60t-4.5 -58t-2.5 -63.5t-0.5 -60z" />
<glyph unicode=":" horiz-adv-x="325" d="M109 8q-17 94 6 119l61 10q35 3 39 -6q20 -50 -10 -121q-21 -8 -45 -8.5t-38 2.5zM109 899q-17 94 6 119l61 10q35 3 39 -6q20 -50 -10 -121q-21 -8 -45 -8.5t-38 3.5z" />
<glyph unicode=";" horiz-adv-x="325" d="M109 0q-17 94 6 119l61 10q35 3 39 -6q9 -24 7 -63t-13 -74q-18 -86 -76 -162q-3 1 -7.5 3t-11.5 9t-5 14q45 117 38 134q-10 3 -19.5 7t-13.5 7zM109 899q-17 94 6 119l61 10q35 3 39 -6q20 -50 -10 -121q-21 -8 -45 -8.5t-38 3.5z" />
<glyph unicode="&#x3c;" horiz-adv-x="727" d="M104.5 595.5q-2.5 19.5 1.5 60.5t21 57q15 11 72.5 55.5t80 61.5t73 54.5t83 58t76.5 47t84 46.5q23 -7 26 -45t-12 -51q-39 -20 -149 -110t-170 -119l-64 -68v-37q57 -51 160 -123.5t209 -130.5q24 -34 14 -85q-5 -32 -19 -30q-4 0 -9 5q-48 29 -108.5 69t-109 69 t-118.5 64q-116 75 -137 119q-2 13 -4.5 32.5z" />
<glyph unicode="=" d="M106 590q0 -6 240 -6q1 0 129 2t129 2q16 4 20 -39q4 -49 -7 -62q-2 -2 -3 -2q-80 7 -82 7l-399 -9l-24 25q-12 1 -3 82zM106 825q0 -6 240 -6q1 0 129 2t129 2q15 4 20 -36q5 -47 -7 -60l-3 -2q-80 6 -82 6l-399 -8l-24 25q-12 1 -3 77z" />
<glyph unicode="&#x3e;" horiz-adv-x="727" d="M105 991q3 38 26 45q40 -20 84 -46.5t76.5 -47t83 -58t73 -54.5t80 -61.5t72.5 -55.5q17 -16 21.5 -53.5t0.5 -67.5l-4 -29q-21 -44 -137 -119q-70 -35 -118.5 -64t-109 -69t-108.5 -69q-16 -17 -26 13q-13 41 4 82q4 8 8 15q106 58 209 130.5t160 123.5v37l-64 68 q-60 29 -170 119t-149 110q-15 13 -12 51z" />
<glyph unicode="?" horiz-adv-x="739" d="M115 1393q22 29 112 41.5t194.5 -7.5t151.5 -73q41 -45 49.5 -78.5t8.5 -126.5q0 -30 3 -101t2.5 -120.5t-4.5 -110.5t-20.5 -105.5t-44.5 -70.5q-14 -12 -40.5 -26t-48.5 -26.5t-44 -30t-34.5 -45t-12.5 -62.5l-10 -56q0 -21 1 -61.5t1 -63.5q-7 -18 -40.5 -22t-53.5 6 q-1 63 -1.5 96t1.5 74t5.5 59.5t12.5 45.5t19.5 39.5t31 33.5t41.5 36t56 38q48 33 75 72q10 17 10 116t-5 220t-5 130q-35 88 -116 119.5t-183 3.5q-22 -39 -30.5 -116t-7 -141.5t7.5 -110.5q-7 -19 -36 -18.5t-40 26.5q-27 90 -6 416zM276 0q-16 94 7 119l61 10 q36 4 39 -6q20 -50 -10 -121q-21 -8 -45 -8.5t-38 2.5z" />
<glyph unicode="@" horiz-adv-x="1009" d="M105.5 745.5q4.5 166.5 43.5 329t109 281.5q103 44 193.5 62.5t164 17t162.5 -18.5q51 -92 76.5 -177.5t44.5 -225.5q7 -75 7.5 -184t-13 -253.5t-37.5 -250.5l-49 -109l-53 -45q-3 0 -9.5 0.5t-24 3.5t-34 8.5t-38 16t-38 25t-30 38t-19.5 51.5l-108 -79l-78 24 q-37 101 -39 333t22 318q19 76 88 141t150 64l78 -96q6 -367 -15 -488q-22 -115 -13 -166q15 -74 85 -81q22 18 39 63t24.5 96t12.5 99.5t5 80.5l1 31q-1 15 2 61.5t2 107.5t-10 132q0 47 -33 195.5t-51 169.5q-40 40 -117.5 33.5t-158.5 -40t-117 -69.5q-8 -20 -28 -66 t-28 -66t-22 -63t-20.5 -77.5t-12.5 -87t-8 -113.5q-4 -192 8 -319q11 -150 29.5 -234t62.5 -160q4 -9 46 -39t84.5 -57.5t43.5 -28.5q12 -8 74.5 15.5t129.5 53t81 30.5q15 -1 27.5 -17t18.5 -32l5 -15l-305 -143l-125 47q-25 8 -56.5 27t-66.5 50.5t-64.5 79.5t-41.5 103 q-32 134 -46.5 290t-10 322.5zM428.5 544q0.5 -67 4.5 -116t11 -94q26 14 72 72.5t55 89.5l25 483q-41 37 -92 -10t-70 -105q0 -14 -2.5 -100t-3 -119.5t0 -100.5z" />
<glyph unicode="A" horiz-adv-x="706" d="M102 14q46 557 88 875q10 72 23 205.5t23.5 219t21.5 103.5q26 9 77 15q21 2 38 3q26 0 45 -5q24 -103 45 -341t35 -319q2 -13 13.5 -72.5t16.5 -89.5q7 -69 28 -218q21 -150 35 -254q12 -86 12 -103q0 -4 -1 -4q-1 -17 -28 -23q-18 -4 -36 -4l-18 1l-26 3 q-1 5 -11.5 111t-27 229.5t-33.5 202.5q-10 2 -30 2q-26 0 -68 -3q-76 -5 -78 -5q-28 -251 -29 -264q-8 -91 -8 -244q0 -18 -18 -21.5t-47.5 0t-41.5 0.5zM266 643l140 10q0 77 -22 329.5t-24 322.5q-1 7 -9 7q-1 0 -2 1q-7 0 -15 -4q-9 -4 -12 -11q-9 -60 -24.5 -291.5 t-31.5 -363.5z" />
<glyph unicode="B" horiz-adv-x="718" d="M102 1386q157 43 294 43q59 0 114 -8q20 -13 26.5 -30.5t7.5 -55.5t3 -53q1 -7 4.5 -35.5t4.5 -38.5t4 -35.5t4 -38.5t2 -35.5t0.5 -38t-1.5 -35t-4 -36.5q-1 -9 -8 -105t-10 -106q-22 -65 -37 -82l-55 -32q8 -14 70.5 -63t70.5 -60q24 -83 24 -196q0 -23 -1 -47 q-6 -144 -44 -245l-106 -47q-9 -3 -22.5 -3t-31.5 1.5t-26 1.5q-102 0 -254 8q-17 58 -19 130q-1 24 -1 51q0 55 3 124q5 104 5 146q0 29 -6.5 84.5t-6.5 60.5q-3 72 -3 185q1 57 1 123q2 200 4 304q1 23 1 44q0 75 -7 120zM195 864q1 -110 8 -184q143 7 207 74 q46 46 62 166q10 72 10 142q0 46 -4 90q-10 114 -36 169q-57 14 -108 14q-76 0 -137 -32v-47q0 -56 -1 -146t-1 -169v-77zM210 537v-9q0 -10 1 -22q1 -18 0 -31q-1 -16 -1 -38q0 -49 4 -131q6 -119 7 -202q12 -2 38.5 -6.5t41.5 -6.5t38 -4q14 -1 27 0h18q22 1 44 5 q45 21 62.5 47t21.5 82q1 11 1 29q0 34 -3 92q0 102 -23 131q-62 90 -135 143q-12 -5 -46 -11.5t-59 -16.5t-32 -29q-5 -9 -5 -22z" />
<glyph unicode="C" horiz-adv-x="718" d="M104 258q4 94 4 199t-2 231t-2 191q0 128 9.5 220t31.5 224q40 47 134 81q91 33 187 32h6q99 -1 142 -47v-40v-77q1 -54 2 -89v-21q0 -37 -7.5 -95.5t-22.5 -118.5q-50 0 -64 23q-4 25 -5 51.5t0.5 44.5t4.5 47t4 45q2 30 2 52t-0.5 35.5t-5 28.5t-6.5 20.5t-11 23.5 t-13 27q-14 2 -29 2q-49 0 -107 -18q-76 -23 -116 -56q-13 -49 -21 -112.5t-11 -114t-7 -140t-8 -145.5v-36q-1 -84 3 -188q4 -128 5 -200q1 -11 1.5 -57t5 -76.5t15.5 -44.5q30 -37 124 -37q58 0 142 14l23 53q6 17 9 77t7.5 110t16.5 53l49 19q5 2 9 -0.5t6 -9.5 t3.5 -14.5t1.5 -19v-19v-19.5v-17q0 -198 -12 -235q-6 -18 -34 -41t-48 -29q-12 -4 -47 -14t-47.5 -13.5t-40.5 -9.5t-45 -6q-4 0 -9 -1q-14 -1 -32 1q-24 2 -47 8q-33 7 -92 43q-2 5 -17 40.5t-21 53.5q-6 19 -12 51q-6 28 -6 52v8z" />
<glyph unicode="D" horiz-adv-x="731" d="M102 1364l39 66h15q98 0 172 -12q80 -14 125.5 -33t77.5 -49.5t44.5 -53t25.5 -52.5q3 -9 5 -13q8 -45 11.5 -73t5 -58.5t1.5 -48.5t-0.5 -67.5t-0.5 -90.5q5 -103 5 -179q0 -43 -2 -77q-3 -57 -2 -103q0 -31 1 -57l2 -152q-1 -6 -4 -19q-7 -34 -11.5 -53t-17 -55.5 t-26.5 -59t-39 -50.5t-56 -42t-76 -24q-32 -7 -68 -7q-15 0 -32 1q-10 0 -63 1.5t-87.5 3t-35.5 5.5q-3 10 -5 101.5t-2 222t0.5 251.5t1 225t0.5 108zM195 1128q3 -18 1.5 -50t0.5 -50l6 -192q6 -675 6 -732q25 -2 48 -2q56 0 97 10q58 14 92 40t52.5 83.5t24 112 t9.5 152.5q0 42 0.5 72.5t0.5 36.5t-0.5 26.5t-1 41.5t-3.5 81q3 72 3 139q0 134 -13 248q-1 53 -37 90t-87.5 52.5t-99.5 20.5q-26 3 -49 3q-18 0 -34 -2q-8 -33 -11 -58.5t-3.5 -64.5t-1.5 -58z" />
<glyph unicode="E" horiz-adv-x="679" d="M104 720v67v77q0 49 4.5 154.5t4.5 161.5q0 16 -1 48t-1 50t3.5 43.5t12.5 46.5q36 21 84 34t85.5 18.5t103.5 5.5h41h55q30 -1 106 -5q9 -1 11 -7t-1 -15t-8 -18.5t-9.5 -18.5t-4.5 -12h-24q-41 0 -90 -4q-64 -6 -142 -18.5t-109 -16.5q-1 -44 -15 -191 q-12 -128 -11 -217v-26q1 -25 0 -46.5t1 -45t7 -37.5q8 -25 43 -34q25 -6 55 -6h23q44 4 90 5h15q36 0 61 -4q12 -22 4 -43.5t-29 -34.5q-16 -1 -94 -1t-115 -12q-17 -6 -21 -13t-14 -11q-11 -25 -13 -76q-1 -26 -1.5 -57t1.5 -67q2 -52 1 -79v-18q-1 -20 -1 -38 q0 -71 15 -128q27 -18 63 -25t62 -6t71 5.5t62 5.5q20 1 65 10q34 7 55 7q7 0 13 -1q4 -8 4 -30.5t-4 -57.5q-140 -24 -151 -25q-13 -1 -40 -5t-40.5 -5.5t-39.5 -3.5h-16q-14 0 -22 2q-30 2 -97.5 13.5t-90.5 13.5q-7 51 -9.5 159.5t-5.5 151.5q-1 8 -1 25q1 27 3 75 q4 66 3 85v7q-3 40 -4.5 71t-2 63.5t-0.5 53.5z" />
<glyph unicode="F" horiz-adv-x="704" d="M104 720v67v77q0 49 2.5 157.5t2.5 164.5q0 13 -1 49t-0.5 54.5t4.5 46t13 48.5q89 35 233 42q59 3 113 3q78 0 147 -6q14 -1 14 -17q0 -10 -4 -22q-11 -38 -32 -46q-2 -1 -4 -1q-26 1 -53 1q-81 0 -168 -9q-116 -12 -150 -41q-24 -49 -24 -277q0 -61 2 -134 q1 -25 0 -46.5t1 -45t7 -37.5q10 -32 62 -34q12 -1 25 -1q44 1 98 7q39 5 66 4q22 0 36 -3q13 -22 5.5 -50t-28.5 -40q-16 -1 -110.5 -1t-131.5 -12l-18 -47q-11 -25 -13 -81q-1 -25 -1 -46q-1 -26 1 -44q2 -34 9 -103q3 -34 2 -78q1 -7 1 -15q0 -11 -1 -20q0 -38 2 -57 l8 -104q-15 -4 -34 -11q-19 -8 -27 -10q-6 -2 -13 -1h-7q-12 1 -25 7q-5 42 -5 130v30v53q0 74 -2 119q-1 8 -1 25q1 27 3 75q4 66 3 85v7q-3 40 -4.5 71t-2 63.5t-0.5 53.5z" />
<glyph unicode="G" horiz-adv-x="731" d="M106 508q-2 63 -2 109q0 87 9 120q3 9 3 34q0 17 -2 42q-3 60 -3 66q0 122 0.5 171t6 125.5t17.5 147.5q40 47 140 81q96 33 196 33q4 0 9 -1q104 -1 147 -47q0 -41 1 -136v-85v-66q-1 -57 -8 -135t-22 -138q-16 2 -35 11.5t-28 11.5q-4 25 -5 51.5t0.5 44.5t4.5 47t4 45 q2 22 2 46q0 115 -37 260q-14 2 -29 2q-51 0 -115 -18q-84 -24 -124 -56q-16 -61 -20 -149q-2 -51 -2 -101q0 -35 2 -70v-46q0 -67 -5 -150q-4 -82 -5 -150v-34q0 -55 2 -120q1 -86 1 -137q1 -16 -1 -48t0 -54.5t13 -36.5q33 -41 99 -68q41 -17 94 -17q33 0 71 7l27 39 q12 33 24 177q9 97 9 148q0 24 -2 38q-15 2 -56 3t-57 7q-3 8 -2 20t3 33t1 31q10 -1 37.5 4t53 9.5t51 2.5t36.5 -14q8 -8 10 -36v-23q0 -20 -2 -46q-2 -41 -2 -47t2 -102q2 -77 2 -141v-31q-1 -76 -6 -92q-6 -18 -34 -41t-48 -29q-48 -15 -100 -17h-15q-44 0 -89 9 q-54 11 -92.5 22.5t-92.5 30.5q-2 10 -10 44.5t-12.5 55t-7.5 53t-2 60.5q1 18 1 45q0 68 -6 195z" />
<glyph unicode="H" d="M106 1312q2 54 13 107q12 7 42 8h6q26 0 48 -8q5 -85 5 -112.5t-6.5 -113t-8.5 -116.5v-34q1 -29 1 -68q2 -66 1 -86q0 -16 -1.5 -46t-1.5 -47.5t3.5 -41t11.5 -41.5q34 -6 76 -7h26q25 0 43 1q26 2 78.5 7.5t69.5 6.5q-3 30 -3 62q0 56 9 120q4 32 4 74q0 41 -4 93 q-8 102 -12 172q-1 14 0 30q0 61 14 141q6 12 28 12.5t45 -12t19 -27.5q-14 -404 -14 -700q0 -176 16 -516q1 -12 7 -52q5 -35 5 -58v-8q-1 -26 -12 -46q-25 -3 -45 -3q-48 0 -73 15q1 18 1 52.5t1 63t4 52.5q8 122 8 199q0 13 4 109q2 48 2 78.5t-2 43.5q-11 -1 -24 -1 q-24 1 -58 3q-52 4 -96.5 3.5t-73.5 -11.5l-57 -53q-7 -19 -7 -46v-9q0 -24 2 -56q2 -38 3 -55q0 -28 2 -83t2 -79q0 -39 -5.5 -115.5t-6.5 -111.5q-9 -1 -17 -1q-39 0 -69 30q-4 59 -4 140q-1 97 5 227q7 182 8 288q0 33 -1 59q-8 200 -8 306q0 35 -3 121q-2 47 -2 84 q1 31 2 56z" />
<glyph unicode="I" horiz-adv-x="321" d="M104 1305q2 53 9 106q15 9 43 13q8 1 15 1q19 0 36 -6q3 -49 3 -112q0 -99 -7 -230v-34q1 -29 1 -68q2 -66 1 -86q0 -32 -3 -87.5t-3 -84.5l4 -160q-2 -19 -2 -46.5t1 -64t1 -55.5v-115q-1 -32 7 -120q7 -77 7 -118v-11q-15 -15 -53 -19q-8 -1 -16 0q-26 0 -37 10 q-6 67 -6 241q1 53 1 119q1 151 1 248q0 77 -1 119q-2 44 -2 95t1 114t1 97q0 37 -2 119q-1 47 -1 84q0 28 1 51z" />
<glyph unicode="J" horiz-adv-x="720" d="M108 274q-5 74 -5 121q0 55 6 74q18 26 67 26q11 0 23 -1q3 -36 3 -69v-31q-2 -30 -2 -62v-40q2 -55 13 -91q7 -28 45 -66q31 -28 105 -35q15 -2 29 -2q52 0 79 23q24 21 33 65q6 33 6 68q0 12 -1 25q-1 21 -1 43q0 29 2 61q6 160 6 520q0 47 -4 137t-4 134q0 29 -5 82 q-5 48 -5 85v7q1 40 12 73q4 1 27 5.5t43 7.5q10 2 16.5 2t9.5 -2q11 -7 8 -54q-3 -24 -3 -57.5t1.5 -73.5t1.5 -55q-2 -129 -2 -428q0 -27 3 -164q1 -58 1 -94q0 -48 -2 -55q-2 -16 -2 -43q-1 -22 -1.5 -106.5t-2.5 -129.5q0 -54 -4 -72l-43 -82q-54 -17 -131 -20h-21 q-67 0 -139 16q-82 20 -123 64q-29 34 -39 194z" />
<glyph unicode="K" horiz-adv-x="817" d="M102 1165q0 47 2 115t2 104q24 42 76 42q13 0 27 -3q1 -18 1 -41q0 -74 -8 -200q-7 -116 -6 -193q0 -32 1 -57v-150q71 104 209.5 324t199.5 311q8 6 26 11q11 3 24 3q9 1 19 -1q25 -4 40 -21q-3 -11 -40 -69.5t-80.5 -123.5t-49.5 -75q-35 -51 -109 -168 q-88 -136 -94 -146l174 -411q104 -237 127 -303q2 -7 9.5 -25t9.5 -24.5t6 -25.5t0 -26q-18 -10 -52 -14q-11 -1 -20 -1q-21 0 -35 7q-21 19 -57 121q-8 43 -17 65q-4 10 -55.5 152t-83.5 207q-51 104 -69 182q-4 -5 -23.5 -28t-31.5 -39.5t-13 -24.5q-5 -17 -5 -55v-20 q0 -30 2 -68q2 -50 1 -62q0 -69 2 -209.5t2 -204.5q-12 -23 -76 -23q-12 0 -26 1q-7 96 -7 204v38q0 95 2 213q2 142 3 215q0 80 -3.5 245t-3.5 252z" />
<glyph unicode="L" horiz-adv-x="659" d="M104 1305q2 53 9 106q15 10 48 13q8 1 15 1q24 0 41 -8q0 -40 0.5 -67.5t-0.5 -43.5q-1 -31 -6.5 -112.5t-7.5 -116.5v-34q1 -29 1 -68q2 -66 1 -86q0 -32 -3 -87.5t-3 -84.5v-160q-2 -19 -2 -46.5t1 -64t1 -55.5v-115q0 -25 5.5 -81.5t6.5 -67.5l22 -16l228 4l125 16 q18 -5 20 -31q1 -8 0 -15q0 -17 -4 -35q-6 -24 -10 -23l-27 -21h-15q-22 0 -60 -2q-29 -1 -50 -1q-18 0 -32 1q-144 0 -177 -2h-77q-8 -1 -15 -1q-20 0 -28 9q-6 66 -6 243q1 55 1 121q1 154 1 252q0 78 -1 119q-2 44 -2 95t1 114t1 97q0 37 -2 119q-1 47 -1 84q0 28 1 51z " />
<glyph unicode="M" horiz-adv-x="1161" d="M106 586q4 342 4 488q0 58 -1 85q-2 9 -2 60q1 26 1 63q2 110 1 125q16 21 42 29q11 4 22 3l30 -7q1 -16 2 -34.5t1.5 -29.5t0.5 -22q123 94 228 94q64 0 122 -35l55 -68q134 103 244 103q64 0 121 -35l72 -86q1 -45 -3 -363q-2 -185 -3 -343q0 -113 2 -211 q2 -238 14 -384q-15 -10 -51 -18q-17 -3 -30 -3q-16 0 -28 5q-14 52 -14 163q0 60 4 138l10 705l-6 284q-37 25 -83 31q-15 2 -30 2q-30 0 -59 -8q-43 -12 -78 -28t-65 -36v-1235q-12 -8 -51.5 -9.5t-59.5 9.5q0 12 -2 61q-1 37 -1 77q1 12 1 26q0 54 4 121l10 705l-6 284 q-38 25 -84 31q-16 2 -30 2q-30 0 -60 -8q-44 -12 -79.5 -28t-65.5 -36q-4 -86 -4 -123l4 -159q-2 -19 -2 -146t1 -278.5t1 -155.5v-115q-1 -32 7 -120q7 -77 7 -118v-11q-15 -15 -55.5 -18.5t-54.5 9.5q-5 54 -5 257q0 127 2 311z" />
<glyph unicode="N" horiz-adv-x="737" d="M102 1280q2 110 2 125q16 21 42 29q11 4 22 3q15 0 31 -7q4 -86 4 -87q124 95 229 95q64 0 121 -35l72 -86q1 -45 -3 -362q-2 -185 -3 -343q0 -113 2 -211q2 -237 14 -383q-15 -10 -51 -18q-17 -3 -30 -3q-16 0 -28 5q-14 52 -14 163q0 60 4 138l10 703l-6 284 q-38 25 -84 31q-16 2 -30 2q-30 0 -60 -8q-44 -12 -79.5 -28t-65.5 -36q-4 -86 -4 -123l4 -571q-2 -19 -2 -46.5t1 -64t1 -55.5v-115q-1 -32 7 -120q7 -77 7 -118v-11q-15 -15 -53.5 -18.5t-52.5 9.5q-6 63 -6 359q1 91 1 207q1 269 1 416q0 117 -1 157q-2 9 -2 60v63z" />
<glyph unicode="O" horiz-adv-x="720" d="M104 524q-1 33 -1 81q1 73 3 181q2 77 1 135q0 77 -3 121q0 12 6 126t7 118q4 22 30.5 48.5t49.5 39.5q56 41 176 70q7 1 16 1q41 0 123 -26q14 -6 30.5 -20t24.5 -23t25 -31.5t18 -23.5q4 -52 4 -123q0 -56 -2 -126q-2 -64 -3 -120q0 -81 5 -145q2 -22 2 -64 q0 -43 -2 -105q-4 -104 -4 -149v-16q0 -24 -1 -77t-1 -81q0 -17 4 -71q3 -33 3 -56q0 -15 -1 -26q-3 -21 -19.5 -50t-19.5 -38q-10 -4 -38 -29.5t-50 -32.5q-63 -20 -145 -22h-19q-68 0 -106 16q-14 7 -26.5 17t-25.5 27t-19 25.5t-19 30t-14 23.5q-1 40 -2.5 176t-6.5 219z M197 1148q0 -6 1.5 -26.5t2.5 -34.5q4 -63 4 -132q0 -87 -6 -185q-1 -19 -1 -40q0 -62 6 -150q8 -118 9 -164q0 -27 -1 -66t-1 -60t2 -51.5t8 -62.5q11 -53 49 -74q28 -16 60 -16q11 0 22 2q73 6 109 29.5t63 89.5q-9 214 -9 435q0 302 17 620q-12 35 -60 53q-44 16 -93 16 h-11q-54 -2 -102.5 -29.5t-60.5 -74.5q-4 -21 -5.5 -33.5t-2 -26t-0.5 -19.5z" />
<glyph unicode="P" horiz-adv-x="720" d="M102 16q13 105 13 457q0 31 -9 137q-3 72 -3 185q1 57 1 123q2 200 4 304q1 23 1 44q0 74 -7 120q93 25 228 40q70 8 129 7q55 0 102 -6q11 -7 18 -15.5t11.5 -15.5t7.5 -20t4 -21t3 -26.5t3 -28.5q10 -68 10 -185q0 -41 -2 -88q-4 -182 -26 -249q-1 -2 -8 -28t-14.5 -46 t-14.5 -28q-80 -40 -164 -61t-125.5 -29.5t-48.5 -26.5q-4 -9 -4.5 -22t0.5 -31.5t0 -30.5q-1 -16 -1 -38q0 -49 4 -131q6 -119 7 -202l6 -104zM195 864q1 -110 8 -184q192 10 254 74q45 46 63 167q11 77 12 152q0 43 -4 85q-10 116 -34 169q-51 12 -110 12q-24 1 -48 -1 q-88 -6 -139 -35v-47q0 -56 -1 -146t-1 -169v-77z" />
<glyph unicode="Q" horiz-adv-x="722" d="M104 524q-1 19 -1 42q0 81 9 214q7 117 7 195q0 38 -2 67q0 12 5.5 126t6.5 118q4 23 26 50t42 38q57 41 178 70q7 1 16 1q41 0 123 -26q72 -28 98 -61q6 -85 7 -168v-60q0 -63 -1 -142q-2 -118 -2 -181q0 -46 -2 -160q-2 -81 -2 -135v-39q0 -24 -1 -77t-1 -81 q0 -17 4 -71q3 -33 3 -56q0 -15 -1 -26q-3 -22 -19 -51t-19 -37q-10 -4 -32.5 -25t-35.5 -29q98 -52 106 -88q-3 -21 -25.5 -52t-39.5 -32q-24 39 -67 86.5t-89 65.5q-43 -2 -78 -2q-64 0 -100 8q-24 6 -45.5 24.5t-32 33.5t-26.5 40q-1 41 -2.5 189t-6.5 231zM199 770 q-1 -19 -1 -40q0 -62 6 -150q9 -118 9 -164q0 -212 14 -291q42 -39 99 -39q12 0 26 2q19 2 35 4.5t32 8.5t25 9.5t25.5 14t21 13.5t24.5 18l24 18q-6 161 -6 324q0 64 1 128q2 178 2 340v91q-1 202 -14 239q-13 36 -75 42q-13 1 -26 1q-51 0 -105 -17q-70 -23 -103 -62 q-13 -76 -13 -141q0 -16 1 -32q4 -63 4 -132q0 -87 -6 -185z" />
<glyph unicode="R" horiz-adv-x="690" d="M102 2v111q0 76 5.5 175.5t5.5 176.5q0 98 -4 145q-3 71 -3 184v123q2 200 5 305v37q0 79 -7 127q152 42 279 42q52 0 100 -7q59 -40 72 -139q2 -13 6.5 -47.5t6.5 -51t4 -47.5q4 -32 4 -52v-14q0 -15 -1 -32q-1 -26 -4 -49q-1 -9 -6.5 -60t-11 -97t-8.5 -54 q-22 -65 -37 -82l-55 -32l20 -93q81 -433 98 -475q7 -18 7 -33q0 -17 -9 -30q-16 -21 -92 -21h-20l-19 115q-32 143 -47 239q-15 93 -15 125q0 37 -3 61q-4 28 -19 64q-12 -5 -46 -11.5t-59 -16.5t-32 -29q-4 -9 -4.5 -22t0.5 -31.5t0 -30.5l-8 -239q3 -132 10 -177 q1 -4 1 -8q0 -49 -103 -49h-11zM197 864q1 -110 8 -184q143 7 207 74q46 46 62 166q10 72 10 142q0 46 -4 90q-10 114 -36 169q-57 14 -108 14q-76 0 -137 -32v-47q0 -56 -1 -146t-1 -169v-77z" />
<glyph unicode="S" horiz-adv-x="724" d="M102 1153q0 87 9.5 131.5t42.5 93.5q10 3 57 19.5t68 20.5t65 11q26 4 52 4q18 0 36 -2q44 -5 98 -18q19 -55 32 -172q9 -82 9 -166q1 -35 -1 -71q-6 -120 -35 -160q-4 0 -20 -1.5t-27 -1t-15 4.5q0 11 4 96.5t6 150.5q1 22 1 44q0 45 -3 93q-4 72 -16 97q-31 25 -76 25 q-25 0 -53 -8q-82 -20 -115 -66q-12 -79 -12 -166q0 -46 3 -94q10 -140 42 -221l328 -262q16 -60 28 -129q12 -72 12 -152q0 -77 -20 -119q-6 -18 -56.5 -66.5t-68.5 -54.5q-76 -15 -139 -15q-91 0 -154 32q-32 21 -49.5 75t-19.5 123q-2 59 -2 217v9.5v8.5v7.5t1 6.5t2.5 4 t4 2.5t6.5 0.5l61 -20q12 -13 14 -50.5t-1 -47.5q-3 -46 -2 -62.5t5 -64.5t5 -64q2 -32 31.5 -49t73.5 -17q6 0 12 -1q36 0 66 3q34 3 65 9q43 63 56 161q4 30 4 59q0 67 -21 132q-48 51 -136.5 111.5t-126.5 95.5q-47 44 -75 95.5t-47 125.5q-9 33 -9 252z" />
<glyph unicode="T" horiz-adv-x="718" d="M106 1375q-1 9 -1 17q0 21 6 33l501 7q3 -18 3 -33q0 -50 -29 -66l-51 2q-92 3 -101 4q-29 0 -35 -13.5t-6 -70.5v-3v-3v-4q0 -60 2 -188.5t2 -204.5v-117q0 -107 12.5 -296t12.5 -330q0 -9 1 -25t2 -28.5t0 -25.5t-4.5 -21.5t-10.5 -10.5q-8 -3 -18 -3q-18 0 -42 9 q-38 14 -39 23q0 66 3 202t3 148q0 120 -9 399.5t-9 433.5q0 24 1 60.5t1 46.5q0 13 -41 13h-9q-36 0 -72 -4q-40 -4 -58 1q-11 15 -15 48z" />
<glyph unicode="U" horiz-adv-x="731" d="M103 1369q0 11 3.5 25t12.5 25q11 2 22 2q36 0 76 -24q-6 -47 -6 -199q-1 -84 1 -200q5 -275 5 -385v-35q0 -19 -4 -107q-3 -70 -3 -122v-24q1 -58 9 -102q16 -46 37 -69t71 -36.5t144 -15.5l41 37q12 258 12 627q0 442 -14 645q15 14 32 14q6 -1 14 -3q26 -8 47.5 -26 t25.5 -32q-4 -55 -4 -153q1 -29 1 -62v-73q0 -91 -3 -148q-1 -16 -4 -58q-3 -36 -3 -62v-8q0 -28 7 -50q-4 -37 -4 -105q-1 -63 3 -151q3 -95 4 -163q0 -63 -3 -104q-9 -40 -9 -53q-1 -10 0.5 -42t-2.5 -38q-6 -16 -44 -44.5t-58 -35.5q-49 -14 -105 -14q-30 0 -63 4 q-82 8 -106 19q-7 2 -13 6t-13.5 11.5l-11.5 11.5t-13 14.5t-11 13.5q-6 9 -17 22t-17.5 22.5t-10.5 18.5q-16 48 -16 90v13q2 30 2 78q-1 24 -1 53q-1 37 0 67q0 41 1 70q1 33 1 75q0 85 -3 210q-4 187 -4 254q0 47 -1.5 133.5t-1.5 126.5q0 9 -1.5 27t-1.5 29z" />
<glyph unicode="V" horiz-adv-x="727" d="M109 1427q7 4 27 4q8 -1 18 -1q35 -2 45 -9q-1 -39 -1 -65v-32q2 -28 10.5 -94t10.5 -95q9 -93 37.5 -266.5t36.5 -239.5q2 -9 11 -100t9 -97q0 -51 8.5 -90t10.5 -70l28 -34l82 524q7 48 23.5 149t23.5 154q25 177 66 360h13q40 0 53 -16q2 -22 2 -48q0 -81 -23 -202 q-7 -42 -17.5 -125t-17.5 -123l-20 -96q-6 -53 -15 -102q-7 -68 -29 -199t-30 -203q-4 -33 -18.5 -99.5t-16.5 -98.5v-27.5t-1 -30t-4 -24.5t-10 -21.5t-18 -9.5h-4q-7 0 -17 2q-12 4 -28 10t-24 8q-34 5 -66 21q-5 66 -24 219.5t-25 233.5q-2 26 -10 79t-10 78 q-9 76 -39 262q-30 187 -44 317q-8 73 -8 126q0 42 5 71z" />
<glyph unicode="W" horiz-adv-x="849" d="M104 1399l27 9t22.5 7t20.5 4q8 2 14 1.5t9 -1.5q7 -8 10 -18t3.5 -27.5t0.5 -19.5q3 -27 3 -69q0 -56 -6 -138q-5 -127 -4 -212q0 -66 3 -108q8 -95 7.5 -174t-7.5 -143l1 -344l34 -23q35 79 65 280.5t33 213.5l39 139q39 50 73 50q8 0 15 -3q22 -74 43 -198l74 -484 l57 45q5 22 7 56q2 32 2 80v43v34q0 29 -1.5 85.5t-1.5 64.5q0 39 4 119.5t4 119.5q-1 47 -5 156q-4 89 -3 144v22q0 57 -5 147t-5 142q40 21 81 21q15 0 30 -3q0 -25 -5.5 -112.5t-5.5 -135.5q-1 -11 -3 -77q-1 -30 -1 -49q0 -23 2 -31q0 -26 2 -76.5t2 -75.5 q-3 -67 -3 -113q0 -23 1 -42q1 -43 1 -86q0 -265 -27 -525q-14 -18 -66 -54q-48 -33 -70 -32h-4q-34 2 -47 68q-6 31 -17.5 81.5t-19.5 94t-12 86.5l-37 307l-18 -31q-21 -78 -61 -312.5t-66 -295.5q-6 -1 -14 -1q-29 0 -73 18q-56 23 -69 40q-12 390 -12 529v20v44 q0 144 -10.5 360t-10.5 344v39z" />
<glyph unicode="X" d="M103 40q0 16 1.5 28.5t6 27.5t8 24.5t9.5 25t9 24.5q12 37 35.5 115.5t36.5 115.5q18 49 74 234q17 59 17 103q0 32 -9 57q-117 302 -164 481q-6 24 -14 74q-7 45 -7 61q0 12 13 12t29 -2.5t20 -1.5q15 2 20 -12t12.5 -51.5t22.5 -69.5q29 -65 65.5 -218.5t67.5 -221.5 q13 38 54.5 175.5t66.5 201.5q6 17 22.5 57.5t22.5 60.5q1 3 5 22t7 25t10 17.5t18.5 14t27.5 -0.5q26 -35 26 -65q-39 -101 -95 -318.5t-95 -318.5q56 -143 113 -328q16 -57 42.5 -188.5t45.5 -192.5q-6 -5 -25 -7q-13 -1 -24 -1h-10q-16 1 -25 0q-32 89 -83.5 296 t-88.5 308q-29 -83 -83 -280t-98 -306q-5 1 -26 -2t-39 -6t-19 -2q-3 16 -3 32z" />
<glyph unicode="Y" horiz-adv-x="714" d="M102 1389q0 9 17 17.5t34 12.5l17 4q43 0 57 -137l123 -526l23 16q42 136 73.5 309.5t50 257.5t44.5 84q25 0 65 -16q6 -6 6 -25q0 -30 -12 -57q-39 -101 -88 -344t-88 -344l-18 -33q-3 -27 -3 -59q0 -63 4.5 -196.5t4.5 -188.5q0 -25 4.5 -60t3.5 -53.5t-12 -30.5 q-41 -15 -64 -15q-11 0 -18 3q-12 6 -16.5 43t-4.5 142q0 38 2 114t2 101v104q0 80 -12 117q-25 68 -56 184t-67.5 266t-48.5 197q-23 83 -23 113z" />
<glyph unicode="Z" horiz-adv-x="731" d="M102 145q17 179 138 492q10 26 32 71t37.5 83.5t24.5 74.5l178 400q3 9 -15 37.5t-16 37.5q-29 0 -63 -0.5t-64 -1t-61.5 -4.5t-56.5 -12q-19 -7 -51 -12t-46 -2l-28 73q15 26 119 42q100 15 203 15q3 -1 7 -1q106 0 133 -15l48 -92q-2 -17 -15.5 -52t-15.5 -40 q-33 -96 -102.5 -265.5t-92.5 -230.5q-9 -23 -43 -110t-45.5 -119.5t-34 -99.5t-36.5 -122t-25 -116l51 -74q62 -13 128 -12h42q88 6 170 31q26 -22 26 -42q0 -17 -12 -48q-15 -8 -37 -13.5t-40.5 -8t-49.5 -4t-46.5 -2t-50 0t-42.5 0.5q-9 0 -42.5 -0.5t-58.5 -0.5t-52.5 1 t-38.5 4z" />
<glyph unicode="[" horiz-adv-x="530" d="M103.5 1341.5q1.5 63.5 9.5 116.5q14 9 148.5 11.5t156.5 -7.5q12 -80 0 -88l-209 -28v-56q0 -130 -6 -213q-1 -36 0.5 -102t1.5 -86q0 -32 -3 -87.5t-3 -84.5l4 -160q-2 -19 -2 -46.5t1 -64t1 -55.5q0 -28 10 -235.5t10 -231.5q140 -6 195 -6l8 -63q2 -32 -6 -35 q-38 -19 -138.5 -21t-170.5 13q-8 85 -5.5 463.5t0.5 469.5q-2 44 -2 95t1 114t1 97q0 33 -2 130t-0.5 160.5z" />
<glyph unicode="\" horiz-adv-x="739" d="M102 1458q49 22 109 0q18 -63 49 -206t53 -214q6 -20 18 -54t15 -44q5 -16 13.5 -50t13.5 -50q2 -7 13.5 -42.5t16.5 -54.5q2 -8 10.5 -46t14.5 -60q8 -35 26.5 -103.5t26.5 -103.5q41 -187 49 -213q8 -33 29 -98.5t29 -98.5q5 -21 19 -62t22 -77t6 -74q-14 -6 -45.5 -6 t-50.5 9q-24 46 -42 106.5t-37.5 144t-31.5 123.5q-5 22 -17.5 62t-17.5 59q-13 49 -34 148.5t-33 148.5q-45 165 -80 279q-15 48 -38.5 141.5t-37.5 140.5q-15 49 -35 146q-2 10 -12 44t-15 57.5t-6 47.5z" />
<glyph unicode="]" horiz-adv-x="530" d="M104.5 -152q0.5 22 4.5 46l4 24l194 6q0 24 10.5 231.5t10.5 235.5q0 19 1 55.5t1 64t-2 46.5l4 160q0 29 -3 84.5t-3 87.5q0 20 1.5 86t0.5 102q-6 82 -6 213v56l-209 28q-5 4 -5 26t2 42l3 20q22 10 156.5 7.5t148.5 -11.5q8 -53 9.5 -117.5t-1 -159t-2.5 -130.5 q0 -34 1 -97t1 -114t-2 -95q-2 -92 1 -469.5t-5 -463.5q-70 -15 -170.5 -13t-138.5 21q-7 6 -6.5 28z" />
<glyph unicode="^" horiz-adv-x="643" d="M104 803q30 106 62.5 199.5t74 203.5t64.5 174l62 17l120 -381q48 -121 54 -195q-7 -20 -14.5 -30.5t-18.5 -20.5t-19 -20q-30 60 -81 234t-72 226q-39 -91 -93.5 -233t-78.5 -223q-23 0 -42 12t-18 37z" />
<glyph unicode="_" d="M104 -53q0 34 5 51q253 3 509 0q10 -12 7 -44.5t-13 -53.5q-77 -2 -245.5 0t-255.5 0q-7 13 -7 47z" />
<glyph unicode="`" horiz-adv-x="473" d="M102 1401q28 28 70 37l39 -17q7 -10 39 -52t48 -65.5t38.5 -65t34.5 -79.5q-32 -12 -58 -14q-10 12 -94 109t-117 147z" />
<glyph unicode="a" horiz-adv-x="745" d="M102 264q0 97 21.5 178.5t56.5 100.5q28 15 86 30t107.5 26t96.5 34t65 55l-13 223q-35 21 -112 21q-63 0 -119.5 -14t-75.5 -39v-74q-6 -21 -27 -21q-19 0 -35 12.5t-16 26.5v109q0 37 109 68.5t229 31.5h25h16h13q10 0 27 -1t27 -5.5t21.5 -11t18 -18t8.5 -27.5 q0 -75 -2 -236t-2 -246q0 -261 16 -469q-8 -7 -35 -14.5t-49 -7.5q-23 0 -29.5 18t-7.5 55v5.5v5.5q-112 -86 -225 -86q-55 0 -123 22q-35 24 -53.5 92.5t-18.5 155.5zM201 252q0 -65 13.5 -113.5t39.5 -58.5q74 0 146.5 25.5t119.5 66.5q0 82 4 131q0 13 15 268 q-27 -32 -142.5 -66t-142.5 -54q-25 -18 -39 -74.5t-14 -124.5z" />
<glyph unicode="b" horiz-adv-x="763" d="M104 1413q15 15 54 18q7 1 14 1q28 0 39 -11q5 -93 5 -252q0 -80 -1 -176q79 33 150 33h13q76 -4 130 -29t82 -63q29 -38 45.5 -88t20.5 -110q4 -54 5 -100q-1 -5 -1 -10q0 -49 -3.5 -122t-3.5 -113q0 -61 -5 -95.5t-20.5 -80.5t-23.5 -78q-15 -49 -67 -82t-119 -46 q-62 -12 -128 -12h-10q-71 1 -130 15q-22 0 -35 8q-3 49 -3 112q0 99 7 230v34q-1 28 -1 68q-2 66 -1 87q0 32 3 87.5t3 84.5l-4 160v6q0 23 2 31q0 19 -1 63t-1 66v114q0 33 -8 121q-7 78 -7 119v10zM213 844q0 -101 2 -150q2 -44 2 -95t-1 -113.5t-1 -96.5q1 -31 3 -143 q1 -51 1 -82q0 -38 -2 -47q7 -7 39 -21q40 -12 76 -11.5t68 11.5q64 23 100 76q11 29 18.5 53.5t12 54.5t6.5 49.5t5.5 67t6.5 78.5q0 234 -24 330q-16 64 -42 88q-21 17 -65 31q-36 12 -80 12q-10 0 -20 -1q-56 -3 -91 -36z" />
<glyph unicode="c" horiz-adv-x="747" d="M104 394q0 49 3.5 122t3.5 113q0 61 5 95.5t20.5 80.5t23.5 78q16 51 81 86t141 45q42 6 85 6q33 0 65 -4q74 -8 109 -35v-28q1 -21 1 -47q2 -42 0.5 -59t-8 -49t-22.5 -77q-52 0 -65 16l4 78q3 32 3 52q0 19 -3 27q-6 14 -43 30q-40 12 -76 12t-68 -12q-64 -23 -100 -76 q-11 -29 -18.5 -53.5t-12 -54.5t-6.5 -49.5t-5.5 -67t-6.5 -78.5q0 -234 24 -330q16 -64 42 -88q21 -17 65 -31q36 -12 80 -12q10 0 20 1q56 3 91 36l32 133l52 12q5 1 9 -0.5t6 -6.5t3 -10t1.5 -13t0.5 -13.5v-14v-11.5q1 -4 3 -42q1 -17 1 -31q0 -17 -2 -28 q-3 -21 -14 -28q-75 -47 -151 -64q-48 -11 -88 -11q-24 0 -46 4q-58 10 -102 33.5t-68 55.5q-29 38 -45.5 88t-20.5 110q-4 54 -5 100q1 5 1 10z" />
<glyph unicode="d" horiz-adv-x="759" d="M104 626q0 5 -1 10q1 46 5 100q4 60 20.5 110t45.5 88q28 39 81 63.5t129 28.5h14q70 0 149 -33q-2 126 -2 220q0 141 4 208q11 11 39 11q6 0 14 -1q38 -3 53 -18v-14q-1 -43 -5 -117q-6 -88 -5 -119v-114q1 -15 -1 -61q-1 -28 -1 -47v-21q0 -116 -2 -197q0 -29 3 -84.5 t3 -87.5q1 -21 -1 -87q-1 -40 -1 -68v-34q7 -131 7 -230q0 -63 -3 -112q-13 -8 -37 -8q-59 -14 -130 -15h-10q-66 0 -128 12q-67 13 -118 46t-66 82q-8 32 -23.5 78t-20.5 80.5t-5 95.5q0 40 -3.5 113t-3.5 122zM215 475q3 -31 6.5 -78.5t5.5 -67t6.5 -49.5t12 -54.5 t18.5 -53.5q36 -53 100 -76q32 -12 68 -11.5t76 11.5q32 14 37 21q-1 17 -1 41q0 48 3 123v2q0 16 1 51t1 55q0 34 -1 96.5t-1 113.5t2 95v150l-12 55q-35 33 -91 36q-10 1 -20 1q-44 0 -80 -12q-44 -14 -65 -31q-66 -59 -66 -393v-10v-15z" />
<glyph unicode="e" d="M112 296q-10 94 -10 191t10 197q19 200 76 277q28 41 114 61q48 11 96 12q38 0 76 -8q86 -16 112 -68q37 -76 40 -229q0 -10 1 -20q0 -143 -41 -285l-60 -43q-94 -18 -174 -27q-72 -8 -105 -8h-7h-33q4 -143 59 -237q32 -11 82 -13q9 0 18 -1q42 -1 92 9q60 12 101 39 q29 -9 37 -59q-124 -83 -218 -88h-16q-87 0 -188 51q-43 61 -62 249zM197 442q20 -1 39 -1q114 0 231 20l49 28q19 80 19 183q-1 8 -1 16q-2 113 -18 195q-39 50 -113 50q-3 -1 -5 -1q-78 -2 -146 -55q-58 -140 -58 -341q0 -45 3 -94z" />
<glyph unicode="f" horiz-adv-x="595" d="M106 1022q0 -4 111 -4v33q-1 31 -1 59v42q2 47 7.5 86.5t22.5 72.5t45.5 57.5t76 41.5t113.5 26q1 2 2 2q3 0 5 -8q4 -17 4 -33.5t-4 -33.5q-2 -11 -7 -15q-108 -24 -143 -84q-30 -51 -30 -159q0 -15 1 -32q0 -37 2 -55q72 0 113 2q15 4 20 -38q5 -49 -7 -62q-2 -2 -3 -2 q-80 6 -82 6q-17 0 -37 -2v-33q0 -32 -3 -87.5t-3 -84.5l4 -160q-2 -19 -2 -46.5t1 -64t1 -55.5v-115q0 -33 8 -120q7 -77 7 -119v-10q-15 -15 -54 -19h-15q-27 0 -38 10q-6 65 -6 226q0 60 1 134q2 163 2 263q0 66 -1 104q-2 57 -2 173l-82 -3l-24 25q-7 1 -7 27q0 20 4 55 z" />
<glyph unicode="g" horiz-adv-x="753" d="M102 377q0 43 4.5 128t4.5 124q0 61 5 95.5t20.5 80.5t23.5 78q20 65 111.5 101t197.5 36q94 0 154 -29q11 0 17.5 -8.5t8.5 -24.5t2 -29.5t-1 -33.5t-1 -27q0 -42 -3 -129.5t-3 -134.5q0 -24 1 -74t1 -75q0 -32 -3 -87.5t-3 -84.5l2 -160q-6 -184 -29 -272.5t-73 -135.5 q-79 -51 -269 -59q-20 20 -20 51q0 8 1.5 15.5t2.5 11.5l2 4q165 13 221 59q46 60 58 230q-79 -33 -152 -33q-50 0 -91.5 12t-70 32t-50.5 50t-35 62.5t-20.5 72.5t-10.5 76t-3 78zM215 545q0 -206 15 -293q16 -96 51 -125q17 -15 61 -29t88 -14q67 0 107 37l6 24l4 166v305 q0 40 -2 111t-2 102q0 49 2 74q-14 14 -48.5 22.5t-64.5 8.5q-54 0 -92 -18t-59.5 -46t-34 -74.5t-17.5 -90t-10 -105.5q-2 -37 -4 -55z" />
<glyph unicode="h" horiz-adv-x="739" d="M104 1305q2 53 9 106q15 9 43 13q8 1 15 1q19 0 36 -6q3 -49 3 -112q0 -99 -7 -230q-1 -17 -1 -38q0 -43 3 -107q123 94 228 94q64 0 122 -35l72 -86q1 -75 -3 -267q-2 -112 -3 -206q0 -66 2 -126q2 -140 14 -288q-15 -10 -51 -18q-17 -3 -30 -3q-16 0 -28 5 q-14 52 -14 163q0 60 4 138l10 291l-6 285q-38 25 -84 31q-16 2 -30 2q-30 0 -60 -8q-44 -12 -79.5 -28t-65.5 -36q-4 -86 -4 -123l4 -160q-2 -19 -2 -46.5t1 -64t1 -55.5v-115q-1 -32 7 -120q7 -77 7 -118v-11q-15 -15 -53.5 -18.5t-52.5 9.5q-6 67 -6 241q1 53 1 119 q1 151 1 248q0 77 -1 119q-2 44 -2 95t1 114t1 97q0 37 -2 119q-1 47 -1 84q0 28 1 51z" />
<glyph unicode="i" horiz-adv-x="329" d="M104 1265.5q0 28.5 4 42.5l3 13q20 23 51 23q27 0 61 -17q4 -39 4 -60q-1 -3 -1 -5q0 -22 -2 -41l-3 -19q-4 -11 -53.5 -11t-56.5 17q-7 29 -7 57.5zM111 989q23 33 54 33h6q35 -4 46 -27l-8 -243l12 -736q-9 -8 -27 -14q-10 -3 -23 -3q-9 0 -19 2q-24 4 -37 22l4 321z " />
<glyph unicode="j" horiz-adv-x="362" d="M-168 -308q-2 10 -2 18q0 9 2 16l4 12q165 13 221 59q38 50 51.5 159.5t18.5 354.5q1 44 1 95t-0.5 113.5t-0.5 96.5q0 30 -3 157q-2 52 -2 86q0 47 3 56v74q23 33 54 33h6q35 -4 46 -27l-2 -53v-42q0 -94 -6 -257v-34q0 -28 1 -68q1 -66 1 -86q0 -32 -3 -87.5t-3 -84.5 l4 -160q-6 -183 -29.5 -272t-74.5 -136q-79 -51 -269 -59q-15 16 -18 36zM118 1265.5q0 28.5 4 42.5l3 13q20 23 52 23q26 0 61 -17q4 -39 4 -60v-5q-1 -22 -4 -41l-2 -19q-4 -11 -54 -11t-57 17q-7 29 -7 57.5z" />
<glyph unicode="k" d="M104 1305q2 53 9 106q15 9 43 13q8 1 15 1q19 0 36 -6q3 -49 3 -112q0 -99 -7 -230v-34q1 -29 1 -68q2 -66 1 -86q0 -32 -3 -87.5t-3 -84.5l2 -82q44 66 155.5 217.5t155.5 220.5q9 15 36.5 19t51 -2t25.5 -15q-27 -44 -61.5 -95t-60 -86t-68.5 -92t-64 -85 q28 -51 51 -129q30 -104 103.5 -291t101.5 -281q-7 -18 -48 -20h-7q-34 0 -44 22q-23 72 -102.5 263.5t-103.5 279.5q-8 26 -21 60q-2 -3 -21.5 -32t-27.5 -44q-7 -12 -27.5 -35t-23.5 -27q0 -15 1 -46t1 -46v-115q-1 -32 7 -125q7 -82 7 -124v-11q-15 -15 -53.5 -18 t-52.5 10q-6 66 -6 244q1 56 1 122q1 155 1 252q0 78 -1 119q-2 44 -2 95t1 114t1 97q0 37 -2 119q-1 47 -1 84q0 28 1 51z" />
<glyph unicode="l" horiz-adv-x="321" d="M104 1305q2 53 9 106q15 9 43 13q8 1 15 1q19 0 36 -6q3 -49 3 -112q0 -99 -7 -230v-34q1 -29 1 -68q2 -66 1 -86q0 -32 -3 -87.5t-3 -84.5l4 -160q-2 -19 -2 -46.5t1 -64t1 -55.5v-115q-1 -32 7 -125q7 -82 7 -124v-11q-15 -15 -53 -18q-7 -1 -14 -1q-28 0 -39 11 q-6 66 -6 244q1 56 1 122q1 155 1 252q0 78 -1 119q-2 44 -2 95t1 114t1 97q0 37 -2 119q-1 47 -1 84q0 28 1 51z" />
<glyph unicode="m" horiz-adv-x="1161" d="M106 378q4 190 4 296q0 42 -1 71q-2 9 -2 60q1 26 1 63q2 110 1 125q16 21 42 29q11 4 22 3l30 -7l4 -86q123 94 228 94q64 0 122 -35l55 -67q133 102 243 102q65 0 122 -35l72 -86q1 -75 -3 -267q-2 -112 -3 -206q0 -66 2 -126q2 -140 14 -288q-15 -10 -51 -18 q-17 -3 -30 -3q-16 0 -28 5q-14 52 -14 163q0 60 4 138l10 291l-6 285q-37 25 -83 31q-15 2 -30 2q-30 0 -59 -8q-43 -12 -78 -28t-65 -36v-822q-12 -8 -51.5 -9.5t-59.5 9.5q0 12 -2 61q-1 37 -1 77q1 12 1 26q0 54 4 121l10 291l-6 285q-38 25 -84 31q-16 2 -30 2 q-30 0 -60 -8q-44 -12 -79.5 -28t-65.5 -36q-4 -86 -4 -123l4 -160q-2 -19 -2 -46.5t1 -64t1 -55.5v-115q-1 -32 7 -120q7 -77 7 -118v-11q-15 -15 -55.5 -18.5t-54.5 9.5q-5 58 -5 181q0 77 2 179z" />
<glyph unicode="n" horiz-adv-x="737" d="M102 868q2 110 2 125q16 21 42 29q11 4 22 3q15 0 31 -7l4 -86q123 94 228 94q64 0 122 -35l72 -86q1 -75 -3 -267q-2 -112 -3 -206q0 -66 2 -126q2 -140 14 -288q-15 -10 -51 -18q-17 -3 -30 -3q-16 0 -28 5q-14 52 -14 163q0 60 4 138l10 291l-6 285q-38 25 -84 31 q-16 2 -30 2q-30 0 -60 -8q-44 -12 -79.5 -28t-65.5 -36q-4 -86 -4 -123l4 -160q-2 -19 -2 -46.5t1 -64t1 -55.5v-115q-1 -32 7 -120q7 -77 7 -118v-11q-15 -15 -53.5 -18.5t-52.5 9.5q-6 67 -6 241q1 53 1 119q1 151 1 248q0 77 -1 119q-2 9 -2 60v63z" />
<glyph unicode="o" horiz-adv-x="722" d="M104 524v111v8q0 23 3 113q4 112 6 118q4 22 32.5 51t51.5 42q54 39 176 69q8 2 19 2q42 0 120 -26q14 -6 30 -19.5t24.5 -23.5t25 -31.5t18.5 -24.5q4 -25 4 -106q4 -24 4 -100q0 -31 -1 -69q-1 -90 -1 -133v-32q0 -27 2 -95q2 -54 2 -100v-22q0 -54 -6 -94 q-3 -21 -19.5 -50t-19.5 -38q-10 -4 -38 -29.5t-50 -32.5q-63 -20 -145 -22h-19q-68 0 -106 16q-14 7 -26.5 17t-25.5 27t-19 25.5t-19 30t-14 23.5q-1 40 -2.5 176t-6.5 219zM201 733q0 -47 1 -83.5t4 -110.5t5 -123q1 -31 1 -55q0 -18 -0.5 -32.5t-0.5 -29.5q0 -21 1 -43 q2 -40 9 -80q11 -53 49 -74q28 -16 60 -16q11 0 22 2q80 7 99 15q40 15 66 77q0 2 1 4q4 108 4 210q0 25 1 53q1 83 -1 189q-2 140 -2 220q-10 28 -42 46t-74 20q-10 1 -20 1q-32 0 -64 -6q-42 -8 -74 -34t-41 -64q-4 -39 -4 -86z" />
<glyph unicode="p" horiz-adv-x="755" d="M104 944q46 46 120 64q55 14 108 14q18 0 36 -2q71 -6 131 -28.5t83 -53.5q29 -38 45.5 -88t20.5 -110q5 -55 5 -100q0 -5 -1 -10q0 -49 -3.5 -122t-3.5 -113q0 -61 -5 -95.5t-20.5 -80.5t-23.5 -78q-13 -43 -55 -74t-96.5 -45t-118.5 -20q-27 -3 -53 -3q-34 0 -66 5v-18 q0 -39 3 -120q1 -50 1 -90q0 -24 -1 -44q-1 -54 -9 -107q-15 -10 -43 -13q-8 -1 -15 -1q-20 0 -37 6q-2 41 -2 96q0 100 7 246v68q-4 96 -4 200.5t2 228t2 189.5v115q0 184 -7 184zM206 594q-1 -103 -1 -176q0 -83 2 -127v-2q0 -2 2 -2l-2 -19q2 -49 2 -147q6 -8 39 -21 q40 -12 76 -12t68 12q64 23 100 76q11 29 18.5 53.5t12 54.5t6.5 49.5t5.5 67t6.5 78.5q0 234 -24 330q-16 64 -42 88q-14 12 -46 22.5t-71 15.5q-14 2 -28 2q-26 0 -52 -6q-42 -9 -69 -34v-44q0 -89 -3 -259z" />
<glyph unicode="q" horiz-adv-x="745" d="M104 394q0 49 3.5 122t3.5 113q0 61 5 95.5t20.5 80.5t23.5 78q25 68 110 105q78 35 171 35h15q102 -3 179 -44q8 -16 8 -51q0 -19 -2 -43q1 -21 1 -55q0 -70 -5 -195q0 -16 -3 -89q-1 -32 -1 -51q0 -23 2 -26v-203l-2 -194l-1 -62q0 -61 1 -61q7 -131 7 -230 q0 -63 -3 -112q-17 -6 -36 -6q-8 0 -15 1q-28 3 -43 13q-4 42 -5.5 90t-1.5 80t0.5 95.5t0.5 94.5v45q-73 -27 -137 -27q-11 0 -22 1q-74 5 -125.5 30t-78.5 62q-29 38 -45.5 88t-20.5 110q-5 55 -5 100q0 5 1 10zM215 545q0 -234 24 -330q16 -64 42 -88q21 -17 64 -31 q36 -12 82 -12h17q56 3 91 35q-1 19 -1 43q0 48 3 119q1 44 1 111q0 84 -2 206q-1 99 -1 173q0 88 2 140l-29 13q-40 12 -76 12t-68 -12q-64 -23 -100 -76q-11 -29 -18.5 -53.5t-12 -54.5t-6.5 -49.5t-5.5 -67t-6.5 -78.5z" />
<glyph unicode="r" horiz-adv-x="524" d="M104 23v25q0 42 2 110q3 90 3 118v115q0 8 -2 34t-1 40q-2 59 -2 125.5t1 155t1 143.5q0 31 5 110q17 9 26.5 13.5t24.5 9.5q11 4 19 4q3 0 7 -1q10 -2 17 -11v-117q31 66 104 101q56 27 109 27q17 0 33 -3q4 -24 4 -42q0 -9 -1 -16q-3 -22 -10 -32l-6 -10 q-24 -1 -54.5 -8t-69 -22.5t-68.5 -46.5t-39 -73q1 -11 1 -56v-54q0 -93 -1 -111q2 -37 2 -71q-1 -9 -1 -17q0 -42 -1.5 -97t-1.5 -63q5 -61 5 -157v-20q0 -110 -1 -122q-14 -8 -33 -8q-10 0 -22 2q-34 7 -50 25z" />
<glyph unicode="s" horiz-adv-x="733" d="M102 836q0 63 9.5 95t42.5 66q9 2 49.5 12.5t55.5 14t53 9.5q36 6 63 5h4q28 0 70.5 -3t87.5 -11q19 -41 33 -126q9 -59 10 -119q0 -27 -2 -53q-6 -87 -37 -116q-2 0 -20.5 -1t-31 -0.5t-16.5 3.5q0 10 4.5 67t6.5 103q1 17 1 33q-1 29 -3 61q-4 50 -15 68q-32 18 -78 18 q-23 0 -51 -4q-80 -14 -115 -49q-12 -58 -12 -119q0 -30 3 -61q9 -93 42 -154l332 -188q17 -44 28 -94q12 -50 14 -108v-12q0 -50 -20 -77q-6 -14 -58 -49.5t-71 -38.5q-80 -12 -145 -12q-88 0 -152 22q-32 14 -49.5 54.5t-19.5 91.5q-2 43 -2 158v7.5v7t0.5 5t2.5 4.5 t5 1.5t8 0.5l59 -14q6 -4 9.5 -11t4.5 -16.5t1.5 -16t0 -16t-0.5 -10.5q0 -10 -0.5 -28.5t-0.5 -29t2 -28t7 -35.5q6 -24 37 -36q30 -13 74 -13q7 0 14 1q34 -1 62 1q34 2 65 8q45 44 57 106q4 18 3 38q0 45 -21 92q-50 39 -140 83.5t-126 68.5q-48 32 -77 69.5t-48 89.5 q-9 23 -9 185z" />
<glyph unicode="t" horiz-adv-x="559" d="M102 973l4 55q0 -4 107 -4q-2 41 -2 117q0 68 12.5 87t59.5 19q21 0 34 -8q0 -3 -1 -20.5t-1 -30.5q0 -23 1 -80t1 -84q15 0 50.5 1t58.5 1q18 0 18 -59q0 -40 -10 -43q-80 6 -82 6q-17 0 -35 -2q0 -91 -4 -209q0 -5 2 -73.5t2 -110.5q0 -14 -1 -35.5t-1 -28.5v-293 q0 -84 52 -84q11 0 35 5t36 5q2 0 6 -6.5t8.5 -24t4.5 -40.5q0 -12 -8.5 -19.5t-29.5 -10t-30 -3t-35 -0.5q-139 0 -139 123v448q0 10 1 30.5t1 29.5v114q0 8 -1 71t-1 108l-82 -2l-24 24q-7 0 -7 27z" />
<glyph unicode="u" horiz-adv-x="737" d="M102 1006q14 10 50 18q17 3 31 3q16 0 28 -5q14 -52 14 -163q0 -60 -4 -138l-10 -291l6 -285q37 -26 83 -32q16 -2 32 -2q30 -1 59 7q44 12 79.5 28.5t64.5 37.5q1 14 2.5 38.5t2.5 45t1 39.5l-4 160q2 19 2 46.5t-1 64t-1 55.5v115q0 33 -8 120q-7 77 -7 119v10 q15 15 54 18.5t53 -9.5q6 -65 6 -226q0 -60 -1 -134q-2 -163 -2 -263q0 -66 1 -104q2 -9 2 -60q-1 -26 -1 -63q-2 -110 -1 -125q-16 -21 -42 -29q-11 -4 -22 -3l-30 7q-4 41 -4 84q-126 -92 -231 -92q-64 0 -120 35l-71 86q0 69 3 265q2 107 2 197q0 75 -2 139 q-2 140 -14 286z" />
<glyph unicode="v" horiz-adv-x="731" d="M102 993q4 17 52 25q17 3 28 4q21 0 25 -10q13 -99 54 -305.5t52 -268.5l39 -231q9 18 34.5 124t31.5 122q23 94 59.5 288t54.5 273q9 10 23 10q11 0 25 -6q32 -14 49 -41q-10 -44 -47 -244t-70 -307q-17 -59 -48 -181.5t-58 -211.5q-14 -20 -61 -20q-18 0 -42 3l-55 240 q-9 62 -33.5 176.5t-32.5 159.5q-6 32 -38.5 176.5t-41.5 224.5z" />
<glyph unicode="w" horiz-adv-x="1085" d="M102 991q5 17 49 27q18 4 30 5q17 0 20 -9q26 -217 86 -578l32 -231q7 17 35 120.5t35 120.5q21 94 58.5 280.5t54.5 264.5q14 24 41 22.5t41 -22.5q17 -79 54 -265.5t58 -279.5q7 -17 35 -120.5t35 -120.5l35 231q70 447 86 580q4 9 20 9q11 -1 29 -5q42 -10 47 -27 q-17 -159 -59 -405q-7 -41 -29.5 -156t-30.5 -178l-51 -238q-21 -3 -38 -3q-43 0 -58 20q-25 90 -58 214.5t-47 176.5q-35 109 -65 307q-32 -164 -74 -307q-16 -57 -47.5 -179.5t-56.5 -211.5q-14 -20 -58 -20q-17 0 -39 3l-51 238q-8 63 -30.5 179t-28.5 155 q-45 263 -60 403z" />
<glyph unicode="x" horiz-adv-x="727" d="M136 1026q15 2 24.5 2t13.5 -2q13 -5 19 -18t14.5 -38t23.5 -48q27 -46 60 -156.5t65 -159.5q16 32 48 128t57 140q28 62 41 97q7 18 14 29q8 10 26 20q13 7 29 7q7 0 15 -1l4 -4t5.5 -5t6 -6.5t5.5 -8.5t3.5 -10.5t1.5 -12.5q-40 -74 -94.5 -235t-91.5 -232 q49 -89 111 -233q44 -111 88 -275q-9 -12 -41 -12h-4q-28 0 -39 6q-109 227 -170 434q-30 -62 -83 -202.5t-95 -217.5q-13 -8 -84 -8q-3 25 -3 42q0 13 2 21q4 20 21 54q13 27 36.5 83.5t35.5 82.5q7 15 71 168q18 46 18 78q0 21 -7 36q-87 160 -154 344q-7 17 -15 54 q-8 33 -8 45q0 10 30 14z" />
<glyph unicode="y" horiz-adv-x="745" d="M102 1006q14 10 50.5 17.5t58.5 -1.5q14 -52 14 -163q0 -60 -4 -138l-10 -291l6 -285q38 -27 86 -33q15 -1 29 -1q33 0 64 9q44 12 79.5 29.5t63.5 38.5l4 123v305q0 51 -7 138t-10 136v24q0 42 6 100q15 10 48 14h18q22 0 39 -6q6 -111 6 -215q0 -84 -4 -164v-34 q0 -28 1 -68q1 -66 1 -86q0 -32 -3 -87.5t-3 -84.5l4 -160q-6 -183 -29.5 -272t-74.5 -136q-79 -51 -269 -59q-15 16 -18.5 36.5t0.5 33.5l4 12q165 13 221 59q51 70 62 293q-124 -93 -229 -93q-65 0 -122 36l-71 86q0 70 3 265q2 107 2 197q0 75 -2 139q-2 139 -14 286z " />
<glyph unicode="z" horiz-adv-x="735" d="M102 106q8 71 49 169.5t87 181.5l34 57q7 12 24.5 40.5t71.5 117.5t134 223q0 2 -1 5.5t-1.5 5t-1 4.5t-1.5 5t-2 4.5t-2.5 4.5t-3.5 4t-4.5 3.5t-6 3.5t-7.5 3h-51q-108 0 -182 -12q-57 -13 -93 -13h-12q-9 2 -15 19.5t-8 33.5l-1 17q17 21 117 33t210 12q116 0 139 -10 l50 -72q-2 -12 -17 -41l-12 -24q-32 -66 -121 -222l-72 -129q-4 -7 -17 -33.5t-19 -35.5q-40 -73 -59.5 -110.5t-45.5 -99t-41 -120.5l47 -45q62 -10 125 -10q106 0 211 20q25 -16 28 -28q1 -3 1 -5q0 -11 -8 -30q0 -6 -7 -13q-50 -18 -233 -18h-61q-139 0 -166 4z" />
<glyph unicode="{" horiz-adv-x="532" d="M102 592v49q11 4 29.5 8.5t29 7.5t21 10t15.5 17q27 30 30.5 92.5t-11.5 137.5t-34.5 146.5t-36.5 136.5t-18 91q3 29 20 62.5t37 46.5q20 12 124 28.5t120 4.5q4 -58 -10 -68q-92 2 -166 -31l-23 -61q5 -20 18 -62t23 -79t17 -76q30 -137 32 -176q0 -8 2 -35.5 t2.5 -35.5t1 -30.5t-1 -31t-4 -25.5t-7 -26.5t-11.5 -21.5t-16 -22q-5 -7 -20 -19t-19 -16q27 -18 39 -30q9 -10 16 -22t11.5 -21.5t7 -26.5t4 -25.5t1 -31t-1 -30.5t-2.5 -35.5t-2 -35.5q-2 -39 -32 -176q-7 -39 -17 -76t-23 -79t-18 -62l23 -61q33 -15 74.5 -22.5 t66.5 -7.5l25 -1q6 -4 8.5 -21t1.5 -32v-15q-16 -12 -120 4.5t-124 28.5q-20 13 -37 46.5t-20 62.5q1 26 18 91t36.5 136.5t34.5 146.5t11.5 137.5t-30.5 92.5q-6 13 -19 20t-39.5 13t-36.5 10z" />
<glyph unicode="|" horiz-adv-x="329" d="M104 -4q1 39 6 117.5t5 128.5v309q4 16 27 21t44 2l21 -3v-55q0 -114 6 -303q8 -164 0 -317q-24 -12 -55 -17.5t-47 2.5q-8 76 -7 115zM112.5 1192q-0.5 71 0.5 163t4 156q15 15 53 22.5t55 -5.5q1 -42 -7.5 -133.5t-8.5 -124.5v-115q0 -141 6 -205l-4 -114 q-3 -2 -8 -4.5t-19 -7.5t-25.5 -6.5t-23.5 2t-18 14.5q0 54 -2 170.5t-2.5 187.5z" />
<glyph unicode="}" horiz-adv-x="532" d="M104 -197q-3 58 11 68q92 -2 166 31l22 61q-5 18 -18 61t-22.5 80t-16.5 76q-32 143 -33 176q0 7 -2 32t-2 31.5t-1 27.5t0 28.5t2.5 24t4.5 24.5t7.5 20.5t11 21.5t14.5 18q12 12 39 30q-4 4 -19 16t-20 19q-8 9 -14.5 18t-11 21.5t-7.5 20.5t-4.5 24.5t-2.5 24t0 28.5 t1 27.5t2 31.5t2 32q1 33 33 176q7 39 16.5 76t22.5 80t18 61l-22 61q-33 15 -74.5 22.5t-66.5 8.5h-25q-6 4 -9 21t-2 32v15q16 12 120 -4.5t124 -28.5q21 -13 38 -47t20 -62q-1 -26 -18 -91t-36.5 -136.5t-34.5 -146.5t-11.5 -137.5t30.5 -92.5q6 -13 18.5 -20t39 -13.5 t36.5 -9.5v-49q-11 -4 -29.5 -8.5t-28.5 -7.5t-20.5 -10t-15.5 -17q-27 -30 -30.5 -92.5t11.5 -137.5t34.5 -146.5t36.5 -136.5t18 -91q-3 -28 -20 -62t-38 -47q-20 -12 -124 -28.5t-120 -4.5z" />
<glyph unicode="~" horiz-adv-x="880" d="M105 666l4 14l186 72q75 -5 171.5 -34.5t106.5 -31.5l168 47q62 -59 17 -84l-189 -65l-239 61l-197 -45q-20 13 -26 33t-2 33z" />
<glyph unicode="&#xa1;" horiz-adv-x="327" d="M102 14l17 310q6 87 8.5 218t3.5 148q3 33 4 149.5t2.5 217t5.5 110.5q5 13 33.5 18.5t34.5 -7.5l2 -179l6 -700q6 -248 6 -250t-5.5 -18.5t-6.5 -16.5l-38 -9q-67 -11 -73 9zM121 1333.5q-4 63.5 4 81.5q3 5 34.5 8.5t53.5 -0.5q7 -8 6.5 -42.5t-5 -74.5t-7.5 -40 l-41 -6q-26 -1 -33 4q-8 6 -12 69.5z" />
<glyph unicode="&#xa2;" horiz-adv-x="747" d="M103.5 394q0.5 49 4 122t3.5 113q0 61 5 95.5t20.5 80.5t23.5 78q27 92 198 125q0 64 -4 190q46 25 76 16q3 -20 3.5 -44t-0.5 -55t-1 -40q-2 -20 -2 -57q148 10 211 -37q-1 -33 0.5 -75.5t0.5 -59t-7.5 -48.5t-22.5 -77q-52 0 -65 16l4 78q6 65 0 79.5t-43 29.5 q-47 13 -82 10v-97.5t-4 -121.5q-4 -48 -4 -133v-103q-5 -206 -4 -248q-1 -12 -3 -32.5t-3 -37t0 -32.5v-45q82 -7 129 37l32 133l52 12q5 1 9 -0.5t6 -6.5t3.5 -10t1.5 -13v-13.5v-14v-11.5q0 -4 2.5 -42t-0.5 -59t-14 -28q-107 -67 -219 -74q4 -117 -11 -184 q-11 -9 -30 -13t-31 0l2 201q-114 15 -166 88q-29 38 -45.5 88t-21 110.5t-4 109.5zM215 545q0 -234 24 -330q16 -64 42 -88q16 -16 59 -29l2 47q2 22 0.5 87t-0.5 90q0 115 7.5 325t8.5 275q-55 -21 -94 -74q-11 -29 -18.5 -53.5t-12 -54.5t-6.5 -49.5t-5.5 -67t-6.5 -78.5 z" />
<glyph unicode="&#xa3;" horiz-adv-x="827" d="M102 1149q0 87 9.5 131.5t42.5 93.5q4 14 33 27t78 18.5t107.5 2t130.5 -25t138 -59.5q25 -38 30 -192.5t-5 -212.5q-8 -9 -25.5 -15t-36 -2.5t-24.5 19.5q0 6 5 92t0 143.5t-24 87.5q-16 24 -81 43t-132 16t-86 -34q-29 -65 -39.5 -136.5t-1 -149t23 -138t38.5 -145.5 h67q1 0 129 2t129 2q16 4 20 -39q4 -49 -7 -62q-2 -2 -3 -2q-79 7 -81 7l-33 -1q-34 -1 -90 -2t-103 -2q68 -225 56 -346l-66 -123q70 -6 134.5 -33.5t84.5 -31.5l168 47q62 -59 17 -84l-189 -65l-186 61l-197 -45q-20 13 -26 33t-2 33l4 14l45 16l108 215q2 112 -45 307 l-80 -2l-24 25q-12 2 -2 82q0 -4 79 -4q-31 114 -44 162.5t-28.5 132t-15.5 139.5z" />
<glyph unicode="&#xa4;" horiz-adv-x="735" d="M102 1049q1 3 2.5 6.5t8 14.5t15 15.5t21.5 8t29 -6.5l53 -73q59 33 141.5 36.5t139.5 -16.5l57 72q21 1 37 -13t22 -28l5 -14l-53 -101q23 -154 18 -313t-33 -293l47 -108q-1 -3 -3 -7t-7 -14.5t-11 -17.5t-13.5 -11.5t-14.5 -1.5q-6 9 -30 39t-27 35 q-59 -43 -136 -45.5t-143 33.5l-51 -70q-17 -8 -38 7t-25 38l57 98q-23 145 -22.5 308.5t22.5 302.5zM264 330q135 -67 215 30q38 159 36.5 303.5t-34.5 274.5q-26 26 -65.5 30.5t-82 -18.5t-69.5 -71q-64 -255 0 -549z" />
<glyph unicode="&#xa5;" horiz-adv-x="737" d="M106 756q0 -6 166 -6q-29 97 -78.5 302.5t-54.5 223.5q-22 80 -22 113q0 9 16.5 17.5t33.5 12.5l17 4q44 0 58 -137l123 -526l22 16q42 136 73.5 309.5t50 257.5t44.5 84t66 -16q6 -6 6 -25q0 -28 -13 -57q-38 -97 -81.5 -307.5t-59.5 -269.5h38.5t36 0.5t28.5 1t20 0.5 h8q15 4 20 -37q5 -47 -7 -60q-2 -2 -3 -2q-80 7 -82 7q-12 0 -88 -3l-6 -18l-18 -33q-2 -14 -2 -43q152 4 194 4q15 4 20 -38q6 -49 -6 -62q-2 -2 -3 -2q-80 6 -82 6h-7q-6 0 -17.5 -0.5t-26 -1t-34 -0.5h-38.5q1 -38 4.5 -147t3.5 -160q0 -25 4.5 -60t3.5 -53.5t-12 -30.5 q-59 -22 -82 -12q-12 6 -16.5 43t-4.5 142q0 38 2.5 114t2.5 101v61l-183 -4l-24 24q-12 2 -2 82q0 -6 207 -6q-4 42 -11 64q-7 15 -10 28l-168 -4l-24 25q-12 1 -3 78z" />
<glyph unicode="&#xa6;" horiz-adv-x="329" d="M104 -4q1 39 6 117.5t5 128.5q0 367 2 417q2 98 -3 429t3 423q15 15 53 22.5t55 -5.5q1 -42 -7.5 -133.5t-8.5 -124.5v-115q0 -141 6 -205l-10 -262q0 -29 1 -84.5t1 -87.5q0 -114 6 -303q8 -164 0 -317q-24 -12 -55 -17.5t-47 2.5q-8 76 -7 115z" />
<glyph unicode="&#xa7;" horiz-adv-x="720" d="M109 1275q13 101 49 118q57 27 228.5 33.5t182.5 -15.5q12 -21 20.5 -72.5t2.5 -72.5l-6 -43q-29 -12 -58 0q0 7 -0.5 24.5t-1.5 26t-2 21.5t-4 24t-8 22q-42 10 -97 10.5t-118.5 -12t-108.5 -39.5q-9 -133 7 -213q11 -47 28 -67t90 -54t123.5 -53.5t79.5 -29.5 q40 -13 57 -33q18 -21 26 -67.5t6.5 -89.5t-1.5 -81q-16 -14 -31.5 -24.5t-25 -16t-24 -9.5t-19.5 -5t-20 -2.5t-17 -1.5q3 -2 58 -42.5t75 -68.5q10 -1 15 -100t-0.5 -198t-20.5 -101q-64 -43 -238 -44t-235 48q-7 20 -5.5 86t13.5 90q8 5 27 3t26 -7q0 -7 -3 -33t-3 -47.5 t6 -32.5q51 -22 131 -23t133 8t97 20q4 51 -13.5 185t-40.5 153q-21 21 -86.5 44.5t-137 54t-107.5 70.5q-8 25 -9.5 112.5t7.5 119.5q5 20 46 35t54 10q-10 6 -28 17t-28.5 17.5t-24 17t-23.5 22.5q-29 10 -42.5 107.5t-0.5 198.5zM233 815q0 -107 9 -164q28 -6 82 -27 t71 -22q86 17 140 31q6 70 -13 162q-20 4 -88.5 32.5t-93.5 30.5q-6 -2 -32.5 -11t-43.5 -16t-31 -16z" />
<glyph unicode="&#xa8;" horiz-adv-x="552" d="M109 1305q-17 93 6 118l61 10q35 3 39 -6q19 -50 -10 -120q-21 -8 -45 -8.5t-38 3.5zM336 1305q-17 93 6 118l61 10q36 4 39 -6q19 -50 -10 -120q-21 -8 -45 -8.5t-37 3.5z" />
<glyph unicode="&#xa9;" horiz-adv-x="1007" d="M162 297q-151 642 96 1059q103 44 193.5 62.5t164 17t162.5 -18.5q51 -92 76.5 -177.5t44.5 -225.5q13 -101 -3 -331t-52 -390l-49 -139l-54 -80q-84 -54 -199.5 -64.5t-209.5 21.5q-48 15 -96.5 85.5t-73.5 180.5zM189 726q0 -10 0.5 -22.5t1.5 -15.5t3 -23.5t5 -48.5 q10 -128 14 -173t20.5 -112.5t45.5 -117.5q5 -13 39.5 -56.5t41.5 -50.5q10 -7 64 -10t126.5 5.5t117.5 29.5q40 14 69.5 84.5t43.5 167.5t21.5 186.5t10.5 166t4 81.5l-6 137q0 48 -33 201t-51 174q-25 30 -85 33.5t-124.5 -12.5t-123.5 -42.5t-85 -52.5 q-7 -16 -24.5 -57.5t-24 -58.5t-20 -54t-19.5 -64t-14 -67.5t-11.5 -85t-5.5 -96.5q-1 -36 -1 -46zM319 403q5 108 5 140q0 11 -1 34.5t-1 36.5v72q0 12 -1.5 34t-1.5 34v67q0 130 27 299q28 34 93.5 58t127.5 24q53 0 82 -18.5t29 -65.5v-67q0 -5 1 -15.5t1 -15.5 q0 -86 -21 -158l-8 -2q-30 0 -43.5 13.5t-13.5 46.5q0 20 4 57t4 57q0 40 -14 72l-10 18h-15q-35 0 -76 -14.5t-65 -34.5q-9 -45 -14 -98t-8.5 -138t-4.5 -98q0 -65 3 -169t3 -150v-14q4 -52 15 -68h-2q21 -21 80 -21q27 0 84 11l14 32q0 34 8.5 97t17.5 67l31 13h6 q21 0 21 -62v-10q0 -11 0.5 -44t0.5 -46t-3.5 -38t-11 -37.5t-21.5 -27t-35 -22.5l-22 -8q-75 -23 -109 -23q-25 0 -49 6h2q-58 13 -82 56t-27 120z" />
<glyph unicode="&#xaa;" horiz-adv-x="548" d="M102 965q0 63 14 114.5t38 63.5q12 6 82 24q111 25 135 62l-9 135q-23 10 -61 10q-33 0 -68.5 -10t-50.5 -23v-43q-5 -14 -19 -15.5t-26 8t-12 20.5v73q12 26 75 43t138 17q46 0 82 -8q15 -10 18 -35v-137q0 -26 -1 -81.5t-1 -84.5q0 -166 10 -283q-9 -9 -34.5 -14.5 t-40.5 2.5l-9 41q-64 -49 -135 -49q-36 0 -77 14q-48 29 -48 156zM172 958q0 -35 9.5 -64t23.5 -38q43 2 87.5 16.5t67.5 34.5q0 20 5 70v12q0 89 6 156q-6 -5 -12.5 -9t-17 -8.5t-15 -6l-21 -7t-20.5 -6.5q-61 -19 -80 -31q-15 -12 -24 -46t-9 -73z" />
<glyph unicode="&#xab;" horiz-adv-x="716" d="M102 614q32 47 106.5 183.5t96.5 169.5q2 -2 6 -5.5t13.5 -14.5t13.5 -22t7 -27.5t-7 -31.5l-115 -254l119 -284q-6 -33 -47 -68q-18 16 -35.5 39t-35 53t-30 53t-29.5 61t-24 54t-22.5 53.5t-16.5 40.5zM371 614q32 47 106 183.5t96 169.5q2 -2 6 -5.5t13.5 -14.5 t13.5 -22t7 -27.5t-7 -31.5l-114 -254l118 -284q-6 -33 -47 -68q-18 16 -35.5 39t-34.5 52.5t-30 54t-29 60t-24 54.5t-22 53.5t-17 40.5z" />
<glyph unicode="&#xac;" horiz-adv-x="727" d="M106 713q13 -1 31 -0.5t84 1.5t125 1q1 0 139.5 -4t139.5 -4v-218q-7 -10 -38.5 -12t-58.5 4q4 77 -6 133q-9 5 -106 5t-190 -3l-93 -2l-24 25q-12 1 -3 74z" />
<glyph unicode="&#xad;" d="M106 713q0 -6 240 -6q1 0 129 2t129 2q16 4 20 -39q4 -49 -7 -62q-2 -2 -3 -2q-80 6 -82 6l-399 -8l-24 25q-12 1 -3 82z" />
<glyph unicode="&#xae;" horiz-adv-x="1007" d="M162 297q-151 642 96 1059q103 44 193.5 62.5t164 17t162.5 -18.5q51 -92 76.5 -177.5t44.5 -225.5q13 -101 -3 -331t-52 -390l-49 -139l-54 -80q-84 -54 -199.5 -64.5t-209.5 21.5q-48 15 -96.5 85.5t-73.5 180.5zM189 726q0 -10 0.5 -22.5t1.5 -15.5t3 -23.5t5 -48.5 q10 -128 14 -173t20.5 -112.5t45.5 -117.5q5 -13 39.5 -56.5t41.5 -50.5q10 -7 64 -10t126.5 5.5t117.5 29.5q40 14 69.5 84.5t43.5 167.5t21.5 186.5t10.5 166t4 81.5l-6 137q0 48 -33 201t-51 174q-25 30 -85 33.5t-124.5 -12.5t-123.5 -42.5t-85 -52.5 q-7 -16 -24.5 -57.5t-24 -58.5t-20 -54t-19.5 -64t-14 -67.5t-11.5 -85t-5.5 -96.5q-1 -36 -1 -46zM352 248v78q0 75 2 179t2 144q-2 29 -2 109q0 72 2 151t2 103q0 123 -4 143q98 27 185 27q60 0 84.5 -27.5t33.5 -77.5q11 -70 11 -211q-4 -44 -9 -71.5t-22.5 -62 t-46.5 -56.5l10 -55q15 -95 33 -168.5t27.5 -107.5t9.5 -54q0 -21 -18.5 -30t-73.5 -9l-13 84q-20 91 -29.5 176t-19.5 127q-9 -2 -25 -5.5t-23 -6t-16 -6.5t-12.5 -10t-3.5 -15v-264q2 -14 2 -47q0 -37 -86 -37zM428 840q0 -78 6 -140q86 5 124 56.5t38 171.5 q0 118 -21 168q-86 22 -143 -11q0 -67 -2 -144t-2 -101z" />
<glyph unicode="&#xb0;" horiz-adv-x="643" d="M109 989q-19 246 22 385q38 30 119 44t158.5 11t115.5 -20q19 -106 15 -213.5t-27 -196.5q-45 -41 -119.5 -55t-151 -1.5t-132.5 46.5zM201 1030q55 -17 131 -11t108 38q45 146 0 293q-61 19 -131.5 13t-107.5 -42q-60 -139 0 -291z" />
<glyph unicode="&#xb1;" horiz-adv-x="731" d="M105 185q-5 46 7 59q1 2 3 2q80 -6 82 -6l399 8l25 -25q12 -2 2 -76q0 7 -240 7q-1 0 -129 -2t-129 -2q-15 -4 -20 35zM108 697l1 6v-1q0 -6 217 -6q-4 164 -4 238q-3 12 20.5 21t46 9.5t27.5 -6.5q-4 -94 -4 -96q0 -74 2 -166q152 4 192 4q10 2 16 -16q11 -33 1 -65 q-3 -10 -7 -11q-79 6 -81 6h-7q-6 0 -17 -0.5t-25 -1t-33 -0.5h-37l6 -264q-11 -5 -25 -5.5t-20.5 0.5t-27 7t-21.5 6q1 13 0.5 37t-1.5 94t-1 123l-191 -4l-24 25q-12 0 -3 66z" />
<glyph unicode="&#xb2;" horiz-adv-x="626" d="M105.5 1273q4.5 82 23.5 103q46 27 97.5 40.5t94 14.5t79 -4t58 -14t25.5 -18q25 -25 33 -49t8 -70q0 -30 -4 -116.5t-8 -96.5q-15 -39 -38 -66.5t-60 -50.5q-89 -55 -159 -130.5t-22 -100.5q95 -15 283 12q5 -4 4 -17.5t-4 -28.5l-4 -15q-305 0 -354 4q-38 25 -39.5 58 t35.5 77t94 91t149 112q26 42 36 160t-5 180q-18 26 -72 30t-103 -10t-58 -35q-17 -39 -17 -172q-9 -12 -33.5 -10.5t-35.5 10.5q-8 30 -3.5 112z" />
<glyph unicode="&#xb3;" horiz-adv-x="616" d="M108 1403q-7 30 3 35h356l22 -23q-8 -7 -19 -25.5t-19 -25.5q-14 -16 -89.5 -96t-95.5 -105q72 3 129 -20q64 -29 93 -82.5t24.5 -107.5t-19 -97t-32.5 -61q-40 -41 -134 -81t-177 -50q-22 0 -32.5 22t13.5 33l25 5t26.5 5t23 5t25 6.5t21.5 7t23.5 9.5t21.5 11 q4 2 24.5 14t27.5 16.5t24 17.5t24.5 24t17.5 28t14.5 37.5t4.5 44.5q0 44 -33 88.5t-84 61.5q-18 4 -40.5 6t-50.5 3.5t-42 2.5l-14 43q20 26 110.5 113.5t108.5 117.5q-27 0 -120 -1t-140 -1q-13 -11 -21 19z" />
<glyph unicode="&#xb4;" horiz-adv-x="473" d="M102 1159q12 38 34.5 79.5t38.5 65t48 65.5t39 52l39 17q42 -9 70 -37q-33 -50 -117 -147t-94 -109q-26 2 -58 14z" />
<glyph unicode="&#xb5;" horiz-adv-x="737" d="M102 1006q14 10 50.5 17.5t58.5 -1.5q22 -80 10 -301q0 -11 -2.5 -112t-3.5 -201t2 -263q37 -26 83.5 -32t90.5 5.5t79.5 28t64.5 37.5q1 14 2.5 38.5t2.5 45t1 39.5l-4 160q2 19 2 46.5t-1 64t-1 55.5v115q0 33 -8 120t-7 129q15 15 54 18.5t53 -9.5q8 -89 5 -360.5 t-1 -366.5q3 -13 1.5 -123t-1.5 -125q-16 -20 -42 -28.5t-52 3.5q-4 41 -4 84q-179 -134 -316 -76q0 -128 -4 -200q-24 -12 -55 -17.5t-47 2.5q-7 47 -7.5 93.5t4 121.5t5.5 101l-2 4q0 70 3 265.5t0.5 335t-14.5 286.5z" />
<glyph unicode="&#xb6;" horiz-adv-x="811" d="M104 1223.5q2 83.5 37 142.5q46 34 112 50.5t126.5 17.5t131.5 -8t113 -18.5t85 -21.5q-8 -20 -6.5 -164t5 -305t-2.5 -307q-9 -106 -9 -137q0 -352 13 -457q-3 -4 -11 -8.5t-38 -12t-70 4.5v104q0 83 6.5 202t3.5 169q-1 15 0.5 110t4 228.5t3.5 181.5q7 75 8 107.5 t-1 83.5t-1 117q-57 28 -192 34q2 -84 -6 -260q-3 -48 0 -96l2 -109q0 -9 -3 -66.5t-3 -88.5l4 -160q-2 -19 -2 -46.5t1 -64t1 -55.5v-115q0 -32 7.5 -125t6.5 -135q-15 -15 -53.5 -18t-52.5 10q-8 87 -5.5 365.5t0.5 371.5q-2 43 -2 134q-132 14 -147 45q-31 72 -49.5 144 t-16.5 155.5z" />
<glyph unicode="&#xb7;" horiz-adv-x="325" d="M109 600q-17 94 6 119l61 10q35 3 39 -6q20 -50 -10 -121q-21 -8 -45 -8.5t-38 2.5z" />
<glyph unicode="&#xb8;" horiz-adv-x="522" d="M102 -272q0 34 43 43q35 -9 129 -15q43 13 59 50t-14.5 66.5t-103.5 23.5l-39 28l35 88h59l-14 -71q41 4 73.5 -7t50.5 -31t29.5 -44.5t10 -48.5t-7.5 -43q-9 -24 -42.5 -48t-66.5 -30z" />
<glyph unicode="&#xb9;" horiz-adv-x="387" d="M102 1343q18 9 35 21t36.5 28.5t31.5 24.5l2 4q11 5 30.5 7t38.5 -3v-2l3 -26q0 -61 -7 -154q0 -18 1 -52t1 -50q0 -18 -2 -47t-2 -45l2 -86q-1 -10 -1 -24.5t0.5 -34.5t0.5 -30v-61q0 -19 6.5 -66.5t6.5 -68.5q-12 -8 -41.5 -9.5t-38.5 5.5q-5 69 -3.5 194t-0.5 197v164 q0 20 -1 55t-1 51q-53 -41 -97 8z" />
<glyph unicode="&#xba;" horiz-adv-x="610" d="M103 1086.5q0 14.5 0.5 28.5t0.5 22q-1 7 2 91t5 87q3 17 25 38.5t40 30.5q45 32 137 52q35 6 109 -19q28 -11 76 -71q4 -19 4 -80q4 -29 2.5 -126t-0.5 -124q0 -18 1.5 -70t1 -92t-4.5 -70q-4 -17 -16.5 -38.5t-14.5 -26.5q-6 -3 -29 -22t-41 -25q-50 -13 -111.5 -15 t-96.5 11q-18 7 -36 27t-25 30.5t-21 34.5q-2 41 -3 138t-4 157q-1 17 -1 31.5zM178.5 1191.5q-0.5 -11.5 3 -96.5t4.5 -122q1 -27 1 -61.5t1.5 -60.5t6.5 -56q8 -38 38 -54.5t64 -11.5q67 6 84 14q26 13 45 58q3 80 3.5 154.5t-0.5 183t-1 164.5q-13 35 -68.5 47 t-110.5 -8.5t-67 -67.5q-3 -71 -3.5 -82.5z" />
<glyph unicode="&#xbb;" horiz-adv-x="716" d="M106 328l119 284l-114 254q-11 28 -4 50.5t21 36.5l15 14q22 -33 96.5 -169.5t106.5 -183.5q-3 -6 -17 -40.5t-22 -53.5t-24 -54.5t-29 -60t-30 -54t-34.5 -52.5t-35.5 -39q-18 16 -30 33t-15 26zM375 328l119 284l-115 254q-11 28 -3.5 50.5t22.5 36.5l14 14 q22 -33 96 -169.5t106 -183.5q-3 -6 -17 -40.5t-22 -53.5t-24 -54.5t-29 -60t-30 -54t-34.5 -52.5t-35.5 -39q-18 16 -30 33t-14 26z" />
<glyph unicode="&#xbc;" horiz-adv-x="1157" d="M102 1343q18 9 35 21t36.5 28.5t31.5 24.5l2 4q11 5 30.5 7t38.5 -3v-2l3 -26q0 -61 -7 -154q0 -18 1 -52t1 -50q0 -18 -2 -47t-2 -45l2 -86q-1 -10 -1 -24.5t0.5 -34.5t0.5 -30v-61q0 -19 6.5 -66.5t6.5 -68.5q-12 -8 -41.5 -9.5t-38.5 5.5q-5 69 -3.5 194t-0.5 197v164 q0 20 -1 55t-1 51q-53 -41 -97 8zM223 -193q-2 38 6 74t22 77t19 62q8 33 29 98.5t29 98.5q8 26 49 213q8 35 26.5 103.5t26.5 103.5q6 22 14.5 60t10.5 46q5 19 16.5 54.5t13.5 42.5q5 17 13.5 50.5t13.5 49.5q3 10 15 44t18 54q21 69 45 211.5t43 208.5h14q52 19 94 0 q-1 -24 -5.5 -47t-14.5 -59.5t-12 -42.5q-20 -97 -35 -146q-14 -47 -37.5 -140.5t-38.5 -141.5q-35 -114 -80 -279q-13 -49 -34 -148.5t-33 -148.5q-5 -19 -17.5 -59t-17.5 -62q-12 -40 -31.5 -123.5t-37.5 -144t-42 -106.5q-42 -19 -82 -3zM643 295l12 51q19 60 128.5 265 t111.5 220q6 12 27 15.5t36 -2.5l17 -4q5 -53 -4 -203q0 -20 1 -57t1 -54q0 -20 -2 -52.5t-2 -49.5l2 -92q0 -3 -1 -8.5t-1 -8.5l69 4q10 -1 13.5 -15t1.5 -28l-2 -14q-17 0 -43 -1t-37 -1v-27v-65q0 -20 6 -74.5t6 -77.5q-12 -9 -42.5 -11t-41.5 5q-6 60 -6 250 q-109 0 -209 2zM731 328l10 -17q72 0 154 2q0 86 -2 129q-1 25 -1 55t0.5 67t0.5 57q0 10 -1 30t-1 29q-121 -236 -160 -352z" />
<glyph unicode="&#xbd;" horiz-adv-x="1183" d="M102 1343q18 9 35 21t36.5 28.5t31.5 24.5l2 4q11 5 30.5 7t38.5 -3v-2l3 -26q0 -61 -7 -154q0 -18 1 -52t1 -50q0 -18 -2 -47t-2 -45l2 -86q-1 -10 -1 -24.5t0.5 -34.5t0.5 -30v-61q0 -19 6.5 -66.5t6.5 -68.5q-12 -8 -41.5 -9.5t-38.5 5.5q-5 69 -3.5 194t-0.5 197v164 q0 20 -1 55t-1 51q-53 -41 -97 8zM223 -193q-2 38 6 74t22 77t19 62q8 33 29 98.5t29 98.5q8 26 49 213q8 35 26.5 103.5t26.5 103.5q6 22 14.5 60t10.5 46q5 19 16.5 54.5t13.5 42.5q5 17 13.5 50.5t13.5 49.5q3 10 15 44t18 54q21 69 45 211.5t43 208.5h14q52 19 94 0 q-1 -24 -5.5 -47t-14.5 -59.5t-12 -42.5q-20 -97 -35 -146q-14 -47 -37.5 -140.5t-38.5 -141.5q-35 -114 -80 -279q-13 -49 -34 -148.5t-33 -148.5q-5 -19 -17.5 -59t-17.5 -62q-12 -40 -31.5 -123.5t-37.5 -144t-42 -106.5q-42 -19 -82 -3zM662.5 608q4.5 82 23.5 103 q74 43 159 51.5t136.5 -4.5t58.5 -29q25 -25 33 -49t8 -70q0 -30 -4 -116.5t-8 -96.5q-29 -74 -98 -116q-88 -55 -158 -131t-22 -101q94 -15 282 12q5 -4 4 -17.5t-5 -28.5l-3 -15q-305 0 -354 4q-38 25 -39.5 58t35.5 77t94 91t149 112q26 42 36 160t-5 180 q-18 26 -72 30.5t-103 -9.5t-58 -35q-17 -39 -17 -172q-9 -12 -33.5 -10.5t-35.5 10.5q-8 30 -3.5 112z" />
<glyph unicode="&#xbe;" horiz-adv-x="1306" d="M108 1403q-7 30 3 35h356l22 -23q-8 -7 -19 -25.5t-19 -25.5q-14 -16 -89.5 -96t-95.5 -105q72 3 129 -20q64 -29 93 -82.5t24.5 -107.5t-19 -97t-32.5 -61q-40 -41 -134 -81t-177 -50q-22 0 -32.5 22t13.5 33l25 5t26.5 5t23 5t25 6.5t21.5 7t23.5 9.5t21.5 11 q4 2 24.5 14t27.5 16.5t24 17.5t24.5 24t17.5 28t14.5 37.5t4.5 44.5q0 44 -33 88.5t-84 61.5q-18 4 -40.5 6t-50.5 3.5t-42 2.5l-14 43q20 26 110.5 113.5t108.5 117.5q-27 0 -120 -1t-140 -1q-13 -11 -21 19zM373 -190q-2 38 6 74t22 77t19 62q8 33 28.5 98t28.5 98 q7 26 49 213q8 35 27 103.5t27 103.5q6 21 13.5 57.5t10.5 48.5q5 19 16.5 53t14.5 44q5 16 13.5 49.5t13.5 50.5q2 5 14 41t18 57q21 69 45 211.5t43 208.5h15q52 19 94 0q-1 -24 -6 -47.5t-15 -57.5t-12 -44q-20 -97 -35 -146q-14 -47 -37 -140.5t-38 -141.5 q-35 -114 -80 -279q-13 -49 -34.5 -148.5t-33.5 -148.5q-5 -19 -17.5 -59t-17.5 -62q-12 -41 -31 -123.5t-37 -143.5t-42 -107q-41 -18 -82 -2zM793 297l12 51q19 60 128 265.5t111 220.5q6 12 27.5 15t36.5 -3l16 -4q5 -53 -4 -203q0 -20 1 -57t1 -54q0 -20 -2 -52.5 t-2 -49.5l2 -92q0 -3 -1 -8.5t-1 -8.5l70 5q10 -1 13 -15.5t1 -28.5l-2 -14q-18 0 -43 -1t-37 -1v-26v-66q0 -20 6.5 -74.5t6.5 -77.5q-12 -9 -42.5 -11t-41.5 5q-7 70 -7 250q-108 0 -208 2zM881 330l10 -17q71 0 153 2q0 86 -2 129q-1 25 -1 55t0.5 67t0.5 57q0 10 -1 30 t-1 29q-118 -230 -159 -352z" />
<glyph unicode="&#xbf;" horiz-adv-x="739" d="M103 525q0 50 4.5 110.5t20.5 105t44 70.5q14 12 40.5 26t48.5 26.5t44 30t34.5 45t12.5 62.5l10 56q0 21 -1 61.5t-1 63.5q7 18 41 22t54 -6q1 -63 1.5 -96t-1.5 -74t-5.5 -59.5t-12.5 -45.5t-19.5 -39.5t-31 -33.5t-41.5 -36t-56 -38q-51 -35 -76 -71 q-10 -17 -10 -116.5t5 -220.5t5 -130q35 -88 116 -119.5t183 -3.5q22 39 31 116t7.5 142t-7.5 110q7 19 35.5 18.5t39.5 -26.5q28 -93 7 -416q-22 -29 -112.5 -41.5t-195 7.5t-151.5 73q-41 45 -49 78t-8 127q0 30 -3 101t-3 121zM356 1329q-19 49 11 121q21 8 45 8.5 t38 -2.5l13 -4q17 -94 -6 -119l-62 -10q-35 -3 -39 6z" />
<glyph unicode="&#xc0;" horiz-adv-x="753" d="M145 1763q28 28 70 37l39 -16q7 -10 39 -52t48 -65.5t38.5 -65t34.5 -79.5q-35 -13 -58 -15q-10 12 -94 109t-117 147zM150 14q46 557 88 875q10 72 22.5 205t23 219t21.5 104q26 10 77 15.5t83 -2.5q24 -103 45 -341t35 -319q2 -13 13.5 -72.5t16.5 -89.5q7 -69 28 -218 t35 -253.5t11 -107.5q-1 -17 -28 -23t-53 -3l-27 3q-1 5 -11.5 111t-27 229.5t-33.5 202.5q-22 4 -98 -1t-78 -5q-28 -251 -29 -264q-8 -91 -8 -244q0 -18 -18 -21.5t-47 0t-41 0.5zM313 643l140 10q0 77 -21.5 329.5t-23.5 322.5q-1 7 -9.5 7.5t-17.5 -3.5t-12 -11 q-9 -60 -24.5 -291.5t-31.5 -363.5z" />
<glyph unicode="&#xc1;" horiz-adv-x="706" d="M102 14q46 557 88 875q10 72 23 205.5t23.5 219t21.5 103.5q26 10 77 15.5t83 -2.5q24 -103 45 -341t35 -319q2 -13 13.5 -72.5t16.5 -89.5q7 -69 28 -218t35 -253.5t11 -107.5q-1 -17 -28 -23t-54 -3l-26 3q-1 5 -11.5 111t-27 229.5t-33.5 202.5q-22 4 -98 -1t-78 -5 q-28 -251 -29 -264q-8 -91 -8 -244q0 -18 -18 -21.5t-47.5 0t-41.5 0.5zM266 643l140 10q0 77 -22 329.5t-24 322.5q-1 7 -9 7.5t-17 -3.5t-12 -11q-9 -60 -24.5 -291.5t-31.5 -363.5zM281 1522q12 38 34.5 80t37.5 64t48 66l39 52l39 16q42 -9 70 -37q-33 -50 -117 -147 t-94 -109q-22 2 -57 15z" />
<glyph unicode="&#xc2;" horiz-adv-x="706" d="M102 14q46 557 88 875q10 72 23 205.5t23.5 219t21.5 103.5q26 10 77 15.5t83 -2.5q24 -103 45 -341t35 -319q2 -13 13.5 -72.5t16.5 -89.5q7 -69 28 -218t35 -253.5t11 -107.5q-1 -17 -28 -23t-54 -3l-26 3q-1 5 -11.5 111t-27 229.5t-33.5 202.5q-22 4 -98 -1t-78 -5 q-28 -251 -29 -264q-8 -91 -8 -244q0 -18 -18 -21.5t-47.5 0t-41.5 0.5zM133 1536q7 17 14 31.5t16 29t14 24t17 24.5t15.5 20t19.5 21.5t18.5 19.5t22 22.5t21.5 22.5l61 -10l133 -135q45 -40 50 -66q-7 -7 -14 -10t-17.5 -5.5t-18.5 -6.5q-16 11 -54.5 35.5t-65.5 44 t-50 40.5q-95 -81 -139 -133q-13 0 -23.5 15t-19.5 16zM266 643l140 10q0 77 -22 329.5t-24 322.5q-1 7 -9 7.5t-17 -3.5t-12 -11q-9 -60 -24.5 -291.5t-31.5 -363.5z" />
<glyph unicode="&#xc3;" horiz-adv-x="737" d="M83 1588l3 14l137 65q55 -5 127 -33.5t76 -29.5l123 49q46 -58 12 -82l-137 -64l-176 60l-144 -43q-15 12 -19.5 31.5t-1.5 32.5zM102 14q46 557 88 875q10 72 23 205.5t23.5 219t21.5 103.5q26 10 77 15.5t83 -2.5q24 -103 45 -341t35 -319q2 -13 13.5 -72.5t16.5 -89.5 q7 -69 28 -218t35 -253.5t11 -107.5q-1 -17 -28 -23t-54 -3l-26 3q-1 5 -11.5 111t-27 229.5t-33.5 202.5q-22 4 -98 -1t-78 -5q-28 -251 -29 -264q-8 -91 -8 -244q0 -18 -18 -21.5t-47.5 0t-41.5 0.5zM266 643l140 10q0 77 -22 329.5t-24 322.5q-1 7 -9 7.5t-17 -3.5 t-12 -11q-9 -60 -24.5 -291.5t-31.5 -363.5z" />
<glyph unicode="&#xc4;" horiz-adv-x="706" d="M102 14q46 557 88 875q10 72 23 205.5t23.5 219t21.5 103.5q26 10 77 15.5t83 -2.5q24 -103 45 -341t35 -319q2 -13 13.5 -72.5t16.5 -89.5q7 -69 28 -218t35 -253.5t11 -107.5q-1 -17 -28 -23t-54 -3l-26 3q-1 5 -11.5 111t-27 229.5t-33.5 202.5q-22 4 -98 -1t-78 -5 q-28 -251 -29 -264q-8 -91 -8 -244q0 -18 -18 -21.5t-47.5 0t-41.5 0.5zM176 1522q-17 93 6 118l62 11q36 3 39 -6q19 -49 -11 -121q-21 -8 -45 -8.5t-37 2.5zM266 643l140 10q0 77 -22 329.5t-24 322.5q-1 7 -9 7.5t-17 -3.5t-12 -11q-9 -60 -24.5 -291.5t-31.5 -363.5z M403 1522q-16 93 7 118l61 11q36 4 39 -6q20 -50 -10 -121q-21 -8 -45 -8.5t-38 2.5z" />
<glyph unicode="&#xc5;" horiz-adv-x="706" d="M102 14q46 557 88 875q10 72 23 205.5t23.5 219t21.5 103.5q26 10 77 15.5t83 -2.5q24 -103 45 -341t35 -319q2 -13 13.5 -72.5t16.5 -89.5q7 -69 28 -218t35 -253.5t11 -107.5q-1 -17 -28 -23t-54 -3l-26 3q-1 5 -11.5 111t-27 229.5t-33.5 202.5q-22 4 -98 -1t-78 -5 q-28 -251 -29 -264q-8 -91 -8 -244q0 -18 -18 -21.5t-47.5 0t-41.5 0.5zM223 1536q-11 131 13 211q30 25 108 29t107 -11q21 -113 -7 -225q-39 -33 -106.5 -33t-114.5 29zM266 643l140 10q0 77 -22 329.5t-24 322.5q-1 7 -9 7.5t-17 -3.5t-12 -11q-9 -60 -24.5 -291.5 t-31.5 -363.5zM293 1579q21 -7 52 -4t44 14q17 57 0 119q-68 16 -96 -12q-23 -55 0 -117z" />
<glyph unicode="&#xc6;" horiz-adv-x="1181" d="M102 14q46 557 88 875q10 72 23 205.5t23.5 219t21.5 103.5q26 10 77 15.5t83 -2.5q24 -103 45 -341t35 -319q2 -13 13.5 -72.5t16.5 -89.5q3 -29 8 -71t13 -98t12 -91q-1 22 3 95.5t3 88.5q-4 49 -5.5 91.5t-1.5 67t0.5 80.5t0.5 93q0 49 4 154.5t4 161.5q0 15 -1 48 t-1 50t4 43t13 47q36 21 84 34t85.5 18.5t104 6t96 -0.5t105.5 -5q9 -1 11 -7t-1 -15t-8 -18.5t-9.5 -18.5t-4.5 -12q-50 2 -114 -4.5t-142 -18.5t-109 -16q-1 -45 -15 -191.5t-12 -242.5q1 -13 0.5 -44t1.5 -51t7 -34q8 -25 43 -34t78 -5.5t89 4.5t76 -4q12 -22 4.5 -43.5 t-28.5 -34.5q-16 -1 -94 -1t-115 -12q-17 -6 -21 -13t-14 -11q-11 -25 -13.5 -76t0 -124t1.5 -97q-5 -94 14 -166q27 -18 63 -25t62 -6t71 5.5t62 5.5q20 1 65 10t68 6q7 -17 0 -88q-140 -24 -151 -25q-13 -1 -40 -5t-40.5 -5.5t-39.5 -3t-38 1.5q-29 1 -90 11t-74 12 q-4 -15 -31 -19.5t-52 -1.5l-25 2q-1 5 -11.5 111t-27 229.5t-33.5 202.5q-22 4 -98 -1t-78 -5q-28 -251 -29 -264q-8 -91 -8 -244q0 -18 -18 -21.5t-47.5 0t-41.5 0.5zM266 643l140 10q0 77 -22 329.5t-24 322.5q-1 7 -9 7.5t-17 -3.5t-12 -11q-9 -60 -24.5 -291.5 t-31.5 -363.5z" />
<glyph unicode="&#xc7;" horiz-adv-x="718" d="M104 258q4 94 4 199t-2 231t-2 191q0 128 9.5 220t31.5 224q40 47 134 80.5t193 32.5t142 -47q-1 -45 0.5 -117.5t1 -109.5t-7.5 -95.5t-22 -118.5q-50 0 -64 23q-4 25 -5 51.5t0.5 44.5t4.5 47t4 45q2 30 2 52t-0.5 35.5t-5 28.5t-6.5 20.5t-11 23.5t-13 27 q-60 7 -135.5 -16t-116.5 -56q-13 -49 -21 -112.5t-11 -114t-7 -140t-8 -145.5q-1 -96 3.5 -223.5t4.5 -200.5q1 -11 1.5 -57t5 -76.5t15.5 -44.5q48 -60 266 -23l23 53q6 17 9 77t7.5 110t16.5 53l49 19q5 2 9 -0.5t6 -9.5t3.5 -14.5t1.5 -19v-19v-19.5v-17 q0 -198 -12 -235q-6 -18 -34 -41t-48 -29q-18 -5 -50 -15t-50 -15t-43.5 -9.5t-46.5 -5.5l-13 -59q41 4 73.5 -7t50.5 -31t29.5 -44.5t10 -48.5t-7.5 -43q-9 -24 -42 -48t-66 -30l-201 39q0 34 43 43q35 -9 129 -15q45 13 59 54q14 43 -23 69q-34 22 -96 17l-38 28l30 82 q-4 0 -16 4q-33 7 -92 43q-2 5 -17 40.5t-21 53.5t-12.5 50.5t-5.5 60.5z" />
<glyph unicode="&#xc8;" horiz-adv-x="804" d="M178 1763q28 28 70 37l39 -16l39 -52t48 -66t37.5 -64t34.5 -80q-35 -13 -57 -15q-10 12 -94 109t-117 147zM183 690.5q0 24.5 0.5 80.5t0.5 93q0 49 4.5 154.5t4.5 161.5q0 16 -1 48t-1 50t3.5 43.5t12.5 46.5q36 21 84 34t85.5 18.5t104 6t96 -0.5t105.5 -5q9 -1 11 -7 t-1 -15t-8 -18.5t-9.5 -18.5t-4.5 -12q-50 2 -114 -4.5t-142 -18.5t-109 -16q-1 -44 -14.5 -191t-11.5 -243q1 -25 0 -46.5t1 -45t7 -37.5q8 -25 43 -34t78 -5.5t89 4.5t76 -4q12 -22 4.5 -43.5t-28.5 -34.5q-16 -1 -94 -1t-115 -12q-17 -6 -21 -13t-14 -11 q-11 -25 -13.5 -76t0 -124t1.5 -97q-5 -94 14 -166q27 -18 63 -25t62 -6t71 5.5t62 5.5q20 1 65 10t68 6q7 -17 0 -88q-140 -24 -151 -25q-13 -1 -40 -5t-40.5 -5.5t-39.5 -3t-38 1.5q-30 2 -97.5 13.5t-90.5 13.5q-7 51 -9.5 159.5t-5.5 151.5q-3 19 1 99.5t3 92.5 q-4 49 -5.5 91.5t-1.5 67z" />
<glyph unicode="&#xc9;" horiz-adv-x="724" d="M104 720v67v77q0 49 4.5 154.5t4.5 161.5q0 16 -1 48t-1 50t3.5 43.5t12.5 46.5q36 21 84 34t85.5 18.5t104 6t96 -0.5t105.5 -5q9 -1 11 -7t-1 -15t-8 -18.5t-9.5 -18.5t-4.5 -12q-50 2 -114 -4.5t-142 -18.5t-109 -16q-1 -44 -14.5 -191t-11.5 -243q1 -25 0 -46.5 t1 -45t7 -37.5q8 -25 43 -34t78.5 -5.5t89.5 4.5t76 -4q12 -22 4 -43.5t-29 -34.5q-16 -1 -94 -1t-115 -12q-17 -6 -21 -13t-14 -11q-11 -25 -13.5 -76t0 -124t1.5 -97q-5 -94 14 -166q27 -18 63 -25t62 -6t71 5.5t62 5.5q20 1 65 10t68 6q7 -17 0 -88q-140 -24 -151 -25 q-13 -1 -40 -5t-40.5 -5.5t-39.5 -3t-38 1.5q-30 2 -97.5 13.5t-90.5 13.5q-7 51 -9.5 159.5t-5.5 151.5q-3 19 1.5 99.5t3.5 92.5q-3 40 -4.5 71t-2 63.5t-0.5 53.5zM299 1520q12 38 34.5 79.5t38.5 65t48 65.5t39 52l39 16q40 -8 69 -37q-33 -50 -117 -147t-94 -109 q-22 2 -57 15z" />
<glyph unicode="&#xca;" horiz-adv-x="724" d="M104 720v67v77q0 49 4.5 154.5t4.5 161.5q0 16 -1 48t-1 50t3.5 43.5t12.5 46.5q36 21 84 34t85.5 18.5t104 6t96 -0.5t105.5 -5q9 -1 11 -7t-1 -15t-8 -18.5t-9.5 -18.5t-4.5 -12q-50 2 -114 -4.5t-142 -18.5t-109 -16q-1 -44 -14.5 -191t-11.5 -243q1 -25 0 -46.5 t1 -45t7 -37.5q8 -25 43 -34t78.5 -5.5t89.5 4.5t76 -4q12 -22 4 -43.5t-29 -34.5q-16 -1 -94 -1t-115 -12q-17 -6 -21 -13t-14 -11q-11 -25 -13.5 -76t0 -124t1.5 -97q-5 -94 14 -166q27 -18 63 -25t62 -6t71 5.5t62 5.5q20 1 65 10t68 6q7 -17 0 -88q-140 -24 -151 -25 q-13 -1 -40 -5t-40.5 -5.5t-39.5 -3t-38 1.5q-30 2 -97.5 13.5t-90.5 13.5q-7 51 -9.5 159.5t-5.5 151.5q-3 19 1.5 99.5t3.5 92.5q-3 40 -4.5 71t-2 63.5t-0.5 53.5zM160 1536q20 48 47.5 88.5t43.5 58t66 68.5l62 -10l133 -135q43 -38 49 -66q-7 -7 -13.5 -10t-17 -5.5 t-18.5 -6.5q-16 11 -54.5 35.5t-65.5 44t-50 40.5q-95 -81 -139 -133q-13 0 -23.5 15t-19.5 16z" />
<glyph unicode="&#xcb;" horiz-adv-x="724" d="M104 720v67v77q0 49 4.5 154.5t4.5 161.5q0 16 -1 48t-1 50t3.5 43.5t12.5 46.5q36 21 84 34t85.5 18.5t104 6t96 -0.5t105.5 -5q9 -1 11 -7t-1 -15t-8 -18.5t-9.5 -18.5t-4.5 -12q-50 2 -114 -4.5t-142 -18.5t-109 -16q-1 -44 -14.5 -191t-11.5 -243q1 -25 0 -46.5 t1 -45t7 -37.5q8 -25 43 -34t78.5 -5.5t89.5 4.5t76 -4q12 -22 4 -43.5t-29 -34.5q-16 -1 -94 -1t-115 -12q-17 -6 -21 -13t-14 -11q-11 -25 -13.5 -76t0 -124t1.5 -97q-5 -94 14 -166q27 -18 63 -25t62 -6t71 5.5t62 5.5q20 1 65 10t68 6q7 -17 0 -88q-140 -24 -151 -25 q-13 -1 -40 -5t-40.5 -5.5t-39.5 -3t-38 1.5q-30 2 -97.5 13.5t-90.5 13.5q-7 51 -9.5 159.5t-5.5 151.5q-3 19 1.5 99.5t3.5 92.5q-3 40 -4.5 71t-2 63.5t-0.5 53.5zM182 1511q-17 94 6 119l62 10q36 3 39 -6q20 -50 -10 -121q-21 -8 -45 -8.5t-38 3.5zM410 1511 q-17 94 6 119l61 10q36 4 39 -6q20 -50 -10 -121q-21 -8 -45 -8.5t-37 3.5z" />
<glyph unicode="&#xcc;" horiz-adv-x="321" d="M-76 1761q28 28 70 37l39 -16q7 -10 39 -52t48 -65.5t38.5 -65t34.5 -79.5q-35 -13 -58 -15q-10 12 -94 109t-117 147zM103.5 1305q1.5 53 9.5 106q15 10 42.5 13.5t51.5 -5.5q7 -127 -4 -342q-1 -36 0.5 -102t1.5 -86q0 -32 -3 -87.5t-3 -84.5l4 -160q-2 -19 -2 -46.5 t1 -64t1 -55.5v-115q0 -32 7.5 -119.5t6.5 -129.5q-15 -15 -53.5 -18.5t-52.5 9.5q-8 88 -5.5 360.5t0.5 366.5q-2 44 -2 95t1 114t1 97q0 37 -2 119t-0.5 135z" />
<glyph unicode="&#xcd;" horiz-adv-x="321" d="M103.5 1305q1.5 53 9.5 106q15 10 42.5 13.5t51.5 -5.5q7 -127 -4 -342q-1 -36 0.5 -102t1.5 -86q0 -32 -3 -87.5t-3 -84.5l4 -160q-2 -19 -2 -46.5t1 -64t1 -55.5v-115q0 -32 7.5 -119.5t6.5 -129.5q-15 -15 -53.5 -18.5t-52.5 9.5q-8 88 -5.5 360.5t0.5 366.5 q-2 44 -2 95t1 114t1 97q0 37 -2 119t-0.5 135zM111 1520q12 38 34.5 80t37.5 64t48 66l39 52l39 16q42 -9 70 -37q-33 -50 -117 -147t-94 -109q-22 2 -57 15z" />
<glyph unicode="&#xce;" horiz-adv-x="321" d="M-39 1534q7 17 14 31.5t16 29t14 24t17 24.5t15.5 20t19.5 21.5t18.5 19.5t22 22.5t21.5 22.5l61 -10l133 -135q43 -38 49 -66q-7 -7 -13.5 -10t-17 -5.5t-18.5 -6.5q-16 11 -54.5 35.5t-65.5 44t-50 40.5q-95 -81 -139 -133q-13 0 -23.5 15t-19.5 16zM103.5 1305 q1.5 53 9.5 106q15 10 42.5 13.5t51.5 -5.5q7 -127 -4 -342q-1 -36 0.5 -102t1.5 -86q0 -32 -3 -87.5t-3 -84.5l4 -160q-2 -19 -2 -46.5t1 -64t1 -55.5v-115q0 -32 7.5 -119.5t6.5 -129.5q-15 -15 -53.5 -18.5t-52.5 9.5q-8 88 -5.5 360.5t0.5 366.5q-2 44 -2 95t1 114t1 97 q0 37 -2 119t-0.5 135z" />
<glyph unicode="&#xcf;" horiz-adv-x="321" d="M0 1520q-17 93 6 118l61 10q36 4 39 -6q19 -50 -10 -120q-21 -8 -45 -8.5t-37 2.5zM103.5 1305q1.5 53 9.5 106q15 10 42.5 13.5t51.5 -5.5q7 -127 -4 -342q-1 -36 0.5 -102t1.5 -86q0 -32 -3 -87.5t-3 -84.5l4 -160q-2 -19 -2 -46.5t1 -64t1 -55.5v-115 q0 -32 7.5 -119.5t6.5 -129.5q-15 -15 -53.5 -18.5t-52.5 9.5q-8 88 -5.5 360.5t0.5 366.5q-2 44 -2 95t1 114t1 97q0 37 -2 119t-0.5 135zM227 1520q-17 93 6 118l62 10q35 3 39 -6q19 -50 -10 -120q-21 -8 -45 -8.5t-38 2.5z" />
<glyph unicode="&#xd0;" horiz-adv-x="823" d="M106 717q0 -3 91 -6q0 48 0.5 96.5t1 78.5t0.5 34l-4 444l38 66q107 1 187.5 -12.5t125.5 -32.5t77 -49.5t44.5 -53t25.5 -52.5q3 -9 5 -13q8 -45 11.5 -73t5 -58.5t1.5 -48.5t-0.5 -67.5t-0.5 -90.5q8 -161 3.5 -256t-1.5 -160l2 -152q-1 -6 -4 -19q-7 -34 -11.5 -53 t-17 -55.5t-26.5 -59t-39 -50.5t-56 -42.5t-76 -24t-100 -5.5q-10 0 -63 1.5t-87.5 3t-35.5 5.5q-10 30 -6 600l-64 -2l-24 25q-12 1 -3 82zM287 1128q3 -18 1.5 -50t0.5 -50l6 -192v-125h16q1 0 94.5 2t94.5 2q16 4 20 -39q4 -49 -7 -62q-2 -2 -3 -2q-80 6 -82 6 q-1 0 -18.5 -0.5t-50.5 -1.5t-62 -2q4 -430 4 -510q62 -4 109.5 2t81 18t57 39.5t37 55.5t22 77t12 92t5.5 112q0 42 0.5 72.5t0.5 36.5t-0.5 26.5t-1 41.5t-3.5 81q9 209 -11 387q-1 53 -37 90t-87.5 52.5t-99 20.5t-83.5 1q-8 -33 -11 -58.5t-3.5 -64.5t-1.5 -58z" />
<glyph unicode="&#xd1;" horiz-adv-x="757" d="M121.5 1280q1.5 110 1.5 125q16 20 42 28.5t52 -3.5q4 -86 4 -87q199 153 350 60l72 -86q0 -45 -3.5 -362t-1 -554t14.5 -383q-14 -10 -50 -17.5t-58 1.5q-22 80 -10 301l10 703l-6 284q-37 25 -83.5 31t-91 -6t-80 -28t-65.5 -36q-4 -86 -4 -123l4 -571q-2 -19 -2 -46.5 t1 -64t1 -55.5v-115q0 -32 7.5 -119.5t6.5 -129.5q-15 -15 -53.5 -18.5t-52.5 9.5q-8 84 -5 566.5t1 572.5q-3 13 -1.5 123zM140 1586l3 13l138 66q55 -5 126.5 -33.5t75.5 -29.5l123 49q46 -58 12 -82l-137 -64l-176 60l-143 -43q-15 12 -19.5 31t-2.5 33z" />
<glyph unicode="&#xd2;" horiz-adv-x="788" d="M172 524q-3 82 1.5 262t-1.5 256q0 12 5.5 126t6.5 118q4 22 30.5 48.5t49.5 39.5q56 41 176 70q40 7 140 -25q14 -6 30.5 -20t24.5 -23t25 -31.5t18 -23.5q7 -92 1.5 -249t2.5 -265q5 -44 0 -168.5t-4 -165.5q0 -24 -1 -77t-1 -81q0 -17 4.5 -71.5t1.5 -81.5 q-3 -21 -19.5 -50t-19.5 -38q-10 -4 -38 -29.5t-50 -32.5q-63 -19 -145 -21.5t-125 15.5q-12 6 -23.5 15.5t-20 18t-19 23.5t-15.5 22t-15 24t-12 20q-1 44 -2 178t-6 217zM188 1761q28 28 70 37l39 -16q7 -10 39 -52t48 -65.5t38.5 -65t34.5 -79.5q-35 -13 -58 -15 q-10 12 -94 109t-117 147zM264 1148q0 -6 1.5 -26.5t2.5 -34.5q8 -141 -2 -317q-3 -70 6 -189t9 -165q0 -27 -1 -66t-1 -60t2 -51.5t8 -62.5q11 -53 48.5 -74t82.5 -14q73 6 109 29.5t63 89.5q-22 505 8 1055q-12 35 -60.5 53t-103.5 16t-103.5 -29.5t-60.5 -74.5 q-4 -21 -5.5 -33.5t-2 -26t-0.5 -19.5z" />
<glyph unicode="&#xd3;" horiz-adv-x="720" d="M104 524q-3 82 1.5 262t-1.5 256q0 12 6 126t7 118q4 22 30.5 48.5t49.5 39.5q56 41 176 70q39 7 139 -25q14 -6 30.5 -20t24.5 -23t25 -31.5t18 -23.5q7 -92 1.5 -249t2.5 -265q5 -44 0 -168.5t-4 -165.5q0 -24 -1 -77t-1 -81q0 -17 4.5 -71.5t1.5 -81.5 q-3 -21 -19.5 -50t-19.5 -38q-10 -4 -38 -29.5t-50 -32.5q-63 -19 -145 -21.5t-125 15.5q-14 7 -26.5 17t-25.5 27t-19 25.5t-19 30t-14 23.5q-1 40 -2.5 176t-6.5 219zM197 1148q0 -6 1.5 -26.5t2.5 -34.5q8 -141 -2 -317q-3 -71 5.5 -189.5t8.5 -164.5q0 -27 -1 -66 t-1 -60t2 -51.5t8 -62.5q11 -53 48.5 -74t82.5 -14q73 6 109 29.5t63 89.5q-22 505 8 1055q-12 35 -60.5 53t-103 16t-103 -29.5t-60.5 -74.5q-4 -21 -5.5 -33.5t-2 -26t-0.5 -19.5zM317 1520q12 38 34.5 79.5t38.5 65t48 65.5t39 52l39 16q42 -9 70 -37q-33 -50 -117 -147 t-94 -109q-23 2 -58 15z" />
<glyph unicode="&#xd4;" horiz-adv-x="720" d="M104 524q-3 82 1.5 262t-1.5 256q0 12 6 126t7 118q4 22 30.5 48.5t49.5 39.5q56 41 176 70q39 7 139 -25q14 -6 30.5 -20t24.5 -23t25 -31.5t18 -23.5q7 -92 1.5 -249t2.5 -265q5 -44 0 -168.5t-4 -165.5q0 -24 -1 -77t-1 -81q0 -17 4.5 -71.5t1.5 -81.5 q-3 -21 -19.5 -50t-19.5 -38q-10 -4 -38 -29.5t-50 -32.5q-63 -19 -145 -21.5t-125 15.5q-14 7 -26.5 17t-25.5 27t-19 25.5t-19 30t-14 23.5q-1 40 -2.5 176t-6.5 219zM180 1536q7 17 14 31.5t16 29t14 24t17 24.5t15.5 20t19.5 21.5t18.5 19.5t22 22.5t21.5 22.5l61 -10 l133 -135q45 -40 50 -66q-7 -7 -14 -10t-17.5 -5.5t-18.5 -6.5q-16 11 -54.5 35.5t-65.5 44t-50 40.5q-95 -81 -139 -133q-13 0 -23.5 15t-19.5 16zM197 1148q0 -6 1.5 -26.5t2.5 -34.5q8 -141 -2 -317q-3 -71 5.5 -189.5t8.5 -164.5q0 -27 -1 -66t-1 -60t2 -51.5t8 -62.5 q11 -53 48.5 -74t82.5 -14q73 6 109 29.5t63 89.5q-22 505 8 1055q-12 35 -60.5 53t-103 16t-103 -29.5t-60.5 -74.5q-4 -21 -5.5 -33.5t-2 -26t-0.5 -19.5z" />
<glyph unicode="&#xd5;" d="M113 524q-3 82 1.5 262t-1.5 256q0 12 5.5 126t6.5 118q4 22 30.5 48.5t49.5 39.5q56 41 176 70q39 7 139 -25q14 -6 30.5 -20t24.5 -23t25 -31.5t18 -23.5q7 -92 2 -249t3 -265q4 -63 -1 -177.5t-4 -156.5q0 -24 -1 -77t-1 -81q0 -18 5 -72t2 -81q-3 -21 -19.5 -50 t-19.5 -38q-10 -4 -38 -29.5t-50 -32.5q-63 -19 -145.5 -21.5t-125.5 15.5q-14 7 -26.5 17t-25.5 27t-19 25.5t-19 30t-14 23.5q-1 44 -2 178t-6 217zM116 1586l3 13l137 66q55 -5 127 -33.5t76 -29.5l123 49q46 -58 12 -82l-137 -64l-176 60l-144 -43q-15 12 -19.5 31 t-1.5 33zM205 1148q0 -6 1.5 -26.5t2.5 -34.5q8 -141 -2 -317q-3 -71 5.5 -189.5t8.5 -164.5q0 -27 -1 -66t-1 -60t2 -51.5t8 -62.5q11 -53 48.5 -74t82.5 -14q73 6 109 29.5t63 89.5q-22 495 9 1055q-12 35 -60.5 53t-103.5 16t-103.5 -29.5t-60.5 -74.5q-4 -21 -5.5 -33.5 t-2 -26t-0.5 -19.5z" />
<glyph unicode="&#xd6;" horiz-adv-x="720" d="M104 524q-3 82 1.5 262t-1.5 256q0 12 6 126t7 118q4 22 30.5 48.5t49.5 39.5q56 41 176 70q39 7 139 -25q14 -6 30.5 -20t24.5 -23t25 -31.5t18 -23.5q7 -92 1.5 -249t2.5 -265q5 -44 0 -168.5t-4 -165.5q0 -24 -1 -77t-1 -81q0 -17 4.5 -71.5t1.5 -81.5 q-3 -21 -19.5 -50t-19.5 -38q-10 -4 -38 -29.5t-50 -32.5q-63 -19 -145 -21.5t-125 15.5q-14 7 -26.5 17t-25.5 27t-19 25.5t-19 30t-14 23.5q-1 40 -2.5 176t-6.5 219zM197 1148q0 -6 1.5 -26.5t2.5 -34.5q8 -141 -2 -317q-3 -71 5.5 -189.5t8.5 -164.5q0 -27 -1 -66 t-1 -60t2 -51.5t8 -62.5q11 -53 48.5 -74t82.5 -14q73 6 109 29.5t63 89.5q-22 505 8 1055q-12 35 -60.5 53t-103 16t-103 -29.5t-60.5 -74.5q-4 -21 -5.5 -33.5t-2 -26t-0.5 -19.5zM205 1509q-17 94 6 119l61 10q36 4 39 -6q20 -50 -10 -121q-21 -8 -45 -8.5t-38 3.5z M432 1509q-17 94 6 119l62 10q36 3 39 -6q19 -49 -11 -121q-21 -8 -45 -8.5t-37 3.5z" />
<glyph unicode="&#xd7;" horiz-adv-x="718" d="M104 395l22 33q23 32 71.5 97.5t99.5 129.5q-186 212 -186 215q-11 16 -1 40.5t31.5 46t30.5 14.5q66 -90 68 -92q0 -3 118 -142q27 35 71 93.5t71 94.5t28 36q9 22 45 -13q32 -32 32 -52q0 -3 -1 -5q-72 -84 -74 -88l-104 -146l184 -213l4 -45q5 -5 -8.5 -24t-29.5 -35 l-15 -16q1 1 -22 32.5t-69.5 91t-100.5 125.5l-168 -231l-39 -4q-9 -13 -53 50z" />
<glyph unicode="&#xd8;" horiz-adv-x="722" d="M106 524q-3 82 1.5 262t-1.5 256q0 12 6 126t7 118q4 22 30.5 48.5t49.5 39.5q56 41 176 70q39 7 139 -25q14 -6 30.5 -20t24.5 -23t25 -31.5t18 -23.5q7 -92 1.5 -249t2.5 -265q5 -44 0 -168.5t-4 -165.5q0 -24 -1 -77t-1 -81q0 -17 4.5 -71.5t1.5 -81.5q-3 -22 -19 -51 t-19 -37q-10 -4 -38.5 -29.5t-50.5 -32.5q-63 -19 -145 -21.5t-125 15.5q-14 7 -26.5 17t-25.5 27t-19 25.5t-19 30t-14 23.5q-1 40 -2.5 176t-6.5 219zM199 1148q0 -6 1.5 -26.5t2.5 -34.5q8 -141 -2 -317q-3 -71 5.5 -189.5t8.5 -164.5v-21q4 18 8 29q9 30 23.5 89 t17.5 69q7 29 23 81.5t22 73.5q4 12 10.5 38.5t10.5 39.5q3 15 12.5 40t11.5 32l23 76l29 71q16 50 34.5 147t28.5 136q-33 12 -74.5 13t-80 -9t-68.5 -34.5t-39 -59.5q-4 -21 -5.5 -33.5t-2 -26t-0.5 -19.5zM225 166q13 -47 49.5 -66t79.5 -12q73 6 109 29.5t63 89.5 q-23 484 4 981l-18 -60q-9 -28 -29 -99.5t-34 -110.5l-66 -207q-10 -37 -28.5 -111t-28.5 -111q-4 -15 -14.5 -44t-14.5 -46q-10 -30 -33 -112t-39 -121z" />
<glyph unicode="&#xd9;" horiz-adv-x="790" d="M163.5 1346.5q-2.5 26.5 0.5 42.5t14 30q45 10 98 -22q-10 -73 -4.5 -398.5t4.5 -420.5q0 -26 -2.5 -84.5t-3.5 -97.5t1 -89t8 -84q16 -46 36.5 -69t70.5 -36.5t144 -15.5l41 37q13 280 13 627q0 428 -15 645q21 19 46.5 11.5t47 -26t25.5 -32.5q-5 -72 -3.5 -215 t-2.5 -221q-1 -16 -4 -58.5t-2.5 -70t6.5 -49.5q-7 -72 -0.5 -255.5t0.5 -267.5q-8 -36 -8 -53q-1 -10 0.5 -42t-2.5 -38q-6 -16 -44.5 -44.5t-58.5 -35.5q-76 -22 -168 -10q-82 8 -106 19q-7 2 -13 6t-13.5 11.5l-11.5 11.5t-13 14.5t-11 13.5q-6 9 -17 22t-17.5 22.5 t-10.5 18.5q-19 55 -16 103q3 45 1.5 131t0.5 137q2 98 -2 285t-4 254q0 47 -1 133.5t-1 126.5q0 7 -2.5 33.5zM211 1763q28 28 70 37l38 -16q7 -10 39 -52t48 -65.5t38.5 -65t34.5 -79.5q-35 -13 -57 -15q-10 12 -94 109t-117 147z" />
<glyph unicode="&#xda;" horiz-adv-x="731" d="M103 1369q0 11 3.5 25t12.5 25q45 10 98 -22q-10 -73 -4.5 -398.5t4.5 -420.5q0 -19 -4 -107t-3 -146t9 -102q16 -46 37 -69t71 -36.5t144 -15.5l41 37q12 258 12 627q0 442 -14 645q21 19 46.5 11.5t47 -26t25.5 -32.5q-5 -72 -3.5 -215t-2.5 -221q-1 -16 -4 -58.5 t-2.5 -70t6.5 -49.5q-7 -72 -0.5 -255.5t0.5 -267.5q-9 -40 -9 -53q-1 -10 0.5 -42t-2.5 -38q-6 -16 -44 -44.5t-58 -35.5q-76 -22 -168 -10q-82 8 -106 19q-7 2 -13 6t-13.5 11.5l-11.5 11.5t-13 14.5t-11 13.5q-6 9 -17 22t-17.5 22.5t-10.5 18.5q-19 55 -16 103 q3 45 1.5 131t0.5 137q2 98 -2 285t-4 254q0 47 -1.5 133.5t-1.5 126.5q0 9 -1.5 27t-1.5 29zM313 1520q12 38 34.5 79.5t38.5 65t48 65.5t39 52l39 16q42 -9 70 -37q-33 -50 -117 -147t-94 -109q-23 2 -58 15z" />
<glyph unicode="&#xdb;" horiz-adv-x="731" d="M103 1369q0 11 3.5 25t12.5 25q45 10 98 -22q-10 -73 -4.5 -398.5t4.5 -420.5q0 -19 -4 -107t-3 -146t9 -102q16 -46 37 -69t71 -36.5t144 -15.5l41 37q12 258 12 627q0 442 -14 645q21 19 46.5 11.5t47 -26t25.5 -32.5q-5 -72 -3.5 -215t-2.5 -221q-1 -16 -4 -58.5 t-2.5 -70t6.5 -49.5q-7 -72 -0.5 -255.5t0.5 -267.5q-9 -40 -9 -53q-1 -10 0.5 -42t-2.5 -38q-6 -16 -44 -44.5t-58 -35.5q-76 -22 -168 -10q-82 8 -106 19q-7 2 -13 6t-13.5 11.5l-11.5 11.5t-13 14.5t-11 13.5q-6 9 -17 22t-17.5 22.5t-10.5 18.5q-19 55 -16 103 q3 45 1.5 131t0.5 137q2 98 -2 285t-4 254q0 47 -1.5 133.5t-1.5 126.5q0 9 -1.5 27t-1.5 29zM158 1536q20 48 47.5 88.5t43.5 58t66 68.5l62 -10l133 -135q43 -38 49 -66q-7 -7 -13.5 -10t-17 -5.5t-18.5 -6.5q-16 11 -54.5 35.5t-65.5 44t-50 40.5q-95 -81 -139 -133 q-13 0 -23.5 15t-19.5 16z" />
<glyph unicode="&#xdc;" horiz-adv-x="731" d="M103 1369q0 11 3.5 25t12.5 25q45 10 98 -22q-10 -73 -4.5 -398.5t4.5 -420.5q0 -19 -4 -107t-3 -146t9 -102q16 -46 37 -69t71 -36.5t144 -15.5l41 37q12 258 12 627q0 442 -14 645q21 19 46.5 11.5t47 -26t25.5 -32.5q-5 -72 -3.5 -215t-2.5 -221q-1 -16 -4 -58.5 t-2.5 -70t6.5 -49.5q-7 -72 -0.5 -255.5t0.5 -267.5q-9 -40 -9 -53q-1 -10 0.5 -42t-2.5 -38q-6 -16 -44 -44.5t-58 -35.5q-76 -22 -168 -10q-82 8 -106 19q-7 2 -13 6t-13.5 11.5l-11.5 11.5t-13 14.5t-11 13.5q-6 9 -17 22t-17.5 22.5t-10.5 18.5q-19 55 -16 103 q3 45 1.5 131t0.5 137q2 98 -2 285t-4 254q0 47 -1.5 133.5t-1.5 126.5q0 9 -1.5 27t-1.5 29zM199 1524q-17 93 6 118l61 11q36 4 39 -6q20 -50 -10 -121q-21 -8 -45 -8.5t-38 2.5zM426 1524q-17 93 6 118l61 11q36 4 39 -6q20 -50 -10 -121q-21 -8 -45 -8.5t-37 2.5z" />
<glyph unicode="&#xdd;" horiz-adv-x="714" d="M102 1389q0 9 17 17.5t34 12.5l17 4q43 0 57 -137l123 -526l23 16q42 136 73.5 309.5t50 257.5t44.5 84q25 0 65 -16q6 -6 6 -25q0 -30 -12 -57q-39 -101 -88 -344t-88 -344l-18 -33q-3 -27 -3 -59q0 -63 4.5 -196.5t4.5 -188.5q0 -25 4.5 -60t3.5 -53.5t-12 -30.5 q-59 -22 -82 -12q-12 6 -16.5 43t-4.5 142q0 38 2 114t2 101v104q0 80 -12 117q-25 68 -56 184t-67.5 266t-48.5 197q-23 83 -23 113zM311 1520q12 38 34.5 79.5t38.5 65t48 65.5t39 52l39 16q42 -9 70 -37q-33 -50 -117 -147t-94 -109q-23 2 -58 15z" />
<glyph unicode="&#xde;" d="M103.5 1305q1.5 53 9.5 106q15 10 42.5 13.5t51.5 -5.5q7 -141 0 -319q77 19 144.5 21.5t112.5 -10t72.5 -25.5t43.5 -27q34 -89 43 -233.5t-10 -277t-60 -188.5q-164 -69 -350 -32v-17q0 -32 7.5 -142.5t6.5 -152.5q-15 -15 -53.5 -18t-52.5 10q-8 87 -5.5 365.5 t0.5 371.5q-2 44 -2 95t1 114t1 97q0 37 -2 119t-0.5 135zM199 717l4 -160q-2 -19 -2 -38t1 -46t1 -47v-4q226 -4 299 24q12 32 17.5 46.5t8.5 32t3 28t2.5 44t5.5 71.5q0 14 2.5 81.5t1.5 104.5t-13 84.5t-36 69.5q-29 22 -124.5 26t-166.5 -28q-1 -32 0.5 -62t1.5 -55 q0 -32 -3 -87.5t-3 -84.5z" />
<glyph unicode="&#xdf;" horiz-adv-x="724" d="M104.5 1009.5q-0.5 218.5 4.5 247.5q11 53 44.5 92.5t78 59t95.5 25.5t97 -2t83 -29t52 -51q32 -66 35 -188.5t-11.5 -225.5t-33.5 -160q-22 -65 -37 -82l-55 -32q8 -14 70.5 -63t70.5 -60q29 -99 23.5 -246t-43.5 -248l-107 -47q-9 -3 -22.5 -3t-31.5 1.5t-26 1.5h-12 l6 80q1 0 49 6q44 20 61.5 49t22.5 86q2 34 -2 121q0 104 -22 131q-9 13 -24 42.5t-33.5 53.5t-49.5 47l-33 17l-8 65q31 12 70 56q47 47 72 154t23 211t-26 157q3 38 -52 58q-66 25 -136 1q-87 -31 -94 -124v-13q-10 -92 -10 -193t5.5 -177t11.5 -177.5t7 -175.5 q0 -38 4 -207t4 -266l-88 2q-13 45 -19 108.5t-6 110t1.5 129t1.5 115.5q0 119 -2 143q-8 181 -8.5 399.5z" />
<glyph unicode="&#xe0;" horiz-adv-x="745" d="M102 264q0 97 21.5 178.5t56.5 100.5q28 15 86 30t107.5 26t96.5 34t65 55l-13 223q-35 21 -112 21q-63 0 -119.5 -14t-75.5 -39v-74q-6 -21 -27 -21q-19 0 -35 12.5t-16 26.5v109q0 37 109 68.5t229 31.5q7 0 25.5 0.5t28.5 0t27 -1.5t27 -5.5t21.5 -11t18 -18 t8.5 -27.5q0 -75 -2 -236t-2 -246q0 -261 16 -469q-8 -7 -35 -14.5t-49 -7.5q-23 0 -29.5 18t-7.5 55v5.5v5.5q-112 -86 -225 -86q-55 0 -123 22q-35 24 -53.5 92.5t-18.5 155.5zM162 1348q27 27 69 36l39 -16q7 -10 39 -52t48 -65.5t38.5 -65t34.5 -79.5q-32 -12 -57 -14 q-10 12 -94 109t-117 147zM201 252q0 -65 13.5 -113.5t39.5 -58.5q74 0 146.5 25.5t119.5 66.5q0 82 4 131q0 13 15 268q-27 -32 -142.5 -66t-142.5 -54q-25 -18 -39 -74.5t-14 -124.5z" />
<glyph unicode="&#xe1;" horiz-adv-x="745" d="M102 264q0 97 21.5 178.5t56.5 100.5q28 15 86 30t107.5 26t96.5 34t65 55l-13 223q-35 21 -112 21q-63 0 -119.5 -14t-75.5 -39v-74q-6 -21 -27 -21q-19 0 -35 12.5t-16 26.5v109q0 37 109 68.5t229 31.5q7 0 25.5 0.5t28.5 0t27 -1.5t27 -5.5t21.5 -11t18 -18 t8.5 -27.5q0 -75 -2 -236t-2 -246q0 -261 16 -469q-8 -7 -35 -14.5t-49 -7.5q-23 0 -29.5 18t-7.5 55v5.5v5.5q-112 -86 -225 -86q-55 0 -123 22q-35 24 -53.5 92.5t-18.5 155.5zM201 252q0 -65 13.5 -113.5t39.5 -58.5q74 0 146.5 25.5t119.5 66.5q0 82 4 131q0 13 15 268 q-27 -32 -142.5 -66t-142.5 -54q-25 -18 -39 -74.5t-14 -124.5zM303 1106q12 38 34.5 79.5t38.5 65t48 65.5t39 52l39 16q42 -9 69 -36q-33 -50 -117 -147t-94 -109q-25 2 -57 14z" />
<glyph unicode="&#xe2;" horiz-adv-x="745" d="M102 264q0 97 21.5 178.5t56.5 100.5q28 15 86 30t107.5 26t96.5 34t65 55l-13 223q-35 21 -112 21q-63 0 -119.5 -14t-75.5 -39v-74q-6 -21 -27 -21q-19 0 -35 12.5t-16 26.5v109q0 37 109 68.5t229 31.5q7 0 25.5 0.5t28.5 0t27 -1.5t27 -5.5t21.5 -11t18 -18 t8.5 -27.5q0 -75 -2 -236t-2 -246q0 -261 16 -469q-8 -7 -35 -14.5t-49 -7.5q-23 0 -29.5 18t-7.5 55v5.5v5.5q-112 -86 -225 -86q-55 0 -123 22q-35 24 -53.5 92.5t-18.5 155.5zM188 1120q7 17 14 31.5t16 29t14 24t17 24.5t15.5 20t19.5 21.5t18.5 19.5t22 22.5t21.5 22.5 l62 -10l133 -135q43 -38 49 -66q-7 -7 -13.5 -10t-17 -5.5t-18.5 -6.5q-14 9 -54 35t-66.5 45.5t-49.5 40.5q-98 -85 -140 -133q-13 0 -23.5 14.5t-19.5 15.5zM201 252q0 -65 13.5 -113.5t39.5 -58.5q74 0 146.5 25.5t119.5 66.5q0 82 4 131q0 13 15 268q-27 -32 -142.5 -66 t-142.5 -54q-25 -18 -39 -74.5t-14 -124.5z" />
<glyph unicode="&#xe3;" horiz-adv-x="749" d="M102 264q0 97 21.5 178.5t56.5 100.5q28 15 86 30t107.5 26t96.5 34t65 55l-13 223q-35 21 -112 21q-63 0 -119.5 -14t-75.5 -39v-74q-6 -21 -27 -21q-19 0 -35 12.5t-16 26.5v109q0 37 109 68.5t229 31.5q7 0 25.5 0.5t28.5 0t27 -1.5t27 -5.5t21.5 -11t18 -18 t8.5 -27.5q0 -75 -2 -236t-2 -246q0 -261 16 -469q-8 -7 -35 -14.5t-49 -7.5q-23 0 -29.5 18t-7.5 55v5.5v5.5q-112 -86 -225 -86q-55 0 -123 22q-35 24 -53.5 92.5t-18.5 155.5zM138 1174l3 14l138 65q55 -5 126.5 -33.5t75.5 -29.5l123 49q46 -58 12 -82l-137 -63l-176 59 l-143 -43q-15 12 -19.5 31.5t-2.5 32.5zM201 252q0 -65 13.5 -113.5t39.5 -58.5q74 0 146.5 25.5t119.5 66.5q0 82 4 131q0 13 15 268q-27 -32 -142.5 -66t-142.5 -54q-25 -18 -39 -74.5t-14 -124.5z" />
<glyph unicode="&#xe4;" horiz-adv-x="745" d="M102 264q0 97 21.5 178.5t56.5 100.5q28 15 86 30t107.5 26t96.5 34t65 55l-13 223q-35 21 -112 21q-63 0 -119.5 -14t-75.5 -39v-74q-6 -21 -27 -21q-19 0 -35 12.5t-16 26.5v109q0 37 109 68.5t229 31.5q7 0 25.5 0.5t28.5 0t27 -1.5t27 -5.5t21.5 -11t18 -18 t8.5 -27.5q0 -75 -2 -236t-2 -246q0 -261 16 -469q-8 -7 -35 -14.5t-49 -7.5q-23 0 -29.5 18t-7.5 55v5.5v5.5q-112 -86 -225 -86q-55 0 -123 22q-35 24 -53.5 92.5t-18.5 155.5zM201 252q0 -65 13.5 -113.5t39.5 -58.5q74 0 146.5 25.5t119.5 66.5q0 82 4 131q0 13 15 268 q-27 -32 -142.5 -66t-142.5 -54q-25 -18 -39 -74.5t-14 -124.5zM209 1120q-17 94 6 119l61 10q36 4 39 -6q20 -50 -10 -121q-21 -8 -45 -8.5t-38 2.5zM436 1120q-17 94 6 119l62 10q36 3 39 -6q19 -49 -11 -121q-21 -8 -45 -8.5t-37 2.5z" />
<glyph unicode="&#xe5;" horiz-adv-x="745" d="M102 264q0 97 21.5 178.5t56.5 100.5q28 15 86 30t107.5 26t96.5 34t65 55l-13 223q-35 21 -112 21q-63 0 -119.5 -14t-75.5 -39v-74q-6 -21 -27 -21q-19 0 -35 12.5t-16 26.5v109q0 37 109 68.5t229 31.5q7 0 25.5 0.5t28.5 0t27 -1.5t27 -5.5t21.5 -11t18 -18 t8.5 -27.5q0 -75 -2 -236t-2 -246q0 -261 16 -469q-8 -7 -35 -14.5t-49 -7.5q-23 0 -29.5 18t-7.5 55v5.5v5.5q-112 -86 -225 -86q-55 0 -123 22q-35 24 -53.5 92.5t-18.5 155.5zM201 252q0 -65 13.5 -113.5t39.5 -58.5q74 0 146.5 25.5t119.5 66.5q0 82 4 131q0 13 15 268 q-27 -32 -142.5 -66t-142.5 -54q-25 -18 -39 -74.5t-14 -124.5zM260 1135q-11 134 12 211q30 25 108 29t107 -11q22 -115 -6 -225q-39 -33 -106.5 -33t-114.5 29zM330 1178q21 -7 52 -4t44 14q17 57 0 119q-67 16 -96 -13q-23 -54 0 -116z" />
<glyph unicode="&#xe6;" horiz-adv-x="1175" d="M102 264q0 97 21.5 178.5t56.5 100.5q28 15 86 30t107.5 26t96.5 34t65 55l-13 223q-35 21 -112 21q-63 0 -119.5 -14t-75.5 -39v-74q-6 -21 -27 -21q-19 0 -35 12.5t-16 26.5v109q0 37 109 68.5t229 31.5q7 0 25.5 0.5t28.5 0t27 -1.5t27 -5.5t21.5 -11t18 -18 t8.5 -27.5v-15q0 3 4 7q29 41 114.5 61t171 4t111.5 -68q37 -76 40 -229t-40 -305l-59 -43q-94 -18 -174 -27t-113 -8h-33q4 -142 60 -237q33 -11 82.5 -13.5t109 9t101.5 38.5q28 -8 36 -59q-118 -78 -209 -86.5t-192 39.5q0 -13 2 -19q-8 -7 -35 -14.5t-49 -7.5 q-23 0 -29.5 18t-7.5 55v5.5v5.5q-112 -86 -225 -86q-55 0 -123 22q-35 24 -53.5 92.5t-18.5 155.5zM201 252q0 -65 13.5 -113.5t39.5 -58.5q74 0 146.5 25.5t119.5 66.5q0 82 4 131q0 13 15 268q-27 -32 -142.5 -66t-142.5 -54q-25 -18 -39 -74.5t-14 -124.5zM643 442 q133 -4 270 19l50 28q20 86 18.5 199t-18.5 195q-40 51 -118 49.5t-147 -55.5q-71 -171 -55 -435z" />
<glyph unicode="&#xe7;" horiz-adv-x="747" d="M103.5 394q0.5 49 4 122t3.5 113q0 61 5 95.5t20.5 80.5t23.5 78q16 51 81 86t141.5 45t150 2t108.5 -35q-1 -33 0.5 -75.5t0.5 -59t-7.5 -48.5t-22.5 -77q-52 0 -65 16l4 78q6 65 0 79.5t-43 29.5q-80 23 -144 0t-100 -76q-11 -29 -18.5 -53.5t-12 -54.5t-6.5 -49.5 t-5.5 -67t-6.5 -78.5q0 -234 24 -330q16 -64 42 -88q21 -17 64.5 -31t100 -11t91.5 36l32 133l52 12q5 1 9 -0.5t6 -6.5t3.5 -10t1.5 -13v-13.5v-14v-11.5q0 -4 2.5 -42t-0.5 -59t-14 -28q-108 -66 -205 -72l-10 -55q41 4 73.5 -7t50 -31t29 -44.5t10 -48.5t-7.5 -43 q-9 -24 -42 -48t-66 -30l-201 39q0 34 43 43q35 -9 129 -15q43 13 59 50t-14.5 66.5t-103.5 23.5l-39 28l28 72q-63 4 -112.5 29t-75.5 61q-29 38 -45.5 88t-21 110.5t-4 109.5z" />
<glyph unicode="&#xe8;" horiz-adv-x="763" d="M147 296q-19 188 0 387.5t76 277.5q29 41 114.5 61t171.5 4t112 -68q37 -76 40 -229t-40 -305l-60 -43q-94 -18 -173.5 -27t-112.5 -8h-33q4 -143 59 -237q33 -11 82.5 -13.5t109 9t101.5 38.5q29 -9 37 -59q-124 -83 -218 -88t-204 51q-43 61 -62 249zM168 1350 q27 27 70 36l38 -16q7 -10 39 -52t48 -65.5t38.5 -65t34.5 -79.5q-32 -12 -57 -14q-10 12 -94 109t-117 147zM231 442q134 -4 271 19l49 28q20 86 18.5 199t-18.5 195q-40 51 -117.5 49.5t-146.5 -55.5q-72 -173 -56 -435z" />
<glyph unicode="&#xe9;" d="M112 296q-19 188 0 387.5t76 277.5q29 41 114.5 61t171.5 4t112 -68q37 -76 40 -229t-40 -305l-60 -43q-94 -18 -173.5 -27t-112.5 -8h-33q4 -143 59 -237q33 -11 82.5 -13.5t109 9t101.5 38.5q29 -9 37 -59q-124 -83 -218 -88t-204 51q-43 61 -62 249zM197 442 q133 -4 270 19l49 28q20 86 18.5 199t-18.5 195q-40 51 -117.5 49.5t-146.5 -55.5q-71 -171 -55 -435zM319 1110q12 38 34.5 79.5t38.5 65t48 65.5t39 52l39 17q42 -9 70 -37q-33 -50 -117 -147t-94 -109q-26 2 -58 14z" />
<glyph unicode="&#xea;" d="M112 296q-19 188 0 387.5t76 277.5q29 41 114.5 61t171.5 4t112 -68q37 -76 40 -229t-40 -305l-60 -43q-94 -18 -173.5 -27t-112.5 -8h-33q4 -143 59 -237q33 -11 82.5 -13.5t109 9t101.5 38.5q29 -9 37 -59q-124 -83 -218 -88t-204 51q-43 61 -62 249zM174 1122 q7 17 14 31.5t16 29t14 24t17 24.5t15.5 20t19.5 21.5t18.5 19.5t22 22.5t21.5 22.5l61 -10l133 -135q43 -38 49 -66q-7 -7 -13.5 -10t-17 -5.5t-18.5 -6.5q-14 9 -54 35t-66.5 45.5t-49.5 40.5q-95 -81 -139 -133q-13 0 -23.5 14.5t-19.5 15.5zM197 442q133 -4 270 19 l49 28q20 86 18.5 199t-18.5 195q-40 51 -117.5 49.5t-146.5 -55.5q-71 -171 -55 -435z" />
<glyph unicode="&#xeb;" d="M112 296q-19 188 0 387.5t76 277.5q29 41 114.5 61t171.5 4t112 -68q37 -76 40 -229t-40 -305l-60 -43q-94 -18 -173.5 -27t-112.5 -8h-33q4 -143 59 -237q33 -11 82.5 -13.5t109 9t101.5 38.5q29 -9 37 -59q-124 -83 -218 -88t-204 51q-43 61 -62 249zM197 442 q133 -4 270 19l49 28q20 86 18.5 199t-18.5 195q-40 51 -117.5 49.5t-146.5 -55.5q-71 -171 -55 -435zM219 1108q-17 94 6 119l62 10q35 3 39 -6q19 -49 -11 -121q-21 -8 -45 -8.5t-38 2.5zM446 1108q-16 94 7 119l61 10q36 4 39 -6q20 -50 -10 -121q-21 -8 -45 -8.5 t-38 2.5z" />
<glyph unicode="&#xec;" horiz-adv-x="329" d="M-70 1356q28 28 70 37l39 -17q7 -10 39 -52t48 -65.5t38.5 -65t34.5 -79.5q-32 -12 -58 -14q-10 12 -94 109t-117 147zM111 989q25 36 60 32.5t46 -26.5l-8 -243l12 -736q-9 -8 -27 -13.5t-41.5 -1.5t-37.5 22l4 321z" />
<glyph unicode="&#xed;" horiz-adv-x="329" d="M111 989q25 36 60 32.5t46 -26.5l-8 -243l12 -736q-9 -8 -27 -13.5t-41.5 -1.5t-37.5 22l4 321zM115 1106q12 38 34.5 80t37.5 64t48 66l39 52l39 16q43 -9 70 -36q-33 -50 -117 -147t-94 -109q-25 2 -57 14z" />
<glyph unicode="&#xee;" horiz-adv-x="329" d="M-33 1122q7 17 14 31.5t16 29t14 24t17 24.5t15.5 20t19.5 21.5t18.5 19.5t22 22.5t21.5 22.5l61 -10l133 -135q45 -40 50 -66q-7 -7 -14 -10t-17.5 -5.5t-18.5 -6.5q-12 8 -53 35t-67 46t-49 40q-98 -85 -140 -133q-13 0 -23.5 14.5t-19.5 15.5zM111 989q25 36 60 32.5 t46 -26.5l-8 -243l12 -736q-9 -8 -27 -13.5t-41.5 -1.5t-37.5 22l4 321z" />
<glyph unicode="&#xef;" horiz-adv-x="329" d="M-2 1110q-17 94 6 119l61 10q36 4 39 -6q20 -50 -10 -121q-21 -8 -45 -8.5t-37 2.5zM111 989q25 36 60 32.5t46 -26.5l-8 -243l12 -736q-9 -8 -27 -13.5t-41.5 -1.5t-37.5 22l4 321zM225 1110q-17 94 6 119l62 10q35 3 39 -6q20 -50 -10 -121q-21 -8 -45 -8.5t-38 2.5z " />
<glyph unicode="&#xf0;" horiz-adv-x="722" d="M104 524v111q0 14 4 124.5t5 114.5q4 22 32.5 51t51.5 42q54 39 176 69q43 7 121 -18q-32 93 -93 156l-153 -107l-31 8q-4 -3 -13 10.5t-16 28t-6 14.5q8 4 119 72q19 13 39 27q-59 38 -135 47q-13 8 -10.5 25.5t13.5 34.5t17 16q115 -21 187 -74l118 78q6 7 21 -7.5 t25.5 -34t5.5 -24.5q-66 -33 -68 -33q-23 -16 -43 -32q88 -96 139 -310q4 -27 4 -106q5 -34 3 -168.5t-1 -165.5q0 -27 2 -95.5t1.5 -122t-5.5 -93.5q-3 -21 -19.5 -50t-19.5 -38q-10 -4 -38 -29.5t-50 -32.5q-63 -19 -145 -21.5t-125 15.5q-14 7 -26.5 17t-25.5 27 t-19 25.5t-19 30t-14 23.5q-1 40 -2.5 176t-6.5 219zM201 733q0 -47 1 -83.5t4 -110.5t5 -123q2 -54 0.5 -87.5t0.5 -73t9 -79.5q11 -53 48.5 -74t82.5 -14q80 7 99 15q40 15 66 77q0 2 1 4q4 108 4.5 209.5t-1 242t-1.5 220.5q-10 28 -42 46t-74 20.5t-83.5 -5.5t-74 -34 t-41.5 -64q-4 -39 -4 -86z" />
<glyph unicode="&#xf1;" horiz-adv-x="747" d="M113.5 868q1.5 110 1.5 125q16 20 42 28.5t52 -3.5q1 -16 2 -34.5t1.5 -29.5t0.5 -22q198 152 350 59l72 -86q0 -75 -3.5 -267t-1 -332.5t14.5 -287.5q-14 -10 -50 -17.5t-58 1.5q-23 83 -11 301l11 291l-7 285q-37 25 -83.5 31t-90.5 -6t-79.5 -28t-65.5 -36 q-4 -86 -4 -123l4 -160q-2 -19 -2 -46.5t1 -64t1 -55.5v-115q0 -32 7.5 -119.5t6.5 -129.5q-15 -15 -53.5 -18.5t-52.5 9.5q-8 89 -5 360.5t1 366.5q-3 13 -1.5 123zM116 1172l3 14l137 65q55 -5 127 -33.5t76 -29.5l123 49q46 -58 12 -82l-137 -63l-176 59l-144 -43 q-15 12 -19.5 31.5t-1.5 32.5z" />
<glyph unicode="&#xf2;" horiz-adv-x="722" d="M104 524v111q-1 9 3 121.5t6 117.5q4 22 32.5 51t51.5 42q54 39 176 69q41 8 139 -24q14 -6 30 -19.5t24.5 -23.5t25 -31.5t18.5 -24.5q4 -25 4 -106q5 -34 3 -168.5t-1 -165.5q0 -27 2 -95.5t1.5 -122t-5.5 -93.5q-3 -21 -19.5 -50t-19.5 -38q-10 -4 -38 -29.5 t-50 -32.5q-63 -19 -145 -21.5t-125 15.5q-14 7 -26.5 17t-25.5 27t-19 25.5t-19 30t-14 23.5q-1 40 -2.5 176t-6.5 219zM121 1348q27 27 69 36l39 -16q7 -10 39 -52t48 -65.5t38.5 -65t34.5 -79.5q-32 -12 -57 -14q-10 12 -94 109t-117 147zM201 733q0 -47 1 -83.5 t4 -110.5t5 -123q2 -54 0.5 -87.5t0.5 -73t9 -79.5q11 -53 48.5 -74t82.5 -14q80 7 99 15q40 15 66 77q0 2 1 4q4 108 4.5 209.5t-1 242t-1.5 220.5q-10 28 -42 46t-74 20.5t-83.5 -5.5t-74 -34t-41.5 -64q-4 -39 -4 -86z" />
<glyph unicode="&#xf3;" horiz-adv-x="722" d="M104 524v111q-1 9 3 121.5t6 117.5q4 22 32.5 51t51.5 42q54 39 176 69q41 8 139 -24q14 -6 30 -19.5t24.5 -23.5t25 -31.5t18.5 -24.5q4 -25 4 -106q5 -34 3 -168.5t-1 -165.5q0 -27 2 -95.5t1.5 -122t-5.5 -93.5q-3 -21 -19.5 -50t-19.5 -38q-10 -4 -38 -29.5 t-50 -32.5q-63 -19 -145 -21.5t-125 15.5q-14 7 -26.5 17t-25.5 27t-19 25.5t-19 30t-14 23.5q-1 40 -2.5 176t-6.5 219zM201 733q0 -47 1 -83.5t4 -110.5t5 -123q2 -54 0.5 -87.5t0.5 -73t9 -79.5q11 -53 48.5 -74t82.5 -14q80 7 99 15q40 15 66 77q0 2 1 4 q4 108 4.5 209.5t-1 242t-1.5 220.5q-10 28 -42 46t-74 20.5t-83.5 -5.5t-74 -34t-41.5 -64q-4 -39 -4 -86zM328 1106q12 38 34.5 80t37.5 64t48 66l39 52l39 16q43 -9 70 -36q-33 -50 -117 -147t-94 -109q-25 2 -57 14z" />
<glyph unicode="&#xf4;" horiz-adv-x="722" d="M104 524v111q-1 9 3 121.5t6 117.5q4 22 32.5 51t51.5 42q54 39 176 69q41 8 139 -24q14 -6 30 -19.5t24.5 -23.5t25 -31.5t18.5 -24.5q4 -25 4 -106q5 -34 3 -168.5t-1 -165.5q0 -27 2 -95.5t1.5 -122t-5.5 -93.5q-3 -21 -19.5 -50t-19.5 -38q-10 -4 -38 -29.5 t-50 -32.5q-63 -19 -145 -21.5t-125 15.5q-14 7 -26.5 17t-25.5 27t-19 25.5t-19 30t-14 23.5q-1 40 -2.5 176t-6.5 219zM174 1122q7 17 14 31.5t16 29t14 24t17 24.5t15.5 20t19.5 21.5t18.5 19.5t22 22.5t21.5 22.5l61 -10l133 -135q43 -38 49 -66q-7 -7 -13.5 -10 t-17 -5.5t-18.5 -6.5q-14 9 -54 35t-66.5 45.5t-49.5 40.5q-95 -81 -139 -133q-13 0 -23.5 14.5t-19.5 15.5zM201 733q0 -47 1 -83.5t4 -110.5t5 -123q2 -54 0.5 -87.5t0.5 -73t9 -79.5q11 -53 48.5 -74t82.5 -14q80 7 99 15q40 15 66 77q0 2 1 4q4 108 4.5 209.5t-1 242 t-1.5 220.5q-10 28 -42 46t-74 20.5t-83.5 -5.5t-74 -34t-41.5 -64q-4 -39 -4 -86z" />
<glyph unicode="&#xf5;" horiz-adv-x="722" d="M104 524v111q-1 9 3 121.5t6 117.5q4 22 32.5 51t51.5 42q54 39 176 69q41 8 139 -24q14 -6 30 -19.5t24.5 -23.5t25 -31.5t18.5 -24.5q4 -25 4 -106q5 -34 3 -168.5t-1 -165.5q0 -27 2 -95.5t1.5 -122t-5.5 -93.5q-3 -21 -19.5 -50t-19.5 -38q-10 -4 -38 -29.5 t-50 -32.5q-63 -19 -145 -21.5t-125 15.5q-14 7 -26.5 17t-25.5 27t-19 25.5t-19 30t-14 23.5q-1 40 -2.5 176t-6.5 219zM104 1172l2 14l138 65q55 -5 126.5 -33.5t75.5 -29.5l123 49q47 -58 13 -82l-138 -63l-176 59l-143 -43q-15 12 -19.5 31.5t-1.5 32.5zM201 733 q0 -47 1 -83.5t4 -110.5t5 -123q2 -54 0.5 -87.5t0.5 -73t9 -79.5q11 -53 48.5 -74t82.5 -14q80 7 99 15q40 15 66 77q0 2 1 4q4 108 4.5 209.5t-1 242t-1.5 220.5q-10 28 -42 46t-74 20.5t-83.5 -5.5t-74 -34t-41.5 -64q-4 -39 -4 -86z" />
<glyph unicode="&#xf6;" horiz-adv-x="722" d="M104 524v111q-1 9 3 121.5t6 117.5q4 22 32.5 51t51.5 42q54 39 176 69q41 8 139 -24q14 -6 30 -19.5t24.5 -23.5t25 -31.5t18.5 -24.5q4 -25 4 -106q5 -34 3 -168.5t-1 -165.5q0 -27 2 -95.5t1.5 -122t-5.5 -93.5q-3 -21 -19.5 -50t-19.5 -38q-10 -4 -38 -29.5 t-50 -32.5q-63 -19 -145 -21.5t-125 15.5q-14 7 -26.5 17t-25.5 27t-19 25.5t-19 30t-14 23.5q-1 40 -2.5 176t-6.5 219zM201 733q0 -47 1 -83.5t4 -110.5t5 -123q2 -54 0.5 -87.5t0.5 -73t9 -79.5q11 -53 48.5 -74t82.5 -14q80 7 99 15q40 15 66 77q0 2 1 4 q4 108 4.5 209.5t-1 242t-1.5 220.5q-10 28 -42 46t-74 20.5t-83.5 -5.5t-74 -34t-41.5 -64q-4 -39 -4 -86zM203 1108q-17 94 6 119l61 10q36 4 39 -6q20 -50 -10 -121q-21 -8 -45 -8.5t-38 2.5zM430 1108q-17 94 6 119l62 10q36 3 39 -6q19 -49 -11 -121q-21 -8 -45 -8.5 t-37 2.5z" />
<glyph unicode="&#xf7;" d="M106 713q0 -6 240 -6q1 0 129 2t129 2q16 4 20 -39q4 -49 -7 -62q-2 -2 -3 -2q-80 6 -82 6l-399 -8l-24 25q-12 1 -3 82zM309 340q-17 94 6 119l62 10q35 3 39 -6q20 -50 -10 -121q-21 -8 -45 -8.5t-38 2.5zM309 842q-17 94 6 119l62 10q35 3 39 -6q20 -50 -10 -121 q-21 -8 -45 -8.5t-38 2.5z" />
<glyph unicode="&#xf8;" horiz-adv-x="722" d="M104 524v111q-1 9 3 121.5t6 117.5q4 22 32.5 51t51.5 42q54 39 176 69q41 8 139 -24q14 -6 30 -19.5t24.5 -23.5t25 -31.5t18.5 -24.5q4 -25 4 -106q5 -34 3 -168.5t-1 -165.5q0 -27 2 -95.5t1.5 -122t-5.5 -93.5q-3 -21 -19.5 -50t-19.5 -38q-10 -4 -38 -29.5 t-50 -32.5q-63 -19 -145 -21.5t-125 15.5q-14 7 -26.5 17t-25.5 27t-19 25.5t-19 30t-14 23.5q-1 40 -2.5 176t-6.5 219zM201 733q0 -47 1 -83.5t4 -110.5t5 -123q2 -52 0.5 -84.5t0 -70.5t7.5 -75q0 5 2 7q6 17 21.5 52.5t21.5 53.5q16 41 35 113q5 16 19 53.5t20 58.5 q4 10 10 30t8 26q3 9 11.5 26.5t11.5 26.5q4 9 10 27t10 26q3 9 12.5 26t12.5 25q12 31 26.5 92.5t18.5 75.5q-32 15 -73.5 17t-80.5 -7t-70 -34.5t-40 -61.5q-4 -39 -4 -86zM264 106q38 -28 88 -18q80 7 99 15q40 15 66 77q0 2 1 4q3 100 3.5 195t-0.5 229.5t-1 200.5 l-2 -4q-13 -29 -30 -81t-25 -71q-30 -64 -60 -149q-9 -25 -24.5 -79t-24.5 -79l-26 -65q-7 -17 -27.5 -81t-36.5 -94z" />
<glyph unicode="&#xf9;" horiz-adv-x="770" d="M135 1006q14 10 50.5 17.5t58.5 -1.5q22 -80 10 -301l-10 -291l6 -285q37 -26 83.5 -32t90 5.5t79 28t64.5 37.5q1 14 2.5 38.5t2.5 45t1 39.5l-4 160q2 19 2 46.5t-1 64t-1 55.5v115q0 32 -7.5 119.5t-6.5 129.5q15 15 54 18.5t53 -9.5q8 -89 5 -360.5t-1 -366.5 q3 -13 1.5 -123t-1.5 -125q-16 -20 -42.5 -28.5t-52.5 3.5q-4 41 -4 84q-203 -148 -350 -57l-72 86q0 75 3.5 267t1 332.5t-14.5 287.5zM186 1348q27 27 70 36l39 -16q7 -10 39 -52t48 -65.5t38.5 -65t34.5 -79.5q-32 -12 -58 -14q-10 12 -94 109t-117 147z" />
<glyph unicode="&#xfa;" horiz-adv-x="737" d="M102 1006q14 10 50.5 17.5t58.5 -1.5q22 -80 10 -301l-10 -291l6 -285q37 -26 83.5 -32t90.5 5.5t79.5 28t64.5 37.5q1 14 2.5 38.5t2.5 45t1 39.5l-4 160q2 19 2 46.5t-1 64t-1 55.5v115q0 33 -8 120t-7 129q15 15 54 18.5t53 -9.5q8 -89 5 -360.5t-1 -366.5 q3 -13 1.5 -123t-1.5 -125q-16 -20 -42 -28.5t-52 3.5q-4 41 -4 84q-204 -148 -351 -57l-71 86q0 70 3 265.5t0.5 335t-14.5 286.5zM324 1106q12 38 34.5 80t37.5 64t48 66l39 52l39 16q43 -9 70 -36q-33 -50 -117 -147t-94 -109q-25 2 -57 14z" />
<glyph unicode="&#xfb;" horiz-adv-x="737" d="M102 1006q14 10 50.5 17.5t58.5 -1.5q22 -80 10 -301l-10 -291l6 -285q37 -26 83.5 -32t90.5 5.5t79.5 28t64.5 37.5q1 14 2.5 38.5t2.5 45t1 39.5l-4 160q2 19 2 46.5t-1 64t-1 55.5v115q0 33 -8 120t-7 129q15 15 54 18.5t53 -9.5q8 -89 5 -360.5t-1 -366.5 q3 -13 1.5 -123t-1.5 -125q-16 -20 -42 -28.5t-52 3.5q-4 41 -4 84q-204 -148 -351 -57l-71 86q0 70 3 265.5t0.5 335t-14.5 286.5zM172 1122q7 17 14 31.5t16 29t14 24t17 24.5t15.5 20t19.5 21.5t18.5 19.5t22 22.5t21.5 22.5l61 -10l133 -135q43 -38 49 -66 q-7 -7 -13.5 -10t-17 -5.5t-18.5 -6.5q-14 9 -54 35t-66.5 45.5t-49.5 40.5q-95 -81 -139 -133q-13 0 -23.5 14.5t-19.5 15.5z" />
<glyph unicode="&#xfc;" horiz-adv-x="737" d="M102 1006q14 10 50.5 17.5t58.5 -1.5q22 -80 10 -301l-10 -291l6 -285q37 -26 83.5 -32t90.5 5.5t79.5 28t64.5 37.5q1 14 2.5 38.5t2.5 45t1 39.5l-4 160q2 19 2 46.5t-1 64t-1 55.5v115q0 33 -8 120t-7 129q15 15 54 18.5t53 -9.5q8 -89 5 -360.5t-1 -366.5 q3 -13 1.5 -123t-1.5 -125q-16 -20 -42 -28.5t-52 3.5q-4 41 -4 84q-204 -148 -351 -57l-71 86q0 70 3 265.5t0.5 335t-14.5 286.5zM211 1100q-17 94 6 119l61 10q36 4 39 -6q20 -50 -10 -121q-21 -8 -45 -8.5t-38 2.5zM438 1100q-17 94 6 119l62 10q36 3 39 -6 q20 -50 -10 -121q-21 -8 -45 -8.5t-38 2.5z" />
<glyph unicode="&#xfd;" horiz-adv-x="745" d="M102 1006q14 10 50.5 17.5t58.5 -1.5q22 -80 10 -301l-10 -291l6 -285q38 -27 86 -32.5t92.5 7t80 30t63.5 38.5l4 123v305q0 51 -7 138t-9.5 135.5t5.5 124.5q15 10 48.5 13.5t56.5 -5.5q11 -202 2 -379q-1 -36 0.5 -102t1.5 -86q0 -32 -3 -87.5t-3 -84.5l4 -160 q-6 -183 -29.5 -272t-74.5 -136q-79 -51 -269 -59q-15 16 -18.5 36.5t0.5 33.5l4 12q165 13 221 59q51 70 62 293q-201 -150 -351 -57l-71 86q0 70 3 265.5t0.5 335t-14.5 286.5zM346 1108q12 38 34.5 79.5t38.5 65t48 65.5t39 52l39 16q42 -9 69 -36q-33 -50 -117 -147 t-94 -109q-25 2 -57 14z" />
<glyph unicode="&#xfe;" horiz-adv-x="749" d="M104 -330q-3 119 2.5 536t2.5 539q-2 44 -2 95t1 114t1 97q0 39 -2.5 119.5t-1 134t9.5 106.5q15 10 42.5 13.5t51.5 -5.5q9 -159 -4 -409q0 -6 -1 -13t-1 -10q85 39 163.5 38.5t128.5 -26t80 -65.5q29 -38 45.5 -88t21 -110.5t4 -109.5t-3.5 -122.5t-3 -112.5 q0 -61 -5 -95.5t-20.5 -80.5t-23.5 -78q-14 -43 -55.5 -74.5t-95.5 -45.5t-116 -19t-118 4q1 -41 2.5 -116.5t2.5 -129.5t1 -78q-15 -15 -54 -18t-53 10zM201 717l4 -160q-2 -19 -2 -38t1 -46t1 -47v-301q3 -4 7 -7.5t10 -6t10.5 -4.5t13.5 -5.5t14 -5.5q144 -42 225 76 q11 29 18.5 53t12 55.5t6.5 49t6 67.5t7 78q0 234 -24 330q-16 64 -42 88q-20 15 -65 25t-103 3.5t-94 -36.5q0 -31 -3 -85.5t-3 -82.5z" />
<glyph unicode="&#xff;" horiz-adv-x="745" d="M102 1006q14 10 50.5 17.5t58.5 -1.5q22 -80 10 -301l-10 -291l6 -285q38 -27 86 -32.5t92.5 7t80 30t63.5 38.5l4 123v305q0 51 -7 138t-9.5 135.5t5.5 124.5q15 10 48.5 13.5t56.5 -5.5q11 -202 2 -379q-1 -36 0.5 -102t1.5 -86q0 -32 -3 -87.5t-3 -84.5l4 -160 q-6 -183 -29.5 -272t-74.5 -136q-79 -51 -269 -59q-15 16 -18.5 36.5t0.5 33.5l4 12q165 13 221 59q51 70 62 293q-201 -150 -351 -57l-71 86q0 70 3 265.5t0.5 335t-14.5 286.5zM209 1108q-17 94 6 119l61 10q36 4 39 -6q20 -50 -10 -121q-21 -8 -45 -8.5t-38 2.5z M436 1108q-17 94 6 119l62 10q36 3 39 -6q19 -49 -11 -121q-21 -8 -45 -8.5t-37 2.5z" />
<glyph unicode="&#x152;" horiz-adv-x="1148" d="M104 524q-3 82 1.5 262t-1.5 256q0 12 6 126t7 118q4 22 30.5 48.5t49.5 39.5q56 41 176 70q39 7 139 -25q26 -10 55 -43q57 28 142.5 40t146.5 11t170 -6q9 -1 11 -7t-1 -15t-8 -18.5t-9.5 -18.5t-4.5 -12q-50 2 -114 -4.5t-142 -18.5t-109 -16q-1 -44 -14.5 -191 t-11.5 -243q1 -25 0 -46.5t1 -45t7 -37.5q8 -25 43 -34t78.5 -5.5t89.5 4.5t76 -4q12 -22 4 -43.5t-29 -34.5q-16 -1 -94 -1t-115 -12q-17 -6 -21 -13t-14 -11q-11 -25 -13.5 -76t0 -124t1.5 -97q-5 -94 14 -166q27 -18 63 -25t62 -6t71 5.5t62 5.5q20 1 65 10t68 6 q7 -17 0 -88q-140 -24 -151 -25q-13 -1 -40 -5t-40.5 -5.5t-39.5 -3t-38 1.5q-30 2 -97.5 13.5t-90.5 13.5l-4 18q-27 -27 -54 -35q-63 -19 -145 -21.5t-125 15.5q-14 7 -26.5 17t-25.5 27t-19 25.5t-19 30t-14 23.5q-1 40 -2.5 176t-6.5 219zM197 1148q0 -6 1.5 -26.5 t2.5 -34.5q8 -141 -2 -317q-3 -71 5.5 -189.5t8.5 -164.5q0 -27 -1 -66t-1 -60t2 -51.5t8 -62.5q11 -53 48.5 -74t82.5 -14q73 6 109 29.5t63 89.5q-22 505 8 1055q-12 35 -60.5 53t-103 16t-103 -29.5t-60.5 -74.5q-4 -21 -5.5 -33.5t-2 -26t-0.5 -19.5z" />
<glyph unicode="&#x153;" horiz-adv-x="1214" d="M104 524v111q0 14 4 124.5t5 114.5q4 22 32.5 51t51.5 42q54 39 176 69q41 8 139 -24q14 -6 30 -19.5t24.5 -23.5t25 -31.5t18.5 -24.5l3 -61q0 4 -2 15q-4 34 -2 3q2 -20 5 -63v-6q23 112 60 160q29 41 114.5 61t171 4t111.5 -68q37 -76 40 -229t-40 -305l-59 -43 q-94 -18 -174 -27t-113 -8h-33q4 -142 60 -237q33 -11 82 -13.5t108.5 9t101.5 38.5q29 -9 37 -59q-124 -83 -218 -88t-204 51q-28 39 -43 125q0 -2 -1 -5t-1 -5q-3 -21 -19.5 -50t-19.5 -38q-10 -4 -38 -29.5t-50 -32.5q-63 -19 -145 -21.5t-125 15.5q-14 7 -26.5 17 t-25.5 27t-19 25.5t-19 30t-14 23.5q-1 40 -2.5 176t-6.5 219zM201 733q0 -47 1 -83.5t4 -110.5t5 -123q2 -54 0.5 -87.5t0.5 -73t9 -79.5q11 -53 48.5 -74t82.5 -14q7 1 26 2.5t25.5 2t22 2.5t21.5 4t18 5.5t17.5 8t15 11.5t15 15.5t12.5 19.5t12 25q4 108 4.5 209.5 t-1 242t-1.5 220.5q-10 28 -44 46t-78.5 20.5t-89 -5.5t-79 -34t-43.5 -64q-4 -39 -4 -86zM682 442q133 -4 270 19l49 28q20 86 18.5 199t-18.5 195q-40 51 -117.5 49.5t-146.5 -55.5q-71 -171 -55 -435z" />
<glyph unicode="&#x178;" horiz-adv-x="714" d="M102 1389q0 9 17 17.5t34 12.5l17 4q43 0 57 -137l123 -526l23 16q42 136 73.5 309.5t50 257.5t44.5 84q25 0 65 -16q6 -6 6 -25q0 -30 -12 -57q-39 -101 -88 -344t-88 -344l-18 -33q-3 -27 -3 -59q0 -63 4.5 -196.5t4.5 -188.5q0 -25 4.5 -60t3.5 -53.5t-12 -30.5 q-59 -22 -82 -12q-12 6 -16.5 43t-4.5 142q0 38 2 114t2 101v104q0 80 -12 117q-25 68 -56 184t-67.5 266t-48.5 197q-23 83 -23 113zM188 1511q-16 94 7 119l61 10q36 4 39 -6q20 -50 -10 -121q-21 -8 -45 -8.5t-38 3.5zM416 1511q-17 94 6 119l61 10q36 4 39 -6 q20 -50 -10 -121q-21 -8 -45 -8.5t-37 3.5z" />
<glyph unicode="&#x2c6;" horiz-adv-x="606" d="M102 1223q7 17 14 31.5t16 29t14 24t17 24.5t15.5 20t19.5 21.5t18.5 19.5t22 22.5t21.5 22.5l62 -11l133 -135q44 -39 49 -65q-7 -7 -13.5 -10.5t-17 -6.5t-18.5 -6q-14 9 -54 35t-66.5 45.5t-49.5 40.5q-98 -85 -140 -133q-13 0 -23.5 15t-19.5 16z" />
<glyph unicode="&#x2dc;" horiz-adv-x="700" d="M104 664l2 14l138 65q55 -5 126.5 -33.5t75.5 -29.5l123 49q47 -58 13 -82l-138 -63l-176 59l-143 -43q-15 12 -19.5 31.5t-1.5 32.5z" />
<glyph unicode="&#x2000;" horiz-adv-x="900" />
<glyph unicode="&#x2001;" horiz-adv-x="1800" />
<glyph unicode="&#x2002;" horiz-adv-x="900" />
<glyph unicode="&#x2003;" horiz-adv-x="1800" />
<glyph unicode="&#x2004;" horiz-adv-x="600" />
<glyph unicode="&#x2005;" horiz-adv-x="450" />
<glyph unicode="&#x2006;" horiz-adv-x="300" />
<glyph unicode="&#x2007;" horiz-adv-x="300" />
<glyph unicode="&#x2008;" horiz-adv-x="225" />
<glyph unicode="&#x2009;" horiz-adv-x="360" />
<glyph unicode="&#x200a;" horiz-adv-x="100" />
<glyph unicode="&#x2010;" d="M106 713q0 -6 240 -6q1 0 129 2t129 2q16 4 20 -39q4 -49 -7 -62q-2 -2 -3 -2q-80 6 -82 6l-399 -8l-24 25q-12 1 -3 82z" />
<glyph unicode="&#x2011;" d="M106 713q0 -6 240 -6q1 0 129 2t129 2q16 4 20 -39q4 -49 -7 -62q-2 -2 -3 -2q-80 6 -82 6l-399 -8l-24 25q-12 1 -3 82z" />
<glyph unicode="&#x2012;" d="M106 713q0 -6 240 -6q1 0 129 2t129 2q16 4 20 -39q4 -49 -7 -62q-2 -2 -3 -2q-80 6 -82 6l-399 -8l-24 25q-12 1 -3 82z" />
<glyph unicode="&#x2013;" horiz-adv-x="806" d="M106 702q0 -6 240 -6q1 0 168 2t168 2q10 2 16 -16q11 -33 1 -65q-3 -10 -7 -11q-80 6 -82 6l-477 -8l-24 25q-12 1 -3 71z" />
<glyph unicode="&#x2014;" horiz-adv-x="933" d="M106 702q0 -1 61.5 -2.5t150 -2.5t155.5 -1q1 0 168 2t168 2q15 4 20 -36q5 -47 -7 -60l-3 -2q-80 6 -82 6l-604 -8l-24 25q-12 1 -3 77z" />
<glyph unicode="&#x2018;" horiz-adv-x="325" d="M104 1196q2 39 13 74q18 86 76 162q3 -1 7.5 -3.5t11.5 -9.5t5 -14q-46 -118 -39 -133q10 -3 20 -7t14 -7l5 -3q17 -93 -6 -118l-61 -10q-35 -3 -39 6q-9 24 -7 63z" />
<glyph unicode="&#x2019;" horiz-adv-x="325" d="M109 1155q45 117 38 133q-10 3 -19.5 7t-13.5 7l-5 3q-17 93 6 118l61 10q35 3 39 -6q9 -24 7 -63t-13 -74q-18 -86 -76 -162q-3 1 -7.5 3.5t-11.5 9.5t-5 14z" />
<glyph unicode="&#x201a;" horiz-adv-x="325" d="M109 0q-17 94 6 119l61 10q35 3 39 -6q9 -24 7 -63t-13 -74q-18 -86 -76 -162q-3 1 -7.5 3t-11.5 9t-5 14q45 117 38 134q-10 3 -19.5 7t-13.5 7z" />
<glyph unicode="&#x201c;" horiz-adv-x="520" d="M104 1200q2 39 13 74q18 86 76 162q3 -1 7.5 -3.5t11.5 -9.5t5 -14q-46 -118 -39 -133q10 -3 20 -7t14 -7l5 -2q17 -94 -6 -119l-61 -10q-35 -3 -39 6q-9 24 -7 63zM298 1200q2 39 13 74q18 86 76 162q3 -1 8 -3.5t12 -9.5t5 -14q-46 -118 -39 -133q10 -3 20 -7t15 -7 l4 -2q17 -94 -6 -119l-62 -10q-35 -3 -39 6q-9 24 -7 63z" />
<glyph unicode="&#x201d;" horiz-adv-x="520" d="M109 1155q45 117 38 133q-10 3 -19.5 7t-13.5 7l-5 3q-17 93 6 118l61 10q35 3 39 -6q9 -24 7 -63t-13 -74q-18 -86 -76 -162q-3 1 -7.5 3.5t-11.5 9.5t-5 14zM303 1155q46 118 39 133q-10 3 -20 7t-14 7l-5 3q-17 93 6 118l62 10q35 3 39 -6q9 -25 6.5 -63.5 t-13.5 -73.5q-19 -88 -75 -162q-3 1 -8 3.5t-12 9.5t-5 14z" />
<glyph unicode="&#x201e;" horiz-adv-x="520" d="M109 2q-17 94 6 119l61 10q35 3 39 -6q9 -24 7 -63t-13 -74q-18 -86 -76 -162q-3 1 -7.5 3.5t-11.5 9.5t-5 14q45 117 38 133q-10 3 -19.5 7t-13.5 7zM303 2q-17 94 6 119l62 10q35 3 39 -6q9 -25 6.5 -63.5t-13.5 -73.5q-19 -88 -75 -162q-3 1 -8 3.5t-12 9.5t-5 14 q46 118 39 133q-10 3 -20 7t-14 7z" />
<glyph unicode="&#x2022;" horiz-adv-x="440" d="M105 687.5q2 63.5 22 84.5l90 17q98 14 107 -9q19 -45 13 -109.5t-34 -127.5q-41 -16 -88 -17t-73 6l-27 7q-4 21 -8 53t-2 95.5z" />
<glyph unicode="&#x2026;" horiz-adv-x="886" d="M109 0q-17 94 6 119l61 10q35 3 39 -6q20 -50 -10 -121q-21 -8 -45 -8.5t-38 2.5zM389 0q-17 94 6 119l62 10q35 3 39 -6q19 -49 -11 -121q-21 -8 -45 -8.5t-38 2.5zM670 0q-17 94 6 119l61 10q36 4 39 -6q20 -50 -10 -121q-21 -8 -45 -8.5t-37 2.5z" />
<glyph unicode="&#x202f;" horiz-adv-x="360" />
<glyph unicode="&#x2039;" horiz-adv-x="448" d="M102 614q32 47 106.5 183.5t96.5 169.5q2 -2 6 -5.5t13.5 -14.5t13.5 -22t7 -27.5t-7 -31.5l-115 -254l119 -284q-6 -33 -47 -68q-18 16 -35.5 39t-35 53t-30 53t-29.5 61t-24 54t-22.5 53.5t-16.5 40.5z" />
<glyph unicode="&#x203a;" horiz-adv-x="448" d="M106 328l119 284l-114 254q-11 28 -4 50.5t21 36.5l15 14q22 -33 96.5 -169.5t106.5 -183.5q-3 -6 -17 -40.5t-22 -53.5t-24 -54.5t-29 -60t-30 -54t-34.5 -52.5t-35.5 -39q-18 16 -30 33t-15 26z" />
<glyph unicode="&#x205f;" horiz-adv-x="450" />
<glyph unicode="&#x20ac;" horiz-adv-x="751" d="M106 854q0 -3 87 -6q3 96 -3 194q0 11 6 118.5t7 111.5q4 24 31.5 62.5t46.5 49.5q37 26 59.5 38t62.5 22q40 7 140 -25q18 -7 36 -26t38 -49t24 -35q4 -32 4 -47q-5 -5 -12.5 -11.5t-27.5 -15t-36 -4.5l-6 31q-16 47 -76 63.5t-120 -9.5t-76 -89q-4 -21 -5.5 -33.5 t-2 -26t-0.5 -19.5t1.5 -26.5t2.5 -34.5q5 -108 2 -239h57q1 0 129 2t129 2q15 4 20 -36q5 -47 -7 -60l-3 -2q-80 6 -82 6h-15q-15 -1 -41 -1.5t-56.5 -1.5t-67.5 -1.5t-69 -1.5q-2 -60 6 -170h63q1 0 108.5 2t108.5 2q16 4 20 -39q5 -49 -6 -62q-2 -2 -3 -2q-80 7 -82 7 l-30 -1q-30 -1 -80 -2t-91 -2q0 -13 1 -36.5t1 -34.5q0 -27 -1 -66t-1 -60t2 -51.5t8 -62.5q11 -51 39.5 -73.5t52.5 -18.5q72 6 112.5 34t53.5 89l15 26q32 -4 48.5 -14t17.5 -18l1 -8q0 -21 -2 -31q-3 -21 -19.5 -50t-19.5 -38q-50 -50 -88 -62q-137 -42 -215 -6 q-22 10 -40.5 33t-40.5 63.5t-23 42.5q-2 59 -3 168t-3 172l-54 -2l-24 25q-12 2 -2 82q0 -4 75 -4q0 28 1 84t1 82h-57l-24 24q-12 1 -3 78z" />
<glyph unicode="&#x2122;" horiz-adv-x="954" d="M104 1393q-3 34 2 41l310 4q10 -72 -10 -82q-25 1 -49 -0.5t-39.5 -3.5t-18.5 -2q-7 -35 -1.5 -315t5.5 -318q0 -2 1 -20.5t-0.5 -28t-6.5 -11.5q-13 -4 -46.5 4t-33.5 13q0 36 1 109.5t1 78.5q0 90 -4 250t-4 234q0 6 -22.5 6.5t-44.5 -1.5t-31 1q-6 7 -9 41zM479 662 q4 143 1.5 254.5t-0.5 254.5t12 252q4 0 35 8t42 7l97 -336q89 326 114 336q11 3 21 -3t19.5 -16t13.5 -12q1 -40 7 -209.5t8.5 -289t0.5 -224.5q-11 -16 -41.5 -16t-40.5 4q1 20 0.5 67.5t-1 160t0.5 343.5l-74 -244q-20 -24 -53 -14q-2 9 -7.5 20.5t-12.5 29.5t-23 82 t-37 165q-5 -95 -3.5 -227t-2.5 -215v-160q-3 -13 -30 -17.5t-46 -0.5z" />
<glyph unicode="&#x25fc;" horiz-adv-x="1024" d="M0 0v1024h1024v-1024h-1024z" />
<glyph unicode="&#xfb01;" horiz-adv-x="821" d="M102 967l4 55q0 -1 111 -4v33q0 13 -1 36.5t-1 34.5q0 71 16.5 123.5t59.5 97.5t126.5 68.5t207.5 22.5l2 2q8 0 8 -43q0 -39 -10 -47q-177 -6 -246.5 -64t-69.5 -170q0 -78 2 -94q17 0 54.5 -1t56.5 -1q44 0 126.5 3t115.5 3q2 0 7 -1t7 -1h10q4 0 14.5 -10t12.5 -15 l-8 -243l12 -736q-20 -16 -55 -16q-34 0 -52 23l4 321l-8 576l-256 4q-17 0 -37 -2v-33q0 -28 -3.5 -84t-2.5 -88l4 -160q-2 -14 -2 -49q0 -18 1 -57.5t1 -59.5v-115q0 -35 7.5 -122t7.5 -127q-19 -19 -66 -19q-31 0 -41 10q-6 114 -6 234q0 60 2 183t2 186q0 49 -2 148 t-2 149l-82 -3l-24 25q-7 0 -7 27z" />
<glyph unicode="&#xfb02;" horiz-adv-x="821" d="M106 1022q0 -4 111 -4v33q-1 75 8 130t40 107.5t85 83t146 44.5t219 3q7 -127 -4 -342q-1 -36 0.5 -102t1.5 -86q0 -32 -3 -87.5t-3 -84.5l4 -160q-2 -19 -2 -46.5t1 -64t1 -55.5v-115q0 -29 3.5 -123t2.5 -137q-15 -15 -55 -18t-54 10q-8 129 0.5 380.5t5.5 356.5 q-2 44 -2 95t1 114t1 97q0 29 -3 150t1 136q-94 -6 -153.5 -24t-90.5 -53.5t-43 -77t-16 -109.5q-2 -19 2 -55q72 0 113 2q15 4 20 -38q5 -49 -7 -62q-2 -2 -3 -2q-80 6 -82 6q-17 0 -37 -2v-33q0 -32 -3 -87.5t-3 -84.5l4 -160q-2 -19 -2 -46.5t1 -64t1 -55.5v-115 q0 -33 8 -120t7 -129q-15 -15 -54 -18.5t-53 9.5q-8 89 -5 360.5t1 366.5q-2 57 -2 173l-82 -3l-24 25q-12 1 -3 82z" />
</font>
</defs>
</svg>
