<?xml version="1.0" standalone="no"?>
<!DOCTYPE svg PUBLIC "-//W3C//DTD SVG 1.1//EN" "http://www.w3.org/Graphics/SVG/1.1/DTD/svg11.dtd" >
<svg xmlns="http://www.w3.org/2000/svg">
<metadata></metadata>
<defs>
<font id="altus_extrasregular" horiz-adv-x="1867" >
<font-face units-per-em="2048" ascent="1536" descent="-512" />
<missing-glyph horiz-adv-x="1024" />
<glyph horiz-adv-x="2048" />
<glyph horiz-adv-x="2048" />
<glyph unicode="&#xd;" horiz-adv-x="2048" />
<glyph unicode=" "  horiz-adv-x="1024" />
<glyph unicode="&#x09;" horiz-adv-x="1024" />
<glyph unicode="&#xa0;" horiz-adv-x="1024" />
<glyph unicode="/" horiz-adv-x="493" d="M231 1030q3 -1 6.5 -2t6.5 -2q-2 -3 -1.5 -7.5t-0.5 -6.5q2 -6 1 -14t1 -15v-37.5t4 -44.5q7 -22 25.5 -40t41.5 -19q6 1 18.5 -3t22.5 -3q4 -1 11.5 -2t11.5 -2t8 -4t4 -9q0 -7 -9.5 -9t-23 -3t-18.5 -4q-10 -1 -59 -8q-5 -2 -8.5 -7.5t-6 -14.5t-4.5 -13 q-9 -38 -10 -43q1 -17 -4 -41.5t-6 -30.5q-1 -4 -1.5 -9.5t-0.5 -8t-2.5 -4.5t-8.5 -2q-15 0 -10 38q10 30 -6 93q-4 7 -6 20.5t-6 15.5q-9 9 -25 11q-3 -3 -12.5 2t-13.5 4q-1 0 -5 -2q-41 -12 -41 6q3 6 9 10q2 -2 6 2q4 5 16 3.5t27 0.5q26 2 47 23q12 28 12 67 q-5 40 0 78q-4 2 -2.5 6.5t4.5 6.5q0 20 8 24zM207 813q10 -6 10 -8q7 -6 10.5 -13.5t6 -17.5t4.5 -14q7 29 18 44.5t35 18.5q-45 22 -51 41q4 -14 -6.5 -28t-26.5 -23zM131 918q40 -25 45 -29q6 -1 7 -2t-1 -6q-3 -2 -7 -1t-9 3l-6 2q-4 5 -15.5 16.5t-13.5 16.5zM346 733 q-3 2 -15.5 6t-13.5 9q-14 14 -14 24q1 3 4.5 3.5t6.5 -0.5l3 -1q8 -6 23 -35q-2 -4 6 -6zM180 764q-5 -8 -10 -14.5t-8.5 -9.5t-11 -9t-11.5 -10q9 29 41 43zM346 940q0 -13 -24 -37q-1 0 -5 -2t-6.5 -2.5t-6 0.5t-5.5 4q-2 6 2 10.5t10.5 8t7.5 4.5q4 0 13.5 4.5t13.5 9.5 z" />
<glyph unicode="0" horiz-adv-x="733" d="M272 715q-6 -1 -8.5 0.5t-9.5 1.5q-5 -2 -15 -7.5t-16 -9t-14.5 -6t-15.5 -2.5q-6 -2 -12.5 -2.5t-10.5 0t-12 3t-10 3.5t-12.5 5.5t-12.5 5.5q-1 2 -5 5.5t-7 7t-6 7.5t-2.5 7.5t3.5 6.5q7 9 29 13.5t37 -0.5h15h14.5t11.5 -1t14 -3.5l13 -6.5t18 -10l3 -2q3 -2 5 -3.5 t4 -5t2 -7.5zM250 719q-59 13 -94 10q-3 -2 -5.5 -2.5t-5 0l-2.5 0.5q60 -11 107 -8zM283 754q-35 19 -54 26q-18 10 -34.5 32.5t-12.5 35.5q-1 5 5 8.5t11.5 4t6.5 -0.5q9 0 21.5 -7.5t11.5 -14.5q1 -1 10.5 -12t11 -13.5t8 -11.5t8.5 -14.5t4.5 -14.5t2.5 -18zM338 944 q2 3 5 9t4.5 8t5.5 4.5t9 1t13 -5.5t12 -12.5t6 -20.5t4 -17q16 -35 4 -84q-1 -6 -2 -19.5t-2 -20t-3 -17.5t-5 -19.5t-8 -17.5q-10 -13 -10 -26q-14 -2 -21 -2q-4 1 -7.5 5.5t-6.5 11.5t-5 13t-4 13.5t-3 9.5q-12 24 -9 57q0 44 7 64q2 7 6 29t10 36zM348 879 q-6 -20 -6 -66q0 -30 10 -61q-3 -1 -1 -2t4.5 -3t0.5 -4q19 37 19 95q1 21 -3 52l-5 30q-1 2 -2 4.5t-1 4.5t-1 3t-3 0q-1 -5 -5 -24.5t-7 -28.5zM446 791q34 29 41 55q-39 -31 -57 -74q-17 10 4 51q4 9 18 23t19 24q6 3 20.5 15t22.5 12q8 -2 12 -6.5t5 -8t-1 -9.5 t-3.5 -9.5t-5.5 -10t-5 -7.5q-5 -13 -14 -22.5t-14.5 -13t-21.5 -10.5t-20 -9zM451 729q30 26 84 33l9 1q8 1 16 0.5t15 -3.5q3 -1 9 -2t10 -1.5t9.5 -2t9.5 -3t7.5 -3.5t5 -5t1.5 -6q6 -3 3 -10.5t-6.5 -11.5t-10 -10.5t-7.5 -8.5q-32 -19 -90 6q-1 1 -7.5 6.5t-8.5 7 t-7 3.5t-10 2q-1 1 -8.5 0t-14.5 0t-7 6q2 -2 2 1q0 2 -4 1zM578 715q10 0 17.5 2.5t4.5 9.5q-72 15 -111 -4q10 0 43 -5.5t46 -2.5z" />
<glyph unicode="1" horiz-adv-x="575" d="M268 881q11 -9 34 -21.5t34 -21.5q9 1 28 6t26.5 6t19.5 -2q48 -15 57 -27q11 -19 -10 -30q-20 -13 -66 4q-13 3 -55 20q-14 -5 -30.5 -17.5t-26.5 -17.5q4 -4 19 -12.5t21 -15.5q19 7 50.5 1.5t44.5 -16.5q7 -9 1.5 -22.5t-18.5 -16.5q-26 -8 -51 11q-17 6 -18 8 q1 1 -3 2q-10 3 -12 8l-2 -3l-3.5 -3.5t-4 -1t-4.5 3.5q-4 -4 -11.5 -9.5t-11.5 -10t-2 -9.5q-2 -14 5.5 -26t21.5 -13q4 -4 10 -6.5t14.5 -4t14.5 -3.5q-35 5 -52 11t-28 22q-13 22 0 43t35 26q1 3 0 4.5t-3.5 2.5l-5 2t-4.5 2.5t-3 3.5q-3 -2 -21 10q-17 -10 -42.5 -15 t-41.5 3q-17 13 -8 26q11 7 35.5 12t40.5 -1l9 1q4 -1 5 -6q2 -1 14 11q11 14 43 28q-6 8 -14 14.5t-14 9.5t-19 8.5t-20 8.5q-8 -4 -26.5 -12.5t-24.5 -11.5q-44 -12 -68 -8q-7 0 -17 10t-6 22q2 4 14 9t11 12q36 12 57 12q40 -8 58 -10q9 4 24 17t23 16q-1 0 -88 28 q-7 2 -34 19.5t-46 17.5q-5 5 -21 12q0 1 2.5 2t6 0.5t6.5 -2.5q1 4 9 2.5t12 -2.5t14 -5.5t16 -6.5q57 -23 61 -24q10 -8 31 -15.5t39 -7.5q13 4 14 2l-2 -4q-1 3 4.5 6.5t12.5 5.5q8 8 26 18t23 13q17 14 43 8q37 -5 51 -30q1 -1 -1 -6t-5 -11.5t-4 -9.5q-6 -8 -25 -12 t-28 -9q-9 -3 -38 -0.5t-32 2.5q-7 -2 -12.5 0.5t-6.5 2.5q-5 -2 -12 -9q-2 -2 -11 -10.5t-15.5 -12.5t-12.5 -5zM438 942q0 4 7.5 6.5t5.5 7.5q-1 6 -19 12.5t-24 4.5q-13 -3 -23.5 -8.5t-24.5 -15t-20 -13.5q81 -9 98 6zM123 858h4q8 -2 12 -2q14 0 41.5 9.5t38.5 11.5 q-87 9 -96 -19zM399 813q1 -1 17.5 -2t23.5 -4q5 2 9 4l-3 5q-2 5 -6 3q-13 7 -37.5 9t-37.5 -3q5 0 15 -6.5t19 -5.5zM195 772q13 -2 20 2q-5 1 -11 -1t-9 -1zM342 733q7 -1 18.5 -7t18 -7.5t20.5 2.5q-16 23 -57 12z" />
<glyph unicode="2" horiz-adv-x="2150" d="M190 854q12 3 31 3.5t32.5 0t41 -2t33.5 -1.5q18 -2 39.5 -2t50 1t45.5 1q18 2 67.5 -1t69.5 3q10 -6 72 -2t65 4q41 -2 137 2q63 9 138 0q2 2 68 1l67 -1q84 7 137 0q16 0 44 -0.5t50.5 -0.5t42.5 1q27 -2 71 -1.5t67 -0.5q75 -8 114 0q29 -2 115 -2q18 -1 56.5 -1 t56.5 -1q22 -4 56 -3.5t56 -0.5q-1 0 -1.5 1l-0.5 1l-2 2q-7 5 -22.5 23t-24.5 22q-36 18 -27 31q11 11 33 -6q28 -20 29 -21q53 -35 49 -55q0 -11 -18 -29q-22 -28 -36 -37q-7 -4 -16 -8q-5 -7 -15 -9.5t-15 5.5q0 4 3 8.5t6 7.5t8 7t7 6q3 8 23 30q-21 1 -57.5 -1 t-55.5 -1q-32 -4 -113 0q-19 -3 -57.5 -0.5t-56.5 0.5q-13 1 -57 -0.5t-56 2.5q-58 3 -113 0q-38 5 -114 2q-16 -5 -57.5 -1.5t-57.5 1.5q-19 -1 -58 1.5t-55 1.5q-13 0 -37.5 -1t-44.5 -1t-36 2q-15 -2 -56 -2t-63 -3q-15 0 -56 -1t-65 -1q-82 0 -119 -2q-24 -1 -61 -1 t-58 -1q-69 8 -120 0q-17 6 -64.5 4t-52.5 -2q-16 0 -58 2.5t-59 1.5q6 -4 11 -9.5t10.5 -13.5t7.5 -11q10 2 19 -11t1 -24q-3 -3 -13 3.5t-20.5 15t-13.5 9.5q-32 32 -32 46q-1 9 6 16q-2 1 -0.5 2t3.5 5.5t1 8.5q1 4 9.5 2.5t10.5 -0.5q4 -1 6.5 0.5t4.5 3t5 5.5t5 6 q57 32 63 12q1 -13 -14 -24t-15 -17z" />
<glyph unicode="3" horiz-adv-x="2775" d="M156 817q-9 -37 18 -45q23 -9 66 2q7 2 16.5 7t14.5 7.5t11 2t11 -6.5q7 -12 -21.5 -33.5t-42.5 -23.5q-6 0 -20 -0.5t-23 -0.5t-20 1t-18.5 4t-10.5 8q-48 67 -24 97q0 18 16.5 25t47.5 12q6 1 9 1q13 1 50.5 5t56.5 4q16 5 43.5 5t36.5 1q9 -1 82 4q18 2 42.5 1.5 t39.5 0.5q16 -1 42.5 0t38.5 0q44 6 87 0q41 -3 88 0q1 3 31.5 1.5t35.5 -1.5q9 1 33 -0.5t35 -1.5q8 0 30 -2t35 -2q6 -2 34.5 -0.5t33.5 -1.5q9 1 44 -3t44 1q14 1 44 -0.5t44 -1.5t43 -1t47 -1q8 -1 33 -0.5t35 -1.5q9 -3 20 -3.5t26.5 0.5t20.5 1q17 7 70 0q38 3 67 -3 q1 0 40 1t42 -1q12 3 25.5 3t30 -1.5t26.5 -1.5q41 3 82 0q55 -4 82 0q59 4 84 0h82h84q43 3 84 0q14 -2 42.5 0t41.5 0q16 -1 44 0t40 0h70q58 -5 65 -4q65 -11 92 -43q22 -32 13 -65q-16 -39 -50 -47q-12 -2 -34.5 0.5t-34.5 1.5q-4 0 -15.5 -1t-18.5 -1.5t-14.5 3.5 t-9.5 13q-4 15 8.5 20t30 3t31.5 0q3 0 11.5 1.5t13 2.5t12 2.5t12 3t9.5 3.5t7.5 5t2.5 6q0 20 -41 41q-9 4 -23.5 6.5t-26.5 3.5t-32.5 2.5t-30.5 2.5q-30 -3 -63 -3q-10 -1 -28.5 -1t-27.5 -1h-96q-31 -2 -98 2q-11 0 -31 -0.5t-36 -0.5t-30 1q-9 0 -29 0.5t-37 0.5 t-32 -1q-15 2 -49.5 0.5t-46.5 -0.5t-44 1t-52 2q-14 -2 -30 -2t-36 1t-31 1q-51 4 -73 0q-38 -8 -70 0q-23 -4 -72 0q-35 -3 -69 0q-63 -4 -95 2q-14 3 -29.5 3.5t-36.5 -0.5t-28 -1q-38 -10 -94 4q-51 -4 -94 4q-45 -12 -94 2q-20 3 -50 2.5t-45 1.5q-10 4 -48 2.5 t-48 -0.5h-94q-38 2 -96 -2q-75 -8 -97 -4q-7 -1 -34.5 -1.5t-40.5 -2.5l-24 -3t-29 -3t-23 0q-15 0 -39 -1t-35 -1q-35 -7 -65 -19z" />
<glyph unicode="4" horiz-adv-x="1701" d="M858 754q-4 -1 -6 -3q-1 -1 -2 1q-14 10 -14 16q-6 8 -22 22t-21 21q-1 3 -3.5 5t-1.5 7q12 16 15 19q5 4 15.5 15t17.5 15q3 2 7.5 8.5t8.5 8.5q2 2 5 -0.5t6 -6.5l3 -5q3 -3 11.5 -12.5t15.5 -12.5q17 -14 20 -25q6 -15 -18 -39q-8 -5 -20.5 -17.5zM852 858 q-28 -34 -33 -37q9 -6 21 -21t18 -20q6 6 16.5 20t16.5 21q-6 5 -18.5 17.5t-20.5 19.5zM1012 846q-12 -18 -21 -25q5 -2 12 -12.5t11 -13.5q6 16 20 26q-5 6 -11.5 13t-10.5 12zM1016 776q-2 0 -2 -1q-1 -2 -4 -1q0 2 -2 4.5t-4 3.5l-3 2q-4 6 -14 16.5t-12 14.5q0 2 -1 2 l-1 6q7 7 8 11q1 7 9.5 12.5t10.5 9.5q-3 3 3 5q5 3 8 5q8 0 8 -8q1 -5 3 -8t7 -5t6 -3q6 -2 11.5 -7.5t1.5 -9.5q3 -7 0 -12.5t-8 -9t-5 -4.5q-1 -1 -7.5 -11t-12.5 -12zM1124 797q18 18 21 24q-5 3 -12.5 12.5t-10.5 10.5q-6 -6 -11 -13.5t-7 -9.5q3 -3 9.5 -13t10.5 -11z M1114 856q4 8 8 8q0 3 8 -4q2 -2 3 -4q1 -1 3.5 -6t5.5 -8.5t7 -3.5q1 -2 3.5 -5.5t4 -5.5t2.5 -4q0 -6 -1.5 -10t-3.5 -6l-4 -4l-3 -2q-6 -19 -21 -21l-4 -4q-2 2 -4 5.5t-4 4.5q-16 10 -24 27q1 5 -2 6t-3 2q-2 3 1.5 9t9.5 6q8 6 18 20zM1237 797q13 13 16 24 q-6 5 -20 23q-10 -20 -16 -23q0 -3 8.5 -11t11.5 -13zM1227 856q0 4 4 5q2 0 4 1q5 0 8 -8q1 -4 8 -9t9 -9q4 -4 10 -13q0 -4 -6 -10.5t-4 -9.5q-7 -14 -21 -21q-4 -2 -6 -2q-8 6 -8 8q-3 3 -19 23q0 4 -6 10q-1 3 0.5 5.5t4 5.5t3.5 4q2 2 8.5 10t10.5 10zM1348 799 q1 2 7.5 9.5t8.5 12.5l-2 7q-3 8 -6.5 10.5t-9.5 3.5q-15 -9 -19 -21q6 -1 12 -10.5t9 -11.5zM1339 854q1 3 3.5 3t3.5 3q7 4 9 -4q1 -3 -1 -4q2 -5 9 -11t9 -10q3 1 4.5 -2t1.5 -8q0 -14 -8 -14q-3 -6 -9.5 -12t-8.5 -9l-1 -2q-1 -2 -5 -2q-9 0 -9 6q-3 3 -8.5 11t-7.5 10 q0 2 -3.5 5t-4.5 5q-1 3 0.5 5.5t5 6t4.5 5.5q6 4 9.5 9.5t6.5 8.5zM1458 801q4 4 8.5 10t8.5 10q-8 10 -19 21q-3 -2 -8 -9.5t-8 -11.5q7 -12 18 -20zM1454 854q2 4 3 4h1q2 6 8 -3q2 -4 0 -5q2 -2 4 -7t5.5 -8t9.5 -6q2 -7 4 -8q-2 -1 -4 -6.5t-4 -5.5q-17 -9 -17 -18 q-2 0 -2 -1.5t-0.5 -3.5t-3.5 -2q-1 -1 -2 0.5t-2.5 3.5t-3.5 3l-8 8t-6 8q-1 0 -3 1t-4.5 4t-1.5 7q1 2 4.5 8.5t4.5 8.5q2 2 4.5 3.5t4 3t4 4.5t5.5 7zM1569 803q5 2 9 9.5t5 8.5q-2 2 -6 9t-10 12q0 -6 -15 -21q5 -2 8.5 -9t8.5 -9zM1567 854q3 0 4 2q2 -2 3 -5t1 -3.5 t2 0.5q10 -8 18 -23q-2 -2 0 -3t4 -3q0 -4 -8 -8q-4 -16 -14 -16q-3 -7 -8 -9q-2 -8 -5 2q-1 3 -1 5q0 5 -13 12q-10 5 -10 12q-3 8 10 21q6 7 11 11t6 5zM670 821q12 -20 18 -26q13 11 25 26q-13 5 -21 25q-9 -5 -22 -25zM666 799q-18 18 -11 26q-1 4 0 6.5t2.5 3.5t5 3.5 t5.5 3.5q-2 4 4 10t12 6q1 1 2.5 4.5t2.5 4t3 -0.5q2 -2 4 -6t6 -4q2 -5 10.5 -11t10.5 -11q3 0 7 -3t1 -8q0 -3 -2 -5t-2 -3q-3 -1 -7 -6.5t-9 -13t-9 -11.5l-3 -4q-3 -5 -5 -6l-6 2q-6 5 -22 23zM600 821q-3 0 -5.5 1.5t-4 3t-3 4t-2 4.5t-1.5 5.5t-2 4.5q-1 -3 -11 -11 t-12 -12q11 -8 19 -24q3 2 11 11.5t11 12.5zM608 836q2 0 6.5 -6t1.5 -9q0 -4 -4 -8q-1 -2 -9.5 -11t-12.5 -16q-3 0 -8 -10q-6 -1 -6.5 -0.5t-0.5 4.5q-4 1 -6.5 4t-6 8t-7.5 9q-3 5 -10 22q4 12 10 15q0 3 2.5 5.5t7 6t6.5 6.5q0 2 11 8q-1 -1 1 -1q1 -1 2 -1.5t2.5 -2 t2.5 -3.5q1 -1 5.5 -8.5t12.5 -11.5zM487 821q-13 19 -18 23q-6 -5 -12 -13t-8 -10q5 -3 9 -11.5t9 -12.5q5 4 10.5 12.5t9.5 11.5zM496 836q8 -8 8 -15q-2 0 -4.5 -4.5t-1.5 -5.5q-19 -19 -21 -23q-4 0 -8 -8l-1 -1q0 3 -3 3h-2q-14 10 -19 21q0 1 -5 6.5t-5 13.5 q0 11 8 13q15 10 19 18q1 1 2 4q2 5 4 6q1 0 2 -2q9 0 9 -3q0 -2 -1 -3q3 -4 19 -20zM375 821q0 4 -17 21q-1 -2 -8.5 -8.5t-9.5 -12.5q1 -3 7.5 -10.5t8.5 -11.5q6 14 19 22zM381 836l2 -2q2 -1 3.5 -2.5t3 -3.5t1 -4t-1.5 -5q2 -5 1 -6.5t-4 -2t-3 -1.5q-5 -2 -18 -21 q-3 -6 -7 -6q5 5 -2 5q-2 0 -6 -1q-2 3 -8.5 9t-7.5 12q-11 11 -8 14q0 8 6 10q10 5 16 21q3 8 8 8q9 0 6 -6q17 -18 19 -18zM264 821q-2 7 -16 21q-2 -3 -9.5 -10.5t-9.5 -10.5q2 -5 8.5 -11t8.5 -9q3 2 7 10t11 10zM266 836q7 -3 10 -17q0 -10 -8 -12q-11 -6 -14 -16 q-1 -1 -2 -3t-2.5 -3.5t-3.5 -0.5q-1 -1 -5 5l-1 2q-4 4 -8.5 7.5t-6 5.5t-2.5 5l-4 4q-4 2 -4 8q4 4 4 8q1 1 5.5 4.5t8 8t5.5 8.5q2 2 3.5 5t2 3.5t2.5 -0.5q1 -1 2 -3q1 -3 2 -1q3 0 5 -2t5 -7.5t6 -8.5zM152 821q-9 7 -15 21q-5 -4 -10 -11.5t-8 -9.5q3 -2 6.5 -6 t6 -7.5t3.5 -4.5l3 4q4 4 7.5 8t6.5 6zM154 838q8 -4 8 -21q0 -4 -2 -7t-4 -4l-2 -1q-4 -3 -13 -12q0 -2 -3.5 -3.5t-4.5 -3.5q-1 0 -3 4.5t-3 4.5l-16 16q-1 3 -4.5 4t-2.5 4q3 3 2 6q16 3 21 23q0 2 2.5 5t3.5 3t1 -1q-1 -2 3 -1q2 -1 17 -16z" />
<glyph unicode="5" horiz-adv-x="1699" d="M856 772q-2 4 -5.5 0.5t-4.5 -2.5t-7 7.5t-8 8.5q-10 21 -40 43q0 4 -4 7t-1 6q0 5 7.5 11t7.5 7q1 1 11 12.5t19 18.5q4 0 7 3t6 7.5t4 5.5q11 -3 16 -12q21 -21 27 -25q1 -1 5 -3.5t5.5 -4l4.5 -4.5t4 -6t1 -6q1 -16 -5.5 -27.5t-14.5 -11.5zM1012 795l-4 -2 q-7 8 -11 10q-7 17 -24 31l-4 8q0 1 1 2q4 10 9 8q3 3 18 22q2 1 5 5t6 6q3 1 6.5 -2t3.5 -6q13 -13 14 -17q4 -2 9 -8.5t6 -7.5q2 -5 0 -10t-7 -10.5t-6 -6.5q-6 -4 -9.5 -7.5t-6.5 -7.5t-6 -7zM1122 813q1 8 9 15.5t10 11.5q-7 1 -21 22q-17 -17 -20 -22q4 -4 10.5 -13 t11.5 -14zM1110 874q5 1 10 9q2 0 4 -5t4 -4q11 -14 17 -18q1 -3 4 -6t5 -4.5t1 -3.5q0 -13 -10 -23q-19 -19 -21 -20q-2 1 -6 -4q-4 -2 -6 0.5t-2 6.5v3q-13 22 -23 26l-4 9q0 5 9 14q3 1 6 4.5t6.5 8.5t5.5 7zM1233 815q14 21 18 25q-5 1 -8 4t-7 9.5t-5 8.5 q-2 -7 -10 -14t-9 -8q4 -3 10 -11.5t11 -13.5zM1225 874q6 6 6 7q0 -2 3.5 -6t4.5 -3q0 -3 8.5 -9.5t9.5 -8.5q3 -3 6.5 -7.5t2.5 -4.5q4 -6 -3.5 -13t-7.5 -8q-4 -1 -6.5 -2t-3.5 -3l-2 -4l-2.5 -5t-3.5 -6q-3 1 -4 -1q0 -2 -2 -3l-8 9v1q-9 5 -21 22q-2 1 -3 5t-3 6 q1 2 4.5 7t5.5 7q6 12 19 20zM1343 817q3 12 19 23q-11 15 -21 20q-1 -1 -8 -10t-8 -10q3 -3 8.5 -11t9.5 -12zM1337 872q1 1 1 4q1 4 2 4.5t3 -1.5q3 0 4.5 -1.5t2.5 -4t2 -3.5q2 -2 5.5 -8t6 -9t6.5 -3q3 1 4.5 -2t1.5 -8q3 -8 -10 -17q-6 -8 -16 -18q-2 -1 -1.5 -2.5 t0 -2t-5.5 0.5q-3 0 -7 1.5t-1 4.5q-1 1 -7 10t-11 10q0 3 -3.5 6t-2.5 5q-1 5 3.5 10t4.5 6zM1454 819q7 4 16 21q-15 15 -18 20q-14 -9 -14 -20q10 -15 16 -21zM1450 872q6 0 6 5l6 -9q6 -12 19 -22q8 -8 4 -8q-2 0 -4 -4t-2 -7q-4 -3 -9 -9.5t-8 -8.5q0 -6 -8 -6 q0 -5 -4.5 0t-1.5 6q-2 4 -9 9t-7 7q-1 2 -3 4t-4 3t-3 3t1 3q-2 4 0 6.5t5.5 4.5t5.5 5q3 3 8.5 9.5t7.5 8.5zM1567 821q2 2 4.5 6.5t5 8.5t4.5 4q0 1 -8.5 7.5t-7.5 10.5q-3 -2 -8.5 -9.5t-8.5 -8.5q0 -2 3.5 -5t8.5 -7t7 -7zM1563 872q1 -1 4 2q1 -1 4 -2.5t4 -3t0 -2.5 q2 -5 9.5 -12.5t8.5 -9.5q-1 -7 0 -8l2 2q2 -5 -6 -9q-2 0 -7 -8t-7 -8t-3 -1t-2.5 -3.5t-2.5 -3.5q-5 -5 -8 6q-1 1 -2.5 3.5t-3.5 5t-5 3.5q-2 2 -5 5.5t-5 7.5q-4 8 8 20q3 3 8.5 8t8.5 8zM664 817q-1 2 -6.5 6.5t-7 9t0.5 11.5q0 13 13 16q6 4 16 17q4 0 10 8 q6 -9 8 -11q17 -10 21 -22q3 1 4.5 -1t2 -5t1.5 -4q4 -2 1.5 -4t-3.5 -4q-16 -20 -27 -31q0 -4 -3 -7t-5 -3q-1 0 -4 2q-6 3 -11.5 11.5t-10.5 10.5zM596 840q-1 2 -8 9t-10 13q-5 -5 -11.5 -11t-11.5 -11q4 -3 10 -12.5t10 -14.5q3 4 7.5 10.5t7.5 11t6 5.5zM606 854 q8 -8 8 -14q-2 -2 -2 -3q0 -2 -2 -6q-1 -2 -10.5 -11.5t-11.5 -14.5l-10 -10l-1 1q0 4 -4 3q-4 2 -9.5 9.5t-10.5 10.5q-14 10 -12 23q4 6 12 14q2 11 16 18q2 1 2.5 2t0.5 2.5t1.5 2.5t4.5 2q-2 -2 -0.5 -4.5t4.5 -4t4 -0.5q9 -4 20 -20zM485 840q-4 2 -7 5.5t-6 9t-5 7.5 q-3 -1 -10 -10.5t-11 -11.5q7 -5 19 -25q4 3 10 12.5t10 12.5zM492 854l4 -5q4 -5 4 -9q-1 -2 -2.5 -4t-1.5 -7q-1 -1 -8.5 -9.5t-12.5 -12.5q-2 -2 -3 -5t-2 -4.5t-3 -0.5l-6 4q-4 1 -9.5 10t-9.5 10q-9 18 -10 21q4 8 8 12q2 3 8 8.5t9 9.5q0 6 5 10q2 2 3 -1q-2 -5 5 -7 q3 -1 3 0q2 -3 19 -20zM373 840q-12 7 -17 20q-16 -9 -20 -20q1 -3 16 -23q21 11 21 23zM377 854q10 -15 10 -16q-5 -9 -8 -11q-1 -2 -7.5 -8t-9.5 -12q-7 -4 -8 -6q-2 0 -3 1.5t-3 2.5q-3 6 -18 18q-1 1 -4.5 5t-4.5 6t1 6q3 10 6 10t18 20q4 9 8 9q4 1 5 0t0 -3t1 -4 q3 -1 5.5 -4t6 -7.5t5.5 -6.5zM260 840q-4 3 -9 11t-7 9q-3 -4 -10.5 -12t-8.5 -8q4 -4 9 -11.5t8 -9.5q4 0 9 9.5t9 11.5zM264 854q11 -3 8 -16q4 0 -3 -9q-2 -2 -5 -4q-6 -12 -14 -16q1 -1 0.5 -3t-3 -3t-5.5 0q-3 6 -6 6q-2 3 -8.5 7.5t-8.5 10.5q-8 4 -8 11 q-1 1 0.5 4.5t3.5 3.5q1 1 4.5 6t8 9.5t8.5 6.5q7 7 6 9q2 -1 3.5 -3t2.5 -2q3 -3 6.5 -6t5.5 -5t4 -7zM147 840q0 5 -3.5 11.5t-10.5 6.5q-4 -3 -7 -6t-5 -6.5t-4 -5.5q0 -3 5 -10.5t9 -8.5q6 2 10 6t5.5 8t0.5 5zM150 856q0 -1 4.5 -7t5.5 -13q0 -2 -3.5 -7t-6.5 -6 q-1 -4 -5 -6l-8 -6q-2 0 -6 -6q-3 0 -4 1t-2 3.5t-2 3.5q-3 4 -7.5 7t-6.5 9q-1 0 -3 4.5t-4 4.5q2 2 1 3t1 3q6 9 19 22q4 2 6 8q1 0 2 -1.5t2 -0.5q11 -8 17 -16z" />
<glyph unicode="6" horiz-adv-x="2934" d="M2730 975q55 -4 78 -29q27 -27 22 -82q0 -18 -14 -53q-9 -19 -41 -70q-25 -46 -57 -51q-19 -12 -60 -12q-35 10 -51 22l-12.5 12.5t-14.5 17t-6 15.5q-4 8 -5.5 17t-1.5 14t1.5 17t1.5 16q2 7 5.5 12t10 11t9.5 10q19 19 31 28q6 6 33.5 8t39.5 -10q8 -13 -1 -44.5 t-23 -32.5q-5 -4 -15 -0.5t-22 10.5t-17 8q-5 -74 25 -80q12 1 17 -1t16 3t15 6.5t14 9t13.5 10.5t12.5 11t12 10q42 25 47 90q0 32 -7 45t-31 23q-16 1 -35 1t-43 -0.5t-37 -0.5q-46 -4 -60 0q-5 1 -26 1.5t-29 2.5q-14 -1 -38 1.5t-36 0.5q-10 -14 -36 -33q-11 -6 -48 -37 q-24 -24 -55 -32q-14 -5 -37.5 -20t-38.5 -19q-9 -1 -29 -2t-30 -2q-6 0 -19.5 1.5t-25 1.5t-21.5 -3q-27 -2 -63 -2q-9 -1 -30.5 -1t-32.5 -1q-10 -1 -33 0.5t-33 -0.5q-10 -1 -22 -1t-24.5 0.5t-17.5 0.5q-9 -2 -31.5 -1t-31.5 -1q-14 3 -34.5 -0.5t-26.5 -2.5 q-12 1 -36 -0.5t-30 -1.5q-16 0 -47.5 -2t-50.5 -2q-36 -4 -99 0q-29 3 -65 0q-40 4 -66 2q-25 -2 -65 2q-10 1 -33.5 0.5t-32.5 1.5q-54 5 -61 3q-10 2 -64 2q-28 3 -63 0q-9 -1 -34 1.5t-32 -1.5q-43 5 -63 0q-15 -1 -64 4h-65q-12 1 -23 0t-21.5 -0.5t-15.5 4.5 q-18 3 -40 18.5t-35 20.5q-9 6 -19 11.5t-21.5 11.5t-17.5 9q-25 9 -45 37q-4 2 -17.5 17t-21.5 16q-9 0 -35.5 -1.5t-35.5 -0.5q-3 -5 -28.5 -4.5t-29.5 0.5q-13 1 -29.5 0t-27.5 0q-21 -3 -60.5 -0.5t-54.5 0.5q-28 -11 -36.5 -24.5t-2.5 -43.5q8 -67 47 -90 q4 -2 19.5 -14.5t25.5 -19t25.5 -12t28.5 -3.5q19 4 23.5 23.5t2.5 56.5q-25 -25 -55 -18q-18 0 -26.5 30t2.5 47q6 8 23 8t33.5 -3.5t18.5 -2.5q2 -5 5 -9t5 -5.5t8.5 -6t10.5 -7.5q7 -4 15 -15.5t10 -17.5q11 -21 -3 -64q-8 -39 -32 -45q-10 -3 -27.5 -12t-23.5 -10 q-43 -5 -60 12q-36 20 -57 51q-23 20 -32.5 33.5t-10.5 36.5q-11 46 -15 53q-3 57 25 82q33 29 78 29q36 -8 67 0q10 -1 39.5 2t36.5 -2q8 0 25.5 -1t29 -0.5t21.5 3.5q6 -1 31.5 -0.5t36.5 -1.5q13 -2 20 -5t19 -12.5t22 -15.5q7 -2 17.5 -16t19.5 -19q56 -48 90 -53 q10 -2 41.5 -0.5t46.5 0.5q10 2 36 0.5t38 -0.5q47 6 74 -2q36 -3 71 0q14 -2 36 -1.5t36 -0.5q13 1 37.5 -1t34.5 -1q9 -2 34.5 -0.5t36.5 0.5q28 0 78 -4q40 -6 78 -6q73 0 108 -2q41 -2 109 2q11 -1 24 0t28.5 3t23.5 3q14 1 39.5 2t40.5 2q7 4 33 1.5t38 -1.5 q38 -4 72 2q11 -1 34.5 0t37.5 0q12 -1 35 1.5t36 0.5q38 -4 74 2h74q10 0 27.5 -1t32 -1t28.5 2q30 5 90 53q6 3 18.5 16.5t18.5 18.5q7 5 19 14.5t20.5 13.5t21.5 5q13 2 34 1t34 1q23 2 76 -2q37 -3 73 0q12 2 35.5 0.5t34.5 -0.5z" />
<glyph unicode="7" horiz-adv-x="2525" d="M2406 948q18 -25 15 -88q0 -18 -12 -44.5t-13 -31.5q-43 -39 -65 -45q-7 -7 -27.5 -10t-26.5 -6q-16 1 -22.5 0.5t-19.5 -3t-21 -3.5q-38 3 -68 0q-13 -1 -65 4q-5 0 -27 3t-39 1q-4 1 -61 8q-40 6 -62 6q-16 6 -61 6q-24 -3 -68 7q-8 0 -32 3t-35 1q-2 -4 -34 -1l-32 3 q-17 -3 -33.5 -1.5t-27.5 -0.5q-31 3 -60 -8q-26 -4 -57 -13q-13 -8 -48 -19t-50 -20q-34 -8 -68 -61q-7 -4 -8 -21.5t-8 -19.5v-2q-2 2 -3 0l-1 -2q-2 2 -4 2q3 -1 1 -3q-4 -3 -6 1q3 -1 1 1q-4 3 -3 3q-7 5 -9.5 19.5t-8.5 21.5q-11 33 -66 61q-6 3 -28.5 14.5t-38 17 t-31.5 7.5q-10 -1 -18 1t-19 6t-20 6q-7 0 -25.5 4.5t-34.5 3.5q-10 3 -21 3.5t-24.5 -0.5t-17.5 -1q-66 -4 -98 -4q-10 -1 -47 -2.5t-56 -6.5q-16 -2 -59 -6q-7 -1 -29 -1t-33 -5q-10 0 -31.5 -4t-31.5 -4q-14 0 -64 -4q-4 -1 -29.5 -1.5t-35.5 -2.5q-3 -4 -30 -1.5 t-38 1.5q-10 0 -32 3.5t-33 2.5q-7 2 -18 4.5t-19 5t-14 6.5q-50 14 -66 45q-23 46 -25 76v14v16t1 14t2.5 16t4.5 13.5t7 14.5q10 15 29.5 26.5t39.5 8.5q25 2 47 -8.5t23 -34.5q5 -7 -8 -25q-12 -12 -30.5 -7t-18.5 22q-1 11 9 13t21 -1q-20 18 -50.5 15.5t-39.5 -23.5 q-18 -26 -12 -64q-3 -39 14 -63q9 -21 68 -47q26 -9 72 -15q15 -1 44 -1t42 -1q9 0 35 3t45 2q27 6 86 6q12 3 42 5t44 5q45 10 90 10q39 -8 88 6q19 0 46 1t42 1q11 1 42 -2t46 -2q7 -1 25 -3t31 -4.5t26 -6.5q15 1 24 -1t21.5 -9t17.5 -9q14 2 32 -6t24 -18 q13 -6 25 -15.5t19 -17.5t19 -23t18 -22q-2 -2 0 -3q2 0 3 -1.5t2 -5.5q-2 2 3 10q3 3 3 0q4 6 13.5 19t12.5 17t10.5 12.5t12.5 12t13.5 8.5t19.5 9q7 3 21.5 12t33.5 15q13 -2 32 7.5t31 8.5q11 4 41.5 8t40.5 6q10 5 45.5 4.5t40.5 -0.5q13 -1 43 0t47 0q58 0 89 -8 q75 -9 88 -10q26 -6 88 -10q17 -4 47 -4t37 -2q8 -1 26.5 -3.5t27 -2.5t28.5 1q59 0 86 2q13 1 71 15q34 9 68 47q1 6 5.5 17t7 22t1.5 24q-6 53 -12 64q-13 20 -40 21.5t-50 -13.5q25 -4 30 -12q-2 -14 -19.5 -21t-29.5 6q-5 0 -8 9t0 16q4 24 24.5 35t45.5 8 q21 -2 41.5 -11.5t27.5 -23.5z" />
<glyph unicode="8" horiz-adv-x="2811" d="M2707 844q3 -37 -32 -76q-25 -19 -66 -25q-42 -7 -80 2q-6 0 -13 3t-11 6t-12.5 10t-12.5 10q-2 1 -18.5 16t-28.5 15q-2 4 -30.5 1.5t-41.5 -1.5h-84q-35 -2 -82 2q-56 0 -81 4q-51 0 -80 2q-43 7 -80 4q-35 0 -76 6q-36 6 -63 4q-32 7 -68 2q-58 0 -70 -2 q-8 -2 -32 -3.5t-37 -4.5q-60 -13 -84 -24q-16 -6 -40.5 -20t-31.5 -17q-33 -20 -35 -35q3 -3 0 -5l-1 1l1 2q-5 -5 -20 -3q-2 2 -2 3q-1 -2 -7.5 7t-15.5 19.5t-14 12.5q-11 10 -72 37q-10 2 -38.5 12t-45.5 12q-11 2 -34 4t-33 4q-2 0 -33.5 2.5t-38.5 -0.5q-4 0 -32.5 -4 t-35.5 2q-12 1 -33 -2.5t-28 -1.5q-13 -3 -42.5 -3t-35.5 -1q-12 -4 -39.5 -2.5t-40.5 -3.5q-14 4 -43.5 0.5t-36.5 -2.5q-11 -2 -40 -1.5t-42 -2.5h-82q-31 2 -83 -2q-59 4 -72 0q-16 0 -47 -31q-11 -11 -49 -28q-32 -16 -80 -3q-23 3 -66 27q-12 10 -22.5 32t-10.5 44 q3 45 48 78q39 28 96 18q23 -5 33.5 -21.5t2.5 -33.5t-32 -23q-44 0 -51 13q-3 8 9 19t23 15q4 -3 5.5 -6.5t1.5 -6t1.5 -4t6.5 0.5q6 0 7.5 2.5t-0.5 6t-5 5.5q-3 5 -13.5 4.5t-11.5 -0.5q-43 -7 -61 -18q-31 -27 -29 -51q0 -38 29 -55q24 -12 53 -17q16 -1 35.5 0.5 t23.5 1.5q10 6 24.5 16.5t20.5 14.5q24 28 52 31q10 1 23 1t29.5 -0.5t25.5 -0.5h77q2 -3 41 -2l39 2q11 0 38 2.5t40 1.5q14 2 40.5 2.5t35.5 1.5q11 0 36 2t38 2q14 -4 73 4q20 4 72 4q9 3 21.5 3.5t24.5 0t30 0.5q9 0 39 -4t36 0q15 -3 36.5 -3.5t33.5 -2.5q9 -3 24.5 -5 t27 -4.5t14.5 -6.5q16 -1 45 -16t37 -17q50 -37 57 -53q18 36 59 51q74 29 80 33q13 2 36.5 7.5t29.5 6.5q54 4 69 8q43 7 76 2q15 2 38.5 -1.5t37.5 -0.5q14 1 37.5 -3t34.5 -1q11 1 37.5 -1.5t35.5 -2.5q8 -1 23 -0.5t27.5 -0.5t23.5 -5q47 0 76 -4q17 1 46.5 -0.5 t31.5 -1.5q24 -4 80 0q13 4 42 1.5t37 -1.5h78q3 -2 13 -10.5t19 -14t17 -6.5q4 -2 11.5 -11t16 -14.5t19.5 -5.5q6 -1 26 -1t32 -1q48 7 55 16q27 19 27 56q-2 22 -29 49q-9 8 -59 20q-2 0 -6.5 0.5t-8 0.5t-7 -1t-5.5 -4q-9 -14 2 -14q3 -1 4 1.5t1 6t3 6.5t8 2 q13 0 23 -11.5t8 -22.5q-1 -5 -4.5 -8t-10 -4t-11.5 -1.5t-13.5 0t-11.5 0.5q-22 4 -29.5 21.5t2.5 35t31 21.5q55 6 96 -18q1 -1 9 -8.5t9 -9t7 -8t7.5 -9.5t5 -9t5 -10.5t3 -11.5t1.5 -14z" />
<glyph unicode="9" horiz-adv-x="2744" d="M2642 854q0 -65 -32.5 -112.5t-82.5 -47.5q-24 0 -60.5 22t-69 49t-74.5 49t-76 22q-81 0 -237 1t-234 1q-59 0 -172.5 -4.5t-137.5 -4.5q-14 0 -45.5 3.5t-48.5 3.5q-19 0 -53.5 -3.5t-50.5 -3.5q-96 0 -105 9q-101 0 -298.5 -1t-301.5 -1q-82 0 -103 -4t-50 -29 q-16 -13 -32.5 -23t-42 -23.5t-36.5 -19.5q-10 -5 -24.5 -17t-27 -19t-28.5 -7q-44 0 -80.5 43t-36.5 99q0 48 38 82t73 34q31 0 52.5 -20.5t21.5 -52.5q0 -33 -25 -56.5t-67 -23.5q-27 0 -27 26q0 18 9 30.5t22 12.5t23.5 -9.5t13.5 -10.5q16 5 16 29q0 21 -10.5 32 t-26.5 11q-32 0 -55 -30.5t-23 -55.5q0 -42 25.5 -73.5t52.5 -31.5q12 0 23.5 5.5t26.5 17.5t18 14q30 16 62.5 39.5t50 35t53 20.5t86.5 9q121 0 355 2t359 2q88 0 123 -4q39 4 125 4q420 0 641 -4q83 0 131 -7.5t66.5 -16t56.5 -35t72 -45.5q4 -3 18 -14t25 -17t22 -6 q29 0 53.5 31.5t24.5 73.5q0 25 -22.5 55.5t-55.5 30.5q-14 0 -24.5 -12t-10.5 -31q0 -23 17 -29q1 0 10.5 10t24.5 10q13 0 22.5 -13t9.5 -30q0 -26 -28 -26q-40 0 -65 23.5t-25 58.5q0 31 20 51t51 20q30 0 68.5 -29.5t42.5 -68.5zM2255 793q49 -5 49 -21t-100 -16 q-675 0 -824 -74v-8l-8 4q-1 -1 -3 -2t-3 -2v8q-2 1 -7 4.5t-7 5.5q-8 5 -17 9.5t-21.5 8t-21.5 6t-25 5t-24 3.5t-26.5 2.5t-24.5 2t-27 1.5t-24 1q-44 2 -127.5 7.5t-136.5 9t-137 6t-169 2.5q-129 0 -129 16q0 23 93 23q122 0 348 -6.5t338 -6.5q29 0 43 -2q62 0 102 23 v6q2 -2 6 -2q6 0 8 2v-6q33 -23 101 -23q16 2 43 2q109 0 331.5 6.5t356.5 6.5q31 0 43 -2z" />
<glyph unicode=":" horiz-adv-x="1994" d="M1890 856q0 -3 -0.5 -5t-2.5 -3.5t-4 -2.5t-5.5 -1.5t-6.5 -1t-7 -0.5h-6.5h-7h-5.5q-9 0 -30 -1t-23 -1q-39 -2 -113 -2q-71 0 -219 -9q-161 -9 -217 -14q-12 -1 -33.5 -1t-39 -1t-33.5 -4q-91 -17 -117 -35q-14 -9 -16 -10v-8q-1 1 -3.5 2t-3.5 2l-8 -4v8q-2 1 -7 4.5 t-7 5.5q-26 18 -117 35q-16 3 -33.5 4t-40 1t-34.5 1q-46 4 -215 14q-149 9 -220 9q-75 0 -112 2q-2 0 -24.5 1t-31.5 1h-4q-43 -1 -39 14q1 5 9 6t21.5 -0.5t15.5 -1.5q152 4 276 -2h92q47 0 142 1t141 1q11 0 31 -0.5t35.5 -0.5t29.5 1q1 0 31 6q5 2 15 4t15 4t15.5 8.5 t15.5 8.5v6q6 0 8 -2q2 2 7 2v-6q5 -2 16 -8.5t16 -8.5q4 -2 15 -4t16 -4q30 -6 31 -6h96q46 0 141 -1t142 -1h92q123 6 274 2q2 0 15.5 1.5t22 0.5t9.5 -6z" />
<glyph unicode=";" horiz-adv-x="3018" d="M221 848q-6 27 -37.5 20.5t-33.5 -30.5q0 -12 13.5 -24.5t33.5 -16.5q34 -10 79 -15q15 -2 44.5 -3t44.5 -3q15 1 44.5 0t43.5 0q24 -4 90 0q7 0 26.5 1t34.5 0.5t29 -3.5q30 4 90 0q11 1 45 -1.5t45 1.5q12 -1 45 1.5t45 -1.5q8 2 41 0.5t49 -0.5h88h90h89q61 0 90 -2 q63 4 90 0q13 1 45 -0.5t45 0.5q44 3 90 0q31 2 88 2q14 1 44.5 1t43.5 1q50 9 86 4q10 -3 42 -0.5t42 2.5q15 1 43.5 1t42.5 1q16 0 45 2t43 2q59 4 90 -2q6 0 17.5 1t21.5 1t19 -2l30 -1q29 -1 29 1q39 -5 61 0q15 3 23.5 3t20.5 -2.5t16 -2.5q10 -1 29.5 0t31.5 0 q3 4 26 1.5t36 -1.5q15 -5 67 0q13 1 23.5 0t21.5 -0.5t17 4.5q25 1 63.5 13.5t44.5 13.5q16 7 30 22t11 27q3 21 -84 21q-4 -2 -16.5 -12t-22.5 -13q-26 -2 -48 7t-23 26q-4 21 12.5 29t42.5 10q11 -2 33.5 0.5t34.5 1.5q9 -2 31.5 -5t31.5 -5q66 -26 51 -82 q-8 -42 -45 -58q-11 -6 -32.5 -14t-30.5 -12q-6 -1 -21.5 -5.5t-29.5 -7t-25 -2.5q-16 1 -44.5 -1.5t-41.5 -2.5q-11 -3 -43.5 -0.5t-48.5 0.5q-11 0 -30.5 -1.5t-34.5 -1.5t-29 3q-15 0 -45.5 1t-47.5 1q-15 -2 -31.5 -2t-34 1t-24.5 1q-17 -1 -47.5 0t-42.5 0 q-17 3 -45.5 -0.5t-42.5 0.5q-15 -3 -28.5 -3.5t-32 0.5t-27.5 1q-61 0 -88 -2q-16 -1 -43.5 -1t-42.5 -1q-73 0 -98 -4q-13 -1 -50.5 -0.5t-50.5 -1.5q-14 -1 -48.5 -1t-51.5 -1q-14 1 -48.5 0t-51.5 0q-17 -1 -51 -1t-52 -1h-94l-45 1q-45 2 -47 -1q-15 0 -48 1t-46 1 q-47 3 -95 0h-94q-15 0 -45.5 1t-48.5 1q-14 -1 -46 0t-48 0q-10 0 -28.5 -0.5t-34 -0.5t-31.5 1q-64 0 -95 2q-12 -2 -46 -0.5t-46 0.5q-14 1 -45 2t-45 2q-40 -2 -88 10q-36 3 -70 25q-25 11 -36 41q-19 59 22 82q33 29 96 22q82 -10 84 -41q1 -16 -16.5 -26.5t-38 -10 t-35.5 10.5z" />
<glyph unicode="&#x3c;" horiz-adv-x="598" d="M489 840q5 -2 5 -7t-5 -6q-3 -6 -10 -13t-8 -9q-3 -5 -11 -15.5t-11 -15.5q-12 -19 -15 -37q-1 -2 -1.5 -8t-1.5 -9.5t-5 -6.5v-4q-1 -1 -3 -3.5t-3 -3.5h-23q-20 -3 -43 0q-13 -3 -24 0q-17 0 -25 -2h-6q-8 4 -8 0q-6 2 -25 2q-12 -3 -24 0q-23 -3 -43 0h-23q-4 4 -4 7 q-2 2 -2 4q-3 5 -8 24q-2 16 -15 37q-3 6 -10 15.5t-10 15.5q-14 11 -21 22q-3 2 -3.5 6.5t3.5 6.5q5 1 16 -4t13 -5q9 3 20.5 -1t14.5 -11q3 -4 2.5 -14.5t-4.5 -11.5q2 -1 4 -5.5t4 -5.5q6 -6 31 -6q9 5 10 6v15q0 1 -1 4.5t-1 5.5q-10 -1 -14 7t-2 17q0 3 4 7t6 2 q12 4 19.5 -3.5t2.5 -19.5q2 -3 4.5 -8t4.5 -8q6 -6 12 -10q13 -6 24 2q9 9 15 24q3 9 0 33q-18 -4 -23 4q-11 16 -4 29l4 4q5 10 17 10q2 6 1 17t1 16l4 8q5 10 8 10q6 0 6 -10l4 -8q2 -4 1 -15t1 -18q12 -3 17 -10l4 -4q3 -6 2 -16t-4 -13q-6 -8 -25 -4q-4 -22 2 -33 q3 -12 12 -24q8 -11 27 -2l10 10q5 10 9 16q-6 10 2.5 19t19.5 4q1 0 10 -9q3 -9 -1 -17t-13 -7q-4 -2 -4 -10v-15q0 -1 10 -6q25 0 31 6q1 2 4.5 5.5t3.5 5.5q-11 7 -2 26q1 7 14 10.5t23 1.5q1 0 11 5t15 4z" />
<glyph unicode="=" horiz-adv-x="854" d="M379 913q8 -3 29 -9.5t32 -10.5q42 -18 62 -23q4 -2 9 -2t7 -0.5t2 -3.5q1 1 10.5 1.5t12.5 2.5q33 16 78 9q64 -4 92 -21q15 -22 10 -27q-21 -18 -61 -18q-32 0 -64 8q-8 4 -27 7t-30 8q-13 9 -23 6q-3 1 -12.5 -3t-11.5 -3q-53 -19 -74 -17q11 -17 45 -22q2 -1 5.5 -5 t8.5 -2q20 3 21 3q45 5 96 -9q2 -1 8.5 -2.5t9.5 -3t5.5 -6t1.5 -10.5q-4 -17 -48 -17q-16 0 -29 2.5t-28 7.5t-22 7q-11 8 -15 4q-1 -1 -9 -1.5t-9 -2.5q-12 -1 -32 -9.5t-23 -9.5q15 -4 67 -30q39 12 64 0q18 0 33.5 -8.5t11.5 -20.5q-3 -10 -14.5 -12.5t-31.5 0t-22 2.5 q-8 1 -24.5 8t-18.5 8q-21 -8 -22 -10q-6 -2 -11 -7t-4 -9q1 0 2 -4t2.5 -8t3.5 -3q10 -13 30.5 -19.5t39.5 -4.5q-70 -4 -90 22q-10 15 -2 33.5t22 21.5q-17 13 -63 27q-17 0 -23 6q-6 1 -20 1t-22 2t-7 9q1 11 11 13.5t23 0t15 -2.5q7 0 47 8q11 6 23.5 6.5t19.5 7.5 q-26 19 -49 25q-3 11 -16 8q-7 -5 -21 -2q-4 0 -23 -1.5t-27 -2t-22.5 0.5t-25.5 5q-1 1 -11.5 3t-15 7.5t0.5 16.5q13 21 75 16q7 -1 19.5 -4.5t22 -5.5t16.5 -2q2 -2 7 -2t7.5 -1t1.5 -5q19 10 25 4q12 1 35 9.5t36 6.5q-22 7 -63 23q-15 5 -36 9.5t-32 10.5q-2 0 -7 4 t-11 2q-3 0 -12 -2.5t-15 -3.5q-53 -4 -86 -10q-9 0 -29.5 -1.5t-31.5 -0.5q-11 -2 -22 0t-18.5 8t-4.5 12q0 17 43 23q9 -3 33.5 2t37.5 4q42 4 76 -4q8 2 17 -1.5t12 -2.5q5 -1 5.5 -0.5t4 2t8.5 2.5q7 1 18 1.5t18.5 2.5t16.5 8q-29 10 -59 10q-48 11 -57 13 q-8 4 -17.5 7t-15.5 4t-14.5 2t-10.5 1q-6 0 -24.5 7t-30.5 9q-14 7 -55 15q-4 0 -9.5 4t-7.5 4q12 4 64 0q8 -2 28 -5.5t33 -8.5q16 1 38 -8l22 -9q52 -8 71 -14q24 0 76 -15q5 -2 23 -2q3 2 17 5.5t18 5.5q36 20 108 32q12 2 33.5 2.5t28.5 2.5q19 -8 61 -11q7 -3 9 -4 t8.5 -5t8.5 -9t1 -12q-5 -18 -54 -31q-31 -8 -98 -8q-24 -3 -102 6q-5 2 -19.5 2.5t-17.5 1.5q-9 0 -21 -6q-11 -2 -33.5 -8t-25.5 -7zM635 981q-32 10 -66 -12q-51 -17 -59 -19h26.5t30.5 -4q9 3 29.5 0t28.5 0q59 -3 102 19q-25 16 -92 16zM176 907q43 0 66 4 q-40 -4 -66 -4zM563 850q51 -13 55 -12q40 -10 82 0q-43 16 -63 16q-18 1 -24.5 1t-23.5 -2t-26 -3zM270 831q16 1 37 -0.5t23 -1.5q-10 -1 -32.5 2.5t-27.5 -0.5zM545 770q3 1 11 -0.5t13 -1.5q-5 0 -15 2.5t-11 -0.5q-1 -2 0 -2t2 2zM545 688q-6 -4 -17 2q4 -8 17 -2z" />
<glyph unicode="&#x3e;" d="M1696 817q-15 -6 -51 0q-5 -2 -23.5 1.5t-22.5 2.5q-9 1 -58 2.5t-79 7.5q-23 -2 -69.5 1.5t-73.5 1.5q-48 9 -98 0h-97q-35 -8 -98 0q-7 0 -25.5 -1t-36.5 -1t-36 2q-10 0 -29 0.5t-34.5 0.5t-30.5 -1q-17 2 -52 -1.5t-45 -3.5q-60 4 -96 -2q-19 2 -48 -1t-46 -1h-105 q-74 4 -104 -2q-18 2 -105 2q-26 -4 -35 -4.5t-32.5 3t-30.5 3.5q7 -2 19 -9t20 -7q9 2 23 -8.5t10 -16.5q-10 -15 -29 -4q-9 3 -55 29q-7 1 -13 7.5t-8 12.5q3 12 29 19q21 9 39 14.5t29 9.5q24 9 29 3q2 -3 3 -7q3 -10 -7 -14t-17 -2q-10 10 -31 -8q20 2 58.5 -0.5 t54.5 -1.5q54 11 114 0q14 -1 53.5 1.5t61.5 0.5q13 1 58 -1t55 3q71 0 114 2q45 7 113 4q29 -2 86 2q15 -1 42 -1t44 -1q9 1 38.5 -0.5t49.5 0.5q12 0 30 0.5t31 0.5t25 -1q11 -2 44 -0.5t44 0.5q12 -3 25.5 -3t30.5 1.5t28 1.5q15 -1 47.5 -0.5t38.5 -1.5q15 1 40 -3 t42 -3q3 6 15 14q-3 4 -1.5 7t2 3.5t4 3t5.5 3.5q16 5 53 0q9 -1 28.5 -1.5t26.5 -1.5q8 -1 21.5 -1.5t22.5 -1.5t19 -3t15.5 -7t7.5 -13q2 -16 -19.5 -27t-23.5 -14q7 0 18.5 -9.5t6.5 -19.5q-5 -5 -31 -8t-41 0q-1 0 -16.5 -1t-20.5 5q-2 0 -9 -2t-11 -2.5t-9.5 1 t-9.5 5.5q-6 2 -13 8.5t-13 10.5q-2 2 -8.5 9t-7.5 9t1 6q6 3 8.5 1.5t6.5 -6t6 -5.5q2 -5 9.5 -11t10.5 -3q7 -6 26 -2.5t32 0.5q9 -1 28 -2.5t29 -2.5q-1 1 -5.5 4t-7.5 7t-5 12q-1 7 10.5 14t24 13t14.5 10q-26 11 -80 8q-17 -2 -82 2q-7 3 -13 -11q-1 -2 -1 -3 q6 0 100 -13q2 -1 13 -1q20 -1 20 -6q0 -3 -4 -7z" />
<glyph unicode="?" d="M172 817q-11 12 11 13q17 0 18 1q94 13 100 13q0 1 -1.5 3.5t-2 4t-2.5 4.5t-3.5 2.5t-4.5 -0.5q-65 -4 -82 -2q-54 3 -80 -8q2 -4 14.5 -10t24 -13t10.5 -14q-1 -6 -3.5 -10t-4.5 -5.5t-5 -3.5t-5 -4q10 1 29 2.5t28 2.5q13 3 31.5 -0.5t25.5 2.5q3 -3 11 3t10 11 q2 1 5.5 5.5t6 6t8.5 -1.5q2 -4 1.5 -6t-7.5 -9t-8 -9q-6 -4 -13.5 -10.5t-13.5 -8.5q-4 -4 -9.5 -5.5t-9.5 -1t-11 2.5t-9 2q-5 -6 -20 -5t-16 1q-15 -3 -41 0t-31 8q-5 10 6 19.5t18 9.5q-2 3 -23.5 14t-19.5 27q2 8 7.5 13t15.5 7t19 3t22.5 1.5t21.5 1.5q7 1 27 1.5 t29 1.5q37 5 53 0q2 -1 4.5 -2.5t3.5 -2.5l2.5 -2.5t1 -3.5l-1.5 -6q12 -8 15 -14q17 -1 42 3t40 3q13 2 38.5 1.5t47.5 0.5q11 0 28 -1.5t30 -1.5t25 3q11 1 44.5 -0.5t44.5 0.5h86q20 -2 49.5 -0.5t38.5 0.5q16 1 43.5 1t42.5 1q57 -4 86 -2q67 3 112 -4q43 -2 115 -2 q10 -5 55 -3t58 1q22 2 61 -0.5t53 -1.5q60 11 115 0q16 -1 54.5 1.5t58.5 0.5q-21 18 -31 8h-10t-11.5 4.5t-3.5 11.5q1 6 4 8.5t8.5 1.5t8.5 -2l12 -4q11 -4 29 -9.5t39 -14.5q25 -7 28 -19q-4 -17 -20 -20q-46 -26 -55 -29q-19 -11 -29 4q-4 6 10 16.5t23 8.5q8 0 20 7 t19 9q-6 0 -30 -3.5t-33 -3t-36 4.5q-86 0 -104 -2q-30 6 -105 2q-12 0 -33.5 0.5t-38.5 0.5t-32 -1q-17 -2 -46 1t-48 1q-36 7 -97 2q-10 0 -44.5 3.5t-51.5 1.5h-94q-18 -2 -36 -2t-36.5 1t-25.5 1q-63 -8 -99 0h-96q-50 9 -98 0q-27 2 -73.5 -1.5t-69.5 -1.5 q-30 -6 -79 -7.5t-59 -2.5q-4 1 -22 -2.5t-23 -1.5q-36 -6 -51 0z" />
<glyph unicode="@" horiz-adv-x="1806" d="M188 862l-6 -17v-1v-2q20 2 64 2h61q14 2 47 2q32 0 102.5 -5t114.5 -5q12 0 38 1t40 1q9 0 29.5 -2t30.5 -2q64 0 174 8q28 -4 41 -4q21 0 68.5 4t66.5 4q8 0 24 -1t25 -1q28 0 76.5 3t72.5 3q8 0 26 -1t26 -1q27 0 72.5 3t64.5 3h29q3 1 5 8.5t9 7.5l2 -4l-4 -10 q16 -4 18 -4q14 0 23 7.5t11.5 16t8 16t15.5 7.5q8 0 8 -10q0 -8 -25 -33q6 2 13 2.5t11.5 1t11.5 5.5t15 16q1 0 8 9t11 9q6 0 6 -6q0 -5 -9.5 -19t-8.5 -16q2 0 6 -1t6 -1q19 0 35 16.5t18 16.5q4 -2 4 -8q0 -3 -6 -11t-6 -12q3 1 15.5 3.5t17.5 2.5q10 0 10 -6 q0 -18 -39 -18q-19 0 -27 2q-8 -2 -18.5 -14.5t-17.5 -12.5t-7 2q0 3 11 11.5t12 11.5q-2 0 -6.5 -1t-5.5 -1q-4 0 -11.5 1t-11.5 1q-4 -1 -22.5 -22t-24.5 -21q-8 0 -8 6q0 4 6 10.5t15.5 14.5t11.5 10q-4 2 -11 2q-4 0 -10.5 -2t-9.5 -2q-1 0 -3 1t-3 1q-4 -2 -11.5 -8.5 t-13.5 -11.5t-10 -5l-2 2q0 1 6 9t6 14q-11 -7 -14 -7l-15 5q-4 -2 -5.5 -4t-3.5 -3.5t-7 -1.5v2q0 3 1 4.5t2 2.5h1h-2h-16h-45q-20 0 -80.5 -4.5t-89.5 -4.5q-10 0 -30 1t-32 1q-46 -4 -61 -4q-25 0 -37 2q-40 -4 -70 -4q-10 0 -28.5 2t-28.5 2q-115 0 -262 -10h-10 q-7 0 -22 -1t-23 -1q-11 0 -37 2t-39 2q-9 0 -28.5 -1t-27.5 -1q-11 0 -37 3t-42 3h-37q-20 1 -52 1t-49 1q-8 -2 -24 -2q-12 0 -35.5 2t-38.5 2q-6 -6 -6 -12q0 -8 2 -12q-2 -2 -8 -2t-8 2q0 1 -1.5 0t-3.5 -2.5t-4 -1.5q-10 0 -10 6l2 6q-1 1 -8.5 3.5t-12.5 5t-9.5 7 t-4.5 9.5q2 4 76 32q7 0 10 -6zM158 840q-4 -3 -14 -3.5t-13 -2.5q0 -1 2.5 -1.5t6.5 -2.5t7 -5q7 3 11 15z" />
<glyph unicode="A" horiz-adv-x="1806" d="M1618 862q3 6 10 6l8 -2q7 -3 18 -7.5t22.5 -8.5t19.5 -8t8 -6q0 -5 -4.5 -9.5t-9.5 -7t-12.5 -5t-8.5 -3.5q2 -2 2 -6q0 -6 -10 -6q-2 0 -4 1.5t-3 2.5t-1 0q-2 -2 -8 -2q-7 0 -9 2q2 4 2 12q0 6 -6 12q-15 0 -38 -2t-35 -2q-17 0 -25 2q-18 -1 -49 -1t-51 -1h-37 q-17 0 -43 -3t-37 -3q-8 0 -27 1t-28 1q-13 0 -39 -2t-37 -2q-8 0 -23 1t-22 1h-11q-147 10 -262 10q-10 0 -28.5 -2t-28.5 -2q-30 0 -70 4q-12 -2 -36 -2q-16 0 -62 4q-12 0 -31.5 -1t-29.5 -1q-29 0 -89.5 4.5t-80.5 4.5h-45h-17h-2q4 -1 4 -7v-2q-4 0 -6 1t-2.5 2t-2.5 3 t-5 3q-2 -1 -5 -2t-5 -2t-4 -1q-4 0 -15 7q0 -6 6 -14t6 -9l-2 -2q-3 0 -9.5 5t-13.5 11.5t-11 8.5q-1 0 -3.5 -1t-3.5 -1q-3 0 -9.5 2t-10.5 2q-6 0 -10 -2q2 -2 11.5 -10t15.5 -14.5t6 -10.5q0 -6 -9 -6q-6 0 -24.5 21t-22.5 22q-4 0 -11 -1t-11 -1q-1 0 -6 1t-7 1 q1 -3 12 -11.5t11 -11.5q0 -2 -6 -2q-7 0 -18 12.5t-19 14.5q-8 -2 -27 -2q-39 0 -39 18q0 6 11 6q5 0 16.5 -2.5t15.5 -3.5q0 4 -6 12t-6 11q0 6 4 8q2 0 18 -16.5t35 -16.5q2 0 6.5 1t6.5 1q1 2 -9 16t-10 19q0 6 6 6q5 0 11.5 -9t7.5 -9q8 -11 15 -16t11.5 -5.5t11.5 -1 t13 -2.5q-4 4 -14 17t-10 16q0 10 8 10q10 0 15.5 -7.5t8 -16t11 -16t22.5 -7.5q2 0 18 4q-4 4 -4 10q0 2 2 4q7 0 9.5 -7.5t5.5 -8.5h28q19 0 65 -3t73 -3q8 0 25.5 1t25.5 1q24 0 72.5 -3t76.5 -3q9 0 25.5 1t24.5 1q19 0 66.5 -4t68.5 -4q13 0 41 4q110 -8 174 -8 q10 0 30 2t29 2q14 0 40 -1t38 -1q44 0 114.5 5t102.5 5q33 0 47 -2h62q43 0 63 -2v2zM1649 840q4 -13 10 -15q3 3 7 5t6.5 2.5t2.5 1.5q-3 2 -12.5 2.5t-13.5 3.5z" />
<glyph unicode="B" horiz-adv-x="434" d="M229 694q-4 2 -7 -0.5t-7 -1.5q-2 -2 -4.5 0.5t-6 6.5t-6.5 8.5t-5.5 8t-4.5 3.5q-28 44 -73 80q-1 10 -11 20q-1 3 27 31q16 27 57 55q3 5 9.5 12.5t12.5 13t7 3.5q4 5 10.5 -1.5t11.5 -14t7 -5.5q6 -8 22.5 -20t24.5 -25q31 -18 37 -43q3 -11 -4 -23t-18.5 -25.5 t-14.5 -18.5q-22 -40 -64 -64zM219 879q-11 -12 -29 -34t-28 -32q32 -54 65 -70q14 19 60 70q-10 6 -30.5 31.5t-37.5 34.5z" />
<glyph unicode="C" horiz-adv-x="1601" d="M1497 420q-3 -43 -31 -49q-33 -9 -59 2q-44 27 -59 59q-25 36 -31 90q-51 21 -111 27q-12 3 -33 2.5t-30 1.5q-8 -2 -32.5 -0.5t-31.5 -3.5q-35 -8 -61 -6q-8 -1 -29 -6.5t-26 -6.5q-12 -4 -37 -11t-39 -13q-13 -7 -36 -23t-26 -18q-7 -5 -14.5 -18.5t-9.5 -16.5 q-4 5 -12 17.5t-13 17.5q-26 29 -61 41q-24 12 -76 24q-13 1 -30.5 6.5t-24.5 6.5q-2 0 -62 6q-49 5 -63 2q-44 0 -64 -2q-46 -2 -110 -27q-3 -51 -31 -90q-28 -43 -59 -59q-24 -17 -60 -2q-31 21 -31 49q3 52 56 82q30 27 88 49q-2 16 0.5 46t1.5 42q0 65 -6 84 q-2 27 -25 68q-18 22 -57 32v0q36 0 57 35q4 5 8 15.5t8.5 26t8.5 24.5q10 30 6 84q-3 13 -3.5 27.5t0.5 34t1 26.5q-13 8 -43.5 24t-44.5 25q-49 44 -56 84q-3 34 31 47q8 5 17 5.5t23 -2t20 -3.5q37 -19 59 -62q31 -36 31 -90q14 -8 31.5 -12t41.5 -6.5t37 -5.5 q9 -3 20 -3.5t20.5 0t23.5 -0.5q6 3 17 3.5t26.5 -0.5t19.5 -1q57 7 60 8q10 2 21 1t21.5 1t14.5 8q33 8 76 27q42 22 61 41q18 11 25 35q4 -7 13 -20t11 -15q17 -9 62 -41q10 -3 35 -12.5t41 -14.5q12 -1 32.5 -5t24.5 -5q8 0 26 -4.5t33 -3.5q1 0 21.5 -2.5t22.5 -2 t20 2.5q54 4 63 4q78 4 111 24q7 64 31 90q17 44 59 62q38 5 59 0q35 -6 31 -47q-1 -12 -8 -26t-14 -22.5t-19.5 -21t-13.5 -14.5q-21 -17 -88 -49q6 -42 -2 -88q0 -50 6 -84q5 -39 24 -66q4 -8 12 -13t22 -10.5t24 -11.5v0q-9 -5 -23 -12t-22.5 -11.5t-12.5 -8.5 q-11 -8 -24 -68q-6 -19 -6 -84q4 -13 0.5 -42.5t1.5 -45.5q7 -4 39.5 -22.5t48.5 -26.5q1 -1 15 -14t20.5 -20t13.5 -21t6 -27zM1384 1198q-8 -7 -12.5 -16t-7.5 -21l-4 -16q51 19 82 55q19 25 14 33q1 7 -10 8q-6 1 -25 -2q-5 -9 -18.5 -21.5t-18.5 -19.5zM160 1200 q38 -38 82 -55q0 11 -12 30.5t-13 22.5q-6 11 -21 25t-16 16q-9 3 -22 3t-13 -9q-2 -20 15 -33zM217 451q22 25 25 53q-52 -23 -82 -58q-21 -21 -15 -30q0 -6 8.5 -9t16.5 -2.5t8 5.5q20 14 39 41zM1313 567q0 7 -3 29t-3 30.5t2 30.5q4 64 2 78q13 71 45 88q-13 8 -22 24 t-13 28.5t-10 39.5q-2 13 -1.5 36t-0.5 40q-2 13 1.5 45.5t2.5 44.5q-16 -2 -32.5 -8t-23.5 -8q-37 -6 -61 -6q-25 -8 -66 -2q-14 -2 -35 2.5t-32 -0.5q-13 -1 -34.5 3.5t-29.5 4.5q-13 -2 -32 6t-27 8q-5 2 -23.5 7t-31 10.5t-21.5 13.5q-5 4 -19 12.5t-24 16t-18 16.5 q-4 -2 -4 0l2 2v0q-2 -1 -2 -2q-9 -11 -18.5 -18t-23 -14.5t-20.5 -12.5q-56 -27 -75 -31q-24 -6 -60 -14q-7 -1 -28 -2t-35 -6q-8 1 -32.5 -1.5t-35.5 -0.5q-9 0 -30 1.5t-35 0.5q-6 1 -29 1.5t-33 6.5q-14 2 -31.5 7.5t-23.5 6.5q1 -14 2 -45t2 -45q-1 -13 -1 -39.5 t-1 -36.5q-9 -70 -45 -92q20 -7 29 -28t16 -60q2 -10 1.5 -34t0.5 -44q-2 -15 -2 -44t-2 -46q7 0 24 7.5t31 7.5q2 0 26 3t36 5q6 0 28.5 1.5t36.5 0.5q5 0 21.5 -3t23 -3t23.5 2q10 -4 19.5 -5t23.5 -2t20 -1q7 -4 27.5 -6t32.5 -7q40 -10 73 -30q21 -7 64 -45h-2 q3 -3 4 -5q-2 2 2 5q31 31 63 45q10 4 25 11.5t26.5 12t22.5 6.5q18 1 35.5 7.5t23.5 5.5q10 -2 32.5 3.5t33.5 4.5q8 -2 29.5 -1t35.5 5q44 -13 66 -2q6 -2 29 -3.5t32 -4.5q10 -5 28.5 -7t27.5 -8zM801 535q13 5 21.5 11t18.5 13.5t19 13.5q6 2 21 6.5t26.5 9t22.5 11.5 q9 2 27.5 8t36 10t34.5 3q16 2 51.5 2.5t57.5 3.5q8 0 22.5 1.5t24.5 1t18 -4.5q11 -6 22 -8.5t28.5 -2.5h23.5q1 10 -1.5 31t-0.5 33q3 44 2 57q7 48 29 88q-13 15 -23 40.5t-6 47.5q0 44 -2 60q-2 10 -1.5 16t2 21t1.5 26q-18 -8 -42.5 -8t-31.5 -2q-11 -1 -26 0.5 t-24.5 1.5t-14.5 -4q-51 0 -109 6q-70 0 -98 21q-47 10 -70 26q-44 19 -59 37q-15 -17 -60 -37q-13 -9 -37.5 -15.5t-31.5 -10.5q-15 -9 -31 -12.5t-37 -5t-31 -3.5q-12 -4 -27.5 -5.5t-26.5 -1.5t-29 0.5t-25 0.5q-9 -2 -32.5 1t-33.5 1q-1 0 -73 10q2 -12 2 -33.5t2 -31.5 q-4 -13 -4 -34v-24q-8 -58 -29 -88q22 -27 29 -88q-1 -11 1.5 -28.5t0.5 -28.5q2 -22 -2 -64q12 1 35.5 5.5t37.5 5.5q46 4 66 2q19 -2 54 -3t54 -3q20 0 55.5 -10t43.5 -11q15 -4 37 -14.5t32 -12.5q13 -9 32 -20t28 -18zM1456 416q-2 3 -6 15.5t-8 14.5q-13 17 -38.5 34.5 t-43.5 23.5q5 -39 24 -53q1 -1 5 -7t4.5 -7.5t4 -6t5.5 -6t5.5 -5t7 -5.5t7.5 -4q1 0 8.5 -1.5t15 -0.5t9.5 8z" />
<glyph unicode="D" horiz-adv-x="1601" d="M1497 414q2 -15 -6.5 -29t-24.5 -20q-26 -18 -61 0q-36 31 -59 61q-15 23 -31 90q-13 4 -52 12t-57 13q-23 7 -63 4q-9 -4 -32 -1t-32 -1q-1 0 -25 -5t-36 -3q-14 0 -31.5 -5t-23.5 -6q-20 -5 -76 -26q-46 -16 -62 -39q-9 -6 -15.5 -19.5t-8.5 -15.5q-1 1 -10 15t-17 20 q-22 25 -59 39q-53 18 -78 26q-3 1 -23 6.5t-32 6.5q-12 6 -62 6q-8 0 -28 1t-35 1q-8 1 -62 -4q-19 0 -38 -4t-40.5 -11.5t-31.5 -9.5q0 -65 -31 -90q-32 -53 -59 -61q-33 -13 -62 0q-32 16 -29 49q0 16 11 33.5t19 25t26 23.5q53 34 88 49q-2 29 2 88q0 15 -6 84 q-7 54 -25 65q-8 21 -57 35v0q22 3 34 9t23 24q10 13 25 68q0 11 2.5 40t1.5 43q-2 14 0.5 46t-0.5 43q-16 7 -88 49q-1 1 -6 5t-6.5 6t-6.5 6.5t-7.5 7t-7 7.5t-6.5 9t-5.5 9t-5 10t-3 10.5t-2.5 11.5q0 35 29 49q16 9 33 8t29 -10q8 -6 28 -28t31 -32q12 -20 31 -90 q8 -2 30 -9t41 -11t39 -6q7 -1 30 -0.5t32 -1.5q10 2 29 1.5t34 0.5q14 4 34 4t28 2q13 1 55 12q76 26 78 27q26 6 59 39q4 6 14.5 17t12.5 17q2 -7 12 -19t12 -15q5 -3 17.5 -12.5t23 -16t21.5 -10.5q6 -2 33.5 -12t42.5 -15q9 -7 29 -8.5t26 -3.5q60 -6 61 -6 q6 -3 17 -3.5t27 0.5t20 1q13 -2 63 2q21 3 58 13t51 13q5 41 31 90q15 37 59 60q10 5 18.5 6.5t13 1.5t15 -2.5t14.5 -3.5q22 0 31 -49q2 -16 -9 -33.5t-20.5 -26t-27.5 -22.5q-31 -33 -88 -49q4 -65 0 -89q-2 -36 6 -83q-3 -33 24 -66q6 -10 13 -16.5t11.5 -8.5t16 -5 t15.5 -5v0q-9 0 -17.5 -4t-13.5 -8t-13.5 -12t-11.5 -11q-28 -20 -24 -65q0 -9 -3.5 -38.5t-2.5 -45.5q2 -16 0.5 -46.5t-0.5 -41.5q16 -8 46.5 -25.5t41.5 -23.5q59 -35 57 -82zM1382 1192q-12 -19 -22 -55q6 4 28 14t35 19.5t19 23.5q6 4 11.5 14t2.5 17q-3 11 -16 12.5 t-19 -6.5q-9 -3 -21.5 -16t-17.5 -23zM160 1194q39 -42 82 -57q-6 25 -25 55q-6 11 -18.5 23.5t-20.5 15.5q-35 9 -35 -6q0 -14 17 -31zM217 442q7 8 25 56q-21 -8 -49 -31.5t-33 -26.5q-4 -7 -9.5 -17.5t-7.5 -14.5q3 -10 35 -5q5 3 11.5 9t14.5 15.5t13 14.5zM1311 561 q5 14 1 47.5t-3 42.5q0 65 2 76q4 26 7 40t12 29t24 21q-34 27 -45 92q1 10 -4 37t2 37q2 15 2.5 48t1.5 42q-3 -1 -24 -6t-30 -8l-27 -4.5t-34 -3.5q-9 -6 -33 -3t-33 1l-24 3t-22 2t-21 -1q-13 3 -32.5 4t-31.5 4q-9 2 -22 5t-22 5t-15 4q-16 2 -76 29q-23 10 -36 19 t-25 28q2 2 -2 2q-3 1 -4 -2q-21 -26 -62 -47q-33 -23 -73 -29q-5 1 -28 -6t-32 -8q-32 -13 -65 -8q-19 2 -66 -4q-58 0 -68 2q-6 1 -28 4.5t-33 3.5q-50 13 -53 14q0 -61 4 -90q-1 -10 1 -41t-3 -33q-8 -73 -45 -92q36 -17 43 -90q5 -65 4 -76q1 -9 -4 -90q7 5 26 6.5 t27 7.5q4 1 14.5 3.5t15 3t15.5 1.5t16 -1q10 0 68 4q13 -1 33 -2t33 -2q13 -4 32.5 -4.5t32.5 -4.5q52 -10 60 -14q7 -3 23 -8.5t28 -10.5t22 -12q40 -18 62 -45q-1 -1 1 -1t3 -1l5 3q-2 -1 -3 -1q3 3 13.5 13t15.5 14t14 9.5t18 8.5q15 5 40 16t36 15q7 1 25.5 7.5 t31.5 6.5q13 1 35.5 5.5t30.5 3.5q13 2 34.5 1.5t32.5 0.5q11 -2 34.5 -1.5t31.5 -0.5q14 -1 34 -3.5t27 -3.5q10 0 19.5 -2.5t19.5 -6.5t15 -5zM1456 408q-1 7 -14 32q-9 13 -21.5 22.5t-33 20.5t-27.5 15q-4 -4 -0.5 -14.5t6 -15t9 -14.5t7.5 -12q16 -23 39 -39 q4 -5 17.5 -5t17.5 10z" />
<glyph unicode="E" horiz-adv-x="1312" d="M1167 561q-11 0 -53 14q-12 -2 -32 4t-29 5q-13 -1 -34 1t-32 1q-13 3 -19.5 3t-23.5 -3t-24 -4q-17 1 -39.5 -3t-26.5 -4q-42 -21 -59 -14q-5 -3 -33 -11t-41 -20q-26 -9 -62 -45l-5 -3l1 -1q1 1 -2 4q-5 4 -25 21t-36 24q-15 10 -40 17.5t-36 13.5q-43 11 -59 12 q-20 -4 -64 9q-5 5 -34.5 4.5t-32.5 -0.5q-8 -2 -33 -0.5t-33 -1.5q-12 1 -33.5 -3.5t-27.5 -5.5q-8 -4 -16.5 -6.5t-20.5 -4.5t-17 -3q4 63 2 90q0 19 -1 44.5t-1 33.5q-2 8 -4 20t-4 20t-6 15q-19 29 -29 33q2 3 13.5 14.5t17.5 20.5q16 26 14 57q0 8 1.5 23t1.5 27.5 t-3 25.5q0 67 -2 90q37 -12 54 -14q9 -4 17.5 -5.5t21 -1.5t22.5 -1q11 -2 36.5 0.5t29.5 -2.5q12 -2 34.5 0.5t32.5 1.5q16 1 37 5t29 5q9 0 28.5 6t28.5 6q15 7 39.5 16t36.5 15q7 5 27.5 21.5t33.5 23.5l2 4q4 -2 4 -4q38 -21 62 -45q14 -2 39 -14.5t35 -16.5 q13 -3 32.5 -6.5t26.5 -5.5q19 -10 66 -10l30 -5q31 -4 35 3q8 1 35 0.5t33 1.5q40 8 61 8q11 1 28 6.5t25 7.5q0 -20 -2 -49t-2 -41q0 -65 2 -76q0 -3 15 -55q12 -23 30 -37q-23 -14 -30 -31q-6 -12 -9 -33t-4 -24q-4 -17 -3.5 -38t-0.5 -40q1 -10 1.5 -41.5t2.5 -48.5z " />
<glyph unicode="F" horiz-adv-x="1955" d="M1817 793q1 -1 18.5 -16t17.5 -29q-4 -29 -90 -41q-45 -10 -100 -33q-40 -16 -102 -31q-15 -4 -49 -14.5t-52 -14.5q-66 -16 -71 -18q-15 -1 -37 -9t-35 -9q-15 0 -72 -17q-8 -1 -30 -9t-39 -7q-47 -16 -66 -19q-51 -15 -63 -22q-14 4 -36.5 -2.5t-31.5 -1.5 q-34 -5 -68 4q-30 9 -63 20q-53 13 -68 21q-14 7 -67 16q-51 7 -72 17q-4 1 -17.5 3.5t-28 6t-26.5 8.5q-39 7 -71 18q-76 24 -101 29q-73 15 -104 31q-16 9 -51.5 18.5t-46.5 14.5q-91 7 -91 41q-2 6 16 26t38 33q42 49 63 51q-3 3 -12.5 23.5t-22.5 25.5q-19 23 -30 54 q0 5 -7 12t-8 16q-3 4 -2 7.5t4.5 9t3.5 6.5q-1 2 2 2.5t8.5 1t12.5 0.5t18 0.5t21 1.5q70 4 78 4q18 -5 53 0q9 -2 22 -2t27 1t17 1q16 -1 44.5 0t41.5 0q19 -5 81 0q34 -3 82 0q7 1 25 3.5t30.5 2t26.5 -5.5q19 3 24.5 3.5t25.5 -2t30 -3.5q41 -3 82 0q2 0 40 1.5t40 -1.5 h80q17 -3 42.5 -0.5t39.5 0.5q10 -4 41.5 -0.5t38.5 2.5h82q5 0 42 2t39 -2q19 -1 43 0t39 0q12 -1 43.5 0t42.5 0q16 0 45 2t39 2q24 -8 35 -4q12 -2 29 -2t38 1t29 1q3 -2 9 -2.5t12 -3.5q6 -1 9 0t6 0.5t7 -4.5q7 -7 7 -23q-2 -6 -8 -15t-7 -13q-13 -19 -33 -54 q-11 -25 -32 -49q18 -15 37 -24q6 -7 21.5 -20.5t21.5 -20.5zM1616 694q48 9 96 31q64 23 98 27q-5 4 -16.5 15t-22.5 19.5t-22 12.5q-6 5 -21.5 12.5t-23.5 16t-8 22.5q0 30 35 65q33 41 41 64q-9 -2 -33 -1.5t-31 -0.5q-6 0 -29.5 -1.5t-36.5 -0.5q-10 1 -34 -0.5 t-29 -1.5h-66q-13 0 -33 1t-32 1q-14 -2 -36 0.5t-28 1.5q-11 -1 -31.5 1.5t-33.5 0.5q-34 -6 -62 0q-10 -4 -33.5 -1.5t-29.5 1.5q-11 0 -22 1t-15.5 1.5t-11.5 0t-15 -4.5q-17 3 -40.5 -1t-34.5 -1q-19 -6 -41.5 -1.5t-34.5 1.5v0v0q-6 0 -39.5 0.5t-36.5 -0.5 q-10 6 -20.5 6.5t-27 -2t-28.5 -2.5q-25 2 -63 2q-10 1 -33.5 0t-30.5 0q-9 -4 -19 -4t-22.5 2t-19.5 2q-42 5 -66 -2q-15 1 -37.5 -0.5t-25.5 -1.5q-6 5 -33.5 1.5t-32.5 -3.5q-30 8 -65 2q-9 0 -21.5 2t-22.5 2t-20 -4q-12 -1 -34.5 1t-30.5 1q-3 0 -25 1.5t-39 0.5 q4 -12 10 -22.5t16.5 -23.5t14.5 -18q1 -2 9.5 -12.5t13 -17t9 -17t3.5 -18.5q-2 -34 -55 -51q-11 -5 -30.5 -20t-29.5 -27q3 0 14.5 -5t30 -10.5t39.5 -7.5q56 -18 70 -18q44 -7 82 -23q16 -1 29.5 -4.5t32.5 -10t28 -9.5q12 -4 45 -11t47 -14q13 -5 32.5 -8.5t29.5 -7.5 q7 -2 27 -7.5t30 -9.5q53 -14 55 -14q91 -25 95 -25q54 -19 63 -16q16 0 28.5 -2.5t28 -8t25.5 -8.5q55 19 82 19q46 7 59 14q3 -2 12.5 -0.5t14 3.5t15.5 6t18 6q9 6 31.5 10t27.5 6q42 12 59 14q33 11 60 17q15 1 30.5 7.5t26.5 6.5q19 5 48.5 15t47.5 14zM979 567 q11 -2 14.5 -1.5t15 5.5t19.5 7q4 1 10 1t9.5 1.5t5.5 5.5q80 16 108 26q75 23 109 27q12 3 32.5 10t34.5 8q7 2 21 7t25.5 7.5t23.5 2.5q3 1 12 5t17.5 6.5t17.5 2.5q10 6 49 17q3 1 23.5 4.5t32.5 7.5q37 6 47 10q23 3 77 25q15 10 50 16h1q-2 1 -3 2q-3 1 -7.5 4.5 t-5.5 3.5q-45 24 -57 70q0 39 37 82q2 2 6 8q2 -2 3 2l0.5 0.5t0.5 1.5q-40 -8 -80 -2q-15 -2 -40 -1.5t-40 -0.5q-8 0 -41.5 2.5t-42.5 -0.5q-28 -7 -82 2q-11 -1 -49 2.5t-57 -0.5q-25 5 -66 0q-39 -4 -67 -2q0 1 -2 0.5t-4.5 -1t-3.5 0.5q-60 8 -97 -2q-2 0 -8 1t-10 1 t-4 -2q2 -7 -18 -7q-17 1 -17 7h-35h-22q-18 -1 -52 0.5t-45 1.5h-10q-5 0 -35.5 3t-31.5 -1q-9 2 -21 2t-25.5 -1t-19.5 -1q-12 3 -53.5 0.5t-53.5 -2.5q-68 0 -81 -2q-21 3 -84 -2q-70 0 -80 2q-37 -8 -80 2l3 -1q-1 -1 1 -3q1 0 0.5 -1t1 -3t4.5 -4q4 -8 14.5 -22.5 t16.5 -28.5t6 -31q0 -20 -10.5 -34t-27.5 -24t-19 -12q-3 -3 -6 -4.5t-5 -2t-2 -1.5q-1 -1 -2.5 -1t-1.5 -1q15 -2 48.5 -12.5t52.5 -14.5q43 -14 57 -16q3 -1 26.5 -6t38.5 -12q40 -19 93 -25q57 -11 92 -25q17 -6 46 -13t42 -11q13 -7 39.5 -12t38.5 -9q73 -26 108 -26 q8 -8 25 -8q8 -14 49 -11z" />
<glyph unicode="G" horiz-adv-x="1955" d="M1815 782q4 -7 15 -14.5t17.5 -14.5t3.5 -16q-3 -15 -32.5 -27t-57.5 -16q-16 -4 -50 -15.5t-50 -14.5q-19 -2 -52.5 -15t-49.5 -16q-18 -5 -49.5 -14t-51.5 -15q-60 -13 -74 -18q-7 -3 -69 -19q-32 -2 -72 -16q-15 -6 -39 -10t-30 -6q-14 -1 -34.5 -9t-31.5 -10 q-9 -8 -32.5 -13t-31.5 -9q-10 0 -34.5 -2.5t-32.5 -2.5q-21 -1 -28 -1t-20 2.5t-20 3.5q-7 9 -17.5 13t-27 6.5t-18.5 2.5q-8 3 -68 19q-11 0 -69 16q-47 14 -107 24q-85 22 -106 29q-19 1 -55 14t-46 15q-95 29 -104 31q-11 3 -30 10t-35.5 12t-32.5 8q-2 0 -12 1.5t-16 3 t-16.5 4t-17.5 5.5t-14 7t-11 9.5t-4 12.5q2 12 54 60q11 10 27 22t25.5 19.5t10.5 9.5q-4 8 -18 24t-17 25q-15 15 -32 53q-3 2 -5 7t-5 11.5t-5 10.5q-1 3 3 11t5 11q1 0 62 7q17 2 45 2.5t33 1.5h51q13 -2 26 -2t25 1t16 1q59 -10 84 0q39 3 84 0q10 0 27 -1t30.5 -1 t24.5 2h80q15 1 43 -1t39 -1q20 -3 45.5 -0.5t36.5 0.5q6 0 23 -0.5t32 -0.5t25 1q16 5 80 0q31 3 82 0q3 0 40.5 -1t39.5 1q36 -6 81 2q19 4 82 0q12 2 41 -1.5t41 1.5q9 -4 22 -4t31.5 2t30.5 2q63 8 86 4q9 3 16.5 -1.5t16.5 -2.5q13 -2 49.5 0.5t48.5 -0.5q4 -1 9 -3.5 t7 -3t5 0.5q21 -5 22 -5q9 -7 9 -20q-2 -1 -2 -2q3 -4 0 -9t-8.5 -11t-6.5 -9q-2 -13 -16.5 -30t-16.5 -23q-4 -7 -8.5 -15.5t-7 -13.5t-6.5 -10.5t-10 -9.5q5 -7 19 -14t18 -11q5 0 12.5 -7.5t16.5 -18.5t14 -15zM1612 684q34 10 96 31q11 3 32.5 11.5t37.5 12.5t30 2 q-3 3 -11.5 13t-14.5 15.5t-15.5 11.5t-19.5 7q-5 5 -19 12t-23.5 16t-10.5 24q-3 10 3 22t18 25.5t14 17.5q34 49 40 64q-11 1 -35 -0.5t-28 -1.5q-36 -4 -66 -2q-48 -8 -63 -2q-18 3 -66 0q-8 1 -31.5 0.5t-33.5 1.5q-20 -3 -66 2q-6 -2 -30.5 0.5t-32.5 1.5q-13 5 -37 5 t-25 -5q-51 0 -63 -2q-9 1 -31.5 -1.5t-32.5 1.5q-11 3 -42 0.5t-33 -2.5q-11 -4 -40.5 -1.5t-35.5 1.5v0v0q-13 -4 -40.5 -0.5t-35.5 0.5q-48 8 -76 2q-15 -5 -35 -5.5t-30 5.5q-8 -1 -30 1t-32 1q-31 2 -61 0q-12 -2 -33.5 -0.5t-32.5 -1.5q-6 2 -30.5 -1t-34.5 -1 q-9 -3 -18.5 -3.5t-24 0.5t-21.5 1q-32 -5 -65 0q-56 0 -66 2q-8 3 -31 1t-32 1q-54 0 -64 2q6 -23 39 -64q37 -32 37 -65q-1 -12 -11 -22.5t-18.5 -15.5t-25.5 -14q-14 -7 -31.5 -24t-28.5 -23q5 0 17 -4t24 -6q10 -2 33 -9.5t39 -10.5q78 -23 94 -25q38 -22 109 -29 q9 -3 25.5 -7.5t29.5 -8.5q11 0 28.5 -7t28.5 -9q23 -3 59 -14.5t50 -14.5q3 -1 25 -5.5t30 -8.5q11 -3 29.5 -9.5t34 -11t30.5 -4.5q59 -14 64 -16q37 -19 82 -19q11 2 29 7.5t32.5 9.5t20.5 2q8 3 28 6.5t31 7.5q7 -1 19.5 2t26 7.5t14.5 4.5q10 0 28.5 7t30.5 10 q9 2 21.5 3.5t21 3.5t16.5 7q10 0 29 7t29 7q34 17 59 17q12 6 96 28q47 3 103 25z" />
<glyph unicode="H" d="M1569 723q-10 -3 -47.5 -9.5t-55.5 -15.5q-7 -3 -96 -28q-11 0 -19.5 -1.5t-11.5 -2t-13 -5.5t-13 -6q-9 -4 -20.5 -7t-23.5 -5.5t-16 -3.5q-6 -2 -27 -5t-32 -9q-12 0 -30 -7.5t-29 -9.5q-7 -2 -28.5 -5t-31.5 -9q-38 -5 -59 -14q-13 1 -39.5 -7.5t-42.5 -11.5 q-20 -1 -47 8.5t-35 10.5q-4 -2 -13 1.5t-23 8.5t-28 6q-14 2 -43 11.5t-51 13.5q-20 14 -55 14q-6 -2 -59 16q-4 2 -24 5.5t-36 11.5q-11 8 -31 13.5t-30 2.5q-12 6 -62 16q-14 6 -35 11t-24 6q-73 23 -107 28q-18 4 -44.5 13t-36.5 10q-10 0 -27.5 6.5t-20.5 5.5 q3 3 15 16.5t23.5 22t21.5 8.5q4 4 18.5 13.5t24 19t12.5 19.5q1 11 -5.5 23t-17.5 25t-14 17q-19 19 -39 64q69 -8 97 -4q49 -3 96 -3q37 4 65 0q21 -13 64 3q8 -2 31 0.5t34 1.5q13 -3 35 -2.5t31 4.5q10 1 28.5 0t32.5 0q8 6 32 1t30 -3q4 0 14.5 1.5t16.5 2t15.5 0 t18.5 -3.5q62 -4 76 -2q5 0 36 3t40 -3v0v0q9 2 21.5 2t29.5 -1t25 -1q42 -6 75 2h64q5 1 28 1t35 1q10 2 31 -1.5t31 1.5q3 3 27 0.5t36 -2.5q6 -1 31.5 2t34.5 -4q7 -1 32.5 1t32.5 -4q3 -2 14 -1t23.5 2t28.5 -1q51 4 63 3q15 2 34 1.5t32 0.5q20 2 63 2q-5 -14 -20 -35 t-20 -29q-3 -6 -14 -18.5t-18 -24.5t-3 -22q0 -7 2.5 -12.5t9.5 -11.5t11 -9t15.5 -10t14.5 -9q10 -9 31 -24t30 -23q-57 -10 -100 -26q-39 -16 -96 -31z" />
<glyph unicode="I" horiz-adv-x="1656" d="M1548 799q-14 -8 -18 -11t-11.5 -8.5t-10 -11.5t-3.5 -14q-9 -27 4 -56q13 -36 11 -61q2 -10 -1 -29.5t-1 -32.5q-2 -5 -5 -18t-6.5 -21.5t-7.5 -13.5q-22 -33 -57 -43q-17 -9 -42 -13t-40 -1q-23 -64 -49 -84q-44 -35 -94 -37q-47 -8 -68 0q-15 -1 -38.5 1t-35.5 1 q-6 0 -22 1t-28.5 1t-20.5 -2q-14 -3 -34.5 -4.5t-27.5 -3.5q-35 -8 -65 -31q-7 -3 -12.5 -6.5t-10.5 -9.5t-8 -9.5t-9 -11t-8 -10.5q2 -1 1 -1q-3 -1 -3 -3q-6 0 -5 0q-2 0 1 4q-6 8 -13.5 15.5t-17.5 16.5t-16 15q-18 16 -63 31q-31 5 -64 8q-10 2 -21 2t-25.5 -1 t-24.5 -1q-25 8 -72 -2q-10 -2 -35 -0.5t-35 0.5q-45 7 -94 37q-34 34 -47 84q-49 -3 -84 14q-40 9 -57 43q-6 10 -17 53q0 26 -4 62q0 15 12 61q9 38 5 56q-2 19 -46 45q2 -2 1.5 -2t-3.5 4l2 2q36 25 46 45q2 14 1.5 19t-3 16.5t-3.5 19.5q-12 28 -12 62q-5 27 4 61 q0 26 17 53q12 28 57 41q30 10 84 17q15 52 47 84q34 39 94 36q9 1 20.5 1t26.5 -0.5t23 -0.5q45 0 72 -2q47 -5 71 0q32 -7 64 9q5 2 27.5 12t35.5 18q21 13 47 47q-9 9 4 5l1 -2q0 -1 1 -3q7 -11 25.5 -27t22.5 -20q8 -4 29 -14t36 -16q36 -9 62 -9q1 3 35.5 1.5 t35.5 -1.5q10 -1 35 1t37 1q5 0 19 -1t27.5 -1t23.5 2q61 0 94 -36q10 -10 17.5 -22.5t17 -32t14.5 -29.5q40 -3 82 -17q38 -11 47 -22q7 -8 10 -19q1 -4 8 -23t11 -30q-1 -11 0.5 -31.5t1.5 -29.5q1 -9 -11 -62q-6 -31 -4 -55q3 -26 43 -45q2 -3 4 -3q-1 1 -2 1zM1477 643 q0 10 -2 20.5t-6 21.5t-5 17q-6 45 -4 58q1 8 3.5 14t7.5 14t8 13q-4 4 -7.5 12t-7 16.5t-4.5 10.5q0 13 4 59q0 12 6 32t7 25q3 31 -2.5 62.5t-18.5 42.5q-31 31 -88 31q-12 0 -20.5 2.5t-13.5 5t-9.5 9t-6 10t-4.5 13.5t-5 15q-3 15 -33 45q-7 9 -57 20q-11 1 -35 1t-39 1 q-13 -2 -35.5 -1.5t-38.5 -0.5q-54 -10 -72 0q-6 0 -20.5 0.5t-25 2t-21.5 6.5q-13 0 -53 22q-50 31 -52 33q-10 -4 -26 -17t-25 -16q-10 -4 -28 -12t-27 -10q-14 -5 -66 -9q-11 -2 -36.5 -0.5t-36.5 0.5q-24 -5 -74 2q-25 2 -74 -2q-22 2 -57 -20q-6 -6 -16 -21.5 t-17 -23.5q-3 -7 -6.5 -19.5t-5.5 -17.5t-7.5 -11t-14.5 -7t-23 0q-71 -4 -90 -31q-12 -12 -18 -45t-1 -60q4 -43 10 -57q7 -13 7 -26t-2 -33q-1 -8 -19 -39q12 -12 19 -41q5 -14 -5 -58q-1 -8 -2.5 -19t-3 -20.5t-4.5 -19.5q0 -85 19 -104q29 -36 90 -29q16 -2 23.5 -6 t10.5 -6.5t10 -17.5t13 -25q6 -24 33 -47q9 -15 57 -19q14 1 37 -1t37 -1q53 4 74 2h73q10 -1 33 -4t33 -4q28 4 55 -23q8 -7 26.5 -16.5t24.5 -15.5q24 30 52 32q38 21 53 23q10 5 22.5 7t22 1t22.5 0q13 -4 24.5 -4t25 2t22.5 2q57 -5 74 -2q41 -3 74 2q12 2 57 19 q22 12 33 47q12 37 21 44q12 10 38 11q71 12 88 29q11 18 21 104zM827 369q9 8 18 14t21.5 11l17.5 7t22 7.5t18 5.5q37 17 108 10h68q10 1 33.5 -1t33.5 -1q3 0 25 -1.5t25 3.5q40 -5 59 43q2 0 2.5 1.5t0 4t0 5t1.5 3.5q12 34 28.5 49t55.5 15q42 5 68 18q13 11 10 78 q-2 4 -4 19t-4 22q0 2 -5 33t-4 51q1 2 7 14.5t6 20.5q-11 21 -13 35q-2 18 3 47t6 37q0 8 4 24t4 17q3 27 -1 49.5t-9 25.5q-14 24 -68 21q-47 5 -68 35q-3 6 -16 28q-4 4 -4 15q-7 21 -20 29.5t-39 13.5q-7 1 -24.5 1t-25.5 1q-12 -4 -37 -2.5t-30 0.5q-49 -4 -68 0 q-77 0 -108 10q-65 19 -97 45q-35 -30 -98 -45q-53 -12 -108 -10h-68q-25 2 -68 2q-14 -2 -49 -2q-50 -7 -59 -43q-2 -5 -2.5 -9t-1.5 -6q-10 -22 -16 -31.5t-23 -18.5t-45 -13q-46 -5 -68 -19q-11 -19 -8 -77q0 -6 3 -21.5t3 -19.5q11 -42 8 -84q-7 -17 -12 -35 q4 -4 6.5 -10t4 -15t1.5 -10q5 -28 -8 -84q-10 -30 -6 -41q-9 -64 8 -78q36 -18 68 -18q38 0 56 -15.5t28 -48.5q1 -2 1.5 -5.5t1 -6t1.5 -2.5q8 -15 17 -23.5t16.5 -11.5t25.5 -8q8 -2 49 -2q18 -2 68 2q57 4 68 0q58 -3 108 -10q14 -3 29.5 -10t37.5 -18.5t31 -16.5z" />
<glyph unicode="J" horiz-adv-x="1658" d="M1550 803q-31 -16 -43 -45q-1 -7 4 -56q6 -15 7.5 -33.5t3.5 -27.5q4 -49 -2 -63q-4 -34 -19 -52q-14 -24 -57 -43q-8 -5 -19 -7t-34 -4t-29 -3q-23 -72 -49 -84q-19 -19 -39 -26.5t-55 -10.5q-31 -6 -70 0q-10 2 -36 0.5t-36 1.5q-8 1 -34 -0.5t-37 0.5q-51 0 -62 -8 q-21 0 -65 -31q-10 -8 -26.5 -25.5t-21.5 -21.5l1 2q-1 3 -4 -3q-2 -4 1 -5q0 5 -4 6q-5 7 -14.5 16t-19.5 18.5t-13 12.5q-15 12 -63 31q-4 3 -15.5 4.5t-27.5 2t-21 1.5q-14 -4 -38.5 -1.5t-30.5 1.5q-56 0 -74 -2q-13 -3 -36.5 -0.5t-33.5 0.5q-20 1 -38.5 7.5 t-27.5 11.5t-28 18q-42 48 -47 84q-17 1 -45.5 7t-38.5 7q-37 21 -57 43q-5 6 -10 27t-7 25q-1 7 -3 22t-2 21t1 20q9 32 12 61v18.5t2 18.5t3 19q-9 25 -46 45v3l-2 -1v-1q5 3 2 3q42 25 46 45q-4 49 -5 55q-1 3 -5.5 17t-6.5 25t0 20q-2 29 4 61q3 8 6.5 21t5.5 21.5 t5 10.5q34 34 57 41q13 1 41 8t43 9q9 43 47 84q31 43 94 37q10 2 33.5 0t36.5 0q6 0 23.5 1t29.5 0.5t21 -3.5q11 5 34.5 2t34.5 -2q31 8 64 8q4 2 17 10t24.5 13t21.5 7q39 27 47 45q7 6 4 7q-3 -1 -1 -1q7 -1 3 -6q15 -26 48 -45q41 -15 65 -30q10 -3 31 -4t31 -4 q18 -5 71 0q38 8 74 2q13 3 26 3t25 -1.5t17 -1.5q40 -3 60 -10.5t34 -26.5q24 -24 49 -84q17 -5 43.5 -9t38.5 -8q57 -24 57 -41q8 -8 14 -24.5t5 -28.5q4 -10 1 -28.5t1 -32.5q6 -15 4 -22t-8 -19.5t-7 -20.5q-14 -25 -4 -55q3 -7 6.5 -13t9.5 -11t8.5 -7.5t10 -8 t8.5 -5.5l2 -2l3 -1q-2 -2 -5 -1zM1479 647q-5 10 -6.5 30.5t-6.5 29.5q-4 25 -4 57q12 27 19 41q-15 22 -19 39q-7 15 4 59q6 14 9.5 35.5t3.5 22.5q0 5 -0.5 17t-1 18t-1.5 16.5t-2 17t-3 14t-5.5 12.5t-7.5 9q-1 1 -6 5t-6 5t-6.5 4.5t-7 4t-7.5 4.5t-8.5 3.5t-9.5 2.5 t-11 2t-12.5 0.5t-13.5 -0.5q-13 1 -21.5 2.5t-14 7.5t-7.5 10t-7.5 16t-8.5 19q0 6 -10.5 21t-22.5 24q-6 6 -14 9t-20.5 5.5t-22.5 6.5q-49 0 -74 2q-20 2 -74 -2q-6 1 -34.5 -0.5t-37.5 0.5q-29 -5 -36.5 -3.5t-30.5 11.5q-10 0 -28.5 7t-24.5 13q-13 1 -31 14t-21 21 q-6 -5 -23 -15.5t-28 -19.5q-14 -4 -30.5 -12t-24.5 -8q-29 -11 -66 -8q-19 5 -71 0q-7 -3 -37 -0.5t-39 2.5q-12 -1 -34 -1t-40 -1q-36 3 -57 -21q-12 -5 -21.5 -18t-9.5 -27q-4 -9 -9 -20.5t-7 -15.5t-5 -9t-8 -6t-11.5 -2t-18.5 -2q-65 -9 -90 -31q-25 -41 -19 -104 q5 -5 5.5 -27t4.5 -31q9 -17 5 -59q-1 -2 -3 -11.5t-5.5 -16.5t-10.5 -11q19 -19 19 -41q2 -6 -1.5 -27.5t-3.5 -29.5q-3 -9 -5 -29t-5 -31q-6 -89 19 -104q63 -27 90 -29q10 -1 17.5 -2.5t13 -5t8.5 -5.5t6.5 -8.5t4.5 -9t4.5 -12t4.5 -12.5q6 -35 31 -47q34 -21 57 -21 q42 -14 74 0q11 -2 37 1t39 1q22 4 71 0q28 0 66 -10q27 -16 55 -21q24 -19 51 -32q3 2 12.5 12t19.5 16t20 4q38 21 53 21q10 2 33 5t34 5q14 6 27 6t26.5 -3t18.5 -3q14 -2 36.5 -1.5t37.5 -0.5q40 -14 74 0q45 0 57 21q28 20 33 47q8 31 18 41.5t41 13.5q74 0 88 29 q14 13 20 45.5t1 58.5z" />
<glyph unicode="K" horiz-adv-x="1517" d="M1409 653q4 -28 0 -60t-18 -44q-39 -39 -91 -31q-12 -1 -20 -3t-12.5 -3.5t-8.5 -8t-5.5 -8.5t-6 -14.5t-6.5 -17.5q-9 -30 -31 -45q-15 -13 -57 -21q-40 -6 -76 -2q-18 0 -41.5 1t-31.5 1q-9 0 -25 -1t-27.5 -1t-19.5 2q-6 2 -17 1t-14.5 -1.5t-16 -3t-20.5 -4.5 q-3 -4 -12 -7.5t-22.5 -7t-18.5 -5.5q-9 -3 -26 -17t-25 -18q-27 22 -51 35q-32 20 -54 20q-9 2 -30 3.5t-37 4.5q-1 1 -34.5 0.5t-37.5 -0.5q-23 -2 -74 -2q-11 3 -36 0.5t-37 1.5q-3 1 -13.5 2.5t-14.5 2.5t-11.5 3t-11.5 5t-7 8q-17 15 -32 45q-1 3 -3 8q-7 18 -11 25.5 t-15 13t-31 8.5q-56 10 -88 31q-28 22 -20 104q13 50 12 58q-1 6 2.5 27.5t1.5 31.5q-1 5 -10 19t-11 20q15 20 21 41q0 21 -4 57q-21 30 -12 60q-11 22 -7 56t27 48q15 29 88 29q16 0 26 5t13.5 9.5t10 19t10.5 21.5q3 5 8.5 16t11 19t12.5 12l8 6q8 5 10 6t11.5 6t13 3.5 t15.5 -0.5q9 -1 36.5 1.5t36.5 -1.5q12 2 74 -2q10 0 25 -1t26 -1t21 2q13 -1 35 4t32 6q31 0 54 20q45 15 51 33q21 -21 51 -33q10 -5 21 -9t20 -7l12 -4q25 -10 68 -10h72q5 0 35.5 2.5t37.5 -0.5q13 2 40.5 -0.5t35.5 0.5q15 -3 57 -21q11 -6 16.5 -14t8.5 -18t6 -15 q11 -33 20.5 -42.5t38.5 -12.5q8 -1 25 -3t27 -3.5t21.5 -7.5t17.5 -15q9 -14 15 -47t3 -57q-2 -11 -5.5 -31.5t-4.5 -28.5q2 -11 -1.5 -30.5t-2.5 -26.5q3 -6 9 -20.5t9 -20.5q3 -3 -1.5 -10.5t-10.5 -16t-6 -12.5q-9 -15 4 -59q9 -54 10 -58z" />
<glyph unicode="L" horiz-adv-x="1574" d="M1436 647l22 -69l-15 -16q-32 -38 -32 -42l8 -71q0 -1 -28.5 -20t-28.5 -26l-6 -73l-64 -33q0 -6 -5 -24t-10 -33l-5 -15l-72 -18q-2 -5 -5.5 -12t-10.5 -22.5t-12 -24.5t-5 -7q0 1 -18.5 -2t-34 -6t-18.5 2q0 2 -11 -11q-5 -6 -16 -21l-20 -25q-3 -3 -19 -0.5t-34.5 6.5 t-18.5 2q0 1 -13.5 -9t-27.5 -22t-14 -16q0 1 -17.5 7.5t-35 11.5t-17.5 3q0 -6 -33 -21l-33 -15q0 2 -16 12t-31.5 18.5t-15.5 5.5q0 2 -17.5 -3t-35 -11t-17.5 -8q-55 37 -55 47q0 -5 -18.5 -8.5t-37 -3t-18.5 3.5l-17 22q-26 35 -28 35q0 -7 -17.5 -7t-35.5 4t-18 9 l-18 33l-17 33q0 -4 -17.5 0t-35 10t-17.5 8l-5 20l-15 52q0 -1 -16.5 5t-33 14.5t-16.5 13.5l-3 36l-3 37q0 1 -28.5 21t-28.5 25q0 4 4 36t4 35q0 -3 -12 11t-23.5 29.5t-11.5 17.5l9 30l13 39l-15 28l-20 36q0 -9 22 36l13 27l-7 22l-15 48q0 -1 11.5 10.5t23.5 26 t12 18.5q0 5 -2 24t-4 35t-2 15q0 14 35 37q22 14 22 8l1 19l5 55q0 -9 60 29l6 3q0 1 10 35t10 35q0 3 18 10t33.5 10.5t18.5 -0.5q0 -1 8.5 16t17.5 34t9 16t18.5 2.5t34 5.5t18.5 -2q0 -7 25 29l20 28q5 -1 12.5 -2t23.5 -3t27 -3t11 0l28 21q27 21 27 26q0 -1 17.5 -7 t35 -11t17.5 -4q0 -2 15.5 6.5t31.5 18t16 10.5q0 -2 33 -18t33 -17q0 8 18 16t33.5 9t18.5 -3q0 4 14 -8.5t27.5 -26t13.5 -12.5q3 -2 19 -1t34.5 3.5t18.5 5.5q0 5 20 -22l27 -35q0 -2 18.5 -4t34 -2.5t18.5 0.5q0 -8 28 -58q5 -10 5 -8t18 -4.5t36 -12.5t18 -3q0 1 5 -16 t10 -35t5 -19q0 1 16 -5t32 -14.5t16 -12.5l6 -74q0 1 14 -11t28.5 -24t14.5 -10q0 1 -2 -16.5t-4 -36t-2 -21.5q0 8 30 -30q16 -20 17 -25l-20 -66l-2 -4q0 -2 18.5 -28t18.5 -35l-19 -29q-18 -29 -18 -35zM1196 303q10 9 27 29.5t22 25.5q7 10 21.5 32.5t21.5 31.5 q3 6 15 28.5t18 38.5q15 30 25 72q9 37 14 74q4 36 4 76q0 29 -4 75q-10 62 -14 74q-2 10 -25 72q-3 7 -9.5 22t-12.5 27t-11 18q-22 49 -43 62q-6 5 -22.5 27.5t-26.5 29.5q-8 12 -17.5 20.5t-21.5 17t-18 13.5q-25 31 -64 41q-30 24 -67 33q-13 0 -37.5 11.5t-32.5 13.5 q-22 14 -74 14q-27 6 -78 6q-8 -1 -23.5 -1t-28 -1t-23.5 -4q-10 -3 -35 -4.5t-39 -9.5q-24 -6 -72 -25q-28 -7 -65 -33q-44 -23 -64 -41q-7 -6 -18.5 -15.5t-21 -18t-17.5 -17.5q-5 -5 -16.5 -13t-19.5 -17.5t-15 -26.5q-17 -21 -41 -62q-4 -9 -16 -29.5t-17 -37.5 q-13 -26 -25 -72q-12 -54 -14 -74q-6 -56 -6 -75q0 -52 6 -76q3 -40 14 -74q2 -5 10.5 -33t14.5 -39q4 -8 15.5 -30t17.5 -37q25 -33 41 -62q17 -30 51 -57q10 -13 30 -28.5t27 -22.5q9 -4 30.5 -21.5t33.5 -21.5q11 -12 33 -18.5t32 -14.5q39 -22 72 -22q4 -1 31.5 -6 t42.5 -11q25 0 75 -4q10 0 36.5 4t41.5 2q13 -1 37.5 7t36.5 8q13 10 37.5 14.5t32.5 7.5q37 9 67 33q10 4 21 11t24 17.5t19 14.5q10 6 30 26t27 25zM786 158q15 -4 74 6q14 2 24.5 0t23 1t22.5 13q15 7 40 14.5t29 8.5q11 2 33 14.5t31 15.5q7 4 28 21t31 20q8 5 27 23.5 t29 23.5q8 9 24 28t23 28q3 4 11 13.5t11.5 14t9 13t9.5 18.5q3 6 10.5 18t11.5 22t8 26q4 12 13 33t12 34q3 7 12 70q6 35 6 74q0 43 -6 73q-2 25 -12 70q-3 16 -12 34.5t-13 33.5q-18 45 -30 63q-4 7 -18 26.5t-23 35.5q-7 4 -23 25.5t-24 27.5q-9 10 -28 24.5t-28 24.5 q-4 3 -13.5 11t-15.5 12.5t-14.5 9.5t-15.5 6q-10 5 -32 16.5t-32 16.5q-9 4 -32 8.5t-37 13.5q-6 2 -23 8t-23 6.5t-24 -0.5q-10 0 -35 3t-39 2q-17 2 -24.5 1.5t-23.5 -3t-23 -3.5t-22.5 -2t-27 -3.5t-22.5 -8.5q-7 -2 -31 -12t-37 -10q-9 -4 -30.5 -17.5t-32.5 -15.5 q-7 -1 -15.5 -6t-14.5 -9.5t-15.5 -12.5t-13.5 -11q-11 -4 -30.5 -24.5t-25.5 -24.5q-8 -11 -24 -25t-25 -28q-22 -39 -39 -62q-23 -39 -33 -63q-12 -31 -22 -68q-2 -11 -5 -24t-5 -23.5t-4 -24.5q-4 -54 -4 -71q0 -24 4 -74q1 -6 6 -31.5t8 -38.5q16 -65 22 -67 q4 -6 15.5 -32t17.5 -34q7 -6 20 -29t19 -30q28 -35 49 -56q11 -11 56 -47q10 -13 30.5 -23.5t28.5 -17.5q25 -20 63 -30q8 -3 21.5 -5t25 -6t21.5 -12q13 -6 36.5 -7.5t35.5 -6.5q15 1 23 0.5t23.5 -3t24.5 -3.5zM786 1243q39 -9 72 -4q37 -3 68 -14q13 -1 35 -11t30 -12 q3 -2 62 -28q11 -5 31 -20t28 -19q14 -10 51 -48q11 -15 28.5 -33.5t18.5 -19.5q23 -13 39 -57q11 -8 31 -64q20 -51 23 -63q6 -20 14 -70q4 -50 4 -69q0 -26 -4 -72q-2 -18 -7 -38t-7 -30q-19 -57 -23 -65q-3 -5 -13.5 -29t-17.5 -33q-16 -16 -39 -57q-6 -5 -21.5 -25 t-25.5 -28q-5 -5 -15 -17.5t-19 -20.5t-17 -9q-10 -10 -30.5 -21t-28.5 -18q-49 -27 -62 -31q-22 -22 -65 -22q-13 -4 -35.5 -7.5t-32.5 -5.5q-11 -4 -24 -5.5t-23.5 -0.5t-24.5 0l-69 6q-61 11 -68 13q-14 1 -37.5 11t-27.5 11q-8 1 -17.5 4.5t-15 7l-16.5 10.5t-15 9 q-4 3 -13.5 11t-15.5 12.5t-14 9.5t-14 6q-37 41 -53 47q-12 9 -45 53q-8 9 -21.5 30.5t-17.5 26.5q-28 54 -31 62q-2 5 -6.5 12.5t-6.5 12t-5 15t-5 25.5q-8 38 -14 70q-4 66 -4 70q0 29 4 69q6 38 14 70q3 3 10.5 29t12.5 34q2 4 8.5 21t12 28t10.5 15q7 16 39 57 q6 17 22 29t23 24q14 18 53 48q11 6 32 21t25 18q23 14 64 28q6 3 29 6.5t36 16.5q39 -3 68 14q23 8 69 4zM786 211q9 0 32 4t34 2q4 0 13 -1.5t14 -1.5t12 0.5t13.5 4t13.5 10.5q12 -4 35 8t26 13q8 -5 17 -1t22.5 15.5t17.5 14.5q17 4 54 36q6 6 16.5 14t18.5 15t14 14 q2 1 11.5 9t12.5 11.5t9.5 11.5t11.5 18q5 9 17 23.5t18 29.5q9 13 28 59q3 8 11 29.5t10 32.5q3 21 7.5 37.5t6.5 25.5q4 58 4 66q0 29 -4 65q-11 55 -14 64q-2 8 -9.5 27.5t-11.5 33.5q-6 20 -28 57q-23 46 -35 56q-8 12 -24.5 28.5l-20.5 20.5q-7 8 -23.5 19.5 t-25.5 23.5q-9 10 -28.5 21t-25.5 16q-10 14 -31 19.5t-26 8.5q-7 1 -28.5 11.5t-32.5 9.5q-10 4 -21 6t-24 3.5t-21 2.5q-34 7 -66 4q-4 0 -18.5 1t-25.5 0t-21 -5q-19 -7 -64 -12q-10 0 -12 2t-12 -2.5t-12.5 -5.5t-12.5 -7.5t-12 -7.5q-11 -7 -30 -15.5t-27 -12.5 q-33 -29 -56 -37q-7 -8 -24 -20t-25 -23q-8 -16 -23.5 -30t-19.5 -19q-28 -48 -37 -56q-17 -21 -28 -57q-3 -11 -10.5 -28.5t-10.5 -32.5q-2 -9 -6.5 -32t-5.5 -32q-4 -54 -4 -65q0 -12 4 -66q1 -10 6 -32.5t6 -30.5q3 -15 10 -31t11 -31q5 -16 15 -34t13 -25q6 -2 19 -25.5 t18 -27.5q6 -12 21 -23.5t22 -26.5q25 -31 49 -43q9 -6 28 -18t28 -18q34 -27 57 -29q5 -1 27 -11t34 -10q19 -7 64 -12q12 2 33.5 -3t31.5 -3z" />
<glyph unicode="M" horiz-adv-x="1574" d="M1436 647l22 -69l-15 -16q-32 -38 -32 -42l8 -71q0 -1 -28.5 -20t-28.5 -26l-6 -73l-64 -33q0 -6 -5 -24t-10 -33l-5 -15l-72 -18q-2 -5 -5.5 -12t-10.5 -22.5t-12 -24.5t-5 -7q0 1 -18.5 -2t-34 -6t-18.5 2q0 2 -11 -11q-5 -6 -16 -21l-20 -25q-3 -3 -19 -0.5t-34.5 6.5 t-18.5 2q0 1 -13.5 -9t-27.5 -22t-14 -16q0 1 -17.5 7.5t-35 11.5t-17.5 3q0 -6 -33 -21l-33 -15q0 2 -16 12t-31.5 18.5t-15.5 5.5q0 2 -17.5 -3t-35 -11t-17.5 -8q-55 37 -55 47q0 -5 -18.5 -8.5t-37 -3t-18.5 3.5l-17 22q-26 35 -28 35q0 -7 -17.5 -7t-35.5 4t-18 9 l-18 33l-17 33q0 -4 -17.5 0t-35 10t-17.5 8l-5 20l-15 52q0 -1 -16.5 5t-33 14.5t-16.5 13.5l-3 36l-3 37q0 1 -28.5 21t-28.5 25q0 4 4 36t4 35q0 -3 -12 11t-23.5 29.5t-11.5 17.5l9 30l13 39l-15 28l-20 36q0 -9 22 36l13 27l-7 22l-15 48q0 -1 11.5 10.5t23.5 26 t12 18.5q0 5 -2 24t-4 35t-2 15q0 14 35 37q22 14 22 8l1 19l5 55q0 -9 60 29l6 3q0 1 10 35t10 35q0 3 18 10t33.5 10.5t18.5 -0.5q0 -1 8.5 16t17.5 34t9 16t18.5 2.5t34 5.5t18.5 -2q0 -7 25 29l20 28q5 -1 12.5 -2t23.5 -3t27 -3t11 0l28 21q27 21 27 26q0 -1 17.5 -7 t35 -11t17.5 -4q0 -2 15.5 6.5t31.5 18t16 10.5q0 -2 33 -18t33 -17q0 8 18 16t33.5 9t18.5 -3q0 4 14 -8.5t27.5 -26t13.5 -12.5q3 -2 19 -1t34.5 3.5t18.5 5.5q0 5 20 -22l27 -35q0 -2 18.5 -4t34 -2.5t18.5 0.5q0 -8 28 -58q5 -10 5 -8t18 -4.5t36 -12.5t18 -3q0 1 5 -16 t10 -35t5 -19q0 1 16 -5t32 -14.5t16 -12.5l6 -74q0 1 14 -11t28.5 -24t14.5 -10q0 1 -2 -16.5t-4 -36t-2 -21.5q0 8 30 -30q16 -20 17 -25l-20 -66l-2 -4q0 -2 18.5 -28t18.5 -35l-19 -29q-18 -29 -18 -35zM1196 303q10 9 27 29.5t22 25.5q7 10 21.5 32.5t21.5 31.5 q3 6 15 28.5t18 38.5q15 30 25 72q9 37 14 74q4 36 4 76q0 29 -4 75q-10 62 -14 74q-2 10 -25 72q-3 7 -9.5 22t-12.5 27t-11 18q-22 49 -43 62q-6 5 -22.5 27.5t-26.5 29.5q-8 12 -17.5 20.5t-21.5 17t-18 13.5q-25 31 -64 41q-30 24 -67 33q-13 0 -37.5 11.5t-32.5 13.5 q-22 14 -74 14q-27 6 -78 6q-8 -1 -23.5 -1t-28 -1t-23.5 -4q-10 -3 -35 -4.5t-39 -9.5q-24 -6 -72 -25q-28 -7 -65 -33q-44 -23 -64 -41q-7 -6 -18.5 -15.5t-21 -18t-17.5 -17.5q-5 -5 -16.5 -13t-19.5 -17.5t-15 -26.5q-17 -21 -41 -62q-4 -9 -16 -29.5t-17 -37.5 q-13 -26 -25 -72q-12 -54 -14 -74q-6 -56 -6 -75q0 -52 6 -76q3 -40 14 -74q2 -5 10.5 -33t14.5 -39q4 -8 15.5 -30t17.5 -37q25 -33 41 -62q17 -30 51 -57q10 -13 30 -28.5t27 -22.5q9 -4 30.5 -21.5t33.5 -21.5q11 -12 33 -18.5t32 -14.5q39 -22 72 -22q4 -1 31.5 -6 t42.5 -11q25 0 75 -4q10 0 36.5 4t41.5 2q13 -1 37.5 7t36.5 8q13 10 37.5 14.5t32.5 7.5q37 9 67 33q10 4 21 11t24 17.5t19 14.5q10 6 30 26t27 25zM786 158q15 -4 74 6q14 2 24.5 0t23 1t22.5 13q15 7 40 14.5t29 8.5q11 2 33 14.5t31 15.5q7 4 28 21t31 20q8 5 27 23.5 t29 23.5q8 9 24 28t23 28q3 4 11 13.5t11.5 14t9 13t9.5 18.5q3 6 10.5 18t11.5 22t8 26q4 12 13 33t12 34q3 7 12 70q6 35 6 74q0 43 -6 73q-2 25 -12 70q-3 16 -12 34.5t-13 33.5q-18 45 -30 63q-4 7 -18 26.5t-23 35.5q-7 4 -23 25.5t-24 27.5q-9 10 -28 24.5t-28 24.5 q-4 3 -13.5 11t-15.5 12.5t-14.5 9.5t-15.5 6q-10 5 -32 16.5t-32 16.5q-9 4 -32 8.5t-37 13.5q-6 2 -23 8t-23 6.5t-24 -0.5q-10 0 -35 3t-39 2q-17 2 -24.5 1.5t-23.5 -3t-23 -3.5t-22.5 -2t-27 -3.5t-22.5 -8.5q-7 -2 -31 -12t-37 -10q-9 -4 -30.5 -17.5t-32.5 -15.5 q-7 -1 -15.5 -6t-14.5 -9.5t-15.5 -12.5t-13.5 -11q-11 -4 -30.5 -24.5t-25.5 -24.5q-8 -11 -24 -25t-25 -28q-22 -39 -39 -62q-23 -39 -33 -63q-12 -31 -22 -68q-2 -11 -5 -24t-5 -23.5t-4 -24.5q-4 -54 -4 -71q0 -24 4 -74q1 -6 6 -31.5t8 -38.5q16 -65 22 -67 q4 -6 15.5 -32t17.5 -34q7 -6 20 -29t19 -30q28 -35 49 -56q11 -11 56 -47q10 -13 30.5 -23.5t28.5 -17.5q25 -20 63 -30q8 -3 21.5 -5t25 -6t21.5 -12q13 -6 36.5 -7.5t35.5 -6.5q15 1 23 0.5t23.5 -3t24.5 -3.5zM786 1243q39 -9 72 -4q37 -3 68 -14q13 -1 35 -11t30 -12 q3 -2 62 -28q11 -5 31 -20t28 -19q14 -10 51 -48q11 -15 28.5 -33.5t18.5 -19.5q23 -13 39 -57q11 -8 31 -64q20 -51 23 -63q6 -20 14 -70q4 -50 4 -69q0 -26 -4 -72q-2 -18 -7 -38t-7 -30q-19 -57 -23 -65q-3 -5 -13.5 -29t-17.5 -33q-16 -16 -39 -57q-6 -5 -21.5 -25 t-25.5 -28q-5 -5 -15 -17.5t-19 -20.5t-17 -9q-10 -10 -30.5 -21t-28.5 -18q-49 -27 -62 -31q-22 -22 -65 -22q-13 -4 -35.5 -7.5t-32.5 -5.5q-11 -4 -24 -5.5t-23.5 -0.5t-24.5 0l-69 6q-61 11 -68 13q-14 1 -37.5 11t-27.5 11q-8 1 -17.5 4.5t-15 7l-16.5 10.5t-15 9 q-4 3 -13.5 11t-15.5 12.5t-14 9.5t-14 6q-37 41 -53 47q-12 9 -45 53q-8 9 -21.5 30.5t-17.5 26.5q-28 54 -31 62q-2 5 -6.5 12.5t-6.5 12t-5 15t-5 25.5q-8 38 -14 70q-4 66 -4 70q0 29 4 69q6 38 14 70q3 3 10.5 29t12.5 34q2 4 8.5 21t12 28t10.5 15q7 16 39 57 q6 17 22 29t23 24q14 18 53 48q11 6 32 21t25 18q23 14 64 28q6 3 29 6.5t36 16.5q39 -3 68 14q23 8 69 4z" />
<glyph unicode="N" horiz-adv-x="1576" d="M725 61l-35 -11l-35 -11q-2 0 -28.5 23.5t-28.5 23.5t-33.5 -4t-38.5 -4q2 0 -16 19q-35 38 -29 38q-5 0 -23.5 1.5t-34.5 3t-15 1.5q-1 0 -10.5 16.5t-17.5 33t-5 16.5q-1 0 -33.5 10t-38.5 10q-2 0 -9.5 35t-8.5 35q-2 1 -5.5 2.5t-12.5 6t-17 8t-15.5 7.5t-12 6.5 t-3.5 2.5q2 3 1.5 19t-3 35t-4.5 19q1 0 -12 11.5t-27.5 23t-17.5 11.5q6 73 8 73q-2 0 -14 14t-23 28t-10 14t11 34.5t11 34.5q-25 64 -37 64l17 31q17 32 20 32q-2 0 -11 35t-11 35q1 0 22 28.5t25 28.5q1 0 -2 18t-5.5 36t-0.5 18q-3 0 8 9q6 4 23 16l26 20q1 0 4.5 19 t5 35.5t-3.5 19.5l66 32q3 0 10 36t8 36l44 11l28 7q-2 0 4.5 16.5t15.5 33t13 16.5l73 6q-1 0 11.5 14t24.5 28.5t9 14.5q60 -8 72 -8q2 0 28.5 23.5t28.5 23.5l67 -22h3q8 0 55 30q10 7 8 7q9 0 58 -32l6 -5q1 0 2 0.5t5 2t8.5 2.5t10 2.5t10.5 3.5t10.5 3.5t9.5 3 t7.5 2.5t4.5 2h2l10 -9q3 -3 12 -9q33 -26 33 -29q8 0 40.5 4t33.5 4q-10 0 36 -48l9 -9q4 0 36.5 -3t36.5 -3q6 0 15 -16.5t14.5 -33t3.5 -16.5q66 -18 70 -18q3 0 8 -18t9 -36t3 -18q4 0 21 -8t31.5 -16t13.5 -8q-3 -3 -0.5 -19.5t5.5 -35.5t1 -19l57 -45q-1 0 -4 -36 t-4 -36q1 0 23.5 -28.5t23.5 -28.5q-1 0 -7 -17.5t-11 -35t-4 -17.5q-1 0 8 -13q36 -50 27 -50q-3 0 -12 -16t-16.5 -32t-6.5 -16q-3 0 3.5 -17.5t13.5 -34.5t5 -17q-3 0 -24 -28t-23 -28q-6 -3 -5.5 -19t5.5 -35t8 -19l-57 -46q2 0 2 -18.5t-2 -36.5t-6 -18 q-62 -33 -66 -33q-1 0 -7 -17.5t-10.5 -35t-2.5 -17.5l-45 -15q-17 -5 -25 -5q4 0 -4.5 -16.5t-19 -33t-9.5 -16.5t-17.5 -1.5t-37.5 -3.5l-18 -1q-5 0 -17 -14t-21.5 -28.5t-6.5 -14.5l-74 8q-4 -3 -10 -8t-19 -15t-20.5 -17t-5.5 -7q-66 22 -70 22q1 0 -15.5 -8.5l-33 -17 t-15.5 -8.5l-20 10zM381 303q13 -9 28 -26t29 -25q24 -24 62 -41q9 -4 21 -11.5t22.5 -12.5t23.5 -9q8 -3 21 -9t23.5 -9t27.5 -6q50 -13 74 -15q41 -6 75 -6q36 0 76 6q32 2 74 15q54 14 72 24q42 12 67 33q12 5 22 11.5t22.5 16t17.5 13.5q46 37 57 51q37 37 51 57 q4 21 41 62q4 8 14 21.5t16 24.5t5 21q1 2 5 8t5.5 8.5l4.5 7.5t4.5 8t3.5 8t2.5 8t0.5 7.5t-0.5 8.5t-2.5 8q16 33 16 74q-3 34 4 76q3 19 -6 75q0 41 -14 76q-8 13 -13.5 37t-9.5 33q-9 11 -17 33t-18 34q-19 37 -41 64q-4 4 -19 25t-32 32q-6 22 -57 49q-60 42 -62 43 q-9 6 -34.5 17t-32.5 16q-4 2 -16 7.5t-24.5 9.5t-31.5 8q-23 7 -74 14q-58 4 -76 4q-13 0 -75 -4q-5 -1 -35 -5.5t-39 -8.5q-8 -3 -26 -8t-30 -9t-16 -8q-34 -11 -67 -33q-6 -4 -30 -19t-32 -24q-7 -3 -13.5 -7.5t-10.5 -7.5t-10 -9l-8 -8t-8 -9t-7 -8q-3 -3 -51 -57 q-8 -7 -14.5 -15.5t-10 -14.5t-8.5 -17.5t-8 -16.5q-21 -27 -35 -67q-15 -12 -15 -36t-8 -34q-3 -14 -8 -39.5t-8 -36.5q-6 -8 -4.5 -36.5t0.5 -38.5q-1 -11 0 -24t3 -28.5t3 -23.5q-1 -18 -0.5 -24.5t6.5 -24.5t8 -25q3 -12 11.5 -36t11.5 -36q-1 -10 4 -20.5t16 -25.5 t15 -21q14 -24 41 -62q6 -7 16 -18.5t18.5 -21t16.5 -17.5zM246 711q0 -47 4 -72q1 -7 2.5 -22t4 -26.5t7.5 -21.5q1 -3 11 -28t12 -37q7 -13 16.5 -34.5t13.5 -29.5q9 -18 41 -59q18 -22 48 -53q4 -4 11 -12t11.5 -12.5t13 -11t17.5 -11.5q14 -7 59 -39q16 -19 62 -33 q13 -4 34 -12t33 -11q19 -8 70 -12q41 -6 71 -6q51 0 72 6q49 3 70 12q52 16 65 23q54 27 64 33q32 12 59 39q42 26 53 47q3 4 24.5 23.5t23.5 29.5q13 10 23.5 30.5t17.5 28.5q2 8 15.5 29.5t14.5 34.5q21 52 23 65q-8 29 14 70q11 11 11.5 23t-4 26t-3.5 23 q-1 6 -5.5 24.5t-4 23.5t3.5 23q-2 8 -3.5 32.5t-8.5 37.5q-11 12 -13.5 34.5t-9.5 33.5q-5 10 -15 30.5t-15 30.5q-10 11 -21.5 31.5t-17.5 27.5q-5 6 -25 26t-25 30q-13 7 -22 14.5t-19 19t-12 13.5q-45 25 -59 39q-16 9 -62 30q-16 4 -37.5 12.5t-29.5 10.5q-6 3 -36 8 t-34 6q-32 4 -72 4q-25 0 -71 -4q-6 -1 -20 -3.5t-26.5 -5t-23.5 -5.5q-46 -11 -67 -23q-5 -4 -29 -14t-33 -16q-6 -6 -28.5 -19.5t-30.5 -19.5q-7 -6 -23.5 -22t-29.5 -25q-5 -6 -14.5 -17.5t-18 -21t-17.5 -17.5q-5 -10 -20 -31t-19 -28q-1 -10 -15 -30.5t-15 -30.5 q-21 -39 -23 -68q-11 -14 -12 -39.5t-2 -30.5q-5 -6 -7.5 -12t-3.5 -10.5t-0.5 -12.5t1 -11.5t3 -12.5t3.5 -12z" />
<glyph unicode="O" horiz-adv-x="1576" d="M725 61l-35 -11l-35 -11q-2 0 -28.5 23.5t-28.5 23.5t-33.5 -4t-38.5 -4q2 0 -16 19q-35 38 -29 38q-5 0 -23.5 1.5t-34.5 3t-15 1.5q-1 0 -10.5 16.5t-17.5 33t-5 16.5q-1 0 -33.5 10t-38.5 10q-2 0 -9.5 35t-8.5 35q-2 1 -5.5 2.5t-12.5 6t-17 8t-15.5 7.5t-12 6.5 t-3.5 2.5q2 3 1.5 19t-3 35t-4.5 19q1 0 -12 11.5t-27.5 23t-17.5 11.5q6 73 8 73q-2 0 -14 14t-23 28t-10 14t11 34.5t11 34.5q-25 64 -37 64l17 31q17 32 20 32q-2 0 -11 35t-11 35q1 0 22 28.5t25 28.5q1 0 -2 18t-5.5 36t-0.5 18q-3 0 8 9q6 4 23 16l26 20q1 0 4.5 19 t5 35.5t-3.5 19.5l66 32q3 0 10 36t8 36l44 11l28 7q-2 0 4.5 16.5t15.5 33t13 16.5l73 6q-1 0 11.5 14t24.5 28.5t9 14.5q60 -8 72 -8q2 0 28.5 23.5t28.5 23.5l67 -22h3q8 0 55 30q10 7 8 7q9 0 58 -32l6 -5q1 0 2 0.5t5 2t8.5 2.5t10 2.5t10.5 3.5t10.5 3.5t9.5 3 t7.5 2.5t4.5 2h2l10 -9q3 -3 12 -9q33 -26 33 -29q8 0 40.5 4t33.5 4q-10 0 36 -48l9 -9q4 0 36.5 -3t36.5 -3q6 0 15 -16.5t14.5 -33t3.5 -16.5q66 -18 70 -18q3 0 8 -18t9 -36t3 -18q4 0 21 -8t31.5 -16t13.5 -8q-3 -3 -0.5 -19.5t5.5 -35.5t1 -19l57 -45q-1 0 -4 -36 t-4 -36q1 0 23.5 -28.5t23.5 -28.5q-1 0 -7 -17.5t-11 -35t-4 -17.5q-1 0 8 -13q36 -50 27 -50q-3 0 -12 -16t-16.5 -32t-6.5 -16q-3 0 3.5 -17.5t13.5 -34.5t5 -17q-3 0 -24 -28t-23 -28q-6 -3 -5.5 -19t5.5 -35t8 -19l-57 -46q2 0 2 -18.5t-2 -36.5t-6 -18 q-62 -33 -66 -33q-1 0 -7 -17.5t-10.5 -35t-2.5 -17.5l-45 -15q-17 -5 -25 -5q4 0 -4.5 -16.5t-19 -33t-9.5 -16.5t-17.5 -1.5t-37.5 -3.5l-18 -1q-5 0 -17 -14t-21.5 -28.5t-6.5 -14.5l-74 8q-4 -3 -10 -8t-19 -15t-20.5 -17t-5.5 -7q-66 22 -70 22q1 0 -15.5 -8.5l-33 -17 t-15.5 -8.5l-20 10zM381 303q13 -9 28 -26t29 -25q24 -24 62 -41q9 -4 21 -11.5t22.5 -12.5t23.5 -9q8 -3 21 -9t23.5 -9t27.5 -6q50 -13 74 -15q41 -6 75 -6q36 0 76 6q32 2 74 15q54 14 72 24q42 12 67 33q12 5 22 11.5t22.5 16t17.5 13.5q46 37 57 51q37 37 51 57 q4 21 41 62q4 8 14 21.5t16 24.5t5 21q1 2 5 8t5.5 8.5l4.5 7.5t4.5 8t3.5 8t2.5 8t0.5 7.5t-0.5 8.5t-2.5 8q16 33 16 74q-3 34 4 76q3 19 -6 75q0 41 -14 76q-8 13 -13.5 37t-9.5 33q-9 11 -17 33t-18 34q-19 37 -41 64q-4 4 -19 25t-32 32q-6 22 -57 49q-60 42 -62 43 q-9 6 -34.5 17t-32.5 16q-4 2 -16 7.5t-24.5 9.5t-31.5 8q-23 7 -74 14q-58 4 -76 4q-13 0 -75 -4q-5 -1 -35 -5.5t-39 -8.5q-8 -3 -26 -8t-30 -9t-16 -8q-34 -11 -67 -33q-6 -4 -30 -19t-32 -24q-7 -3 -13.5 -7.5t-10.5 -7.5t-10 -9l-8 -8t-8 -9t-7 -8q-3 -3 -51 -57 q-8 -7 -14.5 -15.5t-10 -14.5t-8.5 -17.5t-8 -16.5q-21 -27 -35 -67q-15 -12 -15 -36t-8 -34q-3 -14 -8 -39.5t-8 -36.5q-6 -8 -4.5 -36.5t0.5 -38.5q-1 -11 0 -24t3 -28.5t3 -23.5q-1 -18 -0.5 -24.5t6.5 -24.5t8 -25q3 -12 11.5 -36t11.5 -36q-1 -10 4 -20.5t16 -25.5 t15 -21q14 -24 41 -62q6 -7 16 -18.5t18.5 -21t16.5 -17.5z" />
<glyph unicode="P" horiz-adv-x="1206" d="M1085 588q26 -53 15 -113q0 -13 -11 -32.5t-14 -26.5q-6 -4 -20.5 -20t-24.5 -21q-9 -5 -24 -16.5t-29 -18.5q-17 -11 -64 -21q-12 -2 -37.5 -2.5t-39.5 -3.5q-37 -11 -78 -8q-16 -1 -37 -9t-33 -9q-12 -5 -33.5 -16.5t-36 -19t-14.5 -5.5q-65 35 -88 41q-4 1 -19 3 t-27.5 5.5t-23.5 9.5q-17 -2 -41.5 3.5t-35.5 4.5q-43 -6 -78 6q-10 4 -25 7.5t-25 6.5t-14 7q-29 15 -53 35q-7 0 -14.5 6.5t-17 18.5t-13.5 16q-23 27 -25 59q-3 30 0.5 63.5t14.5 49.5q6 18 43 82q10 19 26 40.5t23 34.5q5 11 31 93q0 2 3 22t3 35q0 5 1.5 21t0.5 25 t-6 13q1 15 -1.5 30.5t-4.5 23.5t-7.5 26t-7.5 23q-7 23 -10 31.5t-11.5 23.5t-21.5 27q-4 5 -22 24t-25 34t-2 32q0 6 2 11.5t8 13t9 10.5l12 12l8 8q3 4 12 15.5t16.5 20.5t14.5 13q8 -4 14 2q10 3 19 -0.5t19.5 -11t17.5 -10.5q12 -5 24.5 -9t31 -9t32.5 -9 q14 -3 41.5 -12t48.5 -10q6 -1 19 -5t21 -6t19.5 -3.5t20.5 -0.5q9 -1 23 -3t23.5 -3t14.5 0q12 1 32 2.5t33.5 3t20.5 4.5q6 -2 11.5 -1.5t13.5 2t10 1.5q4 -2 8 -1t13 4l12 4q36 12 84 24q16 2 42.5 13t39.5 14q7 6 55 22q3 1 8.5 -1t7.5 -1q4 -1 15.5 -20.5t27.5 -28.5 q3 -4 15 -16t18 -21.5t4 -17.5q4 -19 -4.5 -34.5t-24 -31.5t-20.5 -24q-3 -6 -14.5 -23t-17.5 -30.5t-9 -28.5q0 -1 -10 -41t-12 -62q-4 -11 -4.5 -33.5t-0.5 -25.5q1 -8 4.5 -27.5t2.5 -29.5q10 -64 30 -93q36 -46 49 -75q4 -13 20.5 -40t22.5 -42zM1063 483q10 26 -8 76 q-6 28 -27 59q-6 17 -23 41t-22 33q-11 10 -18.5 22t-15 30.5t-9.5 23.5q-2 13 -10 42.5t-10 51.5q-2 24 1 63.5t3 51.5q7 60 22 94q3 23 27 62q27 40 39 51q3 7 13.5 16t10.5 17q0 3 -4.5 12.5t-9.5 9.5q-23 18 -45 57q-7 -8 -17.5 -12.5t-24 -7t-17.5 -4.5q-11 -6 -62 -23 q-33 -13 -65 -18q-33 -6 -68 -17q-8 -1 -25 -5t-32 -3q-25 10 -64 0q-12 4 -31.5 1.5t-31.5 -1.5q-13 -1 -20.5 0t-20.5 4t-17 4q-50 11 -67 17q-8 1 -31 8.5t-35 9.5q-2 1 -24.5 8t-36.5 15q-6 2 -17 5t-17 5t-13 5.5t-13 8.5q-15 -27 -45 -57q-14 -9 -14 -22 q1 -5 13 -16.5t12 -16.5q4 -9 19 -27t19 -24q2 -8 6 -18t11 -23t10 -21q2 -10 12 -42t11 -52q2 -18 2.5 -60.5t1.5 -54.5q-3 -49 -21 -94q-5 -10 -12 -26t-14 -28t-17 -22q-6 -17 -22.5 -39.5t-22.5 -34.5q-20 -20 -26 -59q-9 -37 -9 -76q28 -51 52 -75q25 -36 67 -39 q10 -5 22 -8t32.5 -5t31.5 -4q22 2 64 -4q47 0 63 -8q9 -3 25 -6.5t30 -7.5q24 0 54 -19q0 -5 2 -7t8 -4t10 -5q3 3 9.5 5.5t13.5 10.5q5 3 24 9t27 10q8 2 21.5 4.5t21.5 4.5t12 5q14 3 36.5 4.5t27.5 3.5q6 2 30.5 0.5t32.5 3.5q6 1 25 3t34.5 5.5t26.5 8.5q6 3 23 10 t28 13.5t17 15.5q33 26 42 42q7 15 9 33zM602 336q2 -2 6 4q6 2 22 6.5t23 7.5q2 3 8.5 1.5t6.5 2.5q8 2 20 6.5t20.5 7t16.5 1.5q41 12 111 12q4 -1 10 1t10 1q29 0 76 14q19 4 55 31q7 3 7 6q0 1 1 2q33 17 33 45q7 13 4.5 32t-10.5 32q0 21 -23 53h1q-2 3 -3 2 q-4 12 -34 55l-9 13q-4 14 -23 40.5t-22 41.5q-22 65 -24 106q-3 54 4 113q3 12 9.5 50t14.5 58q24 31 31 70q21 44 41 57q-7 0 5 5q2 1 3 1q0 1 1 1.5t1 1.5q-7 7 -13 19.5t-15 16.5q-17 -2 -36 -12t-26 -10q-11 -2 -59 -21q-5 -2 -19 -8t-23.5 -8.5t-15.5 0.5 q-8 0 -28.5 -6.5t-30.5 -7.5q-45 -14 -111 -11q-2 4 -6 4.5t-7 -1.5l-3 -1q-12 2 -14.5 2t-1.5 -4q-74 0 -111 11q-5 2 -26.5 4.5t-32.5 9.5q-14 10 -58 16q-8 1 -28.5 10t-30.5 11q-29 -3 -61 22q-5 -16 -29 -36q-1 0 2 -3q-1 -4 0 -4q7 -1 8 -2q4 -6 19 -25t22 -32 q2 -8 15 -31.5t16 -38.5q3 -10 9.5 -47t16.5 -61q8 -78 2 -113q3 -62 -24 -106q-5 -12 -23.5 -39.5t-21.5 -42.5q2 -3 -1 -8t-7 -5q-6 -8 -17.5 -27.5t-17.5 -27.5v-4q-1 -1 -2 2q-1 -7 -11.5 -23t-11.5 -30q-3 -14 -3.5 -33.5t-2.5 -30.5q1 -7 3 -12.5t6 -10.5t6.5 -7.5 t8.5 -7.5t9 -7q3 -1 5 -3t2 -3l1 -2q8 -4 25 -14.5t30 -16.5q28 -17 76 -14q8 2 11.5 1.5t6.5 -2.5l3 -1q14 -2 52.5 -4t57.5 -8q18 4 60 -15q7 -6 12 -4q7 -4 22.5 -7t22.5 -7q0 -6 4 -7q3 -1 3 1q0 1 -1 2z" />
<glyph unicode="Q" horiz-adv-x="1206" d="M1085 588q26 -53 15 -113q0 -13 -11 -32.5t-14 -26.5q-6 -4 -20.5 -20t-24.5 -21q-9 -5 -24 -16.5t-29 -18.5q-17 -11 -64 -21q-12 -2 -37.5 -2.5t-39.5 -3.5q-37 -11 -78 -8q-16 -1 -37 -9t-33 -9q-12 -5 -33.5 -16.5t-36 -19t-14.5 -5.5q-65 35 -88 41q-4 1 -19 3 t-27.5 5.5t-23.5 9.5q-17 -2 -41.5 3.5t-35.5 4.5q-43 -6 -78 6q-10 4 -25 7.5t-25 6.5t-14 7q-29 15 -53 35q-7 0 -14.5 6.5t-17 18.5t-13.5 16q-23 27 -25 59q-3 30 0.5 63.5t14.5 49.5q6 18 43 82q10 19 26 40.5t23 34.5q5 11 31 93q0 2 3 22t3 35q0 5 1.5 21t0.5 25 t-6 13q1 15 -1.5 30.5t-4.5 23.5t-7.5 26t-7.5 23q-7 23 -10 31.5t-11.5 23.5t-21.5 27q-4 5 -22 24t-25 34t-2 32q0 6 2 11.5t8 13t9 10.5l12 12l8 8q3 4 12 15.5t16.5 20.5t14.5 13q8 -4 14 2q10 3 19 -0.5t19.5 -11t17.5 -10.5q12 -5 24.5 -9t31 -9t32.5 -9 q14 -3 41.5 -12t48.5 -10q6 -1 19 -5t21 -6t19.5 -3.5t20.5 -0.5q9 -1 23 -3t23.5 -3t14.5 0q12 1 32 2.5t33.5 3t20.5 4.5q6 -2 11.5 -1.5t13.5 2t10 1.5q4 -2 8 -1t13 4l12 4q36 12 84 24q16 2 42.5 13t39.5 14q7 6 55 22q3 1 8.5 -1t7.5 -1q4 -1 15.5 -20.5t27.5 -28.5 q3 -4 15 -16t18 -21.5t4 -17.5q4 -19 -4.5 -34.5t-24 -31.5t-20.5 -24q-3 -6 -14.5 -23t-17.5 -30.5t-9 -28.5q0 -1 -10 -41t-12 -62q-4 -11 -4.5 -33.5t-0.5 -25.5q1 -8 4.5 -27.5t2.5 -29.5q10 -64 30 -93q36 -46 49 -75q4 -13 20.5 -40t22.5 -42zM1063 483q10 26 -8 76 q-6 28 -27 59q-6 17 -23 41t-22 33q-11 10 -18.5 22t-15 30.5t-9.5 23.5q-2 13 -10 42.5t-10 51.5q-2 24 1 63.5t3 51.5q7 60 22 94q3 23 27 62q27 40 39 51q3 7 13.5 16t10.5 17q0 3 -4.5 12.5t-9.5 9.5q-23 18 -45 57q-7 -8 -17.5 -12.5t-24 -7t-17.5 -4.5q-11 -6 -62 -23 q-33 -13 -65 -18q-33 -6 -68 -17q-8 -1 -25 -5t-32 -3q-25 10 -64 0q-12 4 -31.5 1.5t-31.5 -1.5q-13 -1 -20.5 0t-20.5 4t-17 4q-50 11 -67 17q-8 1 -31 8.5t-35 9.5q-2 1 -24.5 8t-36.5 15q-6 2 -17 5t-17 5t-13 5.5t-13 8.5q-15 -27 -45 -57q-14 -9 -14 -22 q1 -5 13 -16.5t12 -16.5q4 -9 19 -27t19 -24q2 -8 6 -18t11 -23t10 -21q2 -10 12 -42t11 -52q2 -18 2.5 -60.5t1.5 -54.5q-3 -49 -21 -94q-5 -10 -12 -26t-14 -28t-17 -22q-6 -17 -22.5 -39.5t-22.5 -34.5q-20 -20 -26 -59q-9 -37 -9 -76q28 -51 52 -75q25 -36 67 -39 q10 -5 22 -8t32.5 -5t31.5 -4q22 2 64 -4q47 0 63 -8q9 -3 25 -6.5t30 -7.5q24 0 54 -19q0 -5 2 -7t8 -4t10 -5q3 3 9.5 5.5t13.5 10.5q5 3 24 9t27 10q8 2 21.5 4.5t21.5 4.5t12 5q14 3 36.5 4.5t27.5 3.5q6 2 30.5 0.5t32.5 3.5q6 1 25 3t34.5 5.5t26.5 8.5q6 3 23 10 t28 13.5t17 15.5q33 26 42 42q7 15 9 33z" />
<glyph unicode="R" horiz-adv-x="1062" d="M528 336q2 -3 0 -3q-4 0 -6 7q-7 4 -22.5 7t-22.5 7l-8 1q-3 2 -4 3q-3 1 -9.5 4t-8.5 4t-7 3t-7 2.5t-6.5 1.5t-7 1h-6t-7.5 -1q-19 6 -58 8t-53 4l-3 1q-3 2 -6.5 2.5t-11.5 -1.5q-47 -3 -75 14q-13 6 -30.5 16.5t-25.5 14.5q-2 6 -8 8q-3 2 -9 7t-8.5 7.5t-6.5 7.5 t-6 10.5t-3 12.5q2 10 3 30t4 34q1 14 11 30t11 23q2 1 2 2q6 8 17.5 27.5t17.5 27.5q4 0 7 5t1 8q3 15 21.5 42.5t23.5 39.5q28 45 25 106q6 35 -2 113q-10 24 -17 61t-10 47q-3 15 -16 38.5t-15 31.5q-7 13 -22 32t-19 25q-1 1 -8 2q-1 0 0 4q-2 2 -2 3q24 20 29 36 q32 -25 61 -22q10 -2 31 -11t29 -10q43 -6 57 -16q11 -7 32.5 -9.5t26.5 -4.5q37 -11 111 -11q-1 4 1.5 4t14.5 -2q13 6 17 -2q65 -3 110 11q10 1 31 7.5t29 6.5q6 -3 15.5 -0.5t23 8.5t18.5 8q47 19 59 21q7 0 26 10t36 12q9 -4 15.5 -16.5t13.5 -19.5q0 -1 -1 -1.5 t-1 -1.5l-11 -5l2 -1q-20 -13 -41 -57q-7 -40 -30 -70q-8 -20 -15.5 -59t-9.5 -49q-7 -59 -4 -113q2 -38 25 -106q3 -15 22 -41.5t23 -40.5q1 1 1.5 0l2.5 -5l4 -8q32 -45 35 -55q0 2 2 -2q22 -31 22 -53q8 -13 10.5 -32t-4.5 -32q0 -28 -32 -45q-1 -1 -1 -2t-2 -2.5 t-6 -3.5q-36 -27 -55 -31q-47 -14 -76 -14q-4 1 -10 -1t-10 -1q-70 0 -111 -12q-8 1 -16.5 -1.5t-20.5 -7t-20 -6.5q-1 -4 -6 -2.5t-8 -1.5q-7 -3 -23 -7.5t-22 -6.5q0 3 -3 -2q-3 -4 -4 -2z" />
<glyph unicode="S" horiz-adv-x="1079" d="M973 1042q0 -9 2.5 -45.5t-0.5 -40.5q-4 -61 -8 -79q-7 -34 -17 -68q-1 -12 -9.5 -36.5t-10.5 -31.5q-9 -33 -23 -63q-2 -7 -12.5 -30.5t-11.5 -33.5q-4 -17 -19 -39.5t-18 -31.5q-4 -12 -20 -33.5t-21 -32.5q-20 -44 -47 -61q-9 -9 -27 -28.5t-26 -27.5 q-9 -13 -39 -28.5t-39 -26.5q-26 -13 -27 -16q-22 -4 -33 -10q-3 -2 -13 -4l-7 -3q-1 -3 -2 -4q-1 2 -6 2q-1 -1 -3 -2q-2 -2 -3 1q-1 1 -1 3q-5 -2 -11 3.5t-9 3.5q-9 0 -19.5 4.5t-13.5 5.5q-20 4 -28 16q-44 26 -76 55q-27 19 -53 56q-17 33 -48 61q-6 8 -18.5 30.5 t-22.5 35.5q-18 25 -36 71q-7 9 -14.5 33t-10.5 29q-3 14 -13 34t-12 31q-3 14 -10.5 36t-9.5 32q-1 7 -2.5 18.5t-2.5 18.5t-3.5 16t-5.5 15q-6 37 -9 79q-3 13 0.5 42.5t1.5 43.5q-2 27 7 78q-2 12 4.5 36.5t13.5 33.5q11 11 39 18q9 2 30 9t27 8q8 4 30.5 6.5t27.5 7.5 q9 6 32 7.5t27 2.5q20 -2 66 6q16 4 38.5 4.5t26.5 0.5q37 5 64 2q6 0 22 1t26 0.5t17 -3.5q10 -1 25 -3t21 -2.5t18 0.5q44 -10 65 -6q11 3 33 -3t29 -7q19 0 57 -14q5 -5 28 -9t27 -8q7 -5 22 -9.5t19 -8.5t7.5 -17t6 -30.5t3.5 -22.5q0 -16 4 -42.5t4 -35.5zM932 881 q-1 7 4 31t4 40q3 6 0.5 37t-2.5 39q0 10 -2.5 35t-1.5 35q0 39 -12 67q-23 11 -99 29q-68 12 -86 16q-39 3 -73 11q-24 -2 -60 4q-17 2 -39 -1t-26 1q-53 7 -76 0q-19 1 -28 0.5t-26 -3t-22 -3.5q-11 -6 -37.5 -8.5t-34.5 -4.5q-14 -2 -33.5 -6.5t-31.5 -5.5 q-68 -24 -92 -29q-13 -37 -13 -67q-4 -8 -5.5 -17.5t-1.5 -15.5t0.5 -18.5t0.5 -18.5q5 -53 0 -76q1 -14 0 -22.5t0.5 -21t5.5 -27.5q2 -8 6.5 -21t7.5 -23.5t3 -19.5q-1 -10 16 -61q19 -44 21 -58q12 -17 22 -55q14 -42 25 -53q3 -4 9 -14.5t10.5 -19t8.5 -15.5 q11 -14 30 -44t34 -48q7 -6 33.5 -38t44.5 -42q17 -6 36.5 -22.5t34.5 -22.5q4 -2 12 -8t13 -9q7 10 27 -10q17 10 28 10q1 1 3 3.5t4 4t4 4t4.5 3.5t5 1.5t4.5 0.5q40 18 72 45q20 11 43 42t32 38q2 3 28.5 35.5t37.5 56.5q4 9 15 25.5t14 23.5q7 10 13 26.5t11 26.5 q3 11 6 19.5t8 19t7 16.5q0 28 20 58q1 8 9 31.5t10 29.5q12 40 14 64zM539 336l8 2q2 2 6 2q0 -1 0.5 0t2.5 2.5t5 1.5q3 5 8 6t6 4q14 6 24.5 13t23 16t20.5 14q31 39 70 74q54 73 63 88q14 24 49 98q7 13 13.5 32t9.5 26t8.5 27t11.5 30q17 26 17 57q0 38 14 58q0 4 2 26 t4 37q0 6 -0.5 20t-0.5 25.5t1 20.5q-2 -1 -1 3q1 7 -1 7q2 26 1 37t-5.5 37.5t-5.5 38.5q-7 2 -40 11t-46 11q-26 8 -84 17q-17 1 -28 0.5t-25.5 1.5t-30.5 8q-4 0 -38 3t-46 -1q-10 2 -12 0q2 -2 -1 -1l-3 1q1 0 0 2q-4 -6 -27 0q-66 -4 -94 -6q-17 -3 -50 -7t-42 -5 q-12 1 -39.5 -9t-40.5 -8q-27 -7 -60 -18q-4 -12 -5.5 -29t-3.5 -44t-3 -40v-8v-2q2 -16 0.5 -38t-0.5 -28q0 -46 6 -63q1 -9 8 -28t7 -30q0 -1 1 -13.5t4.5 -23.5t10.5 -20q5 -11 10.5 -30.5t9.5 -26.5q1 -16 8.5 -33.5t14.5 -24.5q13 -49 49 -98q8 -14 18.5 -29t25 -33 t20.5 -26q5 -7 67 -74q18 -7 42 -24t28 -19q4 4 14 -10q0 -1 1 -2q1 -4 7 -2q2 -2 6 -2q4 1 7 -2z" />
<glyph unicode="T" horiz-adv-x="1079" d="M973 1042q0 -9 2.5 -45.5t-0.5 -40.5q-4 -61 -8 -79q-7 -34 -17 -68q-1 -12 -9.5 -36.5t-10.5 -31.5q-9 -33 -23 -63q-2 -7 -12.5 -30.5t-11.5 -33.5q-4 -17 -19 -39.5t-18 -31.5q-4 -12 -20 -33.5t-21 -32.5q-20 -44 -47 -61q-9 -9 -27 -28.5t-26 -27.5 q-9 -13 -39 -28.5t-39 -26.5q-26 -13 -27 -16q-22 -4 -33 -10q-3 -2 -13 -4l-7 -3q-1 -3 -2 -4q-1 2 -6 2q-1 -1 -3 -2q-2 -2 -3 1q-1 1 -1 3q-5 -2 -11 3.5t-9 3.5q-9 0 -19.5 4.5t-13.5 5.5q-20 4 -28 16q-44 26 -76 55q-27 19 -53 56q-17 33 -48 61q-6 8 -18.5 30.5 t-22.5 35.5q-18 25 -36 71q-7 9 -14.5 33t-10.5 29q-3 14 -13 34t-12 31q-3 14 -10.5 36t-9.5 32q-1 7 -2.5 18.5t-2.5 18.5t-3.5 16t-5.5 15q-6 37 -9 79q-3 13 0.5 42.5t1.5 43.5q-2 27 7 78q-2 12 4.5 36.5t13.5 33.5q11 11 39 18q9 2 30 9t27 8q8 4 30.5 6.5t27.5 7.5 q9 6 32 7.5t27 2.5q20 -2 66 6q16 4 38.5 4.5t26.5 0.5q37 5 64 2q6 0 22 1t26 0.5t17 -3.5q10 -1 25 -3t21 -2.5t18 0.5q44 -10 65 -6q11 3 33 -3t29 -7q19 0 57 -14q5 -5 28 -9t27 -8q7 -5 22 -9.5t19 -8.5t7.5 -17t6 -30.5t3.5 -22.5q0 -16 4 -42.5t4 -35.5zM932 881 q-1 7 4 31t4 40q3 6 0.5 37t-2.5 39q0 10 -2.5 35t-1.5 35q0 39 -12 67q-23 11 -99 29q-68 12 -86 16q-39 3 -73 11q-24 -2 -60 4q-17 2 -39 -1t-26 1q-53 7 -76 0q-19 1 -28 0.5t-26 -3t-22 -3.5q-11 -6 -37.5 -8.5t-34.5 -4.5q-14 -2 -33.5 -6.5t-31.5 -5.5 q-68 -24 -92 -29q-13 -37 -13 -67q-4 -8 -5.5 -17.5t-1.5 -15.5t0.5 -18.5t0.5 -18.5q5 -53 0 -76q1 -14 0 -22.5t0.5 -21t5.5 -27.5q2 -8 6.5 -21t7.5 -23.5t3 -19.5q-1 -10 16 -61q19 -44 21 -58q12 -17 22 -55q14 -42 25 -53q3 -4 9 -14.5t10.5 -19t8.5 -15.5 q11 -14 30 -44t34 -48q7 -6 33.5 -38t44.5 -42q17 -6 36.5 -22.5t34.5 -22.5q4 -2 12 -8t13 -9q7 10 27 -10q17 10 28 10q1 1 3 3.5t4 4t4 4t4.5 3.5t5 1.5t4.5 0.5q40 18 72 45q20 11 43 42t32 38q2 3 28.5 35.5t37.5 56.5q4 9 15 25.5t14 23.5q7 10 13 26.5t11 26.5 q3 11 6 19.5t8 19t7 16.5q0 28 20 58q1 8 9 31.5t10 29.5q12 40 14 64z" />
<glyph unicode="U" horiz-adv-x="940" d="M469 336l-1 2h-5q-4 0 -6 2q-6 -2 -7 2q-1 1 -1 2q-11 14 -15 10q-4 2 -27.5 19t-41.5 24q-8 9 -24 25.5t-27 28t-17 20.5q-6 8 -20.5 26t-25 33t-18.5 29q-36 49 -49 98q-6 7 -13.5 24.5t-8.5 33.5q-4 7 -10 26.5t-11 30.5q-7 9 -10.5 20t-4.5 23.5t-1 13.5 q0 11 -6.5 30t-7.5 28q-7 20 -7 63q-1 6 0.5 28t-0.5 38q2 7 0 10q9 101 13 113q37 12 59 18q13 -2 40.5 8t39.5 9q9 1 42 5t50 7q27 2 94 6q23 -6 27 0h-1l1 -2v0l5 -1l-1 1q2 2 12 0q12 4 46 1t38 -3q16 -6 30.5 -8t25.5 -1.5t28 -0.5q58 -9 84 -17q13 -2 46 -11t40 -11 q1 -13 6 -38.5t6 -37.5t-1 -37q3 1 2 -5q-1 -5 0 -5q-1 -9 -1 -20.5t0.5 -25.5t0.5 -20q-2 -11 -3 -22t-2 -23t-2 -18q-14 -20 -14 -58q0 -33 -16 -57q-6 -10 -12.5 -30.5t-8.5 -26.5q-3 -7 -9 -26t-13 -32q-35 -74 -49 -98q-5 -8 -64 -88q-39 -35 -70 -74 q-9 -6 -20.5 -14.5t-22 -15.5t-24.5 -13q-1 -3 -6 -4t-8 -6q-3 0 -5 -1.5t-3 -2.5t-1 0q-4 0 -6 -2q-6 0 -8 -2z" />
<glyph unicode="V" horiz-adv-x="3100" d="M2961 786q25 -38 25 -55q5 -24 2 -52.5t-10 -43.5q-22 -43 -33 -53q-16 -22 -47 -41q-39 -26 -55 -31q-4 -1 -28.5 -11t-35.5 -12q-17 3 -54.5 -5t-47.5 -7q-39 -4 -107 4q-31 9 -102 17q-6 1 -39 11.5t-51 8.5q-11 6 -35 11t-25 5q-8 1 -25.5 8t-33.5 7q-51 14 -64 14 q-12 3 -34 6t-33 6q-6 1 -32 4.5t-36 6.5q-40 0 -69 6q-30 -2 -37 -2.5t-33.5 1.5t-42.5 3q-65 0 -106 -10q-61 -3 -107 -27q-44 -13 -80 -53q0 -6 -6.5 -12.5t-9.5 -4.5q-6 -29 -13 -30q-3 0 -8 4q-14 8 -22 26q-2 0 -9.5 7t-7.5 10q-7 5 -21.5 18.5t-27.5 22.5t-28 12 q-19 2 -55.5 16t-53.5 11q-63 12 -106 10q-21 0 -58 -1t-55 -1q-16 -4 -42 -5t-28 -1q-14 -4 -38 -7t-29 -4q-8 -1 -31 -5.5t-35 -6.5q-17 2 -63 -14q-13 -5 -35 -8.5t-27 -6.5q-40 -4 -57 -16q-14 -7 -48 -12t-44 -8q-19 -1 -101 -17q-18 -2 -57 -2.5t-51 -1.5 q-54 0 -101 12q-39 20 -63 23q-7 2 -13 4t-12.5 5.5t-9.5 5.5t-11 8t-11 8q-9 5 -45 41q-22 22 -33 53q-23 67 -10 96q18 18 26 55q3 14 10 27q-3 5 -5 15t-5 14q-7 11 -15.5 30t-10.5 23q-13 33 10 98q14 32 33 51q6 5 22 19.5t23 21.5t26.5 17.5t30.5 13.5q14 7 35 13.5 t28 9.5q86 11 101 12q83 0 108 -4q19 -5 55.5 -10t45.5 -7q20 -2 48 -9.5t44 -10.5q13 2 31.5 -7t25.5 -9q13 -11 62 -15q21 -7 63 -14q5 -1 29.5 -4t36.5 -8q30 0 67 -11q35 -4 70 -6q13 -2 55 0.5t58 -2.5q37 -3 106 10q10 2 109 27q8 5 28.5 15.5t32.5 19t16 18.5 q0 4 12 15q5 5 5 2q10 26 22 26q6 4 10 -1t7 -14.5t4 -10.5q11 -14 16 -17q6 -8 17 -16t18 -12.5t24 -13.5t21 -11q17 -4 53.5 -14.5t53.5 -12.5q16 1 53 -4t53 -6q16 6 58 2.5t55 -0.5q10 13 69 6q13 4 37 6t31 5q13 -1 21 0t22.5 5.5t23.5 6.5q8 2 21 6.5t23 6.5t20 1 q11 1 29.5 7t29.5 8q5 4 13.5 6t23.5 5t23 5q60 18 90 20q13 4 49.5 8.5t52.5 8.5q46 11 107 4q58 3 102 -12q10 0 62 -23q40 -16 57 -31q40 -39 47 -41q7 -9 18 -28t15 -23q15 -18 18 -46t-10 -52q0 -10 -11.5 -26t-13.5 -27q-12 -28 -12 -29q3 -18 12 -27zM2941 645 q1 3 4.5 16.5t5 21.5t3.5 20t0.5 22t-5.5 18q-3 26 -20 45q-18 18 -11 25q3 8 6.5 14.5t4.5 10.5q2 4 7 12.5t7.5 12.5t4.5 10t1 10q7 26 3.5 53t-11.5 45q-12 38 -49 63q-7 4 -31.5 20t-40.5 23q-48 20 -86 25q-66 11 -106 4q-20 -3 -57 -7t-46 -5q-13 0 -46 -8t-50 -11 q-47 -3 -88 -24q-11 -5 -21.5 -7.5t-21.5 -4t-17 -2.5q-44 -15 -61 -17q-5 0 -15.5 -2t-24.5 -5t-23 -5q-4 -4 -11.5 -5.5t-13.5 -2t-20 -1.5t-21 -1q-35 0 -70 -7q-52 -4 -69 -2q-15 -2 -42 -0.5t-34 0.5q-29 7 -72 7q-23 8 -65 8q-47 6 -62 14q-62 11 -98 51q-2 1 -5 4 q-17 11 -22 24l-4 11q-7 -22 -30 -39q-4 -3 -16 -11t-19 -12.5t-18.5 -11t-23 -10.5t-24.5 -6q-12 -2 -29 -8.5t-30 -5.5q-27 -5 -68 -8q-28 5 -69 -7q-40 3 -76 0q-12 2 -72 2q-10 -1 -22 0.5t-26 3.5t-19 3q-6 1 -32.5 6t-35.5 4q-8 1 -23.5 2.5t-24 3t-16.5 6.5 q-16 2 -61 14q-3 1 -16 3t-17.5 3t-12.5 4t-13 7q-19 10 -49 15.5t-39 8.5q-18 6 -50 11t-45 8q-19 0 -53 5.5t-51 6.5q-10 4 -52 0t-53 -4q-56 -12 -86 -25q-11 -4 -24 -12t-28 -18t-21 -13q-40 -31 -49 -63q-18 -53 -9 -98q2 -4 9 -20.5t12 -24.5q0 -4 5 -11t7 -14 q-10 -16 -12 -25q-3 -5 -9.5 -21.5t-11.5 -23.5q-8 -35 9 -98q17 -34 49 -63q7 -8 13.5 -14t15 -11t13 -7t16.5 -6l15 -5q19 -1 47 -12t39 -13q5 -6 51.5 -5t53.5 1q18 7 56 8.5t48 3.5q21 0 53.5 9t41.5 10q9 2 22 5.5t32.5 9t33.5 9.5q21 9 59 17q39 0 61 14q8 3 31 4 t33 8q33 10 68 10q38 0 67 7q19 -3 72 2q12 -2 38 -0.5t38 0.5q46 -8 69 -4q59 -9 68 -11q7 -1 29.5 -7t29.5 -7q21 -8 52.5 -25t48.5 -24q7 -11 16 -21t14 -20q4 5 12.5 21.5t18.5 19.5q33 27 98 49q43 8 62 14q23 15 65 11q13 3 32 2t40 2q18 3 42 0.5t34 -0.5 q11 -2 27.5 -0.5t25 2t16.5 -3.5q14 8 38 0t32 -7q18 0 66 -10q31 -22 63 -12h10h8.5h7t6 -0.5t5 -1t5.5 -1.5t5.5 -2.5t6.5 -3.5t7 -5q7 -1 27.5 -12t32.5 -5q43 -9 88 -24q17 -7 51 -11.5t45 -7.5q77 -13 103 -12q12 0 34 -1.5t38 -0.5t34 6q42 25 86 25q12 11 41.5 27 t30.5 16q12 6 20.5 14t11.5 13.5t8.5 17.5t8.5 18zM2666 545q6 -2 13 -2.5t12.5 0.5l16.5 3t20 3q63 11 80 22q12 5 35.5 20t27.5 17q3 4 11.5 13.5t16 20t11.5 20.5q4 4 7 25.5t-1 47.5q-7 14 -10 23q0 1 -4 6q-6 8 -4 8h-1q-1 2 -1 4q-5 25 -12 29q-2 0 -2 8q2 -1 0 3 q-2 6 0 6q1 0 2 -1q11 28 12 31q4 -1 2 2q0 11 6 12q3 0 2 2q12 8 10 23q4 13 2.5 39t-8.5 37q-6 4 -13 13t-14.5 21t-11.5 17q-35 27 -63 37q-6 2 -20 8t-21.5 8.5t-18.5 4.5t-20 1q-20 12 -62 4q-9 4 -17 3.5t-26 -4t-28 -3.5q-8 -4 -32.5 -4t-33.5 -4q-16 1 -32 -2 t-33.5 -8.5t-26.5 -7.5q-16 -1 -44 -11t-42 -12q-43 -5 -110 -29q-42 -16 -66 -14q-22 1 -24.5 2t-19 -4.5t-26.5 -7.5q-14 -4 -40.5 -4.5t-34.5 -3.5q-38 -7 -78 -2q-8 4 -40.5 2.5t-43.5 -0.5q-16 3 -43 3t-33 1q-42 10 -70 10q-34 -8 -61 16q-2 2 -27 9.5t-28 13.5 q-8 3 -26 16.5t-24 14.5q-1 8 -8 8q-5 -2 -6 -5q0 -1 -0.5 -1.5t-3.5 -1.5q-2 -3 -9 -7.5t-18.5 -11t-19.5 -12.5q-9 -3 -21.5 -7t-20 -7.5t-13.5 -8.5q-11 -6 -19.5 -8t-20 -3.5t-22.5 -4.5q-46 -8 -69 -10q-19 -7 -78 -4q-4 0 -17 -2t-22 -3t-21.5 -0.5t-21.5 3.5 q-9 -3 -21 -3.5t-20.5 0.5t-21.5 3t-17 2q-8 1 -34.5 2t-39.5 6q-16 3 -35.5 5t-35.5 5q-9 2 -32 6.5t-34 7.5q-17 4 -54.5 15t-54.5 14q-20 3 -86 23q-34 9 -94 18q-10 5 -33 6t-30 2q-26 7 -74 4q-43 0 -61 -4q-9 -3 -27 -6t-31.5 -6.5t-19.5 -9.5q-5 -2 -16.5 -6.5 t-18 -7.5t-15 -9t-14.5 -14q-18 -18 -41 -51q-12 -20 -6 -76l3 -3q3 -2 6 -7.5t3 -12.5q1 -2 3 -5t3.5 -5t0.5 -4q3 0 5 -2h-3q-2 -11 14 -31q-2 1 -1 -3q2 -4 1 -5q5 -2 0 -8q0 -10 -14 -29l-1 -1q-1 -1 -1 -3q-5 -3 -7 -14q-1 -2 -3 -8.5t-4 -11t-5 -3.5q-7 -47 6 -73 q19 -48 41 -54q42 -23 64 -37q11 -7 41 -13t37 -9q10 -2 32 -2.5t29 -1.5q56 0 74 4q8 -1 63 8q21 0 51.5 8.5t42.5 9.5q27 10 86 23q51 21 109 29q14 -2 66 14q44 15 71 10q47 -4 74 8q13 3 80 3h82q19 -1 41.5 -3.5t36.5 -3.5q6 0 16 -1t16 -1.5t16 -2t19 -5.5 q16 -5 36.5 -9.5t27.5 -6.5q15 0 55 -23q6 -3 20 -14.5t27 -16.5q3 3 7.5 -1t2.5 -7q2 -1 1 -1q6 0 7 9q8 4 25.5 16t24.5 15q9 2 29.5 11.5t25.5 11.5q8 4 29 6t32 10q14 -2 21 -1t23.5 5.5t25.5 5.5q16 1 42.5 3.5t33.5 3.5h84q11 -1 43.5 1.5t34.5 -4.5q55 -10 75 -8 q58 -5 72 -10q12 -4 34 -7t30 -7q19 -3 57.5 -15t52.5 -14q19 -1 31.5 -4.5t27 -9t27.5 -9.5q14 -2 44.5 -8.5t47.5 -9.5q22 -15 66 -8q10 3 34 -1.5t37 -2.5z" />
<glyph unicode="W" horiz-adv-x="3100" d="M2961 786q25 -38 25 -55q5 -24 2 -52.5t-10 -43.5q-22 -43 -33 -53q-16 -22 -47 -41q-39 -26 -55 -31q-4 -1 -28.5 -11t-35.5 -12q-17 3 -54.5 -5t-47.5 -7q-39 -4 -107 4q-31 9 -102 17q-6 1 -39 11.5t-51 8.5q-11 6 -35 11t-25 5q-8 1 -25.5 8t-33.5 7q-51 14 -64 14 q-12 3 -34 6t-33 6q-6 1 -32 4.5t-36 6.5q-40 0 -69 6q-30 -2 -37 -2.5t-33.5 1.5t-42.5 3q-65 0 -106 -10q-61 -3 -107 -27q-44 -13 -80 -53q0 -6 -6.5 -12.5t-9.5 -4.5q-6 -29 -13 -30q-3 0 -8 4q-14 8 -22 26q-2 0 -9.5 7t-7.5 10q-7 5 -21.5 18.5t-27.5 22.5t-28 12 q-19 2 -55.5 16t-53.5 11q-63 12 -106 10q-21 0 -58 -1t-55 -1q-16 -4 -42 -5t-28 -1q-14 -4 -38 -7t-29 -4q-8 -1 -31 -5.5t-35 -6.5q-17 2 -63 -14q-13 -5 -35 -8.5t-27 -6.5q-40 -4 -57 -16q-14 -7 -48 -12t-44 -8q-19 -1 -101 -17q-18 -2 -57 -2.5t-51 -1.5 q-54 0 -101 12q-39 20 -63 23q-7 2 -13 4t-12.5 5.5t-9.5 5.5t-11 8t-11 8q-9 5 -45 41q-22 22 -33 53q-23 67 -10 96q18 18 26 55q3 14 10 27q-3 5 -5 15t-5 14q-7 11 -15.5 30t-10.5 23q-13 33 10 98q14 32 33 51q6 5 22 19.5t23 21.5t26.5 17.5t30.5 13.5q14 7 35 13.5 t28 9.5q86 11 101 12q83 0 108 -4q19 -5 55.5 -10t45.5 -7q20 -2 48 -9.5t44 -10.5q13 2 31.5 -7t25.5 -9q13 -11 62 -15q21 -7 63 -14q5 -1 29.5 -4t36.5 -8q30 0 67 -11q35 -4 70 -6q13 -2 55 0.5t58 -2.5q37 -3 106 10q10 2 109 27q8 5 28.5 15.5t32.5 19t16 18.5 q0 4 12 15q5 5 5 2q10 26 22 26q6 4 10 -1t7 -14.5t4 -10.5q11 -14 16 -17q6 -8 17 -16t18 -12.5t24 -13.5t21 -11q17 -4 53.5 -14.5t53.5 -12.5q16 1 53 -4t53 -6q16 6 58 2.5t55 -0.5q10 13 69 6q13 4 37 6t31 5q13 -1 21 0t22.5 5.5t23.5 6.5q8 2 21 6.5t23 6.5t20 1 q11 1 29.5 7t29.5 8q5 4 13.5 6t23.5 5t23 5q60 18 90 20q13 4 49.5 8.5t52.5 8.5q46 11 107 4q58 3 102 -12q10 0 62 -23q40 -16 57 -31q40 -39 47 -41q7 -9 18 -28t15 -23q15 -18 18 -46t-10 -52q0 -10 -11.5 -26t-13.5 -27q-12 -28 -12 -29q3 -18 12 -27zM2941 645 q1 3 4.5 16.5t5 21.5t3.5 20t0.5 22t-5.5 18q-3 26 -20 45q-18 18 -11 25q3 8 6.5 14.5t4.5 10.5q2 4 7 12.5t7.5 12.5t4.5 10t1 10q7 26 3.5 53t-11.5 45q-12 38 -49 63q-7 4 -31.5 20t-40.5 23q-48 20 -86 25q-66 11 -106 4q-20 -3 -57 -7t-46 -5q-13 0 -46 -8t-50 -11 q-47 -3 -88 -24q-11 -5 -21.5 -7.5t-21.5 -4t-17 -2.5q-44 -15 -61 -17q-5 0 -15.5 -2t-24.5 -5t-23 -5q-4 -4 -11.5 -5.5t-13.5 -2t-20 -1.5t-21 -1q-35 0 -70 -7q-52 -4 -69 -2q-15 -2 -42 -0.5t-34 0.5q-29 7 -72 7q-23 8 -65 8q-47 6 -62 14q-62 11 -98 51q-2 1 -5 4 q-17 11 -22 24l-4 11q-7 -22 -30 -39q-4 -3 -16 -11t-19 -12.5t-18.5 -11t-23 -10.5t-24.5 -6q-12 -2 -29 -8.5t-30 -5.5q-27 -5 -68 -8q-28 5 -69 -7q-40 3 -76 0q-12 2 -72 2q-10 -1 -22 0.5t-26 3.5t-19 3q-6 1 -32.5 6t-35.5 4q-8 1 -23.5 2.5t-24 3t-16.5 6.5 q-16 2 -61 14q-3 1 -16 3t-17.5 3t-12.5 4t-13 7q-19 10 -49 15.5t-39 8.5q-18 6 -50 11t-45 8q-19 0 -53 5.5t-51 6.5q-10 4 -52 0t-53 -4q-56 -12 -86 -25q-11 -4 -24 -12t-28 -18t-21 -13q-40 -31 -49 -63q-18 -53 -9 -98q2 -4 9 -20.5t12 -24.5q0 -4 5 -11t7 -14 q-10 -16 -12 -25q-3 -5 -9.5 -21.5t-11.5 -23.5q-8 -35 9 -98q17 -34 49 -63q7 -8 13.5 -14t15 -11t13 -7t16.5 -6l15 -5q19 -1 47 -12t39 -13q5 -6 51.5 -5t53.5 1q18 7 56 8.5t48 3.5q21 0 53.5 9t41.5 10q9 2 22 5.5t32.5 9t33.5 9.5q21 9 59 17q39 0 61 14q8 3 31 4 t33 8q33 10 68 10q38 0 67 7q19 -3 72 2q12 -2 38 -0.5t38 0.5q46 -8 69 -4q59 -9 68 -11q7 -1 29.5 -7t29.5 -7q21 -8 52.5 -25t48.5 -24q7 -11 16 -21t14 -20q4 5 12.5 21.5t18.5 19.5q33 27 98 49q43 8 62 14q23 15 65 11q13 3 32 2t40 2q18 3 42 0.5t34 -0.5 q11 -2 27.5 -0.5t25 2t16.5 -3.5q14 8 38 0t32 -7q18 0 66 -10q31 -22 63 -12h10h8.5h7t6 -0.5t5 -1t5.5 -1.5t5.5 -2.5t6.5 -3.5t7 -5q7 -1 27.5 -12t32.5 -5q43 -9 88 -24q17 -7 51 -11.5t45 -7.5q77 -13 103 -12q12 0 34 -1.5t38 -0.5t34 6q42 25 86 25q12 11 41.5 27 t30.5 16q12 6 20.5 14t11.5 13.5t8.5 17.5t8.5 18z" />
<glyph unicode="X" horiz-adv-x="2949" d="M2593 545q-13 -2 -37.5 2.5t-34.5 1.5q-43 -6 -65 8q-16 3 -47.5 9.5t-45.5 8.5q-13 4 -27.5 9.5t-27 9t-31.5 4.5q-14 2 -52.5 14t-57.5 15q-8 4 -30 7t-34 7q-15 5 -71 10q-21 -2 -76 8q-2 7 -34.5 4.5t-43.5 -1.5q-11 0 -28.5 0.5t-31 0.5t-24.5 -1q-7 -1 -33.5 -3.5 t-42.5 -3.5q-9 -1 -25.5 -5.5t-23 -5.5t-20.5 1q-11 -8 -32.5 -10t-29.5 -6q-5 -2 -25.5 -11.5t-29.5 -11.5q-7 -3 -24 -15t-25 -16q-1 -10 -8 -8q2 3 -3 7t-8 1q-13 5 -27 16.5t-20 14.5q-40 23 -55 23q-7 2 -27.5 6.5t-36.5 9.5q-9 4 -19 5.5t-16 2t-16 1.5t-16 1 q-14 1 -36.5 3.5t-41.5 3.5h-82q-67 0 -80 -3q-27 -12 -73 -8q-28 5 -72 -10q-52 -16 -66 -14q-56 -8 -108 -29q-58 -13 -86 -23q-12 -1 -42.5 -9.5t-51.5 -8.5q-55 -9 -64 -8q-18 -4 -74 -4q-7 1 -29 1.5t-32 2.5q-7 3 -37 9t-41 13q-31 19 -63 37q-22 6 -41 54 q-14 27 -7 73q3 -1 5 3.5t4.5 11t3.5 8.5q2 12 6 14q0 2 1 3l1 1q14 19 14 29h-1q5 5 1 8q1 1 -1 5l1 3q-16 20 -14 31h3q-2 2 -5 2q1 2 0 4t-3 5t-3 5q0 7 -3.5 12.5t-6.5 7.5l-3 3q-5 54 7 76q23 33 41 51q6 8 14.5 14t14.5 9t17.5 7.5t16.5 6.5q6 6 19.5 9.5t31.5 6.5 t27 6q18 4 61 4q48 3 74 -4q7 -1 30.5 -2t33.5 -6q60 -9 94 -18q66 -20 86 -23q17 -3 53.5 -14t54.5 -15q11 -3 34 -7.5t32 -6.5q16 -3 36 -5t36 -5q13 -5 39 -6t34 -2q4 0 17 -2t21.5 -3t20.5 -0.5t21 3.5q9 -3 21.5 -3.5t21.5 0.5t22 3t17 2q59 -3 78 4q23 2 69 10 q8 2 28 5t34 11q6 5 13.5 8.5t20 7.5t21.5 7q8 6 19.5 12.5t18.5 11t9 7.5q4 1 5 3q1 3 6 5q-2 -2 1 -2q7 0 7 -6q6 -1 23.5 -14.5t25.5 -16.5q3 -6 28 -13.5t27 -9.5q27 -24 62 -16q27 0 69 -10q6 -1 33 -1t43 -3q11 -1 43.5 0.5t40.5 -2.5q40 -5 78 2q8 3 35 3.5t41 4.5 q10 2 21 5.5t15 4.5t14 2t19 -2q24 -2 66 14q67 24 110 29q14 2 42 12t44 11q9 2 27 7.5t33.5 8.5t32.5 2q9 4 33 4t32 4q10 0 28.5 3.5t26.5 4t17 -3.5q41 8 61 -4q9 1 20 -1t18.5 -4.5t21.5 -8.5t20 -8q30 -10 64 -37q4 -5 11.5 -17t14 -21t12.5 -13q7 -11 9 -37t-2 -39 q2 -14 -11 -23q1 -2 -2 -2q-6 -1 -6 -12q2 -3 -2 -2q-1 -3 -12 -31q-4 2 -3 -1l1 -7v-2q1 -5 2 -6q7 -4 12 -29q1 -4 2 -4q-3 1 2 -6q6 -7 6 -8q1 -3 11 -23q3 -26 0 -47.5t-7 -25.5q-4 -10 -11 -20.5t-16 -20t-11 -13.5q-3 -2 -27.5 -17t-36.5 -20q-17 -11 -80 -22 q-9 -1 -20 -3t-16 -3t-12 -0.5t-13 2.5z" />
<glyph unicode="Y" horiz-adv-x="2494" d="M2365 680q10 -7 17.5 -30t9.5 -46q-1 -10 -11.5 -13t-32.5 -3t-34 -2q-59 -9 -78 -6q-40 6 -82 0q-13 4 -26 4t-29.5 -2t-27.5 -2q-14 1 -43 -0.5t-41 0.5q-11 -4 -26 -4.5t-32.5 1t-21.5 1.5q-8 -1 -35 1.5t-45 0.5q-11 -2 -19 -1.5t-27 2t-32 1.5q-17 3 -43.5 0.5 t-32.5 -0.5q-9 -3 -40.5 -0.5t-37.5 2.5q-12 3 -26.5 3t-30 -1.5t-20.5 -1.5t-29.5 -2.5t-28.5 0.5q-6 0 -24.5 1t-34.5 1q-9 -2 -26.5 -1t-31.5 -1q-9 -4 -31.5 -1.5t-27.5 1.5q-6 -6 -45 0q-17 -4 -72 0q-10 1 -45.5 -5.5t-50.5 3.5q-46 3 -98 0q-13 -1 -36.5 -1t-35.5 -1 q-10 -2 -22.5 -2t-28 1t-23.5 1q-11 -1 -35.5 -1t-37.5 -2h-72q-11 -1 -35 0t-39 0q-48 0 -73 -2q-36 6 -72 0q-38 -3 -74 0q-18 1 -56.5 -0.5t-51.5 -1.5q-9 0 -35.5 1t-43.5 0.5t-30 -5.5q-32 0 -39 11q-16 26 27 102q0 11 30 49q4 8 12 19.5t12 19t3 12.5q0 7 -9.5 22 t-17.5 23q-13 12 -29.5 38t-31.5 40q-7 6 -16 33t-11 45q0 15 26.5 17.5t51.5 -1.5q4 0 32.5 3.5t45.5 3.5q11 1 24.5 1t30.5 -0.5t27 -0.5q52 4 82 2q56 -4 84 0q13 -1 27.5 -1t31 0.5t23.5 0.5q13 1 40.5 -0.5t37.5 -1.5q14 1 40 -1t37 -2q42 -3 78 0q9 -1 37.5 0.5 t40.5 -2.5q23 -2 78 2q19 0 57 -1t58 -1q11 5 59 5q8 -2 26 -1.5t33 -1.5q0 -1 6.5 -2.5t17 -1.5t19.5 4q24 -4 74 0q6 -6 44.5 -1.5t51.5 4.5q10 1 50 -3.5t47 3.5q5 1 24.5 3.5t27.5 3t22 0t24 -4.5q13 -1 29 -1t36.5 0.5t30.5 0.5q23 -2 29 -2.5t32.5 1.5t36.5 3 q12 0 33 -0.5t37 -0.5t29 1q14 0 47 1t49 1h96q17 2 49 1.5t60 0.5q25 -2 61.5 1.5t48.5 2.5q9 -2 15 -0.5t12.5 0t11.5 -7.5q7 -15 -10.5 -58t-17.5 -47q-1 -5 -13 -21t-16 -28q-12 -10 -21 -28t-6 -23q0 -5 9.5 -21.5t17.5 -21.5q12 -13 27.5 -39t33.5 -41zM2345 627 q4 3 -2 14t-12 14q-12 8 -22 19t-15.5 20t-16 25.5t-16.5 25.5q-2 4 -7.5 11.5t-7.5 11t-5.5 10.5t-4 13t-0.5 15t2 19q-1 14 6 26t18.5 26t16.5 22q6 13 23 37t22 39q-21 -5 -59 -5t-53 -1h-62q-12 1 -33 0t-28 0q-30 -4 -59 0q-11 -2 -21.5 -2t-20.5 1t-14 1q-57 0 -86 -2 q-61 5 -88 0q-5 1 -17 3t-18 2.5t-15.5 0.5t-18 -2t-17.5 -6q-16 1 -42 1t-44 1q-28 -7 -88 0q-18 -3 -43 -1t-43 -1q-12 -1 -43 2t-45 -2q-69 -5 -86 -2q0 1 -13.5 0t-35.5 -2t-49 2q-52 -10 -84 -2q-11 -2 -38.5 -0.5t-37.5 0.5q-68 -4 -86 -3q-31 4 -84 0q-43 3 -86 0 q-52 -4 -84 3q-15 2 -42 1.5t-42 0.5q-5 0 -45.5 -1.5t-40.5 1.5q-27 6 -86 2q-9 0 -38 -1.5t-48 -0.5q-6 0 -18.5 0.5t-23 0.5t-19.5 -1h-62q-67 0 -70 -7q-2 -2 1 -7t9 -12.5t7 -8.5q14 -15 33.5 -44t35.5 -46q9 -10 12 -14.5t9 -15.5t4.5 -20.5t-2.5 -29.5 q-13 -32 -43 -74q-41 -55 -43 -76q43 6 111 6q10 -1 30.5 0.5t30.5 -0.5q19 -2 61 2q41 -4 60 -2q8 2 28.5 0.5t28.5 -0.5q60 0 72 2h72q10 -1 34 0t37 0q29 2 74 2h72q25 -2 73 -2q11 0 42 1t44 1q17 2 45.5 0t42.5 0q1 4 39 3t47 0q-1 -1 14.5 -0.5t38 1t46.5 -0.5 q21 -3 84 4q11 -8 40.5 -3.5t35.5 3.5q13 4 26 4t29.5 -2t27.5 -2q17 -1 44 0t42 0h84q16 8 84 -2q23 2 28.5 2.5t25 -1.5t32.5 -3q13 2 43 0.5t41 -0.5q5 3 46 1l40 -1q16 -1 46 0.5t42 1.5h60q17 3 61 -2q70 4 70 6zM2265 655q4 1 9.5 0t9.5 0q-4 5 -9.5 13.5t-9.5 13.5 q-18 29 -31 41q-22 7 -28 43q-12 23 -2 68q0 16 6.5 29.5t24.5 35.5t18 23l5 4q5 5 5 10q-25 6 -80 -2q-26 4 -112 0h-97q-9 0 -30.5 -1t-34.5 -1q-7 7 -33.5 3t-34.5 -3q-22 4 -65 0q-6 0 -18.5 1.5t-23.5 1t-24 -4.5q-31 4 -68 0q-9 -1 -27.5 1.5t-37.5 0.5 q-13 1 -41 -0.5t-33 -1.5t-21 -1t-29.5 -1t-22.5 2q-38 3 -76 0q-25 14 -74 -2q-1 -1 -15 -0.5t-36 1t-51 -0.5q-70 4 -84 -2q-25 8 -72 0q-14 -1 -42.5 -1t-43.5 -1q-14 -2 -43 -0.5t-41 0.5q-40 3 -86 0q-15 -1 -43.5 0.5t-38.5 1.5q-11 1 -45.5 -0.5t-40.5 2.5 q-10 1 -42 -2t-42 2q-16 -1 -45.5 0t-42.5 0q-9 0 -26.5 -0.5t-32 -0.5t-27.5 1q-5 0 -16.5 -1t-21 -1t-17.5 2q-11 2 -21 2t-20.5 -1t-16.5 -1q-10 -2 -16 0q3 -2 8 -12t10 -15t15 -20t16 -21q4 -2 7.5 -5.5t6.5 -9t5 -8.5t5.5 -10.5t4.5 -9.5q8 -21 0 -65 q-4 -12 -10 -24.5t-10.5 -20t-13 -22t-13.5 -23.5q-2 -2 -4.5 -6.5t-4 -6t-4.5 -2.5q65 0 82 2h111q16 2 33 2t36 -1t29 -1q9 0 30.5 1t35.5 1q6 0 20 0.5t25.5 0.5t19.5 -1h68q11 1 32 1t33 1q9 0 23 -0.5t24.5 -0.5t18.5 1q10 -2 65 -2q14 0 38.5 1t35.5 1q26 3 76 0 q12 1 38.5 -0.5t35.5 0.5q56 4 73 2q0 -3 4.5 -5t15 -1.5t21 1.5t29.5 2.5t33 2.5q12 4 27 4.5t33 -1t24 -1.5q13 0 37 1t37 1q10 -1 40 0.5t43 -0.5q3 0 43 -1.5t43 1.5q38 -9 84 0q31 2 84 -2q13 -2 41.5 -1.5t42.5 -0.5q42 -6 86 0h86q52 -3 88 2q8 -1 25 0.5t29 -0.5 q9 0 28 -1.5t29 -0.5z" />
<glyph unicode="Z" horiz-adv-x="2494" d="M2365 680q10 -7 17.5 -30t9.5 -46q-1 -10 -11.5 -13t-32.5 -3t-34 -2q-59 -9 -78 -6q-40 6 -82 0q-13 4 -26 4t-29.5 -2t-27.5 -2q-14 1 -43 -0.5t-41 0.5q-11 -4 -26 -4.5t-32.5 1t-21.5 1.5q-8 -1 -35 1.5t-45 0.5q-11 -2 -19 -1.5t-27 2t-32 1.5q-17 3 -43.5 0.5 t-32.5 -0.5q-9 -3 -40.5 -0.5t-37.5 2.5q-12 3 -26.5 3t-30 -1.5t-20.5 -1.5t-29.5 -2.5t-28.5 0.5q-6 0 -24.5 1t-34.5 1q-9 -2 -26.5 -1t-31.5 -1q-9 -4 -31.5 -1.5t-27.5 1.5q-6 -6 -45 0q-17 -4 -72 0q-10 1 -45.5 -5.5t-50.5 3.5q-46 3 -98 0q-13 -1 -36.5 -1t-35.5 -1 q-10 -2 -22.5 -2t-28 1t-23.5 1q-11 -1 -35.5 -1t-37.5 -2h-72q-11 -1 -35 0t-39 0q-48 0 -73 -2q-36 6 -72 0q-38 -3 -74 0q-18 1 -56.5 -0.5t-51.5 -1.5q-9 0 -35.5 1t-43.5 0.5t-30 -5.5q-32 0 -39 11q-16 26 27 102q0 11 30 49q4 8 12 19.5t12 19t3 12.5q0 7 -9.5 22 t-17.5 23q-13 12 -29.5 38t-31.5 40q-7 6 -16 33t-11 45q0 15 26.5 17.5t51.5 -1.5q4 0 32.5 3.5t45.5 3.5q11 1 24.5 1t30.5 -0.5t27 -0.5q52 4 82 2q56 -4 84 0q13 -1 27.5 -1t31 0.5t23.5 0.5q13 1 40.5 -0.5t37.5 -1.5q14 1 40 -1t37 -2q42 -3 78 0q9 -1 37.5 0.5 t40.5 -2.5q23 -2 78 2q19 0 57 -1t58 -1q11 5 59 5q8 -2 26 -1.5t33 -1.5q0 -1 6.5 -2.5t17 -1.5t19.5 4q24 -4 74 0q6 -6 44.5 -1.5t51.5 4.5q10 1 50 -3.5t47 3.5q5 1 24.5 3.5t27.5 3t22 0t24 -4.5q13 -1 29 -1t36.5 0.5t30.5 0.5q23 -2 29 -2.5t32.5 1.5t36.5 3 q12 0 33 -0.5t37 -0.5t29 1q14 0 47 1t49 1h96q17 2 49 1.5t60 0.5q25 -2 61.5 1.5t48.5 2.5q9 -2 15 -0.5t12.5 0t11.5 -7.5q7 -15 -10.5 -58t-17.5 -47q-1 -5 -13 -21t-16 -28q-12 -10 -21 -28t-6 -23q0 -5 9.5 -21.5t17.5 -21.5q12 -13 27.5 -39t33.5 -41zM2345 627 q4 3 -2 14t-12 14q-12 8 -22 19t-15.5 20t-16 25.5t-16.5 25.5q-2 4 -7.5 11.5t-7.5 11t-5.5 10.5t-4 13t-0.5 15t2 19q-1 14 6 26t18.5 26t16.5 22q6 13 23 37t22 39q-21 -5 -59 -5t-53 -1h-62q-12 1 -33 0t-28 0q-30 -4 -59 0q-11 -2 -21.5 -2t-20.5 1t-14 1q-57 0 -86 -2 q-61 5 -88 0q-5 1 -17 3t-18 2.5t-15.5 0.5t-18 -2t-17.5 -6q-16 1 -42 1t-44 1q-28 -7 -88 0q-18 -3 -43 -1t-43 -1q-12 -1 -43 2t-45 -2q-69 -5 -86 -2q0 1 -13.5 0t-35.5 -2t-49 2q-52 -10 -84 -2q-11 -2 -38.5 -0.5t-37.5 0.5q-68 -4 -86 -3q-31 4 -84 0q-43 3 -86 0 q-52 -4 -84 3q-15 2 -42 1.5t-42 0.5q-5 0 -45.5 -1.5t-40.5 1.5q-27 6 -86 2q-9 0 -38 -1.5t-48 -0.5q-6 0 -18.5 0.5t-23 0.5t-19.5 -1h-62q-67 0 -70 -7q-2 -2 1 -7t9 -12.5t7 -8.5q14 -15 33.5 -44t35.5 -46q9 -10 12 -14.5t9 -15.5t4.5 -20.5t-2.5 -29.5 q-13 -32 -43 -74q-41 -55 -43 -76q43 6 111 6q10 -1 30.5 0.5t30.5 -0.5q19 -2 61 2q41 -4 60 -2q8 2 28.5 0.5t28.5 -0.5q60 0 72 2h72q10 -1 34 0t37 0q29 2 74 2h72q25 -2 73 -2q11 0 42 1t44 1q17 2 45.5 0t42.5 0q1 4 39 3t47 0q-1 -1 14.5 -0.5t38 1t46.5 -0.5 q21 -3 84 4q11 -8 40.5 -3.5t35.5 3.5q13 4 26 4t29.5 -2t27.5 -2q17 -1 44 0t42 0h84q16 8 84 -2q23 2 28.5 2.5t25 -1.5t32.5 -3q13 2 43 0.5t41 -0.5q5 3 46 1l40 -1q16 -1 46 0.5t42 1.5h60q17 3 61 -2q70 4 70 6z" />
<glyph unicode="[" horiz-adv-x="2277" d="M2157 655q-10 -1 -29.5 0.5t-28.5 1.5q-12 2 -28.5 0.5t-24.5 -0.5q-36 -5 -88 -2l-40 -1q-40 0 -46 1q-44 -6 -86 0q-10 1 -43 0.5t-41 1.5q-53 4 -84 2q-46 -9 -84 0q-3 -3 -43 -1.5t-43 1.5q-13 2 -43.5 0.5t-40.5 -0.5q-12 0 -37 -1t-37 -1q-6 0 -24 1.5t-33 1 t-27 -4.5q-14 -1 -33 -2.5t-29 -2.5t-20.5 -1.5t-15 1.5t-4.5 5q-17 2 -74 -2q-9 -2 -35.5 -0.5t-38.5 0.5q-49 3 -75 0q-11 0 -35.5 -1t-38.5 -1q-56 0 -66 2q-8 -1 -18 -1t-24 0.5t-23 0.5q-12 -1 -33.5 -1t-32.5 -1h-67q-8 1 -20 1t-26 -0.5t-20 -0.5q-14 0 -35 -1 t-30 -1q-10 0 -29.5 1t-36.5 1t-33 -2q-11 0 -34.5 0.5t-42 0.5t-33.5 -1q-16 -2 -82 -2q3 1 4.5 2.5t3.5 5.5t4 7q5 9 13.5 23.5t13 22t10.5 20t10 24.5q8 44 0 65q-1 3 -5.5 12l-6.5 13t-6.5 9.5t-9.5 8.5q-6 6 -16 21t-15 20t-10.5 15t-8.5 12h17q6 0 16 1t20 1t21 -2 q8 -2 17.5 -2t21 1t16.5 1q13 -1 27.5 -1t32 0.5t26.5 0.5q13 1 43 0t46 0q10 -5 41.5 -2t41.5 2q6 -4 40.5 -2.5t45.5 0.5q10 0 38.5 -1.5t43.5 -0.5q46 3 86 0q12 1 41 -0.5t43 0.5q15 1 43 1t43 1q47 8 72 0q14 6 84 2q24 1 51 0.5t36 -1t15 0.5q49 16 74 2q38 3 76 0 q9 -2 23 -2t30 1t21 1t32.5 1.5t40.5 0.5q19 2 38 -0.5t28 -1.5q37 4 68 0q13 4 24 4.5t23 -1t18 -1.5q44 4 66 0q8 -1 34 3t33 -3q13 0 35 1t31 1h96q87 4 113 0q54 7 79 2q0 -5 -5 -10l-5 -4q-4 -5 -15 -18.5t-17 -22t-11.5 -22t-5.5 -25.5q-10 -45 2 -68q6 -35 29 -43 q13 -12 31 -41q4 -5 9 -13.5t9 -13.5q-4 -1 -9 0t-9 0z" />
<glyph unicode="\" horiz-adv-x="1060" d="M522 817q-24 -21 -24 4q-3 3 -4.5 7t-2.5 8.5t-2 5.5q-4 5 -5.5 12.5t-2.5 18t-2 16.5q-19 55 -12 102q-2 21 8.5 51.5t11.5 34.5q4 10 14 37t17 41q2 5 4.5 20t6.5 24.5t10 10.5q12 2 14 -9.5t-0.5 -27.5t2.5 -30q1 -4 4 -14t4 -17q2 -6 2 -14t0.5 -13.5t3.5 -7.5 q19 -55 19 -63q1 -5 -0.5 -17t0.5 -14q-2 -4 2 -31q-2 -8 -4 -22.5t-4 -22.5q-12 -47 -27 -59q-3 -9 -6 -13t-12 -9t-15 -9zM508 997v-71l12 -60l16.5 33t18.5 45q0 6 0.5 19t0.5 20t-1.5 18t-5.5 21q-4 47 -19 65q-18 -49 -22 -90zM647 1081q25 4 33 -20q2 -11 -7.5 -25 t-19.5 -14q-24 -4 -30 18q-2 4 1.5 16.5t8.5 16.5q10 9 14 8zM408 1081q11 3 22 -3.5t10 -16.5q-2 -12 -9.5 -26t-14.5 -13q-14 -3 -22.5 3t-10.5 15q-2 6 4 18.5t6 14.5q6 5 11 7zM844 981q-33 11 -64 0q-20 -5 -53 -27q-13 -6 -25 -16.5t-27 -28t-22 -24.5q-1 -1 -7 -5.5 t-8.5 -9t-2.5 -10.5q-4 -6 -9.5 -21.5t-13.5 -25.5q-2 -17 -11 -16q-7 2 -9 12q-2 6 0 8q0 21 12 53q8 20 21 37q20 45 45 70q7 7 17 15.5t15 13.5q6 3 22.5 15.5t25.5 14.5q30 15 63 15q53 0 68 -13q15 -20 43 -37q3 -4 10.5 -13t11.5 -15.5t4 -11.5q10 -9 7 -43t-15 -46 q-2 -8 -18 -12q-21 -19 -66 -22q-10 -2 -22 6q-15 11 -27 32.5t-8 41.5q-5 20 7.5 38.5t35.5 24.5zM889 954q4 -2 4.5 -8.5t-2.5 -11.5t-8 -4q-1 0 -5.5 2.5t-11.5 3.5q-7 7 -22 0q-5 -2 -4 -4q-6 0 -6 -37q0 -21 33.5 -22.5t50.5 12.5q9 11 8 37.5t-8 42.5q-3 6 -14 14 t-13 10q-1 0 -17.5 12t-31.5 7q55 -10 47 -54zM221 844q-3 0 -11.5 -3t-10.5 -3q-48 4 -66 22q-16 8 -16 12q-6 12 -11 44t0 45q2 13 29 40q40 35 43 37q6 1 19 5t25 6t24 2q46 0 61 -15q33 -17 49 -30q5 -4 14 -13.5t17 -15.5q9 -6 17 -18t18 -30.5t12 -21.5q4 -15 19 -37 q17 -39 14 -53q1 1 1 0q1 -3 -3 -8q-3 -7 -12.5 -7t-8.5 11q-4 6 -7 12t-6.5 15.5t-8.5 19.5q0 4 -5.5 14t-10.5 11q-25 37 -74 69q-6 6 -26.5 14.5t-26.5 12.5q-41 10 -66 0q43 -5 43 -63q0 -3 -2 -12t-2.5 -11.5l-2 -10t-3 -10.5t-4 -8.5t-5.5 -8.5t-7 -6.5t-9 -6.5z M215 1008q-22 4 -49 -19q-6 -2 -14 -12.5t-13 -11.5q-9 -14 -9 -38t11 -42q15 -13 48 -11t36 21q3 9 0 21.5t-8 15.5q-3 1 -13.5 2t-13.5 2q-2 0 -5 -3.5t-9 -2.5q-21 11 -8 24q-3 40 47 54zM420 764q7 9 15.5 8t19.5 2q31 10 65 2q5 0 20.5 1t27.5 0.5t22 -3.5 q7 -3 16.5 -5.5t14.5 -4t6 -4.5l2 -6t1.5 -5t0.5 -4q-1 -12 -18.5 -15t-30.5 3q-7 0 -19 1t-23 1t-22 -2q-10 1 -20.5 1t-18.5 0.5t-18 2.5q-5 1 -19.5 1.5t-21.5 3.5t-8 12q1 0 4 5t4 5zM664 776q6 3 12 -5t8 -17q0 -6 -8.5 -10t-17 -1.5t-9.5 11.5q-4 3 3 11.5t12 10.5z M424 717q13 2 63 2q6 -2 32.5 -0.5t35.5 0.5q7 -3 15.5 -2.5t24 2t23.5 0.5t21 0t20 1t14 -5t9 -17q1 -13 -14.5 -18.5t-42.5 -7.5q-14 0 -43.5 1t-36.5 1q-17 2 -82 -2q-4 0 -18 -1.5t-20.5 -1.5h-16.5t-16 2t-9 5q-6 1 -11 9.5t-3 14.5q6 13 25.5 16.5t29.5 0.5zM510 664 q36 5 61 0q24 6 60 0q11 -4 14 -14.5t-4 -16.5q-3 -6 -10 -9.5t-17.5 -5t-19 -2.5t-22 -1.5t-19.5 -0.5q-6 -1 -25.5 -0.5t-25.5 -1.5q-6 1 -18 1.5t-21.5 1.5t-19 3t-15 6t-6.5 11q3 2 7 8.5t7 9.5q2 -2 5 -0.5t10 3.5t12 1q7 -1 21.5 3.5t23.5 3.5q6 1 6 2q0 2 -4 -2z M668 651q2 0 12 -4q11 6 16 -8q0 -15 -12 -27q-7 4 -10 2q-4 -2 -15 2q-10 3 -5 19t14 16zM375 776q4 -1 5.5 0t4 -1.5t3 -2.5t2 -3.5t2 -4.5t2 -5t1.5 -5q-3 -6 -11.5 -11t-16 -3t-7.5 14q-5 15 15 22zM379 651q1 2 2.5 2t2 -1t2.5 -2.5t5 -2.5q17 -2 17 -8q-8 -25 -13 -27 q-7 4 -10 2q-7 -5 -14 2q-8 12 -6 22t14 13zM684 461q-9 0 -20 8q-12 11 -10 33.5t22 19.5q15 4 31 -9.5t18 -23.5q0 -29 -14 -43q-9 -11 -24.5 -12t-31.5 2l-20 8t-21.5 11t-7.5 12q-19 32 -22 98q-1 4 -2 10t1.5 12t8.5 5q4 0 6 -2t2.5 -4t1.5 -7.5t2 -9.5q8 -23 6 -24 q4 -61 27 -74q8 -1 20.5 -5t26.5 -5zM373 461q5 0 13.5 -1t13 -1t9.5 3t9 9q8 8 28 74q8 25 5 24q1 3 2.5 10.5t3 10t6.5 2.5q7 0 9 -3t0.5 -12t-1.5 -12q-3 -68 -22 -98q-13 -19 -48 -31q-41 -4 -57 10q-4 1 -9 16t-5 27q8 41 49 33q17 1 21 -20t-9 -33q1 -3 -1 -4t-5 -1 t-6.5 -0.5t-5.5 -2.5zM524 580q-2 2 0 2q6 4 17.5 -7.5t13.5 -21.5q11 -21 14 -61q2 -11 -3 -35t-5 -29q3 -20 -6 -29q-16 -24 -29 -26q-12 -1 -22 10.5t-10 24.5q0 29 -5 49q5 13 5.5 47.5t1.5 40.5q1 3 3.5 12t4.5 14.5t6 6.5q3 2 14 2zM514 489q-5 -63 10 -90q0 1 19 56 q6 25 0 60t-19 44q-5 -6 -7 -16t-2.5 -29t-0.5 -25z" />
<glyph unicode="]" horiz-adv-x="1460" d="M1174 823q5 10 31.5 32t33.5 42q2 4 1.5 7.5t0.5 6.5q4 1 6 0.5t4.5 -1.5t3.5 -1q-1 -17 -10 -31.5t-26 -32t-19 -20.5q9 0 23 1t16 1q-3 12 0.5 18t15 11t15.5 8q8 4 26 23q4 1 8 7t7 7q8 -1 8.5 -10t-2.5 -12q-7 -7 -47 -37q-18 -5 -13 -15q10 3 16 2.5t14.5 -2.5 t10.5 -2q2 5 23 19q0 1 10 9t10 9q2 3 2 8q1 3 3 4q10 1 10 -8q-1 -12 -10 -16q-2 -7 -9.5 -15.5t-9.5 -11.5v-8q-9 -6 -14 -6q5 -4 8 -13t4 -10q1 -3 8.5 -8.5t12.5 -11t2 -10.5q1 1 0 1q-5 0 -5 -7q-7 -2 -12 2t-8.5 11t-5.5 9q-27 22 -23 41q-13 -10 -28 -2q9 -12 18 -29 q5 -2 13 -13t8 -17q0 -5 -5 -8t-8 -3q-11 11 -14 17q-2 3 -35 53q-1 3 -21.5 0.5t-21.5 -2.5q2 -2 5.5 -8t8 -11.5t9.5 -9.5q3 -5 9 -11.5t9 -11.5t2 -9q-2 -4 -4 -5.5t-3.5 -2t-2.5 -1.5q-3 1 -10 7.5t-9 7.5q-14 13 -40 55q-21 0 -31 -2q3 -2 8.5 -10.5t9.5 -12.5 q5 -2 11.5 -10.5t5.5 -15.5q1 -1 -4 -3l-5 -3q-3 0 -8 4t-8 6q-25 40 -35 45h-20q14 -7 16 -21q1 -2 5 -7.5t5.5 -8t3 -6.5t-0.5 -6.5t-7 -3.5q-4 0 -8.5 4.5t-8.5 11.5t-7 10q-16 21 -25 27q-9 -1 -29 -3.5t-30 -3.5t-25.5 -0.5t-28.5 3.5q-39 2 -114 -2q-12 0 -34 -0.5 t-40.5 -0.5t-34.5 1q-20 1 -58.5 -0.5t-49.5 -1.5q-13 2 -53 0.5t-56 -0.5q-22 -1 -55.5 1t-52.5 1q-13 0 -36.5 -1t-41.5 -1t-33 2h-109q0 2 -3.5 2t-8.5 -1l-4 -1q-2 -7 19 -23q0 -5 8 -12.5t8 -13.5q-9 -5 -14.5 -2t-8.5 8q-7 6 -17 22t-17 23q-3 -1 -10.5 0.5t-10.5 1.5 q-1 -3 1.5 -6t10 -10t9.5 -9q8 -3 15.5 -11.5t4.5 -14.5q2 -9 -6 -9q-1 -1 -2 -1t-2.5 2t-2.5 3.5t-2.5 4.5t-2.5 4q-5 5 -14 13.5t-16.5 17t-12.5 18.5q-7 0 -8 7q0 8 12 5q43 21 53 39q2 7 12 11t13 -5q0 -10 -21 -24q-6 -7 -15 -13t-10 -8q1 1 7.5 -0.5t11.5 0.5 q3 1 9.5 9t14.5 10q2 -1 11.5 4.5t16 8t9.5 -4.5q1 -9 -12.5 -17.5t-13.5 -11.5q18 0 46 -1t42 -1q13 -1 27.5 -1t32 0.5t26.5 0.5q14 -3 28 -3t31.5 1.5t28.5 1.5h86h86q13 -2 42 0t44 0h88q32 6 86 2q44 -3 86 2q6 -3 41.5 -0.5t44.5 2.5q-4 12 3.5 20.5t20 15t15.5 11.5 q14 21 20 6q0 -4 -4.5 -9t-5.5 -9q-7 -14 -14 -14q-1 -3 -9.5 -8.5t-7.5 -10.5q10 -6 29 0q-3 1 2 8q45 41 55 48q9 18 21 14q8 -5 4.5 -12t-10.5 -7q-7 -5 -13 -14.5t-10 -13.5q-22 -22 -24 -23q17 3 35 0z" />
<glyph unicode="^" horiz-adv-x="563" d="M152 891q-14 -14 -31 -8q0 4 -12 10q0 6 -3.5 16.5t-3.5 16.5q0 5 9 14q5 17 24 21q1 1 29 12q34 0 41 2q33 2 78 -33q8 -6 10 -6q4 -1 5.5 0.5t1.5 4t1 3.5q7 3 16.5 11t14.5 10q36 20 74 8q28 -11 51 -39q4 -14 4 -34t-8 -28q-12 -4 -21 -2t-14 7q-6 6 -6 28q-2 2 3 3 q3 1 5 3q2 1 4 3.5t3.5 3.5t5 2t7.5 0q-5 10 -20 16q-2 1 -8 5t-10.5 6t-8.5 1q-22 2 -49.5 -17t-30.5 -20q5 -9 9.5 -21t11.5 -35t10 -32q8 -54 -2 -92q-18 -41 -27 -47q-13 -10 -24 -10q-14 -2 -23 1t-13 7.5t-9 13.5q-11 7 -15 19q-1 2 -6.5 20.5t-5.5 25.5t2 27 q-1 9 1.5 19.5t5 17t7.5 18t7 15.5q5 10 16.5 28.5t15.5 26.5q-8 3 -25 15.5t-34.5 19t-38.5 4.5q-26 6 -39 -16q-8 0 -8 -10q14 -3 21.5 -14.5t1.5 -20.5zM293 887q-13 -13 -23 -39q-1 -2 -7.5 -19t-10.5 -22q-3 -3 -4 -16.5t2 -24.5q2 -7 1.5 -23.5t2.5 -19.5q1 -1 4 -9 t7.5 -14t10.5 -6q6 -1 10 1t6 4t6 7t5 7q6 15 6 75q-2 18 -2 56q0 24 -14 43z" />
<glyph unicode="_" horiz-adv-x="1460" d="M287 823q17 3 35 0q-4 2 -25 23q-4 4 -10 13.5t-13 14.5q-7 0 -10.5 7t4.5 12q12 4 21 -14q10 -7 55 -48q4 -5 2 -8q19 -6 29 0q1 5 -7.5 10.5t-9.5 8.5q-7 0 -14 14q-1 4 -5.5 9t-4.5 9q6 15 20 -6q3 -5 15.5 -11.5t20 -15t3.5 -20.5q9 0 44.5 -2.5t41.5 0.5 q42 -5 86 -2q54 4 86 -2h88q15 2 44 0t42 0h86h86q11 0 28.5 -1.5t31.5 -1.5t28 3h86q14 0 42.5 1t46.5 1q0 3 -14 11.5t-13 17.5q3 7 9.5 4.5t16 -8t11.5 -4.5q8 -2 14.5 -10t9.5 -9q5 -2 11.5 -0.5t7.5 0.5q-1 2 -10 8t-15 13q-5 4 -12.5 12t-7.5 12q3 9 12.5 5t11.5 -11 q10 -17 54 -39q12 3 12 -5q-1 -7 -8 -7q-5 -10 -12.5 -18.5t-16.5 -17t-14 -13.5q-1 -1 -2.5 -4t-2.5 -4.5t-3 -3.5t-2.5 -2t-2.5 1l-6 9q-3 6 5 14.5t16 11.5q21 21 20 25q-3 0 -10 -1.5t-10 -0.5q-7 -7 -17.5 -23t-17.5 -22q-3 -5 -8.5 -8t-14.5 2q0 6 8.5 13.5t8.5 12.5 q20 16 18 23l-4 1q-5 1 -8.5 1t-3.5 -2h-109q-15 -2 -32.5 -2t-41 1t-36.5 1q-19 1 -53 -1t-56 -1q-16 -1 -55.5 0.5t-52.5 -0.5q-11 0 -50 1.5t-59 0.5h-109q-76 4 -114 2q-13 -3 -28.5 -3.5t-25.5 0.5t-30 3.5t-29 3.5q-6 -4 -24 -27q-3 -3 -7.5 -10t-9 -11.5t-8.5 -4.5 q-5 1 -7 3.5t-0.5 6.5t3 6.5t5.5 8t5 7.5q2 14 16 21h-20q-10 -5 -35 -45q-3 -2 -8 -6t-8 -4q1 0 0 1l-2 1q-6 3 -6 4q-1 7 5.5 15.5t10.5 10.5q4 4 9.5 12.5t8.5 10.5q-10 2 -30 2q-25 -40 -41 -55q-2 -1 -9 -7.5t-10 -7.5q-1 1 -2.5 1.5t-3.5 2t-4 5.5q-1 4 2.5 9 t9.5 11.5t9 11.5q5 4 9 9.5t7.5 11.5t5.5 8q-1 0 -21.5 2.5t-21.5 -0.5q-33 -50 -35 -53q-3 -6 -14 -17q-3 0 -7.5 3t-4.5 8q0 6 7.5 17t12.5 13q7 14 19 29q-16 -8 -29 2q4 -19 -23 -41q-2 -2 -5.5 -9t-8.5 -11t-12 -2q0 6 -4 6q-3 5 1.5 10.5t12 11t8.5 8.5q1 1 4 10t8 13 q-5 0 -14 6v8q-2 3 -9 11.5t-9 15.5q-8 2 -10 15q-1 9 8 9h2q2 0 2.5 -1t0 -2.5t0 -4t1.5 -4.5q0 -1 10 -9t10 -9q21 -14 23 -19q2 0 10.5 2t14.5 2.5t16 -2.5q5 10 -13 15q-40 30 -47 37q-3 3 -2 12t9 10q3 -1 6.5 -7t7.5 -7q18 -19 26 -23q4 -3 15.5 -8t15 -11t0.5 -18 q2 0 16 -1t23 -1q-2 3 -19 20.5t-26 32t-10 31.5q1 0 3.5 1t4.5 1.5t6 -0.5q1 -2 0.5 -6t1.5 -8q7 -20 34 -42t32 -32z" />
<glyph unicode="`" horiz-adv-x="1359" d="M645 805q-14 -3 -35 -3.5t-32 -2.5q-13 -2 -36.5 -2.5t-31.5 -1.5q-12 -3 -35 -2.5t-35 -1.5q-58 -4 -75 -3q-48 -4 -74 0q-8 0 -22 1t-26 1t-24 -2q-59 9 -65 11q-24 7 -43 30q-10 18 -5.5 31.5t17.5 20.5q7 10 25 14.5t32 1.5q21 -1 30.5 -24.5t-5.5 -32.5q-1 0 -14 -5 t-22 -4t-7 13q1 8 16.5 8.5t16.5 9.5q-9 10 -35 6t-27 -18q3 -9 19 -21q32 -14 110 -14q13 -1 34.5 0.5t29.5 1.5q6 0 19 -0.5t24 -0.5t20 1q8 1 17.5 1t23 -0.5t23.5 -0.5q20 4 59 4q73 3 113 8q1 3 -3.5 8t-5.5 11q-1 1 -6 4t-6 8q2 3 5 4.5t3 3.5q3 2 6 0.5t4 -1t3 -1.5 t2.5 -3l2.5 -5l3 -6q0 1 2.5 -2t7 -8.5t6.5 -7.5q8 -1 19.5 2.5t17.5 -0.5q-1 4 -8 14.5t-9.5 16t3.5 10.5q5 5 20 -17q4 -4 12.5 -11t12.5 -11q7 2 23.5 3.5t19.5 2.5q-1 2 -5 7.5t-5.5 9t0.5 9.5q4 5 9.5 -0.5t11 -14.5t9.5 -11q8 2 28.5 3t29.5 3q6 1 25 3.5t34 2.5 q51 6 59 8q13 2 31.5 2t30.5 2q5 0 28 1.5t35 0.5q11 -1 31.5 -2t30.5 -2q72 -14 98 -32q12 -9 15 -29t-7 -31q-9 -15 -33.5 -20.5t-37.5 2.5q-1 3 -10.5 9t-16 12.5t-2.5 10.5q-1 3 3 7t9 4q7 0 12.5 -10t8.5 -11q4 -3 15.5 -3.5t12.5 1.5q12 2 19 33q-35 22 -92 31 q-63 4 -88 2q-51 -7 -86 -4q-66 -10 -84 -11q-11 -1 -37.5 -4t-44.5 -4q1 -4 9.5 -13t8.5 -18q-9 -3 -20.5 13t-16.5 16q-7 2 -22 -2t-23 -2q2 -2 4 -4.5t4 -5.5t3 -6t1 -6t-2 -5t-6 -2q-10 -2 -17.5 12t-10.5 15q-17 0 -21 -2q-3 2 -22 -2q0 -1 7 -7t3 -12q-8 -4 -11 -2 t-9.5 9.5t-10.5 9.5z" />
<glyph unicode="a" horiz-adv-x="1359" d="M715 805q-4 -2 -10.5 -9.5t-9.5 -9.5t-11 2q-4 6 3 12t7 7q-19 4 -22 2q-4 2 -21 2q-3 -1 -10.5 -15t-17.5 -12q-6 1 -7.5 4.5t0.5 8.5t5 9t6 7q-8 -2 -23 2t-22 2q-5 0 -16.5 -16t-20.5 -13q0 9 8.5 18t9.5 13q-18 1 -44.5 4t-37.5 4q-18 1 -84 11q-35 -3 -86 4 q-25 2 -88 -2q-57 -9 -92 -31q7 -31 19 -33q1 -2 12.5 -1.5t15.5 3.5q3 1 8.5 11t12.5 10q5 0 9 -4t3 -7q4 -4 -2.5 -10.5t-16 -12.5t-10.5 -9q-13 -8 -37.5 -2.5t-33.5 20.5q-10 11 -7 31t15 29q26 18 98 32q10 1 30.5 2t31.5 2q12 1 35 -0.5t28 -1.5q12 -2 30.5 -2 t30.5 -2q8 -2 60 -8q15 0 34 -2.5t25 -3.5q9 -2 29.5 -3t28.5 -3q4 2 9.5 11t11 14.5t9.5 0.5q2 -6 0.5 -9.5t-5.5 -9t-5 -7.5q3 -1 19.5 -2.5t23.5 -3.5q4 4 12.5 11t12.5 11q15 22 20 17q6 -5 3.5 -10.5t-9.5 -16t-8 -14.5q6 4 17.5 0.5t19.5 -2.5q2 2 6.5 7.5t7 8.5 t2.5 2l3 6l2.5 5t2.5 3t3 1.5t4 1t6 -0.5q0 -2 3 -3.5t5 -4.5q-1 -5 -6.5 -8t-6.5 -4q-1 -6 -5 -11t-3 -8q40 -5 113 -8q39 0 59 -4q10 0 23.5 0.5t23 0.5t17.5 -1h63q8 0 29.5 -1.5t34.5 -0.5q78 0 110 14q16 12 19 21q-1 14 -27 18t-35 -6q1 -9 16.5 -9.5t16.5 -8.5 q2 -12 -7 -13t-22 4t-14 5q-15 9 -5.5 32.5t30.5 24.5q14 3 32 -1.5t25 -14.5q13 -7 17.5 -20.5t-5.5 -31.5q-19 -23 -43 -30q-6 -2 -65 -11q-12 2 -24 2t-26 -1t-22 -1q-26 -4 -74 0q-17 -1 -75 3q-10 2 -35 1.5t-35 2.5q-8 1 -31.5 1.5t-36.5 2.5q-11 2 -32 2.5t-35 3.5z " />
<glyph unicode="b" horiz-adv-x="1425" d="M1202 772q40 -14 55 10q11 17 -1.5 41.5t-24.5 24.5q-10 -2 -17.5 -1.5t-24 3.5t-24.5 4q-6 0 -23.5 2.5t-22 2t-23.5 -2.5q-22 0 -62 -4q-21 0 -61 -8q-6 -1 -20 -3.5t-25.5 -4t-16.5 -0.5q-28 -14 -59 -11q-33 -10 -61 -10q-10 -3 -30.5 -3t-33.5 -5q-9 -1 -41.5 -6.5 t-50.5 -3.5q-14 -4 -30.5 -7t-34.5 -5t-25 -3q-12 -3 -39 -5.5t-49 -10.5q-13 -1 -45 -3t-54 -3q-59 -7 -73 -4q-69 -8 -107 8q-50 7 -67 49q-11 25 -2.5 54.5t24.5 37.5q11 9 24.5 13.5t22.5 5t31 0.5q39 0 49 -13q3 -4 5.5 -5.5t5.5 -2.5t5 -2q9 -14 6.5 -34.5t-8.5 -28.5 q-11 -8 -33.5 -13.5t-33.5 -1.5q-17 17 -21 19q0 22 4 26q8 6 50 6l-4 1q-3 1 -5 6q-31 5 -58 -3.5t-30 -31.5q-5 -10 23 -29q19 -12 63 -16q38 -3 80 0q16 -1 41.5 1t38.5 1q50 4 76 4q1 1 2.5 0t6.5 0.5t9 5.5q7 0 20 2.5t19 1.5q11 11 37 6q16 4 40.5 6t37.5 5 q12 4 38.5 6t39.5 6q54 4 78 10q12 0 79 10q13 3 38 5t42 6q18 5 43 8.5t35 5.5q9 0 35 5.5t43 2.5q12 -1 36 -2t40.5 -3.5t29.5 -8.5q7 -3 38 -15t44 -22q31 -23 25 -70q-2 -9 -8.5 -16.5t-11 -10.5t-17.5 -10q-8 -10 -33 -16q-9 -1 -41 4q-30 10 -30 12q-7 7 -6 11 q-7 0 -3 2q-10 14 -11 29.5t11 27.5q2 5 25 10q13 0 20.5 -12t4 -24t-18.5 -13z" />
<glyph unicode="c" horiz-adv-x="1425" d="M223 772q-15 1 -18.5 13t4 24t20.5 12q23 -5 25 -10q12 -12 11 -27.5t-11 -29.5q4 -2 -2 -2q1 -4 -6 -11q0 -2 -31 -12q-32 -5 -41 -4q-25 6 -33 16q-13 7 -17.5 10t-11 10.5t-8.5 16.5q-6 47 25 70q13 10 44 22t38 15q13 6 29.5 8.5t40.5 3.5t36 2q17 3 43 -2.5t35 -5.5 q10 -2 35 -5.5t43 -8.5q17 -4 42 -6t38 -5q67 -10 80 -10q24 -6 78 -10q13 -4 39 -6t38 -6q13 -3 37.5 -5t40.5 -6q26 5 37 -6q6 1 19 -1.5t20 -2.5q4 -4 9 -5.5t7 -0.5t3 0q25 0 75 -4q13 1 38.5 -1t41.5 -1q42 -3 80 0q45 4 64 16q27 18 22 29q-3 23 -30 31.5t-58 3.5 q-2 -4 -3.5 -5t-2.5 -1t-2 -1q42 0 49 -6q4 -4 4 -26q-2 -1 -20 -19q-11 -4 -34 1.5t-34 13.5q-6 8 -8.5 28.5t6.5 34.5q2 1 5 2t5.5 2.5t5.5 5.5q10 13 49 13q22 0 31 -0.5t22.5 -5t24.5 -13.5q16 -8 25 -37.5t-2 -54.5q-17 -42 -68 -49q-38 -16 -106 -8q-15 -3 -74 4 q-22 1 -53 3t-45 3q-22 8 -49 10.5t-39 5.5q-7 1 -25 3t-34.5 5t-30.5 7q-18 -2 -51 3.5t-42 6.5q-13 5 -33 5t-30 3q-29 0 -62 10q-31 -3 -59 11q-5 -1 -16 0.5t-25 4t-20 3.5q-40 8 -62 8q-40 4 -61 4q-19 2 -23.5 2.5t-22.5 -2t-24 -2.5q-8 -1 -24.5 -4t-23.5 -3.5 t-17 1.5q-12 0 -25 -24.5t-2 -41.5q15 -24 55 -10z" />
<glyph unicode="d" horiz-adv-x="1441" d="M160 877q-12 -5 -22 -14.5t-7 -16.5q-3 -9 -3 -17t1.5 -12t6 -11t5.5 -9q4 -15 17.5 -25t27.5 -10q42 -14 76 -4q7 0 24 1l25.5 1.5t21 3t21.5 6.5q59 8 84 23q12 1 24.5 5.5t27.5 12t24 10.5q44 17 80 25q15 4 46 18.5t50 18.5q14 7 52 14t55 12q36 10 110 23 q9 -2 29.5 0.5t34.5 1.5q19 4 67 0q25 -8 64 -4q7 -1 28.5 -5.5t34.5 -4.5q11 -1 31.5 -6.5t30.5 -4.5q14 -2 30.5 -8t20.5 -12q1 -1 21.5 -16.5t25.5 -30.5q23 -26 4 -72q-3 -12 -18.5 -23.5t-36.5 -17.5q-17 -7 -51 10l-5 4q-27 18 -28 29q-6 13 -0.5 26.5t14.5 18.5 q17 8 45 -20q16 -6 19.5 -12t-0.5 -21q-2 0 -3.5 -0.5t-4 -3t3.5 -6.5q29 14 39 24q9 12 6 29.5t-15 32.5q-3 7 -11 13.5t-15 10.5t-14.5 8t-8.5 5q-29 7 -37 6q-6 2 -14.5 3t-14 2t-8.5 3q-24 6 -63 6q-56 -5 -61 -6q-14 -4 -62 -10q-52 -9 -57 -11q-23 -6 -59 -16.5 t-48 -13.5q-12 -4 -33.5 -10t-37.5 -11t-33 -12q-35 -14 -103 -33q-17 -8 -35.5 -11.5t-40.5 -5.5t-36 -5q-10 -5 -29 -7t-29 -4q-5 0 -61 -8q-10 2 -33.5 -2.5t-36.5 -3.5q-42 5 -71 0q-9 1 -23 2t-23.5 2.5t-17.5 5.5q-40 3 -47 27q-32 40 -27 80q1 3 2.5 11t4.5 14t8 10 q12 19 41 31t53 8q7 -1 15 -5t18 -11t14 -9q-1 -6 6 -15.5t6 -11.5q0 -4 -5.5 -15.5t-10.5 -14.5q-12 -7 -29 -7q-13 -5 -28 17t-2 39q6 4 8 6q-31 -6 -45 -14zM879 885q21 8 100 22q-15 2 -22.5 2t-26 -2.5t-25.5 -3.5q-8 -1 -23 -2.5t-26.5 -3.5t-19.5 -6q-29 0 -68 -17 q-54 -12 -63 -16q-8 -3 -21.5 -6.5t-23 -6.5t-15.5 -7q-50 -19 -59 -21q-14 -4 -33 -11t-29 -9q-5 -2 -28 -11.5t-31 -11.5q10 1 35.5 3t34.5 5q7 1 17 2l15 1.5t14 4t19 9.5q45 23 62 20q9 4 30 9.5t31 9.5q37 13 63 18q6 2 25 9t37 12.5t31 7.5z" />
<glyph unicode="e" horiz-adv-x="1441" d="M1282 877q-14 8 -45 14q2 -2 8 -6q13 -17 -2.5 -39t-28.5 -17q-16 0 -28 7q-5 3 -11 14.5t-6 15.5q-1 2 6.5 11.5t6.5 15.5q4 2 14 9t18 11t15 5q24 4 53 -8t41 -31q5 -4 7.5 -10t4 -14t2.5 -11q5 -41 -26 -80q-7 -24 -47 -27q-8 -4 -17.5 -5.5t-23.5 -2.5t-23 -2 q-30 5 -72 0q-13 -1 -36 3.5t-33 2.5q-56 8 -62 8q-10 2 -28.5 4t-28.5 7q-5 1 -47.5 6t-65.5 16q-64 18 -102 33q-17 7 -33 12t-37.5 11t-33.5 10q-12 3 -48 13.5t-59 16.5q-5 2 -57 11q-48 6 -62 10q-5 1 -61 6q-40 0 -64 -6q-3 -2 -8.5 -3t-14 -2t-14.5 -3q-8 1 -36 -6 q-1 -1 -8.5 -5l-15 -8t-15.5 -10.5t-11 -13.5q-28 -35 -8 -62q10 -10 39 -24q4 4 3.5 6t-3.5 3l-4 1q-4 15 -0.5 21t19.5 12q28 28 45 20q9 -5 14.5 -18.5t-0.5 -26.5q-1 -11 -28 -29l-5 -4q-34 -17 -51 -10q-21 6 -36.5 17.5t-18.5 23.5q-19 46 4 72q5 15 25.5 30.5 t21.5 16.5q4 6 20.5 12t30.5 8q10 -1 30 4.5t31 6.5q13 0 35 4.5t29 5.5q38 -4 63 4q48 4 68 0q14 1 34.5 -1.5t29.5 -0.5q74 -13 110 -23q17 -5 55 -12t52 -14q19 -4 50 -18.5t46 -18.5q36 -7 80 -25q9 -3 24 -10.5t27.5 -12t24.5 -5.5q25 -15 83 -23q9 -4 22 -6.5t21.5 -3 l25.5 -1.5t24 -1q33 -10 75 4q14 0 27.5 10t17.5 25q1 2 5.5 9t6 10.5t3 13t-3.5 16.5q3 7 -7 16.5t-22 14.5zM563 885q13 -2 31 -7.5t36.5 -12.5t24.5 -9q29 -6 64 -18q10 -4 31 -9.5t30 -9.5q17 3 62 -20q13 -8 21.5 -11t23 -4t20.5 -2q9 -3 34.5 -5t35.5 -3 q-8 2 -31 11.5t-28 11.5q-10 2 -29 9t-33 11q-9 2 -59 21q-6 4 -15.5 7t-23 6.5t-21.5 6.5q-9 4 -63 16q-39 17 -68 17q-8 4 -19.5 6t-26.5 3.5t-23 2.5q-7 1 -25.5 3.5t-26 2.5t-22.5 -2q79 -14 100 -22z" />
<glyph unicode="f" horiz-adv-x="1390" d="M1085 795q-2 -9 -13.5 -30.5t-10.5 -35.5q5 -13 30.5 -31t41.5 -14q11 -2 19 2t17 12t15 11q2 1 10.5 5t14 6.5t12.5 7.5t12 11t8 13q28 38 10 75q0 7 -3.5 14.5t-6 11t-11.5 12.5t-11 12q-20 20 -52 28q-31 7 -57 0q-31 -7 -63 -10q-10 -1 -34.5 -8t-37.5 -4 q-11 -1 -34 -6.5t-36 -4.5q-24 -2 -67 -12q-7 0 -29 -7t-39 -7q-2 -1 -13 -5.5t-15 -6t-13 -3t-18 -0.5q-35 -13 -60 -16q-11 -5 -57 -14q-6 -1 -59 -15q-12 -1 -58 -10q-16 -8 -59 -8q-9 -3 -21 -3t-29.5 1.5t-29.5 1.5q-60 0 -72 12q-5 0 -20 11t-17 12q-54 17 -86 47 q-12 16 -30 68q-1 2 -2 8.5t-2.5 12t-4.5 7.5q-7 26 14.5 43t47.5 17q36 0 76 -35q33 -40 28 -76q-2 -12 -16 -16t-28 -0.5t-21 8.5q0 1 -8.5 21t-3.5 28q5 3 14 3.5t14 4.5q-13 25 -41.5 30.5t-44.5 -20.5q5 -27 10.5 -39t18.5 -24q32 -43 69 -57q7 -2 46 -13t57 -12 q9 -1 28 1t31 1q19 8 68 8q31 10 65 10q7 2 31 5t37 6q11 10 29.5 8t36.5 2q42 5 65 16q53 16 61 17q12 3 31.5 8t30.5 8q1 0 17.5 7.5t19.5 7t22 -0.5q32 13 56 17q33 6 65 14q3 1 62 8q51 8 108 -18q20 -10 30 -19t23 -28q21 -21 23 -25q5 -8 6.5 -21.5t2.5 -37t1 -29.5 q1 -19 -11.5 -43.5t-12.5 -28.5q-1 -1 -8 -10t-11 -13.5t-13 -10.5t-18 -9q-33 -20 -102 -6q-6 1 -13.5 4.5t-19 10.5t-16.5 10q-3 4 -11 14t-13.5 18.5t-8.5 16.5q-9 26 2 70q5 26 13 36t26 7q20 7 55.5 6.5t44.5 -8.5q24 -42 21 -58q-5 -12 -34.5 -23t-41.5 -5 q-10 3 -29 43zM762 702q24 9 37 0t12 -25.5t-14 -25.5q-12 -13 -46.5 -12.5t-48.5 14.5q-23 11 -27 42.5t17 58.5q30 30 60 47q7 2 34 16.5t43 16.5q6 2 31.5 5.5t36.5 6.5q7 4 19.5 2t15.5 -2.5t12 -4t10 -3.5q16 -2 25 -41q3 -19 -25 -30q-30 -12 -39 5l-2 8q-4 7 3.5 11 t5.5 10q-11 -1 -36 1.5t-44 1t-33 -10.5q-53 -16 -82 -52q-14 -12 -10 -40t33 -19q4 2 5.5 10t6.5 10z" />
<glyph unicode="g" horiz-adv-x="1390" d="M305 795q-19 -40 -29 -43q-12 -6 -41 5t-34 23q-3 17 20 58q9 8 45 8.5t56 -6.5q18 3 25.5 -7t12.5 -36q11 -44 2 -70q-3 -8 -8 -16t-13.5 -19t-10.5 -14q-5 -3 -16.5 -10t-19 -10.5t-13.5 -4.5q-70 -14 -103 6q-9 3 -17.5 9t-13 10.5t-11 13t-7.5 10.5q0 4 -13 28.5 t-12 43.5q5 78 11 88q3 6 22 25q13 19 23 28t30 19q57 26 109 18q57 -7 61 -8q30 -8 66 -14q22 -4 55 -17q6 3 17 1t15.5 -3.5t14.5 -6t13 -5.5q11 -3 30.5 -8t30.5 -8q11 -2 62 -17q23 -11 65 -16q12 -4 36 -2t30 -8q13 -3 36.5 -6t30.5 -5q35 0 66 -10q48 0 67 -8 q12 1 31.5 -1t28.5 -1q18 1 56 12t46 13q38 14 70 57q13 12 18 24t10 39q-16 26 -44.5 20.5t-41.5 -30.5q5 -4 14.5 -4.5t14.5 -3.5q5 -8 -3.5 -28t-8.5 -21q-7 -5 -21.5 -8.5t-28.5 0.5t-16 16q-5 35 29 76q40 35 76 35q26 0 47 -17t14 -43q-3 -2 -4.5 -7.5t-2 -12 t-1.5 -8.5q-17 -50 -31 -68q-32 -30 -86 -47q-2 -1 -17 -12t-20 -11q-12 -12 -71 -12q-12 0 -29.5 -1.5t-29.5 -1.5t-21 3q-44 0 -60 8q-46 9 -57 10q-53 14 -59 15q-47 9 -58 14q-23 3 -59 16q-9 -1 -18 0.5t-13 3t-15 6t-13 5.5q-17 0 -39 7t-29 7q-43 10 -68 12 q-13 -1 -35.5 4.5t-33.5 6.5q-13 -3 -37.5 4t-34.5 8q-32 3 -63 10q-27 7 -58 0q-31 -8 -51 -28q-3 -4 -11.5 -12.5t-11.5 -12.5t-6.5 -11t-3.5 -14q-18 -37 11 -75q3 -7 8 -13t12 -11t12.5 -7.5t14 -6.5t10.5 -5q6 -3 15 -11t17 -12t19 -2q16 -4 41.5 14t30.5 31 q1 14 -11 35.5t-14 30.5zM629 702q5 -2 6.5 -10t5.5 -10q29 -9 33 19t-10 40q-29 36 -82 52q-14 9 -33 10.5t-44 -1t-36 -1.5q-2 -6 5 -10t3 -11q0 -21 -29 -16q-28 5 -35 24q-2 5 -1 9q9 39 24 41l10 4q10 4 12.5 4t16 2t19.5 -2q11 -3 36 -6.5t31 -5.5q16 -2 43.5 -16.5 t34.5 -16.5q27 -15 59 -47q21 -27 17 -58.5t-27 -42.5q-14 -14 -48 -14.5t-46 12.5q-13 9 -14 25.5t12 25.5t37 0z" />
<glyph unicode="h" horiz-adv-x="1271" d="M141 985q5 -6 -5 -16.5t-7 -22.5q-3 -6 7.5 -22t17.5 -19q28 -24 55 -22q7 -4 33 -4.5t39 -4.5q2 3 38.5 1.5t40.5 -1.5q44 0 76 7q13 4 40.5 5.5t41.5 4.5q5 1 25 4t36.5 5t22.5 1q10 1 35.5 7t48.5 5q28 9 84 9q6 0 45.5 -0.5t42.5 4.5q22 2 47 -1t45 -1q11 -2 29 -6.5 t33.5 -7t31.5 -3.5q10 -2 31 -5.5t32 -7t17 -9.5q15 2 37 -13q9 -8 6 -12q-19 -11 -30 -4q-23 1 -57.5 14t-53.5 13q-8 1 -42 6.5t-54 3.5q-10 -2 -43.5 1t-50.5 1q-39 -9 -93 -6q-34 0 -92 -12q-43 -2 -92 -13q-38 -10 -90 -10q-13 2 -34.5 -2t-28.5 -4q-25 -11 -72 -4 q-20 -4 -25.5 -4.5t-21 2.5t-25.5 4q-12 0 -32.5 4.5t-32.5 3.5q-10 5 -34.5 14.5t-35.5 18t-16 24.5q-4 6 -6 13.5t-2 12.5t0.5 12t0.5 9q0 10 13.5 22t23.5 5zM866 834q0 3 1 3t1 -3q54 -4 66 -3q8 -7 26.5 -5.5t32.5 -0.5q7 -1 26 -4t32 -4q6 -2 18 -8.5t18 -8t19 0.5 q18 -3 41 -12.5t14 -18.5q-2 -18 -39 0q-43 16 -84 16q-10 1 -39.5 8.5t-52.5 6.5q-21 4 -100 4q-70 -6 -107 0q-63 0 -94 -10q-14 -5 -46.5 -8t-43.5 -7q-9 -1 -28 -6t-35.5 -8t-26.5 -2q-17 -1 -46.5 -5.5t-45.5 -4.5q-4 4 -14 4.5t-28 -1t-28 -1.5q-9 -2 -21.5 -3 t-23.5 4t-10 13q7 22 41 8q13 3 36.5 2.5t39.5 1.5q21 9 71 9q12 0 33 4.5t35 5.5q47 -5 69 12q45 10 68 10q2 0 12.5 2.5t18 4t20 2.5t19.5 -1q13 -1 36 3t39 4q8 -6 39 -4.5t39 0.5q-3 -3 -1 -7q1 -2 2 2q1 2 1 5zM909 741q57 7 99 -6q24 -8 52 -12.5t38 -7.5q7 7 26.5 -6 t8.5 -25q-3 -6 -8.5 -6.5t-10.5 2t-11 6.5t-7 4q-4 1 -14.5 4.5t-22 5.5t-23.5 0q-46 3 -65 9q-60 5 -68 2q-9 6 -19.5 6.5t-27 -2t-27.5 -2.5q-8 -2 -31.5 -2t-37.5 -2q-4 -1 -20.5 -2.5t-29 -3t-16.5 -3.5q-39 -12 -63 -10q-53 -9 -62 -6q-12 -5 -38.5 -2t-30.5 2 q-10 -6 -32 -1.5t-22 13.5q1 8 14.5 11.5t22.5 -0.5q35 -16 60 4q9 1 26.5 1t28.5 5q28 -5 74 10q46 8 76 8q10 0 39.5 3t39.5 3q7 0 20.5 -2t22 -2.5t19.5 0.5t20 4z" />
<glyph unicode="i" horiz-adv-x="1271" d="M1130 985q10 7 23.5 -5t13.5 -22l1 -11q1 -11 -0.5 -19.5t-6.5 -16.5q-5 -16 -16 -24.5t-35.5 -18t-34.5 -14.5q-12 1 -32.5 -3.5t-32.5 -4.5q-10 -1 -25.5 -4t-21 -2.5t-25.5 4.5q-47 -7 -72 4q-7 0 -28.5 4t-34.5 2q-52 0 -90 10q-49 11 -92 13q-58 12 -93 12 q-53 -3 -92 6q-17 2 -51 -1t-43 -1q-20 2 -54 -3.5t-42 -6.5q-19 0 -53.5 -13t-57.5 -14q-11 -7 -31 4q-8 7 19 19q16 7 24 6q6 6 17 9.5t32 7t31 5.5q16 1 31.5 3.5t34 7t29.5 6.5q20 -2 45 1t47 1q3 -5 42.5 -4.5t45.5 0.5q56 0 84 -9q23 1 48.5 -5t35.5 -7q6 1 22.5 -1 t36.5 -5t25 -4q14 -3 41.5 -4.5t40.5 -5.5q32 -7 75 -7q3 0 40.5 1.5t39.5 -1.5q13 4 39 4.5t33 4.5q27 -2 55 22q7 3 17.5 19t7.5 22q3 12 -7.5 22.5t-5.5 16.5zM406 834l3 -7q2 4 -1 7q8 1 38.5 -0.5t38.5 4.5q16 0 39.5 -4t36.5 -3q7 2 19.5 1t20 -2.5t18 -4t12.5 -2.5 q22 0 67 -10q22 -17 70 -12q14 -1 35 -5.5t33 -4.5q50 0 71 -9q13 -2 39.5 -1.5t36.5 -2.5q34 14 41 -8q1 -8 -10 -13t-23.5 -4t-21.5 3q-10 0 -28 1.5t-28 1t-14 -4.5q-16 0 -45.5 4.5t-46.5 5.5q-10 -1 -26.5 2t-35.5 8t-28 6q-11 4 -43.5 7t-46.5 8q-31 10 -95 10 q-36 -6 -106 0q-79 0 -100 -4q-23 1 -53 -6.5t-40 -8.5q-40 0 -83 -16q-37 -18 -39 0q-9 9 14 18.5t41 12.5q13 -2 19 -0.5t18 8t18 8.5q13 1 32 4t26 4q10 2 33 0.5t26 5.5q11 -1 65 3q0 3 1.5 3t1.5 -3zM362 741q11 -5 23.5 -5.5t33.5 2.5t25 3q10 0 40 -3t40 -3 q30 0 76 -8q46 -15 74 -10q11 -5 28.5 -5t26.5 -1q25 -19 59 -4q9 4 22.5 0.5t14.5 -11.5q0 -9 -21.5 -13.5t-31.5 1.5q-4 1 -31 -2t-39 2q-8 -3 -61 6q-24 -2 -63 10q-4 2 -16.5 3.5t-29 3t-20.5 2.5q-14 2 -38 2t-32 2q-11 0 -27 2.5t-26.5 2t-19.5 -6.5q-8 3 -68 -2 q-19 -6 -65 -9q-12 2 -23.5 0t-22 -5.5t-14.5 -4.5q-1 0 -7 -4t-11 -6.5t-10.5 -2t-8.5 6.5q-11 12 8.5 25t26.5 6q10 3 38 7.5t52 12.5q41 13 98 6z" />
<glyph unicode="j" horiz-adv-x="1507" d="M1405 797q-9 -2 -15.5 3.5t-14 18t-11.5 17.5q-12 14 -86 49q-15 5 -34 8t-43 5.5t-36 4.5h-63q-11 -5 -34 -5t-30 -1q-12 -3 -33.5 -6t-31.5 -6q-8 -4 -34 -9t-36 -10q-26 -4 -69 -18q-7 -2 -22 -9.5t-27 -11.5t-23 -2q-7 -2 -27.5 -10.5t-34.5 -11.5q-9 -7 -19 -10.5 t-23 -5.5t-21 -5q-10 0 -21.5 -4t-24 -10t-18.5 -8q-7 -2 -30.5 -11t-34.5 -10q-9 -4 -32.5 -8t-37.5 -12q-14 -1 -38 -7.5t-33 -6.5q-16 1 -39 -4t-31 -5q-7 2 -31 1.5t-28 2.5q-62 17 -80 33q-5 11 -21.5 36t-21.5 38q-19 67 -6 96q5 28 65 51q26 6 50 -1t36 -27 q-1 -4 -2 -11l-2 -16q-20 -16 -37.5 -14t-17.5 18q-1 5 0.5 8t5 5t6.5 3.5t8.5 2.5t7.5 2q-28 12 -58 3.5t-34 -34.5q-3 -16 -3.5 -21t2 -23t3.5 -26q13 -55 31 -63q19 -22 82 -33q12 1 37.5 1t40.5 1q16 1 47 8t45 8q12 4 42 11.5t42 11.5q12 1 25 5t33.5 12.5t29.5 11.5 q15 4 44.5 16t43.5 14q41 17 92 31q18 8 49 16.5t43 12.5q7 2 23 8t23 8.5t20 4.5t26 1q55 21 93 17q16 -5 48 0.5t44 5.5q17 1 40 -2.5t29 -3.5q20 4 66 -13q9 -5 29 -12t28 -12q1 0 12 -6t15.5 -9t10.5 -10t7 -14q25 -19 25 -53z" />
<glyph unicode="k" horiz-adv-x="1507" d="M102 797q0 34 25 53q1 7 7 14t10.5 10t15.5 9t12 6q8 5 28 12t29 12q46 17 66 13q6 0 29.5 3.5t40.5 2.5q12 0 44 -5.5t48 -0.5q37 4 92 -17q13 1 26 -1t20 -4.5t23 -8.5t23 -8q12 -4 43 -12.5t49 -16.5q51 -14 92 -31q14 -2 43.5 -14t44.5 -16q9 -3 29.5 -11.5 t33.5 -12.5t25 -5q12 -4 42 -11.5t42 -11.5q14 -1 45.5 -8t47.5 -8q15 -1 40.5 -1t36.5 -1q63 11 82 33q18 8 31 63q1 8 3.5 26t2 23t-3.5 21q-4 26 -34 34.5t-58 -3.5q2 -1 9.5 -3t10.5 -3t6.5 -5t2.5 -10q0 -16 -18 -18t-38 14l-2 16q-1 7 -2 11q12 20 36 27t50 1 q61 -24 66 -51q13 -29 -6 -96q-5 -13 -21.5 -38t-21.5 -36q-18 -16 -80 -33q-6 -3 -28.5 -2.5t-31.5 -1.5q-8 0 -30.5 5t-38.5 4q-9 0 -33.5 6.5t-38.5 7.5q-14 8 -37.5 12t-32.5 8q-11 1 -34.5 10t-30.5 11q-6 2 -18.5 8t-24 10t-21.5 4q-8 3 -21 5t-23 5.5t-19 10.5 q-14 3 -34.5 11.5t-27.5 10.5q-11 -2 -23 2t-26.5 11.5t-21.5 9.5q-42 14 -70 18q-10 5 -35.5 10t-33.5 9q-10 3 -32 6t-34 6q-7 1 -29.5 1t-33.5 5h-64q-12 -2 -36 -4.5t-43 -5.5t-34 -8q-74 -35 -86 -49q-4 -5 -11.5 -17.5t-14 -18t-15.5 -3.5z" />
<glyph unicode="l" horiz-adv-x="1474" d="M557 993q88 6 92 -26q-8 -11 -24 -6q-44 23 -68 32zM451 989q18 6 45 5t39 -17q-9 -8 -21.5 -8t-22.5 4t-22.5 9.5t-17.5 6.5zM358 981q19 12 50 8t34 -26q-18 -3 -34.5 0.5t-30.5 10t-19 7.5zM672 975q49 6 82 -21q11 -11 6 -26q-2 -2 -3.5 -2t-5 1t-8.5 1 q-17 8 -40.5 25.5t-30.5 21.5zM285 971q23 5 47.5 -2t21.5 -27q-33 0 -69 29zM219 946q62 18 64 -20q-16 -4 -37.5 7.5t-26.5 12.5zM203 760q0 4 -0.5 15t-0.5 18t2 16.5t7 15.5q6 1 11 9.5t14 15.5q3 7 12 12.5t12 9.5q33 22 45 31q8 4 27 8.5t30 12.5q6 -1 32 6t32 8 q7 1 30.5 0.5t41.5 1.5q2 0 17 1t24.5 0t17.5 -5q51 0 57 -6q19 -1 55.5 -10.5t51.5 -10.5q7 -3 43.5 -12t54.5 -18q46 -20 68 -27q21 -21 69 -27q7 -3 35.5 -7.5t38.5 -12.5q53 -16 86 -8q102 10 115 14q10 -2 23 7.5t22 10.5q29 3 45 19q2 0 11 6q35 19 36 2 q10 -18 -25 -35q-34 -21 -59 -24q-30 -12 -63 -23q-9 -1 -35 -5.5t-39 -4.5q-43 -7 -80 0q-12 4 -35 6t-35 6q-8 3 -22 7l-24.5 7t-16.5 7q-7 3 -26.5 10t-35.5 14q-48 21 -59 25q-13 7 -34.5 10.5t-28.5 9.5q-6 1 -30.5 8.5t-39.5 8.5q-10 7 -35.5 9t-36.5 5q-13 -1 -76 8 q-11 2 -41 -0.5t-38 2.5q-20 -1 -41.5 -6t-34.5 -6q-21 -2 -66 -18q-8 -2 -30.5 -12t-30.5 -11q0 -4 1 -3q5 3 7 1q-9 -14 -20 -32t-19.5 -31.5t-15.5 -28.5zM141 895q5 1 20.5 7.5t26 9.5t23.5 0.5t20 -13.5q-11 -6 -27 -6.5t-35 1.5t-28 1zM961 909q29 5 55.5 -15.5 t1.5 -47.5q0 2 -5 4.5l-10 5t-4 4.5q-4 4 -16 26t-22 23zM1032 899q3 3 3.5 2.5t-1.5 -2.5q8 1 15 -1t21 -8t20 -9q15 -10 20.5 -22.5t-4.5 -24.5q-20 5 -40.5 32.5t-33.5 32.5zM485 887q-12 -31 -41 -51q-8 -7 -15 -15l-10.5 -12t-10 -9t-15.5 -9q1 11 14 35t15 32 q15 43 63 29zM1149 881q13 -2 24 -19q13 -19 -10 -24q2 -1 1 1q-3 4 -1 7l-6 4q3 5 -1 16.5t-7 14.5zM334 786q-3 20 3 39.5t13 26.5q33 29 47 22q1 -4 1 -5.5t-0.5 -2.5t-1.5 -1.5t-3 -2t-4 -4.5q-4 -16 -13 -28t-22.5 -23.5t-19.5 -20.5zM102 786q32 62 82 76 q12 1 12 -9.5t-3 -16.5q-10 -11 -26.5 -20t-36.5 -17.5t-28 -12.5zM311 858q-3 -7 -3 -16t-3 -11q-6 -8 -22 -27t-19 -28q-4 27 10.5 51.5t36.5 30.5zM627 754q15 20 24 57q10 16 19 22t30 13q1 -1 3 -1t-1 -3q-3 -21 -34 -56q-7 -2 -13 -6t-9.5 -7t-9.5 -9.5t-9 -9.5z M696 745q12 6 22 24t22.5 33.5t33.5 18.5q5 -14 -1.5 -29t-22.5 -22q-7 -2 -54 -25zM907 772q6 -6 6 -22q-1 -3 -2.5 -8.5t-2.5 -7.5t-2.5 -6t-2.5 -5.5t-3.5 -4.5t-5 -4.5t-6.5 -4t-9 -4.5q-14 -6 -30.5 -15.5t-21.5 -11.5q9 5 4 6q3 6 17.5 22.5t17.5 24.5q7 5 19 22 t22 19zM1092 662q20 6 40.5 38t34.5 35l2 -1q4 -4 5 -3q-2 -39 -29 -49q-14 -7 -53 -20zM989 633q6 14 37 49q6 4 12 12t13.5 21.5t9.5 17.5v-1l2 1q10 0 10 -14q0 -29 -29 -55q-6 -3 -18.5 -9.5t-22 -12t-14.5 -9.5zM782 961q3 -1 17 -4.5t22.5 -6.5t17.5 -10.5t11 -17.5 q4 -5 1.5 -13.5t-11.5 -5.5q-25 13 -37 33q-6 4 -21 25zM864 932q46 -13 72 -35q2 1 4 -2t3 -8t1.5 -10.5t0 -10.5t-2.5 -8q-17 6 -42 36.5t-36 37.5zM549 868q-14 -47 -82 -75q6 9 14.5 28t14.5 29q1 0 20 14t33 4zM625 856q2 -7 -2.5 -14t-15.5 -18.5t-17 -20.5 q-24 -27 -47 -41q16 16 30 69q5 14 19 22.5t33 2.5zM834 797q4 -1 6.5 -3t4 -3.5t2 -4t1 -4t-0.5 -4.5l-1.5 -4.5t-2.5 -4.5t-2.5 -4t-3.5 -4.5t-3 -4.5q-6 -6 -21 -14t-32 -15t-21 -10q14 7 34 41t40 39zM981 743q16 -32 -10 -51q-8 -15 -47 -36t-41 -23q6 6 20 26t27 31 q15 29 51 53z" />
<glyph unicode="m" horiz-adv-x="1474" d="M918 993q-24 -9 -68 -32q-5 -2 -13.5 0t-11.5 6q4 32 93 26zM1024 989q-5 -1 -17.5 -6.5t-22.5 -9.5t-22.5 -4t-21.5 8q12 16 39 17t45 -5zM1116 981q-5 -1 -19 -7.5t-30.5 -10t-34.5 -0.5q3 22 34 26t50 -8zM803 975q-7 -4 -31 -21.5t-41 -25.5q-4 0 -7 -0.5t-4 -1 t-2.5 0t-2.5 1.5q-5 15 6 26q33 27 82 21zM1190 971q-36 -29 -70 -29q-3 20 22 27t48 2zM1255 946q-5 -1 -26 -12.5t-37 -7.5q2 38 63 20zM1272 760q-7 15 -15.5 28.5t-19.5 31.5t-20 32q2 2 7 -1q1 -1 1 3q-8 1 -31 11t-31 12q-46 16 -65 18q-13 1 -34.5 6t-41.5 6 q-8 -5 -38.5 -2.5t-41.5 0.5q-63 -9 -76 -8q-11 -3 -36 -5t-35 -9q-15 -1 -39.5 -8.5t-30.5 -8.5q-7 -6 -28.5 -9.5t-34.5 -10.5q-15 -5 -60 -25q-17 -7 -36 -14.5t-25 -9.5q-8 -5 -33 -12t-31 -9q-12 -4 -34.5 -6t-34.5 -6q-37 -7 -80 0q-13 0 -39 4.5t-35 5.5 q-39 13 -64 23q-25 3 -59 24q-35 17 -25 35q0 20 37 -2q9 -6 11 -6q16 -16 45 -19q9 -1 22 -10.5t23 -7.5q13 -4 114 -14q33 -8 86 8q10 8 38.5 12.5t35.5 7.5q49 6 70 27q19 6 67 27q18 9 54.5 18t44.5 12q15 1 51 10.5t55 10.5q6 6 58 6q8 4 17.5 5t24.5 0t17 -1 q19 -2 42 -1.5t30 -0.5q6 -1 31.5 -8t31.5 -6q11 -8 30 -12.5t27 -8.5q12 -9 45 -31q3 -4 12.5 -9.5t12.5 -12.5q9 -7 14 -15.5t11 -9.5q5 -6 7 -15.5t2 -16.5t-0.5 -18t-0.5 -15zM1333 895q-9 1 -28 -1t-35 -1.5t-27 6.5q7 11 20 13.5t23.5 -0.5t26 -9.5t20.5 -7.5z M514 909q-10 -1 -22.5 -23t-16.5 -26q1 -2 -3.5 -4.5t-9.5 -5t-5 -4.5q-25 27 1.5 47.5t55.5 15.5zM442 899q-13 -5 -33 -32.5t-40 -32.5q-10 12 -4.5 24.5t20.5 22.5q7 3 16.5 7t14 6.5t11.5 4t13 0.5q-2 2 -1.5 2.5t3.5 -2.5zM989 887q21 6 39 -1t25 -28q2 -8 14.5 -32 t13.5 -35q-11 5 -17.5 11t-15.5 16t-18 18q-29 20 -41 51zM326 881q-3 -3 -7.5 -14.5t-1.5 -16.5l-6 -4q4 -4 0 -8q-26 6 -7 28q12 14 22 15zM1141 786q-3 4 -27 27t-29 45q-3 4 -6 6t-2.5 2.5t0.5 7.5q14 7 47 -22q7 -7 13.5 -26.5t3.5 -39.5zM1372 786q-8 4 -27.5 12.5 t-36 17.5t-26.5 20q0 1 -1 4t-1.5 5t-1 5t0 5t1.5 4t3.5 2.5t6.5 0.5q50 -14 82 -76zM1163 858q22 -6 36.5 -30.5t10.5 -51.5q-3 9 -19 28t-22 27q-3 2 -3 11t-3 16zM848 754q-3 3 -9 9.5t-9.5 9.5t-9.5 7t-13 6q-32 36 -35 56q-3 3 -1 3t3 1q14 -5 21 -8t14 -9.5t14 -17.5 q8 -35 25 -57zM778 745q-48 24 -53 25q-17 7 -23.5 22t-1.5 29q21 -3 33.5 -18.5t22.5 -33.5t22 -24zM567 772q10 -2 22 -19t19 -22q3 -8 17.5 -24.5t17.5 -22.5q-5 -1 4 -6q-5 2 -21 11.5t-30 15.5q-5 2 -9 4.5t-6.5 4t-5 4.5t-4 4t-3 6t-2 6t-2.5 7.5t-3 8.5q0 16 6 22z M383 662q-39 13 -53 20q-27 10 -29 49q2 -3 6 4q14 -3 35 -35t41 -38zM485 633q-5 4 -14.5 9.5t-22 12t-18.5 9.5q-29 26 -29 55q0 14 11 14l2 -1v1q2 -4 9.5 -17.5t13.5 -21.5t12 -12q29 -33 36 -49zM692 961q-17 -23 -20 -25q-12 -20 -37 -33q-9 -3 -11.5 5.5t1.5 13.5 q2 10 11 17.5t17.5 10.5t22 6.5t16.5 4.5zM610 932q-11 -7 -36 -37.5t-42 -36.5q-2 3 -2.5 8t0 10.5t2 10.5t3.5 8t4 2q27 23 71 35zM926 868q14 10 33 -4t20 -14q6 -10 14.5 -29t14.5 -28q-68 28 -82 75zM850 856q19 6 32.5 -2.5t18.5 -22.5q13 -51 31 -69q-23 14 -47 41 q-6 9 -17 20.5t-15.5 18.5t-2.5 14zM641 797q20 -5 40 -39t34 -41q-4 3 -21 10t-32 15t-21 14q-17 23 -12 32q4 5 12 9zM494 743q36 -24 51 -53q13 -11 27 -31t20 -26q-2 2 -41 23t-47 36q-26 19 -10 51z" />
<glyph unicode="n" horiz-adv-x="1304" d="M1151 725q-3 -7 -3 -18t-9 -15q-8 -16 -25 -22q-4 -4 -10.5 0t-9.5 12q-3 -4 -3 -1q1 9 7 15q4 5 28.5 12t24.5 17zM649 815q-9 -2 -25 -15t-26 -18q-7 -7 -55 -26q-16 -1 -38 -8.5t-28 -8.5q-41 -8 -78 -6q7 -1 43 -13.5t66 -10.5q12 -1 26 -3.5t18 -2t19 3.5 q10 -1 17.5 0t21.5 4t21 4q51 8 98 35q38 19 78 53q-18 -36 -80 -78q-33 -23 -49 -29q-25 -20 -55 -22q11 2 35 -4.5t32 4.5q24 0 64 6q42 5 65.5 13t40.5 28q38 19 70 74q-13 -49 -37 -68q-2 -2 -23.5 -18t-33.5 -31q24 -2 34.5 0t30 9t31.5 9q11 11 34 30t33 30q6 9 25 31 t27 38q-16 -42 -27 -59q-18 -36 -37 -55q-5 -4 -17.5 -24.5t-25.5 -27.5q-4 -2 -16.5 -10.5t-23.5 -14t-19 -3.5q-14 -1 -24.5 0t-19.5 6t-12 7t-11 11l-9 9q-5 -5 -14.5 -9t-23.5 -7t-19 -5t-17 -7t-18.5 -7t-14.5 -2t-14 4q-53 -5 -70 0q-10 4 -31.5 9.5t-27.5 8.5 q-2 6 -10.5 9t-9.5 8q-5 5 -17 3.5t-14 -1.5q-25 5 -61 12t-50 10q-52 28 -75 58q-13 4 -28 10t-30 13.5t-18 8.5q-36 23 -62 49q-38 33 -49 62q-19 29 -31 80q-1 0 4.5 -2t8.5 -3.5t9.5 -6t12.5 -9.5q3 -2 11.5 -8t16 -9t17.5 -5q16 -4 37.5 -15t24.5 -12q23 -14 80 -18 q17 6 48 2.5t38 -2.5q11 -5 43 3t43 9q26 0 80 18q7 2 44.5 11t55.5 16q14 10 48.5 18.5t45.5 14.5q12 5 30.5 15t33 15.5t28.5 6.5q66 34 109 18q19 5 58.5 -2.5t47.5 -7.5q67 -16 88 -37l11 -7q10 -7 16.5 -16t5.5 -22q-26 11 -55 14q-22 4 -90 29q-15 -1 -107 8 q-19 0 -36 -4t-33 -10t-25 -8q-19 -3 -42.5 -17t-41.5 -20q-23 -12 -92 -31q-17 -1 -49.5 -12t-42.5 -13q-16 -2 -49 -11t-52 -11q-6 0 -46.5 -5t-61.5 -3q-8 0 -23.5 -1.5t-24 -1.5t-21 0.5t-22 3.5t-18.5 9q-13 3 -40.5 19t-39.5 20q36 -50 82 -76q4 -2 12.5 -7.5t13 -8 t12.5 -5t16 -3.5q14 -1 32.5 -7t32.5 -8q6 -3 19 -4t30 -1t25 -1q19 -1 40.5 2.5t28.5 3.5q6 -1 14 0.5t14.5 4t17.5 6.5t18 6q28 26 53 22zM1096 772q-3 -6 -14 -30.5t-19 -36.5q-22 -43 -59 -43q-4 -2 -8.5 0t-5.5 2.5t-5.5 5t-7.5 6.5q42 33 67 41q4 5 10.5 14t10.5 14 t9.5 11.5t11 10t10.5 5.5z" />
<glyph unicode="o" horiz-adv-x="1304" d="M154 725q0 -10 24.5 -17t28.5 -12q1 2 3 -3q6 -11 4 -13q-1 -1 -3 2q-3 -8 -10 -12t-11 0q-16 5 -24 22q-6 3 -7.5 6t-1.5 6.5v9t-3 11.5zM655 815q26 4 54 -22q7 -2 18 -6t17.5 -6.5t14 -4t13.5 -0.5q7 0 29 -3.5t41 -2.5q8 1 25 1t29.5 1t18.5 4q14 2 33 8t33 7 q10 1 18 4t20 10.5t15 9.5q46 26 82 76q-12 -4 -39.5 -20t-40.5 -19q-11 -7 -26 -10t-23 -3.5t-31 1.5t-28 2q-21 -2 -62 3t-47 5q-19 2 -51.5 11t-48.5 11q-10 2 -42.5 13t-49.5 12q-69 19 -92 31q-18 6 -41.5 20t-42.5 17q-9 2 -25.5 8t-33.5 10t-36 4q-92 -9 -106 -8 q-68 -25 -90 -29q-30 -3 -56 -14q-1 13 5.5 22t16.5 16l11 7q21 21 88 37q8 0 48 7.5t59 2.5q43 16 108 -18q14 -1 28.5 -6.5t33 -15.5t30.5 -15q11 -6 46 -14.5t49 -18.5q18 -7 55.5 -16t44.5 -11q54 -18 80 -18q11 -1 43 -9t43 -3q7 -1 38 2.5t48 -2.5q57 4 80 18 q3 1 24 12t37 15q10 2 17.5 5t16 9t11.5 8q11 10 35 21q-12 -51 -31 -80q-11 -29 -49 -62q-28 -28 -61 -49q-3 -1 -18 -8.5t-30 -13.5t-28 -10q-23 -29 -76 -58q-16 -3 -51 -10.5t-59 -11.5q-2 0 -14 1.5t-17 -3.5q-1 -5 -10 -8t-11 -9q-6 -3 -27.5 -8.5t-31.5 -9.5 q-18 -5 -70 0q-6 -4 -14 -4t-14.5 2t-18 7t-16.5 7t-19 5t-23.5 7t-14.5 9l-8 -9q-9 -9 -12 -11t-12 -7t-19.5 -6t-24.5 0q-8 -2 -19.5 3.5t-24 14t-16.5 10.5q-13 7 -25.5 27.5t-17.5 24.5q-17 17 -36 55q-11 17 -27 59q8 -16 27 -38t24 -31q9 -10 33 -29.5t35 -30.5 q5 -1 39 -12t57 -6q-12 15 -33.5 31t-23.5 18q-24 19 -37 68q1 -2 3 -5q26 -45 54 -62q6 -4 12 -7q26 -31 107 -41q40 -6 63 -6q8 -11 32.5 -4.5t35.5 4.5q-30 2 -55 22q-16 6 -49 29q-62 42 -80 78q41 -36 77 -53q47 -27 99 -35q7 -1 21 -4t21 -4t17 0q16 -3 19.5 -3.5 t18 2t26.5 3.5q30 -2 65.5 10.5t42.5 13.5q-37 -2 -78 6q-6 1 -27.5 8.5t-37.5 8.5q-48 19 -55 26q-10 5 -26.5 18t-25.5 15zM209 772q6 -2 13.5 -8.5t12 -12t13 -17.5t12.5 -17q26 -8 68 -41q-3 -2 -6 -5.5t-4.5 -4.5l-4.5 -3t-5 -1.5t-7 0.5q-37 0 -59 43q-8 12 -19 36.5 t-14 30.5z" />
<glyph unicode="p" horiz-adv-x="1542" d="M750 674q8 5 46.5 4.5t45.5 -0.5q18 -1 90 6q9 2 36.5 10.5t41.5 10.5q14 7 34.5 20.5t24.5 15.5q-12 -19 -57 -51q-27 -16 -80 -33q-9 -5 -24 -6.5t-34.5 -2t-29.5 -1.5q-7 1 -21.5 2.5t-22 2.5t-18 4t-18.5 8q-3 1 -11 8zM555 739q18 -6 63 -6q10 -5 37 -6t35 -2 q36 -7 72 -4q8 0 24 1t27.5 1t20.5 -2q14 4 32.5 5.5t30.5 4t21 10.5v-4q-40 -34 -103 -37q-9 1 -33.5 -3t-38.5 -3q-12 0 -33.5 1t-37.5 1q-8 3 -30 7t-34 8q-9 5 -19.5 8t-17.5 6t-12 10q-2 0 -1 0q-3 0 -3 4zM104 985v0q1 -1 2 0q31 14 72 14q9 3 21 3t30 -1.5t31 -1.5 q16 -4 72 0q38 4 69 0q6 1 35 -1.5t35 1.5q1 1 36 0.5t36 -0.5q15 -6 69 2q5 0 30 2.5t40 0.5q25 2 80 -7q3 -3 8.5 -12t7.5 -12q4 -5 11.5 -18.5t16 -22.5t21.5 -14q24 -32 60 -41q30 -21 71 -33q11 -6 78 -23q30 -12 84 -20q15 2 37.5 -2.5t32.5 -3.5q44 -7 74 -4 q51 -10 65 -9q28 -2 57 -22q5 -1 15.5 -12t15.5 -13q23 -12 21 -35q-3 -3 -6 -1t-8.5 5.5t-8.5 2.5q-9 5 -21 13.5t-21 13.5t-21 9q-12 3 -23.5 4.5t-24 0t-19 -2.5t-20.5 -4t-16 -4q-26 2 -88 -26q-6 -3 -37 -15.5t-41 -19.5q-10 -2 -40.5 -15.5t-45.5 -13.5q-2 0 -7.5 0.5 t-7 1t-5.5 1.5t-5 2.5t-3 4t-2 5.5q0 6 9 10t19 4q40 9 66 22q11 1 30.5 12t30.5 15q6 2 40 19.5t59 19.5q-14 -7 -41 0t-41 4l-72 12q-12 8 -37 11.5t-33 7.5q-18 -4 -63 22q-2 1 -22.5 13t-34.5 14q-17 3 -32.5 17t-21.5 16q-13 9 -45 41q-30 35 -37 51q-10 -4 -35.5 -1 t-41.5 -1q-15 -1 -44 0.5t-36 -0.5q-44 -11 -82 -2q-53 5 -84 0q-2 3 -29.5 1.5t-32.5 -1.5q-20 -2 -61 -2q-6 0 -18.5 -1t-24 -1t-21.5 2q-8 1 -31 2t-28 2q-4 0 -15 1.5t-18 0.5q0 -3 9 -5q1 1 2 1q25 -13 65 -27q48 -7 70 -18q6 -2 31.5 -9.5t44 -10.5t36.5 -1 q6 0 26.5 -3t33.5 -1q12 1 34 -0.5t27 -1.5q10 -1 30 1t32 1q11 -1 59 6q-18 -10 -86 -20q-7 -1 -26.5 -5t-37 -6.5t-34.5 -1.5q-63 5 -101 7q-10 3 -44.5 7t-45.5 11q8 -5 27.5 -18t27.5 -17q31 -26 60 -35q5 -1 29 -9.5t41 -10.5q8 -1 23.5 -4.5t28.5 -5.5t25 -2 q49 -12 84 -4q11 -2 39.5 3.5t42.5 2.5q41 5 78 16q3 1 29.5 8t40.5 15q0 1 1 -0.5t1 0.5q-10 -9 -60 -35l-36 -12t-37 -13q-51 -18 -84 -14q-11 -2 -25.5 -2t-33 1t-29.5 1q-18 1 -91 12q-9 2 -28.5 5.5t-31 7.5t-19.5 12q-12 4 -23 11t-24 17t-21 15q-21 18 -43 57 q-14 2 -38 13t-42 14q-49 24 -61 43q-1 6 -7.5 8.5t-3.5 7.5z" />
<glyph unicode="q" horiz-adv-x="1542" d="M793 674l-4 -2l-11 -8q-8 -5 -18.5 -8t-18 -4t-22 -2.5t-21.5 -2.5q-10 1 -29.5 1.5t-34.5 2t-24 6.5q-53 17 -80 33q-45 32 -57 51q4 -2 24.5 -15.5t34.5 -20.5q14 -2 41.5 -10.5t36.5 -10.5q72 -7 90 -6q7 0 46 0.5t47 -4.5zM987 739q-1 -3 -4 -4q-5 -7 -12 -10 t-17.5 -6t-19.5 -8q-12 -4 -34 -8t-30 -7q-16 0 -37.5 -1t-33.5 -1q-14 -1 -38.5 3t-33.5 3q-62 3 -102 37q-8 2 0 4q9 -8 21 -10.5t30.5 -4t32.5 -5.5q9 2 20.5 2t27 -1t23.5 -1q36 -3 72 4q8 1 35 2t37 6q45 0 63 6zM1438 985q3 -5 -3.5 -7.5t-7.5 -8.5q-12 -19 -61 -43 q-18 -3 -42 -14t-38 -13q-22 -39 -43 -57q-9 -6 -21.5 -15.5t-23 -16.5t-22.5 -11q-8 -8 -20 -12t-31.5 -7.5t-28.5 -5.5q-74 -11 -90 -12q-11 0 -29.5 -1t-33 -1t-25.5 2q-33 -4 -84 14q-13 5 -37.5 12.5t-36.5 12.5q-50 26 -60 35q0 -2 1 -0.5t1 0.5q14 -8 40.5 -15 t29.5 -8q37 -11 78 -16q14 3 42.5 -2.5t39.5 -3.5q35 -8 84 4q12 0 25 2t29 5.5t24 4.5q17 2 40.5 10.5t28.5 9.5q29 9 60 35q8 4 27.5 17t27.5 18q-11 -7 -45.5 -11t-44.5 -7q-38 -2 -101 -7q-17 -1 -34.5 1.5t-37 6.5t-26.5 5q-68 10 -86 20q49 -7 60 -6q12 1 31.5 -1 t29.5 -1q5 0 27 1.5t34 0.5q13 -2 33.5 1t26.5 3q18 -2 36.5 1t44 10.5t31.5 9.5q22 11 70 18q43 15 66 27q-1 -1 0 -1q6 -1 10 5q-7 1 -18 -0.5t-15 -1.5q-5 -1 -28 -2t-31 -2q-10 -2 -21.5 -2t-24 1t-18.5 1q-41 0 -61 2q-5 0 -32.5 1.5t-29.5 -1.5q-31 5 -84 0 q-38 -9 -82 2q-8 2 -36 0.5t-43 -0.5q-15 4 -42.5 1t-35.5 1q-7 -16 -37 -51q-32 -32 -45 -41q-6 -3 -21 -16.5t-32 -16.5q-14 -2 -35 -14t-23 -13q-45 -26 -63 -22q-8 -4 -33 -7.5t-37 -11.5l-72 -12q-14 3 -40.5 -4t-40.5 0q25 -2 58 -19t40 -20q11 -4 30.5 -15t30.5 -12 q26 -13 66 -22q10 0 19 -4t9 -10q0 -3 -2 -5.5t-3 -4t-5 -2.5t-5.5 -1.5t-7 -1t-7.5 -0.5q-15 0 -45.5 13.5t-40.5 15.5q-10 7 -41 19.5t-37 15.5q-62 28 -88 26q-2 1 -16 4t-20.5 4t-19 2.5t-24 0t-23.5 -4.5q-12 -4 -21 -9t-21 -13.5t-21 -13.5q-3 1 -8.5 -2.5t-8.5 -5.5 t-6 1q-2 23 21 35q5 2 15.5 13t15.5 12q29 20 57 22q15 -1 66 9q29 -3 73 4q10 -1 32.5 3.5t37.5 2.5q54 8 84 20q67 17 78 23q41 12 71 33q36 9 60 41q13 5 21.5 14t16 22.5t11.5 18.5q2 3 7.5 12t8.5 12q55 9 80 7q15 2 40 -0.5t30 -2.5q54 -8 69 -2q1 0 36 0.5t36 -0.5 q6 -4 35 -1.5t35 1.5q31 4 69 0q56 -4 72 0q13 0 31 1.5t30 1.5t21 -3q40 0 72 -14q1 -1 2 0v0z" />
<glyph unicode="r" horiz-adv-x="1480" d="M291 793q-5 -8 -4 -9t3 -9t1 -19q-2 -3 -4 -5t-4.5 -3.5t-5 -2t-6 -0.5h-5.5t-6.5 1t-6 1t-6 1.5t-5.5 1.5q-8 3 -23 17.5t-12 18.5q1 28 17 35t46 2q15 -4 26.5 -2.5t14.5 0.5q23 -8 30 -42t-5 -54q-1 -2 -4.5 -10t-6 -12t-7 -10.5t-9.5 -10.5t-12 -6 q-12 -12 -17.5 -15.5t-18.5 -7t-30 1.5q-14 1 -24 4t-23 9.5t-20 9.5q-6 2 -13 8.5t-11.5 12.5t-11.5 15t-9 11q-13 18 -15.5 33.5t2.5 42.5q2 14 15 36t26 31q4 9 13 16t24.5 15.5t22.5 13.5q6 4 30.5 10.5t36.5 12.5q66 21 109 12q68 14 111 -8q13 -4 23.5 -5.5t23 -2.5 t22.5 -2q13 -5 35.5 -9t30.5 -6q3 0 26 -9t37 -5q4 -2 30 -9t30 -11q12 -7 31 -11.5t26 -9.5q4 -5 10.5 -8.5t12 -5t16.5 -4t18 -4.5q8 -9 29.5 -12.5t30.5 -8.5q7 -5 28 -10.5t31 -11.5q8 -4 17 -9t13 -7.5t12 -4.5t15 0q36 -18 64 -18q12 2 37.5 -5t38.5 -6q15 -4 45 -1.5 t37 1.5q7 2 30 13t33 14q23 23 23 64q-15 58 -56 94q-13 3 -44.5 20t-49.5 17q-63 7 -106 -17q-53 -37 -45 -65q5 -33 73 -45q-17 31 19 53q2 -1 6.5 2.5t10 9t7.5 6.5q33 4 45 -14q0 -6 0.5 -16t0.5 -16.5t-1 -10.5q-15 -22 -61 -39q-35 -15 -88 10q-18 3 -31.5 24.5 t-13.5 41.5q-8 59 45 78q42 23 96 32q12 -2 43 -3t47 -7q14 -4 36 -19.5t34 -19.5q36 -29 55 -78q11 -52 -4 -102q-2 -3 -6 -10t-7 -11.5t-8.5 -9.5t-11.5 -6q0 -6 -20 -6q-2 -1 -7 -8.5t-8 -9.5q-21 -18 -57 -25l-29 -8q-28 -7 -45 -2q-29 -10 -79 0q-8 0 -35 2.5t-43 1.5 q-4 1 -19.5 1t-29.5 2t-25 7q-22 0 -72 12q-6 3 -28.5 6.5t-36.5 12.5q-10 5 -31 9t-29 9q-10 4 -29 11t-30 12q-9 1 -18.5 4.5t-22 9t-20.5 8.5q-4 4 -56 27q-8 5 -18 12t-17 11t-16 8q-6 3 -15 9.5t-17.5 11t-20.5 7.5q-7 3 -18 10t-20.5 10t-23.5 3q-9 4 -20 6t-26.5 3.5 t-24.5 2.5q-20 1 -74 -8q-39 -9 -61 -31q-6 -6 -19 -16.5t-21 -19t-10 -17.5q-12 -23 -4.5 -48t27.5 -48q65 -47 104 -21q3 5 17.5 20t21.5 25q3 15 -1 30.5t-17 21.5zM514 879q3 5 6.5 8t6 4t7 3.5t9.5 6.5q-4 0 -44.5 8.5t-60.5 3.5q32 -2 76 -34zM569 895 q-3 -5 -19.5 -13.5t-17.5 -13.5q5 -6 17.5 -10.5t13.5 -5.5q37 10 45 37q-6 -5 -21.5 0.5t-17.5 5.5zM639 881q-2 -2 -16.5 -9t-25.5 -15t-15 -17q1 2 3.5 -1.5t7 -7t7.5 -0.5q12 9 27.5 24t27.5 24q-3 3 -7 1.5t-9 0.5zM676 872q-6 -11 -29 -29t-26 -22q6 0 12 -5.5 t12 -4.5q5 5 17.5 17t22.5 20.5t22 15.5q-6 -10 -31 8zM729 854q-7 -14 -31.5 -30t-29.5 -23q5 2 8 2t3.5 -1t0.5 -3q0 -1 0.5 -1.5t1.5 -0.5q6 5 17 16.5t21.5 21.5t22.5 17l-1 -1q-14 -7 -13 1v2zM764 844q-16 -30 -59 -56q12 -2 22 -7t14 -5q1 4 4.5 7t6.5 4.5t8.5 3 t7.5 2.5q7 4 13.5 9t15 13t12.5 12q-3 1 -18.5 10t-26.5 7zM764 766q0 -1 0.5 -3t1 -3t3.5 -0.5t9 2.5q2 2 12.5 14.5t19.5 21t15 9.5q-1 3 1 3t5 -0.5t4.5 1t-1.5 6.5q-12 -8 -35 -25.5t-35 -25.5zM856 809q-7 -15 -30.5 -30.5t-28.5 -22.5q7 0 16.5 -6t15.5 -5q7 6 17 17 t19.5 19.5t21.5 15.5q-24 7 -31 12zM907 788q-6 -19 -29 -32.5t-26 -16.5q29 -3 41 6q17 22 43 33q-21 13 -29 10zM956 768q-33 -10 -53 -41q17 -3 28.5 2.5t16 14t10 15.5t11.5 7l-14 2h1zM987 758q-5 -7 -20 -19.5t-17 -19.5q36 -21 72 29q-6 -3 -16.5 4t-18.5 6z M1006 713q8 1 24 -2q2 17 14 20.5t13 5.5q-11 5 -18.5 3t-10 -5.5t-8.5 -10.5t-14 -11zM1077 731q2 -5 -12 -13t-14 -9q13 1 20 3.5t13.5 7.5t11.5 7q-1 -2 -4.5 -1.5t-8 2t-6.5 3.5zM1120 721q-5 0 -9 -4t-1 -8q48 -7 55 8q-10 -1 -25 2.5t-20 1.5zM1178 705q6 -3 19.5 -1 t19.5 9q-31 0 -39 -8z" />
<glyph unicode="s" horiz-adv-x="1480" d="M1190 793q-13 -6 -17.5 -21.5t-1.5 -30.5q7 -10 21.5 -25t17.5 -20q39 -26 105 21q20 23 27 48t-5 48q-2 9 -9.5 17.5t-21 19.5t-18.5 16q-22 22 -61 31q-54 9 -74 8q-9 -1 -25 -2.5t-27 -3.5t-20 -6q-14 0 -23 -3t-20 -10t-18 -10q-12 -3 -20.5 -7.5t-17.5 -11t-15 -9.5 q-3 -1 -52 -31q-50 -22 -55 -27q-4 -2 -26.5 -11.5t-34.5 -10.5q-11 -5 -30.5 -12t-29.5 -11q-8 -5 -28.5 -9t-30.5 -9q-14 -9 -37 -12.5t-29 -6.5q-50 -12 -71 -12q-11 -5 -25 -7t-29.5 -2t-19.5 -1q-16 1 -43 -1.5t-35 -2.5q-51 -10 -80 0q-17 -5 -44.5 2.5t-28.5 7.5 q-37 8 -58 25q-3 2 -7.5 9.5t-6.5 8.5q-21 0 -21 6q-8 2 -13.5 7.5t-11.5 16.5t-7 13q-15 50 -4 102q19 49 55 78q12 4 33.5 19.5t35.5 19.5q16 6 47.5 7t43.5 3q54 -9 96 -32q53 -19 45 -78q0 -20 -13.5 -41.5t-31.5 -24.5q-53 -25 -88 -10q-48 17 -62 39v43q12 18 45 14 q2 -1 8 -6.5t10.5 -9t6.5 -2.5q35 -22 18 -53q69 12 74 45q8 28 -45 65q-43 24 -106 17q-18 0 -50 -17t-45 -20q-40 -35 -55 -94q0 -41 23 -64q10 -3 33 -14t30 -13q7 1 37 -1.5t45 1.5q13 -1 38.5 6t37.5 5q27 0 63 18q6 -2 14.5 0t13 4.5l13.5 7.5t17 9q10 6 31 11.5 t28 10.5q9 5 30 8.5t29 12.5q7 2 18 4.5t17 4t12.5 5t10.5 8.5q7 5 26 9.5t31 11.5q4 4 29.5 11t29.5 9q14 -4 38 5t26 9q8 2 30.5 6t35.5 9q10 1 22.5 2t23 2.5t23.5 5.5q43 22 111 8q42 9 108 -12q12 -6 37 -12.5t31 -10.5q7 -5 22.5 -13.5t24 -15.5t12.5 -16 q13 -9 26 -31t15 -36q5 -27 3 -42.5t-15 -33.5q-2 -2 -9 -11t-11.5 -15t-11.5 -12.5t-13 -8.5q-7 -3 -20.5 -9.5t-23.5 -9.5t-24 -4q-27 -4 -37.5 0t-27.5 21q-7 2 -12 6t-9.5 10.5t-7 10.5t-6 12t-4.5 10q-12 20 -5.5 54t29.5 42q3 1 14.5 -0.5t26.5 2.5q30 5 46.5 -2 t17.5 -35q3 -4 -12 -18.5t-23 -17.5q-1 0 -5.5 -1.5t-6 -1.5t-6 -1t-6.5 -1h-5.5t-6 0.5t-5 2t-4.5 3.5t-4 5q-1 11 1 19t3 9t-4 9zM967 879q44 32 75 34q-20 5 -59.5 -3.5t-44.5 -8.5q5 -4 9.5 -6.5t7 -3.5t6 -4t6.5 -8zM911 895q-2 0 -17.5 -5.5t-21.5 -0.5q3 -11 16 -22 t30 -15q1 1 13 5.5t17 10.5q-1 5 -17.5 13.5t-19.5 13.5zM842 881q-4 -2 -9.5 -0.5t-7.5 -1.5q12 -9 28 -24t28 -24q3 -3 7.5 0.5t7 7t3.5 1.5q-4 9 -15 17t-25.5 15t-16.5 9zM805 872q-25 -18 -31 -8q12 -7 22 -15.5t22.5 -20.5t17.5 -17q6 -1 12 4.5t12 5.5q-3 4 -26 22 t-29 29zM752 854q2 -10 -15 -2q12 -7 23 -16.5t22 -21.5t17 -17q1 -1 1.5 0.5t1 3.5t3 2.5t8.5 -2.5q-5 7 -29.5 23t-31.5 30zM717 844q-11 2 -26.5 -7t-18.5 -10q4 -4 12.5 -12t15 -13t13.5 -9q2 -1 7.5 -2.5t8 -3t6 -4.5t4.5 -7q4 0 14.5 5t22.5 7q-43 26 -59 56zM717 766 q-13 8 -35 25.5t-35 25.5q-3 -5 -1.5 -6.5t4 -1t4.5 0.5t1 -3q6 -1 15 -9.5t19.5 -21t12.5 -14.5q13 -5 14 1q0 1 0.5 1.5t0.5 1.5zM625 809q-7 -5 -31 -12q12 -7 21.5 -15.5t19 -19.5t16.5 -17q6 -1 16 5t17 6q-5 7 -28.5 22.5t-30.5 30.5zM573 788q-3 2 -8 1t-6.5 -2 t-6.5 -4.5t-7 -4.5q26 -11 43 -33q12 -9 41 -6q-3 3 -26.5 16.5t-29.5 32.5zM524 768l-12 -2q6 0 11.5 -7t10 -15.5t16 -14t28.5 -2.5q-20 30 -54 41zM494 758q-8 1 -18.5 -6t-16.5 -4q35 -49 71 -29q-2 7 -16.5 19.5t-19.5 19.5zM475 713q-8 4 -14 11t-8.5 10.5t-10 5.5 t-18.5 -3q1 -2 13 -5.5t14 -20.5q16 3 24 2zM403 731q-2 -2 -6.5 -3.5t-8 -2t-3.5 1.5q5 -2 11.5 -7t13.5 -7.5t20 -3.5q0 1 -14.5 9t-12.5 13zM360 721q-5 2 -20 -1.5t-25 -2.5q7 -15 56 -8q3 4 -1.5 8t-9.5 4zM303 705q-8 8 -39 8q6 -7 19.5 -9t19.5 1z" />
<glyph unicode="t" horiz-adv-x="1382" d="M475 674q-15 -5 -30 0.5t-15 15.5q3 20 20.5 24t26.5 -7q-2 -9 -18 -21q3 -2 8 -6t8 -6zM317 504q38 -2 105 16q55 27 108 41q10 5 32.5 13t35.5 14q37 8 68 28q7 1 28.5 14.5t36.5 14.5q15 15 68 31q9 11 33 16t38 13q14 11 41 14.5t33 7.5q14 1 36.5 7t33.5 7 q22 -4 67 11l26 3q26 3 36 -1q17 3 34.5 -1.5t22.5 -4.5q3 -1 12.5 -3t13.5 -3t11.5 -3t11 -4t9 -6t8 -8t5 -10t3.5 -13q14 -50 -37 -73q-48 -20 -90 -9q10 7 38.5 19.5t33.5 17.5q0 4 8 14t2 17q2 5 -7 7.5t-21.5 4.5t-16.5 6q-54 13 -80 5q-25 6 -88 -11q-6 -1 -64 -16 q-12 -1 -31.5 -8.5t-29.5 -9.5q-4 -1 -22 -9t-35 -12q-13 -2 -29.5 -12t-26.5 -13q-41 -10 -53 -22q-1 0 -22.5 -10t-32.5 -17q-18 -16 -60 -22q-43 -15 -61 -19q-8 -6 -32 -9t-30 -5q-29 -10 -61 -10q-22 -4 -109 2zM961 618q14 2 39 19t42 20q56 9 84 9q9 0 11 -7 q-27 -25 -86 -32q-13 -2 -42.5 -2.5t-47.5 -6.5zM1278 791q-1 -3 -4 -3t-6 2l-4 1q-10 0 -25 4t-27 4q-34 -3 -61 2q-7 0 -30 -2.5t-36 -1.5t-33.5 -4.5t-31.5 -4.5q-25 2 -70 -12q-12 -4 -33 -10t-34 -10q-43 -11 -68 -25q-11 -4 -37 -18t-33 -17q-18 -11 -73 -34 q-12 -5 -36 -18.5t-38 -18.5q-56 -27 -78 -31q-38 -20 -80 -23q-13 -5 -43.5 -6.5t-42.5 -5.5q-11 1 -37 0.5t-34 1.5q-13 1 -27 4t-26.5 6.5t-14.5 3.5q-4 1 -16 5t-17 6t-13.5 7t-14.5 11q-4 5 -15 16t-18 19.5t-10 15.5t-4.5 13t-2 14t-0.5 12t1 14.5t1 12.5t2.5 15.5 t2.5 15.5q19 47 63 63q7 2 28 8.5t39.5 11t37.5 7.5q40 -3 59 -15q22 -3 22 -49q-3 -2 -3 2q0 15 -1 17q-8 18 -39 19t-45 -7q-46 9 -79 -33q-2 -2 -10 -9.5t-11.5 -11.5t-9 -10.5t-8.5 -12t-4 -11.5q-11 -24 -4 -42t20 -24q16 -16 53 -32q6 -1 19.5 -7.5t21 -8.5t19.5 1 q3 0 29.5 -2.5t33.5 0.5q7 -1 32 4t40 4q49 7 75 21q7 3 23 10.5t27.5 11.5t21.5 5q6 3 19 7.5t24.5 9.5t20.5 11q5 2 25.5 15.5t37.5 15.5q37 23 66 33q12 8 43.5 19.5t38.5 14.5q5 2 36.5 14t47.5 13q34 13 86 19q13 5 28 7t26.5 1t26.5 0q8 0 39 -3t37 1q49 4 68 -15 q6 -4 19.5 -9t21 -10.5t6.5 -14.5zM356 743q-6 -8 -27 -13.5t-28 -8.5q-14 -2 -25 -12.5t-10 -22.5q0 -8 17.5 -13t19.5 -9q-13 3 -24.5 1.5t-23 3.5t-17.5 21q-7 22 6 40t35 26q21 10 42.5 5.5t34.5 -18.5zM369 682q1 -4 14 -16q-27 0 -37 10q-14 27 17 42.5t55 2.5 q-16 -2 -32 -20.5t-17 -18.5z" />
<glyph unicode="u" horiz-adv-x="1382" d="M907 674q3 2 8.5 6t8.5 6q-17 13 -19 21q9 11 26.5 7t20.5 -24q0 -10 -15 -15.5t-30 -0.5zM1065 504q-87 -6 -109 -2q-32 0 -61 10q-6 2 -29.5 5t-31.5 9q-20 5 -62 19q-41 6 -59 22q-11 7 -32.5 16.5t-23.5 10.5q-12 12 -53 22q-10 3 -26 13t-29 12q-17 4 -35 12t-22 9 q-10 2 -30 9.5t-32 8.5q-59 15 -63 16q-63 17 -88 11q-26 8 -80 -5q-4 -4 -16.5 -6t-21.5 -4.5t-7 -7.5q-6 -7 2 -17t8 -14q5 -5 33.5 -17.5t38.5 -19.5q-43 -11 -91 9q-50 23 -36 73q1 7 3 13t4.5 10t8 8t9 6t11.5 4t11 3t13 3t13 3q5 0 23 4.5t35 1.5q10 4 35 1t26 -3 q45 -15 68 -11q11 -1 33 -7t36 -7q6 -4 33 -7.5t41 -14.5q14 -8 38.5 -13t33.5 -16q51 -15 67 -31q15 -1 37 -14.5t29 -14.5q31 -20 67 -28q13 -6 35.5 -14t32.5 -13q56 -15 109 -41q67 -18 104 -16zM422 618q-18 6 -47.5 6.5t-42.5 2.5q-59 7 -86 32q2 7 10 7q28 0 84 -9 q17 -3 42.5 -20t39.5 -19zM104 791q-1 9 6.5 14.5t21.5 10.5t20 9q19 19 67 15q6 -4 37 -1t39 3q15 -1 27 0t27 -1t28 -7q52 -6 86 -19q16 -1 47.5 -13t36.5 -14q7 -3 38.5 -14.5t43.5 -19.5q27 -9 65 -33q17 -2 38 -15.5t26 -15.5q9 -6 20 -11t24 -9.5t19 -7.5 q10 -1 21.5 -5t27.5 -11.5t23 -10.5q26 -14 76 -21q15 1 39.5 -4t31.5 -4q7 -3 34 -0.5t30 2.5q12 -3 19.5 -1t20.5 8.5t19 7.5q39 17 54 32q13 6 20 24t-4 42q-1 6 -4 11.5t-8.5 12t-9 10.5t-11.5 11.5t-10 9.5q-33 42 -80 33q-14 8 -45 7t-39 -19q-2 -4 -1 -13 q0 -6 -0.5 -6.5t-2.5 0.5q0 46 22 49q19 12 60 15q19 -3 37 -7.5t39 -11t28 -8.5q45 -17 64 -63q1 -4 2.5 -14t2 -13.5t1.5 -11.5t1 -12v-11t-1 -11.5t-2.5 -11t-3.5 -12.5q-3 -7 -10 -15.5t-18 -19.5t-15 -16q-6 -6 -14.5 -11t-14 -7t-17 -5.5t-16.5 -5.5q-2 0 -14 -3.5 t-26 -6.5t-27 -4q-13 -2 -34.5 -1.5t-37.5 -0.5q-12 4 -42.5 5.5t-43.5 6.5q-42 3 -80 23q-22 4 -78 31q-14 5 -37.5 18.5t-35.5 18.5q-58 24 -74 34q-7 3 -33 17t-37 18q-26 14 -67 25q-12 4 -33.5 10t-34.5 10q-45 14 -70 12q-11 -1 -31.5 4.5t-33.5 4.5t-36 1.5t-30 2.5 q-27 -5 -61 -2q-12 0 -26.5 -4t-24.5 -4l-4 -1q-4 -2 -7 -2t-4 3zM1026 743q13 14 35 18.5t43 -5.5q22 -8 35 -26t6 -40q-6 -16 -17.5 -21t-23.5 -3.5t-25 -1.5q2 4 19.5 9t17.5 13q1 12 -10 22.5t-25 12.5q-7 3 -28 8.5t-27 13.5zM1014 682q-1 0 -17 18.5t-32 20.5 q24 13 54.5 -2.5t16.5 -42.5q-10 -10 -37 -10l-1 -2q5 2 14 14z" />
<glyph unicode="v" horiz-adv-x="1507" d="M741 823q-6 6 -7 19.5t-3 19.5q5 27 -6 31q-1 3 -5.5 24t-6.5 37.5t0 32.5q-2 18 1 46t9 42q5 13 16 17q32 9 47 -21q26 -37 15 -88q0 -37 -15 -94q-15 -51 -28 -62q-1 -1 -2 -3q-4 -8 -10 -4q-2 1 -5 3zM737 944q17 -56 19 -90q4 9 7 23t5.5 29.5t3.5 21.5q14 75 8 88 q3 16 -4.5 34t-21.5 21q-8 9 -18 -17q-3 -9 -3 -14q-1 -24 -1 -33t2 -31.5t3 -31.5zM655 668q21 3 29 8t8 18q-2 5 -10 12.5t-10 12.5q-15 9 -31 14q-29 4 -96 4q-15 4 -33.5 4.5t-40.5 -1t-27 -1.5q-66 4 -92 9q-52 7 -78 24q-32 8 -61 41q-4 11 -21 29.5t-20 31.5 q-18 27 -18 60q-4 45 8 63q9 22 27 35.5t42 9.5q9 0 23 -11.5t22 -14.5q24 -47 -6 -90q-6 -11 -32 -11q-29 15 -27 43q2 4 5.5 6.5t7.5 3.5t5 1q4 -1 7.5 -6t9.5 -7q0 -3 7 -6.5t9 -3.5q5 4 8 29q-10 50 -43 47q-18 3 -31.5 -10t-17.5 -27q-3 0 -4.5 -16.5t0.5 -20.5 q0 -24 14.5 -56t14.5 -34q45 -49 92 -63q9 -4 30 -7.5t31 -7.5q52 -5 68 -10q7 0 38 -2.5t38 0.5q48 0 75 -2q37 0 66 -10q31 -12 53 -27q22 -25 15 -59q-33 -33 -76 -27q-12 -3 -25.5 10t-11.5 27q5 7 17.5 11.5t27.5 -3.5q5 -1 7.5 -5t2.5 -7.5t1 -6t3 -1.5zM698 819 q-10 0 -32 19q-4 3 -16.5 9.5t-21 13.5t-16.5 18q-5 5 -41 53q-1 3 -6 12t-7 13.5t-4.5 13t-2.5 16.5q3 25 11.5 32.5t27.5 2.5q28 -12 74 -72q1 -2 24 -49q3 -7 9 -18.5t9 -18t5.5 -15.5t1.5 -18l2 -13q0 -2 -2 -1q-6 -1 -8 -2q-1 -1 -3 0zM690 848q-31 76 -43 92 q-17 35 -72 66h-2q-5 -27 0 -35q17 -49 50 -72q36 -41 67 -51zM117 950q3 3 -1 3t-7 1q3 2 0 9q0 -7 -3 -3t-2 11q-2 14 19 7q11 -4 14 -9q7 -8 -0.5 -13.5t-19.5 -5.5zM113 885q-2 5 -1.5 8t-0.5 4q2 2 3 4.5t1.5 3t3.5 0.5q4 4 7.5 4.5t6 -0.5t7 -5t5.5 -5q6 -6 1 -15 t-13 -7q-2 1 -8 5t-7.5 4.5t-4.5 -1.5zM559 874q3 -2 7.5 -5.5t7.5 -5.5t7 -4t9 -3q6 -3 11 -10t15 -10q5 0 10 -2.5t8 -5.5t1 -5q0 -9 -17.5 -12.5t-25.5 0.5q-13 1 -42.5 3t-47.5 5q-15 7 -25.5 13.5t-19.5 16.5t-8 19q-4 17 8.5 24.5t27.5 2.5q31 -2 74 -21zM469 874 q1 -11 9 -19t13.5 -10t18.5 -7q22 -11 86 -11q-36 26 -51 31q-9 0 -18.5 2.5t-22 7t-21.5 6.5q1 3 -4 3zM176 815q-10 -15 -24.5 -5t-14.5 19q-5 5 3.5 10t19.5 7q10 1 14.5 -9.5t1.5 -21.5zM205 756q-16 0 -21 12q0 9 11.5 11.5t21.5 0.5q3 -2 5 -7t5 -5q6 -14 -5 -18.5 t-17 6.5zM276 717q-9 -8 -21.5 -2t-12.5 16q3 8 17 8t22 -4h10q15 -8 12 -14q1 -7 -4.5 -8t-22.5 4zM367 616q-2 19 15 20t23 -14l1 -8q3 -13 -8.5 -18.5t-20.5 -3.5q-52 9 -58 61q-2 20 9.5 38t31.5 24q12 5 25.5 7t33 2.5t25.5 0.5q22 0 74 -23q6 0 10 -7q3 -5 -2 -5 q5 -9 -1.5 -19t-16 -11.5t-16.5 6.5q-21 21 -7 30q-43 11 -73 9q-48 -3 -64 -23q-9 -13 -2.5 -36.5t21.5 -29.5zM854 668q3 1 4 11t10 9q38 6 43 -8q2 -28 -34 -37q-20 -6 -46.5 3t-29.5 24q-15 41 14 59q38 25 53 27q22 10 66 10q62 0 74 2q17 2 41.5 1.5t33.5 0.5 q57 6 70 10q9 1 32 8t29 7q66 16 93 63q19 27 28 90q0 5 -2 14l-3 13.5t1 9.5q-1 2 -6 9t-8 10.5t-8.5 9t-12.5 7.5t-16 1q-5 0 -9 -1t-7 -2.5t-6 -4.5t-4.5 -5t-4 -7.5t-3.5 -7.5t-3.5 -9t-3.5 -10q0 -24 8 -29q13 14 17 10q10 13 16 13q3 1 5 1t4 -1t3 -2t3 -4.5t3 -4.5 q3 -12 -7.5 -25.5t-18.5 -17.5q-12 -1 -16.5 0.5t-16.5 10.5q-30 35 -8 90q4 12 47 26q26 1 44.5 -12.5t25.5 -32.5q7 -13 9 -32t-3 -31q0 -37 -17 -60q-30 -50 -43 -61q-3 -3 -9 -8.5t-10.5 -9t-10.5 -8.5t-13.5 -8.5t-15.5 -6.5q-22 -15 -78 -24q-16 -6 -47.5 -6.5 t-44.5 -2.5q-17 -2 -51.5 -0.5t-48.5 -1.5q-19 -4 -53.5 -1.5t-43.5 -2.5q-18 -2 -30 -14q-4 3 -10 -5.5t-11 -19.5q-4 -31 37 -26zM797 817q-7 0 -2 7q4 5 2 7q-1 15 2.5 26t11 23.5t10.5 20.5q13 39 25 49q22 50 74 72q19 10 29.5 0.5t8.5 -35.5q6 -25 -20 -55 q-9 -23 -43 -53q-16 -29 -53 -41q-3 -7 -7 -10t-12 -4.5t-14 -4.5q2 -6 -5 -6q-5 1 -7 4zM887 899q16 9 29 29.5t18 42.5q0 4 2 12.5t2 14t-4 8.5q-38 -11 -72 -66q-22 -38 -43 -92q24 10 68 51zM1391 950q-7 -1 -12.5 -0.5t-9 5t2.5 14.5q5 11 17.5 12.5t15.5 -10.5 q-2 -4 -5 -5q-1 -1 1 -3q3 -1 3 -3t-2 -4l-3 -2q-1 -2 -3.5 -2t-4.5 -2zM1395 885q-6 0 -12 -4t-7 -4q-7 -2 -13.5 6t-0.5 16q5 2 12 5.5t7.5 3t9.5 -2.5q3 -1 3 -3.5t3 -4.5q2 -8 -2 -12zM1024 895q18 -2 31 -8.5t6 -18.5q-5 -11 -14.5 -20.5t-14.5 -13t-24 -15.5 q-11 -6 -23 -8t-20.5 -2t-24 1t-25.5 1q-5 -1 -14.5 -0.5t-18.5 4t-8 8.5q0 2 4 4.5t9 5t6 3.5q21 11 27 20q0 12 28 18q34 18 76 21zM1024 874q-10 1 -19 -1t-22 -7.5t-20 -7.5q-9 -7 -50 -31q3 0 35.5 2t48.5 9q27 12 43 36q-1 0 -4 0.5t-6 0.5t-6 -1zM1333 815q0 3 0.5 8 t0.5 8t1.5 6.5t4.5 5.5t8 3q10 3 18.5 -4t5.5 -13q2 -9 -13.5 -21t-25.5 7zM1303 756q-14 -10 -24 -4q-6 6 1 16q2 0 4.5 6t5.5 6q12 3 22.5 -0.5t12.5 -11.5q-3 -16 -22 -12zM1233 717q-22 -14 -27 -3v7q1 7 6.5 9t6.5 5q2 0 4 2q3 -1 4 -2q1 6 21 5.5t20 -9.5 q4 -8 -2.5 -13.5t-15.5 -5t-17 4.5zM1143 616q19 3 23.5 28.5t-5.5 37.5q-10 15 -63 23q-9 -2 -40.5 -1.5t-35.5 -7.5q7 -4 4.5 -17t-8.5 -13q-19 -8 -30 -0.5t-5 24.5q-6 0 4 9q2 2 4 3q42 25 74 23q56 3 84 -10q22 -8 32 -21.5t7 -40.5q-2 -22 -16 -39.5t-39 -21.5 q-10 2 -14 3t-10 6t-5 13q3 17 22 19q17 2 17 -13v-4z" />
<glyph unicode="w" horiz-adv-x="1839" d="M1587 1065q-21 2 -6 63q0 -9 6.5 -25.5t7.5 -27.5q-1 -2 -3.5 -4.5t-4.5 -5.5zM1657 995q0 5 2 9.5t6 8.5l6.5 6.5t9.5 5.5t9.5 4t11 4.5t10.5 4.5q-2 -2 -1 -2t3 2q-4 -3 -11 -11t-11 -11q-14 -18 -17 -25q-4 -7 -8.5 -10.5t-7.5 -0.5t-2 15zM1669 936q-2 3 -2.5 6 t0.5 6t2 5t4.5 4.5t5.5 4t6 4t5 3.5q6 3 14.5 11.5t11.5 10.5q-15 -36 -16 -37t-4.5 -5t-5.5 -5.5t-5.5 -4t-7 -3.5t-8.5 0zM1645 649q3 0 11 1t11 1q-8 -5 -47 -14q-37 0 -43 14q14 7 20 7t23 -4t25 -5zM1528 621q9 2 23.5 -2.5t19.5 -4.5q24 -12 41 -14q9 -3 20 0 q-33 -11 -49 -8q-55 4 -55 29zM1470 584q36 6 56 -6q10 1 27.5 -4.5t29.5 -4.5q-19 -8 -63 -8q-41 0 -50 23zM1423 555q11 6 17 0q4 -1 11 -2.5t11.5 -2.5t10 -3.5t8.5 -5.5q39 -11 45 -11q-21 -8 -62 -4q-33 6 -41 29zM1362 537q32 4 57 -25q14 -10 49 -16q-26 -10 -59 2 q-30 6 -43 26q-8 8 -4 13zM1305 518q12 -1 31.5 -12.5t23.5 -13.5q6 -2 23 -10.5t26 -10.5q-47 0 -68 8q-35 12 -38 39h3h-1zM1006 453q30 7 53 -39q-6 7 -27 18t-26 21zM1632 1116q0 -6 -0.5 -20t-1 -21.5t-3.5 -16t-9 -11.5q-13 16 -6 49q2 12 12 28t10 17q2 -3 1.5 -5.5 t-2 -8.5t-1.5 -11zM1647 1012q-3 2 -5 4.5t-3.5 4t-2.5 1.5q-1 15 6 26.5t19 22.5t16 16q1 0 0.5 -1l-1.5 -3t-1 -4q-4 -7 -12.5 -32.5t-15.5 -34.5zM1622 809q-3 -26 -20 -53q-10 -18 -31 -47q-26 -31 -37 -39q-10 -13 -41 -37q-9 -5 -25 -15.5t-20 -13.5q-7 -5 -51 -24 q-25 -13 -68 -25q-54 -11 -74 -16q-50 -13 -77 -15q-32 -8 -78 -12q-29 -4 -76 -14q-17 -6 -66 -25q-4 -2 -16 -6q3 -2 7 -5t7 -5q27 -32 33 -56q-6 3 -49 41q-1 0 -20 13q-3 -1 -21 -13q-43 -38 -49 -41q5 32 33 56q1 1 5 4.5t9 5.5q-1 1 -16 6q-13 7 -66 25q-46 9 -76 14 q-39 5 -77 12q-47 4 -78 15q-55 14 -74 16q-35 8 -68 25q-18 5 -49 24q-36 18 -47 29q-14 10 -41 37q-16 20 -29 28q-12 15 -24 33q-13 20 -19 37q-4 5 -7 12t-5.5 16.5t-3.5 12.5q-3 5 -5 18.5t-3 18.5q1 7 -0.5 22.5t-1.5 20.5q0 46 6 69q3 13 12 33.5t11 26.5 q-1 3 0.5 6.5t3.5 5.5l2 2q-2 -13 -4.5 -40t-4.5 -40q-2 -9 -2.5 -23.5t-1.5 -19.5q-3 0 -1 -21l1 -20q8 -53 15 -71q16 -37 30 -58q20 -28 39 -47q27 -31 47 -41q9 -6 28 -17.5t28 -17.5q10 -4 27.5 -13t31.5 -13q30 -15 68 -21q42 -13 71 -16q10 -1 26 -4.5t28 -5t22 -0.5 q10 -1 36 -6.5t40 -6.5q51 -8 72 -16q13 -3 34.5 -13t28.5 -12q1 0 8 -3t11 -5q2 2 8.5 4t9.5 4q10 3 31.5 12.5t31.5 12.5q40 10 72 16q53 5 76 13q12 2 37.5 5t38.5 5q29 9 71 16q10 4 34 10.5t34 10.5q29 2 59 26q9 4 56 35q24 18 47 41q5 6 20 22.5t19 24.5q5 7 9.5 16 t10.5 21.5t10 20.5q11 28 15 71v41q2 18 -4 43q0 19 -9 80q2 0 3 -2.5t2 -6.5t2 -5q5 -9 22 -60q10 -21 6 -69q-1 -9 -1 -24t-1 -19q0 -9 -3.5 -21.5t-4.5 -15.5zM1667 879q24 26 59 51q-2 -3 -8 -18t-12.5 -25t-15.5 -13q-7 -5 -23 5zM1655 811q14 18 39 27q36 13 43 22 q-2 -2 -11 -15t-16 -20q-38 -27 -55 -14zM1636 752q4 6 45 16q32 9 43 18q-2 -2 -10.5 -11.5t-15.5 -16.5q-21 -17 -39 -17q-17 0 -23 11zM1616 696q4 4 10.5 6t11.5 2.5l15 1.5t14 1q39 0 51 8q-7 -13 -30 -21q-20 -10 -46 -10q-18 0 -26 12zM1257 502q37 -10 50 -23 q14 -10 32 -37q-6 1 -11 3.5t-11 8t-10 7.5q-6 4 -19.5 10t-20.5 12.5t-10 18.5zM1231 477q4 -4 11 -16t11 -15q-5 4 -19 10t-23.5 13t-14.5 18q6 7 19 2.5t16 -12.5zM1143 481q10 -2 18.5 -9.5t16.5 -19.5t12 -16q-4 3 -18.5 10t-26 14.5t-17.5 16.5q0 4 15 4zM1073 471 q11 -2 18 -8t15 -21l8 -16q-2 1 -23 18t-32 23q1 2 7 2.5t7 1.5zM258 1128q0 -2 3 -12t4 -16t1 -14t-3.5 -13.5t-10.5 -7.5q-1 1 -6 10q-1 7 0 14t2.5 12t4.5 13.5t5 13.5zM147 1016q-3 3 -7 7.5t-7.5 8t-7.5 6.5q0 -1 1 0t1 0q2 -1 10.5 -5t12.5 -6t11 -6.5t10.5 -8t7 -8 t3.5 -9.5q0 -9 -3.5 -11.5t-8 0.5t-6.5 7q-5 5 -17 25zM123 991q4 -2 12.5 -10t14.5 -12q11 -4 18 -13.5t2 -19.5q-5 -1 -10 0.5t-7.5 3.5t-8.5 8l-5 6q-12 16 -16 37zM262 651q-8 -14 -43 -14q-8 1 -47 14q4 -1 11.5 -1t11.5 -1q6 1 23 6t27 4.5t17 -8.5zM311 621 q-3 -29 -55 -29q-21 0 -49 8q4 1 10 0t10 0q6 -1 13.5 1.5t15.5 7t12 5.5q27 12 43 7zM369 584q-9 -23 -47 -23q-36 -3 -66 8q30 3 57 9q6 1 19 3.5t19.5 3t17.5 -0.5zM416 555q3 -22 -41 -29q-11 -2 -62 4q7 0 45 11q8 1 24 7l17 7h17zM473 524q-13 -16 -43 -26 q-37 -6 -59 -2q43 11 49 16q4 2 14.5 10t20.5 12t22 3q1 -3 -4 -13zM537 518q-7 -28 -39 -39q-20 -8 -68 -8q8 4 16.5 7.5t18.5 7.5t14 6q8 2 27 12.5t29 13.5h2zM780 414q24 48 54 39q-6 -11 -27 -21.5t-27 -17.5zM221 1047q-4 3 -6.5 8.5t-4 13.5t-2 14.5t-1 17t-0.5 15.5 q0 6 -1 14t-1 11q16 -20 22 -45q11 -29 -6 -49zM193 1012q-6 6 -10.5 14.5t-7 15.5t-6 19.5t-5.5 17.5q0 2 -1 3.5t-1.5 2.5t0.5 2q0 -1 21 -24.5t20 -40.5q-1 -1 -2 -3.5t-3 -4.5t-5 -2zM152 874q-11 3 -18 12t-13 24.5t-8 19.5q48 -37 59 -51q-6 -10 -20 -5zM184 811 q-20 -21 -55 14q-5 7 -27 35q8 -7 43 -22q23 -6 39 -27zM180 741q-25 3 -39 17q-5 6 -14 15t-12 13q21 -9 45 -18q6 -2 16 -4t16.5 -4.5t10.5 -7.5q-11 -11 -23 -11zM197 684q-15 -2 -43 10q-12 4 -33 21q10 -13 51 -8q33 4 51 -11q-3 -4 -26 -12zM500 442l9 12t11.5 14.5 t11.5 10.5q29 21 50 23q-1 -11 -7 -17.5t-21.5 -13t-21.5 -10.5q-21 -17 -32 -19zM608 477q7 9 17.5 12.5t17.5 -2.5q-5 -8 -13 -15t-13.5 -10.5t-16.5 -8.5t-14 -7q1 1 8.5 13t13.5 18zM696 481q1 2 7.5 1.5t7.5 -5.5q-5 -8 -15 -15t-26 -15t-21 -11q4 3 19 23.5t28 21.5z M766 471q2 -1 5.5 -1t5.5 -0.5t3 -2.5q-10 -5 -29 -21t-26 -20q0 1 4 8.5t5.5 10t5.5 9t7 9t8 5.5t11 3z" />
<glyph unicode="x" horiz-adv-x="688" d="M377 1026q11 -16 30 -47t25 -41q30 -51 53 -84q12 -16 24.5 -37.5t28 -50t25.5 -45.5q8 -16 15.5 -50t5.5 -44q-12 -26 -357 -19q-100 0 -116 29q-1 1 -7 33q-1 4 1.5 6t6.5 3.5t5 2.5q29 47 104.5 147t108.5 158q5 5 14 8q1 2 4 10t5.5 12t8.5 7t15 2zM383 899 q2 5 9 13.5t9 11.5q-16 32 -18 34q-2 -9 0 -30.5t0 -28.5zM254 819q-7 -10 -26 -35.5t-31 -44.5t-21 -37q24 12 71.5 32.5t69.5 31.5q11 25 12.5 87t6.5 81q-13 -20 -41 -57.5t-41 -57.5zM369 823q24 39 59 60q-6 12 -12 18q-19 -16 -25.5 -22.5t-15.5 -23t-6 -32.5z M408 834q-4 -4 -18.5 -17.5t-21.5 -24t-8 -22.5q5 -6 12.5 -3t10.5 5.5t9 10t9 10.5t24.5 20.5t29.5 26.5q-4 3 -9.5 13.5t-9.5 12.5q-6 -4 -28 -32zM463 817q-3 -3 -23.5 -26t-36.5 -31q4 -8 8.5 -9.5t7.5 1.5l8.5 8.5t8.5 7.5q7 5 22 14.5t19 12.5q-1 2 -3.5 8.5t-4.5 9.5 t-6 4zM434 733q4 -2 13 -11t16 -11q1 2 4.5 6t5.5 6.5t5.5 6t6.5 5.5t7 4.5t8 3.5q-9 27 -15 35q-9 -7 -25.5 -22.5t-25.5 -22.5zM303 711q2 -11 3 -33t3 -33q6 1 15.5 0t15.5 0q-12 64 6 76q2 -10 2 -36.5t2 -39.5q6 -2 21 -2q-16 46 -6 78q-18 18 -62 -10zM293 705 q-5 1 -16 -4.5t-15 -6.5q2 -4 3 -12t1.5 -18t1.5 -15q5 -2 15.5 -2.5t13.5 -1.5q-5 51 -4 60zM381 643q5 0 14.5 -1t14.5 -1q-6 31 -4 47q-4 6 -15.5 14.5t-15.5 12.5q-1 -12 2.5 -36.5t3.5 -35.5zM223 676q0 -3 1.5 -11.5t0.5 -11.5q20 -4 33 -4q-2 5 -5 19t-5 20 q-3 -3 -7 -5t-9.5 -4t-8.5 -3zM502 733q-4 -5 -15 -15t-14 -16q1 0 5 -2.5t7 -1.5q22 14 29 7q0 -7 2 -9l-12 -6q13 -18 26 -10q-5 6 -12.5 26.5t-15.5 26.5zM188 657q7 0 23 -4q-1 2 -2 7.5t-2 7.5q-2 -2 -6.5 -4t-8 -3.5t-4.5 -3.5zM420 641l18 -1q17 0 17 1q-1 5 0 12.5 t0 12.5q-16 5 -39 16q0 -5 3 -19t1 -22zM537 666q-6 8 -7 8q-2 -4 7 -8zM467 641q3 1 14 0.5t11 1.5q-25 15 -29 16q0 -6 4 -18z" />
<glyph unicode="y" horiz-adv-x="634" d="M319 997l3 1q4 1 6.5 1t3.5 -2q5 -5 26 -14.5t27 -13.5q25 -14 50.5 -47.5t41.5 -69.5q41 -74 20 -83q-2 -1 -5 -1q8 -14 8 -37q19 10 30 -1.5t-14 -22.5q-33 -19 -100 -45q-53 -21 -135 -21q-83 0 -125 12q-1 1 -4 2.5l-5 2.5t-5 3t-5 3.5l-4 3t-3.5 3.5t-2.5 4t-1 4 t0.5 4.5t2.5 4.5q-2 4 -13 13t-12 12q-3 5 2 30q25 87 70 154q2 3 12 16t13.5 17t12.5 15t14.5 16.5l14 14t16.5 14.5t17 11q38 23 43 -4zM270 928q14 14 49 39q-10 -2 -18 -7.5t-18.5 -17.5t-12.5 -14zM231 858q4 0 7 4.5t8 5.5q11 0 36.5 -2t39 -2t35.5 1.5t42 6.5 q-12 27 -57 72q-56 -28 -111 -86zM135 731q73 -37 141 -43q-43 68 -90 121q-9 -17 -27 -42t-24 -36zM301 717q6 1 8 8t0 12q61 82 66 90q-29 -4 -86.5 -5t-59.5 -1q46 -78 72 -104zM422 838q-16 -26 -76 -111q-3 -4 -8 -10t-8 -9.5t-5.5 -9t-2.5 -10.5q10 2 41.5 6t54.5 9.5 t47 15.5q0 2 -1.5 19.5t-2.5 22.5t-4 19.5t-6.5 22t-10 18t-14.5 17.5h-4z" />
<glyph unicode="z" horiz-adv-x="1538" d="M1370 848q-3 1 -9 10t-9 12q-20 20 -15 29q4 4 13 2q10 -21 18 -27q4 -8 6 -11t6.5 -6.5t12.5 -4.5l16 16l3 4q3 4 5.5 6.5t6.5 4.5t6 -2v-13q-3 -6 -10 -11.5t-11.5 -9.5t-3.5 -7q2 0 9.5 -8t6.5 -9q1 0 2 -2l3.5 -7t5.5 -9q3 -3 3 -9t-3 -8q-8 0 -13 9q-3 3 -8 9 t-9.5 10.5t-10.5 8.5q-7 -6 -15 -15t-12 -13q-2 -3 -14 -15q-5 -2 -9.5 -2t-6.5 1.5t-1 4.5q-2 2 1.5 4.5t7.5 5t4 3.5q6 1 13 11t9 17q-19 -1 -51.5 0.5t-42.5 1.5q-46 3 -94 0q-10 4 -46.5 1.5t-48.5 -1.5h-92q-14 -4 -28.5 -4.5t-34 1t-29.5 1.5q-14 -1 -45 -1t-47 -1 q-19 2 -47 -1t-45 -1q-16 1 -47.5 0t-44.5 0q-14 2 -29 2t-34.5 -1t-31.5 -1q0 -1 -42 -0.5t-50 0.5q-1 -3 -38.5 -1.5t-39.5 1.5q-15 1 -39.5 0t-37.5 0q-21 -4 -28 -4.5t-26 3t-24 3.5q-54 4 -78 2q13 -5 29 -24q0 1 8 -3.5t14 -12t2 -11.5q-3 -3 -6.5 -3t-5.5 1t-5.5 4 t-4.5 4q-10 7 -23 16.5t-18 12.5q-23 12 -8 31q1 1 4 2.5t4 2.5t0 3q0 2 12 2q4 4 9.5 6.5t12.5 5.5t9 4q32 16 39 9q0 -18 -19 -21q-5 -2 -11.5 -4t-9.5 -3.5t-5 -6.5q8 0 36 1.5t41 0.5q15 2 41 -0.5t35 0.5q10 0 40 -2.5t36 0.5q3 -2 37.5 -1t38.5 1q15 -2 30.5 -2t34 1 t27.5 1h90q19 0 47 1t45 1q54 4 90 2q13 -1 43.5 0t46.5 0q12 1 43.5 1t47.5 1q9 0 46 2.5t46 -0.5h90q12 -4 27.5 -4t35.5 2t29 2q49 4 92 -2z" />
<glyph unicode="{" horiz-adv-x="1538" d="M168 848q43 6 92 2q9 0 29 -2t35.5 -2t27.5 4h90q9 3 46.5 0.5t46.5 -2.5q15 -1 46.5 -1t43.5 -1q16 1 46.5 0t43.5 0q36 2 90 -2q17 0 45 -1t47 -1h90q9 0 27.5 -1t34 -1t30.5 2q4 0 38.5 -1t37.5 1q6 -3 36 -0.5t40 2.5q9 -3 35 -0.5t41 0.5q13 1 41 -0.5t36 -1.5 q-2 5 -5 6.5t-9.5 3.5t-11.5 4q-19 3 -19 21q7 7 39 -9q2 -1 9 -4t12.5 -5.5t9.5 -6.5q12 0 12 -2q-1 -2 0.5 -3t4 -2t4.5 -3q15 -19 -9 -31q-5 -3 -18 -12.5t-23 -16.5q-1 -1 -4.5 -4t-5.5 -4t-5.5 -1t-6.5 3q-4 4 2 11.5t14 12t8 3.5q16 19 29 24q-24 2 -78 -2 q-5 0 -24 -3.5t-26 -3t-28 4.5q-13 -1 -37.5 0t-39.5 0q-2 0 -39.5 -1.5t-38.5 1.5q-8 0 -50 -0.5t-42 0.5q-12 0 -31.5 1t-34.5 1t-29 -2q-13 -1 -44.5 0t-47.5 0q-17 -2 -45 1t-47 1q-16 1 -47 1t-45 1q-10 0 -29.5 -1.5t-34 -1t-28.5 4.5h-92q-12 -1 -48.5 1.5 t-46.5 -1.5q-48 3 -94 0q-10 0 -42.5 -1.5t-51.5 -0.5q2 -7 9.5 -17t13.5 -11q0 -1 4 -3.5t7 -5t1 -4.5q1 -3 -1 -4.5t-6.5 -1.5t-9.5 2q-12 12 -14 15q-4 4 -12 13t-15 15q-6 -4 -10.5 -8.5t-9.5 -10.5t-8 -9q-5 -9 -13 -9q-3 2 -3 8t3 9l4 6t3 5t1.5 3.5t1 2.5t1.5 1 q-1 1 6.5 9t9.5 8q1 3 -3 7t-11 9.5t-10 11.5v13q2 4 6 2t6.5 -4.5t4.5 -6.5l3 -4l16 -16q8 1 12.5 4.5t6.5 6.5t6 11q8 6 18 27l4 2q8 0 9 -4q5 -9 -15 -29q-3 -3 -9 -12t-9 -10z" />
<glyph unicode="&#x2000;" horiz-adv-x="698" />
<glyph unicode="&#x2001;" horiz-adv-x="1397" />
<glyph unicode="&#x2002;" horiz-adv-x="698" />
<glyph unicode="&#x2003;" horiz-adv-x="1397" />
<glyph unicode="&#x2004;" horiz-adv-x="465" />
<glyph unicode="&#x2005;" horiz-adv-x="349" />
<glyph unicode="&#x2006;" horiz-adv-x="232" />
<glyph unicode="&#x2007;" horiz-adv-x="232" />
<glyph unicode="&#x2008;" horiz-adv-x="174" />
<glyph unicode="&#x2009;" horiz-adv-x="279" />
<glyph unicode="&#x200a;" horiz-adv-x="77" />
<glyph unicode="&#x202f;" horiz-adv-x="279" />
<glyph unicode="&#x205f;" horiz-adv-x="349" />
<glyph unicode="&#x25fc;" horiz-adv-x="1024" d="M0 1024h1024v-1024h-1024v1024z" />
</font>
</defs>
</svg>
