<?xml version="1.0" encoding="utf-8"?>
<!-- Generator: Adobe Illustrator 15.0.2, SVG Export Plug-In  -->
<!DOCTYPE svg PUBLIC "-//W3C//DTD SVG 1.1//EN" "http://www.w3.org/Graphics/SVG/1.1/DTD/svg11.dtd" [
	<!ENTITY ns_flows "http://ns.adobe.com/Flows/1.0/">
]>
<svg version="1.1"
	 xmlns="http://www.w3.org/2000/svg" xmlns:xlink="http://www.w3.org/1999/xlink" xmlns:a="http://ns.adobe.com/AdobeSVGViewerExtensions/3.0/"
	 x="0px" y="0px" width="832px" height="506px" viewBox="-76.799 -60.645 832 506"
	 overflow="visible" enable-background="new -76.799 -60.645 832 506" xml:space="preserve">
<defs>
</defs>
<polygon points="349.541,370.967 342.299,358.686 356.107,350.551 363.346,362.831 "/>
<path fill="#AAEBD9" stroke="#000000" stroke-width="9" stroke-miterlimit="10" d="M565.215,197.561l-8.48-65.893l-97.542-31.79
	c0,0-50.995-19.207-54.993-18.104s-34.247,45.475-34.996,49.895c-0.75,4.42-14.988,84.097-14.666,86.553
	c0.32,2.456,7.955,71.884,10,76.324c2.043,4.44,18.334,35.87,18,39.103c-0.336,3.232-23.381,17.897-32.191,27.23
	s57.354-21.362,62.107-21.333s86.707,0.575,92.748,0s43.004-2.62,47.002-4.477s17.334-71.994,17.334-71.994L565.215,197.561z"/>
<g id="XMLID_35_">
	<g>
		<path d="M584.062,238.807c-0.118-0.159-0.537-0.113-0.763-0.184c-6.658-1.534-13.706-7.799-18.066-12.379
			c0.251,0.184,0.491,0.343,0.742,0.514c5.687,3.819,12.187,7.285,20.456,9.17c0.106,0.158,0.489,0.096,0.69,0.165
			c0.743,0.12,1.475,0.239,2.217,0.372c0.206,0.007,0.521,0.148,0.652,0.05c6.171,0.662,11.002-0.466,14.912-2.915
			c0.492-0.31,0.962-0.635,1.422-0.998c3.818-2.888,6.509-7.35,8.438-12.894c1.127,0.44,2.317,0.849,3.68,1.115
			c0.408,0.187,1.248,0.316,1.678,0.283c5.266,0.576,9.037-0.937,12.43-2.929c0.246-0.161,0.466-0.288,0.681-0.501
			c0.127-0.05,0.244-0.137,0.338-0.227c0.246-0.149,0.47-0.312,0.668-0.491c6.431-5.14,11.154-12.66,13.699-23.135
			c0.151-0.072,0.099-0.397,0.163-0.563c0.157-0.121,0.099-0.52,0.181-0.747c0.179-0.98,0.356-1.949,0.536-2.942
			c-0.014-0.235,0.167-0.6,0.047-0.747c0.006-0.184,0.18-0.476,0.044-0.587c0.968-8.1-0.333-14.63-3.554-19.803
			c-0.309-0.46-0.607-0.908-0.98-1.337c-0.818-1.002-1.79-1.908-2.778-2.778c1.005-2.873,1.954-5.813,2.668-9.083
			c0.154-0.084,0.101-0.409,0.166-0.588c0.14-0.061,0.089-0.422,0.155-0.613c0.065-0.302,0.105-0.594,0.172-0.908
			c0.286-1.082,0.539-2.585,0.645-3.696c0.002-0.012,0.004-0.037,0.006-0.061c0.052-0.278,0.092-0.57,0.154-0.848
			c-0.018-0.199,0.158-0.515,0.035-0.625c1.789-14.945-1.702-26.192-7.907-35.556c-0.156-0.273-0.362-0.54-0.569-0.793
			c-0.223-0.354-0.46-0.672-0.745-0.995c-0.144-0.285-0.338-0.55-0.559-0.78c-9.306-11.704-23.323-20.087-43.1-24.499
			c-0.062-0.129-0.408-0.063-0.584-0.129c-0.177-0.054-0.423-0.041-0.511-0.147c-0.041-1.088-0.125-2.131-0.271-3.143l3.276-0.02
			c0.008,0.05,0.004,0.086,0.024,0.125c20.156,4.78,35.119,13.205,44.815,25.278c0.112,0.22,0.253,0.406,0.418,0.594
			c0.481,0.699,0.976,1.387,1.496,2.052c0.104,0.195,0.232,0.379,0.376,0.529c6.551,9.95,9.878,22.167,7.977,38.026
			c-0.03,0.182-0.072,0.375-0.104,0.569c-0.01,0.233-0.188,0.573-0.069,0.732c-0.043,0.316-0.11,0.642-0.178,0.968
			c-0.223,1.31-0.444,2.619-0.68,3.939c-0.058,0.34-0.112,0.667-0.17,1.006c-0.169,0.12-0.121,0.506-0.202,0.732
			c-0.033,0.207-0.064,0.413-0.109,0.618c-0.441,1.954-0.914,3.843-1.467,5.687c0.682,0.767,1.44,1.493,2.104,2.32
			c0.253,0.418,0.542,0.828,0.873,1.192c3.736,5.752,5.165,13.12,4.166,22.189c-0.054,0.18-0.085,0.374-0.102,0.557
			c-0.012,0.245-0.191,0.598-0.072,0.757c-0.181,0.993-0.348,1.987-0.525,2.956c-0.003,0.024-0.004,0.037-0.007,0.073
			c-0.157,0.108-0.12,0.494-0.189,0.708c-0.032,0.194-0.061,0.376-0.116,0.58c-2.814,11.374-7.96,19.506-14.94,25.172
			c-0.152,0.06-0.27,0.147-0.403,0.27c-0.573,0.389-1.157,0.777-1.685,1.194c-0.178,0.082-0.296,0.169-0.417,0.293
			c-4.139,2.402-8.727,4.182-15.133,3.436c-0.767-0.123-1.522-0.244-2.266-0.364c-0.061-0.005-0.132-0.025-0.18-0.029
			c-0.025-0.002-0.072-0.007-0.109-0.01c-1.521,4.585-4.031,7.808-7.095,10.312c-0.13,0.086-0.271,0.159-0.403,0.27
			c-0.465,0.288-0.923,0.614-1.345,0.956c-0.176,0.057-0.296,0.169-0.429,0.28c-5.44,3.177-12.158,4.556-20.634,3.551
			c-0.232,0.015-0.568-0.166-0.713-0.056c-0.024-0.002-0.036-0.004-0.048-0.005C586.076,239.134,585.057,238.976,584.062,238.807z"
			/>
		<path fill="#70F28E" d="M467.888,123.188c-0.219-0.391-0.438-0.769-0.645-1.158c0.294,0.496,0.591,0.956,0.89,1.391
			c0.022,0.027,0.043,0.066,0.076,0.094C468.098,123.405,467.999,123.297,467.888,123.188z"/>
		<path d="M465.918,119.575c-0.734-1.363-1.442-2.737-2.165-4.099c0.188,0.079,0.36,0.182,0.519,0.308
			c0.395,0.321,0.627,1.464,0.844,2.002C465.363,118.376,465.621,118.993,465.918,119.575z"/>
		<path d="M463.856,110.817c-0.082-0.156-0.117-0.307-0.102-0.465C463.941,110.825,464.015,111.078,463.856,110.817z"/>
		<path d="M463.856,110.817c0.158,0.261,0.085,0.008-0.102-0.465C463.739,110.51,463.774,110.661,463.856,110.817z M557.709,55.806
			c-0.196,0.018-0.509-0.147-0.631-0.023c-0.193-0.006-0.493-0.183-0.592-0.056c-18.269-1.582-32.88,1.891-44.715,9.176
			c-0.385,0.21-0.701,0.463-1.041,0.702c-0.002,0.024-0.005,0.049-0.007,0.073c-1.765,1.138-3.24,2.697-4.793,4.175
			c-1.441-0.716-3.076-1.316-5.028-1.674c-0.563-0.202-1.56-0.358-2.143-0.365c-5.652-0.613-9.798,0.864-13.396,3.096
			c-0.362,0.212-0.712,0.437-1.017,0.704c-3.009,2.312-5.561,5.198-6.793,9.947c-0.149,0.417-0.287,1.229-0.267,1.65
			c-0.452,4.096,0.702,7.064,2.351,9.697c0.309,0.461,0.621,0.885,0.958,1.311c0.668,0.914,1.716,1.802,2.373,2.567
			c-2.862-1.394-3.906-3.982-6.231-5.768c-0.272-0.075-0.298,0.193-0.508,0.223c-0.439,0.266-0.884,0.581-1.291,0.899
			c-3.275,2.558-6.241,5.564-7.582,10.82c-0.151,0.06-0.102,0.421-0.168,0.612c-0.067,0.326-0.112,0.667-0.183,1.018
			c0.006,0.197-0.161,0.539-0.035,0.625c-0.612,9.612,3.408,15.97,7.411,22.376c0.11,0.245,0.326,0.413,0.437,0.657
			c0.479,0.723,0.995,1.438,1.525,2.129c0.92,0.704,1.591,1.581,2.379,2.383c-1.85-1.285-3.726-2.561-5.331-4.229
			c-1.43-1.479-3.388-3.156-5.184-5.015c-0.033-0.028-0.054-0.067-0.076-0.094c-0.299-0.435-0.596-0.895-0.89-1.391
			c-0.446-0.806-0.881-1.611-1.314-2.429c0.001-0.012-0.011-0.014-0.011-0.026c-0.297-0.583-0.555-1.199-0.803-1.789
			c-0.217-0.538-0.449-1.681-0.844-2.002c-0.158-0.126-0.331-0.229-0.519-0.308c-0.288-0.557-0.588-1.116-0.888-1.674
			c-0.311-0.572-0.558-1.174-0.766-1.798c-0.009-0.038-0.006-0.062-0.015-0.1c-0.063-1.25-0.238-2.486-0.5-3.694l1.406-0.322
			c-0.044-0.3-0.038-0.497,0.098-0.508c-0.081-1.449-0.048-2.949,0.157-4.592c0.038-0.268,0.087-0.521,0.137-0.788
			c0.053-0.303,0.106-0.606,0.158-0.896c0.052-0.291,0.103-0.569,0.142-0.849c1.562-6.158,4.425-9.889,8.014-12.922
			c0.492-0.433,1.111-0.805,1.595-1.277c0.266-0.233,0.275-0.331,0.272-0.812c-0.055-1.471-0.19-3.369,0.097-4.968
			c0.107-0.63,0.204-1.25,0.324-1.878c1.094-4.7,3.423-7.669,6.35-9.891c0.375-0.235,0.729-0.497,1.083-0.759
			c5.023-3.143,11.449-4.402,19.433-3.469c0.242,0.011,0.604,0.193,0.76,0.072c0.959,0.153,1.893,0.316,2.854,0.457
			c0.012,0.001,0.022,0.002,0.06,0.006c0.083,0.156,0.49,0.096,0.688,0.189c0.437,0.004,0.741-0.484,1.102-0.832
			c1.003-0.939,2.083-1.797,3.006-2.534c0.245-0.149,0.479-0.312,0.691-0.488c0.31-0.18,0.608-0.386,0.875-0.619
			c0.28-0.146,0.542-0.318,0.755-0.507c11.797-7.153,26.371-10.482,44.679-8.662c0.195-0.006,0.483,0.157,0.605,0.033
			c0.011,0.001,0.024,0.002,0.048,0.004c0.251,0.049,0.514,0.099,0.768,0.123c0.351,0.033,0.82,0.214,1.108,0.13
			c0.012,0.001,0.036,0.003,0.048,0.004c0.887,0.146,1.773,0.292,2.686,0.429c0.013,0.001,0.021,0.039,0.046,0.042
			c0.229,0.145,0.755,0.121,1.087,0.202c0.252,0.049,0.479,0.095,0.696,0.116c0.036,0.003,0.047,0.017,0.071,0.019
			c0.048,0.14,0.394,0.087,0.57,0.141c12.949,2.726,22.506,8.355,28.934,15.633c0.296,0.349,0.613,0.588,0.805,0.89
			c0.21,0.353,0.191,0.794,0.305,1.273c0.605,2.46,1.678,5.125,1.206,8.159c-0.104,0.582-0.209,1.175-0.302,1.758
			c-0.049,0.513-0.412,1.131-0.376,1.516l-3.276,0.02c-0.618-4.371-2.176-8.079-4.425-11.312c-0.133-0.259-0.328-0.512-0.515-0.727
			c-4.854-6.302-12.453-10.735-23.057-13.04c-0.06-0.141-0.406-0.088-0.582-0.154c-0.277-0.026-0.576-0.092-0.876-0.133
			c-0.013-0.001-0.049-0.004-0.061-0.005c-0.88-0.232-2.209-0.457-3.118-0.495c-0.036-0.003-0.049-0.005-0.072-0.007
			C558.344,55.916,558.031,55.874,557.709,55.806z"/>
	</g>
	<g>
		<path fill="none" stroke="#000000" stroke-width="4" stroke-miterlimit="10" d="M565.232,226.244
			c0.251,0.184,0.491,0.343,0.742,0.514c5.687,3.819,12.187,7.285,20.456,9.17c0.106,0.158,0.489,0.096,0.69,0.165
			c0.743,0.12,1.475,0.239,2.217,0.372c0.206,0.007,0.521,0.148,0.652,0.05c6.171,0.662,11.002-0.466,14.912-2.915
			c0.492-0.31,0.962-0.635,1.422-0.998c3.818-2.888,6.509-7.35,8.438-12.894c1.127,0.44,2.317,0.849,3.68,1.115
			c0.408,0.187,1.248,0.316,1.678,0.283c5.266,0.576,9.037-0.937,12.43-2.929c0.246-0.161,0.466-0.288,0.681-0.501
			c0.127-0.05,0.244-0.137,0.338-0.227c0.246-0.149,0.47-0.312,0.668-0.491c6.431-5.14,11.154-12.66,13.699-23.135
			c0.151-0.072,0.099-0.397,0.163-0.563c0.157-0.121,0.099-0.52,0.181-0.747c0.179-0.98,0.356-1.949,0.536-2.942
			c-0.014-0.235,0.167-0.6,0.047-0.747c0.006-0.184,0.18-0.476,0.044-0.587c0.968-8.1-0.333-14.63-3.554-19.803
			c-0.309-0.46-0.607-0.908-0.98-1.337c-0.818-1.002-1.79-1.908-2.778-2.778c1.005-2.873,1.954-5.813,2.668-9.083
			c0.154-0.084,0.101-0.409,0.166-0.588c0.14-0.061,0.089-0.422,0.155-0.613c0.065-0.302,0.105-0.594,0.172-0.908
			c0.286-1.082,0.539-2.585,0.645-3.696c0.002-0.012,0.004-0.037,0.006-0.061c0.052-0.278,0.092-0.57,0.154-0.848
			c-0.018-0.199,0.158-0.515,0.035-0.625c1.789-14.945-1.702-26.192-7.907-35.556c-0.156-0.273-0.362-0.54-0.569-0.793
			c-0.223-0.354-0.46-0.672-0.745-0.995c-0.144-0.285-0.338-0.55-0.559-0.78c-9.306-11.704-23.323-20.087-43.1-24.499
			c-0.062-0.129-0.408-0.063-0.584-0.129c-0.177-0.054-0.423-0.041-0.511-0.147c-0.041-1.088-0.125-2.131-0.271-3.143"/>
		<path fill="none" stroke="#000000" stroke-width="4" stroke-miterlimit="10" d="M463.756,110.339
			c-0.24-0.676-0.656-1.8-0.765-2.451c-0.044-0.3-0.038-0.497,0.098-0.508c-0.081-1.449-0.048-2.949,0.157-4.592
			c0.038-0.268,0.087-0.521,0.137-0.788c0.053-0.303,0.106-0.606,0.158-0.896c0.052-0.291,0.103-0.569,0.142-0.849
			c1.562-6.158,4.425-9.889,8.014-12.922c0.492-0.433,1.111-0.805,1.595-1.277c0.266-0.233,0.275-0.331,0.272-0.812
			c-0.055-1.471-0.19-3.369,0.097-4.968c0.107-0.63,0.204-1.25,0.324-1.878c1.094-4.7,3.423-7.669,6.35-9.891
			c0.375-0.235,0.729-0.497,1.083-0.759c5.023-3.143,11.449-4.402,19.433-3.469c0.242,0.011,0.604,0.193,0.76,0.072
			c0.959,0.153,1.893,0.316,2.854,0.457c0.012,0.001,0.022,0.002,0.06,0.006c0.083,0.156,0.49,0.096,0.688,0.189
			c0.437,0.004,0.741-0.484,1.102-0.832c1.003-0.939,2.083-1.797,3.006-2.534c0.245-0.149,0.479-0.312,0.691-0.488
			c0.31-0.18,0.608-0.386,0.875-0.619c0.28-0.146,0.542-0.318,0.755-0.507c11.797-7.153,26.371-10.482,44.679-8.662
			c0.195-0.006,0.483,0.157,0.605,0.033c0.011,0.001,0.024,0.002,0.048,0.004c0.251,0.049,0.514,0.099,0.768,0.123
			c0.351,0.033,0.82,0.214,1.108,0.13c0.012,0.001,0.036,0.003,0.048,0.004c0.887,0.146,1.773,0.292,2.686,0.429
			c0.013,0.001,0.021,0.039,0.046,0.042c0.229,0.145,0.755,0.121,1.087,0.202c0.252,0.049,0.479,0.095,0.696,0.116
			c0.036,0.003,0.047,0.017,0.071,0.019c0.048,0.14,0.394,0.087,0.57,0.141c12.949,2.726,22.506,8.355,28.934,15.633
			c0.296,0.349,0.613,0.588,0.805,0.89c0.21,0.353,0.191,0.794,0.305,1.273c0.605,2.46,1.678,5.125,1.206,8.159
			c-0.104,0.582-0.209,1.175-0.302,1.758c-0.049,0.513-0.412,1.131-0.376,1.516c0.008,0.05,0.004,0.086,0.024,0.125
			c20.156,4.78,35.119,13.205,44.815,25.278c0.112,0.22,0.253,0.406,0.418,0.594c0.481,0.699,0.976,1.387,1.496,2.052
			c0.104,0.195,0.232,0.379,0.376,0.529c6.551,9.95,9.878,22.167,7.977,38.026c-0.03,0.182-0.072,0.375-0.104,0.569
			c-0.01,0.233-0.188,0.573-0.069,0.732c-0.043,0.316-0.11,0.642-0.178,0.968c-0.223,1.31-0.444,2.619-0.68,3.939
			c-0.058,0.34-0.112,0.667-0.17,1.006c-0.169,0.12-0.121,0.506-0.202,0.732c-0.033,0.207-0.064,0.413-0.109,0.618
			c-0.441,1.954-0.914,3.843-1.467,5.687c0.682,0.767,1.44,1.493,2.104,2.32c0.253,0.418,0.542,0.828,0.873,1.192
			c3.736,5.752,5.165,13.12,4.166,22.189c-0.054,0.18-0.085,0.374-0.102,0.557c-0.012,0.245-0.191,0.598-0.072,0.757
			c-0.181,0.993-0.348,1.987-0.525,2.956c-0.003,0.024-0.004,0.037-0.007,0.073c-0.157,0.108-0.12,0.494-0.189,0.708
			c-0.032,0.194-0.061,0.376-0.116,0.58c-2.814,11.374-7.96,19.506-14.94,25.172c-0.152,0.06-0.27,0.147-0.403,0.27
			c-0.573,0.389-1.157,0.777-1.685,1.194c-0.178,0.082-0.296,0.169-0.417,0.293c-4.139,2.402-8.727,4.182-15.133,3.436
			c-0.767-0.123-1.522-0.244-2.266-0.364c-0.061-0.005-0.132-0.025-0.18-0.029c-0.025-0.002-0.072-0.007-0.109-0.01
			c-1.521,4.585-4.031,7.808-7.095,10.312c-0.13,0.086-0.271,0.159-0.403,0.27c-0.465,0.288-0.923,0.614-1.345,0.956
			c-0.176,0.057-0.296,0.169-0.429,0.28c-5.44,3.177-12.158,4.556-20.634,3.551c-0.232,0.015-0.568-0.166-0.713-0.056
			c-0.024-0.002-0.036-0.004-0.048-0.005c-1.008-0.158-2.027-0.316-3.022-0.485c-0.118-0.159-0.537-0.113-0.763-0.184
			c-6.658-1.534-13.706-7.799-18.066-12.379c-2.489-2.615-4.106-4.679-4.281-5.016"/>
		<path fill="none" stroke="#000000" stroke-width="4" stroke-miterlimit="10" d="M463.755,110.352
			c-0.016,0.159,0.02,0.31,0.102,0.465C464.015,111.078,463.941,110.825,463.755,110.352z"/>
		
			<line fill="none" stroke="#000000" stroke-width="4" stroke-miterlimit="10" x1="463.755" y1="110.352" x2="463.756" y2="110.339"/>
		<path fill="none" stroke="#000000" stroke-width="4" stroke-miterlimit="10" d="M464.77,108.896c0,0-0.934,0.724-1.014,1.443"/>
	</g>
</g>
<g id="XMLID_34_">
	<g>
		<path d="M702.253,165.463c-10.452,1.75-17.738-3.175-27.638-2.592c7.477-5.568,18.577-1.321,27.176-2.545
			C701.262,161.693,701.465,163.421,702.253,165.463z"/>
		<path d="M703.831,139.887c-4.954,7.407-19.753,1.337-28.32,2.897C681.862,140.258,697.51,135.644,703.831,139.887z"/>
		<path d="M690.152,118.106c-5.683,5.266-15.166,2.647-22.561,4.931c5.57-4.88,11.665-6.285,20.561-10.836
			C688.826,114.17,689.49,116.138,690.152,118.106z"/>
		<path d="M675.06,198.312c1.323,8.541-6.461,2.037-9.55,1.886C666.128,197.1,672.164,199.523,675.06,198.312z"/>
		<path d="M691.347,182.298c-0.354,9.719-12.082-0.661-17.636,0.647C672.994,181.129,687.159,181.14,691.347,182.298z"/>
		<path d="M662.748,104.888c-1.025-4.773,5.33-5.705,8.716-8.183c0.288,1.433,0.971,2.017,1.948,1.982
			C674.205,103.001,666.512,102.924,662.748,104.888z"/>
		<path d="M620.127,154.498c-0.101-3.499,5.354-7.025,2.207-9.776c1.36-2.864,3.387,3.106,3.102,5.361
			c-0.314,3.784-3.021,4.543-4.359,7.034c5.999,4.723,9.75,22.74-2.369,23.565c6.055-7.242,6.919-22.769-6.191-23.265
			C613.894,154.952,616.472,154.035,620.127,154.498z"/>
		<path d="M602.945,204.007c-2.156-4.69,9.371-3.893,11.718-7.478C616.231,200.467,605.328,200.467,602.945,204.007z"/>
		<path d="M643.953,150.382c4.688-30.31-11.217-51.661-36.745-61.944l0.955-2.579c27.611,10.591,44.9,32.05,39.733,66.774
			C646.576,151.875,645.275,151.13,643.953,150.382z"/>
		<path d="M614.123,39.697c0.148,4.108-2.695,3.324-3.718,5.521c-3.413,0.111,2.133-5.532-1.28-5.421
			C609.862,38.229,612.294,39.486,614.123,39.697z"/>
		<path d="M590.857,155.005c2.553-3.295,7.774-3.187,12.541-3.63C600.402,154.108,595.182,153.989,590.857,155.005z"/>
		<path d="M597.602,35.801c-3.383-1.293-1.037-6.264-3.104-8.393c1.13-1.458,3.046-1.676,5.256-1.336
			C601.779,29.364,597.492,30.77,597.602,35.801z"/>
		<path d="M589.736,105.968c-0.164,1.204-1.585,0.801-2.553,0.961c0.65,3.759,3.972-0.299,6.026,0.673
			c3.704-1.511-3.968,2.123-5.184,3.187c-1.542-0.997-1.971-2.891-1.909-5.23C587.32,105.691,588.514,105.823,589.736,105.968z"/>
		<path d="M589.349,206.258c0.943,0.348,1.057,1.369,2.279,1.513c-0.081,0.826-0.162,1.652-0.243,2.478
			c-5.021,1.535-11.673,1.002-14.006,5.953c0.262-3.632-1.377-4.545-8.043-4.663C572.232,210.538,584.553,209.491,589.349,206.258z"
			/>
		<path d="M583.316,10.703c-1.701,8.802-2.951,12.239-2.887,18.496c-3.067-4.493-3.374-15.513-1.848-19.611
			C580.166,9.963,581.741,10.338,583.316,10.703z"/>
		<path d="M565.108,120.782c0.652-3.023,13.54,7.86,8.38,13.466C568.668,131.457,570.631,122.992,565.108,120.782z"/>
		<path d="M577.992,89.606c-5.254-3.581-8.855-8.52-13.318-12.767c-2.536-0.631-12.941-0.48-9.499-2.318
			C566.692,71.932,576.911,79.765,577.992,89.606z"/>
		<path d="M560.79,0.282c2.421,8.496-0.396,20.362-0.59,30.543c-5.122-7.101-1.528-19.811-4.95-28.004
			C556.122,0.391,559.898,2.709,560.79,0.282z"/>
		<path d="M540.719,169.477c1.623,15.319,14.115,21.571,31.701,23.607C557.107,201.864,536.201,184.29,540.719,169.477z"/>
		<path d="M535.045,81.053c0.797-4.125,7.725-0.409,8.92-4.018C546.6,80.02,538.362,81.006,535.045,81.053z"/>
		<path d="M527.555,119.094c2.58,3.385-5.958,4.48-9.047,5.267C519.81,120.429,526.449,123.305,527.555,119.094z"/>
		<path d="M541.67,30.306c-4.544-4.703-6.166-20.272-8.205-30.056C545.463,0.476,537.539,21.62,541.67,30.306z"/>
		<path d="M557.502,220.257c0.436-3.772-4.039-3.458-2.869-7.84c12.016,16.47,53.427,40.195,62.707,5.738
			c26.983,10.543,42.793-42.042,23.958-56.278c1.204-3.962,2.077-7.798,2.655-11.495c1.322,0.748,2.623,1.493,3.943,2.251
			c-0.418,2.764-0.965,5.609-1.679,8.543c18.485,16.548,3.479,68.186-25.756,62.352c-7.719,26.57-48.991,16.766-60.807-0.519
			c-11.299,4.714-25.63-2.239-30.661-9.686c-7.289,0.575-13.909,1.68-19.162,1.579c0.064-0.744,0.128-1.478,0.181-2.213
			l-0.011-0.001c0.094-0.846,0.167-1.693,0.221-2.553c9.014,1.772,14.626-0.791,22.741-0.133
			C534.006,215.976,548.56,224.43,557.502,220.257z"/>
		<path d="M499.996,174.976c7.773-4.114,11.661-13.13,18.854-17.964c-1.114,3.71-3.202,6.173-4.604,9.512
			c4.94,1.167,7.545-0.634,8.91-4.019c1.395,0.358,0.801,2.366,0.834,3.849c4.893-0.286,7.996-2.874,12.539-3.62
			C525.7,168.522,512.735,171.603,499.996,174.976z"/>
		<path d="M537.888,185.456c-9.085,3.023-23.275,6.563-32.163,5.198C513.836,182.498,525.367,187.213,537.888,185.456z"/>
		<path d="M510.604,19.155c1.015-2.229,4.809,0.123,4.633-4.019c6.068,5.438,4.427,15.871,7.199,23.431
			C518.298,36.371,514.904,24.711,510.604,19.155z"/>
		<path d="M491.745,160.25c5.384-3.876,7.265-12.204,13.671-14.777c0.506,3.922-3.547,2.015-3.04,5.927
			c3.448-1.222,6.259-3.212,10.133-3.885C508.744,150.199,498.225,156.361,491.745,160.25z"/>
		<path d="M608.163,85.859l-0.955,2.579c-5.473-2.205-11.38-3.898-17.626-5.061c-3.122-38.389-67.58-33.943-83.879-13.127
			c-3.082-1.39-6.121-2.005-8.963-1.997l-0.965-2.673c2.887-0.056,5.946,0.207,9.097,0.812c17.897-20.032,66.56-21.544,86.192,2.09
			c0.939,3.785,2.778,6.8,1.178,12.684C597.83,82.381,603.166,83.948,608.163,85.859z"/>
		<path d="M504.648,45.889c-3.853-2.711-7.642-5.469-7.54-10.731c0.954,0.463,1.212-0.2,1.444-0.929
			C503.213,36.431,503.953,41.136,504.648,45.889z"/>
		<path d="M489.863,118.654c-5.529-1.45-7.935,1.088-12.287,1.143C478.639,116.78,490.789,115.125,489.863,118.654z"/>
		<path d="M508.501,127.007c-1.526,4.786-11.198-1.59-11.662-5.071c-7.067,7.117-12.442,16.37-16.101,27.845
			c-0.796-0.428-1.67-0.78-2.56-1.05c-0.626-0.204-1.273-0.368-1.905-0.499c1.234-3.605,4.108-8.308,6.444-12.697
			c3.098-5.787,5.305-11.01,1.825-12.458c3.014-1.304,7.02-1.308,10.017-2.656c-1.162-6.796-4.415-15.307,0.912-21.21
			C494.603,112.811,498.696,122.285,508.501,127.007z"/>
		<path d="M477.92,92.242c-16.829,11.807-6.208,30.606,3.094,41.74c-0.105-0.052-0.182-0.1-0.277-0.151l-0.02-0.012
			c-15.255-8.112-22.711-32.536-6.017-45.699c-1.927-14.597,7.654-22.221,21.075-22.54l0.965,2.673
			C481.236,68.275,470.906,86.591,484.643,98C481.5,96.834,480.434,93.943,477.92,92.242z"/>
		<path fill="#FFFFFF" d="M471.406,227.198c-0.313,0.377-0.679,0.656-1.11,0.887c-1.82,0.737-3.45,0.774-4.936,0.417
			c1.934,0.044,3.966-0.581,5.661-1.497C471.156,227.071,471.281,227.135,471.406,227.198z"/>
		<path fill="#FFFFFF" d="M518.508,124.36c3.089-0.787,11.627-1.881,9.047-5.267C526.449,123.305,519.81,120.429,518.508,124.36z
			 M535.045,81.053c3.317-0.047,11.555-1.034,8.92-4.018C542.77,80.644,535.842,76.929,535.045,81.053z M505.725,190.654
			c8.888,1.365,23.078-2.175,32.163-5.198C525.367,187.213,513.836,182.498,505.725,190.654z M477.576,119.797
			c4.353-0.055,6.758-2.593,12.287-1.143C490.789,115.125,478.639,116.78,477.576,119.797z M540.719,169.477
			c-4.518,14.813,16.389,32.388,31.701,23.607C554.834,191.048,542.342,184.796,540.719,169.477z M569.336,211.54
			c6.666,0.118,8.305,1.03,8.043,4.663c2.333-4.951,8.984-4.418,14.006-5.953c0.081-0.826,0.162-1.652,0.243-2.478
			c-1.223-0.145-1.336-1.166-2.279-1.513C584.553,209.491,572.232,210.538,569.336,211.54z M586.117,105.559
			c-0.062,2.339,0.367,4.233,1.909,5.23c1.216-1.064,8.888-4.698,5.184-3.187c-2.055-0.972-5.376,3.086-6.026-0.673
			c0.968-0.161,2.389,0.242,2.553-0.961C588.514,105.823,587.32,105.691,586.117,105.559z M564.674,76.839
			c4.463,4.248,8.064,9.186,13.318,12.767c-1.081-9.841-11.3-17.674-22.817-15.085C551.732,76.359,562.138,76.208,564.674,76.839z
			 M565.108,120.782c5.522,2.21,3.56,10.675,8.38,13.466C578.648,128.642,565.761,117.758,565.108,120.782z M502.376,151.401
			c-0.507-3.912,3.546-2.005,3.04-5.927c-6.406,2.573-8.287,10.9-13.671,14.777c6.479-3.89,16.999-10.051,20.764-12.734
			C508.635,148.189,505.824,150.179,502.376,151.401z M499.996,174.976c12.739-3.373,25.704-6.453,36.533-12.242
			c-4.543,0.746-7.646,3.334-12.539,3.62c-0.033-1.482,0.561-3.49-0.834-3.849c-1.365,3.384-3.97,5.185-8.91,4.019
			c1.402-3.339,3.49-5.802,4.604-9.512C511.657,161.846,507.77,170.862,499.996,174.976z M590.857,155.005
			c4.324-1.016,9.545-0.897,12.541-3.63C598.632,151.819,593.41,151.71,590.857,155.005z M607.208,88.438
			c25.528,10.283,41.433,31.635,36.745,61.944c-0.578,3.697-1.451,7.533-2.655,11.495c18.835,14.236,3.025,66.821-23.958,56.278
			c-9.28,34.458-50.691,10.732-62.707-5.738c-1.17,4.382,3.305,4.067,2.869,7.84c-8.942,4.172-23.496-4.282-24.538-10.254
			c-8.115-0.658-13.728,1.905-22.741,0.133c0.144-2.133,0.195-4.253,0.018-6.395c-0.273-3.474-1.746-7.351-4.659-9.433
			c-2.154-1.564-4.623-2.397-6.933-3.674c-0.044-1.015-0.257-2.034-0.664-3.03c-1.135-2.908-2.011-5.906-2.855-8.922
			c-0.2-1.873-0.39-3.755-0.743-5.601c-0.477-2.628-1.136-5.356-2.396-7.734c-1.138-2.179-1.867-4.548-2.942-6.763
			c-1.832-3.795-4.23-6.486-7.856-8.562c-0.144-0.086-0.308-0.174-0.452-0.24c3.658-11.475,9.033-20.729,16.101-27.845
			c0.464,3.481,10.136,9.857,11.662,5.071c-9.805-4.722-13.898-14.196-13.029-27.794c-5.327,5.903-2.074,14.414-0.912,21.21
			c-2.997,1.348-7.003,1.352-10.017,2.656c3.479,1.448,1.272,6.671-1.825,12.458l-1.981-1.705c0.096,0.051,0.172,0.099,0.277,0.151
			c-9.302-11.134-19.923-29.934-3.094-41.74c2.514,1.702,3.58,4.593,6.723,5.759c-13.736-11.41-3.406-29.726,12.098-29.748
			c2.842-0.008,5.881,0.607,8.963,1.997c16.299-20.815,80.757-25.261,83.879,13.127C595.828,84.54,601.735,86.233,607.208,88.438z
			 M612.516,157.418c13.11,0.496,12.246,16.022,6.191,23.265c12.119-0.826,8.368-18.842,2.369-23.565
			c1.339-2.491,4.045-3.25,4.359-7.034c0.285-2.255-1.741-8.225-3.102-5.361c3.146,2.75-2.308,6.277-2.207,9.776
			C616.472,154.035,613.894,154.952,612.516,157.418z M602.945,204.007c2.383-3.54,13.286-3.54,11.718-7.478
			C612.316,200.114,600.789,199.317,602.945,204.007z"/>
		<path d="M443.841,248.971c2.895-1.086,13.347-5.525,14.576,0.371C452.463,247.832,448.98,249.447,443.841,248.971z"/>
		<path d="M453.229,228.775c0.46-0.322,0.938-0.632,1.415-0.921c-0.479,0.435-0.987,0.856-1.485,1.279
			C453.178,229.02,453.199,228.887,453.229,228.775z"/>
		<path d="M452.441,229.296c0.104-0.521,0.16-1.048,0.188-1.598c0.219-0.209,0.446-0.406,0.645-0.607
			c0.05,0.588,0.031,1.149-0.045,1.684c-0.256,0.174-0.521,0.348-0.778,0.532L452.441,229.296z"/>
		<path d="M453.158,229.133c-0.263,0.247-0.552,0.459-0.802,0.687c0.034-0.174,0.068-0.337,0.094-0.512
			c0.257-0.185,0.522-0.358,0.778-0.532C453.199,228.887,453.178,229.02,453.158,229.133z"/>
		<path d="M451.557,232.225c0.373-0.83,0.611-1.621,0.8-2.405c0.25-0.227,0.539-0.44,0.802-0.687
			c-0.27,1.267-0.876,2.357-1.705,3.353C451.491,232.406,451.528,232.316,451.557,232.225z"/>
		<path d="M449.35,254.606c-3.352,0.45-4.631,1.196-10.947,0.028C444,251.673,459.203,253.259,449.35,254.606z"/>
		<path d="M457.883,230.467c-2.901,3.263-6.135,6.651-9.589,9.925l-1.662-1.81c0.552-0.584,1.064-1.162,1.536-1.744
			c1.304-1.265,2.482-2.604,3.274-4.333c0.011-0.009,0.011-0.009,0.011-0.02c0.829-0.996,1.436-2.086,1.705-3.353
			c0.498-0.422,1.006-0.844,1.485-1.279c-0.478,0.289-0.955,0.599-1.415,0.921c0.076-0.535,0.095-1.096,0.045-1.684
			c-0.198,0.201-0.426,0.398-0.645,0.607c0.009-0.218,0.028-0.445,0.037-0.673c0.126-0.176,0.23-0.333,0.335-0.5
			c0.786-0.719,1.599-1.425,2.435-2.056c0.305-0.024,0.589-0.061,0.9-0.073c0.03,0.003,0.05,0.015,0.09,0.019
			c0.204,0.196,0.407,0.402,0.621,0.6c1.892,1.811,4.166,2.574,6.608,3.238c0.548,0.155,1.125,0.229,1.705,0.251
			c1.485,0.356,3.115,0.32,4.936-0.417c0.432-0.231,0.797-0.51,1.11-0.887l0.001-0.01c0.104,0.062,0.212,0.093,0.318,0.144
			c0.456,0.188,0.932,0.378,1.45,0.53c0.663,2.802,1.603,5.535,2.699,8.189l-0.314,0.158c-2.616,0.643-11.016,6.439-12.16-0.105
			c3.854,0.263,9.084,2.248,8.794-2.78C470.402,233.846,462.682,233.266,457.883,230.467z"/>
		<path d="M445.93,239.163c0.307-0.294,0.585-0.612,0.865-0.951c0.112-0.146,0.215-0.282,0.324-0.397
			c0.371-0.331,0.71-0.653,1.049-0.976c-0.472,0.582-0.984,1.159-1.536,1.744c-0.188,0.201-0.396,0.39-0.604,0.6
			C446.01,239.17,445.969,239.177,445.93,239.163z"/>
		<path d="M442.572,241.196c0.372-0.476,0.863-0.931,1.384-1.383c0.032-0.018,0.053-0.026,0.075-0.055
			c0.032-0.028,0.065-0.057,0.107-0.084c0.609-0.433,1.2-0.878,1.73-1.319c0.044-0.048,0.097-0.075,0.13-0.113
			c0.01,0.001,0.011-0.009,0.031-0.018c1.038-0.873,1.898-1.762,2.441-2.702c-0.105,0.063-0.22,0.105-0.325,0.168
			c0.201-0.242,0.422-0.471,0.632-0.702l0.012-0.02c1-0.762,1.913-1.573,2.652-2.463c-0.792,1.729-1.971,3.068-3.274,4.333
			c-0.339,0.323-0.678,0.646-1.049,0.976c-0.109,0.115-0.212,0.251-0.324,0.397c-0.28,0.339-0.559,0.657-0.865,0.951l-0.012,0.009
			C444.956,240.093,443.803,240.778,442.572,241.196z"/>
		<path d="M441.063,241.577c0.192-0.024,0.388-0.068,0.571-0.104c-0.246,0.175-0.472,0.342-0.707,0.518
			c0.031-0.132,0.083-0.273,0.125-0.405C441.053,241.586,441.053,241.586,441.063,241.577z"/>
		<path d="M440.928,241.991c-0.012-0.095-0.014-0.199-0.025-0.304c0.033-0.028,0.066-0.057,0.119-0.093l0.001-0.01
			c0.021,0.002,0.03,0.002,0.03,0.002C441.011,241.718,440.959,241.859,440.928,241.991z"/>
		<path d="M441.021,241.594c-0.053,0.037-0.086,0.065-0.119,0.093c0.003-0.021,0.006-0.052,0.008-0.083
			C440.94,241.607,440.981,241.601,441.021,241.594z"/>
		<path d="M439.791,242.834c0.115-0.406,0.277-0.787,0.48-1.153l0.001-0.011c0.211-0.001,0.435-0.033,0.638-0.066
			c-0.002,0.031-0.005,0.062-0.008,0.083C440.479,242.064,440.114,242.458,439.791,242.834z"/>
		<path d="M438.624,241.694c0.01,0.001,0.01,0.001,0.01,0.001c0.289,0.027,0.578,0.043,0.861,0.028
			c-0.881,0.554-1.752,1.108-2.612,1.654C437.483,242.818,438.053,242.256,438.624,241.694z"/>
		<path d="M436.581,243.849c-0.202,0.127-0.404,0.265-0.607,0.402c0.108-0.104,0.219-0.199,0.329-0.313v-0.01c0,0,0,0,0.011,0.001
			C436.396,243.905,436.498,243.883,436.581,243.849z"/>
		<path d="M435.852,244.042c0.33-0.219,0.66-0.439,1.02-0.645c-0.188,0.181-0.373,0.361-0.558,0.532
			c-0.011-0.001-0.011-0.001-0.011-0.001v0.01C436.148,243.965,435.995,244.003,435.852,244.042z"/>
		<path d="M436.871,243.397c-0.359,0.206-0.689,0.426-1.02,0.645l-0.011,0.009c-0.001,0.011-0.001,0.011-0.011,0.01
			c-0.051,0.005-0.083,0.023-0.144,0.028c0.432-0.46,0.844-0.933,1.284-1.381c0.311-0.346,0.632-0.702,0.906-1.083l0.001-0.01
			c0.247,0.044,0.496,0.067,0.746,0.08c-0.571,0.562-1.141,1.124-1.741,1.683C436.883,243.377,436.872,243.387,436.871,243.397z"/>
		<path d="M435.687,244.089c0.061-0.005,0.093-0.023,0.144-0.028c-0.106,0.063-0.192,0.128-0.279,0.193
			c0.047-0.058,0.091-0.106,0.135-0.154L435.687,244.089z"/>
		<path d="M435.974,244.251c0,0-0.011,0.009-0.031,0.018c-0.001,0.01-0.011,0.009-0.021,0.019c-0.512,0.349-1.027,0.738-1.505,1.152
			c0.375-0.392,0.75-0.785,1.125-1.177l0.01-0.009c0.087-0.065,0.173-0.13,0.279-0.193c0.01,0.001,0.01,0.001,0.011-0.01
			l0.011-0.009c0.144-0.039,0.297-0.077,0.451-0.104C436.192,244.053,436.082,244.147,435.974,244.251z"/>
		<path d="M447.64,259.428c-4.74,1.415-10.077,2.066-16.014,1.985C435.183,258.461,441.118,258.563,447.64,259.428z"/>
		<path d="M430.557,248.406c0.2-0.106,0.379-0.215,0.592-0.341c0.158-0.09,0.308-0.19,0.467-0.301
			c-0.355,0.29-0.721,0.559-1.103,0.804C430.526,248.528,430.531,248.466,430.557,248.406z"/>
		<path fill="#FFFFFF" d="M430.502,248.578c-0.066,0.057-0.139,0.091-0.213,0.137c-0.021,0.008-0.061,0.005-0.1-0.009
			c0.024-0.05,0.049-0.1,0.084-0.159c0.104-0.042,0.188-0.087,0.283-0.141c-0.025,0.06-0.03,0.122-0.044,0.163L430.502,248.578z"/>
		<path fill="#FFFFFF" d="M430.289,248.715c0.074-0.045,0.146-0.08,0.213-0.137c-0.016,0.051-0.01,0.104-0.033,0.153
			C430.418,248.737,430.357,248.731,430.289,248.715z"/>
		<path d="M434.368,270.492c0.805,4.304-3.935,1.511-6.27,1.805c0.082-0.826,0.163-1.652,0.244-2.478
			C430.36,270.047,432.36,270.264,434.368,270.492z"/>
		<path d="M430.289,248.715c-0.044,0.038-0.087,0.075-0.16,0.11l-0.01-0.001c0.023-0.04,0.046-0.069,0.07-0.119
			C430.229,248.72,430.268,248.723,430.289,248.715z"/>
		<path d="M430.129,248.825c0.073-0.035,0.116-0.073,0.16-0.11c0.068,0.017,0.129,0.022,0.18,0.017
			c0.023-0.05,0.018-0.103,0.033-0.153l0.011-0.009c0.382-0.246,0.747-0.514,1.103-0.804c0.999-0.637,1.913-1.458,2.78-2.315
			c0.011-0.01,0.011-0.01,0.021-0.009c0.478-0.414,0.993-0.804,1.505-1.152c-1.956,1.85-3.996,3.62-6.132,5.224
			c0.1-0.23,0.209-0.449,0.33-0.688L430.129,248.825z"/>
		<path d="M429.528,248.916c0.241-0.113,0.513-0.234,0.745-0.369c-0.035,0.059-0.06,0.109-0.084,0.159s-0.047,0.079-0.07,0.119
			c-0.309,0.201-0.625,0.379-0.959,0.526c0.122-0.135,0.245-0.28,0.357-0.425L429.528,248.916z"/>
		<path d="M429.139,249.369c-0.21,0.105-0.429,0.2-0.656,0.273c0.014-0.041,0.037-0.08,0.061-0.12
			c0.109-0.115,0.23-0.229,0.359-0.331c0.011,0,0.021,0.001,0.021,0.001c0.198-0.085,0.396-0.171,0.595-0.268
			c-0.112,0.146-0.235,0.291-0.357,0.425c-0.012,0.009-0.012,0.009-0.012,0.009C429.148,249.37,429.139,249.369,429.139,249.369z"/>
		<path d="M428.902,249.191c-0.129,0.103-0.25,0.216-0.359,0.331c0.036-0.069,0.073-0.149,0.121-0.239
			C428.746,249.26,428.81,249.224,428.902,249.191z"/>
		<path d="M428.664,249.283c-0.048,0.089-0.085,0.169-0.121,0.239c-0.043,0.027-0.076,0.056-0.107,0.084
			c0.069-0.108,0.117-0.208,0.206-0.293c0.001-0.011,0.001-0.021,0.001-0.021L428.664,249.283z"/>
		<path d="M428.436,249.606c-0.012,0.02-0.035,0.039-0.046,0.058C428.4,249.645,428.414,249.625,428.436,249.606z"/>
		<path d="M436.06,265.658c-0.841,3.579-7.157,0.212-8.793,2.779C424.879,266.195,432.001,264.292,436.06,265.658z"/>
		<path d="M428.472,249.651c-0.032,0.018-0.073,0.035-0.124,0.041c0.001-0.01,0.013-0.03,0.042-0.027
			c0.011-0.02,0.034-0.039,0.046-0.058c0.031-0.028,0.064-0.057,0.107-0.084c-0.023,0.04-0.047,0.079-0.061,0.12L428.472,249.651z"
			/>
		<path d="M428.336,249.701c0,0.01-0.011,0.02-0.021,0.029C428.315,249.72,428.326,249.71,428.336,249.701z"/>
		<path d="M429.139,249.369c-0.367,0.414-0.792,0.802-1.217,1.189c0.191-0.243,0.335-0.51,0.55-0.907l0.011-0.009
			C428.71,249.569,428.929,249.474,429.139,249.369z"/>
		<path d="M427.535,249.918c0.255-0.164,0.518-0.317,0.775-0.491c0.112-0.031,0.217-0.073,0.331-0.115
			c-0.089,0.085-0.137,0.185-0.206,0.293c-0.021,0.019-0.035,0.039-0.046,0.058c-0.029-0.003-0.041,0.017-0.042,0.027l-0.012,0.009
			C428.078,249.792,427.811,249.871,427.535,249.918z"/>
		<path fill="#FFFFFF" d="M423.801,290.63c20.418-13.516,35.906-33.303,54.679-48.91c-0.001,0.01,0.019,0.022,0.018,0.033
			c0.052,0.098,0.085,0.174,0.138,0.252c-2.732,1.768-4.957,4.301-7.246,6.631c-2.289,2.101-4.653,4.143-6.908,6.309
			c-2.148,2.093-4.242,4.264-6.308,6.448c-3.853,4.05-7.684,8.081-11.674,11.983c-5.168,4.876-10.567,9.522-16.479,13.475
			c-0.801,0.541-1.469,1.197-2.023,1.927c-0.748,0.285-1.453,0.667-2.127,1.137c-0.651,0.231-1.28,0.538-1.875,0.92
			C423.939,290.768,423.875,290.699,423.801,290.63z"/>
		<path d="M427.878,250.596c-0.178,0.202-0.384,0.381-0.687,0.634C427.421,251.012,427.639,250.813,427.878,250.596z"/>
		<path d="M428.472,249.651c-0.215,0.397-0.358,0.665-0.55,0.907c-0.011,0.01-0.022,0.019-0.033,0.028l-0.011,0.01
			c-0.239,0.217-0.457,0.416-0.687,0.634c-0.011-0.001-0.041,0.006-0.043,0.017c0.438-0.532,0.844-1.047,1.166-1.517
			c0.011-0.009,0.021-0.019,0.021-0.029l0.012-0.009C428.398,249.686,428.439,249.669,428.472,249.651z"/>
		<path d="M427.095,251.305c0.012-0.02,0.033-0.039,0.054-0.058C427.128,251.266,427.116,251.286,427.095,251.305z"/>
		<path d="M427.095,251.305c-0.001,0.01-0.011,0.009-0.022,0.019c0.012-0.01,0.012-0.01,0.012-0.02
			C427.084,251.304,427.084,251.304,427.095,251.305z"/>
		<path d="M430.747,246.663c-0.494,0.371-0.939,0.768-1.345,1.157c0.374-0.153,0.75-0.316,1.117-0.511
			c-0.117,0.322-0.283,0.62-0.479,0.904l-0.011,0.009c0,0,0.019,0.012-0.012,0.02c-0.367,0.299-0.756,0.618-1.096,0.951
			c0,0-0.01-0.001-0.021-0.001c-0.093,0.033-0.156,0.069-0.238,0.092c0.011-0.009,0.013-0.03,0.024-0.05
			c-0.012,0.02-0.024,0.05-0.046,0.058c0,0,0,0.01-0.001,0.021c-0.114,0.042-0.219,0.084-0.331,0.115
			c-0.258,0.174-0.521,0.327-0.775,0.491c-0.174,0.036-0.317,0.064-0.479,0.081c-0.027-0.023-0.045-0.057-0.054-0.078l0.002-0.01
			c0.426-0.752,0.857-1.452,1.368-2.134c0.011-0.01,0.011-0.01,0.011-0.01c0.294-0.264,0.598-0.528,0.902-0.802
			c0.01,0.001,0.011-0.009,0.021-0.019c0.002-0.021,0.012-0.02,0.042-0.017c0.021-0.019,0.033-0.039,0.044-0.048c0,0,0,0,0.001-0.01
			c0.03,0.003,0.03-0.007,0.03-0.007c0.473-0.352,0.964-0.692,1.454-1.022C430.854,246.121,430.81,246.398,430.747,246.663z"/>
		<path d="M427.922,250.558c0.425-0.388,0.85-0.775,1.217-1.189c0,0,0.01,0.001,0.01-0.009c0,0,0,0,0.012-0.009
			c0.334-0.146,0.65-0.325,0.959-0.526c-0.121,0.239-0.23,0.458-0.33,0.688l-0.001,0.011c-0.934,0.695-1.874,1.357-2.851,1.976
			c0.045-0.059,0.078-0.107,0.135-0.175c0.012-0.01,0.021-0.009,0.022-0.019c0.021-0.019,0.033-0.039,0.054-0.058
			c0.002-0.01,0.032-0.018,0.043-0.017c0.303-0.253,0.509-0.432,0.687-0.634l0.011-0.01
			C427.899,250.577,427.911,250.568,427.922,250.558z"/>
		<path d="M426.726,251.625c0.108-0.104,0.237-0.197,0.347-0.301c-0.057,0.067-0.09,0.116-0.135,0.175
			c-0.03-0.003-0.031,0.007-0.031,0.007C426.862,251.554,426.798,251.6,426.726,251.625z"/>
		<path d="M426.726,251.625c-0.159,0.1-0.309,0.201-0.468,0.301c0.332-0.24,0.59-0.435,0.814-0.602
			C426.963,251.428,426.834,251.52,426.726,251.625z"/>
		<path d="M426.479,252.05c-0.069-0.017-0.13-0.012-0.18-0.027c0.133-0.134,0.285-0.266,0.427-0.398
			c0.072-0.024,0.137-0.07,0.181-0.119C426.781,251.682,426.635,251.866,426.479,252.05z"/>
		<path fill="#FFFFFF" d="M426.121,252.465c0.123-0.145,0.234-0.27,0.357-0.415c0.06,0.005,0.119,0.011,0.168,0.026
			C426.465,252.205,426.303,252.325,426.121,252.465z"/>
		<path d="M426.299,252.023c-0.088-0.019-0.187-0.039-0.257-0.045c0.723-0.808,1.499-1.549,2.272-2.248
			c-0.322,0.47-0.729,0.985-1.166,1.517c-0.021,0.019-0.042,0.038-0.054,0.058c-0.011-0.001-0.011-0.001-0.011-0.001
			c0,0.01,0,0.01-0.012,0.02c-0.225,0.167-0.482,0.361-0.814,0.602c0.159-0.1,0.309-0.201,0.468-0.301
			C426.584,251.757,426.432,251.889,426.299,252.023z"/>
		<path d="M426.042,251.978c-0.05-0.004-0.1-0.009-0.148-0.024c0.194-0.389,0.398-0.776,0.591-1.154
			c0.012-0.009,0.012-0.009,0.022-0.019c0.065-0.056,0.13-0.113,0.187-0.181c0.131-0.123,0.242-0.248,0.354-0.384
			c0.167-0.088,0.327-0.188,0.487-0.298c0.275-0.048,0.543-0.127,0.801-0.218c-0.01,0.01-0.021,0.019-0.021,0.029
			C427.541,250.429,426.765,251.17,426.042,251.978z"/>
		<path fill="#FFFFFF" d="M426.042,251.978c-0.129,0.103-0.23,0.239-0.341,0.354c0.062-0.14,0.132-0.259,0.192-0.378
			C425.942,251.969,425.992,251.974,426.042,251.978z"/>
		<path fill="#FFFFFF" d="M426.11,252.474c-0.001,0.01-0.011,0.009-0.022,0.029c-0.343,0.25-0.695,0.498-1.039,0.758
			c0.389-0.433,0.814-0.831,1.25-1.238c0.05,0.015,0.11,0.01,0.18,0.027c-0.123,0.145-0.234,0.27-0.357,0.415L426.11,252.474z"/>
		<path d="M426.484,250.8c-0.192,0.378-0.396,0.765-0.591,1.154c-0.168-0.026-0.337-0.052-0.503-0.099
			C425.729,251.543,426.11,251.193,426.484,250.8z"/>
		<path d="M425.049,253.261c0.344-0.26,0.696-0.508,1.039-0.758c-0.995,1.179-2.063,2.393-2.983,3.516
			c0.125-0.749,0.84-2.172,1.698-3.645c0.186-0.16,0.391-0.329,0.588-0.519c0.166,0.046,0.335,0.072,0.503,0.099
			c-0.061,0.119-0.131,0.238-0.192,0.378c0.11-0.115,0.212-0.251,0.341-0.354c0.07,0.006,0.169,0.026,0.257,0.045
			C425.863,252.43,425.438,252.829,425.049,253.261z"/>
		<path d="M442.572,241.196c1.23-0.417,2.384-1.103,3.346-2.024l0.012-0.009c0.039,0.014,0.08,0.007,0.099,0.02
			c0.208-0.21,0.416-0.399,0.604-0.6l1.662,1.81c-9.054,8.6-19.549,16.462-28.689,19.668c2.56-2.795,4.839-5.949,8.077-7.878
			c-0.35-0.022-0.697-0.064-1.035-0.106c-0.049-0.015-0.108-0.021-0.168-0.026c0.156-0.184,0.303-0.368,0.428-0.544
			c0,0,0.001-0.01,0.031-0.007c0.977-0.618,1.917-1.281,2.851-1.976l0.001-0.011c2.136-1.604,4.176-3.374,6.132-5.224
			c0.011-0.009,0.021-0.008,0.021-0.019c0.021-0.009,0.031-0.018,0.031-0.018c0.203-0.138,0.405-0.275,0.607-0.402
			c-0.083,0.034-0.186,0.056-0.268,0.08c0.185-0.17,0.37-0.351,0.558-0.532c0.001-0.01,0.012-0.02,0.012-0.02
			c0.86-0.545,1.731-1.1,2.612-1.654l0.021-0.009c0.251,0.002,0.513-0.004,0.756-0.034c-0.203,0.367-0.365,0.747-0.48,1.153
			c0.323-0.376,0.688-0.77,1.111-1.147c0.012,0.105,0.014,0.209,0.025,0.304c0.235-0.176,0.461-0.343,0.707-0.518
			c0.011-0.009,0.012-0.02,0.021-0.019c0.297-0.066,0.604-0.142,0.895-0.261l0.012,0.001L442.572,241.196z"/>
		<path d="M430.125,276.287c-1.303,4.411-8.948,0.734-13.479,1.001C418.26,273.583,427.469,274.249,430.125,276.287z"/>
		<path fill="#FFFFFF" d="M389.7,266.77c5.865,1.377,12.179-3.383,14.45,1.61c-0.091,4.544-6.577,0.943-8.794,2.779
			c2.159,4.898,10.155-1.799,11.897,2.571c-1.647,4.442-8.296,2.482-13.617,2.249C393.492,271.944,389.489,271.094,389.7,266.77z"/>
		<path d="M398.316,225.916c-0.22,0.105-0.412,0.243-0.606,0.392c-0.245,0.165-0.489,0.319-0.724,0.485
			c-1.82,0.384-3.425,1.058-4.856,1.946l-0.018-0.033c-2.293,0.277,0.227-1.813,5.352-5.13c1.274-0.226,2.552-0.389,3.843-0.446
			c0.458,0.053,0.904,0.115,1.377,0.211c0.049,0.025,0.117,0.052,0.175,0.079c-0.063,0.036-0.116,0.062-0.169,0.099
			c-0.205,0.147-0.406,0.285-0.609,0.433C400.758,224.497,399.506,225.162,398.316,225.916z"/>
		<path d="M393.637,275.979c5.321,0.233,11.97,2.193,13.617-2.249c-1.742-4.37-9.738,2.327-11.897-2.571
			c2.217-1.836,8.703,1.765,8.794-2.779c-2.271-4.993-8.585-0.233-14.45-1.61C389.489,271.094,393.492,271.944,393.637,275.979z
			 M378.084,249.16c3.588,8.125,3.479,6.469,11.047,11.275c-1.482,0.436-2.858,1.017-3.872,2.068
			c2.109,3.842,12.724,3.69,15.779,0.504c-1.461-4.605-6.561,0.403-9.373-3.546c2.695,0.646,4.552,0.192,5.048-1.96
			c-3.789,0.514-1.964-3.662-5.753-3.148c-1.476,0.218-5.056,4.501-6.144,0.577c0.227-2.052,3.401-0.331,3.863-2.08
			C385.582,251.271,382.595,249.588,378.084,249.16z M415.088,295.979c-23.9-4.371-27.826-32.374-44.467-45.146
			c4.894-11.601,12.493-19.762,21.505-26.126c1.771-0.409,3.546-0.838,5.338-1.13c-5.125,3.317-7.645,5.407-5.352,5.13l0.018,0.033
			c-5.767,3.549-8.873,10.481-13.53,15.467c19.584,2.138,26.948,23.562,36.326,37.902c-1.376,1.174-8.844,1.608-9.616-1.068
			c2.957,0.514,5.816,0.893,6.259-1.806c-3.836-3.846-8.727,0.264-14.438-1.619c-1.455,5.824,4.825,4.125,6.712,5.769
			c-0.095,0.168,4.207,9.672,11.291,8.787c1.943-4.144,12.749-6.872,7.265-11.735c4.495,0.615,3.302,1.775,7.23,0.806
			c3.12-4.878,7.155-8.599,12.076-11.185c0.607-2.392-1.359-2.637-2.017-3.989c15.706-5.171,23.722-20.149,35.872-29.858
			l0.314-0.158c0.306,0.768,0.634,1.507,0.981,2.248c0.513,1.152,1.067,2.297,1.623,3.421
			c-18.772,15.607-34.261,35.394-54.679,48.91c0.074,0.069,0.139,0.138,0.193,0.206c-0.807,0.498-1.553,1.127-2.209,1.869
			c-0.705,0.257-1.413,0.546-2.092,0.858C418.146,294.284,416.599,295.109,415.088,295.979z"/>
		<path fill="#FFFFFF" d="M430.831,244.983c-0.872,0.805-1.599,1.644-2.255,2.521l-0.01-0.001c-0.464,0.374-0.93,0.768-1.396,1.163
			c0.013-0.03,0.024-0.05,0.036-0.069c-0.023,0.039-0.046,0.068-0.069,0.108c0,0,0,0-0.011,0.009
			c-1.576,1.386-2.995,2.952-4.133,4.732c1.095-1.398,2.349-2.783,3.719-4.125c-0.578,0.874-1.274,1.976-1.91,3.053
			c-1.201,1.024-2.371,1.77-4.108,2.713c-2.192,1.203-4.892,0.953-7.22-0.096c-1.223-0.374-2.377-0.97-3.38-1.792
			c-0.374-0.316-0.717-0.65-1.048-1.003c-3.451-1.206-6.18-4.49-6.634-8.199c-0.04-0.358-0.05-0.703-0.062-1.047
			c-1.783,0.084-3.503-0.116-5.303-0.668c-0.675-0.208-1.239-0.532-1.697-0.928c-1.206,0.711-2.458,0.793-3.584,0.47
			c-3.706-0.104-6.536-5.367-4.085-8.536c0.323-0.605,0.751-1.139,1.258-1.665c1.092-1.139,2.46-1.876,3.911-2.284
			c0.925-0.602,1.876-1.149,2.859-1.61c0.419-0.315,0.837-0.631,1.275-0.934c0.234-0.166,0.479-0.32,0.724-0.485
			c0.194-0.149,0.387-0.287,0.606-0.392c1.189-0.754,2.441-1.419,3.764-1.964c0.203-0.148,0.404-0.286,0.609-0.433
			c0.053-0.037,0.105-0.063,0.169-0.099c-0.058-0.026-0.126-0.053-0.175-0.079c-0.473-0.096-0.919-0.158-1.377-0.211
			c-1.291,0.058-2.568,0.22-3.843,0.446c16.035-10.401,57.597-32.887,57.597-32.887l23.118-41.958c0.89,0.27,1.764,0.622,2.56,1.05
			c0.145,0.066,0.309,0.154,0.452,0.24c3.626,2.076,6.024,4.767,7.856,8.562c1.075,2.215,1.805,4.584,2.942,6.763
			c1.261,2.378,1.92,5.106,2.396,7.734c0.354,1.845,0.543,3.728,0.743,5.601c0.845,3.016,1.721,6.015,2.855,8.922
			c0.407,0.996,0.62,2.016,0.664,3.03c2.31,1.277,4.778,2.11,6.933,3.674c2.913,2.083,4.386,5.959,4.659,9.433
			c0.178,2.142,0.126,4.262-0.018,6.395c-0.054,0.859-0.127,1.707-0.221,2.553l-13.878,2.839l-4.396,8.271l-14.872,14.5
			c-0.348-0.741-0.676-1.479-0.981-2.248c-1.097-2.654-2.036-5.387-2.699-8.189c-0.519-0.152-0.994-0.342-1.45-0.53
			c-0.106-0.051-0.214-0.082-0.318-0.144l-0.001,0.01c-0.125-0.063-0.25-0.127-0.385-0.192c-1.695,0.916-3.728,1.541-5.661,1.497
			c-0.58-0.022-1.157-0.097-1.705-0.251c-2.442-0.664-4.717-1.427-6.608-3.238c-0.214-0.197-0.417-0.403-0.621-0.6
			c-0.04-0.003-0.06-0.016-0.09-0.019c-0.312,0.013-0.596,0.049-0.9,0.073c-0.836,0.63-1.648,1.336-2.435,2.056
			c-0.104,0.167-0.209,0.324-0.335,0.5c-0.009,0.228-0.028,0.456-0.037,0.673c-2.424,2.266-5.421,4.895-7.83,7.807l-0.021-0.002
			c-0.747,0.524-1.44,1.106-2.029,1.771l-0.01-0.001c-0.71,0.549-1.44,1.096-2.159,1.634c-0.001,0.021-0.032,0.028-0.042,0.027
			c-3.284,1.998-6.611,4.263-9.644,6.711C430.893,245.437,430.871,245.216,430.831,244.983z"/>
		<path fill="#FFFFFF" d="M391.665,259.461c2.812,3.949,7.912-1.059,9.373,3.546c-3.056,3.186-13.67,3.338-15.779-0.504
			c1.014-1.052,2.39-1.633,3.872-2.068c-7.567-4.806-7.459-3.15-11.047-11.275c4.511,0.428,7.498,2.111,10.596,3.69
			c-0.462,1.749-3.637,0.027-3.863,2.08c1.088,3.924,4.668-0.359,6.144-0.577c3.789-0.514,1.964,3.662,5.753,3.148
			C396.217,259.653,394.36,260.106,391.665,259.461z"/>
		<path fill="#FFFFFF" d="M443.841,248.971c5.14,0.476,8.622-1.139,14.576,0.371C457.188,243.446,446.735,247.884,443.841,248.971z
			 M438.402,254.634c6.316,1.168,7.596,0.422,10.947-0.028C459.203,253.259,444,251.673,438.402,254.634z M431.626,261.414
			c5.937,0.081,11.273-0.57,16.014-1.985C441.118,258.563,435.183,258.461,431.626,261.414z M416.646,277.288
			c4.531-0.268,12.177,3.41,13.479-1.001C427.469,274.249,418.26,273.583,416.646,277.288z M419.604,260.06
			c9.141-3.206,19.636-11.068,28.689-19.668c3.454-3.274,6.688-6.663,9.589-9.925c4.799,2.799,12.52,3.379,14.312,2.857
			c0.29,5.028-4.94,3.043-8.794,2.78c1.145,6.544,9.544,0.749,12.16,0.105c-12.15,9.709-20.166,24.687-35.872,29.858
			c0.657,1.353,2.624,1.597,2.017,3.989c-4.921,2.586-8.956,6.307-12.076,11.185c-3.929,0.969-2.735-0.191-7.23-0.806
			c5.484,4.863-5.321,7.591-7.265,11.735c-7.084,0.886-11.386-8.619-11.291-8.787c-1.887-1.644-8.167,0.056-6.712-5.769
			c5.711,1.883,10.602-2.227,14.438,1.619c-0.442,2.699-3.302,2.319-6.259,1.806c0.772,2.676,8.24,2.243,9.616,1.068
			c-9.378-14.34-16.742-35.765-36.326-37.902c4.657-4.986,7.764-11.918,13.53-15.467c1.432-0.888,3.036-1.562,4.856-1.946
			c-0.438,0.303-0.856,0.619-1.275,0.934c-0.983,0.461-1.935,1.008-2.859,1.61c-1.451,0.407-2.819,1.145-3.911,2.284
			c-0.507,0.526-0.935,1.06-1.258,1.665c-2.451,3.169,0.379,8.432,4.085,8.536c1.126,0.323,2.378,0.241,3.584-0.47
			c0.458,0.396,1.022,0.72,1.697,0.928c1.8,0.552,3.52,0.753,5.303,0.668c0.012,0.345,0.021,0.689,0.062,1.047
			c0.454,3.709,3.183,6.994,6.634,8.199c0.331,0.354,0.674,0.688,1.048,1.003c1.003,0.822,2.157,1.419,3.38,1.792
			c2.328,1.049,5.027,1.299,7.22,0.096c1.737-0.943,2.907-1.689,4.108-2.713c-0.858,1.473-1.573,2.896-1.698,3.645
			c0.92-1.123,1.988-2.337,2.983-3.516c0.012-0.02,0.021-0.019,0.022-0.029l0.011-0.009c0.182-0.14,0.344-0.26,0.525-0.389
			c0.338,0.042,0.686,0.084,1.035,0.106C424.443,254.111,422.164,257.265,419.604,260.06z M427.267,268.438
			c1.636-2.567,7.952,0.799,8.793-2.779C432.001,264.292,424.879,266.195,427.267,268.438z M428.343,269.819
			c-0.081,0.826-0.162,1.652-0.244,2.478c2.335-0.294,7.074,2.5,6.27-1.805C432.36,270.264,430.36,270.047,428.343,269.819z"/>
	</g>
	<g>
		<path fill="none" stroke="#000000" stroke-miterlimit="10" d="M428.642,249.312c0.001-0.011,0.001-0.021,0.001-0.021"/>
		<line fill="none" stroke="#000000" stroke-miterlimit="10" x1="435.541" y1="244.263" x2="435.551" y2="244.254"/>
		<polyline fill="none" stroke="#020202" stroke-width="0.25" stroke-miterlimit="10" points="480.736,133.831 482.718,135.536 
			484.063,136.692 		"/>
		
			<line fill="none" stroke="#020202" stroke-width="0.25" stroke-miterlimit="10" x1="478.922" y1="132.277" x2="480.717" y2="133.819"/>
		
			<line fill="none" stroke="#000000" stroke-width="5" stroke-miterlimit="10" x1="510.013" y1="212.69" x2="510.166" y2="212.652"/>
		<polyline fill="none" stroke="#000000" stroke-width="5" stroke-miterlimit="10" points="475.894,239.22 476.856,238.299 
			491.729,223.799 496.124,215.528 510.002,212.689 		"/>
		<path fill="none" stroke="#000000" stroke-width="5" stroke-miterlimit="10" d="M392.112,228.707
			c-2.293,0.277,0.227-1.813,5.352-5.13c16.035-10.401,57.597-32.887,57.597-32.887l23.118-41.958l1.58-2.843"/>
		<path fill="none" stroke="#000000" stroke-miterlimit="10" d="M445.27,236.206c0.591-0.321,1.169-0.621,1.727-0.914"/>
		<path fill="none" stroke="#000000" stroke-miterlimit="10" d="M442.21,237.933c0.19-0.107,0.393-0.235,0.571-0.333
			c0.221-0.125,0.443-0.251,0.654-0.367c0.612-0.35,1.223-0.679,1.813-1.009"/>
		<path fill="none" stroke="#000000" stroke-miterlimit="10" d="M440.58,238.907c0.551-0.334,1.07-0.651,1.619-0.965"/>
		<path fill="none" stroke="#000000" stroke-miterlimit="10" d="M429.424,246.864c0.477-0.404,0.964-0.817,1.471-1.218
			c3.032-2.449,6.359-4.713,9.644-6.711"/>
		<path fill="none" stroke="#000000" stroke-miterlimit="10" d="M428.383,247.767c0.294-0.264,0.598-0.528,0.902-0.802"/>
		<path fill="none" stroke="#000000" stroke-miterlimit="10" d="M426.725,249.301c0.098-0.084,0.196-0.18,0.294-0.264
			c0.438-0.418,0.875-0.836,1.354-1.26"/>
		<path fill="none" stroke="#000000" stroke-miterlimit="10" d="M427.127,248.713c-1.576,1.386-2.995,2.952-4.133,4.732
			c1.095-1.398,2.349-2.783,3.719-4.125"/>
		<path fill="none" stroke="#000000" stroke-miterlimit="10" d="M427.159,248.686c-0.011,0.009-0.021,0.019-0.021,0.019"/>
		<path fill="none" stroke="#000000" stroke-miterlimit="10" d="M428.566,247.503c-0.464,0.374-0.93,0.768-1.396,1.163"/>
		<path fill="none" stroke="#000000" stroke-miterlimit="10" d="M429.285,246.965c-0.246,0.175-0.493,0.361-0.709,0.539"/>
		<path fill="none" stroke="#000000" stroke-miterlimit="10" d="M429.285,246.965c0.01,0.001,0.011-0.009,0.021-0.019"/>
		<path fill="none" stroke="#000000" stroke-miterlimit="10" d="M429.349,246.93c-0.03-0.003-0.04-0.004-0.042,0.017"/>
		<path fill="none" stroke="#000000" stroke-miterlimit="10" d="M429.349,246.93c0.021-0.019,0.033-0.039,0.044-0.048
			c0,0,0,0,0.001-0.01c0.03,0.003,0.03-0.007,0.03-0.007"/>
		<path fill="none" stroke="#000000" stroke-miterlimit="10" d="M430.878,245.842c-0.49,0.33-0.981,0.67-1.454,1.022"/>
		<path fill="none" stroke="#000000" stroke-miterlimit="10" d="M433.354,244.238c-0.837,0.516-1.666,1.044-2.466,1.595"/>
		<path fill="none" stroke="#000000" stroke-miterlimit="10" d="M434.868,243.336c-0.517,0.285-1.005,0.594-1.492,0.893"/>
		<path fill="none" stroke="#000000" stroke-miterlimit="10" d="M435.778,242.795c-0.305,0.159-0.602,0.34-0.899,0.531"/>
		<path fill="none" stroke="#000000" stroke-miterlimit="10" d="M439.962,240.381c-1.376,0.81-2.788,1.596-4.172,2.395"/>
		<path fill="none" stroke="#000000" stroke-miterlimit="10" d="M441.285,239.586c-0.425,0.273-0.867,0.514-1.302,0.775"/>
		<path fill="none" stroke="#000000" stroke-miterlimit="10" d="M442.302,238.972c-0.328,0.199-0.668,0.407-1.017,0.614"/>
		<path fill="none" stroke="#000000" stroke-miterlimit="10" d="M442.472,238.863c-0.043,0.038-0.096,0.064-0.159,0.1"/>
		<path fill="none" stroke="#000000" stroke-miterlimit="10" d="M448.008,233.792c0.635-0.254,1.255-0.457,1.83-0.612
			c-2.136,2.188-4.682,4.004-7.355,5.673"/>
		<path fill="none" stroke="#000000" stroke-miterlimit="10" d="M446.432,234.5c0.515-0.265,1.047-0.507,1.546-0.701"/>
		<path fill="none" stroke="#000000" stroke-miterlimit="10" d="M444.799,235.505c0.193-0.149,0.416-0.295,0.639-0.42
			c0.318-0.199,0.636-0.389,0.941-0.559"/>
		<path fill="none" stroke="#000000" stroke-miterlimit="10" d="M442.749,237.274c0.589-0.664,1.282-1.246,2.029-1.771"/>
		<path fill="none" stroke="#000000" stroke-miterlimit="10" d="M440.973,240.766c0.014-0.051,0.029-0.112,0.034-0.164
			c0.061-0.349,0.149-0.684,0.278-1.016c0.14-0.341,0.297-0.66,0.476-0.977c0.13-0.228,0.28-0.454,0.438-0.668l0.011-0.009
			c0.17-0.224,0.34-0.448,0.529-0.66"/>
		<path fill="none" stroke="#000000" stroke-miterlimit="10" d="M440.928,241.991c-0.012-0.095-0.014-0.199-0.025-0.304
			c0.003-0.021,0.006-0.052,0.008-0.083c0.004-0.271,0.008-0.551,0.052-0.829"/>
		<path fill="none" stroke="#000000" stroke-miterlimit="10" d="M441.635,241.473c-0.246,0.175-0.472,0.342-0.707,0.518"/>
		<path fill="none" stroke="#000000" stroke-miterlimit="10" d="M443.956,239.813c-0.75,0.545-1.539,1.087-2.3,1.642"/>
		<path fill="none" stroke="#000000" stroke-miterlimit="10" d="M445.869,238.355c-0.53,0.44-1.121,0.886-1.73,1.319"/>
		<path fill="none" stroke="#000000" stroke-miterlimit="10" d="M448.146,235.69c0.105-0.063,0.22-0.104,0.325-0.168
			c-0.543,0.939-1.403,1.829-2.441,2.702"/>
		<path fill="none" stroke="#000000" stroke-miterlimit="10" d="M447.121,236.168c0.346-0.166,0.681-0.322,0.994-0.471"/>
		<path fill="none" stroke="#000000" stroke-miterlimit="10" d="M441.98,239.557c1.451-1.366,3.335-2.473,5.098-3.351"/>
		<path fill="none" stroke="#000000" stroke-miterlimit="10" d="M441.497,240.033c0.145-0.153,0.299-0.316,0.472-0.456"/>
		<path fill="none" stroke="#000000" stroke-miterlimit="10" d="M440.792,240.885c0.059-0.099,0.117-0.197,0.215-0.282
			c0.125-0.166,0.26-0.33,0.413-0.482"/>
		<path fill="none" stroke="#000000" stroke-miterlimit="10" d="M440.272,241.67c0.153-0.267,0.326-0.522,0.508-0.766"/>
		<path fill="none" stroke="#000000" stroke-miterlimit="10" d="M441.021,241.594c-0.053,0.037-0.086,0.065-0.119,0.093
			c-0.423,0.377-0.788,0.771-1.111,1.147c0.115-0.406,0.277-0.787,0.48-1.153"/>
		<path fill="none" stroke="#000000" stroke-miterlimit="10" d="M441.077,241.536c-0.012,0.02-0.032,0.028-0.055,0.047"/>
		<path fill="none" stroke="#000000" stroke-miterlimit="10" d="M448.115,235.698c-2.07,2.121-4.961,3.979-7.037,5.828"/>
		<path fill="none" stroke="#000000" stroke-miterlimit="10" d="M448.115,235.698c0,0,0,0,0.02-0.008l0.012,0.001"/>
		<path fill="none" stroke="#000000" stroke-miterlimit="10" d="M448.778,234.989c-0.21,0.23-0.431,0.46-0.632,0.702"/>
		<path fill="none" stroke="#000000" stroke-miterlimit="10" d="M450.672,231.195c-0.188,1.368-0.878,2.617-1.882,3.774"/>
		<path fill="none" stroke="#000000" stroke-miterlimit="10" d="M442.482,238.854c0.852-0.921,1.79-1.782,2.767-2.629
			c0.001-0.01,0.011-0.009,0.011-0.009c0.01-0.009,0.01-0.009,0.01-0.009c0.923-0.8,1.845-1.59,2.708-2.406
			c0,0,0.02,0.002,0.03-0.007c0.667-0.626,1.295-1.276,1.878-1.982c0.289-0.328,0.57-0.677,0.822-1.039
			c-0.003,0.146-0.024,0.279-0.036,0.413"/>
		<polyline fill="none" stroke="#000000" stroke-miterlimit="10" points="442.482,238.854 442.473,238.853 442.472,238.863 		"/>
		<path fill="none" stroke="#000000" stroke-miterlimit="10" d="M442.183,239.19c0.089-0.106,0.199-0.221,0.289-0.327"/>
		<path fill="none" stroke="#000000" stroke-miterlimit="10" d="M441.157,240.492c0.011-0.01,0.011-0.01,0.012-0.02
			c0.081-0.128,0.171-0.234,0.251-0.352c0.001-0.011,0.011-0.01,0.012-0.02c0-0.01,0.021-0.019,0.021-0.029c0,0,0,0,0.021-0.008
			c0.01-0.009,0.012-0.02,0.022-0.029c0.205-0.283,0.43-0.554,0.674-0.823"/>
		<path fill="none" stroke="#000000" stroke-miterlimit="10" d="M441.789,239.915c-0.207,0.179-0.424,0.377-0.62,0.557"/>
		<path fill="none" stroke="#000000" stroke-miterlimit="10" d="M447.078,236.206c-1.855,1.255-3.763,2.423-5.279,3.699"/>
		<path fill="none" stroke="#000000" stroke-miterlimit="10" d="M447.078,236.206c0-0.01,0-0.01,0.011-0.009
			c0.021-0.009,0.021-0.019,0.021-0.019"/>
		<path fill="none" stroke="#000000" stroke-miterlimit="10" d="M451.442,232.506c-0.739,0.89-1.652,1.701-2.652,2.463l-0.012,0.02
			c-0.536,0.398-1.092,0.794-1.657,1.18c-0.011,0.009-0.011,0.009-0.011,0.009"/>
		<path fill="none" stroke="#000000" stroke-miterlimit="10" d="M453.294,227.083l-0.021,0.008c0.05,0.588,0.031,1.149-0.045,1.684
			c-0.029,0.112-0.051,0.245-0.07,0.358c-0.27,1.267-0.876,2.357-1.705,3.353"/>
		<path fill="none" stroke="#000000" stroke-miterlimit="10" d="M444.263,236.133c0.159-0.214,0.327-0.417,0.516-0.629l0.021,0.002
			c2.409-2.913,5.406-5.542,7.83-7.807c0.219-0.209,0.446-0.406,0.645-0.607"/>
		<path fill="none" stroke="#000000" stroke-miterlimit="10" d="M444.138,236.309c0.035-0.059,0.069-0.108,0.112-0.156"/>
		<path fill="none" stroke="#000000" stroke-miterlimit="10" d="M442.312,238.963c0.342-0.583,0.713-1.163,1.123-1.729
			c0.206-0.304,0.432-0.585,0.656-0.866"/>
		<path fill="none" stroke="#000000" stroke-miterlimit="10" d="M442.312,238.963c-0.01-0.001-0.011,0.009-0.011,0.009"/>
		<path fill="none" stroke="#000000" stroke-miterlimit="10" d="M441.799,239.905c0.051-0.11,0.101-0.22,0.17-0.328
			c0.001-0.011,0.011-0.01,0.012-0.02c0.061-0.119,0.119-0.229,0.19-0.347l0.001-0.011l0.011-0.009
			c0.036-0.08,0.083-0.148,0.119-0.218"/>
		<path fill="none" stroke="#000000" stroke-miterlimit="10" d="M441.799,239.905c0,0,0,0-0.01,0.009"/>
		<path fill="none" stroke="#000000" stroke-miterlimit="10" d="M441.567,240.384l0.012-0.009c0.054-0.162,0.136-0.311,0.21-0.46"/>
		<path fill="none" stroke="#000000" stroke-miterlimit="10" d="M441.078,241.526c0.144-0.382,0.307-0.763,0.488-1.132"/>
		
			<line fill="none" stroke="#000000" stroke-width="0.5" stroke-linecap="round" stroke-linejoin="round" x1="441.078" y1="241.526" x2="441.077" y2="241.536"/>
		<path fill="none" stroke="#000000" stroke-miterlimit="10" d="M441.063,241.577c0.001-0.01,0.013-0.03,0.014-0.041"/>
		<path fill="none" stroke="#000000" stroke-miterlimit="10" d="M440.927,242.001l0.001-0.01c0.031-0.132,0.083-0.273,0.125-0.405"
			/>
		<path fill="none" stroke="#000000" stroke-miterlimit="10" d="M436.042,242.414c-0.387,0.298-0.765,0.596-1.163,0.913
			c0,0-0.01,0-0.011,0.01c-0.096,0.064-0.182,0.129-0.258,0.195"/>
		<path fill="none" stroke="#000000" stroke-miterlimit="10" d="M444.466,235.995c-0.063,0.036-0.139,0.091-0.203,0.138
			c0,0-0.011,0.009-0.013,0.02c-0.482,0.372-0.997,0.751-1.501,1.122l-0.01-0.001c-0.71,0.549-1.44,1.096-2.159,1.634
			c-0.001,0.021-0.032,0.028-0.042,0.027c-1.473,1.124-2.977,2.266-4.485,3.46"/>
		<path fill="none" stroke="#000000" stroke-miterlimit="10" d="M454.697,227.817c-0.022,0.019-0.022,0.029-0.054,0.037
			c-0.479,0.435-0.987,0.856-1.485,1.279c-0.263,0.247-0.552,0.459-0.802,0.687c-0.562,0.469-1.113,0.918-1.685,1.365
			c0,0.011,0,0.011,0,0.011c-0.26,0.215-0.528,0.419-0.786,0.615c-1.144,0.925-2.294,1.809-3.454,2.69
			c-0.021,0.009-0.033,0.028-0.053,0.026c-0.612,0.464-1.246,0.947-1.859,1.412"/>
		<path fill="none" stroke="#000000" stroke-miterlimit="10" d="M452.45,229.307c0.257-0.185,0.522-0.358,0.778-0.532
			c0.46-0.322,0.938-0.632,1.415-0.921"/>
		<path fill="none" stroke="#000000" stroke-miterlimit="10" d="M444.499,235.957c0.011-0.009,0.011-0.009,0.021-0.019
			c0.308-0.294,0.613-0.579,0.918-0.853c2.227-2.075,4.535-4.049,7.004-5.789"/>
		<path fill="none" stroke="#000000" stroke-miterlimit="10" d="M444.499,235.957c-0.011,0.01-0.011,0.01-0.011,0.01s0,0-0.002,0.01
			c-0.021,0.008-0.021,0.008-0.021,0.019"/>
		<path fill="none" stroke="#000000" stroke-miterlimit="10" d="M438.634,241.695c0.439-0.438,0.89-0.886,1.328-1.314
			c0,0,0.011-0.01,0.021-0.019c0.582-0.582,1.195-1.17,1.777-1.752c0.339-0.333,0.681-0.677,1.021-1.01
			c0.428-0.419,0.854-0.828,1.311-1.233c0.001-0.011,0.012-0.02,0.022-0.029c-0.009-0.011,0.012-0.02,0.023-0.029
			c0.109-0.104,0.219-0.209,0.328-0.313"/>
		<path fill="none" stroke="#000000" stroke-miterlimit="10" d="M436.883,243.377c0.601-0.559,1.17-1.121,1.741-1.683"/>
		<path fill="none" stroke="#000000" stroke-miterlimit="10" d="M436.313,243.929c0.185-0.17,0.37-0.351,0.558-0.532"/>
		<path fill="none" stroke="#000000" stroke-miterlimit="10" d="M435.974,244.251c0.108-0.104,0.219-0.199,0.329-0.313"/>
		<path fill="none" stroke="#000000" stroke-miterlimit="10" d="M429.789,249.512c2.136-1.604,4.176-3.374,6.132-5.224"/>
		<path fill="none" stroke="#000000" stroke-miterlimit="10" d="M426.938,251.499c0.977-0.618,1.917-1.281,2.851-1.976"/>
		<path fill="none" stroke="#000000" stroke-miterlimit="10" d="M427.072,251.324c-0.225,0.167-0.482,0.361-0.814,0.602
			c0.159-0.1,0.309-0.201,0.468-0.301c0.072-0.024,0.137-0.07,0.181-0.119"/>
		<path fill="none" stroke="#000000" stroke-miterlimit="10" d="M427.878,250.596c-0.178,0.202-0.384,0.381-0.687,0.634"/>
		<path fill="none" stroke="#000000" stroke-miterlimit="10" d="M428.472,249.651c-0.215,0.397-0.358,0.665-0.55,0.907"/>
		<path fill="none" stroke="#000000" stroke-miterlimit="10" d="M428.643,249.292c0.021-0.008,0.034-0.039,0.046-0.058
			c-0.012,0.02-0.014,0.041-0.024,0.05c-0.048,0.089-0.085,0.169-0.121,0.239c-0.023,0.04-0.047,0.079-0.061,0.12"/>
		<path fill="none" stroke="#000000" stroke-miterlimit="10" d="M428.39,249.664c0.011-0.02,0.024-0.04,0.046-0.058
			c0.069-0.108,0.117-0.208,0.206-0.293"/>
		<path fill="none" stroke="#000000" stroke-miterlimit="10" d="M427.095,251.305c0.012-0.02,0.033-0.039,0.054-0.058
			c0.438-0.532,0.844-1.047,1.166-1.517c0.011-0.009,0.021-0.019,0.021-0.029"/>
		<path fill="none" stroke="#000000" stroke-miterlimit="10" d="M427.095,251.305c-0.011-0.001-0.011-0.001-0.011-0.001
			c0,0.01,0,0.01-0.012,0.02"/>
		<path fill="none" stroke="#000000" stroke-miterlimit="10" d="M426.121,252.465c0.123-0.145,0.234-0.27,0.357-0.415
			c0.156-0.184,0.303-0.368,0.428-0.544c0,0,0.001-0.01,0.031-0.007c0.045-0.059,0.078-0.107,0.135-0.175"/>
		<path fill="none" stroke="#000000" stroke-miterlimit="10" d="M427.266,248.497l-0.001,0.011
			c-0.022,0.029-0.035,0.059-0.058,0.088c-0.023,0.039-0.046,0.068-0.069,0.108c0,0,0,0-0.011,0.009
			c-0.126,0.176-0.253,0.373-0.402,0.588c0,0-0.011,0.01-0.012,0.02c-0.578,0.874-1.274,1.976-1.91,3.053
			c-0.858,1.473-1.573,2.896-1.698,3.645c0.92-1.123,1.988-2.337,2.983-3.516"/>
		<path fill="none" stroke="#000000" stroke-miterlimit="10" d="M427.004,249.911c-0.147-0.274-0.1-0.603,0.015-0.874
			c0.032-0.153,0.093-0.263,0.141-0.352l0.011-0.01l0.001-0.01c0.013-0.03,0.024-0.05,0.036-0.069"/>
		<path fill="none" stroke="#000000" stroke-miterlimit="10" d="M428.336,249.701c-0.258,0.091-0.525,0.17-0.801,0.218
			c-0.174,0.036-0.317,0.064-0.479,0.081c-0.027-0.023-0.045-0.057-0.054-0.078"/>
		<path fill="none" stroke="#000000" stroke-miterlimit="10" d="M429.139,249.369c-0.21,0.105-0.429,0.2-0.656,0.273l-0.011,0.009
			c-0.032,0.018-0.073,0.035-0.124,0.041"/>
		<path fill="none" stroke="#000000" stroke-miterlimit="10" d="M430.119,248.824c-0.309,0.201-0.625,0.379-0.959,0.526"/>
		<path fill="none" stroke="#000000" stroke-miterlimit="10" d="M434.396,245.449c-0.939,0.767-1.845,1.59-2.78,2.315
			c-0.355,0.29-0.721,0.559-1.103,0.804l-0.011,0.009c-0.066,0.057-0.139,0.091-0.213,0.137c-0.044,0.038-0.087,0.075-0.16,0.11"/>
		<path fill="none" stroke="#000000" stroke-miterlimit="10" d="M435.921,244.288c-0.512,0.349-1.027,0.738-1.505,1.152"/>
		<path fill="none" stroke="#000000" stroke-miterlimit="10" d="M435.921,244.288c0.011-0.009,0.021-0.008,0.021-0.019
			c0.021-0.009,0.031-0.018,0.031-0.018"/>
		<path fill="none" stroke="#000000" stroke-miterlimit="10" d="M435.852,244.042c0.144-0.039,0.297-0.077,0.451-0.104v-0.01
			c0,0,0,0,0.011,0.001c0.082-0.024,0.185-0.045,0.268-0.08c-0.202,0.127-0.404,0.265-0.607,0.402"/>
		<path fill="none" stroke="#000000" stroke-miterlimit="10" d="M435.687,244.089c0.061-0.005,0.093-0.023,0.144-0.028"/>
		<path fill="none" stroke="#000000" stroke-miterlimit="10" d="M432.068,245.765c0.711-0.434,1.458-0.833,2.208-1.15
			c0.479-0.206,0.946-0.381,1.409-0.515"/>
		<path fill="none" stroke="#000000" stroke-miterlimit="10" d="M430.52,247.309c-0.367,0.195-0.743,0.358-1.117,0.511
			c0.405-0.39,0.851-0.786,1.345-1.157c0.397-0.307,0.855-0.608,1.321-0.888"/>
		<path fill="none" stroke="#000000" stroke-miterlimit="10" d="M435.799,242.787l-0.01-0.001c0,0-0.001,0.01-0.011,0.009
			c-0.419,0.67-0.933,1.268-1.502,1.819c-0.912,0.916-1.952,1.684-3.02,2.304c-0.243,0.144-0.485,0.268-0.735,0.38"/>
		<path fill="none" stroke="#000000" stroke-miterlimit="10" d="M430.816,247.607c0.141-0.237,0.29-0.463,0.44-0.688
			c0.254-0.383,0.519-0.775,0.812-1.144c0-0.01,0-0.01,0-0.01c0.409-0.545,0.844-1.047,1.286-1.527
			c0.011-0.009,0.021-0.008,0.021-0.008c0.92-1.009,1.945-1.841,3.012-2.451c-0.107,0.199-0.227,0.417-0.335,0.615
			c-0.01,0.009-0.011,0.02-0.011,0.02c-0.071,0.129-0.152,0.257-0.252,0.362l-0.001,0.01"/>
		<path fill="none" stroke="#000000" stroke-miterlimit="10" d="M430.119,248.824c0.023-0.04,0.046-0.069,0.07-0.119
			s0.049-0.1,0.084-0.159"/>
		<line fill="none" stroke="#000000" stroke-miterlimit="10" x1="430.129" y1="248.825" x2="430.119" y2="248.824"/>
		<path fill="none" stroke="#000000" stroke-miterlimit="10" d="M429.595,249.901c0.061-0.12,0.132-0.249,0.193-0.378l0.001-0.011
			c0.1-0.23,0.209-0.449,0.33-0.688"/>
		<path fill="none" stroke="#000000" stroke-miterlimit="10" d="M429.518,248.925c-0.112,0.146-0.235,0.291-0.357,0.425
			c-0.012,0.009-0.012,0.009-0.012,0.009c0,0.01-0.01,0.009-0.01,0.009c-0.367,0.414-0.792,0.802-1.217,1.189
			c-0.011,0.01-0.022,0.019-0.033,0.028l-0.011,0.01c-0.239,0.217-0.457,0.416-0.687,0.634c-0.011-0.001-0.041,0.006-0.043,0.017
			c-0.021,0.019-0.032,0.039-0.054,0.058c-0.001,0.01-0.011,0.009-0.022,0.019c-0.109,0.104-0.238,0.196-0.347,0.301
			c-0.142,0.133-0.294,0.265-0.427,0.398c-0.436,0.407-0.861,0.806-1.25,1.238c0.344-0.26,0.696-0.508,1.039-0.758
			c0.012-0.02,0.021-0.019,0.022-0.029l0.011-0.009c0.182-0.14,0.344-0.26,0.525-0.389c0.601-0.444,1.211-0.888,1.812-1.332"/>
		<path fill="none" stroke="#000000" stroke-miterlimit="10" d="M430.019,248.242c-0.141,0.237-0.311,0.461-0.49,0.674"/>
		<path fill="none" stroke="#000000" stroke-miterlimit="10" d="M430.842,244.974l-0.011,0.009c0.04,0.233,0.062,0.454,0.063,0.662
			c-0.006,0.062-0.012,0.124-0.006,0.187c-0.011,0.009-0.011,0.009-0.011,0.009c-0.024,0.279-0.068,0.557-0.131,0.821
			c-0.05,0.225-0.128,0.437-0.226,0.636c-0.002,0.01-0.002,0.01-0.002,0.01c-0.117,0.322-0.283,0.62-0.479,0.904"/>
		<path fill="none" stroke="#000000" stroke-miterlimit="10" d="M425.7,252.342c0.001-0.01,0.001-0.01,0.001-0.01
			c0.062-0.14,0.132-0.259,0.192-0.378c0.194-0.389,0.398-0.776,0.591-1.154c0.012-0.009,0.012-0.009,0.022-0.019
			c0.156-0.298,0.331-0.584,0.495-0.86l0.002-0.01c0.426-0.752,0.857-1.452,1.368-2.134c0.011-0.01,0.011-0.01,0.011-0.01
			c0.048-0.089,0.125-0.176,0.184-0.264l0.01,0.001c0.656-0.876,1.383-1.716,2.255-2.521"/>
		<path fill="none" stroke="#000000" stroke-miterlimit="10" d="M428.902,249.191c-0.129,0.103-0.25,0.216-0.359,0.331
			c-0.043,0.027-0.076,0.056-0.107,0.084c-0.012,0.02-0.035,0.039-0.046,0.058c-0.029-0.003-0.041,0.017-0.042,0.027l-0.012,0.009
			c-0.01,0.01-0.021,0.019-0.021,0.029c-0.773,0.699-1.55,1.44-2.272,2.248c-0.129,0.103-0.23,0.239-0.341,0.354"/>
		<path fill="none" stroke="#000000" stroke-miterlimit="10" d="M435.841,244.051c-0.001,0.011-0.001,0.011-0.011,0.01
			c-0.106,0.063-0.192,0.128-0.279,0.193l-0.01,0.009c-1.637,1.057-3.185,2.132-4.725,3.344c-0.248,0.186-0.507,0.401-0.775,0.605
			l-0.011,0.009c0,0,0.019,0.012-0.012,0.02c-0.367,0.299-0.756,0.618-1.096,0.951"/>
		<path fill="none" stroke="#000000" stroke-miterlimit="10" d="M446.198,237.208c-1.564,1.147-3.089,2.183-4.619,3.167
			l-0.012,0.009l-0.001,0.01c-0.212,0.137-0.393,0.255-0.594,0.372c-0.011,0.009-0.011,0.009-0.011,0.009
			c-0.044,0.048-0.107,0.084-0.17,0.109l-0.001,0.01c0,0-0.01-0.001-0.011,0.009c-0.436,0.272-0.86,0.545-1.265,0.81l-0.021,0.009
			c-0.881,0.554-1.752,1.108-2.612,1.654c0,0-0.011,0.01-0.012,0.02c-0.359,0.206-0.689,0.426-1.02,0.645"/>
		<path fill="none" stroke="#000000" stroke-miterlimit="10" d="M446.051,238.215c0,0.01-0.021,0.009-0.021,0.009
			c-0.021,0.008-0.021,0.019-0.031,0.018c-0.033,0.039-0.086,0.065-0.13,0.113c-0.6,0.434-1.189,0.869-1.73,1.319
			c-0.042,0.027-0.075,0.056-0.107,0.084c-0.022,0.029-0.043,0.038-0.075,0.055c-0.521,0.452-1.012,0.907-1.384,1.383"/>
	</g>
</g>
<g>
	<g>
		<path d="M427.82,251.791c-3.845,0.228-5.449,3.141-7.275,6.122c0.626-0.021,1.252-0.04,1.877-0.06
			c0.284-1.788,1.408-3.246,2.188-4.846c0.443-0.912-1.337-0.614-1.691-0.243c-1.616,1.687-2.312,3.87-3.205,5.983
			c0.623-0.071,1.248-0.142,1.872-0.212c-0.247-3.15,3.454-6.338,5.401-8.407c3.205-3.406,6.57-6.485,10.861-8.47
			c-0.434-0.165-0.868-0.33-1.303-0.495c-0.625,0.993-1.353,1.888-2.127,2.768c-0.797,0.904,1.089,0.845,1.568,0.393
			c1.217-1.146,2.411-2.26,3.744-3.281c1.041-0.797-0.578-1.158-1.223-0.665c-1.443,1.105-2.767,2.306-4.09,3.553
			c0.522,0.131,1.046,0.262,1.568,0.393c0.865-0.982,1.674-1.957,2.373-3.066c0.467-0.742-0.982-0.643-1.303-0.495
			c-4.807,2.223-8.517,5.655-12.111,9.476c-2.137,2.27-5.559,5.418-5.293,8.815c0.057,0.707,1.689,0.225,1.873-0.212
			c0.832-1.968,1.449-4.105,2.961-5.685c-0.563-0.081-1.127-0.162-1.691-0.243c-0.834,1.715-2.008,3.237-2.312,5.154
			c-0.141,0.881,1.609,0.376,1.877-0.06c1.299-2.121,2.329-4.873,5.225-5.044C428.582,252.903,429.152,251.712,427.82,251.791
			L427.82,251.791z"/>
	</g>
</g>
<g>
	<g>
		<path d="M449.373,234.228c0.809-1.939,2.619-3.132,3.885-4.746c-0.576-0.125-1.151-0.25-1.727-0.374
			c-0.416,1.261-1.18,2.332-2.135,3.246c0.576,0.125,1.151,0.25,1.727,0.374c0.59-1.392,1.538-2.48,2.551-3.579
			c0.821-0.89-0.896-1.061-1.441-0.698c-0.25,0.167-0.5,0.333-0.75,0.5c0.52,0.176,1.039,0.352,1.559,0.527
			c0.195-0.317,0.434-0.598,0.715-0.843c-0.52-0.176-1.039-0.352-1.559-0.527c-0.311,0.757-0.67,1.473-0.89,2.264
			c-0.257,0.928,1.466,0.534,1.782,0.194c0.404-0.433,0.764-0.901,1.168-1.334c0.827-0.887-1.035-1.163-1.611-0.545
			c-0.402,0.433-0.764,0.901-1.166,1.334c0.594,0.064,1.188,0.129,1.782,0.194c0.185-0.665,0.517-1.269,0.778-1.904
			c0.369-0.901-1.105-0.932-1.559-0.527c-0.508,0.453-0.912,0.921-1.285,1.491c-0.578,0.887,1.177,0.782,1.559,0.527
			c0.25-0.167,0.5-0.333,0.75-0.5c-0.48-0.233-0.961-0.466-1.441-0.698c-1.102,1.194-2.145,2.41-2.783,3.921
			c-0.445,1.052,1.295,0.788,1.727,0.374c1.036-0.993,1.913-2.216,2.365-3.588c0.332-1.008-1.291-0.929-1.727-0.374
			c-1.355,1.73-3.246,3.004-4.115,5.088C447.107,235.039,449.053,234.999,449.373,234.228L449.373,234.228z"/>
	</g>
</g>
<g>
	<g>
		<path d="M419.382,256.587c-0.069,1.027-0.083,2.053-0.084,3.083c-0.001,0.479,0.97,0.312,0.975-0.088
			c0.024-2.271,0.522-4.318,2.411-5.758c0.522-0.398-0.271-0.668-0.629-0.396c-2.057,1.567-2.73,3.725-2.757,6.242
			c0.325-0.029,0.649-0.059,0.975-0.088c0.001-1.029,0.015-2.055,0.084-3.083C420.389,256.026,419.409,256.184,419.382,256.587
			L419.382,256.587z"/>
	</g>
</g>
<g>
	<g>
		<path d="M420.109,257.344c0.144-3.762,4.738-7.054,7.893-8.417c0.607-0.262,0.07-0.818-0.435-0.6
			c-3.415,1.475-8.282,4.997-8.438,9.083C419.109,257.931,420.092,257.801,420.109,257.344L420.109,257.344z"/>
	</g>
</g>
<g>
	<g>
		<path d="M421.557,254.258c0.824-0.67,1.352-1.551,2.032-2.353c0.739-0.872,1.915-1.18,2.816-1.846
			c0.394-0.291-0.571-0.156-0.74-0.031c-0.796,0.587-1.733,0.924-2.521,1.524c-0.986,0.75-1.492,1.988-2.463,2.777
			C420.472,254.499,421.377,254.404,421.557,254.258L421.557,254.258z"/>
	</g>
</g>
<g>
	<g>
		<path d="M425.062,250.944c2.763-2.936,5.467-5.973,9.178-7.718c0.582-0.274-0.311-0.323-0.576-0.198
			c-3.83,1.802-6.634,4.916-9.488,7.948C423.935,251.232,424.883,251.135,425.062,250.944L425.062,250.944z"/>
	</g>
</g>
<g>
	<g>
		<path d="M508.834,211.598c0.639,0,1.277,0,1.916,0c0.295,0,1.051-0.445,0.404-0.445c-0.64,0-1.279,0-1.918,0
			C508.942,211.153,508.188,211.598,508.834,211.598L508.834,211.598z"/>
	</g>
</g>
<g>
	<g>
		<path d="M509.551,211.679c0,0.111,0,0.223,0,0.334c0.322-0.036,0.646-0.072,0.969-0.107c0-0.556-0.014-1.107-0.084-1.66
			c-0.047-0.36-1.018-0.134-0.967,0.259c0.065,0.502,0.082,1.002,0.082,1.508c0,0.436,0.969,0.241,0.969-0.107
			c0-0.111,0-0.223,0-0.334C510.52,211.136,509.551,211.331,509.551,211.679L509.551,211.679z"/>
	</g>
</g>
<g>
	<g>
		<path fill="#FFFFFF" d="M461.963,237.379c1.842,1.178,3.615,1.615,5.791,1.423c0.537-0.048,1.125-0.41,1.038-1.016
			c-0.384-2.699-4.128-2.252-5.907-1.36c-0.268,0.134-0.686,0.525-0.524,0.878c0.698,1.537,1.854,2.123,3.519,2.238
			c0.482,0.033,1.039-0.128,1.253-0.61c0.716-1.607-0.073-3.739-2.2-3.053c-2.979,0.961,0.047,3.002,1.471,3.604
			c0.641,0.27,1.609-0.189,1.515-0.946c-0.272-2.186-5.235-4.752-6.407-2.048c-1.177,2.718,4.798,3.71,5.049-0.128
			c-0.649,0.106-1.299,0.212-1.948,0.319c0.362,3.22,4.636,3.223,5.896,0.628c0.167-0.345-0.059-0.694-0.383-0.824
			c-1.25-0.501-4.394,0.219-3.272,2.199c1.52,2.684,4.443-0.398,5.418-1.815c0.195-0.285,0.252-0.683-0.08-0.905
			c-0.125-0.083-0.25-0.167-0.375-0.25c-0.029,0.356-0.058,0.712-0.086,1.069c0.563-0.478,0.954-0.962,1.416-1.539
			c0.207-0.26,0.246-0.708-0.08-0.905c-0.209-0.125-0.418-0.25-0.625-0.375c0.026,0.302,0.053,0.603,0.08,0.905
			c0.898-1.059,2.145-1.639,3-2.75c-0.595-0.021-1.189-0.042-1.784-0.062c0.657,1.652-1.595,3.034-2.687,3.881
			c0.49,0.269,0.98,0.538,1.471,0.807c0.582-0.837,1.15-1.65,1.612-2.56c-0.62-0.091-1.241-0.182-1.862-0.273
			c-0.508,1.365-1.543,1.802-2.76,2.393c-1.184,0.575-0.131,1.73,0.883,1.238c1.683-0.818,3.057-1.523,3.739-3.357
			c0.415-1.115-1.461-1.062-1.862-0.273c-0.4,0.789-0.885,1.47-1.387,2.19c-0.678,0.976,0.834,1.3,1.471,0.807
			c1.549-1.201,4.217-3.099,3.312-5.369c-0.284-0.717-1.369-0.602-1.783-0.062c-0.846,1.1-2.104,1.694-3,2.75
			c-0.217,0.255-0.24,0.712,0.08,0.905c0.209,0.125,0.418,0.25,0.625,0.375c-0.026-0.302-0.053-0.603-0.08-0.905
			c-0.326,0.434-0.688,0.837-1.084,1.211c-0.313,0.266-0.508,0.788-0.086,1.069c0.125,0.083,0.25,0.167,0.375,0.25
			c-0.026-0.302-0.053-0.603-0.08-0.905c-0.219,0.318-1.091,1.84-1.604,1.634c-0.128-0.275-0.255-0.549-0.383-0.824
			c-0.997,2.052-2.039-0.3-2.104-0.872c-0.103-0.91-1.896-0.489-1.948,0.319c-0.07,1.076-2.348-0.004-0.273,0.74
			c0.846,0.303,1.552,0.923,1.664,1.833c0.506-0.315,1.01-0.631,1.515-0.946c-0.848-0.358-1.394-0.903-2.249-0.786
			c0.611-0.084,0.102,1.153,0.02,1.337c0.419-0.203,0.836-0.406,1.254-0.61c-0.92,0.05-1.664-0.371-2.231-1.262
			c-0.175,0.292-0.35,0.585-0.524,0.878c0.965-0.484,2.881-0.844,3.093,0.64c0.347-0.338,0.692-0.677,1.038-1.016
			c-1.712,0.151-3.018-0.154-4.459-1.077C462.665,235.717,461.008,236.767,461.963,237.379L461.963,237.379z"/>
	</g>
</g>
<g>
	<g>
		<path fill="#FFFFFF" d="M474.31,234.179c-1.259,1.34-2.929,2.225-4,3.75c-0.47,0.67,1.456,0.447,1.783-0.018
			c1.06-1.51,2.747-2.417,4-3.75c0.323-0.344-0.274-0.491-0.503-0.489C475.131,233.677,474.629,233.839,474.31,234.179
			L474.31,234.179z"/>
	</g>
</g>
<g>
	<g>
		<path fill="#FFFFFF" d="M475.824,233.945c-1.951,0.568-2.914,2.216-4.396,3.447c-0.315,0.262-0.209,0.596,0.181,0.673
			c0.462,0.091,1.007-0.068,1.366-0.366c0.541-0.45,1.008-0.972,1.486-1.487c0.441-0.476,0.971-1.127,1.617-1.316
			c0.268-0.078,0.947-0.331,0.839-0.734C476.811,233.766,476.092,233.867,475.824,233.945L475.824,233.945z"/>
	</g>
</g>
<g>
	<g>
		<path fill="#FFFFFF" d="M475.018,234.261c-0.753,0.863-1.615,1.603-2.582,2.219c-0.35,0.223-0.484,0.737-0.104,0.998
			c0.424,0.291,0.989,0.135,1.385-0.117c1.088-0.694,2.07-1.558,2.918-2.531c0.297-0.342,0.173-0.786-0.252-0.936
			C475.924,233.733,475.336,233.895,475.018,234.261L475.018,234.261z"/>
	</g>
</g>
<g>
	<g>
		<path fill="#FFFFFF" d="M389.75,232.797c1.912-1.914,4.686-2.735,7.241-3.387c1.19-0.304,0.855-1.533-0.33-1.23
			c-3.05,0.779-6.235,1.836-8.51,4.113C387.307,233.14,389.186,233.364,389.75,232.797L389.75,232.797z"/>
	</g>
</g>
<g>
	<g>
		<path d="M392.396,227.219c-2.119,0.859-4.227,1.583-5.963,3.129c-0.979,0.871,0.555,1.545,1.285,0.895
			c1.611-1.435,3.572-2.075,5.537-2.871C394.483,227.875,393.396,226.814,392.396,227.219L392.396,227.219z"/>
	</g>
</g>
<g>
	<g>
		<path d="M393.633,227.446c-3.343,0.584-5.453,2.948-7.805,5.176c-0.404,0.383,1.414,0.162,1.746-0.153
			c1.614-1.529,3.387-3.921,5.695-4.324C394.033,228.011,394.992,227.209,393.633,227.446L393.633,227.446z"/>
	</g>
</g>
<g>
	<g>
		<path d="M393.121,227.458c-1.064,0.541-2.078,1.174-3.053,1.865c-0.611,0.432,0.248,0.616,0.604,0.551
			c0.972-0.179,1.879-0.492,2.734-0.99c0.207-0.121,0.632-0.479,0.2-0.637c-0.411-0.151-0.996,0-1.36,0.211
			c-0.402,0.234-0.804,0.425-1.266,0.51c0.201,0.184,0.402,0.367,0.604,0.551c0.861-0.609,1.756-1.158,2.697-1.635
			c0.221-0.112,0.621-0.483,0.2-0.637C394.053,227.089,393.506,227.262,393.121,227.458L393.121,227.458z"/>
	</g>
</g>
<g>
	<g>
		<path d="M390.072,229.146c-1.809,1.328-3.572,2.694-5.17,4.273c-0.318,0.313-0.172,0.741,0.232,0.868
			c0.471,0.148,1.021-0.026,1.365-0.366c1.492-1.474,3.143-2.737,4.83-3.977C392.391,229.167,390.796,228.614,390.072,229.146
			L390.072,229.146z"/>
	</g>
</g>
<g>
	<g>
		<path fill="#FFFFFF" d="M393.456,230.664c-0.417,0-0.833,0-1.25,0c-0.181,0-1.925,0.401-1.542,0.706
			c0.967,0.766,2.226,0.806,3.407,0.807c0.461,0,0.97-0.126,1.366-0.366c0.307-0.186,0.264-0.396-0.106-0.396
			c-1.018-0.001-2.012-0.034-2.843-0.693c-0.515,0.235-1.028,0.47-1.542,0.706c0.417,0,0.833,0,1.25,0
			c0.462,0,0.97-0.126,1.366-0.366C393.869,230.875,393.826,230.664,393.456,230.664L393.456,230.664z"/>
	</g>
</g>
<ellipse transform="matrix(-0.9995 0.0324 -0.0324 -0.9995 990.8154 420.3133)" fill="#FFFFFF" cx="492.006" cy="218.175" rx="11.784" ry="23.259"/>
<path fill="#FFFFFF" d="M430.996,289.689c0.643,0.269,1.114,0.837,1.615,1.366c0.393,0.414,0.91,0.659,1.278,1.106
	c0.075,0.091,0.13,0.192,0.196,0.289c0.297,0.301,0.569,0.625,0.765,0.997l71.052-68.814l-5.566-5.746l-71.58,69.325
	c0.262,0.013,0.525,0.082,0.781,0.247C430.07,288.802,430.537,289.239,430.996,289.689z"/>
<path fill="#FFFFFF" d="M487.469,168.266c-9.876-9.597-23.281-11.479-29.941-4.208c-0.938,1.024-1.673,2.188-2.249,3.438
	l-5.016-5.372l-51.01,50.506l31.678,33.923c1.064-0.288,2.126-0.588,3.194-0.856l43.466-43.034
	c6.145,1.406,11.979,0.208,15.702-3.857C499.953,191.534,497.347,177.863,487.469,168.266z"/>
<g id="XMLID_33_">
	<g>
		<path d="M526.104,339.384c-8.081,0.039-16.174,0.024-24.254,0.2c-19.845,0.068-39.709,0.83-59.552,1.519
			c-0.01-2.494-0.021-4.935-0.041-7.407c0.006-1.263-0.011-2.536-0.016-3.798s-0.011-2.525-0.005-3.788
			c-0.021-2.609-0.032-5.219-0.032-7.828c-0.191-1.093,0.318-2.854-0.289-3.534c-0.19-8.995-2.937-16.386-7.136-21.475
			c0-0.01,0-0.01-0.011-0.021c-0.178-0.283-0.388-0.534-0.642-0.764v-0.011c-0.077-0.125-0.154-0.23-0.243-0.325
			c-0.188-0.241-0.408-0.397-0.629-0.575h-0.011c-0.354-0.355-0.706-0.68-1.07-0.993c-0.287-0.303-0.574-0.575-0.916-0.773
			c17.311-14.847,35.231-30.959,52.846-46.787c2.07-1.864,6.279-5.236,6.844-6.86c0.331,0.345,1.145,0.246,1.849,0.252
			c-3.478-3.504-7.534-8.625-7.981-15.872c-0.009-2.01-0.027-4.041-0.025-6.071c0.559-6.075,3.688-9.734,7.854-12.411
			c-16.364,1.625-25.685-5.747-27.51-19.015c-0.016-1.178-0.021-2.367-0.015-3.535c0.16-4.042,1.367-7.09,3.393-9.375
			c0.714,5.141,3.157,8.599,5.843,11.844c0.961,1.088,2.021,2.113,3.179,3c3.119,1.907,5.948,5.404,9.271,6.268
			c1.902-2.61,0.553-7.495,3.913-8.368c2.889-0.723,8.086,1.108,11.366,2.214c3.897,1.312,6.951,3.093,7.928,5.497
			c-4.044,19.175,8.064,30.697,10.747,46.653c0.006,1.515,0.022,3.02,0.029,4.556c-0.729,7.107-4.221,10.969-7.851,15.947
			c-2.373,3.266-8.421,10.962-8.391,15.718c0.021,2.336,2.036,5.922,3.214,8.819c3.632,8.911,7.8,17.135,10.388,26.2
			C521.126,318.906,520.815,331.545,526.104,339.384z"/>
		<path d="M520.759,237.246c0.443,0.934,0.477,3.617,0.029,4.556C520.781,240.266,520.765,238.761,520.759,237.246z"/>
		<path d="M474.222,147.132c17.179,1.032,15.477,20.351,22.031,31.675c-13.102-1.793-18.722-12.997-30.951-16.469
			c-2.091-5.806,1.535-9.006,3.433-12.816c0.273-0.338,0.536-0.645,0.832-0.92c0.077-0.063,0.143-0.106,0.22-0.159
			c0.899-0.468,1.865-0.853,2.765-1.311C473.145,147.17,473.728,147.188,474.222,147.132z"/>
		<path fill="#FFFFFF" d="M484.491,144.534c1.357,1.065,2.582,2.226,3.709,3.523C486.854,146.982,485.618,145.811,484.491,144.534z"
			/>
		<path fill="#FFFFFF" d="M484.789,214.473c-0.002,2.031,0.017,4.062,0.025,6.071C484.38,219.126,484.355,215.917,484.789,214.473z"
			/>
		<path fill="#FFFFFF" d="M483.855,179.893c0.431,0.271,0.449,2.249,0,2.536C483.852,181.576,483.859,180.734,483.855,179.893z"/>
		<path d="M483.855,179.893c0.004,0.842-0.004,1.684,0,2.536c0.002,0.568,0.005,1.168,0.007,1.757
			c-3.98-2.743-9.308-4.184-10.057-10.03c-0.005-1.094-0.021-2.188-0.014-3.293c-0.012-0.158-0.013-0.336-0.014-0.505
			c0.922-0.605,1.994,0.809,3.184,1.485C479.993,173.634,483.682,174.99,483.855,179.893z"/>
		<path fill="#FFFFFF" d="M479.479,209.213c0.444,1.102,0.467,3.943,0.031,5.05C479.504,212.59,479.497,210.907,479.479,209.213z"/>
		<path d="M479.511,214.263c1.008,12.357-15.659,7.229-19.526,2.654c0.438-0.434,0.43-2.623-0.001-3.03
			c-1.387-16.406-24.257-22.055-22.072-41.544c0.944-8.339,11.696-19.327,22.383-11.237c-0.679,3.287-1.104,6.846-1.286,10.614
			c-0.435,1.255-0.411,4.295,0.022,5.556c0.887,15.188,7.25,25.104,20.445,28.401c-0.006,1.179-0.001,2.368,0.004,3.536
			C479.497,210.907,479.504,212.59,479.511,214.263z"/>
		<path fill="#FFFFFF" d="M474.354,181.981c1.169,0.887,2.229,1.901,3.179,3C476.375,184.094,475.315,183.069,474.354,181.981z"/>
		<path fill="#FFFFFF" d="M473.792,170.862c-0.007,1.105,0.009,2.199,0.014,3.293C473.353,173.632,473.354,171.391,473.792,170.862z
			"/>
		<path fill="#FFFFFF" d="M465.119,179.512c-0.006,1.168-0.001,2.357,0.015,3.535C464.681,182.439,464.671,180.104,465.119,179.512z
			"/>
		<path fill="#FFFFFF" d="M459.983,213.887c0.431,0.408,0.439,2.596,0.001,3.03C459.98,215.897,459.977,214.887,459.983,213.887z"/>
		<path fill="#FFFFFF" d="M459.008,171.72c0.007,1.841,0.025,3.683,0.022,5.556C458.597,176.016,458.573,172.975,459.008,171.72z"/>
		<path d="M445.398,199.076c6.367,8.463,15.565,20.592,8.312,32.263c-0.809,1.331-2.448,3.55-3.668,3.821
			c-1.581,0.346-3.938-0.544-5.029-1.243c-3.925-2.533-4.549-9.884-6.917-13.837c0.01-0.095-0.001-0.179-0.001-0.252
			c-1.568-1.706-3.246-3.295-5.033-4.768c-0.859-0.426-1.248-1.339-2.107-1.755c-0.739-0.49-1.356-1.076-1.865-1.756
			c-1.833-1.957-3.765-3.797-5.828-5.521c-2.36-1.869-4.195-4.226-6.085-6.529c-0.16-6.933,0.684-12.936,2.466-18.04
			c0.284-0.338,0.569-0.656,0.897-0.984c0.985-0.953,2.159-1.602,3.2-2.45c0.639,0.028,1.353-0.071,1.517-0.304
			c2.604-0.332,5.809-1.834,8.464-0.546C435.042,185.702,440.368,192.373,445.398,199.076z"/>
		<path d="M442.236,326.108c-0.006,1.263,0,2.525,0.005,3.788c-0.088,0-0.176,0.001-0.264,0.001
			C442.159,328.708,441.635,326.87,442.236,326.108z"/>
		<path d="M442.257,333.695c0.021,2.473,0.031,4.914,0.041,7.407c-0.077,0.011-0.165,0.012-0.241,0.012
			c-0.197-2.303,0.089-5.093-0.063-7.428C442.092,333.675,442.18,333.695,442.257,333.695z"/>
		<path d="M442.241,329.896c0.005,1.263,0.021,2.536,0.016,3.798c-0.077,0-0.165-0.02-0.264-0.009
			c-0.006-1.263-0.011-2.525-0.016-3.788C442.065,329.897,442.153,329.897,442.241,329.896z"/>
		<path d="M441.915,314.747c0.607,0.68,0.098,2.44,0.289,3.534C441.586,317.6,442.106,315.85,441.915,314.747z"/>
		<path d="M432.035,222.117c2.877,4.465,6.407,9.873,6.13,14.62c-0.193,3.8-2.857,5.678-4.12,8.948
			c-0.978,0.248-1.943,0.527-2.91,0.796c-13.596-1.601-15.784-17.866-24.155-24.191c-3.055-2.307-7.915-2.319-11.875-0.191
			c0.636-8.527,4.825-13.729,8.176-19.705c0.812-0.352,1.58-0.767,2.37-1.14c6.275-0.669,10.515,3.566,13.925,6.565
			c0.773,0.942,1.667,1.779,2.66,2.509C425.038,212.889,428.838,217.18,432.035,222.117z"/>
		<path fill="#FFFFFF" d="M438.096,219.828c0,0.074,0.011,0.158,0.001,0.252c-2.494-2.152-4.867-4.411-7.142-6.775
			c0.859,0.416,1.248,1.329,2.107,1.755C434.63,216.745,436.308,218.345,438.096,219.828z"/>
		<path fill="#FFFFFF" d="M433.062,215.061c1.787,1.473,3.465,3.062,5.033,4.768C436.308,218.345,434.63,216.745,433.062,215.061z"
			/>
		<path fill="#FFFFFF" d="M423.262,206.029c2.063,1.724,3.995,3.564,5.828,5.521C427.06,209.815,425.095,207.964,423.262,206.029z"
			/>
		<path fill="#FFFFFF" d="M419.575,207.819c1.003,0.73,1.875,1.557,2.66,2.509C421.242,209.598,420.349,208.761,419.575,207.819z"/>
	</g>
	<g>
	</g>
</g>
<g>
	<g>
		<path fill="#FFFFFF" d="M428.38,288.576c0.586-0.068,1.146-0.303,1.604-0.671c0.201-0.161,0.38-0.353,0.56-0.536
			c0.07-0.072,0.142-0.142,0.218-0.208c0.251-0.215-0.213,0.046,0.09-0.056c0.164-0.056,0.848-0.401,0.545-0.664
			c-0.314-0.272-0.932-0.067-1.262,0.044c-0.422,0.143-0.783,0.383-1.106,0.683c-0.147,0.136-0.287,0.28-0.429,0.424
			c-0.244,0.249-0.363,0.142,0.091,0.088c-0.337,0.04-0.985,0.219-1.114,0.593C427.441,288.662,428.213,288.595,428.38,288.576
			L428.38,288.576z"/>
	</g>
</g>
<g>
	<g>
		<path fill="#FFFFFF" d="M431.949,287.931c-0.191-0.017-0.383-0.201-0.545-0.294c-0.213-0.122-0.443-0.156-0.684-0.176
			c-0.311-0.025-0.678,0.037-0.975,0.128c-0.127,0.039-0.254,0.079-0.38,0.119c-0.323,0.12-0.405,0.011,0.208,0.015
			c-0.465-0.003-0.971,0.109-1.365,0.366c-0.317,0.206-0.247,0.418,0.119,0.445c0.702,0.051,1.469,0.273,1.922,0.845
			c0.301,0.377,2.132-0.273,1.818-0.667c-0.566-0.714-1.633-0.926-2.494-0.989c-0.415,0.271-0.831,0.541-1.246,0.812
			c0.557,0.004,1.072-0.112,1.592-0.311c-0.363,0.006-0.438,0.055-0.221,0.144c0.11,0.064,0.215,0.139,0.326,0.202
			c0.211,0.12,0.441,0.151,0.678,0.173c0.445,0.04,0.994-0.124,1.365-0.366C432.391,288.167,432.311,287.963,431.949,287.931
			L431.949,287.931z"/>
	</g>
</g>
<g>
	<g>
		<path fill="#FFFFFF" d="M430.638,288.392c-0.993,0.022-1.967-0.171-2.955,0.006c-0.043,0.182-0.086,0.363-0.13,0.545
			c0.893-0.171,1.77-0.57,2.575,0.043c0.276,0.211,1.168-0.174,0.896-0.381c-1.071-0.815-2.136-0.439-3.342-0.207
			c-0.185,0.035-0.495,0.111-0.548,0.332c-0.05,0.212,0.291,0.237,0.418,0.213c0.904-0.162,1.803,0.026,2.712,0.006
			c0.22-0.005,0.505-0.068,0.638-0.266C431.027,288.496,430.797,288.388,430.638,288.392L430.638,288.392z"/>
	</g>
</g>
<g>
	<g>
		<path fill="#FFFFFF" d="M428.42,288.778c0.727-0.056,1.639,0.375,2.164,0.859c0.252-0.135,0.504-0.27,0.756-0.405
			c-0.459-0.046-0.859-0.412-1.289-0.564c-0.512-0.182-1.025-0.262-1.566-0.273c-0.309-0.006-1.047,0.453-0.398,0.466
			c0.541,0.011,1.07,0.147,1.554,0.387c0.357,0.178,0.685,0.401,1.091,0.441c0.117,0.012,1.008-0.172,0.756-0.405
			c-0.662-0.613-1.764-1.042-2.67-0.973c-0.217,0.017-0.492,0.072-0.642,0.247C428.03,288.729,428.299,288.788,428.42,288.778
			L428.42,288.778z"/>
	</g>
</g>
<path d="M88.543,134.815c0,0-19.525-19.102-21.76-19.005c-2.234,0.101-49.261,100.106-48.322,100.942
	c0.938,0.833,17.561,15.73,19.02,14.965c1.463-0.767,13.51-38.303,13.51-38.303l26.038-2.107l8.022,56.65l17.439-8.876
	L88.543,134.815z M73.744,173.962L62.928,173c0,0,3.104-19.118,4.559-20.144c1.454-1.022,7.031,10.418,7.031,10.418L73.744,173.962z
	"/>
<path d="M90.536,260.249c0.138-1.064-63.001-12.841-63.001-12.841s-12.213,12.646-12.542,14.61
	c-0.328,1.965-16.254,87.836-14.913,88.926c1.34,1.095,15.858,13.844,16.98,13.827c1.121-0.02,56.852,0.327,60.189-0.955
	c3.338-1.285,7.756-7.915,7.756-7.915l2.672-37.018l8.02-2.437l0.699-9.683l-37.764,0.082l-4.324,11.936
	c0,0,13.668-0.36,15.979-1.442c2.31-1.085,3.643,21.959,2.602,23.729c-1.039,1.773-47.718,5.86-49.17,3.652
	c-1.453-2.208,5.283-69.455,5.283-69.455s1.775-1.965,3.4-1.991c1.626-0.023,56.672-0.619,57.754-0.88
	C91.236,272.132,90.396,261.31,90.536,260.249z"/>
<path d="M113.255,152.556l0.817,81.615l8.578,3.546l5.02-5.653l-0.246-41.89l26.498,47.883l8.712-2.004l5.185-6.195l3.39-75.545
	c0,0-2.892-5.617-4.437-6.085c-1.543-0.467-5.957,4.917-5.957,4.917l-1.956,3.285l-1.87,54.078l-29.711-58.828l-6.764-2.82
	L113.255,152.556z"/>
<path d="M184.637,227.111l12.174,6.358l8.188-6.537l6.3-87.24l15.123-3.55l3.227-8.891l-5.445-3.236l-61.367,2.493
	c0,0-7.721,14.229-5.743,15.398c1.979,1.171,35.951-2.002,35.951-2.002L184.637,227.111z"/>
<path d="M241.137,147.689l-7.17,8.563c0,0-9.76,72.328-9.029,72.985c0.732,0.655,8.903,8.102,11.623,7.884
	c2.715-0.219,11.008-7.119,11.994-8.787c0.988-1.671,5.071-70.846,5.071-70.846l-5.294-9.359L241.137,147.689z"/>
<path d="M240.002,139.842l-5.561-9.119c0,0,3.005-10.935,5.21-11.134c2.203-0.197,13.3-1.195,13.3-1.195l3.479,5.662
	c0,0-0.992,10.173-2.699,12.249C252.027,138.386,240.002,139.842,240.002,139.842z"/>
<path d="M273.877,178.11c-2.365,1.33-7.279,12.716-7.279,12.716s2.928,12.255,6.107,11.917c3.181-0.346,37.029-3.164,40.243-4.331
	c3.214-1.168,4.888-5.222,4.888-5.222s1.832-7.112,0.443-8.564C316.891,183.17,276.247,176.778,273.877,178.11z"/>
<path d="M160.755,338.287c0,0-14.054-30.169-11.235-31.036c2.82-0.869,11.75-3.713,11.75-3.713l3.74-5.617l3.117-43.142
	l-6.547-5.638l-50.468,5.157L97.51,356.478c0,0,4.896,3.481,8.025,3.673c3.131,0.188,9.021-2.941,9.021-2.941
	s4.766-47.221,7.387-48.548c2.623-1.328,8.503,0.758,8.503,0.758s4.3,21.188,6.761,24.8c2.459,3.611,13.826,21.465,15.462,22.703
	c1.636,1.239,11.058,8.381,11.058,8.381l7.979-6.41L160.755,338.287z M147.67,286.266c-0.736,0.12-21.768,3.565-23.023,3.009
	c-1.255-0.558-2.035-22.039-0.393-23.231c1.639-1.191,26.221,6.496,27.207,7.179C152.448,273.905,148.406,286.146,147.67,286.266z"
	/>
<path d="M218.414,255.891l-13.906-11.753l-10.061-0.554l-28.237,84.635c0,0,9.292,14.795,10.907,14.889
	c1.61,0.096,14.441-41.004,14.441-41.004l16.824-0.199c0,0,12.119,59.141,13.145,58.66c1.023-0.482,13.61-5.805,14.566-6.863
	C237.051,352.646,218.414,255.891,218.414,255.891z M210.248,283.612c0,0-9.924-0.583-11.277-0.664
	c-1.354-0.079,3.905-17.579,3.905-17.579s2.714-0.732,4.284,0.251c1.564,0.982,3.569,8.225,3.569,8.225L210.248,283.612z"/>
<path d="M242.488,250.767c0.955-0.876-2.176,84.563-1.184,85.128c0.994,0.562,9.871,5.64,11.631,6.043
	c1.756,0.403,10.472-5.238,10.383-6.501s-5.242-80.838-5.839-83.77c-0.597-2.931-7.397-7.864-7.397-7.864
	S241.528,251.645,242.488,250.767z"/>
<path d="M269.065,236.104c1.843,1.428,3.388,99.805,4.673,100.338c1.287,0.533,12.061,5.236,13.279,2.67
	c1.227-2.569-1.841-54.292-0.383-55.648c1.459-1.355,32.145,54.532,34.393,54.806c2.248,0.274,7.809-4.062,7.809-4.062
	l0.881-112.632c0,0-3.339-5.89-4.336-4.549c-1,1.341-8.32,11.154-8.32,11.154s-2.273,55.704-1.393,62.327
	c0.881,6.622-26.922-43.433-26.922-43.433l-11.121-14.67C277.625,232.405,267.228,234.676,269.065,236.104z"/>
<path d="M282.634,170.127c-0.063,0.161,0.006,0.494-0.138,0.556C282.557,170.515,282.482,170.188,282.634,170.127z"/>
<path d="M282.305,171.629c0.125,0.118-0.039,0.438-0.023,0.63c-0.025,0.001-0.036-0.001-0.063-0.003
	C282.25,172.046,282.277,171.837,282.305,171.629z"/>
<g>
	<g>
		<path d="M472.579,230.107c3.145-0.1,5.511-1.725,7.524-4.033c-0.6,0.118-1.199,0.236-1.799,0.354
			c2.494,2.901-2.375,5.059-4.726,5.317c-0.953,0.105-1.593,1.248-0.256,1.102c2.976-0.327,10.132-3.277,6.774-7.183
			c-0.434-0.504-1.465-0.028-1.799,0.354c-1.303,1.494-2.894,2.901-4.976,2.967c-0.444,0.014-1.008,0.132-1.274,0.533
			C471.802,229.891,472.258,230.118,472.579,230.107L472.579,230.107z"/>
	</g>
</g>
<g>
	<g>
		<path d="M470.854,228.548c2.502,0.241,4.852-0.334,6.939-1.743c-0.496-0.088-0.991-0.177-1.487-0.265
			c-0.753,1.045-1.649,1.689-2.972,1.733c-0.256,0.008-2.009,0.672-1.156,0.974c1.68,0.594,3.389,0.53,5.134,0.303
			c-0.21-0.214-0.419-0.428-0.63-0.643c-0.84,0.647-1.623,1.333-2.604,1.77c-1.259,0.56-0.089,1.036,0.746,0.735
			c1.576-0.567,2.859-1.44,3.772-2.863c0.116-0.182,0.091-0.366-0.122-0.457c-2.152-0.912-4.146,0.157-5.419,1.947
			c-0.263,0.37,0.222,0.528,0.513,0.526c0.954-0.004,1.856-0.073,2.756-0.404c1.088-0.398,0.363-1.053-0.494-0.82
			c-0.854,0.23-1.67,0.543-2.502,0.835c-0.584,0.204-0.861,0.944-0.01,0.889c2.439-0.158,4.105-1.619,5.902-3.134
			c-0.556-0.047-1.11-0.095-1.665-0.142c-1.011,1.615-2.646,2.481-4.196,3.495c-0.873,0.57,0.092,0.897,0.713,0.713
			c1.493-0.443,2.77-1.248,3.898-2.315c-0.515,0.105-1.028,0.21-1.543,0.315c0.082,0.042-0.119,0.278-0.191,0.427
			c-0.256,0.536,1.643,0.336,1.929-0.259c0.271-0.565,0.527-0.699-0.19-1.073c-0.426-0.222-1.213,0.003-1.543,0.315
			c-0.757,0.717-1.586,1.383-2.602,1.685c0.238,0.238,0.476,0.475,0.713,0.713c1.764-1.152,3.655-2.17,4.804-4.005
			c0.499-0.797-1.37-0.39-1.665-0.142c-0.979,0.826-2.236,2.278-3.598,2.366c-0.003,0.296-0.006,0.593-0.01,0.889
			c0.666-0.232,1.317-0.48,1.998-0.665c-0.165-0.273-0.33-0.547-0.494-0.82c-0.366,0.134-0.854,0.094-1.244,0.096
			c0.171,0.175,0.342,0.351,0.513,0.526c0.553-0.778,1.05-1.49,2.081-1.053c-0.04-0.152-0.081-0.305-0.122-0.457
			c-0.691,1.078-1.526,1.705-2.728,2.137c0.248,0.245,0.498,0.49,0.746,0.735c1.273-0.566,2.299-1.386,3.396-2.23
			c0.605-0.466-0.245-0.693-0.63-0.643c-1.312,0.17-2.599,0.251-3.866-0.197c-0.386,0.325-0.771,0.649-1.156,0.974
			c2.236-0.074,4.201-0.922,5.528-2.767c0.515-0.716-1.222-0.444-1.487-0.265c-1.406,0.947-2.857,1.421-4.561,1.257
			c-0.473-0.046-0.994,0.052-1.367,0.366C470.396,228.149,470.44,228.509,470.854,228.548L470.854,228.548z"/>
	</g>
</g>
<g>
	<g>
		<path d="M479.493,228.915c-0.165-0.065-0.327-0.086-0.505-0.1c-0.104,0.002-0.207,0.003-0.311,0.005
			c-0.188,0.005-0.128,0.025,0.177,0.061c-0.082-0.185,0.474-0.562,0.598-0.734c0.147-0.205,0.137-0.5,0.11-0.736
			c-0.041-0.378-0.067-0.672,0.092-1.032c0.146-0.329-0.67-0.22-0.777-0.202c-0.316,0.056-0.977,0.192-1.129,0.536
			c-0.148,0.333-0.186,0.661-0.144,1.021c0.042,0.364,0.095,0.676-0.238,0.925c-0.169,0.126-0.724,0.614-0.364,0.865
			c0.282,0.197,0.632,0.044,0.907,0.153c0.382,0.15,1.011-0.079,1.352-0.243C479.471,229.332,479.883,229.069,479.493,228.915
			L479.493,228.915z"/>
	</g>
</g>
<g>
	<g>
		<path fill="#FFFFFF" d="M474.102,225.009c-1.941,0.083-3.717,0.683-5.504,1.412c-0.23,0.094-0.939,0.473-0.43,0.705
			c1.723,0.782,3.734,0.417,5.287-0.581c-0.502-0.054-1.006-0.109-1.508-0.163c-0.834,0.648-2.018,0.644-3.012,0.874
			c-0.562,0.13-1.352,0.84-0.301,0.829c1.474-0.016,2.697-0.586,4.084-0.997c-0.151-0.222-0.303-0.444-0.454-0.667
			c-0.667,0.268-1.259,0.505-1.986,0.612c-0.54,0.079-1.774,0.937-0.562,0.884c2.656-0.117,4.695-1.536,7.088-2.495
			c1.268-0.508,0.082-0.9-0.707-0.584c-1.822,0.73-3.573,2.083-5.578,2.171c-0.188,0.295-0.375,0.589-0.562,0.884
			c1.06-0.155,2.021-0.488,3.014-0.888c1.063-0.427,0.38-0.914-0.454-0.667c-1.021,0.303-1.995,0.826-3.082,0.837
			c-0.1,0.276-0.199,0.552-0.301,0.829c1.543-0.357,3.026-0.454,4.32-1.46c0.851-0.661-1.146-0.396-1.508-0.163
			c-0.739,0.475-1.527,0.23-2.213-0.081c-0.143,0.235-0.287,0.47-0.43,0.705c1.299-0.53,2.574-1.027,3.996-1.088
			C473.891,225.892,475.393,224.955,474.102,225.009L474.102,225.009z"/>
	</g>
</g>
<g>
	<g>
		<path fill="#FFFFFF" d="M467.514,227.684c1.831-0.022,3.668-0.125,5.462-0.52c2.312-0.508,4.582-1.438,6.955-1.563
			c1.04-0.055,1.534-1.345,0.209-1.275c-1.746,0.092-3.343,0.564-5.009,1.067c-2.416,0.729-4.898,0.985-7.408,1.016
			C466.674,226.421,466.194,227.7,467.514,227.684L467.514,227.684z"/>
	</g>
</g>
<g>
	<g>
		<path fill="#FFFFFF" d="M472.561,226.953c1.662-0.039,3.228-0.341,4.828-0.778c1.082-0.296,1.875-0.518,2.703,0.402
			c0.532,0.59,0.791,1.498,1.061,2.228c0.222,0.601,2.131,0.023,1.932-0.518c-0.472-1.28-1.126-3.178-2.73-3.383
			c-2.342-0.298-4.647,1.014-7.012,1.069C472.703,225.989,471.262,226.983,472.561,226.953L472.561,226.953z"/>
	</g>
</g>
<g>
	<g>
		<path fill="#FFFFFF" d="M474.57,235.049c-0.26,0.252-0.541,0.469-0.83,0.686c-0.301,0.226-0.535,0.668-0.124,0.926
			c0.398,0.25,1.021,0.134,1.38-0.136c0.408-0.307,0.805-0.625,1.17-0.982c0.32-0.31,0.17-0.736-0.23-0.86
			C475.463,234.537,474.916,234.712,474.57,235.049L474.57,235.049z"/>
	</g>
</g>
<g>
	<g>
		<path d="M476.045,231.219c0.459,0,0.896-0.03,1.348-0.126c0.409-0.088,0.9-0.504,0.773-0.971
			c-0.132-0.496-0.746-0.541-1.156-0.453c-0.263,0.057-0.55,0.039-0.818,0.04c-0.443,0-1.01,0.338-1.055,0.816
			C475.086,231.039,475.635,231.219,476.045,231.219L476.045,231.219z"/>
	</g>
</g>
<g>
	<g>
		<path d="M477.104,227.457c2.727-0.225,3.377,4.223,4.049,6.098c0.297,0.827,2.219,0.281,1.932-0.518
			c-1.046-2.917-1.785-7.232-5.785-6.902C476.25,226.222,475.779,227.566,477.104,227.457L477.104,227.457z"/>
	</g>
</g>
<g>
	<g>
		<path d="M478.068,229.472c0.408,1.35,1.357,2.326,2.084,3.5c0.317,0.513,2.119-0.214,1.932-0.518
			c-0.726-1.172-1.676-2.152-2.083-3.5C479.852,228.462,477.928,229.005,478.068,229.472L478.068,229.472z"/>
	</g>
</g>
</svg>
