<?xml version="1.0" encoding="utf-8"?>
<!-- Generator: Adobe Illustrator 15.0.2, SVG Export Plug-In  -->
<!DOCTYPE svg PUBLIC "-//W3C//DTD SVG 1.1//EN" "http://www.w3.org/Graphics/SVG/1.1/DTD/svg11.dtd" [
	<!ENTITY ns_flows "http://ns.adobe.com/Flows/1.0/">
]>
<svg version="1.1"
	 xmlns="http://www.w3.org/2000/svg" xmlns:xlink="http://www.w3.org/1999/xlink" xmlns:a="http://ns.adobe.com/AdobeSVGViewerExtensions/3.0/"
	 x="0px" y="0px" width="812px" height="943px" viewBox="-202.799 -95.132 812 943"
	 overflow="visible" enable-background="new -202.799 -95.132 812 943" xml:space="preserve">
<defs>
</defs>
<polygon points="26.213,448.981 17.447,434.116 34.16,424.27 42.922,439.132 "/>
<path fill="#AAEBD9" stroke="#000000" stroke-width="9" stroke-miterlimit="10" d="M287.262,239.092l-10.265-79.755l-118.063-38.478
	c0,0-61.725-23.248-66.562-21.914c-4.839,1.334-41.453,55.042-42.359,60.392c-0.907,5.35-18.143,101.79-17.752,104.762
	c0.389,2.973,9.629,87.007,12.103,92.381c2.474,5.375,22.192,43.417,21.788,47.329c-0.406,3.912-28.299,21.663-38.963,32.959
	s69.42-25.856,75.174-25.821c5.754,0.035,104.948,0.696,112.261,0c7.312-0.697,52.05-3.172,56.89-5.419
	c4.84-2.247,20.98-87.14,20.98-87.14L287.262,239.092z"/>
<g id="XMLID_35_">
	<g>
		<path d="M372.736,132.817c-11.264-14.166-28.244-24.314-52.168-29.653c-0.072-0.156-0.493-0.077-0.706-0.157
			c-0.215-0.065-0.512-0.049-0.617-0.178c-0.051-1.317-0.151-2.579-0.329-3.804l3.966-0.024c0.009,0.061,0.005,0.105,0.03,0.152
			c24.396,5.786,42.506,15.982,54.242,30.596c0.122,0.265,0.293,0.49,0.507,0.719c0.582,0.846,1.181,1.678,1.797,2.482
			c0.139,0.237,0.295,0.46,0.469,0.641c7.929,12.044,11.956,26.832,9.654,46.026c-0.05,0.219-0.088,0.454-0.125,0.688
			c-0.012,0.282-0.228,0.694-0.084,0.887c-0.066,0.381-0.133,0.778-0.215,1.172c-0.27,1.585-0.538,3.169-0.823,4.768
			c-0.084,0.41-0.136,0.807-0.205,1.218c-0.205,0.145-0.146,0.612-0.246,0.886c-0.039,0.25-0.077,0.5-0.13,0.748
			c-0.535,2.365-1.122,4.65-1.776,6.884c0.824,0.928,1.742,1.806,2.532,2.806c0.319,0.507,0.655,1.002,1.07,1.444
			c4.523,6.962,6.251,15.88,5.042,26.858c-0.064,0.217-0.102,0.453-0.123,0.674c-0.014,0.297-0.23,0.724-0.087,0.917
			c-0.232,1.2-0.421,2.405-0.636,3.578c-0.003,0.029-0.006,0.044-0.009,0.088c-0.204,0.13-0.146,0.598-0.229,0.858
			c-0.037,0.235-0.072,0.456-0.141,0.703c-3.405,13.766-9.634,23.609-18.083,30.468c-0.185,0.072-0.327,0.178-0.488,0.326
			c-0.708,0.469-1.401,0.94-2.038,1.446c-0.217,0.099-0.359,0.205-0.506,0.354c-5.008,2.907-10.562,5.062-18.33,4.157
			c-0.914-0.147-1.829-0.294-2.729-0.439c-0.074-0.007-0.159-0.03-0.218-0.036c-0.029-0.002-0.088-0.008-0.146-0.014
			c-1.826,5.552-4.865,9.452-8.573,12.483c-0.157,0.104-0.327,0.192-0.487,0.326c-0.579,0.348-1.117,0.744-1.628,1.157
			c-0.213,0.069-0.358,0.205-0.519,0.338c-6.586,3.845-14.717,5.515-24.976,4.298c-0.281,0.018-0.688-0.2-0.862-0.067
			c-0.044-0.004-0.044-0.004-0.059-0.005c-1.22-0.191-2.454-0.383-3.673-0.589c-0.129-0.191-0.65-0.137-0.906-0.221
			c-8.046-1.856-16.565-9.408-21.843-14.951c0.291,0.192,0.581,0.398,0.857,0.589c6.897,4.624,14.765,8.819,24.773,11.1
			c0.13,0.191,0.594,0.116,0.835,0.199c0.9,0.146,1.786,0.29,2.685,0.45c0.249,0.009,0.631,0.18,0.79,0.061
			c7.468,0.802,13.315-0.564,18.049-3.527c0.596-0.376,1.164-0.769,1.722-1.208c4.621-3.496,7.877-8.896,10.212-15.607
			c1.363,0.533,2.805,1.028,4.454,1.349c0.493,0.226,1.511,0.383,2.03,0.343c6.373,0.697,10.925-1.135,15.045-3.545
			c0.283-0.197,0.563-0.349,0.824-0.607c0.152-0.06,0.295-0.166,0.409-0.274c0.297-0.181,0.566-0.378,0.808-0.594
			c7.784-6.221,13.502-15.323,16.581-28.002c0.171-0.088,0.12-0.481,0.198-0.682c0.176-0.147,0.119-0.63,0.219-0.904
			c0.216-1.187,0.431-2.359,0.648-3.561c-0.017-0.285,0.202-0.727,0.058-0.904c0.007-0.223,0.217-0.576,0.052-0.711
			c1.172-9.804-0.403-17.708-4.314-23.971c-0.36-0.556-0.735-1.099-1.173-1.618c-0.989-1.212-2.167-2.309-3.363-3.362
			c1.216-3.478,2.351-7.038,3.229-10.995c0.187-0.102,0.121-0.496,0.201-0.711c0.169-0.073,0.107-0.512,0.174-0.744
			c0.094-0.364,0.142-0.717,0.208-1.098c0.36-1.308,0.666-3.127,0.78-4.474c0.016-0.013,0.019-0.043,0.007-0.074
			c0.076-0.336,0.125-0.689,0.201-1.025c-0.021-0.24,0.177-0.624,0.042-0.756c2.167-18.089-2.061-31.703-9.57-43.036
			c-0.189-0.332-0.438-0.653-0.689-0.96c-0.269-0.428-0.557-0.813-0.902-1.205C373.239,133.417,372.989,133.095,372.736,132.817z"/>
		<path fill="#70F28E" d="M169.481,149.056c-0.228-0.395-0.455-0.789-0.667-1.197c0.318,0.522,0.641,1.015,0.965,1.479
			c0.026,0.032,0.037,0.063,0.064,0.096C169.724,149.303,169.602,149.187,169.481,149.056z"/>
		<path d="M165.104,140.095c0.479,0.389,0.745,1.771,1.021,2.423c0.301,0.715,0.598,1.459,0.973,2.166
			c-0.889-1.65-1.747-3.313-2.621-4.962C164.704,139.818,164.913,139.942,165.104,140.095z"/>
		<path d="M164.479,133.519c0.226,0.573,0.313,0.88,0.123,0.563C164.502,133.894,164.461,133.711,164.479,133.519z"/>
		<path d="M164.479,133.519c-0.019,0.192,0.022,0.375,0.123,0.563C164.793,134.399,164.705,134.092,164.479,133.519z
			 M209.378,77.754c0.294,0.013,0.729,0.234,0.92,0.088c1.161,0.186,2.292,0.383,3.455,0.553c0.015,0.001,0.029,0.003,0.058,0.005
			c0.115,0.19,0.607,0.118,0.848,0.23c0.53,0.006,0.896-0.585,1.319-1.007c1.229-1.135,2.536-2.174,3.652-3.066
			c0.297-0.18,0.581-0.377,0.837-0.591c0.375-0.218,0.737-0.467,1.06-0.749c0.325-0.178,0.655-0.385,0.913-0.614
			c14.279-8.659,31.919-12.687,54.078-10.484c0.237-0.007,0.587,0.19,0.732,0.04c0,0,0.03,0.003,0.045,0.004
			c0.304,0.059,0.637,0.12,0.929,0.148c0.438,0.042,1.007,0.26,1.355,0.159c0.015,0.001,0.044,0.004,0.059,0.005
			c1.073,0.177,2.146,0.354,3.251,0.519c0.014,0.001,0.025,0.047,0.055,0.05c0.277,0.176,0.914,0.147,1.317,0.245
			c0.304,0.059,0.578,0.115,0.841,0.14c0.044,0.004,0.058,0.021,0.087,0.023c0.058,0.17,0.476,0.105,0.69,0.17
			c15.674,3.299,27.24,10.113,35.021,18.922c0.357,0.421,0.742,0.712,0.973,1.077c0.254,0.427,0.232,0.961,0.369,1.541
			c0.732,2.978,2.017,6.202,1.46,9.876c-0.141,0.702-0.254,1.422-0.366,2.127c-0.059,0.621-0.498,1.369-0.454,1.835l-3.966,0.024
			c-0.748-5.29-2.634-9.779-5.355-13.692c-0.161-0.313-0.397-0.62-0.623-0.879c-5.875-7.628-15.074-12.994-27.908-15.783
			c-0.072-0.171-0.505-0.108-0.704-0.187c-0.336-0.032-0.711-0.112-1.061-0.161c-0.029-0.003-0.059-0.005-0.073-0.007
			c-1.063-0.28-2.673-0.553-3.774-0.599c-0.043-0.004-0.072-0.007-0.087-0.008c-0.377-0.081-0.754-0.131-1.145-0.213
			c-0.223,0.023-0.602-0.177-0.763-0.028c-0.221-0.006-0.584-0.22-0.701-0.067c-22.113-1.915-39.799,2.289-54.124,11.106
			c-0.466,0.254-0.849,0.56-1.26,0.849c-0.002,0.03-0.02,0.058-0.008,0.089c-2.15,1.375-3.922,3.264-5.802,5.053
			c-1.745-0.867-3.724-1.593-6.099-2.028c-0.67-0.243-1.875-0.432-2.581-0.44c-6.855-0.743-11.859,1.046-16.214,3.747
			c-0.437,0.257-0.86,0.529-1.23,0.852c-3.642,2.799-6.73,6.292-8.236,12.038c-0.182,0.504-0.334,1.489-0.308,1.999
			c-0.547,4.958,0.85,8.55,2.845,11.738c0.374,0.557,0.737,1.069,1.16,1.586c0.808,1.106,2.075,2.181,2.871,3.107
			c-3.464-1.687-4.741-4.821-7.542-6.981c-0.33-0.091-0.361,0.234-0.615,0.269c-0.531,0.322-1.068,0.703-1.563,1.089
			c-3.963,3.096-7.566,6.733-9.176,13.096c-0.184,0.072-0.137,0.509-0.203,0.741c-0.082,0.395-0.136,0.807-0.221,1.231
			c0.007,0.239-0.194,0.652-0.043,0.756c-0.741,11.634,4.125,19.33,8.971,27.083c0.119,0.295,0.395,0.5,0.528,0.796
			c0.563,0.874,1.204,1.74,1.832,2.576c1.127,0.853,1.939,1.915,2.893,2.885c-2.238-1.556-4.508-3.099-6.452-5.119
			c-1.744-1.806-4.114-3.836-6.288-6.072l-0.013-0.016c-0.027-0.032-0.038-0.063-0.064-0.096c-0.324-0.463-0.646-0.956-0.965-1.479
			c-0.578-1.04-1.142-2.092-1.704-3.145c0.002-0.015-0.013-0.016-0.012-0.031c-0.375-0.707-0.672-1.451-0.973-2.166
			c-0.276-0.652-0.542-2.035-1.021-2.423c-0.191-0.152-0.4-0.277-0.627-0.373c-0.363-0.676-0.726-1.352-1.089-2.027
			c-0.361-0.69-0.675-1.421-0.912-2.174c-0.011-0.046-0.008-0.076-0.019-0.121c-0.076-1.513-0.287-3.01-0.604-4.471l1.702-0.39
			c-0.054-0.363-0.046-0.601,0.117-0.615c-0.098-1.754-0.058-3.569,0.177-5.56c0.061-0.322,0.119-0.63,0.179-0.952
			c0.064-0.367,0.129-0.733,0.192-1.085c0.062-0.352,0.11-0.69,0.172-1.027c1.89-7.454,5.34-11.971,9.699-15.641
			c0.596-0.525,1.331-0.977,1.931-1.545c0.307-0.284,0.333-0.401,0.329-0.983c-0.064-1.78-0.244-4.079,0.117-6.013
			c0.131-0.763,0.246-1.512,0.394-2.273c1.309-5.69,4.142-9.282,7.684-11.972c0.455-0.285,0.868-0.603,1.312-0.918
			C191.938,78.149,199.701,76.623,209.378,77.754z"/>
	</g>
	<g>
		<path fill="none" stroke="#000000" stroke-width="4" stroke-miterlimit="10" d="M287.333,273.826
			c0.291,0.192,0.581,0.398,0.857,0.589c6.897,4.624,14.765,8.819,24.773,11.1c0.13,0.191,0.594,0.116,0.835,0.199
			c0.9,0.146,1.786,0.29,2.685,0.45c0.249,0.009,0.631,0.18,0.79,0.061c7.468,0.802,13.315-0.564,18.049-3.527
			c0.596-0.376,1.164-0.769,1.722-1.208c4.621-3.496,7.877-8.896,10.212-15.607c1.363,0.533,2.805,1.028,4.454,1.349
			c0.493,0.226,1.511,0.383,2.03,0.343c6.373,0.697,10.925-1.135,15.045-3.545c0.283-0.197,0.563-0.349,0.824-0.607
			c0.152-0.06,0.295-0.166,0.409-0.274c0.297-0.181,0.566-0.378,0.808-0.594c7.784-6.221,13.502-15.323,16.581-28.002
			c0.171-0.088,0.12-0.481,0.198-0.682c0.176-0.147,0.119-0.63,0.219-0.904c0.216-1.187,0.431-2.359,0.648-3.561
			c-0.017-0.285,0.202-0.727,0.058-0.904c0.007-0.223,0.217-0.576,0.052-0.711c1.172-9.804-0.403-17.708-4.314-23.971
			c-0.36-0.556-0.735-1.099-1.173-1.618c-0.989-1.212-2.167-2.309-3.363-3.362c1.216-3.478,2.351-7.038,3.229-10.995
			c0.187-0.102,0.121-0.496,0.201-0.711c0.169-0.073,0.107-0.512,0.174-0.744c0.094-0.364,0.142-0.717,0.208-1.098
			c0.36-1.308,0.666-3.127,0.78-4.474c0.016-0.013,0.019-0.043,0.007-0.074c0.076-0.336,0.125-0.689,0.201-1.025
			c-0.021-0.24,0.177-0.624,0.042-0.756c2.167-18.089-2.061-31.703-9.57-43.036c-0.189-0.332-0.438-0.653-0.689-0.96
			c-0.269-0.428-0.557-0.813-0.902-1.205c-0.173-0.344-0.423-0.667-0.676-0.944c-11.264-14.166-28.244-24.314-52.168-29.653
			c-0.072-0.156-0.493-0.077-0.706-0.157c-0.215-0.065-0.512-0.049-0.617-0.178c-0.051-1.317-0.151-2.579-0.329-3.804"/>
		<path fill="none" stroke="#000000" stroke-width="4" stroke-miterlimit="10" d="M164.48,133.504
			c-0.29-0.818-0.794-2.178-0.925-2.966c-0.054-0.363-0.046-0.601,0.117-0.615c-0.098-1.754-0.058-3.569,0.177-5.56
			c0.061-0.322,0.119-0.63,0.179-0.952c0.064-0.367,0.129-0.733,0.192-1.085c0.062-0.352,0.11-0.69,0.172-1.027
			c1.89-7.454,5.34-11.971,9.699-15.641c0.596-0.525,1.331-0.977,1.931-1.545c0.307-0.284,0.333-0.401,0.329-0.983
			c-0.064-1.78-0.244-4.079,0.117-6.013c0.131-0.763,0.246-1.512,0.394-2.273c1.309-5.69,4.142-9.282,7.684-11.972
			c0.455-0.285,0.868-0.603,1.312-0.918c6.08-3.804,13.844-5.33,23.521-4.199c0.294,0.013,0.729,0.234,0.92,0.088
			c1.161,0.186,2.292,0.383,3.455,0.553c0.015,0.001,0.029,0.003,0.058,0.005c0.115,0.19,0.607,0.118,0.848,0.23
			c0.53,0.006,0.896-0.585,1.319-1.007c1.229-1.135,2.536-2.174,3.652-3.066c0.297-0.18,0.581-0.377,0.837-0.591
			c0.375-0.218,0.737-0.467,1.06-0.749c0.325-0.178,0.655-0.385,0.913-0.614c14.279-8.659,31.919-12.687,54.078-10.484
			c0.237-0.007,0.587,0.19,0.732,0.04c0,0,0.03,0.003,0.045,0.004c0.304,0.059,0.637,0.12,0.929,0.148
			c0.438,0.042,1.007,0.26,1.355,0.159c0.015,0.001,0.044,0.004,0.059,0.005c1.073,0.177,2.146,0.354,3.251,0.519
			c0.014,0.001,0.025,0.047,0.055,0.05c0.277,0.176,0.914,0.147,1.317,0.245c0.304,0.059,0.578,0.115,0.841,0.14
			c0.044,0.004,0.058,0.021,0.087,0.023c0.058,0.17,0.476,0.105,0.69,0.17c15.674,3.299,27.24,10.113,35.021,18.922
			c0.357,0.421,0.742,0.712,0.973,1.077c0.254,0.427,0.232,0.961,0.369,1.541c0.732,2.978,2.017,6.202,1.46,9.876
			c-0.141,0.702-0.254,1.422-0.366,2.127c-0.059,0.621-0.498,1.369-0.454,1.835c0.009,0.061,0.005,0.105,0.03,0.152
			c24.396,5.786,42.506,15.982,54.242,30.596c0.122,0.265,0.293,0.49,0.507,0.719c0.582,0.846,1.181,1.678,1.797,2.482
			c0.139,0.237,0.295,0.46,0.469,0.641c7.929,12.044,11.956,26.832,9.654,46.026c-0.05,0.219-0.088,0.454-0.125,0.688
			c-0.012,0.282-0.228,0.694-0.084,0.887c-0.066,0.381-0.133,0.778-0.215,1.172c-0.27,1.585-0.538,3.169-0.823,4.768
			c-0.084,0.41-0.136,0.807-0.205,1.218c-0.205,0.145-0.146,0.612-0.246,0.886c-0.039,0.25-0.077,0.5-0.13,0.748
			c-0.535,2.365-1.122,4.65-1.776,6.884c0.824,0.928,1.742,1.806,2.532,2.806c0.319,0.507,0.655,1.002,1.07,1.444
			c4.523,6.962,6.251,15.88,5.042,26.858c-0.064,0.217-0.102,0.453-0.123,0.674c-0.014,0.297-0.23,0.724-0.087,0.917
			c-0.232,1.2-0.421,2.405-0.636,3.578c-0.003,0.029-0.006,0.044-0.009,0.088c-0.204,0.13-0.146,0.598-0.229,0.858
			c-0.037,0.235-0.072,0.456-0.141,0.703c-3.405,13.766-9.634,23.609-18.083,30.468c-0.185,0.072-0.327,0.178-0.488,0.326
			c-0.708,0.469-1.401,0.94-2.038,1.446c-0.217,0.099-0.359,0.205-0.506,0.354c-5.008,2.907-10.562,5.062-18.33,4.157
			c-0.914-0.147-1.829-0.294-2.729-0.439c-0.074-0.007-0.159-0.03-0.218-0.036c-0.029-0.002-0.088-0.008-0.146-0.014
			c-1.826,5.552-4.865,9.452-8.573,12.483c-0.157,0.104-0.327,0.192-0.487,0.326c-0.579,0.348-1.117,0.744-1.628,1.157
			c-0.213,0.069-0.358,0.205-0.519,0.338c-6.586,3.845-14.717,5.515-24.976,4.298c-0.281,0.018-0.688-0.2-0.862-0.067
			c-0.044-0.004-0.044-0.004-0.059-0.005c-1.22-0.191-2.454-0.383-3.673-0.589c-0.129-0.191-0.65-0.137-0.906-0.221
			c-8.046-1.856-16.565-9.408-21.843-14.951c-3.026-3.181-4.997-5.695-5.209-6.103"/>
		<path fill="none" stroke="#000000" stroke-width="4" stroke-miterlimit="10" d="M164.479,133.519
			c-0.019,0.192,0.022,0.375,0.123,0.563C164.793,134.399,164.705,134.092,164.479,133.519z"/>
		
			<line fill="none" stroke="#000000" stroke-width="4" stroke-miterlimit="10" x1="164.479" y1="133.519" x2="164.48" y2="133.504"/>
		<path fill="none" stroke="#000000" stroke-width="4" stroke-miterlimit="10" d="M165.708,131.757c0,0-1.13,0.876-1.228,1.747"/>
	</g>
</g>
<g id="XMLID_34_">
	<g>
		<path d="M452.582,194.004c-0.641,1.656-0.407,3.745,0.546,6.217c-12.649,2.119-21.47-3.843-33.439-3.136
			C428.727,190.344,442.162,195.485,452.582,194.004z"/>
		<path d="M420.76,172.771c7.688-3.058,26.628-8.642,34.291-3.506C449.042,178.229,431.143,170.884,420.76,172.771z"/>
		<path d="M439.928,220.599c-0.429,11.763-14.623-0.8-21.335,0.797C417.714,219.184,434.871,219.197,439.928,220.599z"/>
		<path d="M436.062,135.754c0.815,2.383,1.619,4.765,2.423,7.147c-6.868,6.375-18.358,3.204-27.297,5.97
			C417.918,142.963,425.294,141.263,436.062,135.754z"/>
		<path d="M420.213,239.995c1.603,10.325-7.818,2.453-11.558,2.271C409.402,238.514,416.721,241.461,420.213,239.995z"/>
		<path d="M418.219,119.398c0.974,5.222-8.352,5.127-12.894,7.506c-1.253-5.778,6.438-6.906,10.549-9.905
			C416.211,118.732,417.037,119.439,418.219,119.398z"/>
		<path d="M360.163,181.607c-0.394,4.579-3.67,5.511-5.277,8.515c7.249,5.715,11.789,27.522-2.88,28.521
			c7.328-8.766,8.375-27.559-7.481-28.145c1.655-2.999,4.776-4.11,9.2-3.548c-0.109-4.234,6.479-8.504,2.67-11.82
			C358.055,171.652,360.508,178.878,360.163,181.607z"/>
		<path d="M347.111,237.824c1.91,4.767-11.288,4.78-14.171,9.052C330.318,241.198,344.27,242.175,347.111,237.824z"/>
		<path d="M339.243,103.871c33.421,12.819,54.358,38.806,48.093,80.822c-1.598-0.905-3.173-1.808-4.76-2.711
			c5.673-36.699-13.588-62.543-44.49-74.978L339.243,103.871z"/>
		<path d="M346.458,47.996c0.19,4.974-3.263,4.023-4.502,6.695c-4.118,0.135,2.583-6.709-1.55-6.562
			C341.299,46.232,344.256,47.742,346.458,47.996z"/>
		<path d="M333.486,183.184c-3.624,3.295-9.942,3.151-15.177,4.381C321.387,183.575,327.706,183.719,333.486,183.184z"/>
		<path d="M319.229,251.444c-0.097,0.987-0.196,1.999-0.293,2.986c-6.078,1.858-14.128,1.213-16.952,7.206
			c0.317-4.396-1.655-5.487-9.734-5.643c3.506-1.201,18.416-2.467,24.222-6.394C317.612,250.033,317.761,251.27,319.229,251.444z"/>
		<path d="M329.077,31.506c2.44,3.984-2.737,5.686-2.617,11.774c-4.083-1.551-1.255-7.581-3.757-10.158
			C324.082,31.371,326.39,31.106,329.077,31.506z"/>
		<path d="M321.155,130.201c4.473-1.843-4.812,2.555-6.286,3.844c-1.852-1.206-2.383-3.5-2.31-6.33
			c1.456,0.16,2.913,0.321,4.381,0.495c-0.187,1.458-1.906,0.971-3.078,1.165C314.65,133.924,318.656,129.024,321.155,130.201z"/>
		<path d="M309.169,12.903c-2.059,10.654-3.56,14.827-3.493,22.387c-3.713-5.438-4.084-18.776-2.225-23.724
			C305.357,12.007,307.275,12.462,309.169,12.903z"/>
		<path d="M297.273,162.438c-5.834-3.377-3.457-13.624-10.142-16.298C287.918,142.493,303.52,155.653,297.273,162.438z"/>
		<path d="M275.107,90.147c13.94-3.134,26.321,6.348,27.618,18.258c-6.36-4.322-10.719-10.299-16.121-15.453
			C283.534,92.202,270.953,92.373,275.107,90.147z"/>
		<path d="M281.916,0.29c2.918,10.295-0.492,24.645-0.727,36.968c-6.188-8.593-1.838-23.978-5.99-33.896
			C276.266,0.434,280.836,3.229,281.916,0.29z"/>
		<path d="M257.61,205.08c1.965,18.542,17.087,26.109,38.371,28.574C277.459,244.282,252.142,223.009,257.61,205.08z"/>
		<path d="M261.539,93.19c3.188,3.624-6.781,4.806-10.796,4.863C251.707,93.061,260.105,97.559,261.539,93.19z"/>
		<path d="M258.774,36.631c-5.514-5.681-7.464-24.537-9.944-36.381C263.352,0.537,253.773,26.117,258.774,36.631z"/>
		<path d="M230.726,150.472c1.576-4.759,9.625-1.277,10.95-6.362C244.799,148.195,234.465,149.532,230.726,150.472z"/>
		<path d="M252.54,196.918c-13.108,7.007-28.802,10.748-44.221,14.817c9.409-4.979,14.128-15.891,22.821-21.744
			c-1.346,4.491-3.875,7.472-5.572,11.514c5.979,1.412,9.131-0.755,10.797-4.863c1.675,0.445,0.957,2.863,0.997,4.657
			C243.298,200.954,247.043,197.821,252.54,196.918z"/>
		<path d="M350.363,264c32.646,12.772,51.784-50.887,28.986-68.106c1.457-4.795,2.525-9.438,3.227-13.912
			c1.587,0.903,3.162,1.806,4.76,2.711c-0.506,3.345-1.168,6.802-2.021,10.354c22.362,20.029,4.2,82.518-31.186,75.456
			c-9.342,32.16-59.298,20.293-73.601-0.616c-13.675,5.694-31.01-2.722-37.111-11.736c-8.821,0.696-16.836,2.034-23.192,1.911
			c0.09-0.899,0.154-1.789,0.23-2.677l-0.012-0.001c0.1-1.012,0.188-2.051,0.254-3.091c10.91,2.146,17.702-0.957,27.538-0.159
			c1.248,7.228,18.863,17.46,29.688,12.41c0.539-4.565-4.891-4.173-3.461-9.488C288.996,276.989,339.131,305.707,350.363,264z"/>
		<path d="M254.184,224.421c-10.997,3.659-28.172,7.944-38.93,6.292C225.071,220.841,239.041,226.549,254.184,224.421z"/>
		<path d="M226.779,18.269c7.332,6.581,5.346,19.209,8.702,28.359c-5.01-2.646-9.104-16.77-14.311-23.494
			C222.388,20.435,226.979,23.294,226.779,18.269z"/>
		<path d="M198.332,193.925c6.518-4.705,8.806-14.77,16.548-17.898c0.612,4.748-4.294,2.439-3.681,7.187
			c4.175-1.492,7.591-3.899,12.278-4.713C218.908,181.747,206.176,189.204,198.332,193.925z"/>
		<path d="M206.586,41.378c5.629,2.665,6.536,8.361,7.378,14.113c-4.676-3.283-9.25-6.62-9.128-12.989
			C205.991,43.076,206.303,42.26,206.586,41.378z"/>
		<path d="M338.086,107.004c-6.622-2.682-13.773-4.731-21.332-6.138c-3.779-46.465-81.797-41.084-101.524-15.889
			c-3.731-1.683-7.399-2.413-10.85-2.418l-1.157-3.222c3.482-0.081,7.186,0.237,11.01,0.982
			c21.653-24.26,80.565-26.09,104.327,2.517c1.124,4.581,3.362,8.243,1.412,15.364c6.777,1.46,13.225,3.356,19.271,5.669
			L338.086,107.004z"/>
		<path d="M196.056,143.564c-6.691-1.755-9.605,1.329-14.86,1.385C182.469,141.309,197.188,139.294,196.056,143.564z"/>
		<path d="M202.855,120.034c-1.053,16.459,3.892,27.926,15.759,33.641c-1.836,5.807-13.542-1.923-14.115-6.138
			c-8.555,8.614-15.06,19.814-19.487,33.704c-0.964-0.518-2.021-0.944-3.087-1.27c-0.759-0.234-1.542-0.445-2.317-0.605
			c1.505-4.362,4.973-10.056,7.811-15.354c3.739-7.018,6.409-13.34,2.196-15.08c3.649-1.591,8.511-1.595,12.126-3.227
			C200.334,137.479,196.408,127.179,202.855,120.034z"/>
		<path fill="#FFFFFF" d="M196.056,143.564c1.133-4.271-13.587-2.255-14.86,1.385C186.45,144.894,189.364,141.81,196.056,143.564z
			 M198.332,193.925c7.844-4.721,20.576-12.178,25.146-15.424c-4.688,0.814-8.104,3.221-12.278,4.713
			c-0.613-4.748,4.293-2.439,3.681-7.187C207.138,179.155,204.85,189.22,198.332,193.925z M257.61,205.08
			c-5.469,17.929,19.849,39.203,38.371,28.574C274.697,231.189,259.575,223.622,257.61,205.08z M313.862,129.374
			c1.172-0.194,2.892,0.293,3.078-1.165c-1.468-0.174-2.925-0.334-4.381-0.495c-0.073,2.831,0.458,5.125,2.31,6.33
			c1.474-1.289,10.759-5.687,6.286-3.844C318.656,129.024,314.65,133.924,313.862,129.374z M344.524,190.499
			c15.856,0.586,14.81,19.379,7.481,28.145c14.669-0.999,10.129-22.806,2.88-28.521c1.607-3.004,4.884-3.936,5.277-8.515
			c0.345-2.729-2.108-9.956-3.769-6.478c3.809,3.316-2.779,7.586-2.67,11.82C349.301,186.389,346.18,187.5,344.524,190.499z
			 M237.362,201.299c-0.04-1.794,0.678-4.212-0.997-4.657c-1.666,4.108-4.817,6.275-10.797,4.863
			c1.697-4.042,4.227-7.023,5.572-11.514c-8.693,5.853-13.412,16.764-22.821,21.744c15.419-4.069,31.112-7.811,44.221-14.817
			C247.043,197.821,243.298,200.954,237.362,201.299z M287.132,146.14c6.685,2.675,4.308,12.921,10.142,16.298
			C303.52,155.653,287.918,142.493,287.132,146.14z M215.254,230.712c10.758,1.653,27.933-2.632,38.93-6.292
			C239.041,226.549,225.071,220.841,215.254,230.712z M286.604,92.953c5.402,5.153,9.761,11.131,16.121,15.453
			c-1.297-11.91-13.678-21.393-27.618-18.258C270.953,92.373,283.534,92.202,286.604,92.953z M338.086,107.004
			c30.902,12.434,50.163,38.279,44.49,74.978c-0.701,4.475-1.77,9.117-3.227,13.912c22.798,17.219,3.66,80.879-28.986,68.106
			c-11.232,41.707-61.367,12.989-75.899-6.945c-1.43,5.315,4,4.923,3.461,9.488c-10.825,5.05-28.44-5.183-29.688-12.41
			c-9.836-0.798-16.628,2.305-27.538,0.159c0.174-2.582,0.248-5.147,0.021-7.74c-0.329-4.205-2.114-8.884-5.639-11.417
			c-2.608-1.894-5.596-2.902-8.392-4.447c-0.052-1.228-0.311-2.462-0.79-3.667c-1.386-3.521-2.447-7.149-3.471-10.788
			c-0.241-2.28-0.461-4.544-0.886-6.791c-0.577-3.181-1.387-6.483-2.913-9.361c-1.377-2.637-2.261-5.506-3.561-8.186
			c-2.218-4.594-5.109-7.85-9.511-10.364c-0.175-0.092-0.358-0.21-0.546-0.291c4.428-13.889,10.933-25.089,19.487-33.704
			c0.573,4.214,12.279,11.944,14.115,6.138c-11.867-5.715-16.812-17.182-15.759-33.641c-6.447,7.145-2.521,17.445-1.115,25.671
			c-3.615,1.632-8.477,1.636-12.126,3.227c4.213,1.74,1.543,8.062-2.196,15.08l-2.411-2.064c0.117,0.049,0.222,0.109,0.338,0.17
			c-11.261-13.464-24.103-36.229-3.746-50.522c3.042,2.073,4.347,5.561,8.148,6.984c-16.637-13.824-4.133-35.993,14.633-36.02
			c3.45,0.005,7.118,0.735,10.85,2.418c19.728-25.195,97.745-30.576,101.524,15.889
			C324.312,102.273,331.464,104.323,338.086,107.004z M332.94,246.876c2.883-4.272,16.081-4.286,14.171-9.052
			C344.27,242.175,330.318,241.198,332.94,246.876z M318.31,187.565c5.234-1.23,11.553-1.086,15.177-4.381
			C327.706,183.719,321.387,183.575,318.31,187.565z M319.229,251.444c-1.468-0.174-1.616-1.411-2.758-1.845
			c-5.806,3.926-20.716,5.192-24.222,6.394c8.079,0.156,10.052,1.247,9.734,5.643c2.824-5.993,10.874-5.348,16.952-7.206
			C319.032,253.443,319.132,252.431,319.229,251.444z M250.743,98.053c4.015-0.057,13.983-1.239,10.796-4.863
			C260.105,97.559,251.707,93.061,250.743,98.053z M230.726,150.472c3.739-0.94,14.073-2.277,10.95-6.362
			C240.351,149.195,232.302,145.712,230.726,150.472z"/>
		<path d="M204.38,82.56c-18.766,0.027-31.27,22.196-14.633,36.02c-3.802-1.424-5.106-4.912-8.148-6.984
			c-20.356,14.292-7.515,37.058,3.746,50.522c-0.116-0.061-0.221-0.121-0.338-0.17l-0.011-0.014
			c-18.464-9.832-27.5-39.395-7.294-55.327c-2.32-17.655,9.265-26.896,25.521-27.269L204.38,82.56z"/>
		<path fill="#FFFFFF" d="M172.371,276.019c-2.203,0.893-4.164,0.951-5.962,0.52c2.329,0.039,4.788-0.717,6.84-1.825
			c0.164,0.078,0.327,0.156,0.479,0.233C173.334,275.414,172.894,275.739,172.371,276.019z"/>
		<path d="M140.351,301.298c3.503-1.302,16.153-6.675,17.642,0.462C150.785,299.932,146.571,301.874,140.351,301.298z"/>
		<path d="M153.438,275.74c-0.592,0.525-1.207,1.036-1.811,1.547c0.036-0.135,0.062-0.284,0.086-0.433
			C152.282,276.465,152.861,276.09,153.438,275.74z"/>
		<path d="M150.783,277.499c0.312-0.224,0.619-0.422,0.931-0.645c-0.024,0.149-0.05,0.298-0.086,0.433
			c-0.317,0.299-0.656,0.57-0.971,0.831C150.7,277.907,150.741,277.709,150.783,277.499z"/>
		<path d="M151.628,277.287c-0.327,1.546-1.061,2.865-2.062,4.059c0.045-0.097,0.091-0.206,0.136-0.303
			c0.438-1.006,0.741-1.974,0.956-2.925C150.972,277.856,151.311,277.585,151.628,277.287z"/>
		<path d="M151.714,276.854c-0.312,0.223-0.619,0.421-0.931,0.645l-0.011-0.014c0.115-0.632,0.194-1.268,0.227-1.921
			c0.266-0.266,0.529-0.506,0.78-0.735C151.84,275.528,151.807,276.206,151.714,276.854z"/>
		<path d="M133.77,308.153c6.773-3.584,25.177-1.665,13.261-0.032C142.962,308.664,141.426,309.568,133.77,308.153z"/>
		<path d="M151.714,276.854c0.093-0.647,0.126-1.325,0.065-2.024c-0.251,0.229-0.515,0.469-0.78,0.735
			c0.012-0.276,0.023-0.553,0.034-0.829c0.152-0.213,0.278-0.403,0.417-0.604c0.938-0.872,1.923-1.726,2.937-2.489
			c0.367-0.029,0.722-0.06,1.089-0.088c0.036,0.003,0.071,0.019,0.106,0.022c0.248,0.237,0.494,0.487,0.752,0.726
			c2.291,2.192,5.042,3.127,8,3.919c0.675,0.201,1.36,0.29,2.075,0.318c1.798,0.431,3.759,0.374,5.962-0.52
			c0.522-0.279,0.963-0.604,1.356-1.072c0.116,0.061,0.259,0.1,0.375,0.161c0.563,0.229,1.14,0.459,1.756,0.642
			c0.802,3.391,1.938,6.699,3.278,9.913l-0.395,0.203c-3.164,0.766-13.319,7.782-14.716-0.141c4.675,0.32,11.006,2.722,10.643-3.364
			c-2.156,0.632-11.503-0.069-17.322-3.459c-3.5,3.951-7.425,8.051-11.606,12.014l-2.011-2.191c0.681-0.707,1.3-1.406,1.87-2.097
			c1.566-1.544,2.994-3.165,3.951-5.258c0.014-0.011,0.014-0.011,0.015-0.024c1.002-1.193,1.735-2.513,2.062-4.059
			c0.604-0.511,1.219-1.022,1.811-1.547C152.861,276.09,152.282,276.465,151.714,276.854z"/>
		<path d="M144.961,313.957c-5.737,1.713-12.211,2.513-19.383,2.403C129.871,312.785,137.055,312.909,144.961,313.957z"/>
		<path d="M142.891,289.44c0.371-0.369,0.708-0.754,1.034-1.152c0.138-0.189,0.273-0.353,0.407-0.492
			c0.436-0.401,0.846-0.792,1.268-1.169c-0.57,0.691-1.189,1.39-1.87,2.097c-0.229,0.256-0.466,0.474-0.72,0.74
			C142.976,289.436,142.938,289.444,142.891,289.44z"/>
		<path d="M140.581,290.146c0.04-0.034,0.079-0.068,0.131-0.101c0.737-0.524,1.452-1.063,2.094-1.597
			c0.054-0.058,0.117-0.09,0.168-0.123c0.015-0.024,0.04-0.034,0.053-0.046c1.232-1.046,2.285-2.121,2.94-3.258
			c-0.139,0.075-0.265,0.126-0.406,0.214c0.256-0.304,0.524-0.582,0.768-0.862l0.013-0.011c1.209-0.922,2.315-1.917,3.21-2.994
			c-0.957,2.093-2.385,3.713-3.951,5.258c-0.422,0.377-0.832,0.768-1.268,1.169c-0.134,0.139-0.27,0.303-0.407,0.492
			c-0.326,0.398-0.663,0.783-1.034,1.152l-0.013-0.001c-1.166,1.128-2.562,1.944-4.062,2.448c0.463-0.575,1.045-1.126,1.687-1.672
			C140.528,290.192,140.553,290.182,140.581,290.146z"/>
		<polygon points="138.803,291.886 138.802,291.898 138.79,291.897 		"/>
		<path d="M137.681,292.223c-0.287,0.226-0.57,0.414-0.857,0.64c0.052-0.172,0.103-0.344,0.165-0.502c0,0,0,0,0.012,0.001
			C137.223,292.32,137.458,292.266,137.681,292.223z"/>
		<path d="M136.938,292.369l0.001-0.013c0.024,0.002,0.037,0.003,0.049,0.004c-0.062,0.158-0.113,0.33-0.165,0.502
			c-0.013-0.127-0.015-0.254-0.016-0.38C136.834,292.46,136.885,292.427,136.938,292.369z"/>
		<path d="M136.803,292.382c0.036,0.016,0.087-0.005,0.136-0.013c-0.054,0.058-0.104,0.091-0.131,0.114
			C136.81,292.458,136.799,292.432,136.803,292.382z"/>
		<path d="M135.447,293.883c0.141-0.504,0.34-0.965,0.596-1.408l0.001-0.013c0.255-0.001,0.514-0.041,0.759-0.081
			c-0.004,0.05,0.007,0.076,0.005,0.101C136.294,292.94,135.84,293.415,135.447,293.883z"/>
		<path d="M135.091,292.525c-1.066,0.67-2.121,1.342-3.15,2.003c0.715-0.678,1.405-1.358,2.097-2.038
			c0.01,0.014,0.01,0.014,0.01,0.014C134.396,292.537,134.749,292.544,135.091,292.525z"/>
		<path d="M131.574,295.113c-0.241,0.129-0.475,0.284-0.706,0.439c0.118-0.115,0.237-0.218,0.357-0.333l0.002-0.025
			c0,0,0,0,0.012,0.001C131.352,295.167,131.463,295.14,131.574,295.113z"/>
		<path d="M130.691,295.346c0.401-0.278,0.801-0.544,1.223-0.795c-0.213,0.22-0.45,0.438-0.675,0.644
			c-0.012-0.001-0.012-0.001-0.012-0.001l-0.002,0.025C131.053,295.241,130.854,295.286,130.691,295.346z"/>
		<path d="M131.914,294.551c-0.422,0.251-0.821,0.517-1.223,0.795l-0.012-0.001c-0.014,0.011-0.014,0.011-0.025,0.01
			c-0.062,0.007-0.1,0.028-0.174,0.047c0.521-0.57,1.033-1.14,1.554-1.672c0.389-0.431,0.767-0.862,1.098-1.323l0.001-0.013
			c0.299,0.053,0.6,0.093,0.904,0.096c-0.691,0.68-1.382,1.36-2.097,2.038C131.929,294.528,131.916,294.539,131.914,294.551z"/>
		<path d="M130.654,295.355c-0.129,0.089-0.231,0.155-0.336,0.233c0.055-0.07,0.12-0.127,0.162-0.187
			C130.555,295.384,130.593,295.362,130.654,295.355z"/>
		<path d="M128.943,297.025c0.466-0.474,0.908-0.95,1.362-1.425l0.013-0.011c0.104-0.079,0.207-0.145,0.336-0.233
			c0.012,0.001,0.012,0.001,0.025-0.01l0.012,0.001c0.163-0.061,0.361-0.105,0.534-0.127c-0.12,0.115-0.239,0.218-0.357,0.333
			c-0.013,0.011-0.026,0.022-0.039,0.034c0,0-0.013,0.011-0.026,0.022c-0.001,0.013-0.013,0.012-0.027,0.036
			C130.145,296.052,129.533,296.525,128.943,297.025z"/>
		<path d="M128.885,327.359c0.984,5.211-4.762,1.816-7.588,2.172c0.099-1,0.196-2,0.295-2.999
			C124.035,326.809,126.455,327.071,128.885,327.359z"/>
		<path d="M124.27,300.627c0.243-0.129,0.473-0.259,0.717-0.425c0.193-0.108,0.374-0.23,0.566-0.364
			c-0.432,0.363-0.871,0.676-1.336,0.986C124.234,300.763,124.252,300.701,124.27,300.627z"/>
		<path fill="#FFFFFF" d="M123.959,301.002c0.091-0.067,0.166-0.098,0.246-0.179c-0.005,0.062-0.012,0.137-0.041,0.198
			C124.104,301.015,124.031,301.009,123.959,301.002z"/>
		<path fill="#FFFFFF" d="M124.205,300.823c-0.08,0.081-0.155,0.111-0.246,0.179c-0.036-0.003-0.085-0.008-0.133-0.012
			c0.042-0.059,0.071-0.12,0.115-0.204c0.113-0.053,0.214-0.094,0.328-0.159c-0.018,0.074-0.035,0.135-0.053,0.197L124.205,300.823z
			"/>
		<path d="M123.959,301.002c-0.063,0.032-0.128,0.076-0.205,0.12c0.028-0.048,0.044-0.084,0.072-0.132
			C123.874,300.994,123.923,300.999,123.959,301.002z"/>
		<path d="M130.775,295.644c-2.379,2.226-4.836,4.369-7.433,6.31c0.133-0.278,0.265-0.543,0.411-0.832
			c0.077-0.043,0.142-0.088,0.205-0.12c0.072,0.007,0.145,0.013,0.205,0.019c0.029-0.061,0.036-0.135,0.041-0.198l0.012,0.001
			c0.465-0.31,0.904-0.623,1.336-0.986c1.221-0.757,2.328-1.764,3.365-2.803c0.013-0.011,0.013-0.011,0.025-0.01
			C129.533,296.525,130.145,296.052,130.775,295.644z"/>
		<path d="M123.742,301.121c-0.386,0.242-0.758,0.459-1.161,0.636c0.148-0.163,0.297-0.338,0.434-0.515l0.013-0.011
			c0.304-0.136,0.62-0.283,0.914-0.445c-0.044,0.084-0.073,0.145-0.115,0.204c-0.028,0.048-0.044,0.084-0.072,0.132L123.742,301.121
			z"/>
		<path d="M120.301,324.874c-2.9-2.728,5.719-5.031,10.644-3.377C129.916,325.828,122.27,321.765,120.301,324.874z"/>
		<path d="M121.834,301.965c0.045-0.097,0.089-0.181,0.146-0.289c0.112-0.028,0.188-0.059,0.289-0.112
			C122.113,301.688,121.993,301.816,121.834,301.965z"/>
		<path d="M122.556,301.78c-0.432,0.49-0.908,0.95-1.421,1.382c0.22-0.283,0.381-0.596,0.625-1.04l0.002-0.012
			C122.037,302.022,122.301,301.908,122.556,301.78z"/>
		<path d="M121.834,301.965c0.159-0.149,0.279-0.277,0.436-0.401c0.013,0.001,0.024,0.002,0.024,0.002
			c0.24-0.104,0.479-0.208,0.721-0.324c-0.137,0.177-0.285,0.352-0.434,0.515c-0.014,0.024-0.014,0.024-0.014,0.024
			c-0.012-0.001-0.012-0.001-0.012-0.001c-0.255,0.128-0.519,0.242-0.794,0.33c0.028-0.048,0.057-0.096,0.071-0.132L121.834,301.965
			z"/>
		<path d="M121.676,302.114c0.098-0.142,0.183-0.286,0.277-0.403c0.001-0.013,0.003-0.025,0.003-0.025l0.024-0.01
			c-0.058,0.108-0.102,0.192-0.146,0.289l-0.001,0.012C121.77,302.01,121.718,302.055,121.676,302.114z"/>
		<path d="M121.676,302.114c0.042-0.059,0.094-0.104,0.157-0.137c-0.015,0.037-0.043,0.084-0.071,0.132l-0.002,0.012
			c-0.05,0.021-0.088,0.042-0.137,0.038c-0.011-0.014,0.002-0.025,0.025-0.01C121.661,302.138,121.663,302.126,121.676,302.114z"/>
		<path d="M121.953,301.711c-0.095,0.117-0.18,0.261-0.277,0.403c-0.013,0.012-0.015,0.024-0.027,0.036
			c-0.023-0.015-0.036-0.003-0.025,0.01c0,0-0.012-0.001-0.013,0.011c-0.013-0.001-0.015,0.024-0.015,0.024l-0.014,0.011
			c-0.311,0.085-0.635,0.181-0.968,0.238c0.309-0.198,0.629-0.383,0.938-0.594C121.689,301.813,121.815,301.762,121.953,301.711z"/>
		<path fill="#FFFFFF" d="M116.095,351.722c24.715-16.36,43.461-40.309,66.193-59.186c0,0,0.011,0.014,0.01,0.026
			c0.062,0.119,0.114,0.225,0.168,0.306c-3.295,2.141-6.001,5.207-8.772,8.039c-2.77,2.53-5.632,5.001-8.349,7.625
			c-2.612,2.532-5.135,5.161-7.646,7.803c-4.651,4.903-9.3,9.781-14.13,14.504c-6.257,5.914-12.791,11.525-19.947,16.31
			c-0.969,0.654-1.778,1.461-2.438,2.334c-0.916,0.344-1.77,0.807-2.572,1.375c-0.791,0.292-1.551,0.651-2.283,1.112
			C116.263,351.889,116.184,351.806,116.095,351.722z"/>
		<path d="M120.198,304.033c0.278-0.265,0.566-0.515,0.845-0.779C120.84,303.5,120.576,303.74,120.198,304.033z"/>
		<path d="M120.08,304.136c0.558-0.692,1.075-1.338,1.502-1.929l0.014-0.011c0,0,0.002-0.025,0.015-0.024
			c0.001-0.013,0.013-0.011,0.013-0.011c0.049,0.004,0.087-0.017,0.137-0.038c-0.244,0.444-0.405,0.757-0.625,1.04
			c-0.013,0.024-0.026,0.035-0.053,0.058c-0.014,0.011-0.027,0.035-0.039,0.034c-0.278,0.264-0.566,0.515-0.845,0.779
			c-0.012-0.001-0.038,0.021-0.038,0.021C120.134,304.078,120.107,304.1,120.08,304.136z"/>
		<path d="M124.24,299.288c-0.155,0.389-0.358,0.773-0.594,1.105c0,0,0.011,0.014-0.015,0.036c-0.456,0.349-0.914,0.735-1.338,1.137
			c0,0-0.012-0.001-0.024-0.002c-0.102,0.053-0.177,0.084-0.289,0.112c0.014-0.012,0.016-0.037,0.03-0.061
			c-0.015,0.024-0.03,0.061-0.055,0.071c0,0-0.002,0.012-0.003,0.025c-0.138,0.05-0.264,0.102-0.4,0.14
			c-0.31,0.21-0.63,0.396-0.938,0.594c-0.199,0.057-0.383,0.078-0.579,0.098c-0.034-0.028-0.043-0.067-0.065-0.094
			c0.517-0.923,1.052-1.769,1.657-2.595c0.014-0.012,0.014-0.012,0.014-0.012c0.355-0.32,0.722-0.626,1.091-0.958
			c0.025-0.01,0.026-0.023,0.038-0.034c0.003-0.013,0.015-0.011,0.04-0.021c0.026-0.023,0.04-0.047,0.065-0.057
			c0.024,0.002,0.025-0.023,0.025-0.023c0.039-0.021,0.066-0.057,0.104-0.079c0.532-0.392,1.101-0.781,1.655-1.158
			c-0.017,0.339-0.07,0.675-0.158,0.994c-0.6,0.462-1.138,0.929-1.615,1.401C123.328,299.72,123.782,299.523,124.24,299.288z"/>
		<path d="M120.068,304.122l0.012,0.014c0,0-0.012-0.001-0.025,0.01C120.068,304.134,120.068,304.134,120.068,304.122z"/>
		<path fill="#FFFFFF" d="M115.119,306.715c1.324-1.693,2.841-3.356,4.5-4.993c-0.699,1.07-1.542,2.392-2.311,3.695
			c-1.457,1.252-2.858,2.144-4.975,3.284c-2.641,1.47-5.907,1.155-8.739-0.104c-1.479-0.465-2.876-1.187-4.091-2.169
			c-0.453-0.395-0.869-0.787-1.268-1.228c-4.177-1.458-7.479-5.434-8.019-9.91c-0.059-0.447-0.072-0.852-0.085-1.269
			c-2.158,0.09-4.228-0.152-6.406-0.82c-0.83-0.241-1.501-0.631-2.055-1.124c-1.471,0.86-2.986,0.959-4.351,0.568
			c-4.473-0.125-7.91-6.496-4.933-10.318c0.393-0.745,0.898-1.392,1.512-2.029c1.321-1.378,2.978-2.271,4.732-2.751
			c1.121-0.741,2.271-1.404,3.461-1.949c0.508-0.395,1.015-0.776,1.545-1.143c0.284-0.201,0.58-0.388,0.877-0.587
			c0.234-0.18,0.467-0.347,0.733-0.474c1.438-0.9,2.955-1.718,4.554-2.377c0.246-0.166,0.492-0.345,0.739-0.524
			c0.064-0.044,0.14-0.076,0.203-0.107c-0.069-0.044-0.14-0.076-0.21-0.095c-0.561-0.127-1.114-0.191-1.668-0.255
			c-1.562,0.07-3.108,0.254-4.65,0.527c19.408-12.589,69.727-39.805,69.727-39.805l27.981-50.785
			c1.065,0.326,2.123,0.751,3.087,1.27c0.188,0.081,0.371,0.199,0.546,0.291c4.401,2.514,7.293,5.77,9.511,10.364
			c1.3,2.68,2.184,5.549,3.561,8.186c1.526,2.878,2.336,6.181,2.913,9.361c0.425,2.247,0.645,4.511,0.886,6.791
			c1.023,3.638,2.085,7.267,3.471,10.788c0.479,1.205,0.738,2.439,0.79,3.667c2.796,1.545,5.783,2.554,8.392,4.447
			c3.524,2.533,5.31,7.213,5.639,11.417c0.228,2.593,0.153,5.159-0.021,7.74c-0.065,1.041-0.154,2.079-0.254,3.091l-16.811,3.436
			l-5.321,10.011l-18,17.55c-0.421-0.896-0.807-1.79-1.176-2.719c-1.34-3.214-2.477-6.522-3.278-9.913
			c-0.616-0.183-1.192-0.413-1.756-0.642c-0.116-0.061-0.259-0.1-0.375-0.161c-0.151-0.077-0.314-0.155-0.479-0.233
			c-2.052,1.108-4.511,1.864-6.84,1.825c-0.715-0.029-1.4-0.117-2.075-0.318c-2.958-0.792-5.709-1.727-8-3.919
			c-0.258-0.239-0.504-0.488-0.752-0.726c-0.035-0.003-0.07-0.019-0.106-0.022c-0.367,0.029-0.722,0.059-1.089,0.088
			c-1.014,0.763-1.999,1.618-2.937,2.489c-0.139,0.202-0.265,0.392-0.417,0.604c-0.011,0.276-0.022,0.553-0.034,0.829
			c-2.933,2.729-6.561,5.912-9.488,9.436l-0.026,0.01c-0.903,0.623-1.742,1.327-2.444,2.144l-0.012-0.001
			c-0.87,0.651-1.754,1.313-2.624,1.964c-0.004,0.038-0.027,0.035-0.039,0.034c-3.987,2.417-8.015,5.159-11.686,8.135
			c-0.003-0.252-0.015-0.531-0.063-0.813c-1.068,0.973-1.945,1.989-2.743,3.062l-0.011-0.014c-0.562,0.452-1.126,0.93-1.679,1.421
			c0.031-0.073,0.061-0.121,0.089-0.168c-0.042,0.059-0.098,0.142-0.141,0.214c0,0,0,0-0.013-0.001
			C118.214,302.664,116.506,304.574,115.119,306.715z"/>
		<path d="M121.135,303.162c0.513-0.432,0.989-0.892,1.421-1.382c0,0,0,0,0.012,0.001c0,0,0,0,0.014-0.024
			c0.403-0.177,0.775-0.395,1.161-0.636l0.012,0.001c-0.146,0.289-0.278,0.554-0.411,0.832l-0.002,0.013
			c-1.117,0.842-2.268,1.644-3.45,2.391c0.055-0.07,0.107-0.116,0.164-0.211c0.014-0.012,0.025-0.01,0.025-0.01
			c0.027-0.036,0.054-0.058,0.08-0.081c0,0,0.026-0.023,0.038-0.021c0.378-0.293,0.642-0.534,0.845-0.779
			c0.012,0.001,0.025-0.023,0.039-0.034C121.108,303.197,121.122,303.186,121.135,303.162z"/>
		<path d="M119.646,304.511c0.133-0.126,0.276-0.239,0.408-0.365c-0.057,0.095-0.109,0.141-0.164,0.211
			c-0.025,0.01-0.025,0.01-0.025,0.01C119.799,304.425,119.722,304.493,119.646,304.511z"/>
		<path d="M119.132,304.842c0.363-0.269,0.664-0.506,0.923-0.696c-0.132,0.126-0.275,0.239-0.408,0.365
			C119.467,304.621,119.311,304.745,119.132,304.842z"/>
		<path d="M131.94,294.529c1.029-0.661,2.084-1.333,3.15-2.003l0.024-0.01c0.303,0.003,0.619,0.007,0.928-0.04
			c-0.256,0.443-0.455,0.904-0.596,1.408c0.393-0.468,0.847-0.943,1.36-1.4c0.001,0.126,0.003,0.252,0.016,0.38
			c0.287-0.226,0.57-0.414,0.857-0.64c0.024,0.002,0.026-0.022,0.038-0.021c0.358-0.068,0.72-0.173,1.071-0.304l0.012,0.001
			l0.001-0.012l0.013,0.001c1.501-0.504,2.896-1.32,4.062-2.448l0.013,0.001c0.048,0.004,0.085-0.004,0.119,0.024
			c0.254-0.267,0.491-0.484,0.72-0.74l2.011,2.191c-10.958,10.422-23.648,19.927-34.725,23.806c3.098-3.382,5.856-7.2,9.787-9.534
			c-0.435-0.015-0.843-0.078-1.253-0.116c-0.07-0.032-0.143-0.038-0.216-0.045c0.19-0.222,0.367-0.445,0.531-0.657
			c0,0,0,0,0.025-0.01c1.183-0.748,2.333-1.549,3.45-2.391l0.002-0.013c2.597-1.941,5.054-4.084,7.433-6.31
			c0.015-0.024,0.026-0.023,0.027-0.036c0.014-0.011,0.026-0.022,0.026-0.022c0.013-0.012,0.026-0.023,0.039-0.034
			c0.231-0.155,0.465-0.31,0.706-0.439c-0.111,0.027-0.223,0.055-0.335,0.083c0.225-0.207,0.462-0.424,0.675-0.644
			C131.916,294.539,131.929,294.528,131.94,294.529z"/>
		<path d="M119.865,304.368c-0.164,0.212-0.341,0.435-0.531,0.657c-0.07-0.019-0.144-0.014-0.215-0.033
			c0.171-0.148,0.344-0.321,0.527-0.481C119.722,304.493,119.799,304.425,119.865,304.368z"/>
		<path fill="#FFFFFF" d="M118.89,305.539c0.149-0.175,0.297-0.338,0.444-0.514c0.073,0.007,0.146,0.013,0.216,0.045
			C119.331,305.213,119.123,305.371,118.89,305.539z"/>
		<path d="M118.808,304.938c0.899-0.988,1.827-1.886,2.774-2.731c-0.427,0.591-0.944,1.237-1.502,1.929l-0.012-0.014
			c0,0.012,0,0.012-0.014,0.024c-0.259,0.19-0.56,0.427-0.923,0.696c0.179-0.097,0.335-0.221,0.515-0.331
			c-0.184,0.16-0.356,0.333-0.527,0.481C119.012,304.97,118.904,304.947,118.808,304.938z"/>
		<path d="M119.596,303.271c0.158-0.149,0.293-0.301,0.428-0.452c0.204-0.12,0.397-0.241,0.591-0.374
			c0.333-0.058,0.657-0.153,0.968-0.238c-0.947,0.846-1.875,1.743-2.774,2.731c-0.06-0.005-0.12-0.011-0.18-0.029
			c0.246-0.456,0.479-0.914,0.714-1.371c0.001-0.013,0.013-0.012,0.014-0.024c0.014-0.012,0.014-0.012,0.026-0.023
			C119.449,303.421,119.526,303.365,119.596,303.271z"/>
		<path fill="#FFFFFF" d="M118.395,305.366c0.074-0.157,0.16-0.313,0.233-0.458c0.06,0.018,0.12,0.024,0.18,0.029
			C118.663,305.063,118.528,305.228,118.395,305.366z"/>
		<path fill="#FFFFFF" d="M118.862,305.574c-0.414,0.302-0.843,0.603-1.259,0.93c0.472-0.537,0.987-1.019,1.516-1.512
			c0.071,0.019,0.145,0.014,0.215,0.033c-0.147,0.175-0.295,0.338-0.444,0.514C118.888,305.563,118.877,305.55,118.862,305.574z"/>
		<path d="M119.342,303.538c-0.234,0.458-0.468,0.915-0.714,1.371c-0.203-0.031-0.407-0.063-0.609-0.119
			C118.427,304.424,118.877,303.999,119.342,303.538z"/>
		<path d="M115.264,309.83c0.137-0.895,1.004-2.63,2.045-4.413c0.235-0.192,0.472-0.397,0.71-0.627
			c0.202,0.056,0.406,0.088,0.609,0.119c-0.073,0.145-0.159,0.301-0.233,0.458c0.134-0.139,0.269-0.303,0.413-0.428
			c0.097,0.009,0.204,0.032,0.312,0.054c-0.528,0.493-1.044,0.975-1.516,1.512c0.416-0.327,0.845-0.628,1.259-0.93
			C117.658,307,116.377,308.471,115.264,309.83z"/>
		<path d="M107.435,335.573c1.966-4.483,13.101-3.679,16.327-1.21C122.172,339.7,112.931,335.25,107.435,335.573z"/>
		<path fill="#FFFFFF" d="M96.065,331.279c-1.98,5.365-10.04,2.991-16.469,2.711c-0.188-4.872-5.021-5.913-4.776-11.148
			c7.1,1.667,14.751-4.081,17.489,1.948c-0.108,5.5-7.961,1.142-10.645,3.377C84.279,334.083,93.957,325.977,96.065,331.279z"/>
		<path d="M69.456,317.679c2.541,4.649,15.389,4.465,19.086,0.621c-1.768-5.586-7.928,0.476-11.344-4.305
			c3.273,0.795,5.509,0.233,6.122-2.371c-4.599,0.621-2.378-4.432-6.976-3.811c-1.772,0.264-6.12,5.448-7.437,0.698
			c0.274-2.484,4.129-0.387,4.677-2.517c-3.749-1.911-7.366-3.936-12.813-4.466c4.342,9.847,4.199,7.829,13.358,13.658
			C72.334,315.713,70.671,316.417,69.456,317.679z M77.761,276.81c-6.98,4.296-10.741,12.687-16.376,18.722
			c23.705,2.587,32.629,28.521,43.979,45.877c-1.678,1.421-10.716,1.945-11.651-1.294c3.58,0.622,7.039,1.094,7.576-2.186
			c-4.631-4.641-10.563,0.32-17.476-1.96c-1.763,7.05,5.852,5.006,8.124,6.982c-0.114,0.204,5.093,11.708,13.667,10.636
			c2.352-5.015,15.444-8.316,8.793-14.204c5.441,0.744,3.996,2.148,8.751,0.975c3.789-5.903,8.661-10.408,14.628-13.524
			c0.725-2.909-1.657-3.205-2.451-4.842c19.009-6.259,28.712-24.375,43.417-36.127l0.395-0.203c0.369,0.929,0.755,1.823,1.176,2.719
			c0.621,1.394,1.291,2.793,1.976,4.155c-22.732,18.877-41.479,42.826-66.193,59.186c0.089,0.084,0.168,0.167,0.233,0.249
			c-0.977,0.604-1.879,1.364-2.674,2.262c-0.853,0.312-1.709,0.661-2.531,1.039c-1.874,0.873-3.746,1.872-5.575,2.926
			c-28.929-5.291-33.679-39.185-53.821-54.645c5.935-14.027,15.133-23.906,26.027-31.61c2.146-0.507,4.305-1.013,6.463-1.381
			c-6.203,4.015-9.252,6.545-6.477,6.209L77.761,276.81z M92.31,324.79c-2.738-6.029-10.39-0.282-17.489-1.948
			c-0.244,5.236,4.588,6.276,4.776,11.148c6.429,0.28,14.488,2.654,16.469-2.711c-2.108-5.302-11.786,2.804-14.4-3.112
			C84.349,325.931,92.201,330.29,92.31,324.79z"/>
		<path d="M77.74,276.771c-2.775,0.335,0.273-2.194,6.477-6.209c1.542-0.273,3.089-0.458,4.65-0.527
			c0.554,0.064,1.107,0.128,1.668,0.255c0.07,0.019,0.141,0.051,0.21,0.095c-0.063,0.032-0.139,0.063-0.203,0.107
			c-0.247,0.179-0.493,0.358-0.739,0.524c-1.599,0.659-3.115,1.477-4.554,2.377c-0.267,0.127-0.499,0.294-0.733,0.474
			c-0.297,0.2-0.593,0.387-0.877,0.587c-2.203,0.464-4.145,1.28-5.878,2.355L77.74,276.771z"/>
		<path fill="#FFFFFF" d="M88.542,318.3c-3.697,3.844-16.545,4.028-19.086-0.621c1.215-1.262,2.878-1.965,4.674-2.493
			c-9.159-5.83-9.017-3.812-13.358-13.658c5.447,0.53,9.064,2.555,12.813,4.466c-0.548,2.13-4.402,0.033-4.677,2.517
			c1.316,4.75,5.664-0.434,7.437-0.698c4.598-0.621,2.377,4.432,6.976,3.811c-0.613,2.604-2.849,3.166-6.122,2.371
			C80.614,318.775,86.774,312.713,88.542,318.3z"/>
		<path fill="#FFFFFF" d="M125.578,316.359c7.172,0.11,13.646-0.69,19.383-2.403C137.055,312.909,129.871,312.785,125.578,316.359z
			 M157.992,301.76c-1.488-7.137-14.139-1.764-17.642-0.462C146.571,301.874,150.785,299.932,157.992,301.76z M120.301,324.874
			c1.969-3.109,9.615,0.954,10.644-3.377C126.02,319.843,117.4,322.146,120.301,324.874z M107.435,335.573
			c5.496-0.323,14.737,4.127,16.327-1.21C120.535,331.894,109.4,331.089,107.435,335.573z M121.297,329.531
			c2.826-0.356,8.572,3.039,7.588-2.172c-2.43-0.289-4.85-0.55-7.293-0.827C121.493,327.532,121.396,328.531,121.297,329.531z
			 M115.264,309.83c1.113-1.359,2.395-2.83,3.599-4.256c0.015-0.024,0.025-0.01,0.027-0.035c0.233-0.167,0.441-0.325,0.66-0.469
			c0.41,0.038,0.818,0.101,1.253,0.116c-3.931,2.334-6.689,6.152-9.787,9.534c11.076-3.879,23.767-13.384,34.725-23.806
			c4.182-3.963,8.106-8.063,11.606-12.014c5.819,3.39,15.166,4.091,17.322,3.459c0.363,6.086-5.968,3.684-10.643,3.364
			c1.396,7.922,11.552,0.906,14.716,0.141c-14.705,11.751-24.408,29.868-43.417,36.127c0.794,1.637,3.176,1.933,2.451,4.842
			c-5.967,3.116-10.839,7.621-14.628,13.524c-4.755,1.174-3.31-0.231-8.751-0.975c6.651,5.887-6.441,9.188-8.793,14.204
			c-8.574,1.072-13.781-10.432-13.667-10.636c-2.272-1.976-9.887,0.068-8.124-6.982c6.912,2.28,12.845-2.681,17.476,1.96
			c-0.537,3.279-3.996,2.807-7.576,2.186c0.936,3.239,9.974,2.715,11.651,1.294c-11.351-17.356-20.274-43.29-43.979-45.877
			c5.635-6.035,9.396-14.425,16.376-18.722c1.733-1.075,3.675-1.892,5.878-2.355c-0.53,0.367-1.037,0.749-1.545,1.143
			c-1.189,0.545-2.34,1.208-3.461,1.949c-1.755,0.48-3.411,1.374-4.732,2.751c-0.613,0.637-1.119,1.284-1.512,2.029
			c-2.978,3.822,0.46,10.194,4.933,10.318c1.364,0.391,2.88,0.292,4.351-0.568c0.554,0.493,1.225,0.882,2.055,1.124
			c2.179,0.668,4.248,0.911,6.406,0.82c0.013,0.417,0.026,0.822,0.085,1.269c0.539,4.476,3.842,8.452,8.019,9.91
			c0.398,0.441,0.814,0.833,1.268,1.228c1.215,0.982,2.611,1.705,4.091,2.169c2.832,1.259,6.099,1.574,8.739,0.104
			c2.116-1.141,3.518-2.032,4.975-3.284C116.268,307.2,115.4,308.935,115.264,309.83z M147.03,308.121
			c11.916-1.632-6.487-3.552-13.261,0.032C141.426,309.568,142.962,308.664,147.03,308.121z"/>
	</g>
	<g>
		<polyline fill="none" stroke="#020202" stroke-width="0.25" stroke-miterlimit="10" points="185.007,161.947 187.418,164.012 
			189.035,165.41 		"/>
		
			<line fill="none" stroke="#020202" stroke-width="0.25" stroke-miterlimit="10" x1="182.823" y1="160.068" x2="184.996" y2="161.934"/>
		
			<line fill="none" stroke="#000000" stroke-width="5" stroke-miterlimit="10" x1="220.456" y1="257.385" x2="220.631" y2="257.338"/>
		<polyline fill="none" stroke="#000000" stroke-width="5" stroke-miterlimit="10" points="179.159,289.497 180.312,288.381 
			198.312,270.831 203.634,260.82 220.444,257.384 		"/>
		<path fill="none" stroke="#000000" stroke-width="5" stroke-miterlimit="10" d="M77.74,276.771
			c-2.775,0.335,0.273-2.194,6.477-6.209c19.408-12.589,69.727-39.805,69.727-39.805l27.981-50.785l1.9-3.443"/>
		<path fill="none" stroke="#000000" stroke-miterlimit="10" d="M142.094,285.848c0.713-0.375,1.401-0.753,2.076-1.106"/>
		<path fill="none" stroke="#000000" stroke-miterlimit="10" d="M138.377,287.938c0.242-0.129,0.475-0.284,0.703-0.401
			c0.269-0.152,0.524-0.305,0.78-0.445c0.739-0.411,1.479-0.821,2.192-1.209"/>
		<path fill="none" stroke="#000000" stroke-miterlimit="10" d="M136.404,289.117c0.667-0.405,1.308-0.787,1.959-1.155"/>
		<path fill="none" stroke="#000000" stroke-miterlimit="10" d="M123.005,298.669c0.539-0.467,1.103-0.944,1.675-1.383
			c3.671-2.976,7.698-5.718,11.686-8.135"/>
		<path fill="none" stroke="#000000" stroke-miterlimit="10" d="M121.641,299.841c0.355-0.32,0.722-0.626,1.091-0.958"/>
		<path fill="none" stroke="#000000" stroke-miterlimit="10" d="M119.645,301.712c0.014-0.011,0.027-0.035,0.041-0.047
			c0.094-0.104,0.197-0.183,0.304-0.287c0.529-0.505,1.07-0.998,1.638-1.525"/>
		<path fill="none" stroke="#000000" stroke-miterlimit="10" d="M120.119,300.987c-1.905,1.677-3.613,3.587-5,5.728
			c1.324-1.693,2.841-3.356,4.5-4.993"/>
		<path fill="none" stroke="#000000" stroke-miterlimit="10" d="M120.184,300.955c-0.023-0.015-0.037,0.009-0.052,0.033"/>
		<path fill="none" stroke="#000000" stroke-miterlimit="10" d="M121.862,299.521c-0.562,0.452-1.126,0.93-1.679,1.421"/>
		<path fill="none" stroke="#000000" stroke-miterlimit="10" d="M122.731,298.883c-0.297,0.199-0.583,0.425-0.858,0.652"/>
		<path fill="none" stroke="#000000" stroke-miterlimit="10" d="M122.731,298.883c0.025-0.01,0.026-0.023,0.038-0.034"/>
		<path fill="none" stroke="#000000" stroke-miterlimit="10" d="M122.81,298.828c-0.025,0.01-0.037,0.009-0.04,0.021"/>
		<path fill="none" stroke="#000000" stroke-miterlimit="10" d="M122.81,298.828c0.026-0.023,0.04-0.047,0.065-0.057
			c0.024,0.002,0.025-0.023,0.025-0.023"/>
		<path fill="none" stroke="#000000" stroke-miterlimit="10" d="M124.66,297.511c-0.555,0.377-1.123,0.766-1.655,1.158
			c-0.038,0.022-0.065,0.057-0.104,0.079"/>
		<path fill="none" stroke="#000000" stroke-miterlimit="10" d="M127.659,295.569c-1.014,0.625-2.017,1.263-2.986,1.943"/>
		<path fill="none" stroke="#000000" stroke-miterlimit="10" d="M129.49,294.478c-0.613,0.347-1.205,0.733-1.807,1.081"/>
		<path fill="none" stroke="#000000" stroke-miterlimit="10" d="M130.617,293.813c0,0-0.013-0.001-0.014,0.011
			c-0.381,0.192-0.728,0.412-1.088,0.643"/>
		<path fill="none" stroke="#000000" stroke-miterlimit="10" d="M135.655,290.901c-1.665,0.993-3.362,1.933-5.037,2.9"/>
		<path fill="none" stroke="#000000" stroke-miterlimit="10" d="M137.268,289.953c-0.524,0.317-1.061,0.608-1.587,0.938"/>
		<path fill="none" stroke="#000000" stroke-miterlimit="10" d="M138.499,289.21c-0.408,0.227-0.819,0.479-1.231,0.743"/>
		<path fill="none" stroke="#000000" stroke-miterlimit="10" d="M138.706,289.065c-0.064,0.044-0.129,0.077-0.193,0.121"/>
		<path fill="none" stroke="#000000" stroke-miterlimit="10" d="M145.394,282.938c0.77-0.32,1.52-0.565,2.229-0.752
			c-2.585,2.648-5.667,4.847-8.903,6.867"/>
		<path fill="none" stroke="#000000" stroke-miterlimit="10" d="M143.486,283.783c0.635-0.32,1.268-0.614,1.883-0.847"/>
		<path fill="none" stroke="#000000" stroke-miterlimit="10" d="M141.511,285c0.245-0.167,0.503-0.344,0.772-0.508
			c0.386-0.242,0.77-0.471,1.15-0.663"/>
		<path fill="none" stroke="#000000" stroke-miterlimit="10" d="M139.04,287.154c0.702-0.817,1.541-1.521,2.444-2.144"/>
		<path fill="none" stroke="#000000" stroke-miterlimit="10" d="M136.892,291.368c0.004-0.05,0.023-0.136,0.028-0.187
			c0.072-0.422,0.182-0.84,0.348-1.229c0.159-0.427,0.35-0.812,0.577-1.195c0.146-0.277,0.327-0.55,0.519-0.797l0.014-0.024
			c0.205-0.271,0.412-0.542,0.651-0.785"/>
		<path fill="none" stroke="#000000" stroke-miterlimit="10" d="M136.823,292.863c-0.013-0.127-0.015-0.254-0.016-0.38
			c0.002-0.025-0.009-0.051-0.005-0.101c0.005-0.328,0.022-0.667,0.074-0.99"/>
		<path fill="none" stroke="#000000" stroke-miterlimit="10" d="M137.681,292.223c-0.287,0.226-0.57,0.414-0.857,0.64"/>
		<path fill="none" stroke="#000000" stroke-miterlimit="10" d="M140.502,290.215c-0.92,0.671-1.863,1.328-2.783,1.987"/>
		<path fill="none" stroke="#000000" stroke-miterlimit="10" d="M142.806,288.449c-0.642,0.533-1.356,1.072-2.094,1.597"/>
		<path fill="none" stroke="#000000" stroke-miterlimit="10" d="M145.561,285.236c0.142-0.088,0.268-0.139,0.406-0.214
			c-0.655,1.137-1.708,2.212-2.94,3.258"/>
		<path fill="none" stroke="#000000" stroke-miterlimit="10" d="M144.333,285.803c0.405-0.189,0.8-0.392,1.19-0.558"/>
		<path fill="none" stroke="#000000" stroke-miterlimit="10" d="M138.109,289.917c1.748-1.667,4.025-3.006,6.158-4.057"/>
		<path fill="none" stroke="#000000" stroke-miterlimit="10" d="M137.501,290.492c0.188-0.197,0.375-0.394,0.596-0.562"/>
		<path fill="none" stroke="#000000" stroke-miterlimit="10" d="M136.659,291.523c0.072-0.132,0.155-0.25,0.261-0.342
			c0.125-0.19,0.274-0.365,0.458-0.525"/>
		<path fill="none" stroke="#000000" stroke-miterlimit="10" d="M136.044,292.462c0.186-0.323,0.384-0.645,0.615-0.939"/>
		<path fill="none" stroke="#000000" stroke-miterlimit="10" d="M136.938,292.369c-0.054,0.058-0.104,0.091-0.131,0.114
			c-0.514,0.457-0.968,0.932-1.36,1.4c0.141-0.504,0.34-0.965,0.596-1.408"/>
		<path fill="none" stroke="#000000" stroke-miterlimit="10" d="M137.018,292.301c-0.026,0.022-0.052,0.033-0.078,0.056"/>
		<path fill="none" stroke="#000000" stroke-miterlimit="10" d="M145.537,285.234l-0.014,0.012
			c-2.518,2.566-6.004,4.803-8.506,7.055"/>
		<path fill="none" stroke="#000000" stroke-miterlimit="10" d="M145.537,285.234c0,0,0,0,0.013-0.011c0,0,0,0,0.011,0.014"/>
		<path fill="none" stroke="#000000" stroke-miterlimit="10" d="M146.328,284.374c-0.243,0.28-0.512,0.558-0.768,0.862"/>
		<path fill="none" stroke="#000000" stroke-miterlimit="10" d="M148.618,279.782c-0.216,1.657-1.063,3.18-2.277,4.581"/>
		<path fill="none" stroke="#000000" stroke-miterlimit="10" d="M138.719,289.054c1.02-1.116,2.153-2.146,3.334-3.171
			c0.004-0.025,0.016-0.024,0.016-0.024c0.025-0.01,0.025-0.01,0.025-0.01c1.103-0.957,2.219-1.925,3.275-2.912
			c0,0,0.013,0.001,0.024,0.002c0.808-0.77,1.58-1.556,2.286-2.411c0.349-0.384,0.678-0.82,0.983-1.258
			c-0.004,0.176-0.029,0.338-0.044,0.5"/>
		<polyline fill="none" stroke="#000000" stroke-miterlimit="10" points="138.719,289.054 138.707,289.052 138.706,289.065 		"/>
		<path fill="none" stroke="#000000" stroke-miterlimit="10" d="M138.343,289.473c0.109-0.141,0.242-0.28,0.363-0.408"/>
		<path fill="none" stroke="#000000" stroke-miterlimit="10" d="M137.103,291.035l0.013-0.011c0.084-0.131,0.169-0.262,0.263-0.367
			c0.027-0.035,0.04-0.059,0.067-0.082c0.003-0.025,0.027-0.035,0.028-0.048c0,0,0,0,0.013-0.011
			c0.002-0.013,0.014-0.011,0.015-0.024c0.26-0.329,0.533-0.682,0.828-1.008"/>
		<path fill="none" stroke="#000000" stroke-miterlimit="10" d="M137.879,290.337c-0.274,0.227-0.525,0.456-0.764,0.686"/>
		<path fill="none" stroke="#000000" stroke-miterlimit="10" d="M144.268,285.86c-2.233,1.521-4.553,2.92-6.388,4.465"/>
		<path fill="none" stroke="#000000" stroke-miterlimit="10" d="M144.268,285.86c0.002-0.025,0.012,0.001,0.015-0.024
			c0.024-0.01,0.025-0.023,0.025-0.023"/>
		<path fill="none" stroke="#000000" stroke-miterlimit="10" d="M149.551,281.369c-0.895,1.077-2.001,2.072-3.21,2.994l-0.013,0.011
			c-0.649,0.482-1.324,0.975-1.995,1.429c-0.014,0.024-0.025,0.01-0.025,0.01"/>
		<path fill="none" stroke="#000000" stroke-miterlimit="10" d="M151.793,274.805l-0.014,0.024c0.061,0.699,0.027,1.377-0.065,2.024
			c-0.024,0.149-0.05,0.298-0.086,0.433c-0.327,1.546-1.061,2.865-2.062,4.059"/>
		<path fill="none" stroke="#000000" stroke-miterlimit="10" d="M140.874,285.76c0.192-0.26,0.396-0.505,0.61-0.75l0.026-0.01
			c2.928-3.524,6.556-6.706,9.488-9.436c0.266-0.266,0.529-0.506,0.78-0.735"/>
		<path fill="none" stroke="#000000" stroke-miterlimit="10" d="M140.71,285.972c0.042-0.072,0.084-0.131,0.149-0.188"/>
		<path fill="none" stroke="#000000" stroke-miterlimit="10" d="M138.513,289.186c0.4-0.694,0.851-1.409,1.348-2.095
			c0.25-0.368,0.522-0.708,0.795-1.049"/>
		<path fill="none" stroke="#000000" stroke-miterlimit="10" d="M138.513,289.186c-0.013,0.011-0.014,0.024-0.014,0.024"/>
		<path fill="none" stroke="#000000" stroke-miterlimit="10" d="M137.88,290.325c0.062-0.146,0.133-0.265,0.217-0.396
			c0.012,0.001,0.013-0.012,0.013-0.012c0.062-0.158,0.135-0.29,0.22-0.434l0.001-0.012l0.013,0.001
			c0.046-0.109,0.102-0.192,0.156-0.263"/>
		<path fill="none" stroke="#000000" stroke-miterlimit="10" d="M137.88,290.325c0,0,0,0-0.001,0.012"/>
		<path fill="none" stroke="#000000" stroke-miterlimit="10" d="M137.6,290.904l0.013-0.011c0.078-0.195,0.165-0.363,0.267-0.556"/>
		<path fill="none" stroke="#000000" stroke-miterlimit="10" d="M137.018,292.301c0.163-0.477,0.36-0.938,0.58-1.372"/>
		<path fill="none" stroke="#000000" stroke-miterlimit="10" d="M137,292.362c-0.011-0.013,0.004-0.037,0.016-0.049l0.002-0.012"/>
		<path fill="none" stroke="#000000" stroke-miterlimit="10" d="M136.823,292.863c0.052-0.172,0.103-0.344,0.165-0.502"/>
		<path fill="none" stroke="#000000" stroke-miterlimit="10" d="M130.911,293.361c-0.469,0.36-0.925,0.722-1.396,1.106
			c0,0-0.024-0.002-0.025,0.01c-0.104,0.079-0.208,0.157-0.3,0.237"/>
		<path fill="none" stroke="#000000" stroke-miterlimit="10" d="M141.106,285.593c-0.076,0.043-0.155,0.112-0.232,0.167
			l-0.015,0.024c-0.599,0.461-1.221,0.908-1.819,1.37l-0.012-0.001c-0.87,0.651-1.754,1.313-2.624,1.964
			c-0.004,0.038-0.027,0.035-0.039,0.034c-1.795,1.372-3.615,2.754-5.439,4.187"/>
		<path fill="none" stroke="#000000" stroke-miterlimit="10" d="M153.491,275.694c-0.027,0.036-0.027,0.036-0.053,0.046
			c-0.592,0.525-1.207,1.036-1.811,1.547c-0.317,0.299-0.656,0.57-0.971,0.831c-0.681,0.567-1.347,1.111-2.038,1.652
			c-0.001,0.013-0.001,0.013-0.001,0.013c-0.315,0.273-0.639,0.508-0.938,0.745c-1.396,1.119-2.789,2.188-4.193,3.256
			c-0.025,0.01-0.039,0.034-0.053,0.045c-0.741,0.562-1.507,1.134-2.248,1.696"/>
		<path fill="none" stroke="#000000" stroke-miterlimit="10" d="M150.783,277.499c0.312-0.224,0.619-0.422,0.931-0.645
			c0.568-0.389,1.147-0.764,1.725-1.114"/>
		<path fill="none" stroke="#000000" stroke-miterlimit="10" d="M141.159,285.547c0.014-0.012,0.014-0.012,0.026-0.023
			c0.359-0.358,0.729-0.702,1.098-1.033c2.707-2.511,5.489-4.901,8.489-7.006"/>
		<path fill="none" stroke="#000000" stroke-miterlimit="10" d="M141.159,285.547c-0.025,0.01-0.025,0.01-0.025,0.01
			s0,0-0.001,0.012c-0.025,0.01-0.025,0.01-0.026,0.023"/>
		<path fill="none" stroke="#000000" stroke-miterlimit="10" d="M134.047,292.504c0.532-0.531,1.078-1.085,1.608-1.604
			c0,0,0.014-0.012,0.025-0.01c0.717-0.703,1.447-1.43,2.164-2.132c0.41-0.391,0.812-0.82,1.235-1.222
			c0.518-0.507,1.022-1.002,1.575-1.494c0.001-0.012,0.014-0.024,0.027-0.035c0.001-0.013,0.014-0.024,0.027-0.035
			c0.132-0.126,0.265-0.253,0.396-0.379"/>
		<path fill="none" stroke="#000000" stroke-miterlimit="10" d="M131.94,294.529c0.715-0.678,1.405-1.358,2.097-2.038"/>
		<path fill="none" stroke="#000000" stroke-miterlimit="10" d="M131.239,295.195c0.225-0.207,0.462-0.424,0.675-0.644"/>
		<path fill="none" stroke="#000000" stroke-miterlimit="10" d="M130.868,295.552c0.118-0.115,0.237-0.218,0.357-0.333"/>
		<path fill="none" stroke="#000000" stroke-miterlimit="10" d="M123.343,301.954c2.597-1.941,5.054-4.084,7.433-6.31"/>
		<path fill="none" stroke="#000000" stroke-miterlimit="10" d="M119.891,304.357c1.183-0.748,2.333-1.549,3.45-2.391"/>
		<path fill="none" stroke="#000000" stroke-miterlimit="10" d="M119.081,304.875c0.013-0.011,0.024-0.01,0.038-0.021v-0.013
			l0.013,0.001c0.179-0.097,0.335-0.221,0.515-0.331c0.075-0.018,0.152-0.086,0.219-0.144"/>
		<path fill="none" stroke="#000000" stroke-miterlimit="10" d="M120.055,304.146c-0.259,0.19-0.56,0.427-0.923,0.696"/>
		<path fill="none" stroke="#000000" stroke-miterlimit="10" d="M121.043,303.254c-0.203,0.246-0.467,0.486-0.845,0.779"/>
		<path fill="none" stroke="#000000" stroke-miterlimit="10" d="M121.76,302.122c-0.244,0.444-0.405,0.757-0.625,1.04"/>
		<path fill="none" stroke="#000000" stroke-miterlimit="10" d="M121.833,301.978c-0.015,0.037-0.043,0.084-0.071,0.132"/>
		<path fill="none" stroke="#000000" stroke-miterlimit="10" d="M121.956,301.687c0.024-0.01,0.04-0.047,0.055-0.071
			c-0.015,0.024-0.017,0.049-0.03,0.061c-0.058,0.108-0.102,0.192-0.146,0.289"/>
		<path fill="none" stroke="#000000" stroke-miterlimit="10" d="M121.676,302.114c0.098-0.142,0.183-0.286,0.277-0.403"/>
		<path fill="none" stroke="#000000" stroke-miterlimit="10" d="M120.08,304.136c0.558-0.692,1.075-1.338,1.502-1.929"/>
		<path fill="none" stroke="#000000" stroke-miterlimit="10" d="M120.08,304.136l-0.012-0.014c0,0.012,0,0.012-0.014,0.024"/>
		<path fill="none" stroke="#000000" stroke-miterlimit="10" d="M118.89,305.539c0.149-0.175,0.297-0.338,0.444-0.514
			c0.19-0.222,0.367-0.445,0.531-0.657c0,0,0,0,0.025-0.01c0.055-0.07,0.107-0.116,0.164-0.211"/>
		<path fill="none" stroke="#000000" stroke-miterlimit="10" d="M120.301,300.726l-0.014,0.011c0,0.013-0.002,0.025-0.015,0.037
			c-0.042,0.059-0.098,0.142-0.141,0.214c0,0,0,0-0.013-0.001c-0.126,0.203-0.291,0.427-0.434,0.678
			c-0.025,0.01-0.027,0.036-0.041,0.047c-0.011-0.014-0.012-0.001-0.025,0.01c-0.699,1.07-1.542,2.392-2.311,3.695
			c-1.041,1.783-1.908,3.518-2.045,4.413c1.113-1.359,2.395-2.83,3.599-4.256"/>
		<path fill="none" stroke="#000000" stroke-miterlimit="10" d="M119.97,302.448c-0.177-0.344-0.118-0.742,0.02-1.07
			c0.053-0.184,0.124-0.316,0.194-0.423v-0.012c0.031-0.073,0.061-0.121,0.089-0.168"/>
		<path fill="none" stroke="#000000" stroke-miterlimit="10" d="M121.582,302.207c-0.311,0.085-0.635,0.181-0.968,0.238
			c-0.199,0.057-0.383,0.078-0.579,0.098c-0.034-0.028-0.043-0.067-0.065-0.094"/>
		<path fill="none" stroke="#000000" stroke-miterlimit="10" d="M122.556,301.78c-0.255,0.128-0.519,0.242-0.794,0.33l-0.002,0.012
			c-0.05,0.021-0.088,0.042-0.137,0.038"/>
		<path fill="none" stroke="#000000" stroke-miterlimit="10" d="M123.742,301.121c-0.386,0.242-0.758,0.459-1.161,0.636"/>
		<path fill="none" stroke="#000000" stroke-miterlimit="10" d="M128.918,297.035c-1.137,0.929-2.231,1.924-3.365,2.803
			c-0.432,0.363-0.871,0.676-1.336,0.986l-0.012-0.001c-0.08,0.081-0.155,0.111-0.246,0.179c-0.063,0.032-0.128,0.076-0.205,0.12"/>
		<path fill="none" stroke="#000000" stroke-miterlimit="10" d="M130.775,295.644c-0.631,0.408-1.242,0.881-1.832,1.381"/>
		<path fill="none" stroke="#000000" stroke-miterlimit="10" d="M130.775,295.644c0.015-0.024,0.026-0.023,0.027-0.036
			c0.014-0.011,0.026-0.022,0.026-0.022"/>
		<path fill="none" stroke="#000000" stroke-miterlimit="10" d="M130.691,295.346c0.163-0.061,0.361-0.105,0.534-0.127l0.002-0.025
			c0,0,0,0,0.012,0.001c0.112-0.028,0.224-0.055,0.335-0.083c-0.241,0.129-0.475,0.284-0.706,0.439
			c-0.013,0.011-0.026,0.022-0.039,0.034"/>
		<path fill="none" stroke="#000000" stroke-miterlimit="10" d="M130.48,295.402c0.074-0.019,0.112-0.04,0.174-0.047"/>
		<path fill="none" stroke="#000000" stroke-miterlimit="10" d="M126.103,297.417c0.859-0.525,1.764-1.009,2.685-1.391
			c0.567-0.25,1.131-0.45,1.693-0.625"/>
		<path fill="none" stroke="#000000" stroke-miterlimit="10" d="M124.24,299.288c-0.458,0.235-0.912,0.432-1.354,0.618
			c0.478-0.473,1.016-0.939,1.615-1.401c0.493-0.37,1.035-0.736,1.6-1.075"/>
		<path fill="none" stroke="#000000" stroke-miterlimit="10" d="M124.586,299.648c0.17-0.287,0.352-0.56,0.533-0.833
			c0.308-0.463,0.64-0.937,0.982-1.384c0.001-0.013,0.001-0.013,0.001-0.013c0.493-0.648,1.02-1.255,1.557-1.848
			c0.012,0.001,0.024-0.01,0.024-0.01c1.125-1.207,2.367-2.227,3.657-2.952c-0.129,0.228-0.273,0.492-0.415,0.73
			c-0.015,0.024-0.015,0.024-0.015,0.024c-0.088,0.168-0.186,0.323-0.293,0.439c-0.001,0.013-0.001,0.013-0.001,0.013
			s-0.001,0.012-0.014,0.011c-0.519,0.81-1.129,1.547-1.816,2.202c-1.105,1.108-2.365,2.051-3.668,2.788
			c-0.296,0.187-0.588,0.336-0.878,0.461"/>
		<path fill="none" stroke="#000000" stroke-miterlimit="10" d="M123.754,301.122c0.028-0.048,0.044-0.084,0.072-0.132
			c0.042-0.059,0.071-0.12,0.115-0.204c0.203-0.385,0.417-0.756,0.645-1.138"/>
		<line fill="none" stroke="#000000" stroke-miterlimit="10" x1="123.754" y1="301.122" x2="123.742" y2="301.121"/>
		<path fill="none" stroke="#000000" stroke-miterlimit="10" d="M123.119,302.425c0.072-0.132,0.147-0.302,0.222-0.458l0.002-0.013
			c0.133-0.278,0.265-0.543,0.411-0.832"/>
		<path fill="none" stroke="#000000" stroke-miterlimit="10" d="M123.015,301.242c-0.137,0.177-0.285,0.352-0.434,0.515
			c-0.014,0.024-0.014,0.024-0.014,0.024c-0.012-0.001-0.012-0.001-0.012-0.001c-0.432,0.49-0.908,0.95-1.421,1.382
			c-0.013,0.024-0.026,0.035-0.053,0.058c-0.014,0.011-0.027,0.035-0.039,0.034c-0.278,0.264-0.566,0.515-0.845,0.779
			c-0.012-0.001-0.038,0.021-0.038,0.021c-0.026,0.023-0.053,0.045-0.08,0.081c0,0-0.012-0.001-0.025,0.01
			c-0.132,0.126-0.275,0.239-0.408,0.365c-0.184,0.16-0.356,0.333-0.527,0.481c-0.528,0.493-1.044,0.975-1.516,1.512
			c0.416-0.327,0.845-0.628,1.259-0.93c0.015-0.024,0.025-0.01,0.027-0.035c0.233-0.167,0.441-0.325,0.66-0.469
			c0.729-0.55,1.466-1.087,2.193-1.625"/>
		<path fill="none" stroke="#000000" stroke-miterlimit="10" d="M123.632,300.429c-0.182,0.273-0.389,0.557-0.604,0.802"/>
		<path fill="none" stroke="#000000" stroke-miterlimit="10" d="M124.629,296.461l-0.013,0.011c0.049,0.282,0.061,0.561,0.063,0.813
			c-0.006,0.062-0.001,0.151-0.007,0.227c-0.013-0.001-0.013-0.001-0.013-0.001c-0.017,0.339-0.07,0.675-0.158,0.994
			c-0.06,0.272-0.155,0.528-0.261,0.771l-0.001,0.013c-0.155,0.389-0.358,0.773-0.594,1.105"/>
		<path fill="none" stroke="#000000" stroke-miterlimit="10" d="M118.393,305.392c0.002-0.025,0.002-0.025,0.002-0.025
			c0.074-0.157,0.16-0.313,0.233-0.458c0.246-0.456,0.479-0.914,0.714-1.371c0.001-0.013,0.013-0.012,0.014-0.024
			c0.014-0.012,0.014-0.012,0.026-0.023c0.189-0.361,0.39-0.708,0.588-1.042c0.517-0.923,1.052-1.769,1.657-2.595
			c0.014-0.012,0.014-0.012,0.014-0.012c0.07-0.107,0.152-0.213,0.222-0.32l0.011,0.014c0.798-1.074,1.675-2.089,2.743-3.062"/>
		<path fill="none" stroke="#000000" stroke-miterlimit="10" d="M122.27,301.564c-0.156,0.124-0.276,0.251-0.436,0.401l-0.001,0.012
			c-0.063,0.032-0.115,0.078-0.157,0.137c-0.013,0.012-0.015,0.024-0.027,0.036c-0.023-0.015-0.036-0.003-0.025,0.01
			c0,0-0.012-0.001-0.013,0.011c-0.013-0.001-0.015,0.024-0.015,0.024l-0.014,0.011c-0.947,0.846-1.875,1.743-2.774,2.731
			c-0.145,0.125-0.279,0.29-0.413,0.428"/>
		<path fill="none" stroke="#000000" stroke-miterlimit="10" d="M130.68,295.345c-0.014,0.011-0.014,0.011-0.025,0.01
			c-0.129,0.089-0.231,0.155-0.336,0.233l-0.013,0.011c-1.97,1.28-3.855,2.581-5.72,4.048c-0.312,0.236-0.626,0.497-0.939,0.745
			c0,0,0.011,0.014-0.015,0.036c-0.456,0.349-0.914,0.735-1.338,1.137"/>
		<path fill="none" stroke="#000000" stroke-miterlimit="10" d="M143.215,287.074c-1.893,1.376-3.75,2.628-5.603,3.819l-0.013,0.011
			l-0.002,0.025c-0.244,0.154-0.476,0.297-0.706,0.439c-0.015,0.024-0.015,0.024-0.015,0.024c-0.064,0.044-0.141,0.088-0.218,0.131
			c-0.526,0.33-1.042,0.672-1.544,0.992l-0.024,0.01c-1.066,0.67-2.121,1.342-3.15,2.003c-0.012-0.001-0.024,0.01-0.026,0.022
			c-0.422,0.251-0.821,0.517-1.223,0.795"/>
		<path fill="none" stroke="#000000" stroke-miterlimit="10" d="M138.802,291.898l-0.012-0.001c-0.3,0.375-0.564,0.767-0.768,1.152"
			/>
		<path fill="none" stroke="#000000" stroke-miterlimit="10" d="M143.026,288.28c-0.013,0.012-0.038,0.022-0.053,0.046
			c-0.051,0.033-0.114,0.065-0.168,0.123c-0.714,0.526-1.439,1.052-2.094,1.597c-0.052,0.033-0.091,0.067-0.131,0.101
			c-0.028,0.036-0.053,0.046-0.079,0.068c-0.642,0.546-1.224,1.097-1.687,1.672"/>
	</g>
</g>
<g>
	<g>
		<path d="M120.936,304.854c-4.553,0.269-6.428,3.77-8.588,7.296c0.625-0.02,1.25-0.04,1.876-0.06
			c0.345-2.175,1.711-3.951,2.659-5.897c0.444-0.912-1.336-0.614-1.691-0.244c-1.943,2.03-2.778,4.667-3.854,7.21
			c0.625-0.07,1.248-0.141,1.873-0.211c-0.303-3.859,4.189-7.736,6.576-10.271c3.902-4.147,8.003-7.889,13.228-10.305
			c-0.435-0.165-0.868-0.33-1.302-0.496c-0.764,1.213-1.654,2.308-2.602,3.382c-0.797,0.904,1.089,0.845,1.568,0.393
			c1.485-1.399,2.941-2.754,4.568-4c1.041-0.797-0.578-1.158-1.223-0.665c-1.734,1.328-3.324,2.773-4.914,4.272
			c0.522,0.131,1.046,0.262,1.568,0.393c1.039-1.179,2.008-2.348,2.846-3.68c0.468-0.742-0.981-0.644-1.302-0.496
			c-5.788,2.677-10.249,6.817-14.577,11.416c-2.557,2.716-6.688,6.506-6.367,10.574c0.055,0.707,1.688,0.225,1.873-0.211
			c1.013-2.399,1.766-4.988,3.609-6.912c-0.564-0.081-1.128-0.162-1.691-0.244c-1.007,2.066-2.419,3.898-2.786,6.206
			c-0.14,0.881,1.609,0.376,1.876-0.06c1.629-2.658,2.915-6.005,6.54-6.219C121.697,305.967,122.268,304.776,120.936,304.854
			L120.936,304.854z"/>
	</g>
</g>
<g>
	<g>
		<path d="M146.855,283.452c0.984-2.362,3.184-3.814,4.725-5.78c-0.576-0.125-1.151-0.25-1.727-0.374
			c-0.508,1.539-1.444,2.85-2.607,3.965c0.575,0.125,1.15,0.25,1.727,0.374c0.719-1.696,1.877-3.028,3.111-4.369
			c0.82-0.891-0.896-1.062-1.441-0.698c-0.303,0.202-0.605,0.404-0.907,0.605c0.52,0.176,1.038,0.352,1.558,0.527
			c0.251-0.412,0.559-0.774,0.926-1.088c-0.52-0.176-1.039-0.352-1.559-0.527c-0.37,0.903-0.803,1.758-1.065,2.702
			c-0.257,0.928,1.466,0.533,1.782,0.194c0.489-0.523,0.926-1.091,1.414-1.614c0.828-0.886-1.033-1.162-1.609-0.545
			c-0.49,0.523-0.926,1.09-1.414,1.614c0.594,0.064,1.188,0.129,1.782,0.194c0.228-0.818,0.632-1.561,0.954-2.343
			c0.369-0.901-1.104-0.932-1.559-0.527c-0.591,0.526-1.062,1.074-1.494,1.737c-0.578,0.887,1.176,0.783,1.558,0.527
			c0.302-0.202,0.604-0.404,0.907-0.605c-0.48-0.233-0.961-0.466-1.441-0.698c-1.324,1.437-2.575,2.894-3.346,4.71
			c-0.445,1.052,1.295,0.788,1.727,0.374c1.246-1.194,2.297-2.658,2.84-4.307c0.332-1.008-1.291-0.929-1.727-0.374
			c-1.631,2.082-3.911,3.615-4.957,6.122C144.59,284.263,146.533,284.223,146.855,283.452L146.855,283.452z"/>
	</g>
</g>
<g>
	<g>
		<path d="M110.85,310.527c-0.085,1.244-0.102,2.486-0.103,3.732c-0.001,0.479,0.97,0.313,0.975-0.087
			c0.03-2.776,0.649-5.265,2.956-7.021c0.522-0.398-0.271-0.668-0.629-0.396c-2.472,1.883-3.27,4.482-3.302,7.504
			c0.325-0.029,0.649-0.058,0.975-0.087c0.001-1.247,0.018-2.489,0.103-3.732C111.857,309.966,110.877,310.124,110.85,310.527
			L110.85,310.527z"/>
	</g>
</g>
<g>
	<g>
		<path d="M111.523,311.459c0.176-4.583,5.77-8.597,9.611-10.258c0.607-0.262,0.07-0.818-0.435-0.6
			c-4.106,1.774-9.97,6.009-10.157,10.923C110.523,312.046,111.506,311.917,111.523,311.459L111.523,311.459z"/>
	</g>
</g>
<g>
	<g>
		<path d="M113.287,307.726c0.998-0.811,1.637-1.877,2.46-2.848c0.899-1.061,2.327-1.436,3.424-2.246
			c0.394-0.291-0.571-0.156-0.74-0.031c-0.958,0.707-2.089,1.111-3.038,1.834c-1.193,0.908-1.805,2.407-2.98,3.361
			C112.202,307.966,113.107,307.872,113.287,307.726L113.287,307.726z"/>
	</g>
</g>
<g>
	<g>
		<path d="M117.529,303.709c3.354-3.563,6.637-7.247,11.141-9.366c0.584-0.274-0.309-0.323-0.574-0.198
			c-4.625,2.175-8.008,5.936-11.453,9.595C116.4,303.998,117.35,303.9,117.529,303.709L117.529,303.709z"/>
	</g>
</g>
<g>
	<g>
		<path d="M219.061,256.036c0.773,0,1.547,0,2.32,0c0.294,0,1.049-0.445,0.402-0.445c-0.773,0-1.547,0-2.32,0
			C219.169,255.591,218.414,256.036,219.061,256.036L219.061,256.036z"/>
	</g>
</g>
<g>
	<g>
		<path d="M219.988,256.17c0,0.135,0,0.27,0,0.404c0.322-0.036,0.646-0.072,0.969-0.107c0-0.668-0.016-1.331-0.104-1.993
			c-0.047-0.36-1.018-0.133-0.965,0.259c0.08,0.613,0.1,1.224,0.1,1.842c0,0.436,0.969,0.241,0.969-0.107c0-0.135,0-0.27,0-0.404
			C220.957,255.627,219.988,255.822,219.988,256.17L219.988,256.17z"/>
	</g>
</g>
<g>
	<g>
		<path fill="#FFFFFF" d="M162.441,287.165c2.188,1.4,4.285,1.915,6.869,1.686c0.537-0.048,1.125-0.41,1.038-1.016
			c-0.448-3.141-4.78-2.61-6.853-1.57c-0.269,0.134-0.686,0.525-0.525,0.878c0.82,1.805,2.172,2.471,4.123,2.606
			c0.482,0.033,1.039-0.128,1.253-0.61c0.796-1.788,0.024-4.308-2.427-3.517c-3.387,1.092,0.346,3.429,1.856,4.067
			c0.64,0.27,1.608-0.189,1.514-0.946c-0.304-2.444-6.011-5.609-7.356-2.505c-1.324,3.06,5.422,4.239,5.709-0.171
			c-0.649,0.106-1.299,0.212-1.948,0.319c0.415,3.693,5.268,3.811,6.737,0.786c0.168-0.345-0.058-0.694-0.382-0.824
			c-1.372-0.55-4.923,0.196-3.66,2.425c1.759,3.105,5.094-0.564,6.198-2.172c0.195-0.285,0.252-0.683-0.08-0.905
			c-0.152-0.101-0.303-0.202-0.453-0.303c-0.029,0.356-0.058,0.712-0.086,1.069c0.67-0.568,1.13-1.141,1.68-1.828
			c0.208-0.26,0.246-0.708-0.08-0.905c-0.253-0.151-0.506-0.303-0.758-0.454c0.027,0.302,0.055,0.603,0.081,0.905
			c1.088-1.283,2.598-1.984,3.632-3.328c-0.595-0.021-1.189-0.042-1.784-0.062c0.825,2.072-1.95,3.793-3.318,4.854
			c0.49,0.269,0.979,0.538,1.471,0.807c0.696-1,1.376-1.972,1.928-3.059c-0.62-0.091-1.241-0.182-1.861-0.273
			c-0.632,1.7-1.931,2.262-3.442,2.997c-1.184,0.575-0.133,1.73,0.881,1.238c1.998-0.97,3.613-1.786,4.423-3.962
			c0.415-1.115-1.461-1.062-1.861-0.273c-0.491,0.97-1.087,1.805-1.703,2.69c-0.679,0.975,0.835,1.3,1.471,0.807
			c1.829-1.418,5.015-3.657,3.945-6.342c-0.286-0.717-1.369-0.601-1.784-0.062c-1.027,1.334-2.547,2.049-3.632,3.328
			c-0.216,0.255-0.24,0.712,0.081,0.905c0.252,0.151,0.504,0.303,0.756,0.454c-0.026-0.302-0.053-0.603-0.08-0.905
			c-0.405,0.539-0.854,1.039-1.348,1.5c-0.314,0.266-0.506,0.787-0.086,1.069c0.152,0.101,0.303,0.202,0.453,0.303
			c-0.026-0.302-0.053-0.603-0.08-0.905c-0.352,0.513-1.143,2.107-1.997,1.765c-0.128-0.275-0.255-0.549-0.383-0.824
			c-1.368,2.813-2.851-0.183-2.945-1.03c-0.103-0.91-1.896-0.489-1.948,0.319c-1.838,0.777-2.379,0.926-1.622,0.446
			c0.417,0.048,0.816,0.154,1.2,0.318c1.058,0.379,1.959,1.167,2.103,2.31c0.505-0.315,1.009-0.631,1.514-0.946
			c-0.645-0.272-1.888-1.352-2.591-1.256c0.959-0.131,0.359,1.457,0.203,1.807c0.418-0.203,0.836-0.407,1.254-0.61
			c-1.17,0.057-2.115-0.486-2.836-1.63c-0.175,0.292-0.35,0.585-0.525,0.878c1.248-0.626,3.766-1.076,4.04,0.85
			c0.347-0.338,0.692-0.677,1.038-1.016c-2.123,0.188-3.751-0.196-5.537-1.339C163.144,285.503,161.486,286.553,162.441,287.165
			L162.441,287.165z"/>
	</g>
</g>
<g>
	<g>
		<path fill="#FFFFFF" d="M177.418,283.414c-1.523,1.62-3.546,2.694-4.841,4.539c-0.47,0.669,1.456,0.447,1.783-0.019
			c1.284-1.829,3.323-2.924,4.841-4.539c0.322-0.343-0.274-0.49-0.502-0.488C178.239,282.911,177.736,283.074,177.418,283.414
			L177.418,283.414z"/>
	</g>
</g>
<g>
	<g>
		<path fill="#FFFFFF" d="M179.09,283.231c-2.291,0.668-3.441,2.657-5.184,4.104c-0.315,0.262-0.209,0.596,0.18,0.673
			c0.463,0.091,1.008-0.068,1.367-0.366c0.654-0.544,1.221-1.176,1.799-1.799c0.578-0.624,1.248-1.414,2.092-1.661
			c0.268-0.078,0.947-0.331,0.839-0.734C180.076,283.053,179.357,283.153,179.09,283.231L179.09,283.231z"/>
	</g>
</g>
<g>
	<g>
		<path fill="#FFFFFF" d="M178.258,283.573c-0.922,1.056-1.979,1.965-3.16,2.719c-0.35,0.223-0.484,0.737-0.104,0.998
			c0.424,0.292,0.988,0.136,1.385-0.117c1.305-0.832,2.479-1.865,3.496-3.03c0.298-0.342,0.173-0.786-0.251-0.936
			C179.164,283.045,178.576,283.208,178.258,283.573L178.258,283.573z"/>
	</g>
</g>
<g>
	<g>
		<path fill="#FFFFFF" d="M74.714,281.689c2.353-2.354,5.753-3.373,8.897-4.175c1.189-0.304,0.855-1.533-0.33-1.23
			c-3.641,0.929-7.452,2.184-10.167,4.902C72.27,282.031,74.148,282.255,74.714,281.689L74.714,281.689z"/>
	</g>
</g>
<g>
	<g>
		<path d="M78.174,275.112c-2.548,1.034-5.082,1.901-7.172,3.76c-0.979,0.871,0.554,1.545,1.285,0.895
			c1.963-1.747,4.354-2.531,6.746-3.501C80.261,275.767,79.174,274.707,78.174,275.112L78.174,275.112z"/>
	</g>
</g>
<g>
	<g>
		<path d="M79.543,275.339c-3.945,0.688-6.451,3.547-9.225,6.175c-0.404,0.383,1.414,0.162,1.746-0.153
			c2.037-1.929,4.201-4.814,7.115-5.322C79.943,275.905,80.902,275.102,79.543,275.339L79.543,275.339z"/>
	</g>
</g>
<g>
	<g>
		<path d="M79.084,275.323c-1.275,0.648-2.49,1.406-3.658,2.233c-0.611,0.433,0.248,0.616,0.604,0.551
			c1.122-0.207,2.166-0.572,3.154-1.146c0.207-0.121,0.632-0.479,0.199-0.637c-0.41-0.151-0.995,0-1.359,0.211
			c-0.536,0.312-1.072,0.554-1.686,0.667c0.201,0.184,0.402,0.367,0.604,0.551c1.055-0.746,2.15-1.418,3.303-2.003
			c0.221-0.112,0.622-0.483,0.2-0.637C80.016,274.955,79.469,275.128,79.084,275.323L79.084,275.323z"/>
	</g>
</g>
<g>
	<g>
		<path d="M75.404,277.407c-2.178,1.598-4.299,3.24-6.223,5.141c-0.85,0.839,1.031,1.063,1.598,0.502
			c1.818-1.795,3.828-3.334,5.883-4.844C77.723,277.428,76.128,276.875,75.404,277.407L75.404,277.407z"/>
	</g>
</g>
<g>
	<g>
		<path fill="#FFFFFF" d="M79.232,279.24c-0.503,0-1.007,0-1.511,0c-0.181,0-1.925,0.401-1.542,0.706
			c1.156,0.916,2.65,0.964,4.063,0.965c0.461,0,0.97-0.126,1.366-0.366c0.307-0.186,0.264-0.396-0.107-0.396
			c-1.248-0.001-2.479-0.042-3.498-0.851c-0.515,0.235-1.028,0.47-1.542,0.706c0.504,0,1.008,0,1.512,0
			c0.462,0,0.97-0.126,1.366-0.366C79.646,279.451,79.604,279.24,79.232,279.24L79.232,279.24z"/>
	</g>
</g>
<ellipse transform="matrix(-0.9995 0.0324 -0.0324 -0.9995 405.7388 521.5223)" fill="#FFFFFF" cx="198.65" cy="264.043" rx="14.263" ry="28.152"/>
<path fill="#FFFFFF" d="M124.805,350.603c0.777,0.325,1.348,1.013,1.955,1.653c0.475,0.501,1.102,0.798,1.547,1.339
	c0.092,0.11,0.158,0.233,0.238,0.35c0.361,0.364,0.689,0.756,0.926,1.207l86-83.292l-6.736-6.956l-86.641,83.91
	c0.316,0.015,0.636,0.1,0.945,0.299C123.684,349.53,124.248,350.058,124.805,350.603z"/>
<path fill="#FFFFFF" d="M193.158,203.634c-11.953-11.616-28.179-13.894-36.24-5.093c-1.135,1.24-2.025,2.648-2.723,4.162
	l-6.07-6.502l-61.742,61.132l38.342,41.06c1.29-0.349,2.574-0.711,3.867-1.037l52.611-52.087c7.438,1.702,14.5,0.251,19.004-4.669
	C208.27,231.798,205.115,215.25,193.158,203.634z"/>
<g id="XMLID_33_">
	<g>
		<path d="M230.309,373.356c3.604,12.612,3.229,27.923,9.628,37.411c-9.781,0.034-19.575,0.017-29.355,0.229
			c-24.021,0.082-48.063,1.005-72.08,1.851c-0.013-3.005-0.025-5.985-0.051-8.978c0.007-1.529-0.013-3.057-0.019-4.585
			s-0.013-3.069-0.006-4.585c-0.026-3.158-0.039-6.317-0.039-9.475c-0.231-1.336,0.386-3.454-0.35-4.277
			c-0.231-10.888-3.555-19.846-8.637-25.992c0-0.013,0-0.013-0.014-0.025c-0.215-0.343-0.469-0.66-0.775-0.938v-0.013
			c-0.094-0.14-0.188-0.266-0.295-0.393c-0.228-0.279-0.494-0.481-0.762-0.683l-0.013-0.013c-0.428-0.43-0.855-0.81-1.296-1.202
			c-0.348-0.354-0.695-0.696-1.108-0.936c20.952-17.958,42.644-37.46,63.964-56.629c2.506-2.244,7.6-6.325,8.283-8.303
			c0.401,0.418,1.386,0.31,2.237,0.305c-4.209-4.228-9.119-10.439-9.66-19.198c-0.011-2.445-0.034-4.903-0.03-7.349
			c0.675-7.365,4.463-11.795,9.507-15.022c-19.808,1.954-31.089-6.956-33.298-23.028c-0.019-1.427-0.024-2.853-0.018-4.279
			c0.193-4.879,1.655-8.569,4.105-11.347c0.864,6.223,3.822,10.408,7.072,14.336c1.163,1.33,2.445,2.558,3.848,3.645
			c3.775,2.295,7.199,6.528,11.223,7.573c2.303-3.147,0.668-9.072,4.736-10.115c3.496-0.887,9.786,1.329,13.758,2.667
			c4.717,1.602,8.412,3.744,9.596,6.666c-4.896,23.209,9.76,37.143,13.007,56.469c0.008,1.821,0.028,3.655,0.036,5.501
			c-0.883,8.602-5.109,13.276-9.503,19.314c-2.871,3.94-10.192,13.256-10.155,19.013c0.024,2.827,2.465,7.168,3.89,10.674
			C222.131,352.443,227.176,362.384,230.309,373.356z"/>
		<path d="M233.468,287.141c0.537,1.13,0.577,4.365,0.036,5.501C233.496,290.796,233.476,288.962,233.468,287.141z"/>
		<path d="M177.141,178.056c20.792,1.262,18.732,24.632,26.667,38.352c-15.858-2.171-22.661-15.744-37.464-19.946
			c-2.53-7.028,1.858-10.901,4.155-15.512c0.331-0.397,0.648-0.781,1.007-1.114c0.093-0.064,0.173-0.128,0.266-0.192
			c1.089-0.554,2.258-1.02,3.347-1.574C175.837,178.102,176.542,178.136,177.141,178.056z"/>
		<path fill="#FFFFFF" d="M189.571,174.924c1.642,1.29,3.125,2.694,4.488,4.252C192.431,177.887,190.935,176.457,189.571,174.924z"
			/>
		<path fill="#FFFFFF" d="M189.932,259.577c-0.004,2.445,0.02,4.903,0.03,7.349C189.436,265.197,189.406,261.325,189.932,259.577z"
			/>
		<path fill="#FFFFFF" d="M188.802,217.721c0.521,0.328,0.543,2.709-0.001,3.057C188.797,219.759,188.806,218.728,188.802,217.721z"
			/>
		<path d="M188.802,217.721c0.004,1.006-0.005,2.038-0.001,3.057c0.003,0.701,0.006,1.426,0.009,2.14
			c-4.817-3.32-11.266-5.077-12.173-12.153c-0.006-1.324-0.024-2.649-0.017-3.973c-0.015-0.204-0.015-0.408-0.016-0.611
			c1.114-0.746,2.412,0.966,3.854,1.798C184.126,210.146,188.591,211.775,188.802,217.721z"/>
		<path fill="#FFFFFF" d="M183.504,253.21c0.538,1.334,0.565,4.772,0.039,6.113C183.534,257.285,183.526,255.248,183.504,253.21z"/>
		<path d="M183.543,259.323c1.219,14.944-18.954,8.75-23.635,3.2c0.53-0.525,0.52-3.162-0.002-3.668
			c-1.679-19.845-29.36-26.694-26.715-50.272c1.143-10.106,14.156-23.393,27.092-13.613c-0.822,3.979-1.337,8.286-1.558,12.847
			c-0.526,1.531-0.498,5.199,0.027,6.724c1.073,18.384,8.774,30.386,24.747,34.39c-0.008,1.414-0.002,2.853,0.004,4.279
			C183.526,255.248,183.534,257.285,183.543,259.323z"/>
		<path fill="#FFFFFF" d="M177.301,220.236c1.415,1.086,2.697,2.302,3.848,3.645C179.746,222.794,178.464,221.566,177.301,220.236z"
			/>
		<path fill="#FFFFFF" d="M176.62,206.792c-0.008,1.324,0.011,2.649,0.017,3.973C176.088,210.144,176.09,207.418,176.62,206.792z"/>
		<path fill="#FFFFFF" d="M166.123,217.248c-0.007,1.426-0.001,2.853,0.018,4.279C165.592,220.804,165.581,217.977,166.123,217.248z
			"/>
		<path fill="#FFFFFF" d="M159.906,258.855c0.521,0.506,0.532,3.143,0.002,3.668C159.903,261.3,159.898,260.078,159.906,258.855z"/>
		<path fill="#FFFFFF" d="M158.726,207.817c0.009,2.241,0.031,4.47,0.027,6.724C158.228,213.016,158.199,209.348,158.726,207.817z"
			/>
		<path d="M142.253,240.928c7.708,10.256,18.84,24.937,10.062,39.063c-0.979,1.598-2.963,4.285-4.439,4.612
			c-1.914,0.419-4.767-0.659-6.088-1.504c-4.75-3.066-5.505-11.951-8.372-16.748c0.013-0.102-0.001-0.216-0.002-0.306
			c-1.897-2.052-3.929-3.988-6.092-5.771c-1.04-0.516-1.51-1.621-2.551-2.124c-0.894-0.593-1.642-1.289-2.257-2.126
			c-2.219-2.355-4.558-4.583-7.055-6.682c-2.856-2.25-5.077-5.115-7.364-7.903c-0.194-8.392,0.827-15.645,2.984-21.822
			c0.344-0.41,0.688-0.807,1.086-1.191c1.193-1.154,2.614-1.952,3.874-2.966c0.771,0.034,1.637-0.086,1.835-0.38
			c3.152-0.388,7.03-2.22,10.244-0.661C129.718,224.753,136.165,232.814,142.253,240.928z"/>
		<path d="M138.426,394.699c-0.007,1.516,0,3.057,0.006,4.585c-0.106,0-0.213-0.012-0.319,0.002
			C138.332,397.845,137.698,395.62,138.426,394.699z"/>
		<path d="M138.45,403.869c0.025,2.993,0.038,5.973,0.051,8.978c-0.094,0.014-0.2,0.014-0.293,0.015
			c-0.238-2.8,0.107-6.165-0.077-8.991C138.251,403.857,138.357,403.869,138.45,403.869z"/>
		<path d="M138.432,399.284c0.006,1.528,0.025,3.056,0.019,4.585c-0.093,0-0.199-0.012-0.319,0.002
			c-0.006-1.528-0.013-3.057-0.019-4.585C138.219,399.272,138.325,399.284,138.432,399.284z"/>
		<path d="M138.037,380.946c0.735,0.823,0.118,2.941,0.35,4.277C137.639,384.388,138.269,382.282,138.037,380.946z"/>
		<path d="M126.079,268.829c3.482,5.392,7.754,11.95,7.418,17.696c-0.233,4.599-3.458,6.86-4.985,10.83
			c-1.184,0.3-2.353,0.638-3.522,0.964c-16.457-1.951-19.105-21.637-29.237-29.293c-3.698-2.792-9.58-2.808-14.374-0.231
			c0.77-10.32,5.841-16.604,9.896-23.851c0.983-0.414,1.912-0.928,2.869-1.38c7.595-0.811,12.727,4.316,16.854,7.947
			c0.936,1.141,2.019,2.153,3.22,3.037C117.609,257.647,122.209,262.854,126.079,268.829z"/>
		<path fill="#FFFFFF" d="M133.413,266.046c0.001,0.089,0.015,0.204,0.002,0.306c-3.019-2.605-5.891-5.339-8.645-8.2
			c1.041,0.503,1.511,1.608,2.551,2.124C129.22,262.327,131.25,264.25,133.413,266.046z"/>
		<path fill="#FFFFFF" d="M127.321,260.275c2.163,1.783,4.194,3.719,6.092,5.771C131.25,264.25,129.22,262.327,127.321,260.275z"/>
		<path fill="#FFFFFF" d="M115.459,249.344c2.497,2.099,4.836,4.326,7.055,6.682C120.056,253.926,117.678,251.699,115.459,249.344z"
			/>
		<path fill="#FFFFFF" d="M110.997,251.51c1.215,0.884,2.27,1.896,3.22,3.037C113.016,253.663,111.933,252.651,110.997,251.51z"/>
	</g>
	<g>
	</g>
</g>
<g>
	<g>
		<path fill="#FFFFFF" d="M121.671,349.161c0.665-0.071,1.303-0.356,1.811-0.79c0.329-0.28,0.706-0.841,1.073-0.961
			c0.164-0.054,0.848-0.401,0.545-0.664c-0.315-0.273-0.93-0.064-1.262,0.044c-0.5,0.165-0.928,0.464-1.305,0.826
			c-0.177,0.17-0.346,0.348-0.521,0.521c-0.071,0.07-0.148,0.131-0.228,0.193c-0.087,0.068,0.156-0.061,0.196-0.065
			c-0.336,0.036-0.985,0.221-1.114,0.593C120.732,349.248,121.504,349.179,121.671,349.161L121.671,349.161z"/>
	</g>
</g>
<g>
	<g>
		<path fill="#FFFFFF" d="M125.826,348.56c-0.467-0.038-0.809-0.513-1.311-0.555c-0.32-0.026-0.631-0.002-0.947,0.064
			c-0.224,0.047-0.449,0.105-0.664,0.185c-0.272,0.101-0.516,0.049,0.049,0.054c-0.465-0.003-0.971,0.109-1.365,0.366
			c-0.318,0.206-0.248,0.418,0.119,0.445c0.865,0.063,1.83,0.33,2.388,1.038c0.298,0.377,2.13-0.271,1.818-0.667
			c-0.671-0.851-1.936-1.108-2.96-1.183c-0.415,0.271-0.831,0.541-1.246,0.812c0.348,0.003,0.688-0.022,1.025-0.112
			c0.137-0.034,0.271-0.074,0.404-0.12c0.049-0.017,0.099-0.035,0.148-0.052c0.203-0.077,0.195-0.075-0.023,0.005
			c0.48,0.204,0.768,0.486,1.318,0.531c0.448,0.037,0.991-0.122,1.365-0.366C126.266,348.798,126.19,348.59,125.826,348.56
			L125.826,348.56z"/>
	</g>
</g>
<g>
	<g>
		<path fill="#FFFFFF" d="M124.331,349.091c-1.192,0.026-2.362-0.207-3.55,0.006c-0.043,0.182-0.086,0.363-0.129,0.545
			c1.111-0.214,2.191-0.695,3.196,0.069c0.276,0.21,1.167-0.174,0.896-0.381c-1.272-0.967-2.533-0.509-3.964-0.233
			c-0.184,0.035-0.496,0.111-0.549,0.332c-0.049,0.212,0.291,0.237,0.42,0.213c1.102-0.198,2.197,0.03,3.306,0.006
			c0.221-0.005,0.505-0.068,0.638-0.266C124.721,349.196,124.49,349.088,124.331,349.091L124.331,349.091z"/>
	</g>
</g>
<g>
	<g>
		<path fill="#FFFFFF" d="M121.729,349.452c0.898-0.069,2.023,0.453,2.672,1.052c0.252-0.135,0.505-0.27,0.757-0.405
			c-0.563-0.057-1.052-0.499-1.579-0.686c-0.605-0.215-1.213-0.313-1.855-0.326c-0.309-0.006-1.045,0.453-0.396,0.466
			c0.668,0.013,1.32,0.176,1.919,0.474c0.426,0.211,0.818,0.481,1.303,0.53c0.116,0.012,1.009-0.172,0.757-0.405
			c-0.789-0.729-2.1-1.247-3.178-1.165c-0.217,0.017-0.492,0.072-0.643,0.247C121.34,349.402,121.607,349.461,121.729,349.452
			L121.729,349.452z"/>
	</g>
</g>
<path d="M88.543,471.829c0,0-19.525-19.102-21.76-19.005c-2.234,0.101-49.261,100.106-48.322,100.942
	c0.938,0.833,17.561,15.73,19.02,14.965c1.463-0.767,13.51-38.303,13.51-38.303l26.038-2.107l8.022,56.65l17.439-8.876
	L88.543,471.829z M73.744,510.976l-10.816-0.963c0,0,3.104-19.118,4.559-20.144c1.454-1.022,7.031,10.418,7.031,10.418
	L73.744,510.976z"/>
<path d="M90.537,597.262c0.137-1.064-63.002-12.841-63.002-12.841s-12.213,12.646-12.542,14.61
	c-0.328,1.965-16.254,87.836-14.913,88.926c1.34,1.095,15.858,13.844,16.98,13.827c1.121-0.02,56.852,0.327,60.189-0.955
	c3.338-1.285,7.756-7.915,7.756-7.915l2.672-37.018l8.02-2.437l0.699-9.683l-37.764,0.082l-4.324,11.936
	c0,0,13.668-0.36,15.979-1.442c2.31-1.085,3.643,21.959,2.602,23.729c-1.039,1.773-47.718,5.86-49.17,3.652
	c-1.453-2.208,5.283-69.455,5.283-69.455s1.775-1.965,3.4-1.991c1.626-0.023,56.672-0.619,57.754-0.88
	C91.236,609.146,90.396,598.324,90.537,597.262z"/>
<path d="M113.255,489.57l0.817,81.615l8.578,3.546l5.02-5.653l-0.246-41.89l26.498,47.883l8.712-2.004l5.185-6.195l3.39-75.545
	c0,0-2.892-5.617-4.437-6.085c-1.543-0.467-5.957,4.917-5.957,4.917l-1.956,3.285l-1.87,54.078l-29.711-58.828l-6.764-2.82
	L113.255,489.57z"/>
<path d="M184.637,564.125l12.174,6.358l8.188-6.537l6.3-87.24l15.123-3.55l3.227-8.891l-5.445-3.236l-61.367,2.493
	c0,0-7.721,14.229-5.743,15.398c1.979,1.171,35.951-2.002,35.951-2.002L184.637,564.125z"/>
<path d="M241.137,484.703l-7.17,8.563c0,0-9.76,72.328-9.029,72.985c0.732,0.655,8.903,8.102,11.623,7.884
	c2.715-0.219,11.008-7.119,11.994-8.787c0.988-1.671,5.071-70.846,5.071-70.846l-5.294-9.359L241.137,484.703z"/>
<path d="M239.002,476.856l-5.561-9.119c0,0,3.005-10.935,5.21-11.134c2.203-0.197,13.3-1.195,13.3-1.195l3.479,5.662
	c0,0-0.992,10.173-2.699,12.249C251.027,475.4,239.002,476.856,239.002,476.856z"/>
<path d="M273.877,515.124c-2.365,1.33-7.279,12.716-7.279,12.716s2.928,12.255,6.107,11.917c3.181-0.346,37.029-3.164,40.243-4.331
	c3.214-1.168,4.888-5.222,4.888-5.222s1.832-7.112,0.443-8.564C316.891,520.184,276.247,513.792,273.877,515.124z"/>
<path d="M160.755,675.3c0,0-14.054-30.169-11.235-31.036c2.82-0.869,11.75-3.713,11.75-3.713l3.74-5.617l3.117-43.142l-6.547-5.638
	l-50.468,5.157L97.51,693.492c0,0,4.896,3.481,8.025,3.673c3.131,0.188,9.021-2.941,9.021-2.941s4.766-47.221,7.387-48.548
	c2.623-1.328,8.503,0.758,8.503,0.758s4.3,21.188,6.761,24.8c2.459,3.611,13.826,21.465,15.462,22.703
	c1.636,1.239,11.058,8.381,11.058,8.381l7.979-6.41L160.755,675.3z M147.67,623.28c-0.736,0.12-21.768,3.565-23.023,3.009
	c-1.255-0.558-2.035-22.039-0.393-23.231c1.639-1.191,26.221,6.496,27.207,7.179C152.448,610.918,148.406,623.16,147.67,623.28z"/>
<path d="M218.414,592.905l-13.906-11.753l-10.061-0.554l-28.237,84.635c0,0,9.292,14.795,10.907,14.889
	c1.61,0.096,14.441-41.004,14.441-41.004l16.824-0.199c0,0,12.119,59.141,13.145,58.66c1.023-0.482,13.61-5.805,14.566-6.863
	C237.051,689.66,218.414,592.905,218.414,592.905z M210.248,620.625c0,0-9.924-0.583-11.277-0.664
	c-1.354-0.079,3.905-17.579,3.905-17.579s2.714-0.732,4.284,0.251c1.564,0.982,3.569,8.225,3.569,8.225L210.248,620.625z"/>
<path d="M242.488,587.781c0.955-0.876-2.176,84.563-1.184,85.128c0.994,0.562,9.871,5.64,11.631,6.043
	c1.756,0.403,10.472-5.238,10.383-6.501s-5.242-80.838-5.839-83.77c-0.597-2.931-7.397-7.864-7.397-7.864
	S241.528,588.659,242.488,587.781z"/>
<path d="M269.065,573.118c1.843,1.428,3.388,99.805,4.673,100.338c1.287,0.533,12.061,5.236,13.279,2.67
	c1.227-2.569-1.841-54.292-0.383-55.648c1.459-1.355,32.145,54.532,34.393,54.806c2.248,0.274,7.809-4.062,7.809-4.062
	l0.881-112.632c0,0-3.339-5.89-4.336-4.549c-1,1.341-8.32,11.154-8.32,11.154s-2.273,55.704-1.393,62.327
	c0.881,6.622-26.922-43.433-26.922-43.433l-11.121-14.67C277.625,569.418,267.228,571.69,269.065,573.118z"/>
<g>
	<g>
		<path d="M175.214,278.369c3.697-0.117,6.474-2.059,8.841-4.77c-0.6,0.118-1.199,0.236-1.799,0.354
			c3.109,3.617-3.023,6.311-5.936,6.632c-0.953,0.104-1.594,1.248-0.256,1.101c3.535-0.389,11.958-3.875,7.984-8.497
			c-0.435-0.504-1.465-0.028-1.799,0.354c-1.654,1.896-3.653,3.62-6.292,3.703C175.227,277.268,173.912,278.41,175.214,278.369
			L175.214,278.369z"/>
	</g>
</g>
<g>
	<g>
		<path d="M173.172,276.494c2.946,0.283,5.693-0.401,8.152-2.059c-0.496-0.088-0.992-0.177-1.488-0.265
			c-0.972,1.351-2.165,2.15-3.867,2.207c-0.256,0.008-2.009,0.672-1.156,0.974c1.99,0.703,4.015,0.625,6.081,0.355
			c-0.21-0.214-0.419-0.428-0.63-0.643c-1.045,0.805-2.016,1.648-3.234,2.19c-1.26,0.559-0.089,1.036,0.746,0.735
			c1.87-0.672,3.373-1.702,4.456-3.389c0.116-0.182,0.091-0.366-0.122-0.457c-2.498-1.058-4.734,0.189-6.209,2.264
			c-0.262,0.37,0.223,0.528,0.514,0.526c1.098-0.004,2.141-0.075,3.176-0.457c1.087-0.399,0.363-1.053-0.494-0.82
			c-1.014,0.274-1.984,0.646-2.975,0.993c-0.582,0.204-0.859,0.944-0.009,0.889c2.849-0.184,4.804-1.945,6.899-3.712
			c-0.556-0.047-1.111-0.095-1.665-0.142c-1.236,1.978-3.243,3.042-5.142,4.283c-0.872,0.57,0.092,0.897,0.713,0.713
			c1.758-0.521,3.256-1.48,4.582-2.736c-0.514,0.105-1.027,0.21-1.541,0.315c0.189,0.099-0.125,0.446-0.191,0.584
			c-0.258,0.536,1.642,0.336,1.928-0.259c0.313-0.652,0.647-0.793-0.191-1.229c-0.426-0.222-1.212,0.003-1.541,0.315
			c-0.957,0.906-2.005,1.724-3.287,2.105c0.238,0.238,0.476,0.475,0.713,0.713c2.111-1.38,4.375-2.596,5.749-4.794
			c0.499-0.797-1.37-0.39-1.665-0.142c-1.275,1.077-2.82,2.829-4.595,2.944c-0.003,0.296-0.006,0.593-0.009,0.889
			c0.821-0.288,1.627-0.595,2.469-0.823c-0.165-0.273-0.33-0.547-0.494-0.82c-0.502,0.184-1.131,0.146-1.664,0.149
			c0.171,0.175,0.342,0.351,0.513,0.526c0.733-1.034,1.491-1.953,2.87-1.369c-0.04-0.152-0.081-0.305-0.122-0.457
			c-0.859,1.34-1.918,2.126-3.411,2.664c0.248,0.245,0.498,0.49,0.746,0.735c1.512-0.671,2.725-1.649,4.027-2.651
			c0.605-0.466-0.245-0.693-0.63-0.643c-1.634,0.212-3.237,0.309-4.813-0.249c-0.386,0.325-0.771,0.649-1.156,0.974
			c2.613-0.087,4.875-1.086,6.424-3.24c0.516-0.716-1.223-0.444-1.488-0.265c-1.773,1.195-3.625,1.779-5.771,1.572
			C173.797,275.433,172.102,276.391,173.172,276.494L173.172,276.494z"/>
	</g>
</g>
<g>
	<g>
		<path d="M183.339,277.123c-0.19-0.075-0.372-0.101-0.575-0.117c-0.111,0.002-0.223,0.004-0.334,0.006
			c-0.186,0.004-0.152,0.019,0.1,0.043c-0.109-0.245,0.58-0.705,0.727-0.907c0.174-0.244,0.162-0.591,0.131-0.872
			c-0.053-0.463-0.082-0.829,0.113-1.269c0.146-0.329-0.67-0.22-0.777-0.202c-0.316,0.056-0.977,0.192-1.129,0.536
			c-0.178,0.398-0.221,0.785-0.171,1.216c0.056,0.483,0.101,0.855-0.337,1.182c-0.188,0.141-0.803,0.691-0.404,0.97
			c0.32,0.224,0.728,0.038,1.073,0.174c0.382,0.15,1.011-0.079,1.352-0.243C183.316,277.54,183.729,277.277,183.339,277.123
			L183.339,277.123z"/>
	</g>
</g>
<g>
	<g>
		<path fill="#FFFFFF" d="M176.896,272.411c-2.299,0.098-4.393,0.812-6.506,1.675c-0.23,0.094-0.939,0.473-0.43,0.705
			c1.988,0.901,4.281,0.521,6.078-0.634c-0.502-0.054-1.006-0.109-1.508-0.163c-1.066,0.828-2.52,0.827-3.785,1.12
			c-0.562,0.13-1.352,0.84-0.301,0.829c1.746-0.019,3.195-0.702,4.838-1.189c-0.15-0.222-0.302-0.444-0.453-0.667
			c-0.844,0.339-1.589,0.635-2.514,0.771c-0.541,0.079-1.775,0.937-0.561,0.884c3.15-0.139,5.58-1.848,8.42-2.986
			c1.268-0.508,0.082-0.9-0.707-0.584c-2.268,0.909-4.41,2.552-6.912,2.662c-0.188,0.295-0.373,0.589-0.561,0.884
			c1.247-0.183,2.373-0.576,3.541-1.046c1.062-0.428,0.379-0.914-0.453-0.667c-1.277,0.379-2.477,1.016-3.838,1.03
			c-0.1,0.276-0.199,0.552-0.301,0.829c1.818-0.421,3.57-0.521,5.094-1.706c0.852-0.661-1.146-0.396-1.508-0.163
			c-1.025,0.659-2.054,0.403-3.004-0.028c-0.143,0.235-0.287,0.47-0.43,0.705c1.624-0.663,3.221-1.275,4.996-1.351
			C176.684,273.294,178.188,272.356,176.896,272.411L176.896,272.411z"/>
	</g>
</g>
<g>
	<g>
		<path fill="#FFFFFF" d="M169.026,275.419c2.197-0.026,4.403-0.145,6.558-0.619c2.816-0.62,5.581-1.75,8.473-1.903
			c1.041-0.055,1.534-1.345,0.209-1.275c-2.096,0.111-4.007,0.678-6.008,1.282c-2.941,0.889-5.965,1.203-9.022,1.239
			C168.186,274.157,167.707,275.435,169.026,275.419L169.026,275.419z"/>
	</g>
</g>
<g>
	<g>
		<path fill="#FFFFFF" d="M175.195,274.565c1.977-0.046,3.836-0.406,5.738-0.926c1.356-0.371,2.443-0.66,3.486,0.499
			c0.65,0.721,0.969,1.826,1.298,2.718c0.222,0.601,2.132,0.023,1.931-0.518c-0.555-1.504-1.332-3.807-3.23-4.048
			c-2.806-0.358-5.602,1.23-8.441,1.296C175.338,273.601,173.896,274.595,175.195,274.565L175.195,274.565z"/>
	</g>
</g>
<g>
	<g>
		<path fill="#FFFFFF" d="M177.713,284.52c-0.324,0.317-0.678,0.59-1.039,0.862c-0.301,0.226-0.534,0.668-0.124,0.926
			c0.398,0.25,1.021,0.133,1.38-0.136c0.482-0.361,0.949-0.736,1.381-1.157c0.318-0.312,0.171-0.736-0.23-0.861
			C178.607,284.007,178.059,284.183,177.713,284.52L177.713,284.52z"/>
	</g>
</g>
<g>
	<g>
		<path d="M179.348,279.672c0.535,0,1.049-0.029,1.574-0.144c0.41-0.089,0.9-0.503,0.775-0.971
			c-0.133-0.495-0.747-0.542-1.156-0.453c-0.34,0.074-0.702,0.056-1.049,0.057c-0.441,0-1.009,0.338-1.055,0.816
			C178.389,279.493,178.938,279.673,179.348,279.672L179.348,279.672z"/>
	</g>
</g>
<g>
	<g>
		<path d="M180.633,275.139c3.451-0.284,4.229,5.08,5.085,7.466c0.297,0.827,2.218,0.281,1.931-0.518
			c-1.229-3.424-2.1-8.658-6.818-8.27C179.779,273.904,179.31,275.248,180.633,275.139L180.633,275.139z"/>
	</g>
</g>
<g>
	<g>
		<path d="M181.984,277.664c0.494,1.635,1.643,2.814,2.522,4.236c0.317,0.513,2.12-0.214,1.932-0.518
			c-0.878-1.419-2.029-2.605-2.521-4.236C183.768,276.653,181.844,277.196,181.984,277.664L181.984,277.664z"/>
	</g>
</g>
</svg>
