<?xml version="1.0" encoding="utf-8"?>
<!-- Generator: Adobe Illustrator 15.0.2, SVG Export Plug-In  -->
<!DOCTYPE svg PUBLIC "-//W3C//DTD SVG 1.1//EN" "http://www.w3.org/Graphics/SVG/1.1/DTD/svg11.dtd" [
	<!ENTITY ns_flows "http://ns.adobe.com/Flows/1.0/">
]>
<svg version="1.1"
	 xmlns="http://www.w3.org/2000/svg" xmlns:xlink="http://www.w3.org/1999/xlink" xmlns:a="http://ns.adobe.com/AdobeSVGViewerExtensions/3.0/"
	 x="0px" y="0px" width="674px" height="146px" viewBox="-31.295 -13.543 674 146"
	 overflow="visible" enable-background="new -31.295 -13.543 674 146" xml:space="preserve">
<defs>
</defs>
<path d="M70.096,19.005c0,0-19.525-19.102-21.76-19.005C46.102,0.101-0.925,100.107,0.014,100.943
	c0.938,0.833,17.561,15.73,19.02,14.965c1.463-0.767,13.51-38.303,13.51-38.303l26.038-2.107l8.022,56.65l17.439-8.876
	L70.096,19.005z M55.297,58.153L44.48,57.19c0,0,3.104-19.118,4.559-20.144c1.454-1.022,7.031,10.418,7.031,10.418L55.297,58.153z"
	/>
<path d="M390.655,23.029c0.122-0.995-56.471-11.998-56.471-11.998s-10.946,11.816-11.241,13.652s-14.57,82.074-13.367,83.093
	c1.2,1.022,14.214,12.935,15.22,12.92c1.005-0.019,50.958,0.306,53.95-0.893c2.992-1.201,6.951-7.396,6.951-7.396l2.395-34.589
	l7.189-2.277l0.626-9.047l-33.849,0.077l-3.876,11.152c0,0,12.251-0.337,14.321-1.348c2.07-1.014,3.266,20.519,2.332,22.172
	c-0.931,1.657-42.771,5.476-44.072,3.413c-1.303-2.063,4.735-64.899,4.735-64.899s1.591-1.835,3.048-1.86
	c1.457-0.022,50.797-0.579,51.768-0.822C391.282,34.133,390.529,24.021,390.655,23.029z"/>
<path d="M93.759,37.446l0.817,81.615l8.578,3.546l5.02-5.653l-0.246-41.89l26.498,47.883l8.712-2.004l5.185-6.195l3.39-75.545
	c0,0-2.892-5.617-4.437-6.085c-1.543-0.467-5.957,4.917-5.957,4.917l-1.956,3.285l-1.87,54.078L107.781,36.57l-6.764-2.82
	L93.759,37.446z"/>
<path d="M165.141,112l12.174,6.358l8.188-6.537l6.3-87.24l15.123-3.55l3.227-8.891l-5.445-3.236l-61.367,2.493
	c0,0-7.721,14.229-5.743,15.398c1.979,1.171,35.951-2.002,35.951-2.002L165.141,112z"/>
<path d="M221.641,32.579l-7.17,8.563c0,0-9.76,72.328-9.029,72.985c0.732,0.655,8.903,8.102,11.623,7.884
	c2.715-0.219,11.008-7.119,11.994-8.787c0.988-1.671,5.071-70.846,5.071-70.846l-5.294-9.359L221.641,32.579z"/>
<path d="M219.506,24.732l-5.561-9.119c0,0,3.005-10.935,5.21-11.134c2.203-0.197,13.3-1.195,13.3-1.195l3.479,5.662
	c0,0-0.992,10.173-2.699,12.249C231.531,23.276,219.506,24.732,219.506,24.732z"/>
<path d="M254.381,63c-2.365,1.33-7.279,12.716-7.279,12.716s2.928,12.255,6.107,11.917c3.181-0.346,37.029-3.164,40.243-4.331
	c3.214-1.168,4.888-5.222,4.888-5.222s1.832-7.112,0.443-8.564C297.395,68.06,256.751,61.667,254.381,63z"/>
<path d="M453.594,94.699c0,0-12.597-28.19-10.07-29c2.527-0.812,10.532-3.469,10.532-3.469l3.353-5.249l2.794-40.312l-5.868-5.268
	l-45.236,4.819l-12.192,95.477c0,0,4.389,3.252,7.193,3.432c2.806,0.176,8.087-2.749,8.087-2.749s4.271-44.123,6.621-45.363
	c2.351-1.241,7.621,0.708,7.621,0.708s3.854,19.798,6.06,23.173c2.204,3.375,12.394,20.057,13.858,21.214
	c1.467,1.158,9.912,7.831,9.912,7.831l7.152-5.99L453.594,94.699z M441.865,46.09c-0.66,0.112-19.511,3.332-20.637,2.812
	c-1.125-0.521-1.824-20.593-0.352-21.708c1.469-1.113,23.502,6.07,24.387,6.708C446.148,34.54,442.525,45.978,441.865,46.09z"/>
<path d="M505.276,21.208l-12.465-10.982l-9.018-0.518l-25.31,79.083c0,0,8.328,13.824,9.775,13.912
	c1.443,0.089,12.945-38.314,12.945-38.314l15.08-0.186c0,0,10.862,55.261,11.781,54.812c0.918-0.451,12.199-5.424,13.057-6.413
	C521.98,111.616,505.276,21.208,505.276,21.208z M497.957,47.11c0,0-8.896-0.544-10.109-0.62
	c-1.213-0.074,3.501-16.426,3.501-16.426s2.433-0.684,3.841,0.235c1.402,0.918,3.199,7.685,3.199,7.685L497.957,47.11z"/>
<path d="M526.855,21.17c0.855-0.818-1.951,79.016-1.062,79.543c0.892,0.526,8.848,5.27,10.425,5.647
	c1.574,0.376,9.387-4.895,9.307-6.075c-0.08-1.18-4.699-75.535-5.233-78.275c-0.534-2.738-6.631-7.348-6.631-7.348
	S525.994,21.99,526.855,21.17z"/>
<path d="M552.677,18.469c1.651,1.334,3.036,93.258,4.188,93.756c1.154,0.499,10.811,4.893,11.902,2.495
	c1.1-2.401-1.649-50.73-0.343-51.998c1.308-1.267,28.812,50.955,30.827,51.21c2.016,0.257,7-3.795,7-3.795l0.789-105.244
	c0,0-2.993-5.503-3.887-4.25c-0.896,1.253-7.457,10.423-7.457,10.423s-2.039,52.05-1.249,58.238S570.317,28.72,570.317,28.72
	l-9.968-13.708C560.35,15.012,551.029,17.135,552.677,18.469z"/>
</svg>
