<?xml version="1.0" encoding="utf-8"?>
<!-- Generator: Adobe Illustrator 16.0.4, SVG Export Plug-In . SVG Version: 6.00 Build 0)  -->
<!DOCTYPE svg PUBLIC "-//W3C//DTD SVG 1.1//EN" "http://www.w3.org/Graphics/SVG/1.1/DTD/svg11.dtd">
<svg version="1.1" id="Layer_1" xmlns="http://www.w3.org/2000/svg" xmlns:xlink="http://www.w3.org/1999/xlink" x="0px" y="0px"
	 width="612px" height="792px" viewBox="0 0 612 792" enable-background="new 0 0 612 792" xml:space="preserve">
<g>
	<g id="XMLID_1_">
		<g>
			<path fill="#FFFFFF" d="M318.13,388.32c0,0.08-0.02,0.16-0.04,0.24c-0.13,0.48-0.31,0.95-0.5,1.41c-0.27,0.67-0.57,1.34-0.85,2
				c-0.41,0.98-0.83,1.96-1.24,2.94c-0.37,0.91-0.73,1.84-1.1,2.75c-0.261,0.64-0.53,1.27-0.79,1.899
				c-0.391,0.931-0.78,1.851-1.17,2.78c-0.391,0.94-0.78,1.88-1.181,2.82c-0.25,0.6-0.5,1.21-0.77,1.8
				c-0.15,0.33-0.42,0.51-0.7,0.51c-0.23,0-0.46-0.12-0.65-0.37c-1.05-1.369-2.069-2.77-3.1-4.149c-0.23-0.32-0.47-0.63-0.74-0.98
				c-0.93,1-1.82,1.94-2.71,2.88c-0.15,0.16-0.31,0.32-0.49,0.41c-0.17,0.09-0.44,0.181-0.58,0.11c-0.14-0.08-0.27-0.351-0.27-0.53
				c0.01-1.649,0.05-3.3,0.08-4.95c0.01-0.239,0.04-0.479,0.05-0.72c0-0.26-0.11-0.39-0.37-0.51c-1.53-0.68-3.04-1.391-4.55-2.11
				c-0.25-0.12-0.39-0.39-0.39-0.65c0-0.21,0.09-0.43,0.28-0.55c0.34-0.24,0.75-0.38,1.14-0.52c1.88-0.7,3.77-1.39,5.66-2.08
				c1.87-0.68,3.75-1.36,5.62-2.04c2.49-0.91,4.98-1.82,7.48-2.72c0.38-0.14,0.79-0.26,1.2-0.29
				C317.86,387.68,318.13,387.95,318.13,388.32z M313.17,392.17c0.03,0.03,0.05,0.06,0.07,0.1c-2.49,2.55-4.98,5.11-7.47,7.67
				c1.26,1.71,2.53,3.42,3.84,5.18c2.13-5.13,4.229-10.21,6.38-15.37c-5.74,2.08-11.36,4.12-17.1,6.2c1.17,0.56,2.2,1.069,3.25,1.55
				c0.17,0.07,0.45,0.03,0.63-0.06c1.28-0.631,2.54-1.301,3.81-1.95c1.55-0.79,3.1-1.58,4.65-2.37
				C311.87,392.79,312.53,392.49,313.17,392.17z"/>
		</g>
		<g>
		</g>
	</g>
</g>
</svg>
