<?xml version="1.0" encoding="utf-8"?>
<!-- Generator: Adobe Illustrator 15.0.0, SVG Export Plug-In . SVG Version: 6.00 Build 0)  -->
<!DOCTYPE svg PUBLIC "-//W3C//DTD SVG 1.1//EN" "http://www.w3.org/Graphics/SVG/1.1/DTD/svg11.dtd">
<svg version="1.1" id="Layer_2" xmlns="http://www.w3.org/2000/svg" xmlns:xlink="http://www.w3.org/1999/xlink" x="0px" y="0px"
	 width="100px" height="100px" viewBox="0 0 100 100" enable-background="new 0 0 100 100" xml:space="preserve">
<path fill="#FFFFFF" d="M96.535,2.729c1.977,1.758,0.564,6.494-2.692,10.229c-3.05,3.5-7.356,4.128-9.868,6.641
	c-0.725,0.723-2.334,3.589-2.334,3.589s-0.74-1.346-2.242-2.781c-1.744-1.665-2.961-2.243-2.961-2.243s2.438-1.512,3.317-2.333
	c2.603-2.423,4.761-7.281,6.731-9.153C90.075,3.268,94.52,0.936,96.535,2.729z"/>
<path fill="#FFFFFF" d="M3.465,97.271c-1.976-1.758-0.565-6.494,2.692-10.23c3.051-3.499,7.358-4.128,9.871-6.641
	c0.724-0.724,2.333-3.588,2.333-3.588s0.741,1.347,2.244,2.78c1.744,1.665,2.961,2.243,2.961,2.243s-2.438,1.512-3.32,2.334
	c-2.602,2.422-4.759,7.279-6.73,9.152C9.925,96.732,5.482,99.064,3.465,97.271z"/>
<path fill="#FFFFFF" d="M80.333,24.394c0,0-0.74-1.346-2.243-2.782c-1.744-1.666-2.962-2.243-2.962-2.243l-3.381-1.526
	L18.028,71.861l1.562,3.591c0,0,0.741,1.346,2.244,2.78c1.743,1.666,2.961,2.244,2.961,2.244l3.644,1.494l53.36-54.318
	L80.333,24.394z"/>
<path fill="#FFFFFF" d="M13.514,6.678c1.971,1.872,4.129,6.73,6.731,9.153c0.88,0.821,3.317,2.333,3.317,2.333
	s-1.217,0.578-2.961,2.243c-1.502,1.435-2.242,2.781-2.242,2.781s-1.609-2.866-2.334-3.589c-2.512-2.513-6.818-3.141-9.868-6.641
	C2.9,9.223,1.488,4.487,3.465,2.729C5.48,0.936,9.925,3.268,13.514,6.678z"/>
<path fill="#FFFFFF" d="M86.484,93.322c-1.971-1.873-4.129-6.73-6.73-9.152c-0.882-0.822-3.32-2.334-3.32-2.334
	s1.217-0.578,2.961-2.243c1.504-1.434,2.244-2.78,2.244-2.78s1.609,2.864,2.334,3.588c2.512,2.513,6.819,3.142,9.87,6.641
	c3.257,3.736,4.668,8.473,2.692,10.23C94.518,99.064,90.075,96.732,86.484,93.322z"/>
<path fill="#FFFFFF" d="M18.201,27.653l53.359,54.318l3.645-1.494c0,0,1.218-0.578,2.961-2.244c1.503-1.435,2.244-2.78,2.244-2.78
	l1.562-3.591l-53.72-54.019l-3.381,1.526c0,0-1.218,0.577-2.962,2.243c-1.503,1.436-2.243,2.782-2.243,2.782L18.201,27.653z"/>
</svg>
